<svg width="1080" height="1350" viewBox="0 0 1080 1350" xmlns="http://www.w3.org/2000/svg">
<rect width="1080" height="1350" fill="#161512"/>
<circle cx="900" cy="120" r="240" fill="#6C4DF6" opacity="0.14"/>
<g transform="translate(399.2,4.799999999999983) scale(2.2)">
<circle cx="30" cy="52" r="19" fill="#FBF7EF"/><circle cx="98" cy="52" r="19" fill="#FBF7EF"/>
<circle cx="30" cy="52" r="9" fill="#FFD21E"/><circle cx="98" cy="52" r="9" fill="#FFD21E"/>
<rect x="28" y="26" width="72" height="80" rx="36" fill="#FBF7EF"/>
<circle cx="64" cy="70" r="30" fill="#161512"/>
<path d="M57 55 L57 85 L84 70 Z" fill="#FFD21E" stroke="#FFD21E" stroke-width="5" stroke-linejoin="round"/></g>
<text x="540" y="380" text-anchor="middle" font-family="'Space Grotesk', sans-serif" font-size="72" font-weight="700" fill="#FBF7EF" letter-spacing="-2">monty</text>
<rect x="193" y="442" width="694" height="694" rx="32" fill="#FBF7EF"/>
<rect x="221" y="470" width="22" height="22" fill="#161512"/>
<rect x="243" y="470" width="22" height="22" fill="#161512"/>
<rect x="265" y="470" width="22" height="22" fill="#161512"/>
<rect x="287" y="470" width="22" height="22" fill="#161512"/>
<rect x="309" y="470" width="22" height="22" fill="#161512"/>
<rect x="331" y="470" width="22" height="22" fill="#161512"/>
<rect x="353" y="470" width="22" height="22" fill="#161512"/>
<rect x="397" y="470" width="22" height="22" fill="#161512"/>
<rect x="463" y="470" width="22" height="22" fill="#161512"/>
<rect x="485" y="470" width="22" height="22" fill="#161512"/>
<rect x="529" y="470" width="22" height="22" fill="#161512"/>
<rect x="617" y="470" width="22" height="22" fill="#161512"/>
<rect x="661" y="470" width="22" height="22" fill="#161512"/>
<rect x="705" y="470" width="22" height="22" fill="#161512"/>
<rect x="727" y="470" width="22" height="22" fill="#161512"/>
<rect x="749" y="470" width="22" height="22" fill="#161512"/>
<rect x="771" y="470" width="22" height="22" fill="#161512"/>
<rect x="793" y="470" width="22" height="22" fill="#161512"/>
<rect x="815" y="470" width="22" height="22" fill="#161512"/>
<rect x="837" y="470" width="22" height="22" fill="#161512"/>
<rect x="221" y="492" width="22" height="22" fill="#161512"/>
<rect x="353" y="492" width="22" height="22" fill="#161512"/>
<rect x="441" y="492" width="22" height="22" fill="#161512"/>
<rect x="463" y="492" width="22" height="22" fill="#161512"/>
<rect x="485" y="492" width="22" height="22" fill="#161512"/>
<rect x="595" y="492" width="22" height="22" fill="#161512"/>
<rect x="617" y="492" width="22" height="22" fill="#161512"/>
<rect x="661" y="492" width="22" height="22" fill="#161512"/>
<rect x="705" y="492" width="22" height="22" fill="#161512"/>
<rect x="837" y="492" width="22" height="22" fill="#161512"/>
<rect x="221" y="514" width="22" height="22" fill="#161512"/>
<rect x="265" y="514" width="22" height="22" fill="#161512"/>
<rect x="287" y="514" width="22" height="22" fill="#161512"/>
<rect x="309" y="514" width="22" height="22" fill="#161512"/>
<rect x="353" y="514" width="22" height="22" fill="#161512"/>
<rect x="419" y="514" width="22" height="22" fill="#161512"/>
<rect x="507" y="514" width="22" height="22" fill="#161512"/>
<rect x="551" y="514" width="22" height="22" fill="#161512"/>
<rect x="705" y="514" width="22" height="22" fill="#161512"/>
<rect x="749" y="514" width="22" height="22" fill="#161512"/>
<rect x="771" y="514" width="22" height="22" fill="#161512"/>
<rect x="793" y="514" width="22" height="22" fill="#161512"/>
<rect x="837" y="514" width="22" height="22" fill="#161512"/>
<rect x="221" y="536" width="22" height="22" fill="#161512"/>
<rect x="265" y="536" width="22" height="22" fill="#161512"/>
<rect x="287" y="536" width="22" height="22" fill="#161512"/>
<rect x="309" y="536" width="22" height="22" fill="#161512"/>
<rect x="353" y="536" width="22" height="22" fill="#161512"/>
<rect x="397" y="536" width="22" height="22" fill="#161512"/>
<rect x="441" y="536" width="22" height="22" fill="#161512"/>
<rect x="463" y="536" width="22" height="22" fill="#161512"/>
<rect x="485" y="536" width="22" height="22" fill="#161512"/>
<rect x="529" y="536" width="22" height="22" fill="#161512"/>
<rect x="551" y="536" width="22" height="22" fill="#161512"/>
<rect x="595" y="536" width="22" height="22" fill="#161512"/>
<rect x="617" y="536" width="22" height="22" fill="#161512"/>
<rect x="661" y="536" width="22" height="22" fill="#161512"/>
<rect x="705" y="536" width="22" height="22" fill="#161512"/>
<rect x="749" y="536" width="22" height="22" fill="#161512"/>
<rect x="771" y="536" width="22" height="22" fill="#161512"/>
<rect x="793" y="536" width="22" height="22" fill="#161512"/>
<rect x="837" y="536" width="22" height="22" fill="#161512"/>
<rect x="221" y="558" width="22" height="22" fill="#161512"/>
<rect x="265" y="558" width="22" height="22" fill="#161512"/>
<rect x="287" y="558" width="22" height="22" fill="#161512"/>
<rect x="309" y="558" width="22" height="22" fill="#161512"/>
<rect x="353" y="558" width="22" height="22" fill="#161512"/>
<rect x="397" y="558" width="22" height="22" fill="#161512"/>
<rect x="441" y="558" width="22" height="22" fill="#161512"/>
<rect x="507" y="558" width="22" height="22" fill="#161512"/>
<rect x="529" y="558" width="22" height="22" fill="#161512"/>
<rect x="639" y="558" width="22" height="22" fill="#161512"/>
<rect x="705" y="558" width="22" height="22" fill="#161512"/>
<rect x="749" y="558" width="22" height="22" fill="#161512"/>
<rect x="771" y="558" width="22" height="22" fill="#161512"/>
<rect x="793" y="558" width="22" height="22" fill="#161512"/>
<rect x="837" y="558" width="22" height="22" fill="#161512"/>
<rect x="221" y="580" width="22" height="22" fill="#161512"/>
<rect x="353" y="580" width="22" height="22" fill="#161512"/>
<rect x="397" y="580" width="22" height="22" fill="#161512"/>
<rect x="441" y="580" width="22" height="22" fill="#161512"/>
<rect x="507" y="580" width="22" height="22" fill="#161512"/>
<rect x="529" y="580" width="22" height="22" fill="#161512"/>
<rect x="551" y="580" width="22" height="22" fill="#161512"/>
<rect x="617" y="580" width="22" height="22" fill="#161512"/>
<rect x="705" y="580" width="22" height="22" fill="#161512"/>
<rect x="837" y="580" width="22" height="22" fill="#161512"/>
<rect x="221" y="602" width="22" height="22" fill="#161512"/>
<rect x="243" y="602" width="22" height="22" fill="#161512"/>
<rect x="265" y="602" width="22" height="22" fill="#161512"/>
<rect x="287" y="602" width="22" height="22" fill="#161512"/>
<rect x="309" y="602" width="22" height="22" fill="#161512"/>
<rect x="331" y="602" width="22" height="22" fill="#161512"/>
<rect x="353" y="602" width="22" height="22" fill="#161512"/>
<rect x="397" y="602" width="22" height="22" fill="#161512"/>
<rect x="441" y="602" width="22" height="22" fill="#161512"/>
<rect x="485" y="602" width="22" height="22" fill="#161512"/>
<rect x="529" y="602" width="22" height="22" fill="#161512"/>
<rect x="573" y="602" width="22" height="22" fill="#161512"/>
<rect x="617" y="602" width="22" height="22" fill="#161512"/>
<rect x="661" y="602" width="22" height="22" fill="#161512"/>
<rect x="705" y="602" width="22" height="22" fill="#161512"/>
<rect x="727" y="602" width="22" height="22" fill="#161512"/>
<rect x="749" y="602" width="22" height="22" fill="#161512"/>
<rect x="771" y="602" width="22" height="22" fill="#161512"/>
<rect x="793" y="602" width="22" height="22" fill="#161512"/>
<rect x="815" y="602" width="22" height="22" fill="#161512"/>
<rect x="837" y="602" width="22" height="22" fill="#161512"/>
<rect x="397" y="624" width="22" height="22" fill="#161512"/>
<rect x="463" y="624" width="22" height="22" fill="#161512"/>
<rect x="485" y="624" width="22" height="22" fill="#161512"/>
<rect x="529" y="624" width="22" height="22" fill="#161512"/>
<rect x="551" y="624" width="22" height="22" fill="#161512"/>
<rect x="573" y="624" width="22" height="22" fill="#161512"/>
<rect x="639" y="624" width="22" height="22" fill="#161512"/>
<rect x="661" y="624" width="22" height="22" fill="#161512"/>
<rect x="221" y="646" width="22" height="22" fill="#161512"/>
<rect x="309" y="646" width="22" height="22" fill="#161512"/>
<rect x="353" y="646" width="22" height="22" fill="#161512"/>
<rect x="375" y="646" width="22" height="22" fill="#161512"/>
<rect x="397" y="646" width="22" height="22" fill="#161512"/>
<rect x="419" y="646" width="22" height="22" fill="#161512"/>
<rect x="441" y="646" width="22" height="22" fill="#161512"/>
<rect x="507" y="646" width="22" height="22" fill="#161512"/>
<rect x="529" y="646" width="22" height="22" fill="#161512"/>
<rect x="573" y="646" width="22" height="22" fill="#161512"/>
<rect x="617" y="646" width="22" height="22" fill="#161512"/>
<rect x="661" y="646" width="22" height="22" fill="#161512"/>
<rect x="683" y="646" width="22" height="22" fill="#161512"/>
<rect x="705" y="646" width="22" height="22" fill="#161512"/>
<rect x="727" y="646" width="22" height="22" fill="#161512"/>
<rect x="749" y="646" width="22" height="22" fill="#161512"/>
<rect x="771" y="646" width="22" height="22" fill="#161512"/>
<rect x="837" y="646" width="22" height="22" fill="#161512"/>
<rect x="243" y="668" width="22" height="22" fill="#161512"/>
<rect x="287" y="668" width="22" height="22" fill="#161512"/>
<rect x="485" y="668" width="22" height="22" fill="#161512"/>
<rect x="573" y="668" width="22" height="22" fill="#161512"/>
<rect x="661" y="668" width="22" height="22" fill="#161512"/>
<rect x="683" y="668" width="22" height="22" fill="#161512"/>
<rect x="705" y="668" width="22" height="22" fill="#161512"/>
<rect x="727" y="668" width="22" height="22" fill="#161512"/>
<rect x="749" y="668" width="22" height="22" fill="#161512"/>
<rect x="771" y="668" width="22" height="22" fill="#161512"/>
<rect x="793" y="668" width="22" height="22" fill="#161512"/>
<rect x="815" y="668" width="22" height="22" fill="#161512"/>
<rect x="837" y="668" width="22" height="22" fill="#161512"/>
<rect x="221" y="690" width="22" height="22" fill="#161512"/>
<rect x="265" y="690" width="22" height="22" fill="#161512"/>
<rect x="287" y="690" width="22" height="22" fill="#161512"/>
<rect x="353" y="690" width="22" height="22" fill="#161512"/>
<rect x="375" y="690" width="22" height="22" fill="#161512"/>
<rect x="419" y="690" width="22" height="22" fill="#161512"/>
<rect x="441" y="690" width="22" height="22" fill="#161512"/>
<rect x="485" y="690" width="22" height="22" fill="#161512"/>
<rect x="507" y="690" width="22" height="22" fill="#161512"/>
<rect x="529" y="690" width="22" height="22" fill="#161512"/>
<rect x="573" y="690" width="22" height="22" fill="#161512"/>
<rect x="683" y="690" width="22" height="22" fill="#161512"/>
<rect x="727" y="690" width="22" height="22" fill="#161512"/>
<rect x="837" y="690" width="22" height="22" fill="#161512"/>
<rect x="243" y="712" width="22" height="22" fill="#161512"/>
<rect x="309" y="712" width="22" height="22" fill="#161512"/>
<rect x="331" y="712" width="22" height="22" fill="#161512"/>
<rect x="375" y="712" width="22" height="22" fill="#161512"/>
<rect x="397" y="712" width="22" height="22" fill="#161512"/>
<rect x="485" y="712" width="22" height="22" fill="#161512"/>
<rect x="507" y="712" width="22" height="22" fill="#161512"/>
<rect x="639" y="712" width="22" height="22" fill="#161512"/>
<rect x="705" y="712" width="22" height="22" fill="#161512"/>
<rect x="771" y="712" width="22" height="22" fill="#161512"/>
<rect x="815" y="712" width="22" height="22" fill="#161512"/>
<rect x="837" y="712" width="22" height="22" fill="#161512"/>
<rect x="221" y="734" width="22" height="22" fill="#161512"/>
<rect x="243" y="734" width="22" height="22" fill="#161512"/>
<rect x="309" y="734" width="22" height="22" fill="#161512"/>
<rect x="331" y="734" width="22" height="22" fill="#161512"/>
<rect x="353" y="734" width="22" height="22" fill="#161512"/>
<rect x="397" y="734" width="22" height="22" fill="#161512"/>
<rect x="419" y="734" width="22" height="22" fill="#161512"/>
<rect x="441" y="734" width="22" height="22" fill="#161512"/>
<rect x="507" y="734" width="22" height="22" fill="#161512"/>
<rect x="551" y="734" width="22" height="22" fill="#161512"/>
<rect x="573" y="734" width="22" height="22" fill="#161512"/>
<rect x="639" y="734" width="22" height="22" fill="#161512"/>
<rect x="727" y="734" width="22" height="22" fill="#161512"/>
<rect x="815" y="734" width="22" height="22" fill="#161512"/>
<rect x="265" y="756" width="22" height="22" fill="#161512"/>
<rect x="375" y="756" width="22" height="22" fill="#161512"/>
<rect x="397" y="756" width="22" height="22" fill="#161512"/>
<rect x="419" y="756" width="22" height="22" fill="#161512"/>
<rect x="441" y="756" width="22" height="22" fill="#161512"/>
<rect x="485" y="756" width="22" height="22" fill="#161512"/>
<rect x="507" y="756" width="22" height="22" fill="#161512"/>
<rect x="529" y="756" width="22" height="22" fill="#161512"/>
<rect x="705" y="756" width="22" height="22" fill="#161512"/>
<rect x="727" y="756" width="22" height="22" fill="#161512"/>
<rect x="749" y="756" width="22" height="22" fill="#161512"/>
<rect x="771" y="756" width="22" height="22" fill="#161512"/>
<rect x="793" y="756" width="22" height="22" fill="#161512"/>
<rect x="815" y="756" width="22" height="22" fill="#161512"/>
<rect x="837" y="756" width="22" height="22" fill="#161512"/>
<rect x="221" y="778" width="22" height="22" fill="#161512"/>
<rect x="243" y="778" width="22" height="22" fill="#161512"/>
<rect x="265" y="778" width="22" height="22" fill="#161512"/>
<rect x="287" y="778" width="22" height="22" fill="#161512"/>
<rect x="353" y="778" width="22" height="22" fill="#161512"/>
<rect x="375" y="778" width="22" height="22" fill="#161512"/>
<rect x="397" y="778" width="22" height="22" fill="#161512"/>
<rect x="573" y="778" width="22" height="22" fill="#161512"/>
<rect x="595" y="778" width="22" height="22" fill="#161512"/>
<rect x="661" y="778" width="22" height="22" fill="#161512"/>
<rect x="727" y="778" width="22" height="22" fill="#161512"/>
<rect x="749" y="778" width="22" height="22" fill="#161512"/>
<rect x="771" y="778" width="22" height="22" fill="#161512"/>
<rect x="793" y="778" width="22" height="22" fill="#161512"/>
<rect x="837" y="778" width="22" height="22" fill="#161512"/>
<rect x="243" y="800" width="22" height="22" fill="#161512"/>
<rect x="265" y="800" width="22" height="22" fill="#161512"/>
<rect x="309" y="800" width="22" height="22" fill="#161512"/>
<rect x="331" y="800" width="22" height="22" fill="#161512"/>
<rect x="419" y="800" width="22" height="22" fill="#161512"/>
<rect x="441" y="800" width="22" height="22" fill="#161512"/>
<rect x="463" y="800" width="22" height="22" fill="#161512"/>
<rect x="485" y="800" width="22" height="22" fill="#161512"/>
<rect x="529" y="800" width="22" height="22" fill="#161512"/>
<rect x="551" y="800" width="22" height="22" fill="#161512"/>
<rect x="573" y="800" width="22" height="22" fill="#161512"/>
<rect x="639" y="800" width="22" height="22" fill="#161512"/>
<rect x="661" y="800" width="22" height="22" fill="#161512"/>
<rect x="683" y="800" width="22" height="22" fill="#161512"/>
<rect x="749" y="800" width="22" height="22" fill="#161512"/>
<rect x="815" y="800" width="22" height="22" fill="#161512"/>
<rect x="837" y="800" width="22" height="22" fill="#161512"/>
<rect x="287" y="822" width="22" height="22" fill="#161512"/>
<rect x="309" y="822" width="22" height="22" fill="#161512"/>
<rect x="331" y="822" width="22" height="22" fill="#161512"/>
<rect x="353" y="822" width="22" height="22" fill="#161512"/>
<rect x="441" y="822" width="22" height="22" fill="#161512"/>
<rect x="463" y="822" width="22" height="22" fill="#161512"/>
<rect x="507" y="822" width="22" height="22" fill="#161512"/>
<rect x="529" y="822" width="22" height="22" fill="#161512"/>
<rect x="573" y="822" width="22" height="22" fill="#161512"/>
<rect x="617" y="822" width="22" height="22" fill="#161512"/>
<rect x="661" y="822" width="22" height="22" fill="#161512"/>
<rect x="683" y="822" width="22" height="22" fill="#161512"/>
<rect x="815" y="822" width="22" height="22" fill="#161512"/>
<rect x="221" y="844" width="22" height="22" fill="#161512"/>
<rect x="243" y="844" width="22" height="22" fill="#161512"/>
<rect x="287" y="844" width="22" height="22" fill="#161512"/>
<rect x="397" y="844" width="22" height="22" fill="#161512"/>
<rect x="419" y="844" width="22" height="22" fill="#161512"/>
<rect x="441" y="844" width="22" height="22" fill="#161512"/>
<rect x="463" y="844" width="22" height="22" fill="#161512"/>
<rect x="573" y="844" width="22" height="22" fill="#161512"/>
<rect x="595" y="844" width="22" height="22" fill="#161512"/>
<rect x="661" y="844" width="22" height="22" fill="#161512"/>
<rect x="705" y="844" width="22" height="22" fill="#161512"/>
<rect x="727" y="844" width="22" height="22" fill="#161512"/>
<rect x="749" y="844" width="22" height="22" fill="#161512"/>
<rect x="771" y="844" width="22" height="22" fill="#161512"/>
<rect x="815" y="844" width="22" height="22" fill="#161512"/>
<rect x="837" y="844" width="22" height="22" fill="#161512"/>
<rect x="353" y="866" width="22" height="22" fill="#161512"/>
<rect x="375" y="866" width="22" height="22" fill="#161512"/>
<rect x="397" y="866" width="22" height="22" fill="#161512"/>
<rect x="441" y="866" width="22" height="22" fill="#161512"/>
<rect x="485" y="866" width="22" height="22" fill="#161512"/>
<rect x="507" y="866" width="22" height="22" fill="#161512"/>
<rect x="529" y="866" width="22" height="22" fill="#161512"/>
<rect x="573" y="866" width="22" height="22" fill="#161512"/>
<rect x="617" y="866" width="22" height="22" fill="#161512"/>
<rect x="705" y="866" width="22" height="22" fill="#161512"/>
<rect x="749" y="866" width="22" height="22" fill="#161512"/>
<rect x="793" y="866" width="22" height="22" fill="#161512"/>
<rect x="837" y="866" width="22" height="22" fill="#161512"/>
<rect x="265" y="888" width="22" height="22" fill="#161512"/>
<rect x="287" y="888" width="22" height="22" fill="#161512"/>
<rect x="309" y="888" width="22" height="22" fill="#161512"/>
<rect x="419" y="888" width="22" height="22" fill="#161512"/>
<rect x="463" y="888" width="22" height="22" fill="#161512"/>
<rect x="485" y="888" width="22" height="22" fill="#161512"/>
<rect x="507" y="888" width="22" height="22" fill="#161512"/>
<rect x="573" y="888" width="22" height="22" fill="#161512"/>
<rect x="661" y="888" width="22" height="22" fill="#161512"/>
<rect x="683" y="888" width="22" height="22" fill="#161512"/>
<rect x="749" y="888" width="22" height="22" fill="#161512"/>
<rect x="815" y="888" width="22" height="22" fill="#161512"/>
<rect x="837" y="888" width="22" height="22" fill="#161512"/>
<rect x="221" y="910" width="22" height="22" fill="#161512"/>
<rect x="243" y="910" width="22" height="22" fill="#161512"/>
<rect x="309" y="910" width="22" height="22" fill="#161512"/>
<rect x="331" y="910" width="22" height="22" fill="#161512"/>
<rect x="353" y="910" width="22" height="22" fill="#161512"/>
<rect x="375" y="910" width="22" height="22" fill="#161512"/>
<rect x="441" y="910" width="22" height="22" fill="#161512"/>
<rect x="507" y="910" width="22" height="22" fill="#161512"/>
<rect x="551" y="910" width="22" height="22" fill="#161512"/>
<rect x="573" y="910" width="22" height="22" fill="#161512"/>
<rect x="639" y="910" width="22" height="22" fill="#161512"/>
<rect x="661" y="910" width="22" height="22" fill="#161512"/>
<rect x="683" y="910" width="22" height="22" fill="#161512"/>
<rect x="705" y="910" width="22" height="22" fill="#161512"/>
<rect x="727" y="910" width="22" height="22" fill="#161512"/>
<rect x="749" y="910" width="22" height="22" fill="#161512"/>
<rect x="771" y="910" width="22" height="22" fill="#161512"/>
<rect x="837" y="910" width="22" height="22" fill="#161512"/>
<rect x="397" y="932" width="22" height="22" fill="#161512"/>
<rect x="419" y="932" width="22" height="22" fill="#161512"/>
<rect x="485" y="932" width="22" height="22" fill="#161512"/>
<rect x="507" y="932" width="22" height="22" fill="#161512"/>
<rect x="529" y="932" width="22" height="22" fill="#161512"/>
<rect x="661" y="932" width="22" height="22" fill="#161512"/>
<rect x="749" y="932" width="22" height="22" fill="#161512"/>
<rect x="837" y="932" width="22" height="22" fill="#161512"/>
<rect x="221" y="954" width="22" height="22" fill="#161512"/>
<rect x="243" y="954" width="22" height="22" fill="#161512"/>
<rect x="265" y="954" width="22" height="22" fill="#161512"/>
<rect x="287" y="954" width="22" height="22" fill="#161512"/>
<rect x="309" y="954" width="22" height="22" fill="#161512"/>
<rect x="331" y="954" width="22" height="22" fill="#161512"/>
<rect x="353" y="954" width="22" height="22" fill="#161512"/>
<rect x="397" y="954" width="22" height="22" fill="#161512"/>
<rect x="441" y="954" width="22" height="22" fill="#161512"/>
<rect x="463" y="954" width="22" height="22" fill="#161512"/>
<rect x="485" y="954" width="22" height="22" fill="#161512"/>
<rect x="573" y="954" width="22" height="22" fill="#161512"/>
<rect x="595" y="954" width="22" height="22" fill="#161512"/>
<rect x="639" y="954" width="22" height="22" fill="#161512"/>
<rect x="661" y="954" width="22" height="22" fill="#161512"/>
<rect x="705" y="954" width="22" height="22" fill="#161512"/>
<rect x="749" y="954" width="22" height="22" fill="#161512"/>
<rect x="771" y="954" width="22" height="22" fill="#161512"/>
<rect x="793" y="954" width="22" height="22" fill="#161512"/>
<rect x="837" y="954" width="22" height="22" fill="#161512"/>
<rect x="221" y="976" width="22" height="22" fill="#161512"/>
<rect x="353" y="976" width="22" height="22" fill="#161512"/>
<rect x="463" y="976" width="22" height="22" fill="#161512"/>
<rect x="485" y="976" width="22" height="22" fill="#161512"/>
<rect x="529" y="976" width="22" height="22" fill="#161512"/>
<rect x="551" y="976" width="22" height="22" fill="#161512"/>
<rect x="573" y="976" width="22" height="22" fill="#161512"/>
<rect x="639" y="976" width="22" height="22" fill="#161512"/>
<rect x="661" y="976" width="22" height="22" fill="#161512"/>
<rect x="749" y="976" width="22" height="22" fill="#161512"/>
<rect x="815" y="976" width="22" height="22" fill="#161512"/>
<rect x="837" y="976" width="22" height="22" fill="#161512"/>
<rect x="221" y="998" width="22" height="22" fill="#161512"/>
<rect x="265" y="998" width="22" height="22" fill="#161512"/>
<rect x="287" y="998" width="22" height="22" fill="#161512"/>
<rect x="309" y="998" width="22" height="22" fill="#161512"/>
<rect x="353" y="998" width="22" height="22" fill="#161512"/>
<rect x="397" y="998" width="22" height="22" fill="#161512"/>
<rect x="507" y="998" width="22" height="22" fill="#161512"/>
<rect x="529" y="998" width="22" height="22" fill="#161512"/>
<rect x="573" y="998" width="22" height="22" fill="#161512"/>
<rect x="617" y="998" width="22" height="22" fill="#161512"/>
<rect x="639" y="998" width="22" height="22" fill="#161512"/>
<rect x="661" y="998" width="22" height="22" fill="#161512"/>
<rect x="683" y="998" width="22" height="22" fill="#161512"/>
<rect x="705" y="998" width="22" height="22" fill="#161512"/>
<rect x="727" y="998" width="22" height="22" fill="#161512"/>
<rect x="749" y="998" width="22" height="22" fill="#161512"/>
<rect x="771" y="998" width="22" height="22" fill="#161512"/>
<rect x="815" y="998" width="22" height="22" fill="#161512"/>
<rect x="221" y="1020" width="22" height="22" fill="#161512"/>
<rect x="265" y="1020" width="22" height="22" fill="#161512"/>
<rect x="287" y="1020" width="22" height="22" fill="#161512"/>
<rect x="309" y="1020" width="22" height="22" fill="#161512"/>
<rect x="353" y="1020" width="22" height="22" fill="#161512"/>
<rect x="419" y="1020" width="22" height="22" fill="#161512"/>
<rect x="463" y="1020" width="22" height="22" fill="#161512"/>
<rect x="507" y="1020" width="22" height="22" fill="#161512"/>
<rect x="573" y="1020" width="22" height="22" fill="#161512"/>
<rect x="595" y="1020" width="22" height="22" fill="#161512"/>
<rect x="683" y="1020" width="22" height="22" fill="#161512"/>
<rect x="837" y="1020" width="22" height="22" fill="#161512"/>
<rect x="221" y="1042" width="22" height="22" fill="#161512"/>
<rect x="265" y="1042" width="22" height="22" fill="#161512"/>
<rect x="287" y="1042" width="22" height="22" fill="#161512"/>
<rect x="309" y="1042" width="22" height="22" fill="#161512"/>
<rect x="353" y="1042" width="22" height="22" fill="#161512"/>
<rect x="441" y="1042" width="22" height="22" fill="#161512"/>
<rect x="463" y="1042" width="22" height="22" fill="#161512"/>
<rect x="485" y="1042" width="22" height="22" fill="#161512"/>
<rect x="507" y="1042" width="22" height="22" fill="#161512"/>
<rect x="529" y="1042" width="22" height="22" fill="#161512"/>
<rect x="595" y="1042" width="22" height="22" fill="#161512"/>
<rect x="683" y="1042" width="22" height="22" fill="#161512"/>
<rect x="771" y="1042" width="22" height="22" fill="#161512"/>
<rect x="793" y="1042" width="22" height="22" fill="#161512"/>
<rect x="815" y="1042" width="22" height="22" fill="#161512"/>
<rect x="837" y="1042" width="22" height="22" fill="#161512"/>
<rect x="221" y="1064" width="22" height="22" fill="#161512"/>
<rect x="353" y="1064" width="22" height="22" fill="#161512"/>
<rect x="419" y="1064" width="22" height="22" fill="#161512"/>
<rect x="463" y="1064" width="22" height="22" fill="#161512"/>
<rect x="507" y="1064" width="22" height="22" fill="#161512"/>
<rect x="595" y="1064" width="22" height="22" fill="#161512"/>
<rect x="617" y="1064" width="22" height="22" fill="#161512"/>
<rect x="639" y="1064" width="22" height="22" fill="#161512"/>
<rect x="661" y="1064" width="22" height="22" fill="#161512"/>
<rect x="683" y="1064" width="22" height="22" fill="#161512"/>
<rect x="705" y="1064" width="22" height="22" fill="#161512"/>
<rect x="771" y="1064" width="22" height="22" fill="#161512"/>
<rect x="815" y="1064" width="22" height="22" fill="#161512"/>
<rect x="837" y="1064" width="22" height="22" fill="#161512"/>
<rect x="221" y="1086" width="22" height="22" fill="#161512"/>
<rect x="243" y="1086" width="22" height="22" fill="#161512"/>
<rect x="265" y="1086" width="22" height="22" fill="#161512"/>
<rect x="287" y="1086" width="22" height="22" fill="#161512"/>
<rect x="309" y="1086" width="22" height="22" fill="#161512"/>
<rect x="331" y="1086" width="22" height="22" fill="#161512"/>
<rect x="353" y="1086" width="22" height="22" fill="#161512"/>
<rect x="397" y="1086" width="22" height="22" fill="#161512"/>
<rect x="419" y="1086" width="22" height="22" fill="#161512"/>
<rect x="441" y="1086" width="22" height="22" fill="#161512"/>
<rect x="463" y="1086" width="22" height="22" fill="#161512"/>
<rect x="485" y="1086" width="22" height="22" fill="#161512"/>
<rect x="507" y="1086" width="22" height="22" fill="#161512"/>
<rect x="551" y="1086" width="22" height="22" fill="#161512"/>
<rect x="573" y="1086" width="22" height="22" fill="#161512"/>
<rect x="661" y="1086" width="22" height="22" fill="#161512"/>
<rect x="683" y="1086" width="22" height="22" fill="#161512"/>
<rect x="727" y="1086" width="22" height="22" fill="#161512"/>
<rect x="771" y="1086" width="22" height="22" fill="#161512"/>
<rect x="815" y="1086" width="22" height="22" fill="#161512"/>
<text x="540" y="1228" text-anchor="middle" font-family="'Space Grotesk', sans-serif" font-size="64" font-weight="700" fill="#FFD21E">Наведи камеру</text>
<text x="540" y="1308" text-anchor="middle" font-family="Inter, sans-serif" font-size="44" fill="#FBF7EF">ИИ смонтирует твой ролик</text>
<text x="540" y="1388" text-anchor="middle" font-family="Inter, sans-serif" font-size="40" fill="#9A958C">промокод ТВОЙ_КОД - бонус</text>
</svg>