<svg width="1080" height="1080" viewBox="0 0 1080 1080" xmlns="http://www.w3.org/2000/svg" role="img" aria-label="Monty — Как я делаю рилс без монтажа">
<defs>
  <filter id="grain" x="0" y="0" width="100%" height="100%">
    <feTurbulence type="fractalNoise" baseFrequency="0.9" numOctaves="3" seed="7" result="n"/>
    <feColorMatrix in="n" type="saturate" values="0"/>
  </filter>
  <filter id="drop" x="-40%" y="-40%" width="180%" height="200%">
    <feDropShadow dx="0" dy="10" stdDeviation="16" flood-color="#000000" flood-opacity="0.45"/>
  </filter>
  <filter id="dropSoft" x="-40%" y="-40%" width="180%" height="200%">
    <feDropShadow dx="0" dy="6" stdDeviation="9" flood-color="#000000" flood-opacity="0.22"/>
  </filter>
  <linearGradient id="screenGrad" x1="0" y1="0" x2="1" y2="1">
    <stop offset="0" stop-color="#2A1E5C"/><stop offset="0.5" stop-color="#161512"/><stop offset="1" stop-color="#0B0A09"/>
  </linearGradient>
  <linearGradient id="neonGrad" x1="0" y1="0" x2="1" y2="0">
    <stop offset="0" stop-color="#6C4DF6"/><stop offset="1" stop-color="#FFD21E"/>
  </linearGradient></defs>
<rect width="1080" height="1080" fill="#FFD21E"/>
<circle cx="928.8" cy="129.6" r="302.40000000000003" fill="#161512" opacity="0.06"/>
<circle cx="108" cy="993.6" r="324" fill="#161512" opacity="0.05"/>
<rect width="1080" height="1080" filter="url(#grain)" opacity="0.05"/>
<g transform="translate(76,66) scale(0.359375)">
    <circle cx="30" cy="52" r="19" fill="#161512"/><circle cx="98" cy="52" r="19" fill="#161512"/>
    <circle cx="30" cy="52" r="9" fill="#FFD21E"/><circle cx="98" cy="52" r="9" fill="#FFD21E"/>
    <rect x="28" y="26" width="72" height="80" rx="36" fill="#161512"/>
    <circle cx="64" cy="70" r="30" fill="#FFD21E"/>
    <path d="M57 55 L57 85 L84 70 Z" fill="#FFD21E" stroke="#FFD21E" stroke-width="5" stroke-linejoin="round"/>
  </g><path d="M137.11 102.34L132.13 102.34L132.13 82.72L137.03 82.72L137.03 84.85L137.75 84.85Q138.26 83.87 139.45 83.13Q140.63 82.4 142.57 82.4L142.57 82.4Q144.67 82.4 145.94 83.21Q147.2 84.02 147.87 85.33L147.87 85.33L148.59 85.33Q149.26 84.06 150.49 83.23Q151.71 82.4 153.97 82.4L153.97 82.4Q155.79 82.4 157.27 83.17Q158.75 83.94 159.64 85.51Q160.53 87.07 160.53 89.44L160.53 89.44L160.53 102.34L155.55 102.34L155.55 89.8Q155.55 88.18 154.72 87.37Q153.89 86.56 152.38 86.56L152.38 86.56Q150.68 86.56 149.75 87.64Q148.82 88.73 148.82 90.75L148.82 90.75L148.82 102.34L143.84 102.34L143.84 89.8Q143.84 88.18 143.01 87.37Q142.18 86.56 140.67 86.56L140.67 86.56Q138.97 86.56 138.04 87.64Q137.11 88.73 137.11 90.75L137.11 90.75L137.11 102.34M174.06 102.89L174.06 102.89Q171.14 102.89 168.8 101.71Q166.47 100.52 165.12 98.27Q163.78 96.01 163.78 92.85L163.78 92.85L163.78 92.21Q163.78 89.05 165.12 86.79Q166.47 84.54 168.8 83.35Q171.14 82.16 174.06 82.16L174.06 82.16Q176.99 82.16 179.32 83.35Q181.66 84.54 183 86.79Q184.35 89.05 184.35 92.21L184.35 92.21L184.35 92.85Q184.35 96.01 183 98.27Q181.66 100.52 179.32 101.71Q176.99 102.89 174.06 102.89M174.06 98.46L174.06 98.46Q176.36 98.46 177.86 96.98Q179.36 95.5 179.36 92.73L179.36 92.73L179.36 92.33Q179.36 89.56 177.88 88.08Q176.4 86.6 174.06 86.6L174.06 86.6Q171.77 86.6 170.27 88.08Q168.76 89.56 168.76 92.33L168.76 92.33L168.76 92.73Q168.76 95.5 170.27 96.98Q171.77 98.46 174.06 98.46M192.74 102.34L187.75 102.34L187.75 82.72L192.66 82.72L192.66 85.29L193.37 85.29Q193.84 84.26 195.15 83.33Q196.45 82.4 199.1 82.4L199.1 82.4Q201.4 82.4 203.12 83.45Q204.84 84.5 205.79 86.34Q206.74 88.18 206.74 90.63L206.74 90.63L206.74 102.34L201.75 102.34L201.75 91.03Q201.75 88.81 200.67 87.7Q199.58 86.6 197.56 86.6L197.56 86.6Q195.27 86.6 194 88.12Q192.74 89.64 192.74 92.37L192.74 92.37L192.74 102.34M223.43 102.34L217.9 102.34Q215.96 102.34 214.75 101.13Q213.54 99.93 213.54 97.91L213.54 97.91L213.54 86.83L208.64 86.83L208.64 82.72L213.54 82.72L213.54 76.63L218.53 76.63L218.53 82.72L223.91 82.72L223.91 86.83L218.53 86.83L218.53 97.04Q218.53 98.23 219.64 98.23L219.64 98.23L223.43 98.23L223.43 102.34M241.71 110.25L229.37 110.25L229.37 105.9L240.05 105.9Q241.16 105.9 241.16 104.71L241.16 104.71L241.16 99.77L240.44 99.77Q240.13 100.44 239.46 101.11Q238.78 101.79 237.64 102.22Q236.49 102.66 234.71 102.66L234.71 102.66Q232.41 102.66 230.69 101.61Q228.97 100.56 228.02 98.7Q227.07 96.84 227.07 94.43L227.07 94.43L227.07 82.72L232.06 82.72L232.06 94.03Q232.06 96.25 233.15 97.36Q234.23 98.46 236.25 98.46L236.25 98.46Q238.55 98.46 239.81 96.94Q241.08 95.42 241.08 92.69L241.08 92.69L241.08 82.72L246.06 82.72L246.06 105.82Q246.06 107.84 244.88 109.05Q243.69 110.25 241.71 110.25L241.71 110.25" fill="#161512"><title>monty</title></path>
<path d="M96.98 400L80.94 400L80.94 343L98.5 343L98.5 386.09L93.94 382.37L124.26 343L142.8 343L96.98 400M123.58 400L108.22 373.32L121.22 362.84L143.64 400L123.58 400M200.87 400L182.78 400L180.73 384.5L182.86 378.26L180.73 372.11L182.78 356.45L200.87 356.45L197.98 378.19L200.87 400M186.66 378.26L186.66 378.26Q185.74 385.18 182.67 390.39Q179.59 395.59 174.76 398.44Q169.94 401.29 163.7 401.29L163.7 401.29Q157.4 401.29 152.53 398.4Q147.67 395.52 144.97 390.31Q142.27 385.1 142.27 378.26L142.27 378.26Q142.27 371.27 144.97 366.07Q147.67 360.86 152.53 358.01Q157.4 355.16 163.7 355.16L163.7 355.16Q169.94 355.16 174.76 357.97Q179.59 360.78 182.7 365.99Q185.82 371.2 186.66 378.26M159.83 378.26L159.83 378.26Q159.83 381.15 161.01 383.36Q162.18 385.56 164.31 386.85Q166.44 388.14 169.18 388.14L169.18 388.14Q171.99 388.14 174.57 386.85Q177.16 385.56 179.13 383.36Q181.11 381.15 182.02 378.26L182.02 378.26Q181.11 375.38 179.13 373.13Q177.16 370.89 174.57 369.6Q171.99 368.31 169.18 368.31L169.18 368.31Q166.44 368.31 164.31 369.6Q162.18 370.89 161.01 373.13Q159.83 375.38 159.83 378.26M220.02 400L204.67 400L204.67 356.45L222.07 356.45L222.07 386.62L217.06 384.88L240.16 356.45L258.25 356.45L220.02 400M259.39 400L239.93 400L227.85 378.87L241.15 369.98L259.39 400M296.1 375.91L312.13 375.91L312.13 386.47L291.69 386.47L291.54 385.94Q286.29 385.94 282.26 384.15Q278.24 382.37 275.99 379.06Q273.75 375.76 273.75 371.42L273.75 371.42Q273.75 366.94 275.99 363.6Q278.24 360.25 282.26 358.35Q286.29 356.45 291.54 356.45L291.54 356.45L324.75 356.45L324.75 400L307.34 400L307.34 360.63L311.98 367.55L296.1 367.55Q293.82 367.55 292.56 368.61Q291.31 369.68 291.31 371.65L291.31 371.65Q291.31 373.63 292.56 374.77Q293.82 375.91 296.1 375.91L296.1 375.91M286.75 379.63L305.37 379.63L291.92 400L272.46 400L286.75 379.63M393.45 387.08L408.8 387.08L408.8 410.26L393.83 410.26L393.83 400L357.58 400L357.58 410.26L342.61 410.26L342.61 387.08L356.36 387.08L359.25 387.38L390.79 387.38L393.45 387.08M351.5 356.45L351.5 356.45L400.82 356.45L400.82 397.04L383.57 397.04L383.57 361.01L391.55 368.99L359.86 368.99L366.17 362.53Q367.46 365.65 367.69 368.27Q367.92 370.89 367.92 373.1L367.92 373.1Q367.92 383.43 364.19 389.06Q360.47 394.68 353.63 394.68L353.63 394.68L346.56 388.75Q352.34 384.72 352.34 369.6L352.34 369.6Q352.34 366.64 352.11 363.33Q351.88 360.02 351.5 356.45M437.76 401.29L437.76 401.29Q429.7 401.29 423.4 398.4Q417.09 395.52 413.44 390.27Q409.79 385.03 409.79 378.04L409.79 378.04Q409.79 371.2 413.33 366.03Q416.86 360.86 422.98 358.01Q429.1 355.16 436.7 355.16L436.7 355.16Q444.68 355.16 450.3 358.54Q455.92 361.92 458.93 368.19Q461.93 374.46 461.93 382.98L461.93 382.98L424 382.98L424 373.02L451.9 373.02L446.8 376.44Q446.5 373.48 445.28 371.39Q444.07 369.3 442.05 368.23Q440.04 367.17 437.3 367.17L437.3 367.17Q434.19 367.17 431.98 368.38Q429.78 369.6 428.6 371.77Q427.42 373.93 427.42 376.67L427.42 376.67Q427.42 380.54 429.13 383.2Q430.84 385.86 434.34 387.27Q437.84 388.68 443 388.68L443 388.68Q447.72 388.68 452.35 387.54Q456.99 386.4 460.79 384.19L460.79 384.19L460.79 394.98Q456.15 398.02 450.41 399.66Q444.68 401.29 437.76 401.29M472.42 356.45L472.42 356.45L521.13 356.45L521.13 400L503.73 400L503.73 361.39L511.63 369.3L481.08 369.3L488.45 362.46Q488.91 366.94 489.14 370.36Q489.36 373.78 489.36 376.59L489.36 376.59Q489.36 389.51 485.3 395.25Q481.23 400.99 472.04 400.99L472.04 400.99Q469.3 400.99 466.91 400.42Q464.51 399.85 462.16 398.56L462.16 398.56L462.16 386.24Q463.52 386.78 464.85 387.04Q466.18 387.31 467.25 387.31L467.25 387.31Q470.74 387.31 472.19 384.27Q473.63 381.23 473.63 374.24L473.63 374.24Q473.63 370.74 473.33 366.29Q473.02 361.85 472.42 356.45M582.92 400L564.83 400L562.78 384.5L564.91 378.26L562.78 372.11L564.83 356.45L582.92 356.45L580.03 378.19L582.92 400M568.71 378.26L568.71 378.26Q567.8 385.18 564.72 390.39Q561.64 395.59 556.81 398.44Q551.99 401.29 545.76 401.29L545.76 401.29Q539.45 401.29 534.58 398.4Q529.72 395.52 527.02 390.31Q524.32 385.1 524.32 378.26L524.32 378.26Q524.32 371.27 527.02 366.07Q529.72 360.86 534.58 358.01Q539.45 355.16 545.76 355.16L545.76 355.16Q551.99 355.16 556.81 357.97Q561.64 360.78 564.76 365.99Q567.87 371.2 568.71 378.26M541.88 378.26L541.88 378.26Q541.88 381.15 543.06 383.36Q544.24 385.56 546.36 386.85Q548.49 388.14 551.23 388.14L551.23 388.14Q554.04 388.14 556.62 386.85Q559.21 385.56 561.18 383.36Q563.16 381.15 564.07 378.26L564.07 378.26Q563.16 375.38 561.18 373.13Q559.21 370.89 556.62 369.6Q554.04 368.31 551.23 368.31L551.23 368.31Q548.49 368.31 546.36 369.6Q544.24 370.89 543.06 373.13Q541.88 375.38 541.88 378.26M637.26 401.29L637.26 401.29Q628.9 401.29 622.63 398.4Q616.36 395.52 612.86 390.31Q609.37 385.1 609.37 378.26L609.37 378.26Q609.37 371.27 612.86 366.07Q616.36 360.86 622.63 358.01Q628.9 355.16 637.26 355.16L637.26 355.16Q645.7 355.16 652 358.01Q658.31 360.86 661.81 366.07Q665.3 371.27 665.3 378.26L665.3 378.26Q665.3 385.1 661.81 390.31Q658.31 395.52 652 398.4Q645.7 401.29 637.26 401.29M604.12 400L586.72 400L586.72 356.45L604.12 356.45L604.12 400M620.77 384.04L596.68 384.04L596.68 371.27L620.77 371.27L620.77 384.04M637.34 388.52L637.34 388.52Q640.68 388.52 643 387.31Q645.32 386.09 646.53 383.77Q647.75 381.46 647.75 378.26L647.75 378.26Q647.75 375 646.53 372.68Q645.32 370.36 643 369.14Q640.68 367.93 637.34 367.93L637.34 367.93Q633.99 367.93 631.64 369.14Q629.28 370.36 628.06 372.68Q626.85 375 626.85 378.26L626.85 378.26Q626.85 381.46 628.06 383.77Q629.28 386.09 631.64 387.31Q633.99 388.52 637.34 388.52M683.7 412.54L683.7 356.45L701.1 356.45L701.1 368.08L700.42 370.06L700.42 383.36L701.1 387.23L701.1 412.54L683.7 412.54M695.78 378.26L695.78 378.26Q696.69 371.2 699.77 365.99Q702.85 360.78 707.71 357.97Q712.58 355.16 718.73 355.16L718.73 355.16Q725.12 355.16 729.94 358.01Q734.77 360.86 737.47 366.07Q740.16 371.27 740.16 378.26L740.16 378.26Q740.16 385.1 737.47 390.31Q734.77 395.52 729.94 398.4Q725.12 401.29 718.73 401.29L718.73 401.29Q712.5 401.29 707.67 398.44Q702.85 395.59 699.81 390.39Q696.77 385.18 695.78 378.26M722.61 378.26L722.61 378.26Q722.61 375.38 721.43 373.13Q720.25 370.89 718.12 369.6Q716 368.31 713.26 368.31L713.26 368.31Q710.45 368.31 707.86 369.6Q705.28 370.89 703.34 373.13Q701.4 375.38 700.49 378.26L700.49 378.26Q701.4 381.15 703.34 383.36Q705.28 385.56 707.86 386.85Q710.45 388.14 713.26 388.14L713.26 388.14Q716 388.14 718.12 386.85Q720.25 385.56 721.43 383.36Q722.61 381.15 722.61 378.26M764.94 400L743.28 400L743.28 356.45L760.46 356.45L760.46 390.35L757.04 389.21L777.56 356.45L799.82 356.45L799.82 400L782.72 400L782.72 364.96L786.07 366.18L764.94 400M812.06 356.45L812.06 356.45L860.78 356.45L860.78 400L843.37 400L843.37 361.39L851.28 369.3L820.72 369.3L828.1 362.46Q828.55 366.94 828.78 370.36Q829.01 373.78 829.01 376.59L829.01 376.59Q829.01 389.51 824.94 395.25Q820.88 400.99 811.68 400.99L811.68 400.99Q808.94 400.99 806.55 400.42Q804.16 399.85 801.8 398.56L801.8 398.56L801.8 386.24Q803.17 386.78 804.5 387.04Q805.83 387.31 806.89 387.31L806.89 387.31Q810.39 387.31 811.83 384.27Q813.28 381.23 813.28 374.24L813.28 374.24Q813.28 370.74 812.97 366.29Q812.67 361.85 812.06 356.45M901.59 381.23L918.84 381.23Q918.23 387.23 914.51 391.75Q910.78 396.28 904.82 398.78Q898.85 401.29 891.4 401.29L891.4 401.29Q883.27 401.29 877 398.4Q870.73 395.52 867.24 390.27Q863.74 385.03 863.74 378.26L863.74 378.26Q863.74 371.35 867.24 366.18Q870.73 361.01 877 358.09Q883.27 355.16 891.4 355.16L891.4 355.16Q898.85 355.16 904.82 357.67Q910.78 360.18 914.51 364.66Q918.23 369.14 918.84 375.22L918.84 375.22L901.59 375.22Q900.83 371.65 898.09 369.79Q895.36 367.93 891.4 367.93L891.4 367.93Q888.36 367.93 886.08 369.11Q883.8 370.28 882.59 372.6Q881.37 374.92 881.37 378.26L881.37 378.26Q881.37 381.61 882.59 383.89Q883.8 386.17 886.08 387.35Q888.36 388.52 891.4 388.52L891.4 388.52Q895.36 388.52 898.09 386.51Q900.83 384.5 901.59 381.23L901.59 381.23" fill="#161512"><title>Как я делаю рилс</title></path>
<path d="M103.59 493.29L103.59 493.29Q95.76 493.29 89.91 491.32Q84.06 489.34 80.79 485.65Q77.52 481.97 77.29 476.95L77.29 476.95L94.16 476.95Q94.47 479.31 96.94 480.6Q99.41 481.89 103.59 481.89L103.59 481.89Q107.54 481.89 109.71 480.9Q111.87 479.92 111.87 477.94L111.87 477.94Q111.87 476.12 109.97 475.36Q108.07 474.6 103.74 474.6L103.74 474.6L96.44 474.6L96.44 465.7L103.59 465.7Q107.31 465.7 109.1 464.79Q110.88 463.88 110.88 462.21L110.88 462.21Q110.88 460.46 108.95 459.51Q107.01 458.56 103.51 458.56L103.51 458.56Q99.64 458.56 97.39 459.74Q95.15 460.92 94.77 463.2L94.77 463.2L78.13 463.2Q78.36 458.79 81.4 455.14Q84.44 451.49 90.21 449.33Q95.99 447.16 104.2 447.16L104.2 447.16Q111.42 447.16 116.85 448.76Q122.28 450.35 125.32 453.24Q128.36 456.13 128.36 459.85L128.36 459.85Q128.36 462.66 126.62 465.1Q124.87 467.53 120.73 469.01Q116.58 470.49 109.52 470.42L109.52 470.42L109.52 469.12Q119.24 468.74 124.34 471.21Q129.43 473.68 129.43 479.23L129.43 479.23Q129.43 483.18 126.39 486.38Q123.35 489.57 117.57 491.43Q111.8 493.29 103.59 493.29M189.54 492L171.46 492L169.4 476.5L171.53 470.26L169.4 464.11L171.46 448.45L189.54 448.45L186.66 470.19L189.54 492M175.33 470.26L175.33 470.26Q174.42 477.18 171.34 482.39Q168.26 487.59 163.44 490.44Q158.61 493.29 152.38 493.29L152.38 493.29Q146.07 493.29 141.21 490.4Q136.34 487.52 133.65 482.31Q130.95 477.1 130.95 470.26L130.95 470.26Q130.95 463.27 133.65 458.07Q136.34 452.86 141.21 450.01Q146.07 447.16 152.38 447.16L152.38 447.16Q158.61 447.16 163.44 449.97Q168.26 452.78 171.38 457.99Q174.5 463.2 175.33 470.26M148.5 470.26L148.5 470.26Q148.5 473.15 149.68 475.36Q150.86 477.56 152.99 478.85Q155.12 480.14 157.85 480.14L157.85 480.14Q160.66 480.14 163.25 478.85Q165.83 477.56 167.81 475.36Q169.78 473.15 170.7 470.26L170.7 470.26Q169.78 467.38 167.81 465.13Q165.83 462.89 163.25 461.6Q160.66 460.31 157.85 460.31L157.85 460.31Q155.12 460.31 152.99 461.6Q150.86 462.89 149.68 465.13Q148.5 467.38 148.5 470.26M238.03 435L260.38 435L260.38 492L242.9 492L242.9 442.83L247.91 442.83L219.34 474.37L219.26 468.97L268.96 468.97L268.96 481.82L206.64 481.82L206.64 469.43L238.03 435M304.23 492L287.89 492L287.89 448.45L314.11 448.45L325.96 482.27L321.56 482.27L333.18 448.45L359.4 448.45L359.4 492L343.06 492L343.06 455.14L345.65 455.14L331.51 492L315.86 492L301.72 455.29L304.23 455.22L304.23 492M385.93 492L364.27 492L364.27 448.45L381.44 448.45L381.44 482.35L378.02 481.21L398.54 448.45L420.81 448.45L420.81 492L403.71 492L403.71 456.96L407.06 458.18L385.93 492M425.68 492L425.68 448.45L443.08 448.45L443.08 492L425.68 492M461.47 492L461.47 448.45L478.88 448.45L478.88 492L461.47 492M435.71 476.12L435.71 463.2L467.93 463.2L467.93 476.12L435.71 476.12M499.32 505.83L499.32 505.83Q494.15 505.83 490.24 504.58Q486.32 503.32 482.52 500.59L482.52 500.59L482.52 488.73Q486.32 491.16 489.59 492.23Q492.86 493.29 496.74 493.29L496.74 493.29Q499.93 493.29 502.32 491.92Q504.72 490.56 506.31 486.83L506.31 486.83L522.04 448.45L540.51 448.45L520.14 492.15Q517.79 497.24 514.41 500.28Q511.02 503.32 507.15 504.58Q503.27 505.83 499.32 505.83M515.05 487.06L498.33 487.06L480.4 448.45L499.55 448.45L515.05 487.06M554.5 492L554.5 454.46L571.9 454.46L571.9 492L554.5 492M538.46 461.45L538.46 448.45L587.94 448.45L587.94 461.45L538.46 461.45M642.5 492L642.5 448.45L659.91 448.45L659.91 492L642.5 492M619.63 492L589.91 492L589.91 448.45L607.24 448.45L607.24 487.82L602.07 479.92L616.44 479.92Q618.94 479.92 620.27 478.7Q621.6 477.48 621.6 475.28L621.6 475.28Q621.6 473.08 620.27 471.86Q618.94 470.64 616.44 470.64L616.44 470.64L601.84 470.64L601.84 459.09L619.4 459.09Q625.33 459.09 629.74 461.14Q634.14 463.2 636.58 466.92Q639.01 470.64 639.01 475.58L639.01 475.58Q639.01 480.52 636.61 484.25Q634.22 487.97 629.85 489.99Q625.48 492 619.63 492L619.63 492" fill="#161512"><title>за 4 минуты</title></path>
<rect x="58" y="514.4" width="705.92" height="107.2" rx="20" fill="#161512"/>
<path d="M109.84 589.36L109.84 589.36Q100 589.36 93 585.76Q86 582.16 82.32 575.44Q78.64 568.72 78.64 559.12L78.64 559.12Q78.64 544.88 86.6 536.68Q94.56 528.48 109.52 527.2L109.52 527.2Q115.68 526.72 119.68 526.36Q123.68 526 126.28 525.64Q128.88 525.28 130.68 524.84Q132.48 524.4 134.24 523.84L134.24 523.84L134.24 538.64Q132.24 539.36 129.56 539.84Q126.88 540.32 122.88 540.6Q118.88 540.88 112.96 541.2L112.96 541.2Q102.88 541.52 98.32 545.88Q93.76 550.24 93.76 558.8L93.76 558.8L93.76 560.16L93.28 558.8Q94.64 555.04 97.84 552.24Q101.04 549.44 105.56 547.96Q110.08 546.48 115.36 546.48L115.36 546.48Q122.32 546.48 127.52 549.04Q132.72 551.6 135.6 556.28Q138.48 560.96 138.48 567.12L138.48 567.12Q138.48 573.84 134.92 578.84Q131.36 583.84 124.96 586.6Q118.56 589.36 109.84 589.36M110.32 575.92L110.32 575.92Q113.28 575.92 115.48 574.88Q117.68 573.84 118.84 571.92Q120 570 120 567.44L120 567.44Q120 564.8 118.84 562.92Q117.68 561.04 115.48 560Q113.28 558.96 110.32 558.96L110.32 558.96Q106.08 558.96 102.64 561.12Q99.2 563.28 97.44 566.88L97.44 566.88Q98.48 570.88 102.04 573.4Q105.6 575.92 110.32 575.92M169.12 589.36L169.12 589.36Q160.64 589.36 154 586.32Q147.36 583.28 143.52 577.76Q139.68 572.24 139.68 564.88L139.68 564.88Q139.68 557.68 143.4 552.24Q147.12 546.8 153.56 543.8Q160 540.8 168 540.8L168 540.8Q176.4 540.8 182.32 544.36Q188.24 547.92 191.4 554.52Q194.56 561.12 194.56 570.08L194.56 570.08L154.64 570.08L154.64 559.6L184 559.6L178.64 563.2Q178.32 560.08 177.04 557.88Q175.76 555.68 173.64 554.56Q171.52 553.44 168.64 553.44L168.64 553.44Q165.36 553.44 163.04 554.72Q160.72 556 159.48 558.28Q158.24 560.56 158.24 563.44L158.24 563.44Q158.24 567.52 160.04 570.32Q161.84 573.12 165.52 574.6Q169.2 576.08 174.64 576.08L174.64 576.08Q179.6 576.08 184.48 574.88Q189.36 573.68 193.36 571.36L193.36 571.36L193.36 582.72Q188.48 585.92 182.44 587.64Q176.4 589.36 169.12 589.36M222.72 589.36L222.72 589.36Q214.48 589.36 208.32 587.28Q202.16 585.2 198.72 581.32Q195.28 577.44 195.04 572.16L195.04 572.16L212.8 572.16Q213.12 574.64 215.72 576Q218.32 577.36 222.72 577.36L222.72 577.36Q226.88 577.36 229.16 576.32Q231.44 575.28 231.44 573.2L231.44 573.2Q231.44 571.28 229.44 570.48Q227.44 569.68 222.88 569.68L222.88 569.68L215.2 569.68L215.2 560.32L222.72 560.32Q226.64 560.32 228.52 559.36Q230.4 558.4 230.4 556.64L230.4 556.64Q230.4 554.8 228.36 553.8Q226.32 552.8 222.64 552.8L222.64 552.8Q218.56 552.8 216.2 554.04Q213.84 555.28 213.44 557.68L213.44 557.68L195.92 557.68Q196.16 553.04 199.36 549.2Q202.56 545.36 208.64 543.08Q214.72 540.8 223.36 540.8L223.36 540.8Q230.96 540.8 236.68 542.48Q242.4 544.16 245.6 547.2Q248.8 550.24 248.8 554.16L248.8 554.16Q248.8 557.12 246.96 559.68Q245.12 562.24 240.76 563.8Q236.4 565.36 228.96 565.28L228.96 565.28L228.96 563.92Q239.2 563.52 244.56 566.12Q249.92 568.72 249.92 574.56L249.92 574.56Q249.92 578.72 246.72 582.08Q243.52 585.44 237.44 587.4Q231.36 589.36 222.72 589.36M286.64 588L269.44 588L269.44 542.16L297.04 542.16L309.52 577.76L304.88 577.76L317.12 542.16L344.72 542.16L344.72 588L327.52 588L327.52 549.2L330.24 549.2L315.36 588L298.88 588L284 549.36L286.64 549.28L286.64 588M377.68 589.36L377.68 589.36Q368.8 589.36 362.08 586.32Q355.36 583.28 351.6 577.8Q347.84 572.32 347.84 565.12L347.84 565.12Q347.84 557.76 351.6 552.28Q355.36 546.8 362.08 543.8Q368.8 540.8 377.76 540.8L377.76 540.8Q386.64 540.8 393.36 543.8Q400.08 546.8 403.8 552.28Q407.52 557.76 407.52 565.12L407.52 565.12Q407.52 572.32 403.8 577.8Q400.08 583.28 393.36 586.32Q386.64 589.36 377.68 589.36M377.76 575.92L377.76 575.92Q381.36 575.92 383.88 574.64Q386.4 573.36 387.72 570.92Q389.04 568.48 389.04 565.12L389.04 565.12Q389.04 561.68 387.72 559.24Q386.4 556.8 383.88 555.52Q381.36 554.24 377.76 554.24L377.76 554.24Q374.16 554.24 371.6 555.52Q369.04 556.8 367.72 559.24Q366.4 561.68 366.4 565.04L366.4 565.04Q366.4 568.48 367.72 570.92Q369.04 573.36 371.6 574.64Q374.16 575.92 377.76 575.92M410.72 588L410.72 542.16L429.04 542.16L429.04 588L410.72 588M448.4 588L448.4 542.16L466.72 542.16L466.72 588L448.4 588M421.28 571.28L421.28 557.68L455.2 557.68L455.2 571.28L421.28 571.28M485.76 588L485.76 548.48L504.08 548.48L504.08 588L485.76 588M468.88 555.84L468.88 542.16L520.96 542.16L520.96 555.84L468.88 555.84M582.96 588L563.92 588L561.76 571.68L564 565.12L561.76 558.64L563.92 542.16L582.96 542.16L579.92 565.04L582.96 588M568 565.12L568 565.12Q567.04 572.4 563.8 577.88Q560.56 583.36 555.48 586.36Q550.4 589.36 543.84 589.36L543.84 589.36Q537.2 589.36 532.08 586.32Q526.96 583.28 524.12 577.8Q521.28 572.32 521.28 565.12L521.28 565.12Q521.28 557.76 524.12 552.28Q526.96 546.8 532.08 543.8Q537.2 540.8 543.84 540.8L543.84 540.8Q550.4 540.8 555.48 543.76Q560.56 546.72 563.84 552.2Q567.12 557.68 568 565.12M539.76 565.12L539.76 565.12Q539.76 568.16 541 570.48Q542.24 572.8 544.48 574.16Q546.72 575.52 549.6 575.52L549.6 575.52Q552.56 575.52 555.28 574.16Q558 572.8 560.08 570.48Q562.16 568.16 563.12 565.12L563.12 565.12Q562.16 562.08 560.08 559.72Q558 557.36 555.28 556Q552.56 554.64 549.6 554.64L549.6 554.64Q546.72 554.64 544.48 556Q542.24 557.36 541 559.72Q539.76 562.08 539.76 565.12M603.36 588L582.4 588L601.52 556.4L615.44 565.76L603.36 588M678.4 588L657.36 588L645.36 565.76L659.2 556.4L678.4 588M639.44 542.16L639.44 573.12L634.4 571.44L656.56 542.16L677.2 542.16L637.28 588L623.44 588L583.6 542.16L604.16 542.16L626.4 571.44L621.36 573.12L621.36 542.16L639.44 542.16M738.88 588L719.84 588L717.68 571.68L719.92 565.12L717.68 558.64L719.84 542.16L738.88 542.16L735.84 565.04L738.88 588M723.92 565.12L723.92 565.12Q722.96 572.4 719.72 577.88Q716.48 583.36 711.4 586.36Q706.32 589.36 699.76 589.36L699.76 589.36Q693.12 589.36 688 586.32Q682.88 583.28 680.04 577.8Q677.2 572.32 677.2 565.12L677.2 565.12Q677.2 557.76 680.04 552.28Q682.88 546.8 688 543.8Q693.12 540.8 699.76 540.8L699.76 540.8Q706.32 540.8 711.4 543.76Q716.48 546.72 719.76 552.2Q723.04 557.68 723.92 565.12M695.68 565.12L695.68 565.12Q695.68 568.16 696.92 570.48Q698.16 572.8 700.4 574.16Q702.64 575.52 705.52 575.52L705.52 575.52Q708.48 575.52 711.2 574.16Q713.92 572.8 716 570.48Q718.08 568.16 719.04 565.12L719.04 565.12Q718.08 562.08 716 559.72Q713.92 557.36 711.2 556Q708.48 554.64 705.52 554.64L705.52 554.64Q702.64 554.64 700.4 556Q698.16 557.36 696.92 559.72Q695.68 562.08 695.68 565.12" fill="#FFD21E"><title>без монтажа</title></path>
<g transform="translate(76,840)" filter="url(#dropSoft)"><rect width="220.97" height="78" rx="39" fill="#161512"/><path d="M44.62 32.37L44.62 32.37L63.22 32.37L63.22 49.5L57.07 49.5L57.07 34.11L59.89 36.93L47.68 36.93L50.26 34.56Q50.44 36.33 50.53 37.77Q50.62 39.21 50.62 40.35L50.62 40.35Q50.62 45.39 49.08 47.63Q47.53 49.86 44.08 49.86L44.08 49.86Q43.06 49.86 42.16 49.65Q41.26 49.44 40.39 48.96L40.39 48.96L40.39 44.61Q40.93 44.82 41.46 44.93Q41.98 45.03 42.4 45.03L42.4 45.03Q43.87 45.03 44.47 43.74Q45.07 42.45 45.07 39.51L45.07 39.51Q45.07 38.1 44.97 36.32Q44.86 34.53 44.62 32.37M73.93 49.5L66.28 49.5L66.28 32.37L72.34 32.37L72.34 46.17L71.02 45.75L79.99 32.37L87.85 32.37L87.85 49.5L81.82 49.5L81.82 35.31L83.14 35.76L73.93 49.5M105.28 42.27L111.37 42.27Q111.13 44.58 109.69 46.32Q108.25 48.06 105.95 49.02Q103.66 49.98 100.81 49.98L100.81 49.98Q97.66 49.98 95.26 48.84Q92.86 47.7 91.51 45.66Q90.16 43.62 90.16 40.95L90.16 40.95Q90.16 38.25 91.51 36.21Q92.86 34.17 95.26 33.02Q97.66 31.86 100.81 31.86L100.81 31.86Q103.66 31.86 105.95 32.84Q108.25 33.81 109.69 35.53Q111.13 37.26 111.37 39.6L111.37 39.6L105.28 39.6Q104.95 38.07 103.75 37.25Q102.55 36.42 100.81 36.42L100.81 36.42Q99.46 36.42 98.45 36.95Q97.45 37.47 96.9 38.48Q96.34 39.48 96.34 40.95L96.34 40.95Q96.34 42.39 96.9 43.4Q97.45 44.4 98.45 44.93Q99.46 45.45 100.81 45.45L100.81 45.45Q102.55 45.45 103.76 44.58Q104.98 43.71 105.28 42.27L105.28 42.27M118.75 49.5L118.75 34.47L124.9 34.47L124.9 49.5L118.75 49.5M112.24 36.99L112.24 32.37L131.41 32.37L131.41 36.99L112.24 36.99M155.05 49.5L148.69 49.5L147.91 43.32L148.72 40.95L147.91 38.58L148.69 32.37L155.05 32.37L153.97 40.92L155.05 49.5M150.13 40.95L150.13 40.95Q149.71 43.65 148.46 45.69Q147.22 47.73 145.31 48.86Q143.41 49.98 140.98 49.98L140.98 49.98Q138.46 49.98 136.55 48.86Q134.65 47.73 133.57 45.68Q132.49 43.62 132.49 40.95L132.49 40.95Q132.49 38.22 133.57 36.18Q134.65 34.14 136.55 33Q138.46 31.86 140.98 31.86L140.98 31.86Q143.41 31.86 145.31 32.99Q147.22 34.11 148.48 36.14Q149.74 38.16 150.13 40.95M138.7 40.95L138.7 40.95Q138.7 42.21 139.22 43.2Q139.75 44.19 140.68 44.75Q141.61 45.3 142.81 45.3L142.81 45.3Q144.07 45.3 145.18 44.75Q146.29 44.19 147.13 43.2Q147.97 42.21 148.39 40.95L148.39 40.95Q147.97 39.66 147.13 38.67Q146.29 37.68 145.18 37.11Q144.07 36.54 142.81 36.54L142.81 36.54Q141.61 36.54 140.68 37.11Q139.75 37.68 139.22 38.67Q138.7 39.66 138.7 40.95M165.34 49.5L157.69 49.5L157.69 32.37L163.75 32.37L163.75 46.17L162.43 45.75L171.4 32.37L179.26 32.37L179.26 49.5L173.23 49.5L173.23 35.31L174.55 35.76L165.34 49.5M168.31 30.93L168.31 30.93Q165.16 30.93 163.27 29.42Q161.38 27.9 160.93 25.05L160.93 25.05L165.61 25.05Q165.85 26.22 166.54 26.85Q167.23 27.48 168.31 27.48L168.31 27.48Q169.39 27.48 170.08 26.85Q170.77 26.22 170.98 25.05L170.98 25.05L175.69 25.05Q175.24 27.9 173.33 29.42Q171.43 30.93 168.31 30.93" fill="#FFD21E"><title>листай</title></path></g>
<path d="M322.97 879 h40 M344.97 867.8 L362.97 879 L344.97 890.2"
     stroke="#161512" stroke-width="5.2" fill="none" stroke-linecap="round" stroke-linejoin="round"/>
<path d="M85.52 984.26L85.52 984.26Q83.13 984.26 81.22 983.13Q79.32 982.01 78.23 979.91Q77.14 977.81 77.14 974.92L77.14 974.92Q77.14 972 78.23 969.91Q79.32 967.81 81.22 966.68Q83.13 965.56 85.52 965.56L85.52 965.56Q87.93 965.56 89.82 966.68Q91.71 967.81 92.81 969.91Q93.91 972 93.91 974.92L93.91 974.92Q93.91 977.82 92.81 979.92Q91.71 982.01 89.82 983.13Q87.93 984.26 85.52 984.26M85.52 981.35L85.52 981.35Q87.01 981.35 88.16 980.61Q89.32 979.86 89.98 978.43Q90.64 976.99 90.64 974.92L90.64 974.92Q90.64 972.83 89.98 971.39Q89.32 969.95 88.16 969.21Q87.01 968.46 85.52 968.46L85.52 968.46Q84.04 968.46 82.88 969.21Q81.73 969.95 81.06 971.39Q80.39 972.83 80.39 974.92L80.39 974.92Q80.39 976.99 81.06 978.43Q81.73 979.86 82.88 980.61Q84.04 981.35 85.52 981.35M102.79 984L99.65 984L99.65 973.2L95.27 973.2L95.27 970.61L107.15 970.61L107.15 973.2L102.79 973.2L102.79 984M126.95 970.61L126.95 984L123.81 984L123.81 975.46L123.72 975.46L117.8 984L115.04 984L115.04 970.61L118.18 970.61L118.18 979.14L118.26 979.14L124.16 970.61L126.95 970.61M132.03 987.97L128.94 987.97L128.94 981.36L130.02 981.36Q130.46 981.02 130.75 980.48Q131.04 979.94 131.24 979.18Q131.43 978.42 131.56 977.47Q131.69 976.52 131.79 975.38L131.79 975.38L132.18 970.61L141.98 970.61L141.98 981.36L144.07 981.36L144.07 987.97L141.03 987.97L141.03 984L132.03 984L132.03 987.97M133.28 981.36L133.28 981.36L138.96 981.36L138.96 973.2L134.89 973.2L134.7 975.38Q134.54 977.48 134.23 978.96Q133.92 980.45 133.28 981.36M151.56 984.28L151.56 984.28Q149.55 984.28 148.08 983.42Q146.62 982.56 145.83 981Q145.04 979.43 145.04 977.36L145.04 977.36Q145.04 975.31 145.83 973.73Q146.62 972.16 148.05 971.27Q149.47 970.39 151.38 970.39L151.38 970.39Q152.67 970.39 153.8 970.82Q154.93 971.26 155.79 972.12Q156.64 972.98 157.12 974.25Q157.6 975.53 157.6 977.23L157.6 977.23L157.6 978.17L146.45 978.17L146.45 976.02L156.03 976.02L154.59 976.63Q154.59 975.49 154.22 974.65Q153.84 973.81 153.14 973.34Q152.43 972.87 151.4 972.87L151.4 972.87Q150.39 972.87 149.66 973.34Q148.92 973.82 148.54 974.63Q148.16 975.44 148.16 976.48L148.16 976.48L148.16 977.92Q148.16 979.15 148.58 980.03Q149 980.9 149.78 981.36Q150.56 981.81 151.61 981.81L151.61 981.81Q152.33 981.81 152.91 981.6Q153.49 981.39 153.9 980.98Q154.31 980.58 154.5 980.02L154.5 980.02L157.41 980.42Q157.12 981.57 156.31 982.44Q155.5 983.3 154.29 983.79Q153.08 984.28 151.56 984.28M172.02 970.61L172.02 984L168.88 984L168.88 975.46L168.79 975.46L162.87 984L160.11 984L160.11 970.61L163.24 970.61L163.24 979.14L163.33 979.14L169.23 970.61L172.02 970.61M183.18 987.97L180.09 987.97L180.09 981.36L181.16 981.36Q181.6 981.02 181.9 980.48Q182.19 979.94 182.38 979.18Q182.58 978.42 182.71 977.47Q182.84 976.52 182.93 975.38L182.93 975.38L183.32 970.61L193.13 970.61L193.13 981.36L195.21 981.36L195.21 987.97L192.17 987.97L192.17 984L183.18 984L183.18 987.97M184.42 981.36L184.42 981.36L190.11 981.36L190.11 973.2L186.03 973.2L185.85 975.38Q185.69 977.48 185.38 978.96Q185.07 980.45 184.42 981.36M202.66 984.28L202.66 984.28Q200.71 984.28 199.25 983.41Q197.79 982.55 196.99 980.98Q196.19 979.42 196.19 977.35L196.19 977.35Q196.19 975.27 196.99 973.7Q197.79 972.13 199.25 971.26Q200.71 970.39 202.66 970.39L202.66 970.39Q204.63 970.39 206.08 971.26Q207.53 972.13 208.33 973.7Q209.13 975.27 209.13 977.35L209.13 977.35Q209.13 979.42 208.33 980.98Q207.53 982.55 206.08 983.41Q204.63 984.28 202.66 984.28M202.66 981.71L202.66 981.71Q203.73 981.71 204.47 981.14Q205.2 980.57 205.57 979.59Q205.94 978.6 205.94 977.35L205.94 977.35Q205.94 976.08 205.57 975.09Q205.2 974.1 204.47 973.53Q203.73 972.96 202.66 972.96L202.66 972.96Q201.6 972.96 200.87 973.53Q200.13 974.1 199.76 975.09Q199.39 976.08 199.39 977.35L199.39 977.35Q199.39 978.6 199.76 979.59Q200.13 980.57 200.86 981.14Q201.59 981.71 202.66 981.71M220.91 989.1L217.76 989.1L217.76 970.61L220.85 970.61L220.85 972.71L221 972.71Q221.29 972.16 221.79 971.63Q222.29 971.1 223.05 970.75Q223.81 970.4 224.9 970.4L224.9 970.4Q226.51 970.4 227.78 971.22Q229.04 972.04 229.77 973.59Q230.5 975.14 230.5 977.32L230.5 977.32Q230.5 979.48 229.78 981.03Q229.06 982.58 227.8 983.42Q226.54 984.26 224.89 984.26L224.89 984.26Q223.83 984.26 223.07 983.91Q222.31 983.56 221.81 983.02Q221.31 982.49 221.01 981.91L221.01 981.91L220.91 981.91L220.91 989.1M224.07 981.66L224.07 981.66Q225.11 981.66 225.82 981.11Q226.54 980.56 226.92 979.58Q227.29 978.6 227.29 977.31L227.29 977.31Q227.29 976.02 226.92 975.05Q226.55 974.08 225.83 973.54Q225.11 973 224.07 973L224.07 973Q223.05 973 222.31 973.53Q221.58 974.06 221.2 975.03Q220.81 976 220.81 977.31L220.81 977.31Q220.81 978.6 221.2 979.59Q221.58 980.57 222.31 981.11Q223.05 981.66 224.07 981.66M238.93 984.28L238.93 984.28Q236.97 984.28 235.52 983.41Q234.06 982.55 233.26 980.98Q232.46 979.42 232.46 977.35L232.46 977.35Q232.46 975.27 233.26 973.7Q234.06 972.13 235.52 971.26Q236.97 970.39 238.93 970.39L238.93 970.39Q240.89 970.39 242.35 971.26Q243.8 972.13 244.6 973.7Q245.4 975.27 245.4 977.35L245.4 977.35Q245.4 979.42 244.6 980.98Q243.8 982.55 242.35 983.41Q240.89 984.28 238.93 984.28M238.93 981.71L238.93 981.71Q240 981.71 240.73 981.14Q241.47 980.57 241.84 979.59Q242.21 978.6 242.21 977.35L242.21 977.35Q242.21 976.08 241.84 975.09Q241.47 974.1 240.73 973.53Q240 972.96 238.93 972.96L238.93 972.96Q237.87 972.96 237.13 973.53Q236.4 974.1 236.03 975.09Q235.66 976.08 235.66 977.35L235.66 977.35Q235.66 978.6 236.03 979.59Q236.4 980.57 237.13 981.14Q237.85 981.71 238.93 981.71M247.72 984L246.61 984L246.61 981.39L247.09 981.39Q247.62 981.39 247.98 981.18Q248.35 980.97 248.59 980.46Q248.83 979.95 248.96 979.03Q249.08 978.1 249.14 976.69L249.14 976.69L249.38 970.61L259.52 970.61L259.52 984L256.37 984L256.37 973.21L252.38 973.21L252.18 977.36Q252.09 979.69 251.58 981.16Q251.07 982.63 250.12 983.32Q249.17 984 247.72 984L247.72 984M274.58 970.61L274.58 984L271.45 984L271.45 975.46L271.35 975.46L265.43 984L262.67 984L262.67 970.61L265.81 970.61L265.81 979.14L265.89 979.14L271.79 970.61L274.58 970.61M280.88 984L277.73 984L277.73 970.61L280.88 970.61L280.88 976.14L282.02 976.14L286.24 970.61L290.01 970.61L284.95 977.18L290.07 984L286.28 984L282.45 978.76L280.88 978.76L280.88 984M295.59 984.26L295.59 984.26Q294.3 984.26 293.27 983.8Q292.25 983.34 291.65 982.44Q291.05 981.55 291.05 980.23L291.05 980.23Q291.05 979.08 291.48 978.34Q291.91 977.6 292.64 977.16Q293.37 976.71 294.3 976.49Q295.23 976.26 296.21 976.15L296.21 976.15Q297.41 976.02 298.14 975.92Q298.86 975.82 299.2 975.61Q299.54 975.39 299.54 974.94L299.54 974.94L299.54 974.87Q299.54 974.23 299.26 973.78Q298.99 973.33 298.45 973.08Q297.92 972.83 297.15 972.83L297.15 972.83Q296.39 972.83 295.81 973.07Q295.23 973.32 294.87 973.72Q294.52 974.12 294.38 974.6L294.38 974.6L291.44 974.2Q291.73 972.96 292.53 972.12Q293.32 971.28 294.51 970.84Q295.7 970.4 297.17 970.4L297.17 970.4Q298.23 970.4 299.22 970.66Q300.21 970.91 300.98 971.46Q301.76 972 302.21 972.87Q302.66 973.75 302.66 974.99L302.66 974.99L302.66 984L299.63 984L299.63 982.13L299.52 982.13Q299.23 982.72 298.71 983.2Q298.19 983.68 297.42 983.97Q296.65 984.26 295.59 984.26M296.39 981.92L296.39 981.92Q297.37 981.92 298.08 981.55Q298.79 981.17 299.17 980.53Q299.55 979.9 299.55 979.14L299.55 979.14L299.55 977.6Q299.4 977.71 299.06 977.82Q298.72 977.92 298.28 978Q297.85 978.08 297.41 978.15Q296.96 978.21 296.59 978.26L296.59 978.26Q295.9 978.36 295.33 978.58Q294.76 978.8 294.43 979.19Q294.1 979.58 294.1 980.19L294.1 980.19Q294.1 980.75 294.4 981.14Q294.69 981.52 295.2 981.72Q295.71 981.92 296.39 981.92M318.44 984L311.89 984L311.89 970.61L317.56 970.61Q319.97 970.61 321.37 971.54Q322.78 972.46 322.78 974.19L322.78 974.19Q322.78 975.31 322.04 976.03Q321.31 976.75 319.97 976.99L319.97 976.99Q321 977.08 321.76 977.52Q322.53 977.96 322.96 978.67Q323.39 979.37 323.39 980.31L323.39 980.31Q323.39 981.44 322.81 982.27Q322.24 983.1 321.14 983.55Q320.03 984 318.44 984L318.44 984M314.84 978.19L314.84 981.5L318.41 981.5Q319.31 981.5 319.81 981.08Q320.31 980.67 320.31 979.95L320.31 979.95Q320.31 979.12 319.81 978.65Q319.31 978.19 318.41 978.19L318.41 978.19L314.84 978.19M314.84 973.11L314.84 976.15L317.64 976.15Q318.64 976.15 319.19 975.74Q319.75 975.32 319.75 974.6L319.75 974.6Q319.75 973.89 319.17 973.5Q318.59 973.11 317.56 973.11L317.56 973.11L314.84 973.11M331.76 984.28L331.76 984.28Q329.81 984.28 328.35 983.41Q326.89 982.55 326.09 980.98Q325.29 979.42 325.29 977.35L325.29 977.35Q325.29 975.27 326.09 973.7Q326.89 972.13 328.35 971.26Q329.81 970.39 331.76 970.39L331.76 970.39Q333.73 970.39 335.18 971.26Q336.63 972.13 337.43 973.7Q338.23 975.27 338.23 977.35L338.23 977.35Q338.23 979.42 337.43 980.98Q336.63 982.55 335.18 983.41Q333.73 984.28 331.76 984.28M331.76 981.71L331.76 981.71Q332.84 981.71 333.57 981.14Q334.3 980.57 334.67 979.59Q335.05 978.6 335.05 977.35L335.05 977.35Q335.05 976.08 334.67 975.09Q334.3 974.1 333.57 973.53Q332.84 972.96 331.76 972.96L331.76 972.96Q330.7 972.96 329.97 973.53Q329.23 974.1 328.86 975.09Q328.49 976.08 328.49 977.35L328.49 977.35Q328.49 978.6 328.86 979.59Q329.23 980.57 329.96 981.14Q330.69 981.71 331.76 981.71M353.42 984L346.86 984L346.86 970.61L352.54 970.61Q354.94 970.61 356.35 971.54Q357.75 972.46 357.75 974.19L357.75 974.19Q357.75 975.31 357.02 976.03Q356.29 976.75 354.94 976.99L354.94 976.99Q355.97 977.08 356.74 977.52Q357.51 977.96 357.93 978.67Q358.36 979.37 358.36 980.31L358.36 980.31Q358.36 981.44 357.79 982.27Q357.21 983.1 356.11 983.55Q355 984 353.42 984L353.42 984M349.82 978.19L349.82 981.5L353.38 981.5Q354.28 981.5 354.78 981.08Q355.28 980.67 355.28 979.95L355.28 979.95Q355.28 979.12 354.78 978.65Q354.28 978.19 353.38 978.19L353.38 978.19L349.82 978.19M349.82 973.11L349.82 976.15L352.61 976.15Q353.61 976.15 354.17 975.74Q354.72 975.32 354.72 974.6L354.72 974.6Q354.72 973.89 354.14 973.5Q353.56 973.11 352.54 973.11L352.54 973.11L349.82 973.11M366.71 984.28L366.71 984.28Q364.76 984.28 363.31 983.41Q361.86 982.54 361.06 980.97Q360.27 979.41 360.27 977.35L360.27 977.35Q360.27 975.27 361.06 973.7Q361.86 972.13 363.31 971.26Q364.76 970.39 366.71 970.39L366.71 970.39Q367.88 970.39 368.87 970.71Q369.86 971.02 370.64 971.62Q371.41 972.21 371.91 973.03Q372.41 973.86 372.59 974.88L372.59 974.88L369.6 975.3Q369.49 974.77 369.25 974.34Q369.01 973.92 368.64 973.61Q368.27 973.29 367.8 973.13Q367.32 972.96 366.75 972.96L366.75 972.96Q365.67 972.96 364.94 973.53Q364.21 974.09 363.84 975.08Q363.46 976.07 363.46 977.35L363.46 977.35Q363.46 978.6 363.84 979.59Q364.21 980.58 364.94 981.14Q365.67 981.71 366.75 981.71L366.75 981.71Q367.33 981.71 367.81 981.54Q368.29 981.38 368.65 981.06Q369.02 980.74 369.26 980.3Q369.51 979.85 369.62 979.3L369.62 979.3L372.61 979.72Q372.44 980.75 371.94 981.59Q371.43 982.43 370.66 983.03Q369.88 983.63 368.88 983.96Q367.88 984.28 366.71 984.28M381.03 984.28L381.03 984.28Q379.02 984.28 377.55 983.42Q376.09 982.56 375.3 981Q374.51 979.43 374.51 977.36L374.51 977.36Q374.51 975.31 375.3 973.73Q376.09 972.16 377.51 971.27Q378.94 970.39 380.85 970.39L380.85 970.39Q382.14 970.39 383.27 970.82Q384.4 971.26 385.25 972.12Q386.11 972.98 386.59 974.25Q387.07 975.53 387.07 977.23L387.07 977.23L387.07 978.17L375.91 978.17L375.91 976.02L385.5 976.02L384.06 976.63Q384.06 975.49 383.68 974.65Q383.31 973.81 382.6 973.34Q381.9 972.87 380.87 972.87L380.87 972.87Q379.86 972.87 379.13 973.34Q378.39 973.82 378.01 974.63Q377.62 975.44 377.62 976.48L377.62 976.48L377.62 977.92Q377.62 979.15 378.04 980.03Q378.47 980.9 379.25 981.36Q380.03 981.81 381.08 981.81L381.08 981.81Q381.8 981.81 382.38 981.6Q382.96 981.39 383.37 980.98Q383.78 980.58 383.97 980.02L383.97 980.02L386.88 980.42Q386.58 981.57 385.78 982.44Q384.97 983.3 383.76 983.79Q382.54 984.28 381.03 984.28M391.33 984L387.9 984L393.2 976.04L393.18 978.21L388.18 970.61L391.66 970.61L393.03 972.83Q393.6 973.79 394.07 974.71Q394.54 975.63 395.03 976.49L395.03 976.49L393.79 976.49Q394.29 975.63 394.74 974.71Q395.2 973.79 395.79 972.83L395.79 972.83L397.2 970.61L400.61 970.61L395.54 978.25L395.56 976.11L400.82 984L397.36 984L395.73 981.41Q395.15 980.46 394.68 979.57Q394.21 978.68 393.72 977.82L393.72 977.82L394.93 977.82Q394.46 978.68 394.01 979.57Q393.55 980.46 392.98 981.41L392.98 981.41L391.33 984M414.79 984.28L414.79 984.28Q412.84 984.28 411.39 983.41Q409.95 982.54 409.15 980.97Q408.35 979.41 408.35 977.35L408.35 977.35Q408.35 975.27 409.15 973.7Q409.95 972.13 411.39 971.26Q412.84 970.39 414.79 970.39L414.79 970.39Q415.97 970.39 416.95 970.71Q417.94 971.02 418.72 971.62Q419.49 972.21 419.99 973.03Q420.49 973.86 420.68 974.88L420.68 974.88L417.69 975.3Q417.58 974.77 417.33 974.34Q417.09 973.92 416.72 973.61Q416.36 973.29 415.88 973.13Q415.4 972.96 414.83 972.96L414.83 972.96Q413.76 972.96 413.02 973.53Q412.29 974.09 411.92 975.08Q411.55 976.07 411.55 977.35L411.55 977.35Q411.55 978.6 411.92 979.59Q412.29 980.58 413.02 981.14Q413.76 981.71 414.83 981.71L414.83 981.71Q415.42 981.71 415.89 981.54Q416.37 981.38 416.73 981.06Q417.1 980.74 417.35 980.3Q417.59 979.85 417.7 979.3L417.7 979.3L420.69 979.72Q420.52 980.75 420.02 981.59Q419.52 982.43 418.74 983.03Q417.97 983.63 416.97 983.96Q415.97 984.28 414.79 984.28M429.06 984.28L429.06 984.28Q427.11 984.28 425.65 983.41Q424.19 982.55 423.39 980.98Q422.59 979.42 422.59 977.35L422.59 977.35Q422.59 975.27 423.39 973.7Q424.19 972.13 425.65 971.26Q427.11 970.39 429.06 970.39L429.06 970.39Q431.03 970.39 432.48 971.26Q433.93 972.13 434.73 973.7Q435.53 975.27 435.53 977.35L435.53 977.35Q435.53 979.42 434.73 980.98Q433.93 982.55 432.48 983.41Q431.03 984.28 429.06 984.28M429.06 981.71L429.06 981.71Q430.14 981.71 430.87 981.14Q431.6 980.57 431.98 979.59Q432.35 978.6 432.35 977.35L432.35 977.35Q432.35 976.08 431.98 975.09Q431.6 974.1 430.87 973.53Q430.14 972.96 429.06 972.96L429.06 972.96Q428 972.96 427.27 973.53Q426.54 974.1 426.16 975.09Q425.79 976.08 425.79 977.35L425.79 977.35Q425.79 978.6 426.16 979.59Q426.54 980.57 427.26 981.14Q427.99 981.71 429.06 981.71M449.8 984L438.08 984L438.08 970.61L441.23 970.61L441.23 981.38L446.65 981.38L446.65 970.61L449.8 970.61L449.8 984M451.55 987.91L448.47 987.91L448.47 984L447.47 984L447.47 981.33L451.66 981.33L451.55 987.91M459.23 984.28L459.23 984.28Q457.27 984.28 455.83 983.41Q454.38 982.54 453.58 980.97Q452.78 979.41 452.78 977.35L452.78 977.35Q452.78 975.27 453.58 973.7Q454.38 972.13 455.83 971.26Q457.27 970.39 459.23 970.39L459.23 970.39Q460.4 970.39 461.39 970.71Q462.38 971.02 463.15 971.62Q463.93 972.21 464.43 973.03Q464.93 973.86 465.11 974.88L465.11 974.88L462.12 975.3Q462.01 974.77 461.77 974.34Q461.52 973.92 461.16 973.61Q460.79 973.29 460.31 973.13Q459.84 972.96 459.26 972.96L459.26 972.96Q458.19 972.96 457.46 973.53Q456.73 974.09 456.35 975.08Q455.98 976.07 455.98 977.35L455.98 977.35Q455.98 978.6 456.35 979.59Q456.73 980.58 457.46 981.14Q458.19 981.71 459.26 981.71L459.26 981.71Q459.85 981.71 460.33 981.54Q460.8 981.38 461.17 981.06Q461.53 980.74 461.78 980.3Q462.02 979.85 462.13 979.3L462.13 979.3L465.12 979.72Q464.95 980.75 464.45 981.59Q463.95 982.43 463.18 983.03Q462.4 983.63 461.4 983.96Q460.4 984.28 459.23 984.28M473.55 984.28L473.55 984.28Q471.53 984.28 470.07 983.42Q468.6 982.56 467.82 981Q467.03 979.43 467.03 977.36L467.03 977.36Q467.03 975.31 467.82 973.73Q468.6 972.16 470.03 971.27Q471.46 970.39 473.36 970.39L473.36 970.39Q474.66 970.39 475.79 970.82Q476.92 971.26 477.77 972.12Q478.62 972.98 479.11 974.25Q479.59 975.53 479.59 977.23L479.59 977.23L479.59 978.17L468.43 978.17L468.43 976.02L478.01 976.02L476.57 976.63Q476.57 975.49 476.2 974.65Q475.83 973.81 475.12 973.34Q474.41 972.87 473.39 972.87L473.39 972.87Q472.37 972.87 471.64 973.34Q470.91 973.82 470.53 974.63Q470.14 975.44 470.14 976.48L470.14 976.48L470.14 977.92Q470.14 979.15 470.56 980.03Q470.98 980.9 471.76 981.36Q472.55 981.81 473.6 981.81L473.6 981.81Q474.32 981.81 474.9 981.6Q475.48 981.39 475.88 980.98Q476.29 980.58 476.49 980.02L476.49 980.02L479.39 980.42Q479.1 981.57 478.29 982.44Q477.49 983.3 476.27 983.79Q475.06 984.28 473.55 984.28M488.27 984L485.12 984L485.12 973.2L480.75 973.2L480.75 970.61L492.63 970.61L492.63 973.2L488.27 973.2L488.27 984M505.32 970.61L505.32 984L502.29 984L502.29 973.14L499.62 973.14Q498.22 973.14 497.57 973.62Q496.92 974.11 496.92 975.08L496.92 975.08Q496.92 976.03 497.58 976.52Q498.24 977.01 499.66 977.01L499.66 977.01L503.58 977.01L503.58 979.32L499.34 979.32Q496.67 979.32 495.24 978.18Q493.81 977.03 493.81 975.05L493.81 975.05Q493.81 973.01 495.21 971.81Q496.62 970.61 499.25 970.61L499.25 970.61L505.32 970.61M500.45 977.95L496.7 984L493.24 984L497.07 977.95L500.45 977.95M510.8 984L507.37 984L512.67 976.04L512.65 978.21L507.65 970.61L511.13 970.61L512.5 972.83Q513.07 973.79 513.54 974.71Q514.01 975.63 514.5 976.49L514.5 976.49L513.26 976.49Q513.76 975.63 514.21 974.71Q514.67 973.79 515.26 972.83L515.26 972.83L516.67 970.61L520.08 970.61L515.01 978.25L515.03 976.11L520.29 984L516.83 984L515.2 981.41Q514.62 980.46 514.15 979.57Q513.68 978.68 513.19 977.82L513.19 977.82L514.4 977.82Q513.93 978.68 513.48 979.57Q513.02 980.46 512.45 981.41L512.45 981.41L510.8 984M533.1 984.18L533.1 984.18Q531.48 984.18 530.28 983.64Q529.09 983.1 528.42 982.17Q527.76 981.24 527.75 980.07L527.75 980.07L530.83 980.07Q530.86 980.79 531.49 981.24Q532.13 981.68 533.07 981.68L533.07 981.68Q534.07 981.68 534.69 981.19Q535.3 980.7 535.3 979.95L535.3 979.95Q535.3 979.14 534.64 978.66Q533.98 978.18 532.84 978.18L532.84 978.18L531.81 978.18L531.81 976.18L532.84 976.18Q533.81 976.18 534.44 975.72Q535.06 975.26 535.06 974.47L535.06 974.47Q535.06 973.73 534.53 973.28Q534 972.82 533.12 972.82L533.12 972.82Q532.25 972.82 531.64 973.25Q531.03 973.67 531 974.41L531 974.41L528.01 974.41Q528.04 973.23 528.7 972.33Q529.36 971.43 530.52 970.91Q531.68 970.4 533.15 970.4L533.15 970.4Q534.62 970.4 535.72 970.9Q536.82 971.4 537.43 972.26Q538.05 973.11 538.05 974.19L538.05 974.19Q538.05 975.36 537.29 976.1Q536.52 976.85 535.35 977.02L535.35 977.02L535.35 977.08Q536.93 977.26 537.73 978.12Q538.54 978.98 538.54 980.22L538.54 980.22Q538.54 981.36 537.85 982.26Q537.16 983.16 535.93 983.67Q534.7 984.18 533.1 984.18M544.84 984.26L544.84 984.26Q543.54 984.26 542.52 983.8Q541.49 983.34 540.89 982.44Q540.29 981.55 540.29 980.23L540.29 980.23Q540.29 979.08 540.72 978.34Q541.15 977.6 541.88 977.16Q542.61 976.71 543.54 976.49Q544.47 976.26 545.46 976.15L545.46 976.15Q546.65 976.02 547.38 975.92Q548.11 975.82 548.44 975.61Q548.78 975.39 548.78 974.94L548.78 974.94L548.78 974.87Q548.78 974.23 548.5 973.78Q548.23 973.33 547.7 973.08Q547.17 972.83 546.4 972.83L546.4 972.83Q545.63 972.83 545.05 973.07Q544.47 973.32 544.12 973.72Q543.76 974.12 543.63 974.6L543.63 974.6L540.69 974.2Q540.98 972.96 541.77 972.12Q542.56 971.28 543.76 970.84Q544.95 970.4 546.41 970.4L546.41 970.4Q547.47 970.4 548.46 970.66Q549.45 970.91 550.22 971.46Q551 972 551.45 972.87Q551.9 973.75 551.9 974.99L551.9 974.99L551.9 984L548.88 984L548.88 982.13L548.77 982.13Q548.47 982.72 547.95 983.2Q547.44 983.68 546.67 983.97Q545.9 984.26 544.84 984.26M545.63 981.92L545.63 981.92Q546.62 981.92 547.33 981.55Q548.03 981.17 548.41 980.53Q548.79 979.9 548.79 979.14L548.79 979.14L548.79 977.6Q548.64 977.71 548.3 977.82Q547.96 977.92 547.53 978Q547.09 978.08 546.65 978.15Q546.2 978.21 545.84 978.26L545.84 978.26Q545.14 978.36 544.57 978.58Q544.01 978.8 543.68 979.19Q543.35 979.58 543.35 980.19L543.35 980.19Q543.35 980.75 543.64 981.14Q543.93 981.52 544.44 981.72Q544.96 981.92 545.63 981.92M574.97 980.39L560.66 980.39L560.66 977.81L568.55 965.81L570.67 965.81L570.67 969.35L569.41 969.35L563.96 977.63L563.96 977.73L574.97 977.73L574.97 980.39M572.58 984L569.48 984L569.48 979.61L569.52 978.43L569.52 965.81L572.58 965.81L572.58 984M586.75 984L583.68 984L583.68 970.61L588.44 970.61L590.81 976.76Q591.04 977.41 591.23 978.12Q591.43 978.82 591.59 979.55Q591.76 980.28 591.91 980.97Q592.05 981.66 592.17 982.25L592.17 982.25L591.69 982.25Q591.81 981.68 591.95 980.99Q592.1 980.3 592.27 979.57Q592.44 978.85 592.64 978.13Q592.83 977.41 593.05 976.76L593.05 976.76L595.38 970.61L600.17 970.61L600.17 984L597.08 984L597.08 978.23Q597.08 977.52 597.09 976.75Q597.11 975.98 597.12 975.17Q597.14 974.36 597.15 973.54Q597.17 972.73 597.18 971.95L597.18 971.95L597.5 971.95Q597.22 973.07 596.9 974.13Q596.59 975.19 596.25 976.21Q595.91 977.23 595.53 978.23L595.53 978.23L593.25 984L590.59 984L588.28 978.23Q587.89 977.21 587.55 976.19Q587.21 975.16 586.89 974.11Q586.58 973.05 586.3 971.95L586.3 971.95L586.66 971.95Q586.67 972.68 586.68 973.48Q586.69 974.28 586.71 975.11Q586.73 975.93 586.74 976.72Q586.75 977.52 586.75 978.23L586.75 978.23L586.75 984M615.23 970.61L615.23 984L612.1 984L612.1 975.46L612 975.46L606.08 984L603.32 984L603.32 970.61L606.46 970.61L606.46 979.14L606.54 979.14L612.44 970.61L615.23 970.61M620.68 975.8L627.94 975.8L627.94 978.43L620.68 978.43L620.68 975.8M618.38 970.61L621.53 970.61L621.53 984L618.38 984L618.38 970.61M627.11 970.61L630.25 970.61L630.25 984L627.11 984L627.11 970.61M632.92 988.94L632.92 988.94L633.42 986.47L634.18 986.53Q634.8 986.65 635.27 986.55Q635.74 986.44 636.06 986.07Q636.39 985.7 636.55 985L636.55 985L636.84 984.01L631.75 970.61L635.09 970.61L637.55 977.79Q637.96 979.02 638.26 980.25Q638.56 981.49 638.89 982.75L638.89 982.75L638.05 982.75Q638.38 981.49 638.71 980.25Q639.04 979.01 639.46 977.79L639.46 977.79L641.97 970.61L645.27 970.61L639.45 985.88Q639.05 986.94 638.45 987.67Q637.84 988.41 637 988.79Q636.16 989.16 635.01 989.16L635.01 989.16Q634.4 989.16 633.85 989.1Q633.3 989.04 632.92 988.94M653.84 984L650.69 984L650.69 973.2L646.32 973.2L646.32 970.61L658.2 970.61L658.2 973.2L653.84 973.2L653.84 984M662.34 977.59L662.34 974.99L666.33 974.99Q668 974.99 669.21 975.56Q670.41 976.13 671.05 977.13Q671.69 978.14 671.69 979.48L671.69 979.48Q671.69 980.81 671.05 981.83Q670.41 982.85 669.21 983.43Q668 984 666.33 984L666.33 984L660.14 984L660.14 970.61L663.29 970.61L663.29 981.4L666.3 981.4Q667.35 981.4 667.97 980.89Q668.6 980.37 668.6 979.51L668.6 979.51Q668.6 978.63 667.97 978.11Q667.35 977.59 666.3 977.59L666.3 977.59L662.34 977.59M676.05 984L672.9 984L672.9 970.61L676.05 970.61L676.05 984" fill="#161512" opacity="0.62"><title>От идеи до ролика во всех соцсетях за 4 минуты</title></path>
</svg>
