<svg width="1080" height="1080" viewBox="0 0 1080 1080" xmlns="http://www.w3.org/2000/svg" role="img" aria-label="Monty — Как я делаю рилс без монтажа">
<defs>
  <filter id="grain" x="0" y="0" width="100%" height="100%">
    <feTurbulence type="fractalNoise" baseFrequency="0.9" numOctaves="3" seed="7" result="n"/>
    <feColorMatrix in="n" type="saturate" values="0"/>
  </filter>
  <filter id="drop" x="-40%" y="-40%" width="180%" height="200%">
    <feDropShadow dx="0" dy="10" stdDeviation="16" flood-color="#000000" flood-opacity="0.45"/>
  </filter>
  <filter id="dropSoft" x="-40%" y="-40%" width="180%" height="200%">
    <feDropShadow dx="0" dy="6" stdDeviation="9" flood-color="#000000" flood-opacity="0.22"/>
  </filter>
  <linearGradient id="screenGrad" x1="0" y1="0" x2="1" y2="1">
    <stop offset="0" stop-color="#2A1E5C"/><stop offset="0.5" stop-color="#161512"/><stop offset="1" stop-color="#0B0A09"/>
  </linearGradient>
  <linearGradient id="neonGrad" x1="0" y1="0" x2="1" y2="0">
    <stop offset="0" stop-color="#6C4DF6"/><stop offset="1" stop-color="#FFD21E"/>
  </linearGradient></defs>
<rect width="1080" height="1080" fill="#FFD21E"/>
<circle cx="928.8" cy="129.6" r="302.40000000000003" fill="#161512" opacity="0.06"/>
<circle cx="108" cy="993.6" r="324" fill="#161512" opacity="0.05"/>
<rect width="1080" height="1080" filter="url(#grain)" opacity="0.05"/>
<g transform="translate(76,66) scale(0.359375)">
    <circle cx="30" cy="52" r="19" fill="#161512"/><circle cx="98" cy="52" r="19" fill="#161512"/>
    <circle cx="30" cy="52" r="9" fill="#FFD21E"/><circle cx="98" cy="52" r="9" fill="#FFD21E"/>
    <rect x="28" y="26" width="72" height="80" rx="36" fill="#161512"/>
    <circle cx="64" cy="70" r="30" fill="#FFD21E"/>
    <path d="M57 55 L57 85 L84 70 Z" fill="#FFD21E" stroke="#FFD21E" stroke-width="5" stroke-linejoin="round"/>
  </g><path d="M137.11 102.34L132.13 102.34L132.13 82.72L137.03 82.72L137.03 84.85L137.75 84.85Q138.26 83.87 139.45 83.13Q140.63 82.4 142.57 82.4L142.57 82.4Q144.67 82.4 145.94 83.21Q147.2 84.02 147.87 85.33L147.87 85.33L148.59 85.33Q149.26 84.06 150.49 83.23Q151.71 82.4 153.97 82.4L153.97 82.4Q155.79 82.4 157.27 83.17Q158.75 83.94 159.64 85.51Q160.53 87.07 160.53 89.44L160.53 89.44L160.53 102.34L155.55 102.34L155.55 89.8Q155.55 88.18 154.72 87.37Q153.89 86.56 152.38 86.56L152.38 86.56Q150.68 86.56 149.75 87.64Q148.82 88.73 148.82 90.75L148.82 90.75L148.82 102.34L143.84 102.34L143.84 89.8Q143.84 88.18 143.01 87.37Q142.18 86.56 140.67 86.56L140.67 86.56Q138.97 86.56 138.04 87.64Q137.11 88.73 137.11 90.75L137.11 90.75L137.11 102.34M174.06 102.89L174.06 102.89Q171.14 102.89 168.8 101.71Q166.47 100.52 165.12 98.27Q163.78 96.01 163.78 92.85L163.78 92.85L163.78 92.21Q163.78 89.05 165.12 86.79Q166.47 84.54 168.8 83.35Q171.14 82.16 174.06 82.16L174.06 82.16Q176.99 82.16 179.32 83.35Q181.66 84.54 183 86.79Q184.35 89.05 184.35 92.21L184.35 92.21L184.35 92.85Q184.35 96.01 183 98.27Q181.66 100.52 179.32 101.71Q176.99 102.89 174.06 102.89M174.06 98.46L174.06 98.46Q176.36 98.46 177.86 96.98Q179.36 95.5 179.36 92.73L179.36 92.73L179.36 92.33Q179.36 89.56 177.88 88.08Q176.4 86.6 174.06 86.6L174.06 86.6Q171.77 86.6 170.27 88.08Q168.76 89.56 168.76 92.33L168.76 92.33L168.76 92.73Q168.76 95.5 170.27 96.98Q171.77 98.46 174.06 98.46M192.74 102.34L187.75 102.34L187.75 82.72L192.66 82.72L192.66 85.29L193.37 85.29Q193.84 84.26 195.15 83.33Q196.45 82.4 199.1 82.4L199.1 82.4Q201.4 82.4 203.12 83.45Q204.84 84.5 205.79 86.34Q206.74 88.18 206.74 90.63L206.74 90.63L206.74 102.34L201.75 102.34L201.75 91.03Q201.75 88.81 200.67 87.7Q199.58 86.6 197.56 86.6L197.56 86.6Q195.27 86.6 194 88.12Q192.74 89.64 192.74 92.37L192.74 92.37L192.74 102.34M223.43 102.34L217.9 102.34Q215.96 102.34 214.75 101.13Q213.54 99.93 213.54 97.91L213.54 97.91L213.54 86.83L208.64 86.83L208.64 82.72L213.54 82.72L213.54 76.63L218.53 76.63L218.53 82.72L223.91 82.72L223.91 86.83L218.53 86.83L218.53 97.04Q218.53 98.23 219.64 98.23L219.64 98.23L223.43 98.23L223.43 102.34M241.71 110.25L229.37 110.25L229.37 105.9L240.05 105.9Q241.16 105.9 241.16 104.71L241.16 104.71L241.16 99.77L240.44 99.77Q240.13 100.44 239.46 101.11Q238.78 101.79 237.64 102.22Q236.49 102.66 234.71 102.66L234.71 102.66Q232.41 102.66 230.69 101.61Q228.97 100.56 228.02 98.7Q227.07 96.84 227.07 94.43L227.07 94.43L227.07 82.72L232.06 82.72L232.06 94.03Q232.06 96.25 233.15 97.36Q234.23 98.46 236.25 98.46L236.25 98.46Q238.55 98.46 239.81 96.94Q241.08 95.42 241.08 92.69L241.08 92.69L241.08 82.72L246.06 82.72L246.06 105.82Q246.06 107.84 244.88 109.05Q243.69 110.25 241.71 110.25L241.71 110.25" fill="#161512"><title>monty</title></path>
<path d="M96.98 400L80.94 400L80.94 343L98.5 343L98.5 386.09L93.94 382.37L124.26 343L142.8 343L96.98 400M123.58 400L108.22 373.32L121.22 362.84L143.64 400L123.58 400M200.87 400L182.78 400L180.73 384.5L182.86 378.26L180.73 372.11L182.78 356.45L200.87 356.45L197.98 378.19L200.87 400M186.66 378.26L186.66 378.26Q185.74 385.18 182.67 390.39Q179.59 395.59 174.76 398.44Q169.94 401.29 163.7 401.29L163.7 401.29Q157.4 401.29 152.53 398.4Q147.67 395.52 144.97 390.31Q142.27 385.1 142.27 378.26L142.27 378.26Q142.27 371.27 144.97 366.07Q147.67 360.86 152.53 358.01Q157.4 355.16 163.7 355.16L163.7 355.16Q169.94 355.16 174.76 357.97Q179.59 360.78 182.7 365.99Q185.82 371.2 186.66 378.26M159.83 378.26L159.83 378.26Q159.83 381.15 161.01 383.36Q162.18 385.56 164.31 386.85Q166.44 388.14 169.18 388.14L169.18 388.14Q171.99 388.14 174.57 386.85Q177.16 385.56 179.13 383.36Q181.11 381.15 182.02 378.26L182.02 378.26Q181.11 375.38 179.13 373.13Q177.16 370.89 174.57 369.6Q171.99 368.31 169.18 368.31L169.18 368.31Q166.44 368.31 164.31 369.6Q162.18 370.89 161.01 373.13Q159.83 375.38 159.83 378.26M220.02 400L204.67 400L204.67 356.45L222.07 356.45L222.07 386.62L217.06 384.88L240.16 356.45L258.25 356.45L220.02 400M259.39 400L239.93 400L227.85 378.87L241.15 369.98L259.39 400M296.1 375.91L312.13 375.91L312.13 386.47L291.69 386.47L291.54 385.94Q286.29 385.94 282.26 384.15Q278.24 382.37 275.99 379.06Q273.75 375.76 273.75 371.42L273.75 371.42Q273.75 366.94 275.99 363.6Q278.24 360.25 282.26 358.35Q286.29 356.45 291.54 356.45L291.54 356.45L324.75 356.45L324.75 400L307.34 400L307.34 360.63L311.98 367.55L296.1 367.55Q293.82 367.55 292.56 368.61Q291.31 369.68 291.31 371.65L291.31 371.65Q291.31 373.63 292.56 374.77Q293.82 375.91 296.1 375.91L296.1 375.91M286.75 379.63L305.37 379.63L291.92 400L272.46 400L286.75 379.63M393.45 387.08L408.8 387.08L408.8 410.26L393.83 410.26L393.83 400L357.58 400L357.58 410.26L342.61 410.26L342.61 387.08L356.36 387.08L359.25 387.38L390.79 387.38L393.45 387.08M351.5 356.45L351.5 356.45L400.82 356.45L400.82 397.04L383.57 397.04L383.57 361.01L391.55 368.99L359.86 368.99L366.17 362.53Q367.46 365.65 367.69 368.27Q367.92 370.89 367.92 373.1L367.92 373.1Q367.92 383.43 364.19 389.06Q360.47 394.68 353.63 394.68L353.63 394.68L346.56 388.75Q352.34 384.72 352.34 369.6L352.34 369.6Q352.34 366.64 352.11 363.33Q351.88 360.02 351.5 356.45M437.76 401.29L437.76 401.29Q429.7 401.29 423.4 398.4Q417.09 395.52 413.44 390.27Q409.79 385.03 409.79 378.04L409.79 378.04Q409.79 371.2 413.33 366.03Q416.86 360.86 422.98 358.01Q429.1 355.16 436.7 355.16L436.7 355.16Q444.68 355.16 450.3 358.54Q455.92 361.92 458.93 368.19Q461.93 374.46 461.93 382.98L461.93 382.98L424 382.98L424 373.02L451.9 373.02L446.8 376.44Q446.5 373.48 445.28 371.39Q444.07 369.3 442.05 368.23Q440.04 367.17 437.3 367.17L437.3 367.17Q434.19 367.17 431.98 368.38Q429.78 369.6 428.6 371.77Q427.42 373.93 427.42 376.67L427.42 376.67Q427.42 380.54 429.13 383.2Q430.84 385.86 434.34 387.27Q437.84 388.68 443 388.68L443 388.68Q447.72 388.68 452.35 387.54Q456.99 386.4 460.79 384.19L460.79 384.19L460.79 394.98Q456.15 398.02 450.41 399.66Q444.68 401.29 437.76 401.29M472.42 356.45L472.42 356.45L521.13 356.45L521.13 400L503.73 400L503.73 361.39L511.63 369.3L481.08 369.3L488.45 362.46Q488.91 366.94 489.14 370.36Q489.36 373.78 489.36 376.59L489.36 376.59Q489.36 389.51 485.3 395.25Q481.23 400.99 472.04 400.99L472.04 400.99Q469.3 400.99 466.91 400.42Q464.51 399.85 462.16 398.56L462.16 398.56L462.16 386.24Q463.52 386.78 464.85 387.04Q466.18 387.31 467.25 387.31L467.25 387.31Q470.74 387.31 472.19 384.27Q473.63 381.23 473.63 374.24L473.63 374.24Q473.63 370.74 473.33 366.29Q473.02 361.85 472.42 356.45M582.92 400L564.83 400L562.78 384.5L564.91 378.26L562.78 372.11L564.83 356.45L582.92 356.45L580.03 378.19L582.92 400M568.71 378.26L568.71 378.26Q567.8 385.18 564.72 390.39Q561.64 395.59 556.81 398.44Q551.99 401.29 545.76 401.29L545.76 401.29Q539.45 401.29 534.58 398.4Q529.72 395.52 527.02 390.31Q524.32 385.1 524.32 378.26L524.32 378.26Q524.32 371.27 527.02 366.07Q529.72 360.86 534.58 358.01Q539.45 355.16 545.76 355.16L545.76 355.16Q551.99 355.16 556.81 357.97Q561.64 360.78 564.76 365.99Q567.87 371.2 568.71 378.26M541.88 378.26L541.88 378.26Q541.88 381.15 543.06 383.36Q544.24 385.56 546.36 386.85Q548.49 388.14 551.23 388.14L551.23 388.14Q554.04 388.14 556.62 386.85Q559.21 385.56 561.18 383.36Q563.16 381.15 564.07 378.26L564.07 378.26Q563.16 375.38 561.18 373.13Q559.21 370.89 556.62 369.6Q554.04 368.31 551.23 368.31L551.23 368.31Q548.49 368.31 546.36 369.6Q544.24 370.89 543.06 373.13Q541.88 375.38 541.88 378.26M637.26 401.29L637.26 401.29Q628.9 401.29 622.63 398.4Q616.36 395.52 612.86 390.31Q609.37 385.1 609.37 378.26L609.37 378.26Q609.37 371.27 612.86 366.07Q616.36 360.86 622.63 358.01Q628.9 355.16 637.26 355.16L637.26 355.16Q645.7 355.16 652 358.01Q658.31 360.86 661.81 366.07Q665.3 371.27 665.3 378.26L665.3 378.26Q665.3 385.1 661.81 390.31Q658.31 395.52 652 398.4Q645.7 401.29 637.26 401.29M604.12 400L586.72 400L586.72 356.45L604.12 356.45L604.12 400M620.77 384.04L596.68 384.04L596.68 371.27L620.77 371.27L620.77 384.04M637.34 388.52L637.34 388.52Q640.68 388.52 643 387.31Q645.32 386.09 646.53 383.77Q647.75 381.46 647.75 378.26L647.75 378.26Q647.75 375 646.53 372.68Q645.32 370.36 643 369.14Q640.68 367.93 637.34 367.93L637.34 367.93Q633.99 367.93 631.64 369.14Q629.28 370.36 628.06 372.68Q626.85 375 626.85 378.26L626.85 378.26Q626.85 381.46 628.06 383.77Q629.28 386.09 631.64 387.31Q633.99 388.52 637.34 388.52M683.7 412.54L683.7 356.45L701.1 356.45L701.1 368.08L700.42 370.06L700.42 383.36L701.1 387.23L701.1 412.54L683.7 412.54M695.78 378.26L695.78 378.26Q696.69 371.2 699.77 365.99Q702.85 360.78 707.71 357.97Q712.58 355.16 718.73 355.16L718.73 355.16Q725.12 355.16 729.94 358.01Q734.77 360.86 737.47 366.07Q740.16 371.27 740.16 378.26L740.16 378.26Q740.16 385.1 737.47 390.31Q734.77 395.52 729.94 398.4Q725.12 401.29 718.73 401.29L718.73 401.29Q712.5 401.29 707.67 398.44Q702.85 395.59 699.81 390.39Q696.77 385.18 695.78 378.26M722.61 378.26L722.61 378.26Q722.61 375.38 721.43 373.13Q720.25 370.89 718.12 369.6Q716 368.31 713.26 368.31L713.26 368.31Q710.45 368.31 707.86 369.6Q705.28 370.89 703.34 373.13Q701.4 375.38 700.49 378.26L700.49 378.26Q701.4 381.15 703.34 383.36Q705.28 385.56 707.86 386.85Q710.45 388.14 713.26 388.14L713.26 388.14Q716 388.14 718.12 386.85Q720.25 385.56 721.43 383.36Q722.61 381.15 722.61 378.26M764.94 400L743.28 400L743.28 356.45L760.46 356.45L760.46 390.35L757.04 389.21L777.56 356.45L799.82 356.45L799.82 400L782.72 400L782.72 364.96L786.07 366.18L764.94 400M812.06 356.45L812.06 356.45L860.78 356.45L860.78 400L843.37 400L843.37 361.39L851.28 369.3L820.72 369.3L828.1 362.46Q828.55 366.94 828.78 370.36Q829.01 373.78 829.01 376.59L829.01 376.59Q829.01 389.51 824.94 395.25Q820.88 400.99 811.68 400.99L811.68 400.99Q808.94 400.99 806.55 400.42Q804.16 399.85 801.8 398.56L801.8 398.56L801.8 386.24Q803.17 386.78 804.5 387.04Q805.83 387.31 806.89 387.31L806.89 387.31Q810.39 387.31 811.83 384.27Q813.28 381.23 813.28 374.24L813.28 374.24Q813.28 370.74 812.97 366.29Q812.67 361.85 812.06 356.45M901.59 381.23L918.84 381.23Q918.23 387.23 914.51 391.75Q910.78 396.28 904.82 398.78Q898.85 401.29 891.4 401.29L891.4 401.29Q883.27 401.29 877 398.4Q870.73 395.52 867.24 390.27Q863.74 385.03 863.74 378.26L863.74 378.26Q863.74 371.35 867.24 366.18Q870.73 361.01 877 358.09Q883.27 355.16 891.4 355.16L891.4 355.16Q898.85 355.16 904.82 357.67Q910.78 360.18 914.51 364.66Q918.23 369.14 918.84 375.22L918.84 375.22L901.59 375.22Q900.83 371.65 898.09 369.79Q895.36 367.93 891.4 367.93L891.4 367.93Q888.36 367.93 886.08 369.11Q883.8 370.28 882.59 372.6Q881.37 374.92 881.37 378.26L881.37 378.26Q881.37 381.61 882.59 383.89Q883.8 386.17 886.08 387.35Q888.36 388.52 891.4 388.52L891.4 388.52Q895.36 388.52 898.09 386.51Q900.83 384.5 901.59 381.23L901.59 381.23" fill="#161512"><title>Как я делаю рилс</title></path>
<path d="M103.59 493.29L103.59 493.29Q95.76 493.29 89.91 491.32Q84.06 489.34 80.79 485.65Q77.52 481.97 77.29 476.95L77.29 476.95L94.16 476.95Q94.47 479.31 96.94 480.6Q99.41 481.89 103.59 481.89L103.59 481.89Q107.54 481.89 109.71 480.9Q111.87 479.92 111.87 477.94L111.87 477.94Q111.87 476.12 109.97 475.36Q108.07 474.6 103.74 474.6L103.74 474.6L96.44 474.6L96.44 465.7L103.59 465.7Q107.31 465.7 109.1 464.79Q110.88 463.88 110.88 462.21L110.88 462.21Q110.88 460.46 108.95 459.51Q107.01 458.56 103.51 458.56L103.51 458.56Q99.64 458.56 97.39 459.74Q95.15 460.92 94.77 463.2L94.77 463.2L78.13 463.2Q78.36 458.79 81.4 455.14Q84.44 451.49 90.21 449.33Q95.99 447.16 104.2 447.16L104.2 447.16Q111.42 447.16 116.85 448.76Q122.28 450.35 125.32 453.24Q128.36 456.13 128.36 459.85L128.36 459.85Q128.36 462.66 126.62 465.1Q124.87 467.53 120.73 469.01Q116.58 470.49 109.52 470.42L109.52 470.42L109.52 469.12Q119.24 468.74 124.34 471.21Q129.43 473.68 129.43 479.23L129.43 479.23Q129.43 483.18 126.39 486.38Q123.35 489.57 117.57 491.43Q111.8 493.29 103.59 493.29M189.54 492L171.46 492L169.4 476.5L171.53 470.26L169.4 464.11L171.46 448.45L189.54 448.45L186.66 470.19L189.54 492M175.33 470.26L175.33 470.26Q174.42 477.18 171.34 482.39Q168.26 487.59 163.44 490.44Q158.61 493.29 152.38 493.29L152.38 493.29Q146.07 493.29 141.21 490.4Q136.34 487.52 133.65 482.31Q130.95 477.1 130.95 470.26L130.95 470.26Q130.95 463.27 133.65 458.07Q136.34 452.86 141.21 450.01Q146.07 447.16 152.38 447.16L152.38 447.16Q158.61 447.16 163.44 449.97Q168.26 452.78 171.38 457.99Q174.5 463.2 175.33 470.26M148.5 470.26L148.5 470.26Q148.5 473.15 149.68 475.36Q150.86 477.56 152.99 478.85Q155.12 480.14 157.85 480.14L157.85 480.14Q160.66 480.14 163.25 478.85Q165.83 477.56 167.81 475.36Q169.78 473.15 170.7 470.26L170.7 470.26Q169.78 467.38 167.81 465.13Q165.83 462.89 163.25 461.6Q160.66 460.31 157.85 460.31L157.85 460.31Q155.12 460.31 152.99 461.6Q150.86 462.89 149.68 465.13Q148.5 467.38 148.5 470.26M225.04 492L208.7 492L208.7 448.45L234.92 448.45L246.77 482.27L242.36 482.27L253.99 448.45L280.21 448.45L280.21 492L263.87 492L263.87 455.14L266.46 455.14L252.32 492L236.66 492L222.53 455.29L225.04 455.22L225.04 492M306.74 492L285.08 492L285.08 448.45L302.25 448.45L302.25 482.35L298.83 481.21L319.35 448.45L341.62 448.45L341.62 492L324.52 492L324.52 456.96L327.86 458.18L306.74 492M346.48 492L346.48 448.45L363.89 448.45L363.89 492L346.48 492M382.28 492L382.28 448.45L399.68 448.45L399.68 492L382.28 492M356.52 476.12L356.52 463.2L388.74 463.2L388.74 476.12L356.52 476.12M420.13 505.83L420.13 505.83Q414.96 505.83 411.05 504.58Q407.13 503.32 403.33 500.59L403.33 500.59L403.33 488.73Q407.13 491.16 410.4 492.23Q413.67 493.29 417.54 493.29L417.54 493.29Q420.74 493.29 423.13 491.92Q425.52 490.56 427.12 486.83L427.12 486.83L442.85 448.45L461.32 448.45L440.95 492.15Q438.6 497.24 435.21 500.28Q431.83 503.32 427.96 504.58Q424.08 505.83 420.13 505.83M435.86 487.06L419.14 487.06L401.2 448.45L420.36 448.45L435.86 487.06M475.3 492L475.3 454.46L492.71 454.46L492.71 492L475.3 492M459.27 461.45L459.27 448.45L508.74 448.45L508.74 461.45L459.27 461.45M526.3 505.83L526.3 505.83Q521.13 505.83 517.22 504.58Q513.3 503.32 509.5 500.59L509.5 500.59L509.5 488.73Q513.3 491.16 516.57 492.23Q519.84 493.29 523.72 493.29L523.72 493.29Q526.91 493.29 529.3 491.92Q531.7 490.56 533.29 486.83L533.29 486.83L549.02 448.45L567.49 448.45L547.12 492.15Q544.77 497.24 541.39 500.28Q538 503.32 534.13 504.58Q530.25 505.83 526.3 505.83M542.03 487.06L525.31 487.06L507.38 448.45L526.53 448.45L542.03 487.06" fill="#161512"><title>за минуту</title></path>
<rect x="58" y="514.4" width="705.92" height="107.2" rx="20" fill="#161512"/>
<path d="M109.84 589.36L109.84 589.36Q100 589.36 93 585.76Q86 582.16 82.32 575.44Q78.64 568.72 78.64 559.12L78.64 559.12Q78.64 544.88 86.6 536.68Q94.56 528.48 109.52 527.2L109.52 527.2Q115.68 526.72 119.68 526.36Q123.68 526 126.28 525.64Q128.88 525.28 130.68 524.84Q132.48 524.4 134.24 523.84L134.24 523.84L134.24 538.64Q132.24 539.36 129.56 539.84Q126.88 540.32 122.88 540.6Q118.88 540.88 112.96 541.2L112.96 541.2Q102.88 541.52 98.32 545.88Q93.76 550.24 93.76 558.8L93.76 558.8L93.76 560.16L93.28 558.8Q94.64 555.04 97.84 552.24Q101.04 549.44 105.56 547.96Q110.08 546.48 115.36 546.48L115.36 546.48Q122.32 546.48 127.52 549.04Q132.72 551.6 135.6 556.28Q138.48 560.96 138.48 567.12L138.48 567.12Q138.48 573.84 134.92 578.84Q131.36 583.84 124.96 586.6Q118.56 589.36 109.84 589.36M110.32 575.92L110.32 575.92Q113.28 575.92 115.48 574.88Q117.68 573.84 118.84 571.92Q120 570 120 567.44L120 567.44Q120 564.8 118.84 562.92Q117.68 561.04 115.48 560Q113.28 558.96 110.32 558.96L110.32 558.96Q106.08 558.96 102.64 561.12Q99.2 563.28 97.44 566.88L97.44 566.88Q98.48 570.88 102.04 573.4Q105.6 575.92 110.32 575.92M169.12 589.36L169.12 589.36Q160.64 589.36 154 586.32Q147.36 583.28 143.52 577.76Q139.68 572.24 139.68 564.88L139.68 564.88Q139.68 557.68 143.4 552.24Q147.12 546.8 153.56 543.8Q160 540.8 168 540.8L168 540.8Q176.4 540.8 182.32 544.36Q188.24 547.92 191.4 554.52Q194.56 561.12 194.56 570.08L194.56 570.08L154.64 570.08L154.64 559.6L184 559.6L178.64 563.2Q178.32 560.08 177.04 557.88Q175.76 555.68 173.64 554.56Q171.52 553.44 168.64 553.44L168.64 553.44Q165.36 553.44 163.04 554.72Q160.72 556 159.48 558.28Q158.24 560.56 158.24 563.44L158.24 563.44Q158.24 567.52 160.04 570.32Q161.84 573.12 165.52 574.6Q169.2 576.08 174.64 576.08L174.64 576.08Q179.6 576.08 184.48 574.88Q189.36 573.68 193.36 571.36L193.36 571.36L193.36 582.72Q188.48 585.92 182.44 587.64Q176.4 589.36 169.12 589.36M222.72 589.36L222.72 589.36Q214.48 589.36 208.32 587.28Q202.16 585.2 198.72 581.32Q195.28 577.44 195.04 572.16L195.04 572.16L212.8 572.16Q213.12 574.64 215.72 576Q218.32 577.36 222.72 577.36L222.72 577.36Q226.88 577.36 229.16 576.32Q231.44 575.28 231.44 573.2L231.44 573.2Q231.44 571.28 229.44 570.48Q227.44 569.68 222.88 569.68L222.88 569.68L215.2 569.68L215.2 560.32L222.72 560.32Q226.64 560.32 228.52 559.36Q230.4 558.4 230.4 556.64L230.4 556.64Q230.4 554.8 228.36 553.8Q226.32 552.8 222.64 552.8L222.64 552.8Q218.56 552.8 216.2 554.04Q213.84 555.28 213.44 557.68L213.44 557.68L195.92 557.68Q196.16 553.04 199.36 549.2Q202.56 545.36 208.64 543.08Q214.72 540.8 223.36 540.8L223.36 540.8Q230.96 540.8 236.68 542.48Q242.4 544.16 245.6 547.2Q248.8 550.24 248.8 554.16L248.8 554.16Q248.8 557.12 246.96 559.68Q245.12 562.24 240.76 563.8Q236.4 565.36 228.96 565.28L228.96 565.28L228.96 563.92Q239.2 563.52 244.56 566.12Q249.92 568.72 249.92 574.56L249.92 574.56Q249.92 578.72 246.72 582.08Q243.52 585.44 237.44 587.4Q231.36 589.36 222.72 589.36M286.64 588L269.44 588L269.44 542.16L297.04 542.16L309.52 577.76L304.88 577.76L317.12 542.16L344.72 542.16L344.72 588L327.52 588L327.52 549.2L330.24 549.2L315.36 588L298.88 588L284 549.36L286.64 549.28L286.64 588M377.68 589.36L377.68 589.36Q368.8 589.36 362.08 586.32Q355.36 583.28 351.6 577.8Q347.84 572.32 347.84 565.12L347.84 565.12Q347.84 557.76 351.6 552.28Q355.36 546.8 362.08 543.8Q368.8 540.8 377.76 540.8L377.76 540.8Q386.64 540.8 393.36 543.8Q400.08 546.8 403.8 552.28Q407.52 557.76 407.52 565.12L407.52 565.12Q407.52 572.32 403.8 577.8Q400.08 583.28 393.36 586.32Q386.64 589.36 377.68 589.36M377.76 575.92L377.76 575.92Q381.36 575.92 383.88 574.64Q386.4 573.36 387.72 570.92Q389.04 568.48 389.04 565.12L389.04 565.12Q389.04 561.68 387.72 559.24Q386.4 556.8 383.88 555.52Q381.36 554.24 377.76 554.24L377.76 554.24Q374.16 554.24 371.6 555.52Q369.04 556.8 367.72 559.24Q366.4 561.68 366.4 565.04L366.4 565.04Q366.4 568.48 367.72 570.92Q369.04 573.36 371.6 574.64Q374.16 575.92 377.76 575.92M410.72 588L410.72 542.16L429.04 542.16L429.04 588L410.72 588M448.4 588L448.4 542.16L466.72 542.16L466.72 588L448.4 588M421.28 571.28L421.28 557.68L455.2 557.68L455.2 571.28L421.28 571.28M485.76 588L485.76 548.48L504.08 548.48L504.08 588L485.76 588M468.88 555.84L468.88 542.16L520.96 542.16L520.96 555.84L468.88 555.84M582.96 588L563.92 588L561.76 571.68L564 565.12L561.76 558.64L563.92 542.16L582.96 542.16L579.92 565.04L582.96 588M568 565.12L568 565.12Q567.04 572.4 563.8 577.88Q560.56 583.36 555.48 586.36Q550.4 589.36 543.84 589.36L543.84 589.36Q537.2 589.36 532.08 586.32Q526.96 583.28 524.12 577.8Q521.28 572.32 521.28 565.12L521.28 565.12Q521.28 557.76 524.12 552.28Q526.96 546.8 532.08 543.8Q537.2 540.8 543.84 540.8L543.84 540.8Q550.4 540.8 555.48 543.76Q560.56 546.72 563.84 552.2Q567.12 557.68 568 565.12M539.76 565.12L539.76 565.12Q539.76 568.16 541 570.48Q542.24 572.8 544.48 574.16Q546.72 575.52 549.6 575.52L549.6 575.52Q552.56 575.52 555.28 574.16Q558 572.8 560.08 570.48Q562.16 568.16 563.12 565.12L563.12 565.12Q562.16 562.08 560.08 559.72Q558 557.36 555.28 556Q552.56 554.64 549.6 554.64L549.6 554.64Q546.72 554.64 544.48 556Q542.24 557.36 541 559.72Q539.76 562.08 539.76 565.12M603.36 588L582.4 588L601.52 556.4L615.44 565.76L603.36 588M678.4 588L657.36 588L645.36 565.76L659.2 556.4L678.4 588M639.44 542.16L639.44 573.12L634.4 571.44L656.56 542.16L677.2 542.16L637.28 588L623.44 588L583.6 542.16L604.16 542.16L626.4 571.44L621.36 573.12L621.36 542.16L639.44 542.16M738.88 588L719.84 588L717.68 571.68L719.92 565.12L717.68 558.64L719.84 542.16L738.88 542.16L735.84 565.04L738.88 588M723.92 565.12L723.92 565.12Q722.96 572.4 719.72 577.88Q716.48 583.36 711.4 586.36Q706.32 589.36 699.76 589.36L699.76 589.36Q693.12 589.36 688 586.32Q682.88 583.28 680.04 577.8Q677.2 572.32 677.2 565.12L677.2 565.12Q677.2 557.76 680.04 552.28Q682.88 546.8 688 543.8Q693.12 540.8 699.76 540.8L699.76 540.8Q706.32 540.8 711.4 543.76Q716.48 546.72 719.76 552.2Q723.04 557.68 723.92 565.12M695.68 565.12L695.68 565.12Q695.68 568.16 696.92 570.48Q698.16 572.8 700.4 574.16Q702.64 575.52 705.52 575.52L705.52 575.52Q708.48 575.52 711.2 574.16Q713.92 572.8 716 570.48Q718.08 568.16 719.04 565.12L719.04 565.12Q718.08 562.08 716 559.72Q713.92 557.36 711.2 556Q708.48 554.64 705.52 554.64L705.52 554.64Q702.64 554.64 700.4 556Q698.16 557.36 696.92 559.72Q695.68 562.08 695.68 565.12" fill="#FFD21E"><title>без монтажа</title></path>
<g transform="translate(76,870)" filter="url(#dropSoft)"><rect width="220.97" height="78" rx="39" fill="#161512"/><path d="M44.62 32.37L44.62 32.37L63.22 32.37L63.22 49.5L57.07 49.5L57.07 34.11L59.89 36.93L47.68 36.93L50.26 34.56Q50.44 36.33 50.53 37.77Q50.62 39.21 50.62 40.35L50.62 40.35Q50.62 45.39 49.08 47.63Q47.53 49.86 44.08 49.86L44.08 49.86Q43.06 49.86 42.16 49.65Q41.26 49.44 40.39 48.96L40.39 48.96L40.39 44.61Q40.93 44.82 41.46 44.93Q41.98 45.03 42.4 45.03L42.4 45.03Q43.87 45.03 44.47 43.74Q45.07 42.45 45.07 39.51L45.07 39.51Q45.07 38.1 44.97 36.32Q44.86 34.53 44.62 32.37M73.93 49.5L66.28 49.5L66.28 32.37L72.34 32.37L72.34 46.17L71.02 45.75L79.99 32.37L87.85 32.37L87.85 49.5L81.82 49.5L81.82 35.31L83.14 35.76L73.93 49.5M105.28 42.27L111.37 42.27Q111.13 44.58 109.69 46.32Q108.25 48.06 105.95 49.02Q103.66 49.98 100.81 49.98L100.81 49.98Q97.66 49.98 95.26 48.84Q92.86 47.7 91.51 45.66Q90.16 43.62 90.16 40.95L90.16 40.95Q90.16 38.25 91.51 36.21Q92.86 34.17 95.26 33.02Q97.66 31.86 100.81 31.86L100.81 31.86Q103.66 31.86 105.95 32.84Q108.25 33.81 109.69 35.53Q111.13 37.26 111.37 39.6L111.37 39.6L105.28 39.6Q104.95 38.07 103.75 37.25Q102.55 36.42 100.81 36.42L100.81 36.42Q99.46 36.42 98.45 36.95Q97.45 37.47 96.9 38.48Q96.34 39.48 96.34 40.95L96.34 40.95Q96.34 42.39 96.9 43.4Q97.45 44.4 98.45 44.93Q99.46 45.45 100.81 45.45L100.81 45.45Q102.55 45.45 103.76 44.58Q104.98 43.71 105.28 42.27L105.28 42.27M118.75 49.5L118.75 34.47L124.9 34.47L124.9 49.5L118.75 49.5M112.24 36.99L112.24 32.37L131.41 32.37L131.41 36.99L112.24 36.99M155.05 49.5L148.69 49.5L147.91 43.32L148.72 40.95L147.91 38.58L148.69 32.37L155.05 32.37L153.97 40.92L155.05 49.5M150.13 40.95L150.13 40.95Q149.71 43.65 148.46 45.69Q147.22 47.73 145.31 48.86Q143.41 49.98 140.98 49.98L140.98 49.98Q138.46 49.98 136.55 48.86Q134.65 47.73 133.57 45.68Q132.49 43.62 132.49 40.95L132.49 40.95Q132.49 38.22 133.57 36.18Q134.65 34.14 136.55 33Q138.46 31.86 140.98 31.86L140.98 31.86Q143.41 31.86 145.31 32.99Q147.22 34.11 148.48 36.14Q149.74 38.16 150.13 40.95M138.7 40.95L138.7 40.95Q138.7 42.21 139.22 43.2Q139.75 44.19 140.68 44.75Q141.61 45.3 142.81 45.3L142.81 45.3Q144.07 45.3 145.18 44.75Q146.29 44.19 147.13 43.2Q147.97 42.21 148.39 40.95L148.39 40.95Q147.97 39.66 147.13 38.67Q146.29 37.68 145.18 37.11Q144.07 36.54 142.81 36.54L142.81 36.54Q141.61 36.54 140.68 37.11Q139.75 37.68 139.22 38.67Q138.7 39.66 138.7 40.95M165.34 49.5L157.69 49.5L157.69 32.37L163.75 32.37L163.75 46.17L162.43 45.75L171.4 32.37L179.26 32.37L179.26 49.5L173.23 49.5L173.23 35.31L174.55 35.76L165.34 49.5M168.31 30.93L168.31 30.93Q165.16 30.93 163.27 29.42Q161.38 27.9 160.93 25.05L160.93 25.05L165.61 25.05Q165.85 26.22 166.54 26.85Q167.23 27.48 168.31 27.48L168.31 27.48Q169.39 27.48 170.08 26.85Q170.77 26.22 170.98 25.05L170.98 25.05L175.69 25.05Q175.24 27.9 173.33 29.42Q171.43 30.93 168.31 30.93" fill="#FFD21E"><title>листай</title></path></g>
<path d="M322.97 909 h40 M344.97 897.8 L362.97 909 L344.97 920.2"
     stroke="#161512" stroke-width="5.2" fill="none" stroke-linecap="round" stroke-linejoin="round"/>
</svg>
