<svg width="1080" height="1080" viewBox="0 0 1080 1080" xmlns="http://www.w3.org/2000/svg" role="img" aria-label="Monty — How I make a reel no editing">
<defs>
  <filter id="grain" x="0" y="0" width="100%" height="100%">
    <feTurbulence type="fractalNoise" baseFrequency="0.9" numOctaves="3" seed="7" result="n"/>
    <feColorMatrix in="n" type="saturate" values="0"/>
  </filter>
  <filter id="drop" x="-40%" y="-40%" width="180%" height="200%">
    <feDropShadow dx="0" dy="10" stdDeviation="16" flood-color="#000000" flood-opacity="0.45"/>
  </filter>
  <filter id="dropSoft" x="-40%" y="-40%" width="180%" height="200%">
    <feDropShadow dx="0" dy="6" stdDeviation="9" flood-color="#000000" flood-opacity="0.22"/>
  </filter>
  <linearGradient id="screenGrad" x1="0" y1="0" x2="1" y2="1">
    <stop offset="0" stop-color="#2A1E5C"/><stop offset="0.5" stop-color="#161512"/><stop offset="1" stop-color="#0B0A09"/>
  </linearGradient>
  <linearGradient id="neonGrad" x1="0" y1="0" x2="1" y2="0">
    <stop offset="0" stop-color="#6C4DF6"/><stop offset="1" stop-color="#FFD21E"/>
  </linearGradient></defs>
<rect width="1080" height="1080" fill="#FFD21E"/>
<circle cx="928.8" cy="129.6" r="302.40000000000003" fill="#161512" opacity="0.06"/>
<circle cx="108" cy="993.6" r="324" fill="#161512" opacity="0.05"/>
<rect width="1080" height="1080" filter="url(#grain)" opacity="0.05"/>
<g transform="translate(76,66) scale(0.359375)">
    <circle cx="30" cy="52" r="19" fill="#161512"/><circle cx="98" cy="52" r="19" fill="#161512"/>
    <circle cx="30" cy="52" r="9" fill="#FFD21E"/><circle cx="98" cy="52" r="9" fill="#FFD21E"/>
    <rect x="28" y="26" width="72" height="80" rx="36" fill="#161512"/>
    <circle cx="64" cy="70" r="30" fill="#FFD21E"/>
    <path d="M57 55 L57 85 L84 70 Z" fill="#FFD21E" stroke="#FFD21E" stroke-width="5" stroke-linejoin="round"/>
  </g><path d="M137.11 102.34L132.13 102.34L132.13 82.72L137.03 82.72L137.03 84.85L137.75 84.85Q138.26 83.87 139.45 83.13Q140.63 82.4 142.57 82.4L142.57 82.4Q144.67 82.4 145.94 83.21Q147.2 84.02 147.87 85.33L147.87 85.33L148.59 85.33Q149.26 84.06 150.49 83.23Q151.71 82.4 153.97 82.4L153.97 82.4Q155.79 82.4 157.27 83.17Q158.75 83.94 159.64 85.51Q160.53 87.07 160.53 89.44L160.53 89.44L160.53 102.34L155.55 102.34L155.55 89.8Q155.55 88.18 154.72 87.37Q153.89 86.56 152.38 86.56L152.38 86.56Q150.68 86.56 149.75 87.64Q148.82 88.73 148.82 90.75L148.82 90.75L148.82 102.34L143.84 102.34L143.84 89.8Q143.84 88.18 143.01 87.37Q142.18 86.56 140.67 86.56L140.67 86.56Q138.97 86.56 138.04 87.64Q137.11 88.73 137.11 90.75L137.11 90.75L137.11 102.34M174.06 102.89L174.06 102.89Q171.14 102.89 168.8 101.71Q166.47 100.52 165.12 98.27Q163.78 96.01 163.78 92.85L163.78 92.85L163.78 92.21Q163.78 89.05 165.12 86.79Q166.47 84.54 168.8 83.35Q171.14 82.16 174.06 82.16L174.06 82.16Q176.99 82.16 179.32 83.35Q181.66 84.54 183 86.79Q184.35 89.05 184.35 92.21L184.35 92.21L184.35 92.85Q184.35 96.01 183 98.27Q181.66 100.52 179.32 101.71Q176.99 102.89 174.06 102.89M174.06 98.46L174.06 98.46Q176.36 98.46 177.86 96.98Q179.36 95.5 179.36 92.73L179.36 92.73L179.36 92.33Q179.36 89.56 177.88 88.08Q176.4 86.6 174.06 86.6L174.06 86.6Q171.77 86.6 170.27 88.08Q168.76 89.56 168.76 92.33L168.76 92.33L168.76 92.73Q168.76 95.5 170.27 96.98Q171.77 98.46 174.06 98.46M192.74 102.34L187.75 102.34L187.75 82.72L192.66 82.72L192.66 85.29L193.37 85.29Q193.84 84.26 195.15 83.33Q196.45 82.4 199.1 82.4L199.1 82.4Q201.4 82.4 203.12 83.45Q204.84 84.5 205.79 86.34Q206.74 88.18 206.74 90.63L206.74 90.63L206.74 102.34L201.75 102.34L201.75 91.03Q201.75 88.81 200.67 87.7Q199.58 86.6 197.56 86.6L197.56 86.6Q195.27 86.6 194 88.12Q192.74 89.64 192.74 92.37L192.74 92.37L192.74 102.34M223.43 102.34L217.9 102.34Q215.96 102.34 214.75 101.13Q213.54 99.93 213.54 97.91L213.54 97.91L213.54 86.83L208.64 86.83L208.64 82.72L213.54 82.72L213.54 76.63L218.53 76.63L218.53 82.72L223.91 82.72L223.91 86.83L218.53 86.83L218.53 97.04Q218.53 98.23 219.64 98.23L219.64 98.23L223.43 98.23L223.43 102.34M241.71 110.25L229.37 110.25L229.37 105.9L240.05 105.9Q241.16 105.9 241.16 104.71L241.16 104.71L241.16 99.77L240.44 99.77Q240.13 100.44 239.46 101.11Q238.78 101.79 237.64 102.22Q236.49 102.66 234.71 102.66L234.71 102.66Q232.41 102.66 230.69 101.61Q228.97 100.56 228.02 98.7Q227.07 96.84 227.07 94.43L227.07 94.43L227.07 82.72L232.06 82.72L232.06 94.03Q232.06 96.25 233.15 97.36Q234.23 98.46 236.25 98.46L236.25 98.46Q238.55 98.46 239.81 96.94Q241.08 95.42 241.08 92.69L241.08 92.69L241.08 82.72L246.06 82.72L246.06 105.82Q246.06 107.84 244.88 109.05Q243.69 110.25 241.71 110.25L241.71 110.25" fill="#161512"><title>monty</title></path>
<path d="M80.94 400L80.94 343L98.65 343L98.65 400L80.94 400M125.32 400L125.32 343L143.03 343L143.03 400L125.32 400M90.9 378.8L90.9 363.14L132.47 363.14L132.47 378.8L90.9 378.8M175.33 401.29L175.33 401.29Q166.9 401.29 160.51 398.4Q154.13 395.52 150.56 390.31Q146.98 385.1 146.98 378.26L146.98 378.26Q146.98 371.27 150.56 366.07Q154.13 360.86 160.51 358.01Q166.9 355.16 175.41 355.16L175.41 355.16Q183.84 355.16 190.23 358.01Q196.61 360.86 200.15 366.07Q203.68 371.27 203.68 378.26L203.68 378.26Q203.68 385.1 200.15 390.31Q196.61 395.52 190.23 398.4Q183.84 401.29 175.33 401.29M175.41 388.52L175.41 388.52Q178.83 388.52 181.22 387.31Q183.62 386.09 184.87 383.77Q186.12 381.46 186.12 378.26L186.12 378.26Q186.12 375 184.87 372.68Q183.62 370.36 181.22 369.14Q178.83 367.93 175.41 367.93L175.41 367.93Q171.99 367.93 169.56 369.14Q167.12 370.36 165.87 372.68Q164.62 375 164.62 378.19L164.62 378.19Q164.62 381.46 165.87 383.77Q167.12 386.09 169.56 387.31Q171.99 388.52 175.41 388.52M254.9 356.45L266.99 390.04L261.74 390.04L273.14 356.45L290.55 356.45L274.66 400L256.88 400L243.81 364.81L249.51 364.81L236.36 400L218.58 400L202.69 356.45L220.17 356.45L231.57 390.04L226.25 390.04L238.41 356.45L254.9 356.45M307.72 400L307.72 343L325.43 343L325.43 400L307.72 400M347.47 371.8L344.51 356.45L361.91 356.45L364.88 374.46L364.88 400L347.47 400L347.47 371.8M379.54 355.16L379.54 355.16Q385.62 355.16 389.88 357.67Q394.14 360.18 396.38 364.77Q398.62 369.37 398.62 375.53L398.62 375.53L398.62 400L381.22 400L381.22 378.04Q381.22 373.78 379.2 371.5Q377.19 369.22 373.46 369.22L373.46 369.22Q370.8 369.22 368.87 370.44Q366.93 371.65 365.9 373.86Q364.88 376.06 364.88 379.18L364.88 379.18L359.63 376.44Q360.62 369.37 363.47 364.66Q366.32 359.95 370.5 357.55Q374.68 355.16 379.54 355.16M413.21 355.16L413.21 355.16Q419.29 355.16 423.59 357.67Q427.88 360.18 430.12 364.77Q432.36 369.37 432.36 375.53L432.36 375.53L432.36 400L414.96 400L414.96 378.04Q414.96 373.78 412.95 371.5Q410.93 369.22 407.21 369.22L407.21 369.22Q404.55 369.22 402.61 370.44Q400.67 371.65 399.65 373.86Q398.62 376.06 398.62 379.18L398.62 379.18L393.38 376.44Q394.36 369.37 397.21 364.66Q400.06 359.95 404.21 357.55Q408.35 355.16 413.21 355.16M493.62 400L475.53 400L473.48 384.5L475.61 378.26L473.48 372.11L475.53 356.45L493.62 356.45L490.73 378.19L493.62 400M479.41 378.26L479.41 378.26Q478.5 385.18 475.42 390.39Q472.34 395.59 467.51 398.44Q462.69 401.29 456.46 401.29L456.46 401.29Q450.15 401.29 445.28 398.4Q440.42 395.52 437.72 390.31Q435.02 385.1 435.02 378.26L435.02 378.26Q435.02 371.27 437.72 366.07Q440.42 360.86 445.28 358.01Q450.15 355.16 456.46 355.16L456.46 355.16Q462.69 355.16 467.51 357.97Q472.34 360.78 475.46 365.99Q478.57 371.2 479.41 378.26M452.58 378.26L452.58 378.26Q452.58 381.15 453.76 383.36Q454.94 385.56 457.06 386.85Q459.19 388.14 461.93 388.14L461.93 388.14Q464.74 388.14 467.32 386.85Q469.91 385.56 471.88 383.36Q473.86 381.15 474.77 378.26L474.77 378.26Q473.86 375.38 471.88 373.13Q469.91 370.89 467.32 369.6Q464.74 368.31 461.93 368.31L461.93 368.31Q459.19 368.31 457.06 369.6Q454.94 370.89 453.76 373.13Q452.58 375.38 452.58 378.26M514.82 341.48L514.82 386.32L510.11 384.72L533.06 356.45L551 356.45L512.92 400L497.42 400L497.42 341.48L514.82 341.48M532.68 400L520.68 378.87L533.98 369.98L552.14 400L532.68 400M578.44 401.29L578.44 401.29Q570.38 401.29 564.07 398.4Q557.76 395.52 554.12 390.27Q550.47 385.03 550.47 378.04L550.47 378.04Q550.47 371.2 554 366.03Q557.54 360.86 563.65 358.01Q569.77 355.16 577.37 355.16L577.37 355.16Q585.35 355.16 590.98 358.54Q596.6 361.92 599.6 368.19Q602.6 374.46 602.6 382.98L602.6 382.98L564.68 382.98L564.68 373.02L592.57 373.02L587.48 376.44Q587.18 373.48 585.96 371.39Q584.74 369.3 582.73 368.23Q580.72 367.17 577.98 367.17L577.98 367.17Q574.86 367.17 572.66 368.38Q570.46 369.6 569.28 371.77Q568.1 373.93 568.1 376.67L568.1 376.67Q568.1 380.54 569.81 383.2Q571.52 385.86 575.02 387.27Q578.51 388.68 583.68 388.68L583.68 388.68Q588.39 388.68 593.03 387.54Q597.66 386.4 601.46 384.19L601.46 384.19L601.46 394.98Q596.83 398.02 591.09 399.66Q585.35 401.29 578.44 401.29M678 400L659.91 400L657.86 384.5L659.98 378.26L657.86 372.11L659.91 356.45L678 356.45L675.11 378.19L678 400M663.78 378.26L663.78 378.26Q662.87 385.18 659.79 390.39Q656.72 395.59 651.89 398.44Q647.06 401.29 640.83 401.29L640.83 401.29Q634.52 401.29 629.66 398.4Q624.8 395.52 622.1 390.31Q619.4 385.1 619.4 378.26L619.4 378.26Q619.4 371.27 622.1 366.07Q624.8 360.86 629.66 358.01Q634.52 355.16 640.83 355.16L640.83 355.16Q647.06 355.16 651.89 357.97Q656.72 360.78 659.83 365.99Q662.95 371.2 663.78 378.26M636.96 378.26L636.96 378.26Q636.96 381.15 638.13 383.36Q639.31 385.56 641.44 386.85Q643.57 388.14 646.3 388.14L646.3 388.14Q649.12 388.14 651.7 386.85Q654.28 385.56 656.26 383.36Q658.24 381.15 659.15 378.26L659.15 378.26Q658.24 375.38 656.26 373.13Q654.28 370.89 651.7 369.6Q649.12 368.31 646.3 368.31L646.3 368.31Q643.57 368.31 641.44 369.6Q639.31 370.89 638.13 373.13Q636.96 375.38 636.96 378.26M698.06 371.35L695.1 356.45L712.88 356.45L715.46 371.88L715.46 400L698.06 400L698.06 371.35M735.3 355.62L735.3 355.62L735.3 370.44Q732.87 369.98 730.85 369.79Q728.84 369.6 727.17 369.6L727.17 369.6Q724.05 369.6 721.39 370.78Q718.73 371.96 717.1 374.81Q715.46 377.66 715.46 382.67L715.46 382.67L712.27 378.72Q712.96 374.01 714.13 369.79Q715.31 365.57 717.36 362.27Q719.42 358.96 722.49 357.06Q725.57 355.16 730.06 355.16L730.06 355.16Q731.27 355.16 732.56 355.27Q733.86 355.39 735.3 355.62M763.42 401.29L763.42 401.29Q755.36 401.29 749.06 398.4Q742.75 395.52 739.1 390.27Q735.45 385.03 735.45 378.04L735.45 378.04Q735.45 371.2 738.99 366.03Q742.52 360.86 748.64 358.01Q754.76 355.16 762.36 355.16L762.36 355.16Q770.34 355.16 775.96 358.54Q781.58 361.92 784.59 368.19Q787.59 374.46 787.59 382.98L787.59 382.98L749.66 382.98L749.66 373.02L777.56 373.02L772.46 376.44Q772.16 373.48 770.94 371.39Q769.73 369.3 767.71 368.23Q765.7 367.17 762.96 367.17L762.96 367.17Q759.85 367.17 757.64 368.38Q755.44 369.6 754.26 371.77Q753.08 373.93 753.08 376.67L753.08 376.67Q753.08 380.54 754.79 383.2Q756.5 385.86 760 387.27Q763.5 388.68 768.66 388.68L768.66 388.68Q773.38 388.68 778.01 387.54Q782.65 386.4 786.45 384.19L786.45 384.19L786.45 394.98Q781.81 398.02 776.07 399.66Q770.34 401.29 763.42 401.29M816.77 401.29L816.77 401.29Q808.72 401.29 802.41 398.4Q796.1 395.52 792.45 390.27Q788.8 385.03 788.8 378.04L788.8 378.04Q788.8 371.2 792.34 366.03Q795.87 360.86 801.99 358.01Q808.11 355.16 815.71 355.16L815.71 355.16Q823.69 355.16 829.31 358.54Q834.94 361.92 837.94 368.19Q840.94 374.46 840.94 382.98L840.94 382.98L803.02 382.98L803.02 373.02L830.91 373.02L825.82 376.44Q825.51 373.48 824.3 371.39Q823.08 369.3 821.07 368.23Q819.05 367.17 816.32 367.17L816.32 367.17Q813.2 367.17 811 368.38Q808.79 369.6 807.61 371.77Q806.44 373.93 806.44 376.67L806.44 376.67Q806.44 380.54 808.15 383.2Q809.86 385.86 813.35 387.27Q816.85 388.68 822.02 388.68L822.02 388.68Q826.73 388.68 831.36 387.54Q836 386.4 839.8 384.19L839.8 384.19L839.8 394.98Q835.16 398.02 829.43 399.66Q823.69 401.29 816.77 401.29M844.06 400L844.06 341.48L861.46 341.48L861.46 400L844.06 400" fill="#161512"><title>How I make a reel</title></path>
<path d="M79.95 492L79.95 447.62L88.69 449.44L97.36 447.62L97.36 492L79.95 492M88.69 444.73L88.69 444.73Q84.28 444.73 81.55 442.52Q78.81 440.32 78.81 436.6L78.81 436.6Q78.81 432.8 81.55 430.59Q84.28 428.39 88.69 428.39L88.69 428.39Q93.25 428.39 95.95 430.59Q98.65 432.8 98.65 436.6L98.65 436.6Q98.65 440.32 95.95 442.52Q93.25 444.73 88.69 444.73M103.21 463.8L100.24 448.45L117.65 448.45L120.61 466.46L120.61 492L103.21 492L103.21 463.8M136.12 447.16L136.12 447.16Q142.5 447.16 146.91 449.67Q151.32 452.18 153.71 456.77Q156.1 461.37 156.1 467.53L156.1 467.53L156.1 492L138.62 492L138.62 470.04Q138.62 465.78 136.38 463.5Q134.14 461.22 130.04 461.22L130.04 461.22Q127.15 461.22 125.02 462.44Q122.89 463.65 121.75 465.86Q120.61 468.06 120.61 471.18L120.61 471.18L115.37 468.44Q116.36 461.37 119.36 456.66Q122.36 451.95 126.69 449.55Q131.02 447.16 136.12 447.16M232.71 492L214.62 492L212.57 476.5L214.7 470.26L212.57 464.11L214.62 448.45L232.71 448.45L229.82 470.19L232.71 492M218.5 470.26L218.5 470.26Q217.59 477.18 214.51 482.39Q211.43 487.59 206.61 490.44Q201.78 493.29 195.55 493.29L195.55 493.29Q189.24 493.29 184.38 490.4Q179.51 487.52 176.81 482.31Q174.12 477.1 174.12 470.26L174.12 470.26Q174.12 463.27 176.81 458.07Q179.51 452.86 184.38 450.01Q189.24 447.16 195.55 447.16L195.55 447.16Q201.78 447.16 206.61 449.97Q211.43 452.78 214.55 457.99Q217.66 463.2 218.5 470.26M191.67 470.26L191.67 470.26Q191.67 473.15 192.85 475.36Q194.03 477.56 196.16 478.85Q198.28 480.14 201.02 480.14L201.02 480.14Q203.83 480.14 206.42 478.85Q209 477.56 210.98 475.36Q212.95 473.15 213.86 470.26L213.86 470.26Q212.95 467.38 210.98 465.13Q209 462.89 206.42 461.6Q203.83 460.31 201.02 460.31L201.02 460.31Q198.28 460.31 196.16 461.6Q194.03 462.89 192.85 465.13Q191.67 467.38 191.67 470.26M252.78 463.8L249.81 448.45L267.22 448.45L270.18 466.46L270.18 492L252.78 492L252.78 463.8M284.85 447.16L284.85 447.16Q290.93 447.16 295.18 449.67Q299.44 452.18 301.68 456.77Q303.92 461.37 303.92 467.53L303.92 467.53L303.92 492L286.52 492L286.52 470.04Q286.52 465.78 284.51 463.5Q282.49 461.22 278.77 461.22L278.77 461.22Q276.11 461.22 274.17 462.44Q272.23 463.65 271.21 465.86Q270.18 468.06 270.18 471.18L270.18 471.18L264.94 468.44Q265.92 461.37 268.77 456.66Q271.62 451.95 275.8 449.55Q279.98 447.16 284.85 447.16M318.52 447.16L318.52 447.16Q324.6 447.16 328.89 449.67Q333.18 452.18 335.43 456.77Q337.67 461.37 337.67 467.53L337.67 467.53L337.67 492L320.26 492L320.26 470.04Q320.26 465.78 318.25 463.5Q316.24 461.22 312.51 461.22L312.51 461.22Q309.85 461.22 307.91 462.44Q305.98 463.65 304.95 465.86Q303.92 468.06 303.92 471.18L303.92 471.18L298.68 468.44Q299.67 461.37 302.52 456.66Q305.37 451.95 309.51 449.55Q313.65 447.16 318.52 447.16M342 492L342 447.62L350.74 449.44L359.4 447.62L359.4 492L342 492M350.74 444.73L350.74 444.73Q346.33 444.73 343.6 442.52Q340.86 440.32 340.86 436.6L340.86 436.6Q340.86 432.8 343.6 430.59Q346.33 428.39 350.74 428.39L350.74 428.39Q355.3 428.39 358 430.59Q360.7 432.8 360.7 436.6L360.7 436.6Q360.7 440.32 358 442.52Q355.3 444.73 350.74 444.73M365.26 463.8L362.29 448.45L379.7 448.45L382.66 466.46L382.66 492L365.26 492L365.26 463.8M398.16 447.16L398.16 447.16Q404.55 447.16 408.96 449.67Q413.36 452.18 415.76 456.77Q418.15 461.37 418.15 467.53L418.15 467.53L418.15 492L400.67 492L400.67 470.04Q400.67 465.78 398.43 463.5Q396.19 461.22 392.08 461.22L392.08 461.22Q389.2 461.22 387.07 462.44Q384.94 463.65 383.8 465.86Q382.66 468.06 382.66 471.18L382.66 471.18L377.42 468.44Q378.4 461.37 381.41 456.66Q384.41 451.95 388.74 449.55Q393.07 447.16 398.16 447.16M441.33 493.22L441.33 493.22Q435.25 493.22 430.88 490.71Q426.51 488.2 424.23 483.6Q421.95 479 421.95 472.92L421.95 472.92L421.95 448.45L439.36 448.45L439.36 470.42Q439.36 474.6 441.48 476.88Q443.61 479.16 447.49 479.16L447.49 479.16Q450.45 479.16 452.43 478.02Q454.4 476.88 455.43 474.67Q456.46 472.47 456.46 469.28L456.46 469.28L461.7 472.01Q460.79 478.93 457.82 483.68Q454.86 488.43 450.64 490.82Q446.42 493.22 441.33 493.22M476.82 492L459.34 492L456.46 473.99L456.46 448.45L473.86 448.45L473.86 476.65L476.82 492M484.8 461.22L476.14 461.22L476.14 453.7L484.8 449.74L492.4 436.67L502.28 436.67L502.28 448.45L519.92 448.45L519.92 461.22L502.28 461.22L502.28 472.09Q502.28 476.5 503.99 478.32Q505.7 480.14 510.72 480.14L510.72 480.14Q513.84 480.14 516.27 479.65Q518.7 479.16 520.68 478.4L520.68 478.4L520.68 491.24Q518.24 492 514.52 492.65Q510.8 493.29 506.69 493.29L506.69 493.29Q499.24 493.29 494.42 491.01Q489.59 488.73 487.2 484.48Q484.8 480.22 484.8 474.44L484.8 474.44L484.8 461.22M549.71 493.29L549.71 493.29Q541.65 493.29 535.34 490.4Q529.04 487.52 525.39 482.27Q521.74 477.03 521.74 470.04L521.74 470.04Q521.74 463.2 525.27 458.03Q528.81 452.86 534.93 450.01Q541.04 447.16 548.64 447.16L548.64 447.16Q556.62 447.16 562.25 450.54Q567.87 453.92 570.87 460.19Q573.88 466.46 573.88 474.98L573.88 474.98L535.95 474.98L535.95 465.02L563.84 465.02L558.75 468.44Q558.45 465.48 557.23 463.39Q556.02 461.3 554 460.23Q551.99 459.17 549.25 459.17L549.25 459.17Q546.14 459.17 543.93 460.38Q541.73 461.6 540.55 463.77Q539.37 465.93 539.37 468.67L539.37 468.67Q539.37 472.54 541.08 475.2Q542.79 477.86 546.29 479.27Q549.78 480.68 554.95 480.68L554.95 480.68Q559.66 480.68 564.3 479.54Q568.94 478.4 572.74 476.19L572.74 476.19L572.74 486.98Q568.1 490.02 562.36 491.66Q556.62 493.29 549.71 493.29" fill="#161512"><title>in a minute</title></path>
<rect x="58" y="514.4" width="519.1199999999999" height="107.2" rx="20" fill="#161512"/>
<path d="M81.12 558.32L78 542.16L96.32 542.16L99.44 561.12L99.44 588L81.12 588L81.12 558.32M115.76 540.8L115.76 540.8Q122.48 540.8 127.12 543.44Q131.76 546.08 134.28 550.92Q136.8 555.76 136.8 562.24L136.8 562.24L136.8 588L118.4 588L118.4 564.88Q118.4 560.4 116.04 558Q113.68 555.6 109.36 555.6L109.36 555.6Q106.32 555.6 104.08 556.88Q101.84 558.16 100.64 560.48Q99.44 562.8 99.44 566.08L99.44 566.08L93.92 563.2Q94.96 555.76 98.12 550.8Q101.28 545.84 105.84 543.32Q110.4 540.8 115.76 540.8M169.2 589.36L169.2 589.36Q160.32 589.36 153.6 586.32Q146.88 583.28 143.12 577.8Q139.36 572.32 139.36 565.12L139.36 565.12Q139.36 557.76 143.12 552.28Q146.88 546.8 153.6 543.8Q160.32 540.8 169.28 540.8L169.28 540.8Q178.16 540.8 184.88 543.8Q191.6 546.8 195.32 552.28Q199.04 557.76 199.04 565.12L199.04 565.12Q199.04 572.32 195.32 577.8Q191.6 583.28 184.88 586.32Q178.16 589.36 169.2 589.36M169.28 575.92L169.28 575.92Q172.88 575.92 175.4 574.64Q177.92 573.36 179.24 570.92Q180.56 568.48 180.56 565.12L180.56 565.12Q180.56 561.68 179.24 559.24Q177.92 556.8 175.4 555.52Q172.88 554.24 169.28 554.24L169.28 554.24Q165.68 554.24 163.12 555.52Q160.56 556.8 159.24 559.24Q157.92 561.68 157.92 565.04L157.92 565.04Q157.92 568.48 159.24 570.92Q160.56 573.36 163.12 574.64Q165.68 575.92 169.28 575.92M245.84 589.36L245.84 589.36Q237.36 589.36 230.72 586.32Q224.08 583.28 220.24 577.76Q216.4 572.24 216.4 564.88L216.4 564.88Q216.4 557.68 220.12 552.24Q223.84 546.8 230.28 543.8Q236.72 540.8 244.72 540.8L244.72 540.8Q253.12 540.8 259.04 544.36Q264.96 547.92 268.12 554.52Q271.28 561.12 271.28 570.08L271.28 570.08L231.36 570.08L231.36 559.6L260.72 559.6L255.36 563.2Q255.04 560.08 253.76 557.88Q252.48 555.68 250.36 554.56Q248.24 553.44 245.36 553.44L245.36 553.44Q242.08 553.44 239.76 554.72Q237.44 556 236.2 558.28Q234.96 560.56 234.96 563.44L234.96 563.44Q234.96 567.52 236.76 570.32Q238.56 573.12 242.24 574.6Q245.92 576.08 251.36 576.08L251.36 576.08Q256.32 576.08 261.2 574.88Q266.08 573.68 270.08 571.36L270.08 571.36L270.08 582.72Q265.2 585.92 259.16 587.64Q253.12 589.36 245.84 589.36M334.88 588L315.84 588L313.6 570.88L316.56 565.28L313.6 557.84L317.6 526.4L336.64 526.4L331.76 563.6L334.88 588M319.52 565.12L319.52 565.12Q318.56 572.4 315.32 577.88Q312.08 583.36 307 586.36Q301.92 589.36 295.36 589.36L295.36 589.36Q288.72 589.36 283.6 586.32Q278.48 583.28 275.64 577.8Q272.8 572.32 272.8 565.12L272.8 565.12Q272.8 557.76 275.64 552.28Q278.48 546.8 283.6 543.8Q288.72 540.8 295.36 540.8L295.36 540.8Q301.92 540.8 307 543.76Q312.08 546.72 315.36 552.2Q318.64 557.68 319.52 565.12M291.28 565.12L291.28 565.12Q291.28 568.16 292.52 570.48Q293.76 572.8 296 574.16Q298.24 575.52 301.12 575.52L301.12 575.52Q304.08 575.52 306.8 574.16Q309.52 572.8 311.6 570.48Q313.68 568.16 314.64 565.12L314.64 565.12Q313.68 562.08 311.6 559.72Q309.52 557.36 306.8 556Q304.08 554.64 301.12 554.64L301.12 554.64Q298.24 554.64 296 556Q293.76 557.36 292.52 559.72Q291.28 562.08 291.28 565.12M338.72 588L338.72 541.28L347.92 543.2L357.04 541.28L357.04 588L338.72 588M347.92 538.24L347.92 538.24Q343.28 538.24 340.4 535.92Q337.52 533.6 337.52 529.68L337.52 529.68Q337.52 525.68 340.4 523.36Q343.28 521.04 347.92 521.04L347.92 521.04Q352.72 521.04 355.56 523.36Q358.4 525.68 358.4 529.68L358.4 529.68Q358.4 533.6 355.56 535.92Q352.72 538.24 347.92 538.24M367.68 555.6L358.56 555.6L358.56 547.68L367.68 543.52L375.68 529.76L386.08 529.76L386.08 542.16L404.64 542.16L404.64 555.6L386.08 555.6L386.08 567.04Q386.08 571.68 387.88 573.6Q389.68 575.52 394.96 575.52L394.96 575.52Q398.24 575.52 400.8 575Q403.36 574.48 405.44 573.68L405.44 573.68L405.44 587.2Q402.88 588 398.96 588.68Q395.04 589.36 390.72 589.36L390.72 589.36Q382.88 589.36 377.8 586.96Q372.72 584.56 370.2 580.08Q367.68 575.6 367.68 569.52L367.68 569.52L367.68 555.6M408.56 588L408.56 541.28L417.76 543.2L426.88 541.28L426.88 588L408.56 588M417.76 538.24L417.76 538.24Q413.12 538.24 410.24 535.92Q407.36 533.6 407.36 529.68L407.36 529.68Q407.36 525.68 410.24 523.36Q413.12 521.04 417.76 521.04L417.76 521.04Q422.56 521.04 425.4 523.36Q428.24 525.68 428.24 529.68L428.24 529.68Q428.24 533.6 425.4 535.92Q422.56 538.24 417.76 538.24M433.04 558.32L429.92 542.16L448.24 542.16L451.36 561.12L451.36 588L433.04 588L433.04 558.32M467.68 540.8L467.68 540.8Q474.4 540.8 479.04 543.44Q483.68 546.08 486.2 550.92Q488.72 555.76 488.72 562.24L488.72 562.24L488.72 588L470.32 588L470.32 564.88Q470.32 560.4 467.96 558Q465.6 555.6 461.28 555.6L461.28 555.6Q458.24 555.6 456 556.88Q453.76 558.16 452.56 560.48Q451.36 562.8 451.36 566.08L451.36 566.08L445.84 563.2Q446.88 555.76 450.04 550.8Q453.2 545.84 457.76 543.32Q462.32 540.8 467.68 540.8M532.72 576.4L532.72 576.4L532.72 568.72L533.36 566.64L533.36 554.56L532.72 552.88L532.72 542.16L551.12 542.16L551.12 575.76Q551.12 584.16 547.12 590.16Q543.12 596.16 535.88 599.36Q528.64 602.56 518.8 602.56L518.8 602.56Q512.32 602.56 506.84 600.92Q501.36 599.28 495.84 596L495.84 596L495.84 582.48Q500.8 586.08 506.36 587.8Q511.92 589.52 517.6 589.52L517.6 589.52Q524.96 589.52 528.84 586.48Q532.72 583.44 532.72 576.4M513.84 582.72L513.84 582.72Q507.36 582.72 502.28 580.12Q497.2 577.52 494.28 572.8Q491.36 568.08 491.36 561.76L491.36 561.76Q491.36 555.44 494.28 550.72Q497.2 546 502.28 543.4Q507.36 540.8 513.84 540.8L513.84 540.8Q518.8 540.8 522.8 542.28Q526.8 543.76 529.92 546.24Q533.04 548.72 535.12 551.56Q537.2 554.4 538.28 557.16Q539.36 559.92 539.36 562L539.36 562Q539.36 564.8 537.68 568.36Q536 571.92 532.76 575.2Q529.52 578.48 524.76 580.6Q520 582.72 513.84 582.72M520.24 570.48L520.24 570.48Q524.56 570.48 527.88 568.28Q531.2 566.08 533.36 561.76L533.36 561.76Q531.12 557.36 527.8 555.2Q524.48 553.04 520.24 553.04L520.24 553.04Q517.04 553.04 514.68 554.08Q512.32 555.12 511.04 557.08Q509.76 559.04 509.76 561.76L509.76 561.76Q509.76 564.4 511 566.36Q512.24 568.32 514.6 569.4Q516.96 570.48 520.24 570.48" fill="#FFD21E"><title>no editing</title></path>
<g transform="translate(76,870)" filter="url(#dropSoft)"><rect width="191.41999999999996" height="78" rx="39" fill="#161512"/><path d="M61.54 43.92L61.54 43.92Q61.54 45.9 60.34 47.25Q59.14 48.6 56.92 49.29Q54.7 49.98 51.58 49.98L51.58 49.98Q48.37 49.98 45.95 49.2Q43.54 48.42 42.19 47.01Q40.84 45.6 40.75 43.74L40.75 43.74L46.96 43.74Q47.17 44.43 47.79 44.93Q48.4 45.42 49.42 45.68Q50.44 45.93 51.85 45.93L51.85 45.93Q53.68 45.93 54.62 45.57Q55.57 45.21 55.57 44.49L55.57 44.49Q55.57 43.92 54.85 43.64Q54.13 43.35 52.39 43.2L52.39 43.2L49.36 42.96Q46.33 42.75 44.54 42.05Q42.76 41.34 41.98 40.22Q41.2 39.09 41.2 37.65L41.2 37.65Q41.2 35.7 42.41 34.42Q43.63 33.15 45.8 32.5Q47.98 31.86 50.89 31.86L50.89 31.86Q53.77 31.86 56.02 32.61Q58.27 33.36 59.62 34.7Q60.97 36.03 61.18 37.83L61.18 37.83L54.97 37.83Q54.82 37.26 54.31 36.8Q53.8 36.33 52.9 36.03Q52 35.73 50.59 35.73L50.59 35.73Q48.94 35.73 48.08 36.09Q47.23 36.45 47.23 37.11L47.23 37.11Q47.23 37.62 47.76 37.92Q48.28 38.22 49.72 38.34L49.72 38.34L53.71 38.64Q56.68 38.82 58.39 39.5Q60.1 40.17 60.82 41.28Q61.54 42.39 61.54 43.92M82.21 32.37L87.22 46.05L85.3 46.05L90.16 32.37L96.28 32.37L89.86 49.5L83.62 49.5L78.25 35.28L80.29 35.28L74.86 49.5L68.62 49.5L62.2 32.37L68.38 32.37L73.21 46.05L71.29 46.05L76.36 32.37L82.21 32.37M97.72 49.5L97.72 32.1L100.81 32.7L103.87 32.1L103.87 49.5L97.72 49.5M100.78 30.69L100.78 30.69Q99.19 30.69 98.2 29.9Q97.21 29.1 97.21 27.72L97.21 27.72Q97.21 26.37 98.2 25.56Q99.19 24.75 100.78 24.75L100.78 24.75Q102.43 24.75 103.4 25.56Q104.38 26.37 104.38 27.72L104.38 27.72Q104.38 29.1 103.4 29.9Q102.43 30.69 100.78 30.69M106.93 54.45L106.93 32.37L113.08 32.37L113.08 37.29L112.81 38.01L112.81 42.81L113.08 44.22L113.08 54.45L106.93 54.45M111.13 40.95L111.13 40.95Q111.52 38.16 112.76 36.14Q114.01 34.11 115.93 32.99Q117.85 31.86 120.28 31.86L120.28 31.86Q122.8 31.86 124.7 33Q126.61 34.14 127.67 36.18Q128.74 38.22 128.74 40.95L128.74 40.95Q128.74 43.62 127.67 45.68Q126.61 47.73 124.7 48.86Q122.8 49.98 120.28 49.98L120.28 49.98Q117.85 49.98 115.93 48.86Q114.01 47.73 112.78 45.69Q111.55 43.65 111.13 40.95M122.56 40.95L122.56 40.95Q122.56 39.66 122.03 38.67Q121.51 37.68 120.56 37.11Q119.62 36.54 118.42 36.54L118.42 36.54Q117.19 36.54 116.08 37.11Q114.97 37.68 114.13 38.67Q113.29 39.66 112.84 40.95L112.84 40.95Q113.29 42.21 114.13 43.2Q114.97 44.19 116.08 44.75Q117.19 45.3 118.42 45.3L118.42 45.3Q119.62 45.3 120.56 44.75Q121.51 44.19 122.03 43.2Q122.56 42.21 122.56 40.95M141.13 49.98L141.13 49.98Q138.01 49.98 135.56 48.84Q133.12 47.7 131.71 45.65Q130.3 43.59 130.3 40.86L130.3 40.86Q130.3 38.19 131.65 36.17Q133 34.14 135.35 33Q137.71 31.86 140.68 31.86L140.68 31.86Q143.77 31.86 145.94 33.2Q148.12 34.53 149.3 36.96Q150.49 39.39 150.49 42.69L150.49 42.69L135.25 42.69L135.25 39L147.04 39L145.03 40.29Q144.91 38.97 144.37 38.06Q143.83 37.14 142.94 36.66Q142.06 36.18 140.83 36.18L140.83 36.18Q139.48 36.18 138.52 36.72Q137.56 37.26 137.02 38.21Q136.48 39.15 136.48 40.41L136.48 40.41Q136.48 42.03 137.21 43.16Q137.95 44.28 139.37 44.88Q140.8 45.48 142.87 45.48L142.87 45.48Q144.76 45.48 146.64 44.99Q148.51 44.49 150.04 43.59L150.04 43.59L150.04 47.49Q148.27 48.69 146 49.34Q143.74 49.98 141.13 49.98" fill="#FFD21E"><title>swipe</title></path></g>
<path d="M293.41999999999996 909 h40 M315.41999999999996 897.8 L333.41999999999996 909 L315.41999999999996 920.2"
     stroke="#161512" stroke-width="5.2" fill="none" stroke-linecap="round" stroke-linejoin="round"/>
</svg>
