<svg width="1080" height="1080" viewBox="0 0 1080 1080" xmlns="http://www.w3.org/2000/svg" role="img" aria-label="Monty — How I make a reel no editing">
<defs>
  <filter id="grain" x="0" y="0" width="100%" height="100%">
    <feTurbulence type="fractalNoise" baseFrequency="0.9" numOctaves="3" seed="7" result="n"/>
    <feColorMatrix in="n" type="saturate" values="0"/>
  </filter>
  <filter id="drop" x="-40%" y="-40%" width="180%" height="200%">
    <feDropShadow dx="0" dy="10" stdDeviation="16" flood-color="#000000" flood-opacity="0.45"/>
  </filter>
  <filter id="dropSoft" x="-40%" y="-40%" width="180%" height="200%">
    <feDropShadow dx="0" dy="6" stdDeviation="9" flood-color="#000000" flood-opacity="0.22"/>
  </filter>
  <linearGradient id="screenGrad" x1="0" y1="0" x2="1" y2="1">
    <stop offset="0" stop-color="#2A1E5C"/><stop offset="0.5" stop-color="#161512"/><stop offset="1" stop-color="#0B0A09"/>
  </linearGradient>
  <linearGradient id="neonGrad" x1="0" y1="0" x2="1" y2="0">
    <stop offset="0" stop-color="#6C4DF6"/><stop offset="1" stop-color="#FFD21E"/>
  </linearGradient></defs>
<rect width="1080" height="1080" fill="#FFD21E"/>
<circle cx="928.8" cy="129.6" r="302.40000000000003" fill="#161512" opacity="0.06"/>
<circle cx="108" cy="993.6" r="324" fill="#161512" opacity="0.05"/>
<rect width="1080" height="1080" filter="url(#grain)" opacity="0.05"/>
<g transform="translate(76,66) scale(0.359375)">
    <circle cx="30" cy="52" r="19" fill="#161512"/><circle cx="98" cy="52" r="19" fill="#161512"/>
    <circle cx="30" cy="52" r="9" fill="#FFD21E"/><circle cx="98" cy="52" r="9" fill="#FFD21E"/>
    <rect x="28" y="26" width="72" height="80" rx="36" fill="#161512"/>
    <circle cx="64" cy="70" r="30" fill="#FFD21E"/>
    <path d="M57 55 L57 85 L84 70 Z" fill="#FFD21E" stroke="#FFD21E" stroke-width="5" stroke-linejoin="round"/>
  </g><path d="M137.11 102.34L132.13 102.34L132.13 82.72L137.03 82.72L137.03 84.85L137.75 84.85Q138.26 83.87 139.45 83.13Q140.63 82.4 142.57 82.4L142.57 82.4Q144.67 82.4 145.94 83.21Q147.2 84.02 147.87 85.33L147.87 85.33L148.59 85.33Q149.26 84.06 150.49 83.23Q151.71 82.4 153.97 82.4L153.97 82.4Q155.79 82.4 157.27 83.17Q158.75 83.94 159.64 85.51Q160.53 87.07 160.53 89.44L160.53 89.44L160.53 102.34L155.55 102.34L155.55 89.8Q155.55 88.18 154.72 87.37Q153.89 86.56 152.38 86.56L152.38 86.56Q150.68 86.56 149.75 87.64Q148.82 88.73 148.82 90.75L148.82 90.75L148.82 102.34L143.84 102.34L143.84 89.8Q143.84 88.18 143.01 87.37Q142.18 86.56 140.67 86.56L140.67 86.56Q138.97 86.56 138.04 87.64Q137.11 88.73 137.11 90.75L137.11 90.75L137.11 102.34M174.06 102.89L174.06 102.89Q171.14 102.89 168.8 101.71Q166.47 100.52 165.12 98.27Q163.78 96.01 163.78 92.85L163.78 92.85L163.78 92.21Q163.78 89.05 165.12 86.79Q166.47 84.54 168.8 83.35Q171.14 82.16 174.06 82.16L174.06 82.16Q176.99 82.16 179.32 83.35Q181.66 84.54 183 86.79Q184.35 89.05 184.35 92.21L184.35 92.21L184.35 92.85Q184.35 96.01 183 98.27Q181.66 100.52 179.32 101.71Q176.99 102.89 174.06 102.89M174.06 98.46L174.06 98.46Q176.36 98.46 177.86 96.98Q179.36 95.5 179.36 92.73L179.36 92.73L179.36 92.33Q179.36 89.56 177.88 88.08Q176.4 86.6 174.06 86.6L174.06 86.6Q171.77 86.6 170.27 88.08Q168.76 89.56 168.76 92.33L168.76 92.33L168.76 92.73Q168.76 95.5 170.27 96.98Q171.77 98.46 174.06 98.46M192.74 102.34L187.75 102.34L187.75 82.72L192.66 82.72L192.66 85.29L193.37 85.29Q193.84 84.26 195.15 83.33Q196.45 82.4 199.1 82.4L199.1 82.4Q201.4 82.4 203.12 83.45Q204.84 84.5 205.79 86.34Q206.74 88.18 206.74 90.63L206.74 90.63L206.74 102.34L201.75 102.34L201.75 91.03Q201.75 88.81 200.67 87.7Q199.58 86.6 197.56 86.6L197.56 86.6Q195.27 86.6 194 88.12Q192.74 89.64 192.74 92.37L192.74 92.37L192.74 102.34M223.43 102.34L217.9 102.34Q215.96 102.34 214.75 101.13Q213.54 99.93 213.54 97.91L213.54 97.91L213.54 86.83L208.64 86.83L208.64 82.72L213.54 82.72L213.54 76.63L218.53 76.63L218.53 82.72L223.91 82.72L223.91 86.83L218.53 86.83L218.53 97.04Q218.53 98.23 219.64 98.23L219.64 98.23L223.43 98.23L223.43 102.34M241.71 110.25L229.37 110.25L229.37 105.9L240.05 105.9Q241.16 105.9 241.16 104.71L241.16 104.71L241.16 99.77L240.44 99.77Q240.13 100.44 239.46 101.11Q238.78 101.79 237.64 102.22Q236.49 102.66 234.71 102.66L234.71 102.66Q232.41 102.66 230.69 101.61Q228.97 100.56 228.02 98.7Q227.07 96.84 227.07 94.43L227.07 94.43L227.07 82.72L232.06 82.72L232.06 94.03Q232.06 96.25 233.15 97.36Q234.23 98.46 236.25 98.46L236.25 98.46Q238.55 98.46 239.81 96.94Q241.08 95.42 241.08 92.69L241.08 92.69L241.08 82.72L246.06 82.72L246.06 105.82Q246.06 107.84 244.88 109.05Q243.69 110.25 241.71 110.25L241.71 110.25" fill="#161512"><title>monty</title></path>
<path d="M80.94 400L80.94 343L98.65 343L98.65 400L80.94 400M125.32 400L125.32 343L143.03 343L143.03 400L125.32 400M90.9 378.8L90.9 363.14L132.47 363.14L132.47 378.8L90.9 378.8M175.33 401.29L175.33 401.29Q166.9 401.29 160.51 398.4Q154.13 395.52 150.56 390.31Q146.98 385.1 146.98 378.26L146.98 378.26Q146.98 371.27 150.56 366.07Q154.13 360.86 160.51 358.01Q166.9 355.16 175.41 355.16L175.41 355.16Q183.84 355.16 190.23 358.01Q196.61 360.86 200.15 366.07Q203.68 371.27 203.68 378.26L203.68 378.26Q203.68 385.1 200.15 390.31Q196.61 395.52 190.23 398.4Q183.84 401.29 175.33 401.29M175.41 388.52L175.41 388.52Q178.83 388.52 181.22 387.31Q183.62 386.09 184.87 383.77Q186.12 381.46 186.12 378.26L186.12 378.26Q186.12 375 184.87 372.68Q183.62 370.36 181.22 369.14Q178.83 367.93 175.41 367.93L175.41 367.93Q171.99 367.93 169.56 369.14Q167.12 370.36 165.87 372.68Q164.62 375 164.62 378.19L164.62 378.19Q164.62 381.46 165.87 383.77Q167.12 386.09 169.56 387.31Q171.99 388.52 175.41 388.52M254.9 356.45L266.99 390.04L261.74 390.04L273.14 356.45L290.55 356.45L274.66 400L256.88 400L243.81 364.81L249.51 364.81L236.36 400L218.58 400L202.69 356.45L220.17 356.45L231.57 390.04L226.25 390.04L238.41 356.45L254.9 356.45M307.72 400L307.72 343L325.43 343L325.43 400L307.72 400M347.47 371.8L344.51 356.45L361.91 356.45L364.88 374.46L364.88 400L347.47 400L347.47 371.8M379.54 355.16L379.54 355.16Q385.62 355.16 389.88 357.67Q394.14 360.18 396.38 364.77Q398.62 369.37 398.62 375.53L398.62 375.53L398.62 400L381.22 400L381.22 378.04Q381.22 373.78 379.2 371.5Q377.19 369.22 373.46 369.22L373.46 369.22Q370.8 369.22 368.87 370.44Q366.93 371.65 365.9 373.86Q364.88 376.06 364.88 379.18L364.88 379.18L359.63 376.44Q360.62 369.37 363.47 364.66Q366.32 359.95 370.5 357.55Q374.68 355.16 379.54 355.16M413.21 355.16L413.21 355.16Q419.29 355.16 423.59 357.67Q427.88 360.18 430.12 364.77Q432.36 369.37 432.36 375.53L432.36 375.53L432.36 400L414.96 400L414.96 378.04Q414.96 373.78 412.95 371.5Q410.93 369.22 407.21 369.22L407.21 369.22Q404.55 369.22 402.61 370.44Q400.67 371.65 399.65 373.86Q398.62 376.06 398.62 379.18L398.62 379.18L393.38 376.44Q394.36 369.37 397.21 364.66Q400.06 359.95 404.21 357.55Q408.35 355.16 413.21 355.16M493.62 400L475.53 400L473.48 384.5L475.61 378.26L473.48 372.11L475.53 356.45L493.62 356.45L490.73 378.19L493.62 400M479.41 378.26L479.41 378.26Q478.5 385.18 475.42 390.39Q472.34 395.59 467.51 398.44Q462.69 401.29 456.46 401.29L456.46 401.29Q450.15 401.29 445.28 398.4Q440.42 395.52 437.72 390.31Q435.02 385.1 435.02 378.26L435.02 378.26Q435.02 371.27 437.72 366.07Q440.42 360.86 445.28 358.01Q450.15 355.16 456.46 355.16L456.46 355.16Q462.69 355.16 467.51 357.97Q472.34 360.78 475.46 365.99Q478.57 371.2 479.41 378.26M452.58 378.26L452.58 378.26Q452.58 381.15 453.76 383.36Q454.94 385.56 457.06 386.85Q459.19 388.14 461.93 388.14L461.93 388.14Q464.74 388.14 467.32 386.85Q469.91 385.56 471.88 383.36Q473.86 381.15 474.77 378.26L474.77 378.26Q473.86 375.38 471.88 373.13Q469.91 370.89 467.32 369.6Q464.74 368.31 461.93 368.31L461.93 368.31Q459.19 368.31 457.06 369.6Q454.94 370.89 453.76 373.13Q452.58 375.38 452.58 378.26M514.82 341.48L514.82 386.32L510.11 384.72L533.06 356.45L551 356.45L512.92 400L497.42 400L497.42 341.48L514.82 341.48M532.68 400L520.68 378.87L533.98 369.98L552.14 400L532.68 400M578.44 401.29L578.44 401.29Q570.38 401.29 564.07 398.4Q557.76 395.52 554.12 390.27Q550.47 385.03 550.47 378.04L550.47 378.04Q550.47 371.2 554 366.03Q557.54 360.86 563.65 358.01Q569.77 355.16 577.37 355.16L577.37 355.16Q585.35 355.16 590.98 358.54Q596.6 361.92 599.6 368.19Q602.6 374.46 602.6 382.98L602.6 382.98L564.68 382.98L564.68 373.02L592.57 373.02L587.48 376.44Q587.18 373.48 585.96 371.39Q584.74 369.3 582.73 368.23Q580.72 367.17 577.98 367.17L577.98 367.17Q574.86 367.17 572.66 368.38Q570.46 369.6 569.28 371.77Q568.1 373.93 568.1 376.67L568.1 376.67Q568.1 380.54 569.81 383.2Q571.52 385.86 575.02 387.27Q578.51 388.68 583.68 388.68L583.68 388.68Q588.39 388.68 593.03 387.54Q597.66 386.4 601.46 384.19L601.46 384.19L601.46 394.98Q596.83 398.02 591.09 399.66Q585.35 401.29 578.44 401.29M678 400L659.91 400L657.86 384.5L659.98 378.26L657.86 372.11L659.91 356.45L678 356.45L675.11 378.19L678 400M663.78 378.26L663.78 378.26Q662.87 385.18 659.79 390.39Q656.72 395.59 651.89 398.44Q647.06 401.29 640.83 401.29L640.83 401.29Q634.52 401.29 629.66 398.4Q624.8 395.52 622.1 390.31Q619.4 385.1 619.4 378.26L619.4 378.26Q619.4 371.27 622.1 366.07Q624.8 360.86 629.66 358.01Q634.52 355.16 640.83 355.16L640.83 355.16Q647.06 355.16 651.89 357.97Q656.72 360.78 659.83 365.99Q662.95 371.2 663.78 378.26M636.96 378.26L636.96 378.26Q636.96 381.15 638.13 383.36Q639.31 385.56 641.44 386.85Q643.57 388.14 646.3 388.14L646.3 388.14Q649.12 388.14 651.7 386.85Q654.28 385.56 656.26 383.36Q658.24 381.15 659.15 378.26L659.15 378.26Q658.24 375.38 656.26 373.13Q654.28 370.89 651.7 369.6Q649.12 368.31 646.3 368.31L646.3 368.31Q643.57 368.31 641.44 369.6Q639.31 370.89 638.13 373.13Q636.96 375.38 636.96 378.26M698.06 371.35L695.1 356.45L712.88 356.45L715.46 371.88L715.46 400L698.06 400L698.06 371.35M735.3 355.62L735.3 355.62L735.3 370.44Q732.87 369.98 730.85 369.79Q728.84 369.6 727.17 369.6L727.17 369.6Q724.05 369.6 721.39 370.78Q718.73 371.96 717.1 374.81Q715.46 377.66 715.46 382.67L715.46 382.67L712.27 378.72Q712.96 374.01 714.13 369.79Q715.31 365.57 717.36 362.27Q719.42 358.96 722.49 357.06Q725.57 355.16 730.06 355.16L730.06 355.16Q731.27 355.16 732.56 355.27Q733.86 355.39 735.3 355.62M763.42 401.29L763.42 401.29Q755.36 401.29 749.06 398.4Q742.75 395.52 739.1 390.27Q735.45 385.03 735.45 378.04L735.45 378.04Q735.45 371.2 738.99 366.03Q742.52 360.86 748.64 358.01Q754.76 355.16 762.36 355.16L762.36 355.16Q770.34 355.16 775.96 358.54Q781.58 361.92 784.59 368.19Q787.59 374.46 787.59 382.98L787.59 382.98L749.66 382.98L749.66 373.02L777.56 373.02L772.46 376.44Q772.16 373.48 770.94 371.39Q769.73 369.3 767.71 368.23Q765.7 367.17 762.96 367.17L762.96 367.17Q759.85 367.17 757.64 368.38Q755.44 369.6 754.26 371.77Q753.08 373.93 753.08 376.67L753.08 376.67Q753.08 380.54 754.79 383.2Q756.5 385.86 760 387.27Q763.5 388.68 768.66 388.68L768.66 388.68Q773.38 388.68 778.01 387.54Q782.65 386.4 786.45 384.19L786.45 384.19L786.45 394.98Q781.81 398.02 776.07 399.66Q770.34 401.29 763.42 401.29M816.77 401.29L816.77 401.29Q808.72 401.29 802.41 398.4Q796.1 395.52 792.45 390.27Q788.8 385.03 788.8 378.04L788.8 378.04Q788.8 371.2 792.34 366.03Q795.87 360.86 801.99 358.01Q808.11 355.16 815.71 355.16L815.71 355.16Q823.69 355.16 829.31 358.54Q834.94 361.92 837.94 368.19Q840.94 374.46 840.94 382.98L840.94 382.98L803.02 382.98L803.02 373.02L830.91 373.02L825.82 376.44Q825.51 373.48 824.3 371.39Q823.08 369.3 821.07 368.23Q819.05 367.17 816.32 367.17L816.32 367.17Q813.2 367.17 811 368.38Q808.79 369.6 807.61 371.77Q806.44 373.93 806.44 376.67L806.44 376.67Q806.44 380.54 808.15 383.2Q809.86 385.86 813.35 387.27Q816.85 388.68 822.02 388.68L822.02 388.68Q826.73 388.68 831.36 387.54Q836 386.4 839.8 384.19L839.8 384.19L839.8 394.98Q835.16 398.02 829.43 399.66Q823.69 401.29 816.77 401.29M844.06 400L844.06 341.48L861.46 341.48L861.46 400L844.06 400" fill="#161512"><title>How I make a reel</title></path>
<path d="M79.95 492L79.95 447.62L88.69 449.44L97.36 447.62L97.36 492L79.95 492M88.69 444.73L88.69 444.73Q84.28 444.73 81.55 442.52Q78.81 440.32 78.81 436.6L78.81 436.6Q78.81 432.8 81.55 430.59Q84.28 428.39 88.69 428.39L88.69 428.39Q93.25 428.39 95.95 430.59Q98.65 432.8 98.65 436.6L98.65 436.6Q98.65 440.32 95.95 442.52Q93.25 444.73 88.69 444.73M103.21 463.8L100.24 448.45L117.65 448.45L120.61 466.46L120.61 492L103.21 492L103.21 463.8M136.12 447.16L136.12 447.16Q142.5 447.16 146.91 449.67Q151.32 452.18 153.71 456.77Q156.1 461.37 156.1 467.53L156.1 467.53L156.1 492L138.62 492L138.62 470.04Q138.62 465.78 136.38 463.5Q134.14 461.22 130.04 461.22L130.04 461.22Q127.15 461.22 125.02 462.44Q122.89 463.65 121.75 465.86Q120.61 468.06 120.61 471.18L120.61 471.18L115.37 468.44Q116.36 461.37 119.36 456.66Q122.36 451.95 126.69 449.55Q131.02 447.16 136.12 447.16M205.12 435L227.47 435L227.47 492L209.99 492L209.99 442.83L215 442.83L186.43 474.37L186.35 468.97L236.06 468.97L236.06 481.82L173.74 481.82L173.74 469.43L205.12 435M255.89 463.8L252.93 448.45L270.33 448.45L273.3 466.46L273.3 492L255.89 492L255.89 463.8M287.96 447.16L287.96 447.16Q294.04 447.16 298.3 449.67Q302.56 452.18 304.8 456.77Q307.04 461.37 307.04 467.53L307.04 467.53L307.04 492L289.64 492L289.64 470.04Q289.64 465.78 287.62 463.5Q285.61 461.22 281.88 461.22L281.88 461.22Q279.22 461.22 277.29 462.44Q275.35 463.65 274.32 465.86Q273.3 468.06 273.3 471.18L273.3 471.18L268.05 468.44Q269.04 461.37 271.89 456.66Q274.74 451.95 278.92 449.55Q283.1 447.16 287.96 447.16M321.63 447.16L321.63 447.16Q327.71 447.16 332.01 449.67Q336.3 452.18 338.54 456.77Q340.78 461.37 340.78 467.53L340.78 467.53L340.78 492L323.38 492L323.38 470.04Q323.38 465.78 321.37 463.5Q319.35 461.22 315.63 461.22L315.63 461.22Q312.97 461.22 311.03 462.44Q309.09 463.65 308.07 465.86Q307.04 468.06 307.04 471.18L307.04 471.18L301.8 468.44Q302.78 461.37 305.63 456.66Q308.48 451.95 312.63 449.55Q316.77 447.16 321.63 447.16M345.12 492L345.12 447.62L353.86 449.44L362.52 447.62L362.52 492L345.12 492M353.86 444.73L353.86 444.73Q349.45 444.73 346.71 442.52Q343.98 440.32 343.98 436.6L343.98 436.6Q343.98 432.8 346.71 430.59Q349.45 428.39 353.86 428.39L353.86 428.39Q358.42 428.39 361.11 430.59Q363.81 432.8 363.81 436.6L363.81 436.6Q363.81 440.32 361.11 442.52Q358.42 444.73 353.86 444.73M368.37 463.8L365.41 448.45L382.81 448.45L385.78 466.46L385.78 492L368.37 492L368.37 463.8M401.28 447.16L401.28 447.16Q407.66 447.16 412.07 449.67Q416.48 452.18 418.87 456.77Q421.27 461.37 421.27 467.53L421.27 467.53L421.27 492L403.79 492L403.79 470.04Q403.79 465.78 401.55 463.5Q399.3 461.22 395.2 461.22L395.2 461.22Q392.31 461.22 390.18 462.44Q388.06 463.65 386.92 465.86Q385.78 468.06 385.78 471.18L385.78 471.18L380.53 468.44Q381.52 461.37 384.52 456.66Q387.52 451.95 391.86 449.55Q396.19 447.16 401.28 447.16M444.45 493.22L444.45 493.22Q438.37 493.22 434 490.71Q429.63 488.2 427.35 483.6Q425.07 479 425.07 472.92L425.07 472.92L425.07 448.45L442.47 448.45L442.47 470.42Q442.47 474.6 444.6 476.88Q446.73 479.16 450.6 479.16L450.6 479.16Q453.57 479.16 455.54 478.02Q457.52 476.88 458.55 474.67Q459.57 472.47 459.57 469.28L459.57 469.28L464.82 472.01Q463.9 478.93 460.94 483.68Q457.98 488.43 453.76 490.82Q449.54 493.22 444.45 493.22M479.94 492L462.46 492L459.57 473.99L459.57 448.45L476.98 448.45L476.98 476.65L479.94 492M487.92 461.22L479.26 461.22L479.26 453.7L487.92 449.74L495.52 436.67L505.4 436.67L505.4 448.45L523.03 448.45L523.03 461.22L505.4 461.22L505.4 472.09Q505.4 476.5 507.11 478.32Q508.82 480.14 513.84 480.14L513.84 480.14Q516.95 480.14 519.38 479.65Q521.82 479.16 523.79 478.4L523.79 478.4L523.79 491.24Q521.36 492 517.64 492.65Q513.91 493.29 509.81 493.29L509.81 493.29Q502.36 493.29 497.53 491.01Q492.71 488.73 490.31 484.48Q487.92 480.22 487.92 474.44L487.92 474.44L487.92 461.22M552.82 493.29L552.82 493.29Q544.77 493.29 538.46 490.4Q532.15 487.52 528.5 482.27Q524.86 477.03 524.86 470.04L524.86 470.04Q524.86 463.2 528.39 458.03Q531.92 452.86 538.04 450.01Q544.16 447.16 551.76 447.16L551.76 447.16Q559.74 447.16 565.36 450.54Q570.99 453.92 573.99 460.19Q576.99 466.46 576.99 474.98L576.99 474.98L539.07 474.98L539.07 465.02L566.96 465.02L561.87 468.44Q561.56 465.48 560.35 463.39Q559.13 461.3 557.12 460.23Q555.1 459.17 552.37 459.17L552.37 459.17Q549.25 459.17 547.05 460.38Q544.84 461.6 543.67 463.77Q542.49 465.93 542.49 468.67L542.49 468.67Q542.49 472.54 544.2 475.2Q545.91 477.86 549.4 479.27Q552.9 480.68 558.07 480.68L558.07 480.68Q562.78 480.68 567.42 479.54Q572.05 478.4 575.85 476.19L575.85 476.19L575.85 486.98Q571.22 490.02 565.48 491.66Q559.74 493.29 552.82 493.29M632.32 477.48L632.32 477.48Q632.32 482.73 629.09 486.26Q625.86 489.8 619.97 491.54Q614.08 493.29 606.02 493.29L606.02 493.29Q597.74 493.29 591.51 491.32Q585.28 489.34 581.7 485.73Q578.13 482.12 577.9 477.33L577.9 477.33L595.61 477.33Q596.07 478.85 597.51 479.95Q598.96 481.06 601.31 481.59Q603.67 482.12 606.94 482.12L606.94 482.12Q611.04 482.12 613.21 481.4Q615.37 480.68 615.37 479.23L615.37 479.23Q615.37 477.94 613.66 477.33Q611.95 476.72 607.92 476.42L607.92 476.42L600.55 475.89Q592.57 475.36 587.86 473.61Q583.15 471.86 581.1 468.97Q579.04 466.08 579.04 462.13L579.04 462.13Q579.04 457.12 582.24 453.77Q585.43 450.43 591.17 448.79Q596.9 447.16 604.5 447.16L604.5 447.16Q612.03 447.16 617.88 449.06Q623.73 450.96 627.27 454.38Q630.8 457.8 631.41 462.36L631.41 462.36L613.7 462.36Q613.32 460.99 612.1 459.97Q610.89 458.94 608.84 458.33Q606.78 457.72 603.74 457.72L603.74 457.72Q599.87 457.72 597.97 458.45Q596.07 459.17 596.07 460.54L596.07 460.54Q596.07 461.75 597.25 462.36Q598.42 462.97 601.69 463.2L601.69 463.2L611.57 463.88Q619.4 464.34 623.96 466.05Q628.52 467.76 630.42 470.61Q632.32 473.46 632.32 477.48" fill="#161512"><title>in 4 minutes</title></path>
<rect x="58" y="514.4" width="519.1199999999999" height="107.2" rx="20" fill="#161512"/>
<path d="M81.12 558.32L78 542.16L96.32 542.16L99.44 561.12L99.44 588L81.12 588L81.12 558.32M115.76 540.8L115.76 540.8Q122.48 540.8 127.12 543.44Q131.76 546.08 134.28 550.92Q136.8 555.76 136.8 562.24L136.8 562.24L136.8 588L118.4 588L118.4 564.88Q118.4 560.4 116.04 558Q113.68 555.6 109.36 555.6L109.36 555.6Q106.32 555.6 104.08 556.88Q101.84 558.16 100.64 560.48Q99.44 562.8 99.44 566.08L99.44 566.08L93.92 563.2Q94.96 555.76 98.12 550.8Q101.28 545.84 105.84 543.32Q110.4 540.8 115.76 540.8M169.2 589.36L169.2 589.36Q160.32 589.36 153.6 586.32Q146.88 583.28 143.12 577.8Q139.36 572.32 139.36 565.12L139.36 565.12Q139.36 557.76 143.12 552.28Q146.88 546.8 153.6 543.8Q160.32 540.8 169.28 540.8L169.28 540.8Q178.16 540.8 184.88 543.8Q191.6 546.8 195.32 552.28Q199.04 557.76 199.04 565.12L199.04 565.12Q199.04 572.32 195.32 577.8Q191.6 583.28 184.88 586.32Q178.16 589.36 169.2 589.36M169.28 575.92L169.28 575.92Q172.88 575.92 175.4 574.64Q177.92 573.36 179.24 570.92Q180.56 568.48 180.56 565.12L180.56 565.12Q180.56 561.68 179.24 559.24Q177.92 556.8 175.4 555.52Q172.88 554.24 169.28 554.24L169.28 554.24Q165.68 554.24 163.12 555.52Q160.56 556.8 159.24 559.24Q157.92 561.68 157.92 565.04L157.92 565.04Q157.92 568.48 159.24 570.92Q160.56 573.36 163.12 574.64Q165.68 575.92 169.28 575.92M245.84 589.36L245.84 589.36Q237.36 589.36 230.72 586.32Q224.08 583.28 220.24 577.76Q216.4 572.24 216.4 564.88L216.4 564.88Q216.4 557.68 220.12 552.24Q223.84 546.8 230.28 543.8Q236.72 540.8 244.72 540.8L244.72 540.8Q253.12 540.8 259.04 544.36Q264.96 547.92 268.12 554.52Q271.28 561.12 271.28 570.08L271.28 570.08L231.36 570.08L231.36 559.6L260.72 559.6L255.36 563.2Q255.04 560.08 253.76 557.88Q252.48 555.68 250.36 554.56Q248.24 553.44 245.36 553.44L245.36 553.44Q242.08 553.44 239.76 554.72Q237.44 556 236.2 558.28Q234.96 560.56 234.96 563.44L234.96 563.44Q234.96 567.52 236.76 570.32Q238.56 573.12 242.24 574.6Q245.92 576.08 251.36 576.08L251.36 576.08Q256.32 576.08 261.2 574.88Q266.08 573.68 270.08 571.36L270.08 571.36L270.08 582.72Q265.2 585.92 259.16 587.64Q253.12 589.36 245.84 589.36M334.88 588L315.84 588L313.6 570.88L316.56 565.28L313.6 557.84L317.6 526.4L336.64 526.4L331.76 563.6L334.88 588M319.52 565.12L319.52 565.12Q318.56 572.4 315.32 577.88Q312.08 583.36 307 586.36Q301.92 589.36 295.36 589.36L295.36 589.36Q288.72 589.36 283.6 586.32Q278.48 583.28 275.64 577.8Q272.8 572.32 272.8 565.12L272.8 565.12Q272.8 557.76 275.64 552.28Q278.48 546.8 283.6 543.8Q288.72 540.8 295.36 540.8L295.36 540.8Q301.92 540.8 307 543.76Q312.08 546.72 315.36 552.2Q318.64 557.68 319.52 565.12M291.28 565.12L291.28 565.12Q291.28 568.16 292.52 570.48Q293.76 572.8 296 574.16Q298.24 575.52 301.12 575.52L301.12 575.52Q304.08 575.52 306.8 574.16Q309.52 572.8 311.6 570.48Q313.68 568.16 314.64 565.12L314.64 565.12Q313.68 562.08 311.6 559.72Q309.52 557.36 306.8 556Q304.08 554.64 301.12 554.64L301.12 554.64Q298.24 554.64 296 556Q293.76 557.36 292.52 559.72Q291.28 562.08 291.28 565.12M338.72 588L338.72 541.28L347.92 543.2L357.04 541.28L357.04 588L338.72 588M347.92 538.24L347.92 538.24Q343.28 538.24 340.4 535.92Q337.52 533.6 337.52 529.68L337.52 529.68Q337.52 525.68 340.4 523.36Q343.28 521.04 347.92 521.04L347.92 521.04Q352.72 521.04 355.56 523.36Q358.4 525.68 358.4 529.68L358.4 529.68Q358.4 533.6 355.56 535.92Q352.72 538.24 347.92 538.24M367.68 555.6L358.56 555.6L358.56 547.68L367.68 543.52L375.68 529.76L386.08 529.76L386.08 542.16L404.64 542.16L404.64 555.6L386.08 555.6L386.08 567.04Q386.08 571.68 387.88 573.6Q389.68 575.52 394.96 575.52L394.96 575.52Q398.24 575.52 400.8 575Q403.36 574.48 405.44 573.68L405.44 573.68L405.44 587.2Q402.88 588 398.96 588.68Q395.04 589.36 390.72 589.36L390.72 589.36Q382.88 589.36 377.8 586.96Q372.72 584.56 370.2 580.08Q367.68 575.6 367.68 569.52L367.68 569.52L367.68 555.6M408.56 588L408.56 541.28L417.76 543.2L426.88 541.28L426.88 588L408.56 588M417.76 538.24L417.76 538.24Q413.12 538.24 410.24 535.92Q407.36 533.6 407.36 529.68L407.36 529.68Q407.36 525.68 410.24 523.36Q413.12 521.04 417.76 521.04L417.76 521.04Q422.56 521.04 425.4 523.36Q428.24 525.68 428.24 529.68L428.24 529.68Q428.24 533.6 425.4 535.92Q422.56 538.24 417.76 538.24M433.04 558.32L429.92 542.16L448.24 542.16L451.36 561.12L451.36 588L433.04 588L433.04 558.32M467.68 540.8L467.68 540.8Q474.4 540.8 479.04 543.44Q483.68 546.08 486.2 550.92Q488.72 555.76 488.72 562.24L488.72 562.24L488.72 588L470.32 588L470.32 564.88Q470.32 560.4 467.96 558Q465.6 555.6 461.28 555.6L461.28 555.6Q458.24 555.6 456 556.88Q453.76 558.16 452.56 560.48Q451.36 562.8 451.36 566.08L451.36 566.08L445.84 563.2Q446.88 555.76 450.04 550.8Q453.2 545.84 457.76 543.32Q462.32 540.8 467.68 540.8M532.72 576.4L532.72 576.4L532.72 568.72L533.36 566.64L533.36 554.56L532.72 552.88L532.72 542.16L551.12 542.16L551.12 575.76Q551.12 584.16 547.12 590.16Q543.12 596.16 535.88 599.36Q528.64 602.56 518.8 602.56L518.8 602.56Q512.32 602.56 506.84 600.92Q501.36 599.28 495.84 596L495.84 596L495.84 582.48Q500.8 586.08 506.36 587.8Q511.92 589.52 517.6 589.52L517.6 589.52Q524.96 589.52 528.84 586.48Q532.72 583.44 532.72 576.4M513.84 582.72L513.84 582.72Q507.36 582.72 502.28 580.12Q497.2 577.52 494.28 572.8Q491.36 568.08 491.36 561.76L491.36 561.76Q491.36 555.44 494.28 550.72Q497.2 546 502.28 543.4Q507.36 540.8 513.84 540.8L513.84 540.8Q518.8 540.8 522.8 542.28Q526.8 543.76 529.92 546.24Q533.04 548.72 535.12 551.56Q537.2 554.4 538.28 557.16Q539.36 559.92 539.36 562L539.36 562Q539.36 564.8 537.68 568.36Q536 571.92 532.76 575.2Q529.52 578.48 524.76 580.6Q520 582.72 513.84 582.72M520.24 570.48L520.24 570.48Q524.56 570.48 527.88 568.28Q531.2 566.08 533.36 561.76L533.36 561.76Q531.12 557.36 527.8 555.2Q524.48 553.04 520.24 553.04L520.24 553.04Q517.04 553.04 514.68 554.08Q512.32 555.12 511.04 557.08Q509.76 559.04 509.76 561.76L509.76 561.76Q509.76 564.4 511 566.36Q512.24 568.32 514.6 569.4Q516.96 570.48 520.24 570.48" fill="#FFD21E"><title>no editing</title></path>
<g transform="translate(76,840)" filter="url(#dropSoft)"><rect width="191.41999999999996" height="78" rx="39" fill="#161512"/><path d="M61.54 43.92L61.54 43.92Q61.54 45.9 60.34 47.25Q59.14 48.6 56.92 49.29Q54.7 49.98 51.58 49.98L51.58 49.98Q48.37 49.98 45.95 49.2Q43.54 48.42 42.19 47.01Q40.84 45.6 40.75 43.74L40.75 43.74L46.96 43.74Q47.17 44.43 47.79 44.93Q48.4 45.42 49.42 45.68Q50.44 45.93 51.85 45.93L51.85 45.93Q53.68 45.93 54.62 45.57Q55.57 45.21 55.57 44.49L55.57 44.49Q55.57 43.92 54.85 43.64Q54.13 43.35 52.39 43.2L52.39 43.2L49.36 42.96Q46.33 42.75 44.54 42.05Q42.76 41.34 41.98 40.22Q41.2 39.09 41.2 37.65L41.2 37.65Q41.2 35.7 42.41 34.42Q43.63 33.15 45.8 32.5Q47.98 31.86 50.89 31.86L50.89 31.86Q53.77 31.86 56.02 32.61Q58.27 33.36 59.62 34.7Q60.97 36.03 61.18 37.83L61.18 37.83L54.97 37.83Q54.82 37.26 54.31 36.8Q53.8 36.33 52.9 36.03Q52 35.73 50.59 35.73L50.59 35.73Q48.94 35.73 48.08 36.09Q47.23 36.45 47.23 37.11L47.23 37.11Q47.23 37.62 47.76 37.92Q48.28 38.22 49.72 38.34L49.72 38.34L53.71 38.64Q56.68 38.82 58.39 39.5Q60.1 40.17 60.82 41.28Q61.54 42.39 61.54 43.92M82.21 32.37L87.22 46.05L85.3 46.05L90.16 32.37L96.28 32.37L89.86 49.5L83.62 49.5L78.25 35.28L80.29 35.28L74.86 49.5L68.62 49.5L62.2 32.37L68.38 32.37L73.21 46.05L71.29 46.05L76.36 32.37L82.21 32.37M97.72 49.5L97.72 32.1L100.81 32.7L103.87 32.1L103.87 49.5L97.72 49.5M100.78 30.69L100.78 30.69Q99.19 30.69 98.2 29.9Q97.21 29.1 97.21 27.72L97.21 27.72Q97.21 26.37 98.2 25.56Q99.19 24.75 100.78 24.75L100.78 24.75Q102.43 24.75 103.4 25.56Q104.38 26.37 104.38 27.72L104.38 27.72Q104.38 29.1 103.4 29.9Q102.43 30.69 100.78 30.69M106.93 54.45L106.93 32.37L113.08 32.37L113.08 37.29L112.81 38.01L112.81 42.81L113.08 44.22L113.08 54.45L106.93 54.45M111.13 40.95L111.13 40.95Q111.52 38.16 112.76 36.14Q114.01 34.11 115.93 32.99Q117.85 31.86 120.28 31.86L120.28 31.86Q122.8 31.86 124.7 33Q126.61 34.14 127.67 36.18Q128.74 38.22 128.74 40.95L128.74 40.95Q128.74 43.62 127.67 45.68Q126.61 47.73 124.7 48.86Q122.8 49.98 120.28 49.98L120.28 49.98Q117.85 49.98 115.93 48.86Q114.01 47.73 112.78 45.69Q111.55 43.65 111.13 40.95M122.56 40.95L122.56 40.95Q122.56 39.66 122.03 38.67Q121.51 37.68 120.56 37.11Q119.62 36.54 118.42 36.54L118.42 36.54Q117.19 36.54 116.08 37.11Q114.97 37.68 114.13 38.67Q113.29 39.66 112.84 40.95L112.84 40.95Q113.29 42.21 114.13 43.2Q114.97 44.19 116.08 44.75Q117.19 45.3 118.42 45.3L118.42 45.3Q119.62 45.3 120.56 44.75Q121.51 44.19 122.03 43.2Q122.56 42.21 122.56 40.95M141.13 49.98L141.13 49.98Q138.01 49.98 135.56 48.84Q133.12 47.7 131.71 45.65Q130.3 43.59 130.3 40.86L130.3 40.86Q130.3 38.19 131.65 36.17Q133 34.14 135.35 33Q137.71 31.86 140.68 31.86L140.68 31.86Q143.77 31.86 145.94 33.2Q148.12 34.53 149.3 36.96Q150.49 39.39 150.49 42.69L150.49 42.69L135.25 42.69L135.25 39L147.04 39L145.03 40.29Q144.91 38.97 144.37 38.06Q143.83 37.14 142.94 36.66Q142.06 36.18 140.83 36.18L140.83 36.18Q139.48 36.18 138.52 36.72Q137.56 37.26 137.02 38.21Q136.48 39.15 136.48 40.41L136.48 40.41Q136.48 42.03 137.21 43.16Q137.95 44.28 139.37 44.88Q140.8 45.48 142.87 45.48L142.87 45.48Q144.76 45.48 146.64 44.99Q148.51 44.49 150.04 43.59L150.04 43.59L150.04 47.49Q148.27 48.69 146 49.34Q143.74 49.98 141.13 49.98" fill="#FFD21E"><title>swipe</title></path></g>
<path d="M293.41999999999996 879 h40 M315.41999999999996 867.8 L333.41999999999996 879 L315.41999999999996 890.2"
     stroke="#161512" stroke-width="5.2" fill="none" stroke-linecap="round" stroke-linejoin="round"/>
<path d="M80.97 984L77.72 984L77.72 965.81L89.56 965.81L89.56 968.57L80.97 968.57L80.97 973.87L88.81 973.87L88.81 976.59L80.97 976.59L80.97 984M94.82 984L91.67 984L91.67 970.61L94.71 970.61L94.71 972.84L94.82 972.84Q95.19 971.68 96.06 971.06Q96.92 970.44 98.12 970.44L98.12 970.44Q98.4 970.44 98.71 970.46Q99.01 970.49 99.22 970.51L99.22 970.51L99.22 973.37Q99.03 973.32 98.6 973.28Q98.17 973.23 97.74 973.23L97.74 973.23Q96.91 973.23 96.25 973.59Q95.58 973.95 95.2 974.63Q94.82 975.3 94.82 976.21L94.82 976.21L94.82 984M106.71 984.28L106.71 984.28Q104.76 984.28 103.3 983.41Q101.84 982.55 101.04 980.98Q100.24 979.42 100.24 977.35L100.24 977.35Q100.24 975.27 101.04 973.7Q101.84 972.13 103.3 971.26Q104.76 970.39 106.71 970.39L106.71 970.39Q108.68 970.39 110.13 971.26Q111.58 972.13 112.38 973.7Q113.18 975.27 113.18 977.35L113.18 977.35Q113.18 979.42 112.38 980.98Q111.58 982.55 110.13 983.41Q108.68 984.28 106.71 984.28M106.71 981.71L106.71 981.71Q107.79 981.71 108.52 981.14Q109.25 980.57 109.62 979.59Q110 978.6 110 977.35L110 977.35Q110 976.08 109.62 975.09Q109.25 974.1 108.52 973.53Q107.79 972.96 106.71 972.96L106.71 972.96Q105.65 972.96 104.92 973.53Q104.19 974.1 103.81 975.09Q103.44 976.08 103.44 977.35L103.44 977.35Q103.44 978.6 103.81 979.59Q104.19 980.57 104.91 981.14Q105.64 981.71 106.71 981.71M118.88 984L115.73 984L115.73 970.61L118.71 970.61L118.8 973.73L118.57 973.73Q118.88 972.57 119.5 971.84Q120.12 971.1 120.93 970.74Q121.75 970.38 122.66 970.38L122.66 970.38Q124.13 970.38 125.1 971.28Q126.07 972.18 126.4 973.83L126.4 973.83L126.01 973.83Q126.28 972.71 126.94 971.94Q127.6 971.17 128.52 970.77Q129.44 970.38 130.5 970.38L130.5 970.38Q131.73 970.38 132.71 970.91Q133.69 971.44 134.26 972.48Q134.83 973.51 134.83 975.03L134.83 975.03L134.83 984L131.69 984L131.69 975.5Q131.69 974.23 130.99 973.64Q130.3 973.05 129.31 973.05L129.31 973.05Q128.54 973.05 127.98 973.38Q127.42 973.71 127.12 974.3Q126.82 974.88 126.82 975.65L126.82 975.65L126.82 984L123.75 984L123.75 975.36Q123.75 974.31 123.1 973.68Q122.45 973.05 121.43 973.05L121.43 973.05Q120.74 973.05 120.16 973.37Q119.58 973.7 119.23 974.32Q118.88 974.94 118.88 975.86L118.88 975.86L118.88 984M147.91 984.26L147.91 984.26Q146.62 984.26 145.59 983.8Q144.57 983.34 143.97 982.44Q143.37 981.55 143.37 980.23L143.37 980.23Q143.37 979.08 143.8 978.34Q144.23 977.6 144.96 977.16Q145.69 976.71 146.62 976.49Q147.55 976.26 148.53 976.15L148.53 976.15Q149.73 976.02 150.46 975.92Q151.18 975.82 151.52 975.61Q151.85 975.39 151.85 974.94L151.85 974.94L151.85 974.87Q151.85 974.23 151.58 973.78Q151.31 973.33 150.77 973.08Q150.24 972.83 149.47 972.83L149.47 972.83Q148.71 972.83 148.13 973.07Q147.55 973.32 147.19 973.72Q146.84 974.12 146.7 974.6L146.7 974.6L143.76 974.2Q144.05 972.96 144.85 972.12Q145.64 971.28 146.83 970.84Q148.02 970.4 149.49 970.4L149.49 970.4Q150.55 970.4 151.54 970.66Q152.53 970.91 153.3 971.46Q154.08 972 154.53 972.87Q154.98 973.75 154.98 974.99L154.98 974.99L154.98 984L151.95 984L151.95 982.13L151.84 982.13Q151.55 982.72 151.03 983.2Q150.51 983.68 149.74 983.97Q148.97 984.26 147.91 984.26M148.71 981.92L148.71 981.92Q149.69 981.92 150.4 981.55Q151.11 981.17 151.49 980.53Q151.87 979.9 151.87 979.14L151.87 979.14L151.87 977.6Q151.72 977.71 151.38 977.82Q151.04 977.92 150.6 978Q150.17 978.08 149.72 978.15Q149.28 978.21 148.91 978.26L148.91 978.26Q148.22 978.36 147.65 978.58Q147.08 978.8 146.75 979.19Q146.42 979.58 146.42 980.19L146.42 980.19Q146.42 980.75 146.72 981.14Q147.01 981.52 147.52 981.72Q148.03 981.92 148.71 981.92M161.28 976.24L161.28 976.24L161.28 984L158.13 984L158.13 970.61L161.14 970.61L161.18 973.94L160.81 973.94Q161.39 972.2 162.51 971.3Q163.63 970.4 165.31 970.4L165.31 970.4Q166.7 970.4 167.74 971Q168.79 971.6 169.37 972.74Q169.95 973.88 169.95 975.53L169.95 975.53L169.95 984L166.81 984L166.81 976.02Q166.81 974.63 166.11 973.86Q165.4 973.1 164.16 973.1L164.16 973.1Q163.33 973.1 162.68 973.46Q162.02 973.82 161.65 974.52Q161.28 975.21 161.28 976.24M182.32 984L179.17 984L179.17 970.61L182.32 970.61L182.32 984M180.75 968.68L180.75 968.68Q179.98 968.68 179.44 968.17Q178.91 967.67 178.91 966.93L178.91 966.93Q178.91 966.2 179.44 965.7Q179.98 965.19 180.75 965.19L180.75 965.19Q181.52 965.19 182.06 965.7Q182.6 966.2 182.6 966.93L182.6 966.93Q182.6 967.67 182.06 968.17Q181.52 968.68 180.75 968.68M190.49 984.26L190.49 984.26Q188.85 984.26 187.58 983.42Q186.31 982.58 185.59 981.03Q184.87 979.48 184.87 977.32L184.87 977.32Q184.87 975.14 185.61 973.59Q186.34 972.04 187.61 971.22Q188.88 970.4 190.48 970.4L190.48 970.4Q191.56 970.4 192.33 970.75Q193.09 971.1 193.58 971.63Q194.08 972.16 194.37 972.72L194.37 972.72L194.47 972.72L194.47 965.81L197.62 965.81L197.62 984L194.53 984L194.53 981.9L194.4 981.9Q194.1 982.49 193.59 983.02Q193.08 983.56 192.32 983.91Q191.56 984.26 190.49 984.26M191.31 981.66L191.31 981.66Q192.33 981.66 193.07 981.11Q193.8 980.57 194.18 979.59Q194.57 978.6 194.57 977.31L194.57 977.31Q194.57 976 194.18 975.03Q193.8 974.06 193.07 973.53Q192.33 973 191.31 973L191.31 973Q190.28 973 189.56 973.54Q188.83 974.08 188.46 975.05Q188.08 976.02 188.08 977.31L188.08 977.31Q188.08 978.6 188.46 979.58Q188.84 980.56 189.56 981.11Q190.28 981.66 191.31 981.66M206.69 984.28L206.69 984.28Q204.67 984.28 203.21 983.42Q201.74 982.56 200.96 981Q200.17 979.43 200.17 977.36L200.17 977.36Q200.17 975.31 200.96 973.73Q201.74 972.16 203.17 971.27Q204.6 970.39 206.51 970.39L206.51 970.39Q207.8 970.39 208.93 970.82Q210.06 971.26 210.91 972.12Q211.77 972.98 212.25 974.25Q212.73 975.53 212.73 977.23L212.73 977.23L212.73 978.17L201.57 978.17L201.57 976.02L211.16 976.02L209.72 976.63Q209.72 975.49 209.34 974.65Q208.97 973.81 208.26 973.34Q207.56 972.87 206.53 972.87L206.53 972.87Q205.52 972.87 204.78 973.34Q204.05 973.82 203.67 974.63Q203.28 975.44 203.28 976.48L203.28 976.48L203.28 977.92Q203.28 979.15 203.7 980.03Q204.13 980.9 204.91 981.36Q205.69 981.81 206.74 981.81L206.74 981.81Q207.46 981.81 208.04 981.6Q208.62 981.39 209.03 980.98Q209.44 980.58 209.63 980.02L209.63 980.02L212.54 980.42Q212.24 981.57 211.44 982.44Q210.63 983.3 209.42 983.79Q208.2 984.28 206.69 984.28M219.31 984.26L219.31 984.26Q218.02 984.26 216.99 983.8Q215.97 983.34 215.37 982.44Q214.77 981.55 214.77 980.23L214.77 980.23Q214.77 979.08 215.2 978.34Q215.62 977.6 216.36 977.16Q217.09 976.71 218.02 976.49Q218.94 976.26 219.93 976.15L219.93 976.15Q221.13 976.02 221.86 975.92Q222.58 975.82 222.92 975.61Q223.25 975.39 223.25 974.94L223.25 974.94L223.25 974.87Q223.25 974.23 222.98 973.78Q222.7 973.33 222.17 973.08Q221.64 972.83 220.87 972.83L220.87 972.83Q220.1 972.83 219.52 973.07Q218.94 973.32 218.59 973.72Q218.24 974.12 218.1 974.6L218.1 974.6L215.16 974.2Q215.45 972.96 216.25 972.12Q217.04 971.28 218.23 970.84Q219.42 970.4 220.89 970.4L220.89 970.4Q221.95 970.4 222.94 970.66Q223.92 970.91 224.7 971.46Q225.48 972 225.93 972.87Q226.38 973.75 226.38 974.99L226.38 974.99L226.38 984L223.35 984L223.35 982.13L223.24 982.13Q222.95 982.72 222.43 983.2Q221.91 983.68 221.14 983.97Q220.37 984.26 219.31 984.26M220.1 981.92L220.1 981.92Q221.09 981.92 221.8 981.55Q222.51 981.17 222.89 980.53Q223.27 979.9 223.27 979.14L223.27 979.14L223.27 977.6Q223.12 977.71 222.78 977.82Q222.44 977.92 222 978Q221.57 978.08 221.12 978.15Q220.68 978.21 220.31 978.26L220.31 978.26Q219.62 978.36 219.05 978.58Q218.48 978.8 218.15 979.19Q217.82 979.58 217.82 980.19L217.82 980.19Q217.82 980.75 218.11 981.14Q218.41 981.52 218.92 981.72Q219.43 981.92 220.1 981.92M234.26 970.61L242.09 970.61L242.09 973.09L234.26 973.09L234.26 970.61M236.3 980.53L236.3 967.26L239.45 967.26L239.45 980.2Q239.45 980.92 239.76 981.25Q240.06 981.57 240.79 981.57L240.79 981.57Q241.04 981.57 241.41 981.53Q241.77 981.5 242 981.46L242 981.46L242.33 983.93Q241.88 984.04 241.34 984.08Q240.81 984.12 240.29 984.12L240.29 984.12Q238.34 984.12 237.32 983.21Q236.3 982.29 236.3 980.53L236.3 980.53M250.05 984.28L250.05 984.28Q248.09 984.28 246.64 983.41Q245.18 982.55 244.38 980.98Q243.58 979.42 243.58 977.35L243.58 977.35Q243.58 975.27 244.38 973.7Q245.18 972.13 246.64 971.26Q248.09 970.39 250.05 970.39L250.05 970.39Q252.01 970.39 253.47 971.26Q254.92 972.13 255.72 973.7Q256.52 975.27 256.52 977.35L256.52 977.35Q256.52 979.42 255.72 980.98Q254.92 982.55 253.47 983.41Q252.01 984.28 250.05 984.28M250.05 981.71L250.05 981.71Q251.12 981.71 251.85 981.14Q252.59 980.57 252.96 979.59Q253.33 978.6 253.33 977.35L253.33 977.35Q253.33 976.08 252.96 975.09Q252.59 974.1 251.85 973.53Q251.12 972.96 250.05 972.96L250.05 972.96Q248.99 972.96 248.25 973.53Q247.52 974.1 247.15 975.09Q246.78 976.08 246.78 977.35L246.78 977.35Q246.78 978.6 247.15 979.59Q247.52 980.57 248.25 981.14Q248.97 981.71 250.05 981.71M269.01 984.26L269.01 984.26Q267.71 984.26 266.69 983.8Q265.66 983.34 265.06 982.44Q264.46 981.55 264.46 980.23L264.46 980.23Q264.46 979.08 264.89 978.34Q265.32 977.6 266.05 977.16Q266.78 976.71 267.71 976.49Q268.64 976.26 269.63 976.15L269.63 976.15Q270.82 976.02 271.55 975.92Q272.28 975.82 272.61 975.61Q272.95 975.39 272.95 974.94L272.95 974.94L272.95 974.87Q272.95 974.23 272.67 973.78Q272.4 973.33 271.87 973.08Q271.34 972.83 270.57 972.83L270.57 972.83Q269.8 972.83 269.22 973.07Q268.64 973.32 268.29 973.72Q267.93 974.12 267.8 974.6L267.8 974.6L264.85 974.2Q265.15 972.96 265.94 972.12Q266.73 971.28 267.93 970.84Q269.12 970.4 270.58 970.4L270.58 970.4Q271.64 970.4 272.63 970.66Q273.62 970.91 274.39 971.46Q275.17 972 275.62 972.87Q276.07 973.75 276.07 974.99L276.07 974.99L276.07 984L273.05 984L273.05 982.13L272.94 982.13Q272.64 982.72 272.12 983.2Q271.61 983.68 270.84 983.97Q270.07 984.26 269.01 984.26M269.8 981.92L269.8 981.92Q270.79 981.92 271.5 981.55Q272.2 981.17 272.58 980.53Q272.96 979.9 272.96 979.14L272.96 979.14L272.96 977.6Q272.81 977.71 272.47 977.82Q272.13 977.92 271.7 978Q271.26 978.08 270.82 978.15Q270.37 978.21 270.01 978.26L270.01 978.26Q269.31 978.36 268.74 978.58Q268.18 978.8 267.85 979.19Q267.52 979.58 267.52 980.19L267.52 980.19Q267.52 980.75 267.81 981.14Q268.1 981.52 268.61 981.72Q269.13 981.92 269.8 981.92M288.45 984L285.3 984L285.3 970.61L288.34 970.61L288.34 972.84L288.45 972.84Q288.82 971.68 289.68 971.06Q290.55 970.44 291.75 970.44L291.75 970.44Q292.03 970.44 292.33 970.46Q292.64 970.49 292.85 970.51L292.85 970.51L292.85 973.37Q292.66 973.32 292.23 973.28Q291.8 973.23 291.37 973.23L291.37 973.23Q290.54 973.23 289.87 973.59Q289.21 973.95 288.83 974.63Q288.45 975.3 288.45 976.21L288.45 976.21L288.45 984M300.39 984.28L300.39 984.28Q298.38 984.28 296.91 983.42Q295.45 982.56 294.66 981Q293.87 979.43 293.87 977.36L293.87 977.36Q293.87 975.31 294.66 973.73Q295.45 972.16 296.87 971.27Q298.3 970.39 300.21 970.39L300.21 970.39Q301.5 970.39 302.63 970.82Q303.76 971.26 304.61 972.12Q305.47 972.98 305.95 974.25Q306.43 975.53 306.43 977.23L306.43 977.23L306.43 978.17L295.27 978.17L295.27 976.02L304.86 976.02L303.42 976.63Q303.42 975.49 303.04 974.65Q302.67 973.81 301.96 973.34Q301.26 972.87 300.23 972.87L300.23 972.87Q299.22 972.87 298.49 973.34Q297.75 973.82 297.37 974.63Q296.98 975.44 296.98 976.48L296.98 976.48L296.98 977.92Q296.98 979.15 297.41 980.03Q297.83 980.9 298.61 981.36Q299.39 981.81 300.44 981.81L300.44 981.81Q301.16 981.81 301.74 981.6Q302.32 981.39 302.73 980.98Q303.14 980.58 303.33 980.02L303.33 980.02L306.24 980.42Q305.94 981.57 305.14 982.44Q304.33 983.3 303.12 983.79Q301.9 984.28 300.39 984.28M314.85 984.28L314.85 984.28Q312.84 984.28 311.38 983.42Q309.91 982.56 309.12 981Q308.34 979.43 308.34 977.36L308.34 977.36Q308.34 975.31 309.12 973.73Q309.91 972.16 311.34 971.27Q312.77 970.39 314.67 970.39L314.67 970.39Q315.97 970.39 317.09 970.82Q318.22 971.26 319.08 972.12Q319.93 972.98 320.42 974.25Q320.9 975.53 320.9 977.23L320.9 977.23L320.9 978.17L309.74 978.17L309.74 976.02L319.32 976.02L317.88 976.63Q317.88 975.49 317.51 974.65Q317.14 973.81 316.43 973.34Q315.72 972.87 314.7 972.87L314.7 972.87Q313.68 972.87 312.95 973.34Q312.22 973.82 311.83 974.63Q311.45 975.44 311.45 976.48L311.45 976.48L311.45 977.92Q311.45 979.15 311.87 980.03Q312.29 980.9 313.07 981.36Q313.85 981.81 314.9 981.81L314.9 981.81Q315.62 981.81 316.2 981.6Q316.78 981.39 317.19 980.98Q317.6 980.58 317.8 980.02L317.8 980.02L320.7 980.42Q320.41 981.57 319.6 982.44Q318.8 983.3 317.58 983.79Q316.37 984.28 314.85 984.28M323.4 965.81L326.55 965.81L326.55 984L323.4 984L323.4 965.81M341.65 984.28L341.65 984.28Q339.7 984.28 338.24 983.41Q336.78 982.55 335.98 980.98Q335.18 979.42 335.18 977.35L335.18 977.35Q335.18 975.27 335.98 973.7Q336.78 972.13 338.24 971.26Q339.7 970.39 341.65 970.39L341.65 970.39Q343.61 970.39 345.07 971.26Q346.52 972.13 347.32 973.7Q348.12 975.27 348.12 977.35L348.12 977.35Q348.12 979.42 347.32 980.98Q346.52 982.55 345.07 983.41Q343.61 984.28 341.65 984.28M341.65 981.71L341.65 981.71Q342.72 981.71 343.46 981.14Q344.19 980.57 344.56 979.59Q344.93 978.6 344.93 977.35L344.93 977.35Q344.93 976.08 344.56 975.09Q344.19 974.1 343.46 973.53Q342.72 972.96 341.65 972.96L341.65 972.96Q340.59 972.96 339.85 973.53Q339.12 974.1 338.75 975.09Q338.38 976.08 338.38 977.35L338.38 977.35Q338.38 978.6 338.75 979.59Q339.12 980.57 339.85 981.14Q340.58 981.71 341.65 981.71M353.82 976.24L353.82 976.24L353.82 984L350.67 984L350.67 970.61L353.69 970.61L353.72 973.94L353.36 973.94Q353.93 972.2 355.05 971.3Q356.18 970.4 357.85 970.4L357.85 970.4Q359.24 970.4 360.28 971Q361.33 971.6 361.91 972.74Q362.49 973.88 362.49 975.53L362.49 975.53L362.49 984L359.35 984L359.35 976.02Q359.35 974.63 358.65 973.86Q357.95 973.1 356.7 973.1L356.7 973.1Q355.87 973.1 355.22 973.46Q354.56 973.82 354.19 974.52Q353.82 975.21 353.82 976.24M377.64 984.28L377.64 984.28Q375.62 984.28 374.16 983.42Q372.69 982.56 371.9 981Q371.12 979.43 371.12 977.36L371.12 977.36Q371.12 975.31 371.9 973.73Q372.69 972.16 374.12 971.27Q375.55 970.39 377.45 970.39L377.45 970.39Q378.75 970.39 379.88 970.82Q381 971.26 381.86 972.12Q382.71 972.98 383.2 974.25Q383.68 975.53 383.68 977.23L383.68 977.23L383.68 978.17L372.52 978.17L372.52 976.02L382.1 976.02L380.66 976.63Q380.66 975.49 380.29 974.65Q379.92 973.81 379.21 973.34Q378.5 972.87 377.48 972.87L377.48 972.87Q376.46 972.87 375.73 973.34Q375 973.82 374.61 974.63Q374.23 975.44 374.23 976.48L374.23 976.48L374.23 977.92Q374.23 979.15 374.65 980.03Q375.07 980.9 375.85 981.36Q376.63 981.81 377.68 981.81L377.68 981.81Q378.4 981.81 378.98 981.6Q379.56 981.39 379.97 980.98Q380.38 980.58 380.58 980.02L380.58 980.02L383.48 980.42Q383.19 981.57 382.38 982.44Q381.58 983.3 380.36 983.79Q379.15 984.28 377.64 984.28M393.03 984L389.54 984L384.53 970.61L387.88 970.61L390.33 977.79Q390.75 979.02 391.06 980.25Q391.38 981.49 391.71 982.75L391.71 982.75L390.94 982.75Q391.26 981.49 391.58 980.25Q391.89 979.02 392.3 977.79L392.3 977.79L394.71 970.61L398.03 970.61L393.03 984M405.46 984.28L405.46 984.28Q403.44 984.28 401.98 983.42Q400.51 982.56 399.72 981Q398.94 979.43 398.94 977.36L398.94 977.36Q398.94 975.31 399.72 973.73Q400.51 972.16 401.94 971.27Q403.37 970.39 405.27 970.39L405.27 970.39Q406.57 970.39 407.7 970.82Q408.82 971.26 409.68 972.12Q410.53 972.98 411.02 974.25Q411.5 975.53 411.5 977.23L411.5 977.23L411.5 978.17L400.34 978.17L400.34 976.02L409.92 976.02L408.48 976.63Q408.48 975.49 408.11 974.65Q407.74 973.81 407.03 973.34Q406.32 972.87 405.3 972.87L405.3 972.87Q404.28 972.87 403.55 973.34Q402.82 973.82 402.43 974.63Q402.05 975.44 402.05 976.48L402.05 976.48L402.05 977.92Q402.05 979.15 402.47 980.03Q402.89 980.9 403.67 981.36Q404.45 981.81 405.5 981.81L405.5 981.81Q406.22 981.81 406.8 981.6Q407.38 981.39 407.79 980.98Q408.2 980.58 408.4 980.02L408.4 980.02L411.3 980.42Q411.01 981.57 410.2 982.44Q409.4 983.3 408.18 983.79Q406.97 984.28 405.46 984.28M417.15 984L414 984L414 970.61L417.04 970.61L417.04 972.84L417.15 972.84Q417.52 971.68 418.38 971.06Q419.25 970.44 420.45 970.44L420.45 970.44Q420.73 970.44 421.03 970.46Q421.34 970.49 421.54 970.51L421.54 970.51L421.54 973.37Q421.36 973.32 420.93 973.28Q420.49 973.23 420.07 973.23L420.07 973.23Q419.24 973.23 418.57 973.59Q417.91 973.95 417.53 974.63Q417.15 975.3 417.15 976.21L417.15 976.21L417.15 984M423.94 988.94L423.94 988.94L424.44 986.47L425.19 986.53Q425.82 986.65 426.29 986.55Q426.76 986.44 427.08 986.07Q427.4 985.7 427.56 985L427.56 985L427.86 984.01L422.77 970.61L426.11 970.61L428.56 977.79Q428.98 979.02 429.28 980.25Q429.58 981.49 429.91 982.75L429.91 982.75L429.06 982.75Q429.39 981.49 429.72 980.25Q430.05 979.01 430.48 977.79L430.48 977.79L432.98 970.61L436.29 970.61L430.47 985.88Q430.06 986.94 429.46 987.67Q428.86 988.41 428.01 988.79Q427.17 989.16 426.02 989.16L426.02 989.16Q425.41 989.16 424.86 989.1Q424.32 989.04 423.94 988.94M449.46 984.28L449.46 984.28Q447.9 984.28 446.68 983.82Q445.46 983.35 444.69 982.46Q443.92 981.56 443.72 980.28L443.72 980.28L446.72 979.91Q446.94 980.89 447.64 981.39Q448.34 981.9 449.49 981.9L449.49 981.9Q450.65 981.9 451.32 981.44Q451.99 980.97 451.99 980.29L451.99 980.29Q451.99 979.7 451.53 979.32Q451.07 978.95 450.17 978.76L450.17 978.76L447.89 978.27Q445.98 977.86 445.03 976.91Q444.08 975.97 444.08 974.48L444.08 974.48Q444.08 973.25 444.76 972.33Q445.43 971.41 446.65 970.91Q447.86 970.4 449.47 970.4L449.47 970.4Q451.04 970.4 452.17 970.87Q453.31 971.33 454 972.18Q454.69 973.03 454.88 974.17L454.88 974.17L452.03 974.54Q451.87 973.78 451.24 973.26Q450.61 972.75 449.54 972.75L449.54 972.75Q448.52 972.75 447.88 973.19Q447.23 973.64 447.23 974.32L447.23 974.32Q447.23 974.91 447.67 975.29Q448.12 975.67 449.08 975.88L449.08 975.88L451.4 976.37Q453.33 976.77 454.27 977.68Q455.2 978.58 455.2 980.01L455.2 980.01Q455.2 981.29 454.47 982.25Q453.73 983.22 452.44 983.75Q451.15 984.28 449.46 984.28M463.57 984.28L463.57 984.28Q461.62 984.28 460.16 983.41Q458.7 982.55 457.9 980.98Q457.1 979.42 457.1 977.35L457.1 977.35Q457.1 975.27 457.9 973.7Q458.7 972.13 460.16 971.26Q461.62 970.39 463.57 970.39L463.57 970.39Q465.54 970.39 466.99 971.26Q468.44 972.13 469.24 973.7Q470.04 975.27 470.04 977.35L470.04 977.35Q470.04 979.42 469.24 980.98Q468.44 982.55 466.99 983.41Q465.54 984.28 463.57 984.28M463.57 981.71L463.57 981.71Q464.65 981.71 465.38 981.14Q466.11 980.57 466.48 979.59Q466.86 978.6 466.86 977.35L466.86 977.35Q466.86 976.08 466.48 975.09Q466.11 974.1 465.38 973.53Q464.65 972.96 463.57 972.96L463.57 972.96Q462.51 972.96 461.78 973.53Q461.05 974.1 460.67 975.09Q460.3 976.08 460.3 977.35L460.3 977.35Q460.3 978.6 460.67 979.59Q461.05 980.57 461.77 981.14Q462.5 981.71 463.57 981.71M478.44 984.28L478.44 984.28Q476.49 984.28 475.04 983.41Q473.6 982.54 472.8 980.97Q472 979.41 472 977.35L472 977.35Q472 975.27 472.8 973.7Q473.6 972.13 475.04 971.26Q476.49 970.39 478.44 970.39L478.44 970.39Q479.61 970.39 480.6 970.71Q481.59 971.02 482.37 971.62Q483.14 972.21 483.64 973.03Q484.14 973.86 484.33 974.88L484.33 974.88L481.33 975.3Q481.22 974.77 480.98 974.34Q480.74 973.92 480.37 973.61Q480 973.29 479.53 973.13Q479.05 972.96 478.48 972.96L478.48 972.96Q477.4 972.96 476.67 973.53Q475.94 974.09 475.57 975.08Q475.19 976.07 475.19 977.35L475.19 977.35Q475.19 978.6 475.57 979.59Q475.94 980.58 476.67 981.14Q477.4 981.71 478.48 981.71L478.48 981.71Q479.06 981.71 479.54 981.54Q480.02 981.38 480.38 981.06Q480.75 980.74 480.99 980.3Q481.24 979.85 481.35 979.3L481.35 979.3L484.34 979.72Q484.17 980.75 483.67 981.59Q483.17 982.43 482.39 983.03Q481.62 983.63 480.61 983.96Q479.61 984.28 478.44 984.28M489.99 984L486.84 984L486.84 970.61L489.99 970.61L489.99 984M488.41 968.68L488.41 968.68Q487.65 968.68 487.11 968.17Q486.57 967.67 486.57 966.93L486.57 966.93Q486.57 966.2 487.11 965.7Q487.65 965.19 488.41 965.19L488.41 965.19Q489.18 965.19 489.73 965.7Q490.27 966.2 490.27 966.93L490.27 966.93Q490.27 967.67 489.73 968.17Q489.18 968.68 488.41 968.68M497 984.26L497 984.26Q495.7 984.26 494.68 983.8Q493.65 983.34 493.05 982.44Q492.46 981.55 492.46 980.23L492.46 980.23Q492.46 979.08 492.88 978.34Q493.31 977.6 494.04 977.16Q494.77 976.71 495.7 976.49Q496.63 976.26 497.62 976.15L497.62 976.15Q498.81 976.02 499.54 975.92Q500.27 975.82 500.6 975.61Q500.94 975.39 500.94 974.94L500.94 974.94L500.94 974.87Q500.94 974.23 500.66 973.78Q500.39 973.33 499.86 973.08Q499.33 972.83 498.56 972.83L498.56 972.83Q497.79 972.83 497.21 973.07Q496.63 973.32 496.28 973.72Q495.92 974.12 495.79 974.6L495.79 974.6L492.85 974.2Q493.14 972.96 493.93 972.12Q494.73 971.28 495.92 970.84Q497.11 970.4 498.57 970.4L498.57 970.4Q499.63 970.4 500.62 970.66Q501.61 970.91 502.39 971.46Q503.16 972 503.61 972.87Q504.06 973.75 504.06 974.99L504.06 974.99L504.06 984L501.04 984L501.04 982.13L500.93 982.13Q500.63 982.72 500.11 983.2Q499.6 983.68 498.83 983.97Q498.06 984.26 497 984.26M497.79 981.92L497.79 981.92Q498.78 981.92 499.49 981.55Q500.19 981.17 500.57 980.53Q500.95 979.9 500.95 979.14L500.95 979.14L500.95 977.6Q500.8 977.71 500.46 977.82Q500.12 977.92 499.69 978Q499.25 978.08 498.81 978.15Q498.36 978.21 498 978.26L498 978.26Q497.3 978.36 496.73 978.58Q496.17 978.8 495.84 979.19Q495.51 979.58 495.51 980.19L495.51 980.19Q495.51 980.75 495.8 981.14Q496.09 981.52 496.61 981.72Q497.12 981.92 497.79 981.92M507.21 965.81L510.36 965.81L510.36 984L507.21 984L507.21 965.81M522.74 984L519.59 984L519.59 970.61L522.74 970.61L522.74 984M521.17 968.68L521.17 968.68Q520.4 968.68 519.86 968.17Q519.32 967.67 519.32 966.93L519.32 966.93Q519.32 966.2 519.86 965.7Q520.4 965.19 521.17 965.19L521.17 965.19Q521.94 965.19 522.48 965.7Q523.02 966.2 523.02 966.93L523.02 966.93Q523.02 967.67 522.48 968.17Q521.94 968.68 521.17 968.68M529.04 976.24L529.04 976.24L529.04 984L525.89 984L525.89 970.61L528.91 970.61L528.94 973.94L528.58 973.94Q529.15 972.2 530.27 971.3Q531.4 970.4 533.07 970.4L533.07 970.4Q534.46 970.4 535.5 971Q536.55 971.6 537.13 972.74Q537.71 973.88 537.71 975.53L537.71 975.53L537.71 984L534.57 984L534.57 976.02Q534.57 974.63 533.87 973.86Q533.17 973.1 531.92 973.1L531.92 973.1Q531.09 973.1 530.44 973.46Q529.78 973.82 529.41 974.52Q529.04 975.21 529.04 976.24M560.78 980.39L546.46 980.39L546.46 977.81L554.36 965.81L556.47 965.81L556.47 969.35L555.21 969.35L549.77 977.63L549.77 977.73L560.78 977.73L560.78 980.39M558.39 984L555.28 984L555.28 979.61L555.32 978.43L555.32 965.81L558.39 965.81L558.39 984M572.63 984L569.48 984L569.48 970.61L572.46 970.61L572.55 973.73L572.31 973.73Q572.63 972.57 573.25 971.84Q573.86 971.1 574.68 970.74Q575.5 970.38 576.4 970.38L576.4 970.38Q577.88 970.38 578.85 971.28Q579.82 972.18 580.15 973.83L580.15 973.83L579.76 973.83Q580.03 972.71 580.69 971.94Q581.35 971.17 582.27 970.77Q583.19 970.38 584.25 970.38L584.25 970.38Q585.47 970.38 586.46 970.91Q587.44 971.44 588.01 972.48Q588.57 973.51 588.57 975.03L588.57 975.03L588.57 984L585.44 984L585.44 975.5Q585.44 974.23 584.74 973.64Q584.04 973.05 583.06 973.05L583.06 973.05Q582.29 973.05 581.73 973.38Q581.16 973.71 580.86 974.3Q580.57 974.88 580.57 975.65L580.57 975.65L580.57 984L577.5 984L577.5 975.36Q577.5 974.31 576.85 973.68Q576.2 973.05 575.18 973.05L575.18 973.05Q574.49 973.05 573.91 973.37Q573.33 973.7 572.98 974.32Q572.63 974.94 572.63 975.86L572.63 975.86L572.63 984M594.87 984L591.72 984L591.72 970.61L594.87 970.61L594.87 984M593.3 968.68L593.3 968.68Q592.53 968.68 591.99 968.17Q591.45 967.67 591.45 966.93L591.45 966.93Q591.45 966.2 591.99 965.7Q592.53 965.19 593.3 965.19L593.3 965.19Q594.07 965.19 594.61 965.7Q595.15 966.2 595.15 966.93L595.15 966.93Q595.15 967.67 594.61 968.17Q594.07 968.68 593.3 968.68M601.17 976.24L601.17 976.24L601.17 984L598.02 984L598.02 970.61L601.04 970.61L601.07 973.94L600.71 973.94Q601.28 972.2 602.4 971.3Q603.53 970.4 605.2 970.4L605.2 970.4Q606.59 970.4 607.63 971Q608.68 971.6 609.26 972.74Q609.84 973.88 609.84 975.53L609.84 975.53L609.84 984L606.7 984L606.7 976.02Q606.7 974.63 606 973.86Q605.3 973.1 604.05 973.1L604.05 973.1Q603.22 973.1 602.57 973.46Q601.92 973.82 601.54 974.52Q601.17 975.21 601.17 976.24M617.64 984.2L617.64 984.2Q616.26 984.2 615.21 983.6Q614.16 983.01 613.57 981.86Q612.99 980.72 612.99 979.07L612.99 979.07L612.99 970.61L616.14 970.61L616.14 978.58Q616.14 979.97 616.84 980.73Q617.54 981.5 618.79 981.5L618.79 981.5Q619.62 981.5 620.26 981.14Q620.91 980.79 621.29 980.09Q621.67 979.39 621.67 978.36L621.67 978.36L621.67 970.61L624.82 970.61L624.82 984L621.79 984L621.76 980.66L622.13 980.66Q621.54 982.43 620.42 983.31Q619.29 984.2 617.64 984.2M626.62 970.61L634.45 970.61L634.45 973.09L626.62 973.09L626.62 970.61M628.66 980.53L628.66 967.26L631.81 967.26L631.81 980.2Q631.81 980.92 632.12 981.25Q632.42 981.57 633.15 981.57L633.15 981.57Q633.4 981.57 633.76 981.53Q634.13 981.5 634.36 981.46L634.36 981.46L634.69 983.93Q634.24 984.04 633.7 984.08Q633.17 984.12 632.65 984.12L632.65 984.12Q630.7 984.12 629.68 983.21Q628.66 982.29 628.66 980.53L628.66 980.53M642.46 984.28L642.46 984.28Q640.44 984.28 638.98 983.42Q637.51 982.56 636.72 981Q635.94 979.43 635.94 977.36L635.94 977.36Q635.94 975.31 636.72 973.73Q637.51 972.16 638.94 971.27Q640.37 970.39 642.27 970.39L642.27 970.39Q643.57 970.39 644.7 970.82Q645.82 971.26 646.68 972.12Q647.53 972.98 648.02 974.25Q648.5 975.53 648.5 977.23L648.5 977.23L648.5 978.17L637.34 978.17L637.34 976.02L646.92 976.02L645.48 976.63Q645.48 975.49 645.11 974.65Q644.74 973.81 644.03 973.34Q643.32 972.87 642.3 972.87L642.3 972.87Q641.28 972.87 640.55 973.34Q639.82 973.82 639.43 974.63Q639.05 975.44 639.05 976.48L639.05 976.48L639.05 977.92Q639.05 979.15 639.47 980.03Q639.89 980.9 640.67 981.36Q641.45 981.81 642.5 981.81L642.5 981.81Q643.22 981.81 643.8 981.6Q644.38 981.39 644.79 980.98Q645.2 980.58 645.4 980.02L645.4 980.02L648.3 980.42Q648.01 981.57 647.2 982.44Q646.4 983.3 645.18 983.79Q643.97 984.28 642.46 984.28M656.13 984.28L656.13 984.28Q654.56 984.28 653.34 983.82Q652.12 983.35 651.35 982.46Q650.58 981.56 650.39 980.28L650.39 980.28L653.38 979.91Q653.6 980.89 654.3 981.39Q655 981.9 656.15 981.9L656.15 981.9Q657.31 981.9 657.98 981.44Q658.65 980.97 658.65 980.29L658.65 980.29Q658.65 979.7 658.2 979.32Q657.74 978.95 656.83 978.76L656.83 978.76L654.55 978.27Q652.65 977.86 651.7 976.91Q650.74 975.97 650.74 974.48L650.74 974.48Q650.74 973.25 651.42 972.33Q652.1 971.41 653.31 970.91Q654.53 970.4 656.14 970.4L656.14 970.4Q657.7 970.4 658.84 970.87Q659.97 971.33 660.66 972.18Q661.35 973.03 661.55 974.17L661.55 974.17L658.69 974.54Q658.53 973.78 657.9 973.26Q657.27 972.75 656.2 972.75L656.2 972.75Q655.19 972.75 654.54 973.19Q653.89 973.64 653.89 974.32L653.89 974.32Q653.89 974.91 654.34 975.29Q654.78 975.67 655.75 975.88L655.75 975.88L658.07 976.37Q660 976.77 660.93 977.68Q661.86 978.58 661.86 980.01L661.86 980.01Q661.86 981.29 661.13 982.25Q660.4 983.22 659.11 983.75Q657.81 984.28 656.13 984.28" fill="#161512" opacity="0.62"><title>From an idea to a reel on every social in 4 minutes</title></path>
</svg>
