<svg width="1080" height="1920" viewBox="0 0 1080 1920" xmlns="http://www.w3.org/2000/svg" role="img" aria-label="Monty — Try it free">
<defs>
  <filter id="grain" x="0" y="0" width="100%" height="100%">
    <feTurbulence type="fractalNoise" baseFrequency="0.9" numOctaves="3" seed="7" result="n"/>
    <feColorMatrix in="n" type="saturate" values="0"/>
  </filter>
  <filter id="drop" x="-40%" y="-40%" width="180%" height="200%">
    <feDropShadow dx="0" dy="10" stdDeviation="16" flood-color="#000000" flood-opacity="0.45"/>
  </filter>
  <filter id="dropSoft" x="-40%" y="-40%" width="180%" height="200%">
    <feDropShadow dx="0" dy="6" stdDeviation="9" flood-color="#000000" flood-opacity="0.22"/>
  </filter>
  <linearGradient id="screenGrad" x1="0" y1="0" x2="1" y2="1">
    <stop offset="0" stop-color="#2A1E5C"/><stop offset="0.5" stop-color="#161512"/><stop offset="1" stop-color="#0B0A09"/>
  </linearGradient>
  <linearGradient id="neonGrad" x1="0" y1="0" x2="1" y2="0">
    <stop offset="0" stop-color="#6C4DF6"/><stop offset="1" stop-color="#FFD21E"/>
  </linearGradient>
  <radialGradient id="gBanana">
    <stop offset="0" stop-color="#FFD21E" stop-opacity="0.85"/>
    <stop offset="0.55" stop-color="#FFD21E" stop-opacity="0.22"/>
    <stop offset="1" stop-color="#FFD21E" stop-opacity="0"/>
  </radialGradient>
  <radialGradient id="gViolet">
    <stop offset="0" stop-color="#6C4DF6" stop-opacity="0.85"/>
    <stop offset="0.55" stop-color="#6C4DF6" stop-opacity="0.22"/>
    <stop offset="1" stop-color="#6C4DF6" stop-opacity="0"/>
  </radialGradient></defs>
<rect width="1080" height="1920" fill="#0B0A09"/><circle cx="540" cy="520" r="620" fill="url(#gViolet)" opacity="0.55"/><circle cx="540" cy="1500" r="560" fill="url(#gBanana)" opacity="0.4"/><rect width="1080" height="1920" filter="url(#grain)" opacity="0.055"/>
<g transform="translate(430,470) scale(1.71875)">
    <circle cx="30" cy="52" r="19" fill="#FBF7EF"/><circle cx="98" cy="52" r="19" fill="#FBF7EF"/>
    <circle cx="30" cy="52" r="9" fill="#FFD21E"/><circle cx="98" cy="52" r="9" fill="#FFD21E"/>
    <rect x="28" y="26" width="72" height="80" rx="36" fill="#FBF7EF"/>
    <circle cx="64" cy="70" r="30" fill="#161512"/>
    <path d="M57 55 L57 85 L84 70 Z" fill="#FFD21E" stroke="#FFD21E" stroke-width="5" stroke-linejoin="round"/>
  </g>
<path d="M374.37 830L358.24 830L358.24 766.51L374.11 766.51L374.11 773.42L376.42 773.42Q378.08 770.22 381.92 767.86Q385.76 765.49 392.03 765.49L392.03 765.49Q398.82 765.49 402.91 768.11Q407.01 770.74 409.18 774.96L409.18 774.96L411.49 774.96Q413.66 770.86 417.63 768.18Q421.6 765.49 428.9 765.49L428.9 765.49Q434.78 765.49 439.58 767.98Q444.38 770.48 447.26 775.54Q450.14 780.59 450.14 788.27L450.14 788.27L450.14 830L434.02 830L434.02 789.42Q434.02 784.18 431.33 781.55Q428.64 778.93 423.78 778.93L423.78 778.93Q418.27 778.93 415.26 782.45Q412.26 785.97 412.26 792.5L412.26 792.5L412.26 830L396.13 830L396.13 789.42Q396.13 784.18 393.44 781.55Q390.75 778.93 385.89 778.93L385.89 778.93Q380.38 778.93 377.38 782.45Q374.37 785.97 374.37 792.5L374.37 792.5L374.37 830M492.64 831.79L492.64 831.79Q483.17 831.79 475.62 827.95Q468.06 824.11 463.71 816.82Q459.36 809.52 459.36 799.28L459.36 799.28L459.36 797.23Q459.36 786.99 463.71 779.7Q468.06 772.4 475.62 768.56Q483.17 764.72 492.64 764.72L492.64 764.72Q502.11 764.72 509.66 768.56Q517.22 772.4 521.57 779.7Q525.92 786.99 525.92 797.23L525.92 797.23L525.92 799.28Q525.92 809.52 521.57 816.82Q517.22 824.11 509.66 827.95Q502.11 831.79 492.64 831.79M492.64 817.46L492.64 817.46Q500.06 817.46 504.93 812.66Q509.79 807.86 509.79 798.9L509.79 798.9L509.79 797.62Q509.79 788.66 504.99 783.86Q500.19 779.06 492.64 779.06L492.64 779.06Q485.22 779.06 480.35 783.86Q475.49 788.66 475.49 797.62L475.49 797.62L475.49 798.9Q475.49 807.86 480.35 812.66Q485.22 817.46 492.64 817.46M551.78 830L535.65 830L535.65 766.51L551.52 766.51L551.52 774.83L553.82 774.83Q555.36 771.5 559.58 768.5Q563.81 765.49 572.38 765.49L572.38 765.49Q579.81 765.49 585.38 768.88Q590.94 772.27 594.02 778.22Q597.09 784.18 597.09 792.11L597.09 792.11L597.09 830L580.96 830L580.96 793.39Q580.96 786.22 577.44 782.64Q573.92 779.06 567.39 779.06L567.39 779.06Q559.97 779.06 555.87 783.98Q551.78 788.91 551.78 797.74L551.78 797.74L551.78 830M649.82 830L631.9 830Q625.63 830 621.73 826.1Q617.82 822.19 617.82 815.66L617.82 815.66L617.82 779.82L601.95 779.82L601.95 766.51L617.82 766.51L617.82 746.8L633.95 746.8L633.95 766.51L651.36 766.51L651.36 779.82L633.95 779.82L633.95 812.85Q633.95 816.69 637.54 816.69L637.54 816.69L649.82 816.69L649.82 830M707.68 855.6L667.74 855.6L667.74 841.52L702.3 841.52Q705.89 841.52 705.89 837.68L705.89 837.68L705.89 821.68L703.58 821.68Q702.56 823.86 700.38 826.03Q698.21 828.21 694.5 829.62Q690.78 831.02 685.02 831.02L685.02 831.02Q677.6 831.02 672.03 827.63Q666.46 824.24 663.39 818.22Q660.32 812.21 660.32 804.4L660.32 804.4L660.32 766.51L676.45 766.51L676.45 803.12Q676.45 810.29 679.97 813.87Q683.49 817.46 690.02 817.46L690.02 817.46Q697.44 817.46 701.54 812.53Q705.63 807.6 705.63 798.77L705.63 798.77L705.63 766.51L721.76 766.51L721.76 841.26Q721.76 847.79 717.92 851.7Q714.08 855.6 707.68 855.6L707.68 855.6" fill="#FBF7EF"><title>monty</title></path>
<path d="M154.94 890L151.83 890L151.83 865.26L166.99 865.26L166.99 868L154.94 868L154.94 876.35L165.91 876.35L165.91 879.09L154.94 879.09L154.94 890M173.23 890L170.29 890L170.29 871.79L173.11 871.79L173.11 874.61L173.28 874.61Q173.78 873.22 175.01 872.37Q176.23 871.52 177.9 871.52L177.9 871.52Q178.24 871.52 178.65 871.54Q179.06 871.56 179.29 871.59L179.29 871.59L179.29 874.53Q179.16 874.49 178.64 874.42Q178.13 874.34 177.53 874.34L177.53 874.34Q176.32 874.34 175.34 874.87Q174.36 875.39 173.79 876.35Q173.23 877.32 173.23 878.66L173.23 878.66L173.23 890M189.45 890.4L189.45 890.4Q186.96 890.4 185.08 889.21Q183.21 888.02 182.15 885.9Q181.1 883.77 181.1 880.99L181.1 880.99Q181.1 878.15 182.15 876.01Q183.21 873.88 185.08 872.68Q186.96 871.49 189.45 871.49L189.45 871.49Q191.96 871.49 193.84 872.68Q195.73 873.88 196.77 876.01Q197.82 878.15 197.82 880.99L197.82 880.99Q197.82 883.77 196.77 885.9Q195.73 888.02 193.84 889.21Q191.96 890.4 189.45 890.4M189.45 887.76L189.45 887.76Q191.26 887.76 192.45 886.85Q193.65 885.93 194.25 884.4Q194.85 882.86 194.85 880.99L194.85 880.99Q194.85 879.08 194.25 877.52Q193.65 875.97 192.45 875.05Q191.26 874.13 189.45 874.13L189.45 874.13Q187.66 874.13 186.47 875.05Q185.28 875.97 184.69 877.52Q184.09 879.08 184.09 880.99L184.09 880.99Q184.09 882.86 184.69 884.4Q185.28 885.93 186.47 886.85Q187.66 887.76 189.45 887.76M204.74 890L201.8 890L201.8 871.79L204.66 871.79L204.67 875.74L204.41 875.74Q204.82 874.31 205.65 873.37Q206.48 872.42 207.58 871.94Q208.67 871.46 209.87 871.46L209.87 871.46Q211.91 871.46 213.22 872.68Q214.53 873.9 214.9 875.77L214.9 875.77L214.44 875.77Q214.78 874.48 215.64 873.51Q216.49 872.54 217.73 872Q218.97 871.46 220.44 871.46L220.44 871.46Q222.06 871.46 223.38 872.15Q224.69 872.85 225.48 874.26Q226.27 875.67 226.27 877.83L226.27 877.83L226.27 890L223.35 890L223.35 877.88Q223.35 875.86 222.21 874.99Q221.08 874.13 219.58 874.13L219.58 874.13Q218.32 874.13 217.41 874.65Q216.49 875.17 216 876.1Q215.51 877.02 215.51 878.2L215.51 878.2L215.51 890L212.58 890L212.58 877.58Q212.58 876.02 211.54 875.08Q210.5 874.13 208.92 874.13L208.92 874.13Q207.83 874.13 206.87 874.64Q205.92 875.14 205.33 876.15Q204.74 877.15 204.74 878.64L204.74 878.64L204.74 890M245.63 890.38L245.63 890.38Q243.89 890.38 242.47 889.73Q241.05 889.09 240.22 887.84Q239.39 886.6 239.39 884.8L239.39 884.8Q239.39 883.23 240 882.25Q240.62 881.27 241.65 880.71Q242.67 880.16 243.94 879.87Q245.21 879.59 246.53 879.42L246.53 879.42Q248.19 879.19 249.21 879.08Q250.23 878.96 250.7 878.69Q251.17 878.41 251.17 877.73L251.17 877.73L251.17 877.62Q251.17 876.52 250.73 875.74Q250.29 874.96 249.42 874.53Q248.55 874.1 247.29 874.1L247.29 874.1Q245.99 874.1 245.05 874.51Q244.1 874.93 243.53 875.57Q242.96 876.22 242.72 876.93L242.72 876.93L239.85 876.3Q240.37 874.64 241.48 873.59Q242.59 872.54 244.09 872.03Q245.58 871.52 247.22 871.52L247.22 871.52Q248.35 871.52 249.56 871.8Q250.76 872.09 251.79 872.78Q252.82 873.48 253.46 874.71Q254.1 875.94 254.1 877.81L254.1 877.81L254.1 890L251.21 890L251.21 887.49L251.04 887.49Q250.73 888.12 250.06 888.8Q249.4 889.47 248.31 889.93Q247.22 890.38 245.63 890.38M246.11 887.78L246.11 887.78Q247.79 887.78 248.92 887.14Q250.05 886.5 250.61 885.48Q251.17 884.46 251.17 883.31L251.17 883.31L251.17 880.87Q250.99 881.07 250.44 881.23Q249.88 881.38 249.14 881.52Q248.4 881.65 247.66 881.75Q246.92 881.85 246.39 881.92L246.39 881.92Q245.33 882.05 244.4 882.37Q243.47 882.7 242.91 883.3Q242.34 883.91 242.34 884.95L242.34 884.95Q242.34 885.87 242.82 886.5Q243.31 887.13 244.15 887.45Q245 887.78 246.11 887.78M261.92 879.16L261.92 879.16L261.92 890L258.98 890L258.98 871.79L261.82 871.79L261.83 876.2L261.28 876.2Q262.13 873.7 263.69 872.61Q265.25 871.52 267.34 871.52L267.34 871.52Q269.19 871.52 270.61 872.29Q272.04 873.07 272.86 874.61Q273.69 876.15 273.69 878.51L273.69 878.51L273.69 890L270.75 890L270.75 878.74Q270.75 876.55 269.64 875.37Q268.52 874.18 266.58 874.18L266.58 874.18Q265.27 874.18 264.21 874.73Q263.14 875.29 262.53 876.4Q261.92 877.52 261.92 879.16M290.72 890L287.78 890L287.78 871.79L290.72 871.79L290.72 890M289.26 868.62L289.26 868.62Q288.43 868.62 287.83 868.04Q287.23 867.47 287.23 866.66L287.23 866.66Q287.23 865.84 287.83 865.27Q288.43 864.7 289.26 864.7L289.26 864.7Q290.1 864.7 290.7 865.27Q291.3 865.84 291.3 866.66L291.3 866.66Q291.3 867.47 290.7 868.04Q290.1 868.62 289.26 868.62M302.47 890.38L302.47 890.38Q300.18 890.38 298.42 889.21Q296.66 888.04 295.68 885.92Q294.7 883.79 294.7 880.92L294.7 880.92Q294.7 878.06 295.69 875.95Q296.68 873.83 298.44 872.68Q300.2 871.52 302.49 871.52L302.49 871.52Q304.08 871.52 305.14 872.03Q306.19 872.54 306.86 873.25Q307.52 873.96 307.9 874.63L307.9 874.63L308.07 874.63L308.07 865.26L311.01 865.26L311.01 890L308.15 890L308.15 887.19L307.92 887.19Q307.52 887.88 306.84 888.61Q306.16 889.35 305.1 889.87Q304.05 890.38 302.47 890.38M302.92 887.74L302.92 887.74Q304.6 887.74 305.77 886.88Q306.94 886.02 307.55 884.47Q308.17 882.93 308.17 880.9L308.17 880.9Q308.17 878.86 307.56 877.35Q306.96 875.84 305.78 874.99Q304.6 874.15 302.92 874.15L302.92 874.15Q301.24 874.15 300.07 875Q298.9 875.86 298.3 877.37Q297.69 878.89 297.69 880.9L297.69 880.9Q297.69 882.91 298.31 884.46Q298.92 886 300.09 886.87Q301.26 887.74 302.92 887.74M323.51 890.4L323.51 890.4Q320.85 890.4 318.95 889.21Q317.05 888.02 316.02 885.91Q314.99 883.79 314.99 881L314.99 881Q314.99 878.21 316.02 876.07Q317.05 873.93 318.9 872.71Q320.75 871.49 323.21 871.49L323.21 871.49Q324.8 871.49 326.25 872.04Q327.69 872.58 328.82 873.72Q329.95 874.86 330.6 876.6Q331.26 878.35 331.26 880.75L331.26 880.75L331.26 881.83L316.85 881.83L316.85 879.34L329.65 879.34L328.32 880.25Q328.32 878.43 327.72 877.04Q327.13 875.66 325.99 874.88Q324.85 874.11 323.21 874.11L323.21 874.11Q321.56 874.11 320.39 874.9Q319.21 875.69 318.58 877.01Q317.95 878.33 317.95 879.92L317.95 879.92L317.95 881.45Q317.95 883.43 318.63 884.85Q319.31 886.26 320.56 887.02Q321.81 887.78 323.52 887.78L323.52 887.78Q324.67 887.78 325.58 887.44Q326.5 887.09 327.13 886.44Q327.77 885.78 328.09 884.84L328.09 884.84L330.96 885.37Q330.56 886.86 329.53 887.99Q328.49 889.12 326.95 889.76Q325.42 890.4 323.51 890.4M340.71 890.38L340.71 890.38Q338.96 890.38 337.54 889.73Q336.12 889.09 335.29 887.84Q334.46 886.6 334.46 884.8L334.46 884.8Q334.46 883.23 335.08 882.25Q335.69 881.27 336.72 880.71Q337.75 880.16 339.02 879.87Q340.29 879.59 341.6 879.42L341.6 879.42Q343.26 879.19 344.28 879.08Q345.31 878.96 345.78 878.69Q346.25 878.41 346.25 877.73L346.25 877.73L346.25 877.62Q346.25 876.52 345.81 875.74Q345.37 874.96 344.5 874.53Q343.63 874.1 342.37 874.1L342.37 874.1Q341.07 874.1 340.13 874.51Q339.18 874.93 338.61 875.57Q338.03 876.22 337.8 876.93L337.8 876.93L334.93 876.3Q335.44 874.64 336.56 873.59Q337.67 872.54 339.16 872.03Q340.66 871.52 342.3 871.52L342.3 871.52Q343.43 871.52 344.63 871.8Q345.84 872.09 346.87 872.78Q347.9 873.48 348.53 874.71Q349.17 875.94 349.17 877.81L349.17 877.81L349.17 890L346.28 890L346.28 887.49L346.12 887.49Q345.8 888.12 345.14 888.8Q344.48 889.47 343.39 889.93Q342.3 890.38 340.71 890.38M341.19 887.78L341.19 887.78Q342.86 887.78 343.99 887.14Q345.12 886.5 345.69 885.48Q346.25 884.46 346.25 883.31L346.25 883.31L346.25 880.87Q346.07 881.07 345.51 881.23Q344.96 881.38 344.22 881.52Q343.48 881.65 342.74 881.75Q342 881.85 341.47 881.92L341.47 881.92Q340.41 882.05 339.48 882.37Q338.55 882.7 337.98 883.3Q337.42 883.91 337.42 884.95L337.42 884.95Q337.42 885.87 337.9 886.5Q338.38 887.13 339.23 887.45Q340.08 887.78 341.19 887.78M361.13 871.79L370.69 871.79L370.69 874.29L361.13 874.29L361.13 871.79M364.03 885.63L364.03 867.24L366.97 867.24L366.97 885.37Q366.97 886.55 367.44 887.06Q367.92 887.58 369.06 887.58L369.06 887.58Q369.38 887.58 369.82 887.53Q370.26 887.49 370.62 887.44L370.62 887.44L371.04 889.93Q370.59 890.05 370.02 890.1Q369.46 890.15 368.93 890.15L368.93 890.15Q366.57 890.15 365.3 888.98Q364.03 887.81 364.03 885.63L364.03 885.63M381.33 890.4L381.33 890.4Q378.84 890.4 376.96 889.21Q375.09 888.02 374.03 885.9Q372.98 883.77 372.98 880.99L372.98 880.99Q372.98 878.15 374.03 876.01Q375.09 873.88 376.96 872.68Q378.84 871.49 381.33 871.49L381.33 871.49Q383.84 871.49 385.72 872.68Q387.61 873.88 388.65 876.01Q389.7 878.15 389.7 880.99L389.7 880.99Q389.7 883.77 388.65 885.9Q387.61 888.02 385.72 889.21Q383.84 890.4 381.33 890.4M381.33 887.76L381.33 887.76Q383.14 887.76 384.34 886.85Q385.53 885.93 386.13 884.4Q386.73 882.86 386.73 880.99L386.73 880.99Q386.73 879.08 386.13 877.52Q385.53 875.97 384.34 875.05Q383.14 874.13 381.33 874.13L381.33 874.13Q379.54 874.13 378.35 875.05Q377.16 875.97 376.57 877.52Q375.97 879.08 375.97 880.99L375.97 880.99Q375.97 882.86 376.57 884.4Q377.16 885.93 378.35 886.85Q379.54 887.76 381.33 887.76M408.14 890.38L408.14 890.38Q406.4 890.38 404.98 889.73Q403.56 889.09 402.73 887.84Q401.9 886.6 401.9 884.8L401.9 884.8Q401.9 883.23 402.51 882.25Q403.13 881.27 404.16 880.71Q405.19 880.16 406.46 879.87Q407.73 879.59 409.04 879.42L409.04 879.42Q410.7 879.19 411.72 879.08Q412.74 878.96 413.21 878.69Q413.69 878.41 413.69 877.73L413.69 877.73L413.69 877.62Q413.69 876.52 413.25 875.74Q412.81 874.96 411.94 874.53Q411.06 874.1 409.8 874.1L409.8 874.1Q408.51 874.1 407.56 874.51Q406.61 874.93 406.04 875.57Q405.47 876.22 405.24 876.93L405.24 876.93L402.36 876.3Q402.88 874.64 403.99 873.59Q405.1 872.54 406.6 872.03Q408.09 871.52 409.74 871.52L409.74 871.52Q410.86 871.52 412.07 871.8Q413.27 872.09 414.3 872.78Q415.33 873.48 415.97 874.71Q416.61 875.94 416.61 877.81L416.61 877.81L416.61 890L413.72 890L413.72 887.49L413.55 887.49Q413.24 888.12 412.57 888.8Q411.91 889.47 410.82 889.93Q409.74 890.38 408.14 890.38M408.62 887.78L408.62 887.78Q410.3 887.78 411.43 887.14Q412.56 886.5 413.12 885.48Q413.69 884.46 413.69 883.31L413.69 883.31L413.69 880.87Q413.5 881.07 412.95 881.23Q412.39 881.38 411.65 881.52Q410.91 881.65 410.18 881.75Q409.44 881.85 408.91 881.92L408.91 881.92Q407.84 882.05 406.91 882.37Q405.98 882.7 405.42 883.3Q404.85 883.91 404.85 884.95L404.85 884.95Q404.85 885.87 405.34 886.5Q405.82 887.13 406.66 887.45Q407.51 887.78 408.62 887.78M433.64 890L430.7 890L430.7 871.79L433.53 871.79L433.53 874.61L433.69 874.61Q434.19 873.22 435.42 872.37Q436.65 871.52 438.31 871.52L438.31 871.52Q438.66 871.52 439.06 871.54Q439.47 871.56 439.7 871.59L439.7 871.59L439.7 874.53Q439.57 874.49 439.05 874.42Q438.54 874.34 437.94 874.34L437.94 874.34Q436.73 874.34 435.75 874.87Q434.77 875.39 434.21 876.35Q433.64 877.32 433.64 878.66L433.64 878.66L433.64 890M450.03 890.4L450.03 890.4Q447.37 890.4 445.47 889.21Q443.57 888.02 442.54 885.91Q441.51 883.79 441.51 881L441.51 881Q441.51 878.21 442.54 876.07Q443.57 873.93 445.42 872.71Q447.27 871.49 449.73 871.49L449.73 871.49Q451.32 871.49 452.77 872.04Q454.21 872.58 455.34 873.72Q456.47 874.86 457.13 876.6Q457.78 878.35 457.78 880.75L457.78 880.75L457.78 881.83L443.37 881.83L443.37 879.34L456.17 879.34L454.84 880.25Q454.84 878.43 454.24 877.04Q453.65 875.66 452.51 874.88Q451.37 874.11 449.73 874.11L449.73 874.11Q448.09 874.11 446.91 874.9Q445.73 875.69 445.1 877.01Q444.47 878.33 444.47 879.92L444.47 879.92L444.47 881.45Q444.47 883.43 445.15 884.85Q445.83 886.26 447.08 887.02Q448.33 887.78 450.04 887.78L450.04 887.78Q451.19 887.78 452.1 887.44Q453.02 887.09 453.66 886.44Q454.29 885.78 454.61 884.84L454.61 884.84L457.48 885.37Q457.08 886.86 456.05 887.99Q455.01 889.12 453.47 889.76Q451.94 890.4 450.03 890.4M469.32 890.4L469.32 890.4Q466.66 890.4 464.76 889.21Q462.86 888.02 461.83 885.91Q460.8 883.79 460.8 881L460.8 881Q460.8 878.21 461.83 876.07Q462.86 873.93 464.71 872.71Q466.56 871.49 469.02 871.49L469.02 871.49Q470.61 871.49 472.06 872.04Q473.5 872.58 474.63 873.72Q475.76 874.86 476.42 876.6Q477.07 878.35 477.07 880.75L477.07 880.75L477.07 881.83L462.66 881.83L462.66 879.34L475.46 879.34L474.13 880.25Q474.13 878.43 473.54 877.04Q472.94 875.66 471.8 874.88Q470.66 874.11 469.02 874.11L469.02 874.11Q467.38 874.11 466.2 874.9Q465.02 875.69 464.39 877.01Q463.76 878.33 463.76 879.92L463.76 879.92L463.76 881.45Q463.76 883.43 464.44 884.85Q465.12 886.26 466.37 887.02Q467.63 887.78 469.34 887.78L469.34 887.78Q470.48 887.78 471.39 887.44Q472.31 887.09 472.95 886.44Q473.59 885.78 473.9 884.84L473.9 884.84L476.77 885.37Q476.37 886.86 475.34 887.99Q474.3 889.12 472.76 889.76Q471.23 890.4 469.32 890.4M480.99 865.26L483.93 865.26L483.93 890L480.99 890L480.99 865.26M505.48 890.4L505.48 890.4Q502.99 890.4 501.11 889.21Q499.23 888.02 498.18 885.9Q497.13 883.77 497.13 880.99L497.13 880.99Q497.13 878.15 498.18 876.01Q499.23 873.88 501.11 872.68Q502.99 871.49 505.48 871.49L505.48 871.49Q507.98 871.49 509.87 872.68Q511.75 873.88 512.8 876.01Q513.84 878.15 513.84 880.99L513.84 880.99Q513.84 883.77 512.8 885.9Q511.75 888.02 509.87 889.21Q507.98 890.4 505.48 890.4M505.48 887.76L505.48 887.76Q507.29 887.76 508.48 886.85Q509.68 885.93 510.27 884.4Q510.87 882.86 510.87 880.99L510.87 880.99Q510.87 879.08 510.27 877.52Q509.68 875.97 508.48 875.05Q507.29 874.13 505.48 874.13L505.48 874.13Q503.68 874.13 502.5 875.05Q501.31 875.97 500.71 877.52Q500.11 879.08 500.11 880.99L500.11 880.99Q500.11 882.86 500.71 884.4Q501.31 885.93 502.5 886.85Q503.68 887.76 505.48 887.76M520.77 879.16L520.77 879.16L520.77 890L517.83 890L517.83 871.79L520.67 871.79L520.68 876.2L520.14 876.2Q520.98 873.7 522.54 872.61Q524.1 871.52 526.2 871.52L526.2 871.52Q528.04 871.52 529.47 872.29Q530.89 873.07 531.72 874.61Q532.54 876.15 532.54 878.51L532.54 878.51L532.54 890L529.6 890L529.6 878.74Q529.6 876.55 528.49 875.37Q527.37 874.18 525.43 874.18L525.43 874.18Q524.12 874.18 523.06 874.73Q522 875.29 521.38 876.4Q520.77 877.52 520.77 879.16M554.25 890.4L554.25 890.4Q551.6 890.4 549.7 889.21Q547.79 888.02 546.77 885.91Q545.74 883.79 545.74 881L545.74 881Q545.74 878.21 546.77 876.07Q547.79 873.93 549.65 872.71Q551.5 871.49 553.95 871.49L553.95 871.49Q555.55 871.49 556.99 872.04Q558.44 872.58 559.56 873.72Q560.69 874.86 561.35 876.6Q562.01 878.35 562.01 880.75L562.01 880.75L562.01 881.83L547.6 881.83L547.6 879.34L560.4 879.34L559.07 880.25Q559.07 878.43 558.47 877.04Q557.87 875.66 556.73 874.88Q555.6 874.11 553.95 874.11L553.95 874.11Q552.31 874.11 551.13 874.9Q549.95 875.69 549.32 877.01Q548.69 878.33 548.69 879.92L548.69 879.92L548.69 881.45Q548.69 883.43 549.37 884.85Q550.05 886.26 551.31 887.02Q552.56 887.78 554.27 887.78L554.27 887.78Q555.41 887.78 556.33 887.44Q557.24 887.09 557.88 886.44Q558.52 885.78 558.83 884.84L558.83 884.84L561.71 885.37Q561.31 886.86 560.27 887.99Q559.23 889.12 557.7 889.76Q556.16 890.4 554.25 890.4M573.61 890L570.57 890L563.58 871.79L566.79 871.79L570.67 882.48Q571.25 884.04 571.69 885.6Q572.13 887.16 572.6 888.64L572.6 888.64L571.63 888.64Q572.1 887.16 572.53 885.6Q572.96 884.04 573.53 882.48L573.53 882.48L577.41 871.79L580.6 871.79L573.61 890M590.76 890.4L590.76 890.4Q588.1 890.4 586.2 889.21Q584.3 888.02 583.27 885.91Q582.24 883.79 582.24 881L582.24 881Q582.24 878.21 583.27 876.07Q584.3 873.93 586.15 872.71Q588 871.49 590.46 871.49L590.46 871.49Q592.05 871.49 593.5 872.04Q594.94 872.58 596.07 873.72Q597.2 874.86 597.86 876.6Q598.51 878.35 598.51 880.75L598.51 880.75L598.51 881.83L584.1 881.83L584.1 879.34L596.9 879.34L595.57 880.25Q595.57 878.43 594.98 877.04Q594.38 875.66 593.24 874.88Q592.1 874.11 590.46 874.11L590.46 874.11Q588.82 874.11 587.64 874.9Q586.46 875.69 585.83 877.01Q585.2 878.33 585.2 879.92L585.2 879.92L585.2 881.45Q585.2 883.43 585.88 884.85Q586.56 886.26 587.81 887.02Q589.07 887.78 590.78 887.78L590.78 887.78Q591.92 887.78 592.83 887.44Q593.75 887.09 594.39 886.44Q595.03 885.78 595.34 884.84L595.34 884.84L598.21 885.37Q597.81 886.86 596.78 887.99Q595.74 889.12 594.2 889.76Q592.67 890.4 590.76 890.4M605.37 890L602.43 890L602.43 871.79L605.25 871.79L605.25 874.61L605.42 874.61Q605.92 873.22 607.15 872.37Q608.37 871.52 610.03 871.52L610.03 871.52Q610.38 871.52 610.79 871.54Q611.2 871.56 611.43 871.59L611.43 871.59L611.43 874.53Q611.3 874.49 610.78 874.42Q610.27 874.34 609.67 874.34L609.67 874.34Q608.46 874.34 607.48 874.87Q606.5 875.39 605.93 876.35Q605.37 877.32 605.37 878.66L605.37 878.66L605.37 890M614.91 896.79L614.91 896.79L615.43 894.23L616.21 894.3Q617.01 894.45 617.65 894.3Q618.28 894.15 618.8 893.58Q619.31 893 619.7 891.88L619.7 891.88L620.38 890.02L613.39 871.79L616.59 871.79L620.48 882.48Q621.06 884.06 621.5 885.61Q621.94 887.16 622.4 888.64L622.4 888.64L621.42 888.64Q621.87 887.16 622.32 885.6Q622.77 884.04 623.33 882.48L623.33 882.48L627.23 871.79L630.4 871.79L622.27 892.94Q621.74 894.32 620.97 895.22Q620.21 896.13 619.21 896.57Q618.2 897.02 616.96 897.02L616.96 897.02Q616.28 897.02 615.74 896.95Q615.21 896.87 614.91 896.79M649.06 890.4L649.06 890.4Q647.17 890.4 645.67 889.83Q644.17 889.25 643.21 888.1Q642.26 886.95 641.99 885.25L641.99 885.25L644.81 884.8Q645.13 886.33 646.22 887.09Q647.3 887.84 649.03 887.84L649.03 887.84Q650.92 887.84 652.04 887.04Q653.16 886.23 653.16 885.07L653.16 885.07Q653.16 884.11 652.48 883.48Q651.79 882.84 650.48 882.55L650.48 882.55L647.47 881.85Q644.98 881.25 643.74 880Q642.51 878.74 642.51 876.8L642.51 876.8Q642.51 875.24 643.37 874.05Q644.23 872.85 645.75 872.17Q647.27 871.49 649.21 871.49L649.21 871.49Q651.09 871.49 652.47 872.1Q653.85 872.72 654.68 873.81Q655.52 874.89 655.82 876.35L655.82 876.35L653.1 876.82Q652.83 875.69 651.9 874.84Q650.97 874 649.21 874L649.21 874Q647.57 874 646.52 874.77Q645.46 875.54 645.46 876.69L645.46 876.69Q645.46 877.7 646.2 878.32Q646.94 878.94 648.45 879.29L648.45 879.29L651.26 879.96Q653.78 880.55 654.98 881.78Q656.19 883.01 656.19 884.92L656.19 884.92Q656.19 886.55 655.28 887.78Q654.38 889.02 652.77 889.71Q651.16 890.4 649.06 890.4M667.62 890.4L667.62 890.4Q665.13 890.4 663.26 889.21Q661.38 888.02 660.33 885.9Q659.27 883.77 659.27 880.99L659.27 880.99Q659.27 878.15 660.33 876.01Q661.38 873.88 663.26 872.68Q665.13 871.49 667.62 871.49L667.62 871.49Q670.13 871.49 672.02 872.68Q673.9 873.88 674.95 876.01Q675.99 878.15 675.99 880.99L675.99 880.99Q675.99 883.77 674.95 885.9Q673.9 888.02 672.02 889.21Q670.13 890.4 667.62 890.4M667.62 887.76L667.62 887.76Q669.43 887.76 670.63 886.85Q671.82 885.93 672.42 884.4Q673.02 882.86 673.02 880.99L673.02 880.99Q673.02 879.08 672.42 877.52Q671.82 875.97 670.63 875.05Q669.43 874.13 667.62 874.13L667.62 874.13Q665.83 874.13 664.64 875.05Q663.46 875.97 662.86 877.52Q662.26 879.08 662.26 880.99L662.26 880.99Q662.26 882.86 662.86 884.4Q663.46 885.93 664.64 886.85Q665.83 887.76 667.62 887.76M687.43 890.4L687.43 890.4Q684.94 890.4 683.06 889.21Q681.19 888.02 680.13 885.9Q679.08 883.77 679.08 880.99L679.08 880.99Q679.08 878.15 680.13 876.01Q681.19 873.88 683.06 872.68Q684.94 871.49 687.43 871.49L687.43 871.49Q688.82 871.49 690.04 871.88Q691.27 872.27 692.24 872.98Q693.22 873.68 693.9 874.69Q694.59 875.71 694.9 876.95L694.9 876.95L692.05 877.5Q691.86 876.75 691.46 876.14Q691.07 875.52 690.48 875.08Q689.89 874.63 689.12 874.38Q688.36 874.13 687.43 874.13L687.43 874.13Q685.64 874.13 684.45 875.05Q683.26 875.97 682.67 877.52Q682.07 879.08 682.07 880.99L682.07 880.99Q682.07 882.86 682.67 884.4Q683.26 885.93 684.45 886.85Q685.64 887.76 687.43 887.76L687.43 887.76Q688.38 887.76 689.15 887.51Q689.92 887.26 690.5 886.8Q691.08 886.35 691.48 885.71Q691.88 885.07 692.08 884.31L692.08 884.31L694.95 884.84Q694.65 886.1 693.96 887.12Q693.27 888.14 692.29 888.88Q691.3 889.62 690.06 890.01Q688.82 890.4 687.43 890.4M701.79 890L698.85 890L698.85 871.79L701.79 871.79L701.79 890M700.33 868.62L700.33 868.62Q699.5 868.62 698.9 868.04Q698.3 867.47 698.3 866.66L698.3 866.66Q698.3 865.84 698.9 865.27Q699.5 864.7 700.33 864.7L700.33 864.7Q701.18 864.7 701.77 865.27Q702.37 865.84 702.37 866.66L702.37 866.66Q702.37 867.47 701.77 868.04Q701.18 868.62 700.33 868.62M711.92 890.38L711.92 890.38Q710.17 890.38 708.75 889.73Q707.34 889.09 706.51 887.84Q705.68 886.6 705.68 884.8L705.68 884.8Q705.68 883.23 706.29 882.25Q706.9 881.27 707.93 880.71Q708.96 880.16 710.23 879.87Q711.5 879.59 712.81 879.42L712.81 879.42Q714.47 879.19 715.5 879.08Q716.52 878.96 716.99 878.69Q717.46 878.41 717.46 877.73L717.46 877.73L717.46 877.62Q717.46 876.52 717.02 875.74Q716.58 874.96 715.71 874.53Q714.84 874.1 713.58 874.1L713.58 874.1Q712.28 874.1 711.34 874.51Q710.39 874.93 709.82 875.57Q709.24 876.22 709.01 876.93L709.01 876.93L706.14 876.3Q706.65 874.64 707.77 873.59Q708.88 872.54 710.37 872.03Q711.87 871.52 713.51 871.52L713.51 871.52Q714.64 871.52 715.84 871.8Q717.05 872.09 718.08 872.78Q719.11 873.48 719.75 874.71Q720.38 875.94 720.38 877.81L720.38 877.81L720.38 890L717.5 890L717.5 887.49L717.33 887.49Q717.01 888.12 716.35 888.8Q715.69 889.47 714.6 889.93Q713.51 890.38 711.92 890.38M712.4 887.78L712.4 887.78Q714.08 887.78 715.2 887.14Q716.33 886.5 716.9 885.48Q717.46 884.46 717.46 883.31L717.46 883.31L717.46 880.87Q717.28 881.07 716.72 881.23Q716.17 881.38 715.43 881.52Q714.69 881.65 713.95 881.75Q713.21 881.85 712.68 881.92L712.68 881.92Q711.62 882.05 710.69 882.37Q709.76 882.7 709.19 883.3Q708.63 883.91 708.63 884.95L708.63 884.95Q708.63 885.87 709.11 886.5Q709.59 887.13 710.44 887.45Q711.29 887.78 712.4 887.78M725.27 865.26L728.2 865.26L728.2 890L725.27 890L725.27 865.26M745.24 890L742.3 890L742.3 871.79L745.24 871.79L745.24 890M743.78 868.62L743.78 868.62Q742.95 868.62 742.35 868.04Q741.75 867.47 741.75 866.66L741.75 866.66Q741.75 865.84 742.35 865.27Q742.95 864.7 743.78 864.7L743.78 864.7Q744.62 864.7 745.22 865.27Q745.82 865.84 745.82 866.66L745.82 866.66Q745.82 867.47 745.22 868.04Q744.62 868.62 743.78 868.62M753.06 879.16L753.06 879.16L753.06 890L750.12 890L750.12 871.79L752.96 871.79L752.97 876.2L752.43 876.2Q753.27 873.7 754.83 872.61Q756.39 871.52 758.48 871.52L758.48 871.52Q760.33 871.52 761.76 872.29Q763.18 873.07 764 874.61Q764.83 876.15 764.83 878.51L764.83 878.51L764.83 890L761.89 890L761.89 878.74Q761.89 876.55 760.78 875.37Q759.66 874.18 757.72 874.18L757.72 874.18Q756.41 874.18 755.35 874.73Q754.28 875.29 753.67 876.4Q753.06 877.52 753.06 879.16M796.54 884.65L778.09 884.65L778.09 882.11L789.26 865.26L791.14 865.26L791.14 869.02L789.93 869.02L781.48 881.78L781.48 881.92L796.54 881.92L796.54 884.65M793.03 890L790.06 890L790.06 883.91L790.08 882.71L790.08 865.26L793.03 865.26L793.03 890M812.72 890L809.78 890L809.78 871.79L812.64 871.79L812.66 875.74L812.39 875.74Q812.81 874.31 813.64 873.37Q814.47 872.42 815.56 871.94Q816.66 871.46 817.85 871.46L817.85 871.46Q819.89 871.46 821.21 872.68Q822.52 873.9 822.88 875.77L822.88 875.77L822.42 875.77Q822.77 874.48 823.62 873.51Q824.48 872.54 825.71 872Q826.95 871.46 828.43 871.46L828.43 871.46Q830.04 871.46 831.36 872.15Q832.68 872.85 833.47 874.26Q834.25 875.67 834.25 877.83L834.25 877.83L834.25 890L831.33 890L831.33 877.88Q831.33 875.86 830.2 874.99Q829.06 874.13 827.56 874.13L827.56 874.13Q826.3 874.13 825.39 874.65Q824.48 875.17 823.99 876.1Q823.5 877.02 823.5 878.2L823.5 878.2L823.5 890L820.56 890L820.56 877.58Q820.56 876.02 819.52 875.08Q818.48 874.13 816.91 874.13L816.91 874.13Q815.81 874.13 814.86 874.64Q813.9 875.14 813.31 876.15Q812.72 877.15 812.72 878.64L812.72 878.64L812.72 890M842.09 890L839.15 890L839.15 871.79L842.09 871.79L842.09 890M840.63 868.62L840.63 868.62Q839.8 868.62 839.2 868.04Q838.6 867.47 838.6 866.66L838.6 866.66Q838.6 865.84 839.2 865.27Q839.8 864.7 840.63 864.7L840.63 864.7Q841.48 864.7 842.07 865.27Q842.67 865.84 842.67 866.66L842.67 866.66Q842.67 867.47 842.07 868.04Q841.48 868.62 840.63 868.62M849.91 879.16L849.91 879.16L849.91 890L846.97 890L846.97 871.79L849.81 871.79L849.83 876.2L849.28 876.2Q850.13 873.7 851.69 872.61Q853.25 871.52 855.34 871.52L855.34 871.52Q857.18 871.52 858.61 872.29Q860.04 873.07 860.86 874.61Q861.68 876.15 861.68 878.51L861.68 878.51L861.68 890L858.74 890L858.74 878.74Q858.74 876.55 857.63 875.37Q856.52 874.18 854.57 874.18L854.57 874.18Q853.26 874.18 852.2 874.73Q851.14 875.29 850.52 876.4Q849.91 877.52 849.91 879.16M872.9 890.27L872.9 890.27Q871.08 890.27 869.64 889.49Q868.2 888.72 867.38 887.16Q866.56 885.6 866.56 883.28L866.56 883.28L866.56 871.79L869.5 871.79L869.5 883.04Q869.5 885.22 870.62 886.41Q871.74 887.61 873.68 887.61L873.68 887.61Q874.99 887.61 876.05 887.05Q877.1 886.5 877.72 885.38Q878.33 884.26 878.33 882.61L878.33 882.61L878.33 871.79L881.27 871.79L881.27 890L878.43 890L878.43 885.58L878.96 885.58Q878.1 888.11 876.53 889.19Q874.96 890.27 872.9 890.27M884.03 871.79L893.59 871.79L893.59 874.29L884.03 874.29L884.03 871.79M886.93 885.63L886.93 867.24L889.87 867.24L889.87 885.37Q889.87 886.55 890.34 887.06Q890.82 887.58 891.96 887.58L891.96 887.58Q892.28 887.58 892.72 887.53Q893.16 887.49 893.52 887.44L893.52 887.44L893.94 889.93Q893.49 890.05 892.92 890.1Q892.36 890.15 891.83 890.15L891.83 890.15Q889.47 890.15 888.2 888.98Q886.93 887.81 886.93 885.63L886.93 885.63M904.4 890.4L904.4 890.4Q901.74 890.4 899.84 889.21Q897.94 888.02 896.91 885.91Q895.88 883.79 895.88 881L895.88 881Q895.88 878.21 896.91 876.07Q897.94 873.93 899.79 872.71Q901.64 871.49 904.1 871.49L904.1 871.49Q905.69 871.49 907.14 872.04Q908.58 872.58 909.71 873.72Q910.84 874.86 911.49 876.6Q912.15 878.35 912.15 880.75L912.15 880.75L912.15 881.83L897.74 881.83L897.74 879.34L910.54 879.34L909.21 880.25Q909.21 878.43 908.61 877.04Q908.02 875.66 906.88 874.88Q905.74 874.11 904.1 874.11L904.1 874.11Q902.45 874.11 901.27 874.9Q900.1 875.69 899.47 877.01Q898.83 878.33 898.83 879.92L898.83 879.92L898.83 881.45Q898.83 883.43 899.52 884.85Q900.2 886.26 901.45 887.02Q902.7 887.78 904.41 887.78L904.41 887.78Q905.56 887.78 906.47 887.44Q907.38 887.09 908.02 886.44Q908.66 885.78 908.98 884.84L908.98 884.84L911.85 885.37Q911.45 886.86 910.41 887.99Q909.38 889.12 907.84 889.76Q906.31 890.4 904.4 890.4M922.31 890.4L922.31 890.4Q920.42 890.4 918.91 889.83Q917.41 889.25 916.46 888.1Q915.5 886.95 915.24 885.25L915.24 885.25L918.06 884.8Q918.37 886.33 919.46 887.09Q920.55 887.84 922.28 887.84L922.28 887.84Q924.17 887.84 925.29 887.04Q926.41 886.23 926.41 885.07L926.41 885.07Q926.41 884.11 925.72 883.48Q925.03 882.84 923.72 882.55L923.72 882.55L920.72 881.85Q918.23 881.25 916.99 880Q915.75 878.74 915.75 876.8L915.75 876.8Q915.75 875.24 916.61 874.05Q917.48 872.85 919 872.17Q920.52 871.49 922.46 871.49L922.46 871.49Q924.33 871.49 925.71 872.1Q927.09 872.72 927.93 873.81Q928.77 874.89 929.07 876.35L929.07 876.35L926.34 876.82Q926.08 875.69 925.15 874.84Q924.22 874 922.46 874L922.46 874Q920.81 874 919.76 874.77Q918.71 875.54 918.71 876.69L918.71 876.69Q918.71 877.7 919.45 878.32Q920.18 878.94 921.69 879.29L921.69 879.29L924.5 879.96Q927.02 880.55 928.23 881.78Q929.43 883.01 929.43 884.92L929.43 884.92Q929.43 886.55 928.53 887.78Q927.62 889.02 926.01 889.71Q924.4 890.4 922.31 890.4" fill="#9A958C"><title>From an idea to a reel on every social in 4 minutes</title></path>
<g transform="translate(360.52,1010)" filter="url(#drop)"><rect width="358.96000000000004" height="108" rx="54" fill="#FFD21E"/><path d="M70.2 68L70.2 41.64L78.52 41.64L78.52 68L70.2 68M58.76 45.36L58.76 38L89.96 38L89.96 45.36L58.76 45.36M93 52.84L91.48 45.16L99.8 45.16L101.16 53.32L101.16 68L93 68L93 52.84M111.88 44.8L111.88 44.8L111.88 51.76Q110.68 51.52 109.62 51.42Q108.56 51.32 107.68 51.32L107.68 51.32Q105.92 51.32 104.44 52.02Q102.96 52.72 102.06 54.32Q101.16 55.92 101.16 58.6L101.16 58.6L99.6 56.68Q99.92 54.2 100.56 52.02Q101.2 49.84 102.3 48.14Q103.4 46.44 105.04 45.46Q106.68 44.48 109.04 44.48L109.04 44.48Q109.72 44.48 110.44 44.56Q111.16 44.64 111.88 44.8M121.8 75.24L121.8 75.24Q119.28 75.24 117.32 74.62Q115.36 74 113.52 72.72L113.52 72.72L113.52 67.04Q115.4 68.24 117.04 68.76Q118.68 69.28 120.64 69.28L120.64 69.28Q122.28 69.28 123.56 68.56Q124.84 67.84 125.64 65.92L125.64 65.92L134.4 45.16L143.08 45.16L132.12 68.44Q130.96 70.96 129.3 72.46Q127.64 73.96 125.72 74.6Q123.8 75.24 121.8 75.24M129.96 65.88L122.08 65.88L112.36 45.16L121.36 45.16L129.96 65.88M154.48 68L154.48 44.8L158.6 45.6L162.68 44.8L162.68 68L154.48 68M158.56 42.92L158.56 42.92Q156.44 42.92 155.12 41.86Q153.8 40.8 153.8 38.96L153.8 38.96Q153.8 37.16 155.12 36.08Q156.44 35 158.56 35L158.56 35Q160.76 35 162.06 36.08Q163.36 37.16 163.36 38.96L163.36 38.96Q163.36 40.8 162.06 41.86Q160.76 42.92 158.56 42.92M169.4 51.2L164.76 51.2L164.76 47.64L169.4 45.76L172.92 39L177.56 39L177.56 45.16L187.16 45.16L187.16 51.2L177.56 51.2L177.56 57.92Q177.56 60.4 178.56 61.4Q179.56 62.4 182.2 62.4L182.2 62.4Q183.88 62.4 185.18 62.1Q186.48 61.8 187.56 61.32L187.56 61.32L187.56 67.48Q186.36 67.92 184.4 68.28Q182.44 68.64 180.36 68.64L180.36 68.64Q176.56 68.64 174.14 67.48Q171.72 66.32 170.56 64.14Q169.4 61.96 169.4 59.04L169.4 59.04L169.4 51.2M216.24 42.64L216.24 42.64Q213.56 42.64 212.5 43.58Q211.44 44.52 211.44 46.6L211.44 46.6L211.44 68L203.28 68L203.28 47Q203.28 43.68 204.64 41.34Q206 39 208.66 37.78Q211.32 36.56 215.24 36.56L215.24 36.56Q217 36.56 218.38 36.8Q219.76 37.04 221.32 37.48L221.32 37.48L221.32 43.48Q220.12 43.04 218.86 42.84Q217.6 42.64 216.24 42.64M220.76 53.08L198.64 53.08L198.64 47.04L220.76 47.04L220.76 53.08M223.6 52.84L222.08 45.16L230.4 45.16L231.76 53.32L231.76 68L223.6 68L223.6 52.84M242.48 44.8L242.48 44.8L242.48 51.76Q241.28 51.52 240.22 51.42Q239.16 51.32 238.28 51.32L238.28 51.32Q236.52 51.32 235.04 52.02Q233.56 52.72 232.66 54.32Q231.76 55.92 231.76 58.6L231.76 58.6L230.2 56.68Q230.52 54.2 231.16 52.02Q231.8 49.84 232.9 48.14Q234 46.44 235.64 45.46Q237.28 44.48 239.64 44.48L239.64 44.48Q240.32 44.48 241.04 44.56Q241.76 44.64 242.48 44.8M258.28 68.64L258.28 68.64Q254.12 68.64 250.86 67.12Q247.6 65.6 245.72 62.86Q243.84 60.12 243.84 56.48L243.84 56.48Q243.84 52.92 245.64 50.22Q247.44 47.52 250.58 46Q253.72 44.48 257.68 44.48L257.68 44.48Q261.8 44.48 264.7 46.26Q267.6 48.04 269.18 51.28Q270.76 54.52 270.76 58.92L270.76 58.92L250.44 58.92L250.44 54L266.16 54L263.48 55.72Q263.32 53.96 262.6 52.74Q261.88 51.52 260.7 50.88Q259.52 50.24 257.88 50.24L257.88 50.24Q256.08 50.24 254.8 50.96Q253.52 51.68 252.8 52.94Q252.08 54.2 252.08 55.88L252.08 55.88Q252.08 58.04 253.06 59.54Q254.04 61.04 255.94 61.84Q257.84 62.64 260.6 62.64L260.6 62.64Q263.12 62.64 265.62 61.98Q268.12 61.32 270.16 60.12L270.16 60.12L270.16 65.32Q267.8 66.92 264.78 67.78Q261.76 68.64 258.28 68.64M287.24 68.64L287.24 68.64Q283.08 68.64 279.82 67.12Q276.56 65.6 274.68 62.86Q272.8 60.12 272.8 56.48L272.8 56.48Q272.8 52.92 274.6 50.22Q276.4 47.52 279.54 46Q282.68 44.48 286.64 44.48L286.64 44.48Q290.76 44.48 293.66 46.26Q296.56 48.04 298.14 51.28Q299.72 54.52 299.72 58.92L299.72 58.92L279.4 58.92L279.4 54L295.12 54L292.44 55.72Q292.28 53.96 291.56 52.74Q290.84 51.52 289.66 50.88Q288.48 50.24 286.84 50.24L286.84 50.24Q285.04 50.24 283.76 50.96Q282.48 51.68 281.76 52.94Q281.04 54.2 281.04 55.88L281.04 55.88Q281.04 58.04 282.02 59.54Q283 61.04 284.9 61.84Q286.8 62.64 289.56 62.64L289.56 62.64Q292.08 62.64 294.58 61.98Q297.08 61.32 299.12 60.12L299.12 60.12L299.12 65.32Q296.76 66.92 293.74 67.78Q290.72 68.64 287.24 68.64" fill="#161512"><title>Try it free</title></path></g>
<g transform="translate(195.92000000000007,1210)" filter="url(#dropSoft)">
      <rect width="688.1599999999999" height="92" rx="46" fill="#161512" stroke="#FFD21E" stroke-width="2"/>
      <path d="M32.14 45.23L30.93 38.93L37.49 38.93L38.67 46.22L38.67 57.2L32.14 57.2L32.14 45.23M44.98 38.38L44.98 38.38Q47.5 38.38 49.26 39.44Q51.02 40.5 51.95 42.42Q52.88 44.34 52.88 46.96L52.88 46.96L52.88 57.2L46.35 57.2L46.35 47.92Q46.35 45.87 45.42 44.78Q44.5 43.7 42.74 43.7L42.74 43.7Q41.49 43.7 40.58 44.27Q39.66 44.85 39.17 45.9Q38.67 46.96 38.67 48.4L38.67 48.4L36.66 47.34Q37.04 44.43 38.22 42.43Q39.41 40.43 41.15 39.41Q42.9 38.38 44.98 38.38M59.15 38.38L59.15 38.38Q61.68 38.38 63.46 39.44Q65.23 40.5 66.16 42.42Q67.09 44.34 67.09 46.96L67.09 46.96L67.09 57.2L60.56 57.2L60.56 47.92Q60.56 45.87 59.63 44.78Q58.7 43.7 56.94 43.7L56.94 43.7Q55.7 43.7 54.78 44.27Q53.87 44.85 53.38 45.9Q52.88 46.96 52.88 48.4L52.88 48.4L50.86 47.34Q51.25 44.43 52.42 42.43Q53.58 40.43 55.34 39.41Q57.1 38.38 59.15 38.38M81.01 57.71L81.01 57.71Q77.49 57.71 74.86 56.51Q72.24 55.31 70.77 53.12Q69.3 50.93 69.3 48.08L69.3 48.08Q69.3 45.17 70.77 42.99Q72.24 40.82 74.86 39.6Q77.49 38.38 81.01 38.38L81.01 38.38Q84.5 38.38 87.14 39.6Q89.78 40.82 91.25 42.99Q92.72 45.17 92.72 48.08L92.72 48.08Q92.72 50.93 91.25 53.12Q89.78 55.31 87.14 56.51Q84.5 57.71 81.01 57.71M81.01 52.88L81.01 52.88Q82.61 52.88 83.74 52.3Q84.88 51.73 85.49 50.64Q86.1 49.55 86.1 48.08L86.1 48.08Q86.1 46.54 85.49 45.47Q84.88 44.4 83.74 43.82Q82.61 43.25 81.01 43.25L81.01 43.25Q79.41 43.25 78.26 43.82Q77.1 44.4 76.5 45.47Q75.89 46.54 75.89 48.05L75.89 48.05Q75.89 49.55 76.5 50.64Q77.1 51.73 78.26 52.3Q79.41 52.88 81.01 52.88M95.5 45.23L94.29 38.93L100.85 38.93L102.03 46.22L102.03 57.2L95.5 57.2L95.5 45.23M108.75 38.38L108.75 38.38Q111.38 38.38 113.23 39.44Q115.09 40.5 116.06 42.42Q117.04 44.34 117.04 46.96L117.04 46.96L117.04 57.2L110.51 57.2L110.51 47.92Q110.51 45.87 109.47 44.78Q108.43 43.7 106.48 43.7L106.48 43.7Q105.14 43.7 104.13 44.27Q103.12 44.85 102.58 45.9Q102.03 46.96 102.03 48.4L102.03 48.4L100.02 47.34Q100.4 44.43 101.65 42.43Q102.9 40.43 104.72 39.41Q106.54 38.38 108.75 38.38M122.19 43.76L118.48 43.76L118.48 40.91L122.19 39.41L125.01 34L128.72 34L128.72 38.93L136.4 38.93L136.4 43.76L128.72 43.76L128.72 49.14Q128.72 51.12 129.52 51.92Q130.32 52.72 132.43 52.72L132.43 52.72Q133.78 52.72 134.82 52.48Q135.86 52.24 136.72 51.86L136.72 51.86L136.72 56.78Q135.76 57.14 134.19 57.42Q132.62 57.71 130.96 57.71L130.96 57.71Q127.92 57.71 125.98 56.78Q124.05 55.86 123.12 54.11Q122.19 52.37 122.19 50.03L122.19 50.03L122.19 43.76M145.07 62.99L145.07 62.99Q143.06 62.99 141.49 62.5Q139.92 62 138.45 60.98L138.45 60.98L138.45 56.43Q139.95 57.39 141.26 57.81Q142.58 58.22 144.14 58.22L144.14 58.22Q145.46 58.22 146.48 57.65Q147.5 57.07 148.14 55.54L148.14 55.54L155.15 38.93L162.1 38.93L153.33 57.55Q152.4 59.57 151.07 60.77Q149.74 61.97 148.21 62.48Q146.67 62.99 145.07 62.99M151.6 55.5L145.3 55.5L137.52 38.93L144.72 38.93L151.6 55.5M166.61 57.52L166.61 57.52Q165.58 57.52 164.74 57.04Q163.89 56.56 163.41 55.71Q162.93 54.86 162.93 53.84L162.93 53.84Q162.93 52.82 163.41 51.98Q163.89 51.15 164.74 50.66Q165.58 50.16 166.61 50.16L166.61 50.16Q167.66 50.16 168.5 50.66Q169.33 51.15 169.81 51.98Q170.29 52.82 170.29 53.84L170.29 53.84Q170.29 54.86 169.81 55.71Q169.33 56.56 168.5 57.04Q167.66 57.52 166.61 57.52M185.87 36.91L185.87 36.91Q183.73 36.91 182.88 37.66Q182.03 38.42 182.03 40.08L182.03 40.08L182.03 57.2L175.5 57.2L175.5 40.4Q175.5 37.74 176.59 35.87Q177.68 34 179.81 33.02Q181.94 32.05 185.07 32.05L185.07 32.05Q186.48 32.05 187.58 32.24Q188.69 32.43 189.94 32.78L189.94 32.78L189.94 37.58Q188.98 37.23 187.97 37.07Q186.96 36.91 185.87 36.91M189.49 45.26L171.79 45.26L171.79 40.43L189.49 40.43L189.49 45.26M214.7 57.2L207.92 57.2L207.09 50.61L207.95 48.08L207.09 45.55L207.92 38.93L214.7 38.93L213.55 48.05L214.7 57.2M209.46 48.08L209.46 48.08Q209.01 50.96 207.68 53.14Q206.35 55.31 204.32 56.51Q202.29 57.71 199.7 57.71L199.7 57.71Q197.01 57.71 194.98 56.51Q192.94 55.31 191.79 53.12Q190.64 50.93 190.64 48.08L190.64 48.08Q190.64 45.17 191.79 42.99Q192.94 40.82 194.98 39.6Q197.01 38.38 199.7 38.38L199.7 38.38Q202.29 38.38 204.32 39.58Q206.35 40.78 207.7 42.94Q209.04 45.1 209.46 48.08M197.26 48.08L197.26 48.08Q197.26 49.42 197.82 50.48Q198.38 51.54 199.38 52.13Q200.37 52.72 201.65 52.72L201.65 52.72Q202.99 52.72 204.18 52.13Q205.36 51.54 206.26 50.48Q207.15 49.42 207.6 48.08L207.6 48.08Q207.15 46.7 206.26 45.65Q205.36 44.59 204.18 43.98Q202.99 43.38 201.65 43.38L201.65 43.38Q200.37 43.38 199.38 43.98Q198.38 44.59 197.82 45.65Q197.26 46.7 197.26 48.08M238.7 51.25L238.7 51.25Q238.7 53.36 237.42 54.8Q236.14 56.24 233.78 56.98Q231.41 57.71 228.08 57.71L228.08 57.71Q224.66 57.71 222.08 56.88Q219.5 56.05 218.06 54.54Q216.62 53.04 216.53 51.06L216.53 51.06L223.15 51.06Q223.38 51.79 224.03 52.32Q224.69 52.85 225.78 53.12Q226.86 53.39 228.37 53.39L228.37 53.39Q230.32 53.39 231.33 53.01Q232.34 52.62 232.34 51.86L232.34 51.86Q232.34 51.25 231.57 50.94Q230.8 50.64 228.94 50.48L228.94 50.48L225.71 50.22Q222.48 50 220.58 49.25Q218.67 48.5 217.84 47.3Q217.01 46.1 217.01 44.56L217.01 44.56Q217.01 42.48 218.3 41.12Q219.6 39.76 221.92 39.07Q224.24 38.38 227.34 38.38L227.34 38.38Q230.42 38.38 232.82 39.18Q235.22 39.98 236.66 41.41Q238.1 42.83 238.32 44.75L238.32 44.75L231.7 44.75Q231.54 44.14 230.99 43.65Q230.45 43.15 229.49 42.83Q228.53 42.51 227.02 42.51L227.02 42.51Q225.26 42.51 224.35 42.9Q223.44 43.28 223.44 43.98L223.44 43.98Q223.44 44.53 224 44.85Q224.56 45.17 226.1 45.3L226.1 45.3L230.35 45.62Q233.52 45.81 235.34 46.53Q237.17 47.25 237.94 48.43Q238.7 49.62 238.7 51.25M243.25 43.76L239.54 43.76L239.54 40.91L243.25 39.41L246.06 34L249.78 34L249.78 38.93L257.46 38.93L257.46 43.76L249.78 43.76L249.78 49.14Q249.78 51.12 250.58 51.92Q251.38 52.72 253.49 52.72L253.49 52.72Q254.83 52.72 255.87 52.48Q256.91 52.24 257.78 51.86L257.78 51.86L257.78 56.78Q256.82 57.14 255.25 57.42Q253.68 57.71 252.02 57.71L252.02 57.71Q248.98 57.71 247.04 56.78Q245.1 55.86 244.18 54.11Q243.25 52.37 243.25 50.03L243.25 50.03L243.25 43.76M258.77 58.06L267.73 32.34L272.59 32.34L263.63 58.06L258.77 58.06M274.83 45.07L273.62 38.93L280.27 38.93L281.36 45.46L281.36 57.2L274.83 57.2L274.83 45.07M289.94 38.64L289.94 38.64L289.94 44.21Q288.98 44.02 288.13 43.94Q287.28 43.86 286.58 43.86L286.58 43.86Q285.17 43.86 283.98 44.42Q282.8 44.98 282.08 46.26Q281.36 47.54 281.36 49.68L281.36 49.68L280.11 48.14Q280.37 46.16 280.88 44.42Q281.39 42.67 282.27 41.31Q283.15 39.95 284.46 39.17Q285.78 38.38 287.66 38.38L287.66 38.38Q288.21 38.38 288.78 38.45Q289.36 38.51 289.94 38.64M290.51 58.06L299.47 32.34L304.34 32.34L295.38 58.06L290.51 58.06" fill="#FBF7EF"><title>monty.fast/r/</title></path>
      <g data-code="1" data-x="304.75199999999995" data-y="57.2" data-size="32" data-fill="#FFD21E" data-track="-0.01" data-anchor="start" data-max="353.4"><path d="M322.86 57.2L316.21 57.2L316.21 45.52L322.86 45.52L322.86 57.2M317.39 49.04L304.94 33.2L312.3 33.2L321.01 44.27L318.03 44.27L326.7 33.2L334.06 33.2L321.65 48.98L317.39 49.04M349.39 57.71L349.39 57.71Q345.14 57.71 341.92 56.14Q338.7 54.58 336.93 51.76Q335.15 48.94 335.15 45.2L335.15 45.2Q335.15 41.46 336.93 38.64Q338.7 35.82 341.92 34.26Q345.14 32.69 349.39 32.69L349.39 32.69Q353.68 32.69 356.88 34.26Q360.08 35.82 361.87 38.64Q363.66 41.46 363.66 45.2L363.66 45.2Q363.66 48.94 361.87 51.76Q360.08 54.58 356.88 56.14Q353.68 57.71 349.39 57.71M349.39 51.79L349.39 51.79Q351.73 51.79 353.42 50.99Q355.12 50.19 356.03 48.72Q356.94 47.25 356.94 45.2L356.94 45.2Q356.94 43.15 356.03 41.68Q355.12 40.21 353.42 39.41Q351.73 38.61 349.39 38.61L349.39 38.61Q347.09 38.61 345.39 39.41Q343.7 40.21 342.77 41.68Q341.84 43.15 341.84 45.2L341.84 45.2Q341.84 47.25 342.77 48.72Q343.7 50.19 345.39 50.99Q347.09 51.79 349.39 51.79M373.07 33.2L373.07 46.48Q373.07 48.11 373.7 49.31Q374.32 50.51 375.55 51.15Q376.78 51.79 378.58 51.79L378.58 51.79Q380.4 51.79 381.62 51.15Q382.83 50.51 383.44 49.31Q384.05 48.11 384.05 46.48L384.05 46.48L384.05 33.2L390.7 33.2L390.7 46.8Q390.7 50.1 389.18 52.54Q387.66 54.99 384.94 56.35Q382.22 57.71 378.58 57.71L378.58 57.71Q374.96 57.71 372.22 56.35Q369.49 54.99 367.97 52.54Q366.45 50.1 366.45 46.8L366.45 46.8L366.45 33.2L373.07 33.2M399.12 48.56L399.12 43.7L407.86 43.7Q409.46 43.7 410.35 42.96Q411.25 42.22 411.25 40.91L411.25 40.91Q411.25 39.57 410.35 38.85Q409.46 38.13 407.86 38.13L407.86 38.13L398.19 38.13L401.17 34.96L401.17 57.2L394.54 57.2L394.54 33.2L408.78 33.2Q411.54 33.2 413.58 34.18Q415.63 35.15 416.78 36.86Q417.94 38.58 417.94 40.91L417.94 40.91Q417.94 43.18 416.78 44.91Q415.63 46.64 413.58 47.6Q411.54 48.56 408.78 48.56L408.78 48.56L399.12 48.56M411.09 57.2L402.7 45.97L410.16 45.97L418.77 57.2L411.09 57.2M418.1 62.54L418.1 58.16L435.7 58.16L435.7 62.54L418.1 62.54M456.53 47.15L463.18 47.15Q462.83 50.32 461.01 52.7Q459.18 55.09 456.22 56.4Q453.26 57.71 449.42 57.71L449.42 57.71Q445.23 57.71 442.1 56.14Q438.96 54.58 437.22 51.76Q435.47 48.94 435.47 45.2L435.47 45.2Q435.47 41.46 437.22 38.64Q438.96 35.82 442.1 34.26Q445.23 32.69 449.42 32.69L449.42 32.69Q453.26 32.69 456.22 34Q459.18 35.31 461.01 37.7Q462.83 40.08 463.18 43.25L463.18 43.25L456.53 43.25Q456.21 41.71 455.28 40.64Q454.35 39.57 452.86 38.99Q451.38 38.42 449.42 38.42L449.42 38.42Q447.18 38.42 445.55 39.23Q443.92 40.05 443.06 41.57Q442.19 43.09 442.19 45.2L442.19 45.2Q442.19 47.31 443.06 48.83Q443.92 50.35 445.55 51.17Q447.18 51.98 449.42 51.98L449.42 51.98Q451.38 51.98 452.86 51.44Q454.35 50.9 455.28 49.81Q456.21 48.72 456.53 47.15L456.53 47.15M479.28 57.71L479.28 57.71Q475.02 57.71 471.81 56.14Q468.59 54.58 466.82 51.76Q465.04 48.94 465.04 45.2L465.04 45.2Q465.04 41.46 466.82 38.64Q468.59 35.82 471.81 34.26Q475.02 32.69 479.28 32.69L479.28 32.69Q483.57 32.69 486.77 34.26Q489.97 35.82 491.76 38.64Q493.55 41.46 493.55 45.2L493.55 45.2Q493.55 48.94 491.76 51.76Q489.97 54.58 486.77 56.14Q483.57 57.71 479.28 57.71M479.28 51.79L479.28 51.79Q481.62 51.79 483.31 50.99Q485.01 50.19 485.92 48.72Q486.83 47.25 486.83 45.2L486.83 45.2Q486.83 43.15 485.92 41.68Q485.01 40.21 483.31 39.41Q481.62 38.61 479.28 38.61L479.28 38.61Q476.98 38.61 475.28 39.41Q473.58 40.21 472.66 41.68Q471.73 43.15 471.73 45.2L471.73 45.2Q471.73 47.25 472.66 48.72Q473.58 50.19 475.28 50.99Q476.98 51.79 479.28 51.79M496.66 33.2L508.62 33.2Q512.88 33.2 516.1 34.69Q519.31 36.18 521.09 38.88Q522.86 41.58 522.86 45.2L522.86 45.2Q522.86 48.82 521.09 51.52Q519.31 54.22 516.1 55.71Q512.88 57.2 508.62 57.2L508.62 57.2L496.66 57.2L496.66 33.2M503.25 35.98L503.25 54.42L500.08 51.31L509.14 51.31Q511.28 51.31 512.86 50.56Q514.45 49.81 515.31 48.43Q516.18 47.06 516.18 45.2L516.18 45.2Q516.18 43.31 515.31 41.95Q514.45 40.59 512.86 39.84Q511.28 39.09 509.14 39.09L509.14 39.09L500.08 39.09L503.25 35.98M528.91 42.8L546.48 42.8L546.48 47.6L528.91 47.6L528.91 42.8M531.86 35.57L533.42 45.2L531.86 54.83L529.17 51.82L547.54 51.82L547.54 57.2L525.23 57.2L527.06 45.2L525.23 33.2L547.38 33.2L547.38 38.58L529.17 38.58L531.86 35.57" fill="#FFD21E"><title>YOUR_CODE</title></path></g>
    </g>
<path d="M317.03 1345L324.9 1345L324.9 1347.07L317.03 1347.07L317.03 1345M319.42 1356.4L319.42 1341.26L321.84 1341.26L321.84 1356.19Q321.84 1357.16 322.23 1357.58Q322.62 1358 323.56 1358L323.56 1358Q323.82 1358 324.18 1357.97Q324.54 1357.94 324.85 1357.89L324.85 1357.89L325.19 1359.95Q324.82 1360.04 324.35 1360.08Q323.89 1360.12 323.45 1360.12L323.45 1360.12Q321.51 1360.12 320.46 1359.16Q319.42 1358.2 319.42 1356.4L319.42 1356.4M330.22 1351.07L330.22 1351.07L330.22 1360L327.8 1360L327.8 1339.63L330.22 1339.63L330.22 1348.64L329.7 1348.64Q330.4 1346.57 331.68 1345.68Q332.97 1344.78 334.69 1344.78L334.69 1344.78Q336.21 1344.78 337.39 1345.42Q338.57 1346.05 339.24 1347.33Q339.91 1348.6 339.91 1350.54L339.91 1350.54L339.91 1360L337.49 1360L337.49 1350.73Q337.49 1348.93 336.58 1347.95Q335.66 1346.97 334.06 1346.97L334.06 1346.97Q332.98 1346.97 332.11 1347.43Q331.23 1347.89 330.72 1348.8Q330.22 1349.72 330.22 1351.07M350.22 1360.33L350.22 1360.33Q348.03 1360.33 346.47 1359.35Q344.9 1358.37 344.05 1356.63Q343.21 1354.89 343.21 1352.59L343.21 1352.59Q343.21 1350.29 344.05 1348.53Q344.9 1346.77 346.43 1345.76Q347.95 1344.76 349.97 1344.76L349.97 1344.76Q351.29 1344.76 352.48 1345.21Q353.67 1345.66 354.6 1346.59Q355.53 1347.53 356.07 1348.97Q356.61 1350.4 356.61 1352.38L356.61 1352.38L356.61 1353.27L344.74 1353.27L344.74 1351.22L355.28 1351.22L354.19 1351.97Q354.19 1350.47 353.69 1349.33Q353.2 1348.19 352.26 1347.55Q351.33 1346.92 349.97 1346.92L349.97 1346.92Q348.62 1346.92 347.65 1347.57Q346.68 1348.21 346.16 1349.3Q345.64 1350.39 345.64 1351.7L345.64 1351.7L345.64 1352.96Q345.64 1354.59 346.2 1355.75Q346.76 1356.92 347.79 1357.55Q348.83 1358.17 350.23 1358.17L350.23 1358.17Q351.18 1358.17 351.93 1357.89Q352.68 1357.61 353.21 1357.07Q353.73 1356.53 353.99 1355.75L353.99 1355.75L356.36 1356.19Q356.03 1357.42 355.18 1358.35Q354.32 1359.28 353.06 1359.8Q351.79 1360.33 350.22 1360.33M373.56 1360.33L373.56 1360.33Q371.51 1360.33 369.96 1359.35Q368.42 1358.37 367.55 1356.62Q366.68 1354.87 366.68 1352.58L366.68 1352.58Q366.68 1350.24 367.55 1348.48Q368.42 1346.72 369.96 1345.74Q371.51 1344.76 373.56 1344.76L373.56 1344.76Q374.71 1344.76 375.71 1345.08Q376.72 1345.4 377.52 1345.98Q378.33 1346.56 378.89 1347.39Q379.45 1348.23 379.71 1349.25L379.71 1349.25L377.36 1349.71Q377.21 1349.09 376.88 1348.58Q376.55 1348.08 376.07 1347.71Q375.58 1347.34 374.95 1347.13Q374.32 1346.93 373.56 1346.93L373.56 1346.93Q372.08 1346.93 371.1 1347.69Q370.13 1348.45 369.63 1349.73Q369.14 1351 369.14 1352.58L369.14 1352.58Q369.14 1354.12 369.63 1355.39Q370.13 1356.65 371.1 1357.4Q372.08 1358.15 373.56 1358.15L373.56 1358.15Q374.34 1358.15 374.97 1357.95Q375.61 1357.74 376.09 1357.37Q376.57 1356.99 376.89 1356.47Q377.22 1355.94 377.39 1355.31L377.39 1355.31L379.75 1355.75Q379.51 1356.79 378.94 1357.63Q378.37 1358.47 377.56 1359.08Q376.74 1359.69 375.73 1360.01Q374.71 1360.33 373.56 1360.33M389.1 1360.33L389.1 1360.33Q387.05 1360.33 385.51 1359.35Q383.96 1358.37 383.09 1356.62Q382.23 1354.87 382.23 1352.58L382.23 1352.58Q382.23 1350.24 383.09 1348.48Q383.96 1346.72 385.51 1345.74Q387.05 1344.76 389.1 1344.76L389.1 1344.76Q391.17 1344.76 392.72 1345.74Q394.27 1346.72 395.13 1348.48Q395.99 1350.24 395.99 1352.58L395.99 1352.58Q395.99 1354.87 395.13 1356.62Q394.27 1358.37 392.72 1359.35Q391.17 1360.33 389.1 1360.33M389.1 1358.15L389.1 1358.15Q390.59 1358.15 391.58 1357.4Q392.56 1356.65 393.05 1355.39Q393.55 1354.12 393.55 1352.58L393.55 1352.58Q393.55 1351 393.05 1349.73Q392.56 1348.45 391.58 1347.69Q390.59 1346.93 389.1 1346.93L389.1 1346.93Q387.63 1346.93 386.65 1347.69Q385.67 1348.45 385.18 1349.73Q384.69 1351 384.69 1352.58L384.69 1352.58Q384.69 1354.12 385.18 1355.39Q385.67 1356.65 386.65 1357.4Q387.63 1358.15 389.1 1358.15M404.94 1360.31L404.94 1360.31Q403.05 1360.31 401.6 1359.35Q400.15 1358.39 399.34 1356.64Q398.54 1354.89 398.54 1352.52L398.54 1352.52Q398.54 1350.17 399.35 1348.43Q400.16 1346.68 401.61 1345.73Q403.06 1344.78 404.95 1344.78L404.95 1344.78Q406.26 1344.78 407.13 1345.2Q408 1345.62 408.54 1346.21Q409.09 1346.79 409.41 1347.34L409.41 1347.34L409.54 1347.34L409.54 1339.63L411.96 1339.63L411.96 1360L409.61 1360L409.61 1357.69L409.42 1357.69Q409.09 1358.25 408.53 1358.86Q407.97 1359.47 407.1 1359.89Q406.23 1360.31 404.94 1360.31M405.3 1358.14L405.3 1358.14Q406.69 1358.14 407.65 1357.43Q408.61 1356.72 409.12 1355.45Q409.63 1354.18 409.63 1352.51L409.63 1352.51Q409.63 1350.83 409.13 1349.58Q408.63 1348.34 407.66 1347.64Q406.69 1346.94 405.3 1346.94L405.3 1346.94Q403.92 1346.94 402.96 1347.65Q402 1348.35 401.5 1349.6Q401 1350.85 401 1352.51L401 1352.51Q401 1354.16 401.5 1355.43Q402.01 1356.71 402.97 1357.42Q403.94 1358.14 405.3 1358.14M422.26 1360.33L422.26 1360.33Q420.07 1360.33 418.5 1359.35Q416.94 1358.37 416.09 1356.63Q415.24 1354.89 415.24 1352.59L415.24 1352.59Q415.24 1350.29 416.09 1348.53Q416.94 1346.77 418.46 1345.76Q419.99 1344.76 422.01 1344.76L422.01 1344.76Q423.32 1344.76 424.51 1345.21Q425.7 1345.66 426.63 1346.59Q427.56 1347.53 428.1 1348.97Q428.64 1350.4 428.64 1352.38L428.64 1352.38L428.64 1353.27L416.78 1353.27L416.78 1351.22L427.32 1351.22L426.22 1351.97Q426.22 1350.47 425.73 1349.33Q425.24 1348.19 424.3 1347.55Q423.37 1346.92 422.01 1346.92L422.01 1346.92Q420.66 1346.92 419.69 1347.57Q418.72 1348.21 418.2 1349.3Q417.68 1350.39 417.68 1351.7L417.68 1351.7L417.68 1352.96Q417.68 1354.59 418.24 1355.75Q418.8 1356.92 419.83 1357.55Q420.86 1358.17 422.27 1358.17L422.27 1358.17Q423.21 1358.17 423.97 1357.89Q424.72 1357.61 425.25 1357.07Q425.77 1356.53 426.03 1355.75L426.03 1355.75L428.4 1356.19Q428.07 1357.42 427.21 1358.35Q426.36 1359.28 425.09 1359.8Q423.83 1360.33 422.26 1360.33M445.61 1366L445.61 1366Q443.93 1366 442.67 1365.54Q441.41 1365.09 440.59 1364.29Q439.77 1363.49 439.39 1362.46L439.39 1362.46L441.51 1361.6Q441.79 1362.16 442.29 1362.69Q442.79 1363.21 443.6 1363.55Q444.41 1363.88 445.61 1363.88L445.61 1363.88Q447.46 1363.88 448.6 1362.97Q449.75 1362.05 449.75 1360.18L449.75 1360.18L449.75 1357.4L449.59 1357.4Q449.25 1357.98 448.7 1358.56Q448.15 1359.14 447.28 1359.54Q446.42 1359.93 445.12 1359.93L445.12 1359.93Q443.27 1359.93 441.82 1359.04Q440.37 1358.14 439.55 1356.47Q438.72 1354.79 438.72 1352.45L438.72 1352.45Q438.72 1350.13 439.54 1348.41Q440.36 1346.68 441.81 1345.73Q443.26 1344.78 445.14 1344.78L445.14 1344.78Q446.44 1344.78 447.32 1345.19Q448.19 1345.6 448.75 1346.21Q449.31 1346.81 449.64 1347.38L449.64 1347.38L449.81 1347.38L449.81 1345L452.16 1345L452.16 1360.26Q452.16 1362.28 451.27 1363.55Q450.38 1364.83 448.89 1365.41Q447.4 1366 445.61 1366M445.5 1357.77L445.5 1357.77Q446.88 1357.77 447.84 1357.12Q448.81 1356.47 449.31 1355.27Q449.82 1354.07 449.82 1352.41L449.82 1352.41Q449.82 1350.79 449.32 1349.55Q448.82 1348.32 447.86 1347.63Q446.89 1346.94 445.5 1346.94L445.5 1346.94Q444.12 1346.94 443.16 1347.64Q442.19 1348.34 441.69 1349.57Q441.18 1350.8 441.18 1352.41L441.18 1352.41Q441.18 1354.05 441.69 1355.26Q442.19 1356.46 443.16 1357.12Q444.13 1357.77 445.5 1357.77M462.45 1360.33L462.45 1360.33Q460.27 1360.33 458.7 1359.35Q457.13 1358.37 456.29 1356.63Q455.44 1354.89 455.44 1352.59L455.44 1352.59Q455.44 1350.29 456.29 1348.53Q457.13 1346.77 458.66 1345.76Q460.18 1344.76 462.21 1344.76L462.21 1344.76Q463.52 1344.76 464.71 1345.21Q465.9 1345.66 466.83 1346.59Q467.76 1347.53 468.3 1348.97Q468.84 1350.4 468.84 1352.38L468.84 1352.38L468.84 1353.27L456.97 1353.27L456.97 1351.22L467.51 1351.22L466.42 1351.97Q466.42 1350.47 465.93 1349.33Q465.43 1348.19 464.5 1347.55Q463.56 1346.92 462.21 1346.92L462.21 1346.92Q460.85 1346.92 459.88 1347.57Q458.91 1348.21 458.39 1349.3Q457.87 1350.39 457.87 1351.7L457.87 1351.7L457.87 1352.96Q457.87 1354.59 458.43 1355.75Q458.99 1356.92 460.03 1357.55Q461.06 1358.17 462.47 1358.17L462.47 1358.17Q463.41 1358.17 464.16 1357.89Q464.91 1357.61 465.44 1357.07Q465.97 1356.53 466.23 1355.75L466.23 1355.75L468.59 1356.19Q468.26 1357.42 467.41 1358.35Q466.55 1359.28 465.29 1359.8Q464.03 1360.33 462.45 1360.33M470.3 1345L478.18 1345L478.18 1347.07L470.3 1347.07L470.3 1345M472.69 1356.4L472.69 1341.26L475.11 1341.26L475.11 1356.19Q475.11 1357.16 475.5 1357.58Q475.89 1358 476.84 1358L476.84 1358Q477.1 1358 477.46 1357.97Q477.82 1357.94 478.12 1357.89L478.12 1357.89L478.46 1359.95Q478.09 1360.04 477.63 1360.08Q477.16 1360.12 476.73 1360.12L476.73 1360.12Q474.79 1360.12 473.74 1359.16Q472.69 1358.2 472.69 1356.4L472.69 1356.4M485.94 1360.33L485.94 1360.33Q484.38 1360.33 483.15 1359.86Q481.91 1359.38 481.12 1358.43Q480.34 1357.48 480.12 1356.09L480.12 1356.09L482.44 1355.72Q482.7 1356.98 483.6 1357.6Q484.49 1358.22 485.91 1358.22L485.91 1358.22Q487.47 1358.22 488.4 1357.56Q489.32 1356.9 489.32 1355.94L489.32 1355.94Q489.32 1355.15 488.75 1354.63Q488.18 1354.11 487.1 1353.86L487.1 1353.86L484.63 1353.29Q482.58 1352.79 481.56 1351.76Q480.54 1350.73 480.54 1349.13L480.54 1349.13Q480.54 1347.85 481.25 1346.86Q481.96 1345.88 483.21 1345.32Q484.46 1344.76 486.06 1344.76L486.06 1344.76Q487.61 1344.76 488.74 1345.26Q489.88 1345.77 490.57 1346.66Q491.26 1347.56 491.51 1348.76L491.51 1348.76L489.26 1349.14Q489.04 1348.21 488.28 1347.52Q487.51 1346.82 486.06 1346.82L486.06 1346.82Q484.71 1346.82 483.84 1347.46Q482.97 1348.09 482.97 1349.04L482.97 1349.04Q482.97 1349.87 483.58 1350.38Q484.19 1350.89 485.44 1351.18L485.44 1351.18L487.75 1351.73Q489.82 1352.22 490.82 1353.23Q491.81 1354.24 491.81 1355.82L491.81 1355.82Q491.81 1357.16 491.06 1358.17Q490.32 1359.19 488.99 1359.76Q487.66 1360.33 485.94 1360.33M502.55 1365.59L502.55 1365.59L502.98 1363.49L503.62 1363.54Q504.28 1363.66 504.8 1363.54Q505.33 1363.42 505.75 1362.95Q506.18 1362.47 506.49 1361.54L506.49 1361.54L507.05 1360.01L501.29 1345L503.93 1345L507.13 1353.81Q507.61 1355.11 507.97 1356.38Q508.34 1357.66 508.72 1358.88L508.72 1358.88L507.91 1358.88Q508.28 1357.66 508.65 1356.38Q509.02 1355.09 509.48 1353.81L509.48 1353.81L512.7 1345L515.31 1345L508.61 1362.42Q508.17 1363.55 507.54 1364.3Q506.91 1365.04 506.09 1365.41Q505.26 1365.78 504.23 1365.78L504.23 1365.78Q503.67 1365.78 503.24 1365.72Q502.8 1365.66 502.55 1365.59M523.54 1360.33L523.54 1360.33Q521.49 1360.33 519.94 1359.35Q518.4 1358.37 517.53 1356.62Q516.66 1354.87 516.66 1352.58L516.66 1352.58Q516.66 1350.24 517.53 1348.48Q518.4 1346.72 519.94 1345.74Q521.49 1344.76 523.54 1344.76L523.54 1344.76Q525.6 1344.76 527.16 1345.74Q528.71 1346.72 529.57 1348.48Q530.43 1350.24 530.43 1352.58L530.43 1352.58Q530.43 1354.87 529.57 1356.62Q528.71 1358.37 527.16 1359.35Q525.6 1360.33 523.54 1360.33M523.54 1358.15L523.54 1358.15Q525.03 1358.15 526.01 1357.4Q527 1356.65 527.49 1355.39Q527.98 1354.12 527.98 1352.58L527.98 1352.58Q527.98 1351 527.49 1349.73Q527 1348.45 526.01 1347.69Q525.03 1346.93 523.54 1346.93L523.54 1346.93Q522.06 1346.93 521.08 1347.69Q520.11 1348.45 519.62 1349.73Q519.12 1351 519.12 1352.58L519.12 1352.58Q519.12 1354.12 519.62 1355.39Q520.11 1356.65 521.08 1357.4Q522.06 1358.15 523.54 1358.15M538.93 1360.22L538.93 1360.22Q537.43 1360.22 536.25 1359.58Q535.06 1358.95 534.39 1357.66Q533.71 1356.38 533.71 1354.46L533.71 1354.46L533.71 1345L536.13 1345L536.13 1354.27Q536.13 1356.06 537.05 1357.05Q537.98 1358.03 539.58 1358.03L539.58 1358.03Q540.66 1358.03 541.52 1357.57Q542.39 1357.12 542.9 1356.19Q543.4 1355.27 543.4 1353.92L543.4 1353.92L543.4 1345L545.82 1345L545.82 1360L543.49 1360L543.49 1356.36L543.92 1356.36Q543.21 1358.44 541.92 1359.33Q540.63 1360.22 538.93 1360.22M561.77 1360.31L561.77 1360.31Q560.33 1360.31 559.16 1359.78Q557.99 1359.25 557.31 1358.22Q556.63 1357.2 556.63 1355.72L556.63 1355.72Q556.63 1354.42 557.13 1353.62Q557.64 1352.81 558.48 1352.35Q559.33 1351.89 560.38 1351.66Q561.42 1351.43 562.5 1351.29L562.5 1351.29Q563.87 1351.1 564.71 1351Q565.55 1350.91 565.94 1350.68Q566.33 1350.46 566.33 1349.9L566.33 1349.9L566.33 1349.8Q566.33 1348.9 565.97 1348.26Q565.61 1347.61 564.89 1347.26Q564.17 1346.9 563.13 1346.9L563.13 1346.9Q562.07 1346.9 561.29 1347.24Q560.51 1347.59 560.04 1348.12Q559.56 1348.65 559.37 1349.24L559.37 1349.24L557.01 1348.72Q557.43 1347.35 558.35 1346.49Q559.26 1345.62 560.49 1345.2Q561.72 1344.78 563.08 1344.78L563.08 1344.78Q564.01 1344.78 565 1345.02Q565.99 1345.25 566.84 1345.82Q567.69 1346.4 568.21 1347.41Q568.74 1348.42 568.74 1349.96L568.74 1349.96L568.74 1360L566.36 1360L566.36 1357.94L566.22 1357.94Q565.96 1358.46 565.42 1359.01Q564.87 1359.56 563.97 1359.94Q563.08 1360.31 561.77 1360.31M562.16 1358.17L562.16 1358.17Q563.54 1358.17 564.47 1357.64Q565.4 1357.12 565.87 1356.27Q566.33 1355.43 566.33 1354.49L566.33 1354.49L566.33 1352.48Q566.18 1352.64 565.72 1352.77Q565.27 1352.9 564.66 1353.01Q564.05 1353.12 563.44 1353.21Q562.83 1353.29 562.39 1353.34L562.39 1353.34Q561.52 1353.45 560.75 1353.72Q559.99 1353.98 559.52 1354.48Q559.06 1354.98 559.06 1355.84L559.06 1355.84Q559.06 1356.6 559.46 1357.12Q559.85 1357.63 560.55 1357.9Q561.25 1358.17 562.16 1358.17M585.49 1360.33L585.49 1360.33Q583.93 1360.33 582.69 1359.86Q581.45 1359.38 580.67 1358.43Q579.88 1357.48 579.66 1356.09L579.66 1356.09L581.99 1355.72Q582.25 1356.98 583.14 1357.6Q584.04 1358.22 585.46 1358.22L585.46 1358.22Q587.02 1358.22 587.94 1357.56Q588.86 1356.9 588.86 1355.94L588.86 1355.94Q588.86 1355.15 588.3 1354.63Q587.73 1354.11 586.65 1353.86L586.65 1353.86L584.17 1353.29Q582.12 1352.79 581.1 1351.76Q580.09 1350.73 580.09 1349.13L580.09 1349.13Q580.09 1347.85 580.8 1346.86Q581.51 1345.88 582.76 1345.32Q584.01 1344.76 585.61 1344.76L585.61 1344.76Q587.15 1344.76 588.29 1345.26Q589.42 1345.77 590.11 1346.66Q590.8 1347.56 591.05 1348.76L591.05 1348.76L588.81 1349.14Q588.59 1348.21 587.82 1347.52Q587.06 1346.82 585.61 1346.82L585.61 1346.82Q584.26 1346.82 583.39 1347.46Q582.52 1348.09 582.52 1349.04L582.52 1349.04Q582.52 1349.87 583.13 1350.38Q583.74 1350.89 584.98 1351.18L584.98 1351.18L587.29 1351.73Q589.37 1352.22 590.36 1353.23Q591.35 1354.24 591.35 1355.82L591.35 1355.82Q591.35 1357.16 590.61 1358.17Q589.86 1359.19 588.54 1359.76Q587.21 1360.33 585.49 1360.33M592.96 1345L600.84 1345L600.84 1347.07L592.96 1347.07L592.96 1345M595.36 1356.4L595.36 1341.26L597.78 1341.26L597.78 1356.19Q597.78 1357.16 598.17 1357.58Q598.56 1358 599.5 1358L599.5 1358Q599.76 1358 600.12 1357.97Q600.48 1357.94 600.79 1357.89L600.79 1357.89L601.13 1359.95Q600.76 1360.04 600.29 1360.08Q599.83 1360.12 599.39 1360.12L599.39 1360.12Q597.45 1360.12 596.4 1359.16Q595.36 1358.2 595.36 1356.4L595.36 1356.4M608.29 1360.31L608.29 1360.31Q606.86 1360.31 605.69 1359.78Q604.52 1359.25 603.83 1358.22Q603.15 1357.2 603.15 1355.72L603.15 1355.72Q603.15 1354.42 603.66 1353.62Q604.16 1352.81 605.01 1352.35Q605.86 1351.89 606.9 1351.66Q607.95 1351.43 609.03 1351.29L609.03 1351.29Q610.4 1351.1 611.24 1351Q612.08 1350.91 612.47 1350.68Q612.86 1350.46 612.86 1349.9L612.86 1349.9L612.86 1349.8Q612.86 1348.9 612.5 1348.26Q612.13 1347.61 611.42 1347.26Q610.7 1346.9 609.66 1346.9L609.66 1346.9Q608.59 1346.9 607.81 1347.24Q607.03 1347.59 606.56 1348.12Q606.09 1348.65 605.9 1349.24L605.9 1349.24L603.53 1348.72Q603.96 1347.35 604.87 1346.49Q605.79 1345.62 607.02 1345.2Q608.25 1344.78 609.6 1344.78L609.6 1344.78Q610.53 1344.78 611.52 1345.02Q612.52 1345.25 613.36 1345.82Q614.21 1346.4 614.74 1347.41Q615.26 1348.42 615.26 1349.96L615.26 1349.96L615.26 1360L612.88 1360L612.88 1357.94L612.75 1357.94Q612.49 1358.46 611.94 1359.01Q611.39 1359.56 610.5 1359.94Q609.6 1360.31 608.29 1360.31M608.69 1358.17L608.69 1358.17Q610.07 1358.17 611 1357.64Q611.93 1357.12 612.39 1356.27Q612.86 1355.43 612.86 1354.49L612.86 1354.49L612.86 1352.48Q612.71 1352.64 612.25 1352.77Q611.79 1352.9 611.18 1353.01Q610.57 1353.12 609.97 1353.21Q609.36 1353.29 608.92 1353.34L608.92 1353.34Q608.04 1353.45 607.28 1353.72Q606.51 1353.98 606.05 1354.48Q605.58 1354.98 605.58 1355.84L605.58 1355.84Q605.58 1356.6 605.98 1357.12Q606.38 1357.63 607.07 1357.9Q607.77 1358.17 608.69 1358.17M621.7 1360L619.28 1360L619.28 1345L621.61 1345L621.61 1347.33L621.74 1347.33Q622.15 1346.18 623.17 1345.48Q624.18 1344.78 625.54 1344.78L625.54 1344.78Q625.83 1344.78 626.17 1344.8Q626.5 1344.81 626.69 1344.84L626.69 1344.84L626.69 1347.26Q626.58 1347.23 626.16 1347.17Q625.74 1347.11 625.24 1347.11L625.24 1347.11Q624.25 1347.11 623.44 1347.54Q622.63 1347.97 622.17 1348.76Q621.7 1349.55 621.7 1350.66L621.7 1350.66L621.7 1360M627.99 1345L635.87 1345L635.87 1347.07L627.99 1347.07L627.99 1345M630.38 1356.4L630.38 1341.26L632.8 1341.26L632.8 1356.19Q632.8 1357.16 633.19 1357.58Q633.58 1358 634.53 1358L634.53 1358Q634.79 1358 635.15 1357.97Q635.51 1357.94 635.81 1357.89L635.81 1357.89L636.15 1359.95Q635.79 1360.04 635.32 1360.08Q634.86 1360.12 634.42 1360.12L634.42 1360.12Q632.48 1360.12 631.43 1359.16Q630.38 1358.2 630.38 1356.4L630.38 1356.4M641.19 1360L638.77 1360L638.77 1345L641.19 1345L641.19 1360M639.98 1342.39L639.98 1342.39Q639.3 1342.39 638.81 1341.92Q638.31 1341.45 638.31 1340.78L638.31 1340.78Q638.31 1340.11 638.81 1339.64Q639.3 1339.16 639.98 1339.16L639.98 1339.16Q640.68 1339.16 641.17 1339.64Q641.66 1340.11 641.66 1340.78L641.66 1340.78Q641.66 1341.45 641.17 1341.92Q640.68 1342.39 639.98 1342.39M647.63 1351.07L647.63 1351.07L647.63 1360L645.21 1360L645.21 1345L647.54 1345L647.56 1348.64L647.11 1348.64Q647.8 1346.57 649.09 1345.68Q650.37 1344.78 652.1 1344.78L652.1 1344.78Q653.61 1344.78 654.79 1345.42Q655.96 1346.05 656.64 1347.33Q657.32 1348.6 657.32 1350.54L657.32 1350.54L657.32 1360L654.9 1360L654.9 1350.73Q654.9 1348.93 653.98 1347.95Q653.07 1346.97 651.47 1346.97L651.47 1346.97Q650.39 1346.97 649.51 1347.43Q648.64 1347.89 648.13 1348.8Q647.63 1349.72 647.63 1351.07M667.49 1366L667.49 1366Q665.81 1366 664.55 1365.54Q663.29 1365.09 662.47 1364.29Q661.65 1363.49 661.27 1362.46L661.27 1362.46L663.39 1361.6Q663.68 1362.16 664.17 1362.69Q664.67 1363.21 665.48 1363.55Q666.29 1363.88 667.49 1363.88L667.49 1363.88Q669.34 1363.88 670.48 1362.97Q671.63 1362.05 671.63 1360.18L671.63 1360.18L671.63 1357.4L671.47 1357.4Q671.13 1357.98 670.58 1358.56Q670.03 1359.14 669.17 1359.54Q668.3 1359.93 667 1359.93L667 1359.93Q665.15 1359.93 663.7 1359.04Q662.25 1358.14 661.43 1356.47Q660.6 1354.79 660.6 1352.45L660.6 1352.45Q660.6 1350.13 661.42 1348.41Q662.24 1346.68 663.69 1345.73Q665.14 1344.78 667.03 1344.78L667.03 1344.78Q668.32 1344.78 669.2 1345.19Q670.07 1345.6 670.63 1346.21Q671.2 1346.81 671.52 1347.38L671.52 1347.38L671.69 1347.38L671.69 1345L674.04 1345L674.04 1360.26Q674.04 1362.28 673.15 1363.55Q672.26 1364.83 670.77 1365.41Q669.28 1366 667.49 1366M667.38 1357.77L667.38 1357.77Q668.76 1357.77 669.73 1357.12Q670.69 1356.47 671.2 1355.27Q671.7 1354.07 671.7 1352.41L671.7 1352.41Q671.7 1350.79 671.2 1349.55Q670.7 1348.32 669.74 1347.63Q668.78 1346.94 667.38 1346.94L667.38 1346.94Q666 1346.94 665.04 1347.64Q664.07 1348.34 663.57 1349.57Q663.06 1350.8 663.06 1352.41L663.06 1352.41Q663.06 1354.05 663.57 1355.26Q664.07 1356.46 665.04 1357.12Q666.01 1357.77 667.38 1357.77M692.67 1360.31L692.67 1360.31Q691.39 1360.31 690.51 1359.89Q689.64 1359.47 689.08 1358.86Q688.53 1358.25 688.19 1357.69L688.19 1357.69L688 1357.69L688 1360L685.65 1360L685.65 1339.63L688.07 1339.63L688.07 1347.34L688.2 1347.34Q688.53 1346.79 689.07 1346.21Q689.61 1345.62 690.49 1345.2Q691.36 1344.78 692.66 1344.78L692.66 1344.78Q694.56 1344.78 696 1345.73Q697.45 1346.68 698.26 1348.43Q699.07 1350.17 699.07 1352.52L699.07 1352.52Q699.07 1354.89 698.27 1356.64Q697.46 1358.39 696.02 1359.35Q694.57 1360.31 692.67 1360.31M692.3 1358.14L692.3 1358.14Q693.69 1358.14 694.64 1357.42Q695.6 1356.71 696.11 1355.43Q696.61 1354.16 696.61 1352.51L696.61 1352.51Q696.61 1350.85 696.11 1349.6Q695.61 1348.35 694.65 1347.65Q693.69 1346.94 692.3 1346.94L692.3 1346.94Q690.92 1346.94 689.95 1347.64Q688.98 1348.34 688.48 1349.58Q687.98 1350.83 687.98 1352.51L687.98 1352.51Q687.98 1354.18 688.49 1355.45Q689 1356.72 689.97 1357.43Q690.94 1358.14 692.3 1358.14M708.49 1360.33L708.49 1360.33Q706.44 1360.33 704.9 1359.35Q703.35 1358.37 702.48 1356.62Q701.62 1354.87 701.62 1352.58L701.62 1352.58Q701.62 1350.24 702.48 1348.48Q703.35 1346.72 704.9 1345.74Q706.44 1344.76 708.49 1344.76L708.49 1344.76Q710.56 1344.76 712.11 1345.74Q713.66 1346.72 714.52 1348.48Q715.38 1350.24 715.38 1352.58L715.38 1352.58Q715.38 1354.87 714.52 1356.62Q713.66 1358.37 712.11 1359.35Q710.56 1360.33 708.49 1360.33M708.49 1358.15L708.49 1358.15Q709.98 1358.15 710.97 1357.4Q711.95 1356.65 712.44 1355.39Q712.94 1354.12 712.94 1352.58L712.94 1352.58Q712.94 1351 712.44 1349.73Q711.95 1348.45 710.97 1347.69Q709.98 1346.93 708.49 1346.93L708.49 1346.93Q707.02 1346.93 706.04 1347.69Q705.06 1348.45 704.57 1349.73Q704.08 1351 704.08 1352.58L704.08 1352.58Q704.08 1354.12 704.57 1355.39Q705.06 1356.65 706.04 1357.4Q707.02 1358.15 708.49 1358.15M721.08 1351.07L721.08 1351.07L721.08 1360L718.66 1360L718.66 1345L721 1345L721.02 1348.64L720.56 1348.64Q721.26 1346.57 722.55 1345.68Q723.83 1344.78 725.55 1344.78L725.55 1344.78Q727.07 1344.78 728.25 1345.42Q729.42 1346.05 730.1 1347.33Q730.78 1348.6 730.78 1350.54L730.78 1350.54L730.78 1360L728.36 1360L728.36 1350.73Q728.36 1348.93 727.44 1347.95Q726.53 1346.97 724.93 1346.97L724.93 1346.97Q723.85 1346.97 722.97 1347.43Q722.1 1347.89 721.59 1348.8Q721.08 1349.72 721.08 1351.07M740.02 1360.22L740.02 1360.22Q738.52 1360.22 737.33 1359.58Q736.15 1358.95 735.47 1357.66Q734.8 1356.38 734.8 1354.46L734.8 1354.46L734.8 1345L737.22 1345L737.22 1354.27Q737.22 1356.06 738.14 1357.05Q739.06 1358.03 740.66 1358.03L740.66 1358.03Q741.74 1358.03 742.61 1357.57Q743.48 1357.12 743.98 1356.19Q744.49 1355.27 744.49 1353.92L744.49 1353.92L744.49 1345L746.91 1345L746.91 1360L744.57 1360L744.57 1356.36L745.01 1356.36Q744.3 1358.44 743.01 1359.33Q741.71 1360.22 740.02 1360.22M756.08 1360.33L756.08 1360.33Q754.53 1360.33 753.29 1359.86Q752.05 1359.38 751.26 1358.43Q750.48 1357.48 750.26 1356.09L750.26 1356.09L752.58 1355.72Q752.84 1356.98 753.74 1357.6Q754.63 1358.22 756.06 1358.22L756.06 1358.22Q757.62 1358.22 758.54 1357.56Q759.46 1356.9 759.46 1355.94L759.46 1355.94Q759.46 1355.15 758.89 1354.63Q758.33 1354.11 757.25 1353.86L757.25 1353.86L754.77 1353.29Q752.72 1352.79 751.7 1351.76Q750.68 1350.73 750.68 1349.13L750.68 1349.13Q750.68 1347.85 751.39 1346.86Q752.11 1345.88 753.36 1345.32Q754.61 1344.76 756.21 1344.76L756.21 1344.76Q757.75 1344.76 758.89 1345.26Q760.02 1345.77 760.71 1346.66Q761.4 1347.56 761.65 1348.76L761.65 1348.76L759.41 1349.14Q759.19 1348.21 758.42 1347.52Q757.66 1346.82 756.21 1346.82L756.21 1346.82Q754.85 1346.82 753.99 1347.46Q753.12 1348.09 753.12 1349.04L753.12 1349.04Q753.12 1349.87 753.73 1350.38Q754.33 1350.89 755.58 1351.18L755.58 1351.18L757.89 1351.73Q759.97 1352.22 760.96 1353.23Q761.95 1354.24 761.95 1355.82L761.95 1355.82Q761.95 1357.16 761.2 1358.17Q760.46 1359.19 759.13 1359.76Q757.81 1360.33 756.08 1360.33" fill="#9A958C"><title>the code gets you a starting bonus</title></path>
<path d="M392.73 1684.17L396.51 1684.17L396.51 1706L392.73 1706L392.73 1684.17M404.07 1706L400.29 1706L400.29 1689.93L404.07 1689.93L404.07 1706M402.18 1687.62L402.18 1687.62Q401.26 1687.62 400.61 1687.01Q399.97 1686.4 399.97 1685.52L399.97 1685.52Q399.97 1684.64 400.61 1684.03Q401.26 1683.43 402.18 1683.43L402.18 1683.43Q403.1 1683.43 403.76 1684.03Q404.41 1684.64 404.41 1685.52L404.41 1685.52Q404.41 1686.4 403.76 1687.01Q403.1 1687.62 402.18 1687.62M411.63 1696.68L411.63 1696.68L411.63 1706L407.85 1706L407.85 1689.93L411.47 1689.93L411.51 1693.93L411.07 1693.93Q411.76 1691.83 413.11 1690.76Q414.46 1689.68 416.46 1689.68L416.46 1689.68Q418.13 1689.68 419.39 1690.4Q420.64 1691.12 421.33 1692.49Q422.03 1693.86 422.03 1695.83L422.03 1695.83L422.03 1706L418.27 1706L418.27 1696.42Q418.27 1694.75 417.42 1693.83Q416.58 1692.92 415.09 1692.92L415.09 1692.92Q414.09 1692.92 413.31 1693.35Q412.52 1693.78 412.08 1694.62Q411.63 1695.45 411.63 1696.68M432.2 1697.84L429.25 1700.95L429.25 1696.42L429.78 1696.42L435.73 1689.93L440.19 1689.93L432.97 1697.84L432.2 1697.84M429.59 1706L425.81 1706L425.81 1684.17L429.59 1684.17L429.59 1706M440.58 1706L436.05 1706L430.69 1698.69L433.24 1696.02L440.58 1706M453.64 1706L449.86 1706L449.86 1689.93L453.64 1689.93L453.64 1706M451.75 1687.62L451.75 1687.62Q450.83 1687.62 450.18 1687.01Q449.54 1686.4 449.54 1685.52L449.54 1685.52Q449.54 1684.64 450.18 1684.03Q450.83 1683.43 451.75 1683.43L451.75 1683.43Q452.67 1683.43 453.33 1684.03Q453.98 1684.64 453.98 1685.52L453.98 1685.52Q453.98 1686.4 453.33 1687.01Q452.67 1687.62 451.75 1687.62M461.2 1696.68L461.2 1696.68L461.2 1706L457.42 1706L457.42 1689.93L461.04 1689.93L461.08 1693.93L460.64 1693.93Q461.33 1691.83 462.68 1690.76Q464.03 1689.68 466.03 1689.68L466.03 1689.68Q467.7 1689.68 468.96 1690.4Q470.21 1691.12 470.9 1692.49Q471.6 1693.86 471.6 1695.83L471.6 1695.83L471.6 1706L467.84 1706L467.84 1696.42Q467.84 1694.75 466.99 1693.83Q466.15 1692.92 464.66 1692.92L464.66 1692.92Q463.66 1692.92 462.88 1693.35Q462.09 1693.78 461.65 1694.62Q461.2 1695.45 461.2 1696.68M488.7 1706.31L488.7 1706.31Q486.73 1706.31 485.21 1705.3Q483.69 1704.3 482.82 1702.44Q481.96 1700.58 481.96 1697.99L481.96 1697.99Q481.96 1695.37 482.84 1693.5Q483.71 1691.64 485.24 1690.66Q486.76 1689.68 488.68 1689.68L488.68 1689.68Q489.98 1689.68 490.9 1690.1Q491.82 1690.52 492.41 1691.15Q493 1691.79 493.35 1692.46L493.35 1692.46L493.47 1692.46L493.47 1684.17L497.25 1684.17L497.25 1706L493.54 1706L493.54 1703.48L493.38 1703.48Q493.03 1704.18 492.42 1704.83Q491.8 1705.47 490.89 1705.89Q489.98 1706.31 488.7 1706.31M489.68 1703.19L489.68 1703.19Q490.91 1703.19 491.79 1702.54Q492.67 1701.88 493.13 1700.7Q493.59 1699.53 493.59 1697.97L493.59 1697.97Q493.59 1696.41 493.13 1695.24Q492.67 1694.08 491.79 1693.44Q490.91 1692.8 489.68 1692.8L489.68 1692.8Q488.45 1692.8 487.57 1693.45Q486.7 1694.09 486.26 1695.26Q485.81 1696.42 485.81 1697.97L485.81 1697.97Q485.81 1699.53 486.26 1700.7Q486.72 1701.87 487.58 1702.53Q488.45 1703.19 489.68 1703.19M508.13 1706.34L508.13 1706.34Q505.72 1706.34 503.96 1705.3Q502.2 1704.27 501.26 1702.4Q500.31 1700.52 500.31 1698.03L500.31 1698.03Q500.31 1695.57 501.26 1693.68Q502.2 1691.79 503.92 1690.73Q505.63 1689.67 507.91 1689.67L507.91 1689.67Q509.47 1689.67 510.82 1690.19Q512.18 1690.71 513.2 1691.74Q514.23 1692.77 514.81 1694.3Q515.38 1695.83 515.38 1697.87L515.38 1697.87L515.38 1699L502 1699L502 1696.42L513.5 1696.42L511.77 1697.15Q511.77 1695.79 511.32 1694.78Q510.87 1693.77 510.02 1693.2Q509.17 1692.64 507.94 1692.64L507.94 1692.64Q506.73 1692.64 505.85 1693.21Q504.97 1693.78 504.51 1694.76Q504.05 1695.73 504.05 1696.98L504.05 1696.98L504.05 1698.71Q504.05 1700.18 504.55 1701.23Q505.06 1702.28 506 1702.83Q506.93 1703.38 508.19 1703.38L508.19 1703.38Q509.06 1703.38 509.75 1703.12Q510.45 1702.87 510.94 1702.38Q511.43 1701.9 511.66 1701.22L511.66 1701.22L515.15 1701.71Q514.8 1703.08 513.83 1704.13Q512.87 1705.17 511.41 1705.75Q509.95 1706.34 508.13 1706.34M524.54 1706.34L524.54 1706.34Q522.67 1706.34 521.2 1705.78Q519.74 1705.22 518.81 1704.15Q517.89 1703.07 517.66 1701.53L517.66 1701.53L521.24 1701.09Q521.51 1702.26 522.35 1702.87Q523.19 1703.48 524.57 1703.48L524.57 1703.48Q525.96 1703.48 526.77 1702.92Q527.57 1702.37 527.57 1701.55L527.57 1701.55Q527.57 1700.84 527.02 1700.39Q526.47 1699.94 525.39 1699.72L525.39 1699.72L522.65 1699.13Q520.37 1698.63 519.22 1697.5Q518.08 1696.36 518.08 1694.57L518.08 1694.57Q518.08 1693.09 518.89 1692Q519.71 1690.9 521.16 1690.29Q522.62 1689.68 524.55 1689.68L524.55 1689.68Q526.43 1689.68 527.79 1690.24Q529.15 1690.79 529.98 1691.81Q530.81 1692.83 531.04 1694.21L531.04 1694.21L527.62 1694.65Q527.43 1693.74 526.67 1693.12Q525.92 1692.49 524.63 1692.49L524.63 1692.49Q523.41 1692.49 522.64 1693.03Q521.86 1693.56 521.86 1694.38L521.86 1694.38Q521.86 1695.09 522.39 1695.55Q522.93 1696.01 524.09 1696.26L524.09 1696.26L526.87 1696.84Q529.18 1697.33 530.3 1698.41Q531.42 1699.5 531.42 1701.21L531.42 1701.21Q531.42 1702.75 530.55 1703.91Q529.67 1705.06 528.11 1705.7Q526.56 1706.34 524.54 1706.34M541.44 1706.34L541.44 1706.34Q539.1 1706.34 537.36 1705.29Q535.63 1704.24 534.67 1702.37Q533.71 1700.49 533.71 1698.02L533.71 1698.02Q533.71 1695.53 534.67 1693.64Q535.63 1691.76 537.36 1690.71Q539.1 1689.67 541.44 1689.67L541.44 1689.67Q542.85 1689.67 544.04 1690.05Q545.22 1690.43 546.15 1691.14Q547.08 1691.85 547.68 1692.84Q548.29 1693.83 548.5 1695.06L548.5 1695.06L544.92 1695.56Q544.78 1694.93 544.49 1694.41Q544.2 1693.9 543.76 1693.53Q543.32 1693.15 542.75 1692.96Q542.18 1692.76 541.49 1692.76L541.49 1692.76Q540.2 1692.76 539.32 1693.43Q538.44 1694.11 537.99 1695.29Q537.55 1696.48 537.55 1698.02L537.55 1698.02Q537.55 1699.53 537.99 1700.71Q538.44 1701.9 539.32 1702.57Q540.2 1703.25 541.49 1703.25L541.49 1703.25Q542.19 1703.25 542.76 1703.05Q543.33 1702.85 543.77 1702.47Q544.21 1702.09 544.51 1701.55Q544.8 1701.02 544.93 1700.36L544.93 1700.36L548.52 1700.86Q548.31 1702.1 547.71 1703.11Q547.11 1704.11 546.18 1704.84Q545.25 1705.56 544.05 1705.95Q542.85 1706.34 541.44 1706.34M555.3 1706L551.52 1706L551.52 1689.93L555.17 1689.93L555.17 1692.61L555.3 1692.61Q555.74 1691.22 556.78 1690.47Q557.82 1689.73 559.26 1689.73L559.26 1689.73Q559.59 1689.73 559.96 1689.75Q560.33 1689.78 560.58 1689.81L560.58 1689.81L560.58 1693.24Q560.36 1693.18 559.84 1693.13Q559.32 1693.08 558.8 1693.08L558.8 1693.08Q557.81 1693.08 557.01 1693.51Q556.21 1693.94 555.76 1694.75Q555.3 1695.56 555.3 1696.65L555.3 1696.65L555.3 1706M566.96 1706L563.18 1706L563.18 1689.93L566.96 1689.93L566.96 1706M565.07 1687.62L565.07 1687.62Q564.15 1687.62 563.5 1687.01Q562.86 1686.4 562.86 1685.52L562.86 1685.52Q562.86 1684.64 563.5 1684.03Q564.15 1683.43 565.07 1683.43L565.07 1683.43Q566 1683.43 566.65 1684.03Q567.3 1684.64 567.3 1685.52L567.3 1685.52Q567.3 1686.4 566.65 1687.01Q566 1687.62 565.07 1687.62M574.52 1712.12L570.74 1712.12L570.74 1689.93L574.45 1689.93L574.45 1692.45L574.62 1692.45Q574.97 1691.79 575.58 1691.15Q576.18 1690.52 577.09 1690.1Q578.01 1689.68 579.31 1689.68L579.31 1689.68Q581.24 1689.68 582.76 1690.66Q584.28 1691.64 585.16 1693.5Q586.03 1695.37 586.03 1697.99L586.03 1697.99Q586.03 1700.58 585.17 1702.44Q584.31 1704.3 582.79 1705.3Q581.27 1706.31 579.3 1706.31L579.3 1706.31Q578.02 1706.31 577.11 1705.89Q576.21 1705.47 575.6 1704.83Q575 1704.18 574.64 1703.5L574.64 1703.5L574.52 1703.5L574.52 1712.12M578.31 1703.19L578.31 1703.19Q579.56 1703.19 580.42 1702.53Q581.27 1701.87 581.73 1700.7Q582.18 1699.53 582.18 1697.97L582.18 1697.97Q582.18 1696.42 581.73 1695.26Q581.29 1694.09 580.42 1693.45Q579.56 1692.8 578.31 1692.8L578.31 1692.8Q577.08 1692.8 576.21 1693.44Q575.33 1694.08 574.86 1695.24Q574.4 1696.41 574.4 1697.97L574.4 1697.97Q574.4 1699.53 574.86 1700.7Q575.33 1701.88 576.21 1702.54Q577.08 1703.19 578.31 1703.19M587.48 1689.93L596.87 1689.93L596.87 1692.9L587.48 1692.9L587.48 1689.93M589.93 1701.84L589.93 1685.92L593.71 1685.92L593.71 1701.44Q593.71 1702.31 594.08 1702.7Q594.44 1703.08 595.32 1703.08L595.32 1703.08Q595.61 1703.08 596.05 1703.04Q596.49 1703 596.77 1702.95L596.77 1702.95L597.17 1705.91Q596.63 1706.04 595.98 1706.1Q595.34 1706.15 594.72 1706.15L594.72 1706.15Q592.38 1706.15 591.15 1705.05Q589.93 1703.95 589.93 1701.84L589.93 1701.84M603.44 1706L599.66 1706L599.66 1689.93L603.44 1689.93L603.44 1706M601.55 1687.62L601.55 1687.62Q600.62 1687.62 599.98 1687.01Q599.33 1686.4 599.33 1685.52L599.33 1685.52Q599.33 1684.64 599.98 1684.03Q600.62 1683.43 601.55 1683.43L601.55 1683.43Q602.47 1683.43 603.12 1684.03Q603.77 1684.64 603.77 1685.52L603.77 1685.52Q603.77 1686.4 603.12 1687.01Q602.47 1687.62 601.55 1687.62M614.26 1706.34L614.26 1706.34Q611.92 1706.34 610.17 1705.3Q608.42 1704.26 607.46 1702.38Q606.5 1700.51 606.5 1698.02L606.5 1698.02Q606.5 1695.53 607.46 1693.64Q608.42 1691.76 610.17 1690.71Q611.92 1689.67 614.26 1689.67L614.26 1689.67Q616.62 1689.67 618.36 1690.71Q620.11 1691.76 621.07 1693.64Q622.03 1695.53 622.03 1698.02L622.03 1698.02Q622.03 1700.51 621.07 1702.38Q620.11 1704.26 618.36 1705.3Q616.62 1706.34 614.26 1706.34M614.26 1703.25L614.26 1703.25Q615.55 1703.25 616.43 1702.56Q617.31 1701.88 617.76 1700.7Q618.2 1699.53 618.2 1698.02L618.2 1698.02Q618.2 1696.49 617.76 1695.31Q617.31 1694.12 616.43 1693.44Q615.55 1692.76 614.26 1692.76L614.26 1692.76Q612.99 1692.76 612.11 1693.44Q611.23 1694.12 610.78 1695.31Q610.34 1696.49 610.34 1698.02L610.34 1698.02Q610.34 1699.53 610.78 1700.7Q611.23 1701.88 612.1 1702.56Q612.97 1703.25 614.26 1703.25M628.87 1696.68L628.87 1696.68L628.87 1706L625.09 1706L625.09 1689.93L628.71 1689.93L628.75 1693.93L628.31 1693.93Q629 1691.83 630.35 1690.76Q631.69 1689.68 633.7 1689.68L633.7 1689.68Q635.37 1689.68 636.62 1690.4Q637.88 1691.12 638.57 1692.49Q639.27 1693.86 639.27 1695.83L639.27 1695.83L639.27 1706L635.5 1706L635.5 1696.42Q635.5 1694.75 634.66 1693.83Q633.82 1692.92 632.32 1692.92L632.32 1692.92Q631.33 1692.92 630.54 1693.35Q629.76 1693.78 629.31 1694.62Q628.87 1695.45 628.87 1696.68" fill="#FBF7EF" opacity="0.8"><title>link in description</title></path>
<path d="M699.15625 1690 v34 M689.63625 1708.7 L699.15625 1724 L708.67625 1708.7"
     stroke="#FFD21E" stroke-width="4.42" fill="none" stroke-linecap="round" stroke-linejoin="round"/>
<g transform="translate(120,1660) rotate(-12) scale(1.0666666666666667)">
    <path d="M2 4 C10 30 34 40 54 34 C40 44 14 42 4 20 Z" fill="#FFD21E" stroke="#161512" stroke-width="3" stroke-linejoin="round"/>
  </g>
</svg>
