<svg width="1080" height="1920" viewBox="0 0 1080 1920" xmlns="http://www.w3.org/2000/svg" role="img" aria-label="Monty — Попробуй бесплатно">
<defs>
  <filter id="grain" x="0" y="0" width="100%" height="100%">
    <feTurbulence type="fractalNoise" baseFrequency="0.9" numOctaves="3" seed="7" result="n"/>
    <feColorMatrix in="n" type="saturate" values="0"/>
  </filter>
  <filter id="drop" x="-40%" y="-40%" width="180%" height="200%">
    <feDropShadow dx="0" dy="10" stdDeviation="16" flood-color="#000000" flood-opacity="0.45"/>
  </filter>
  <filter id="dropSoft" x="-40%" y="-40%" width="180%" height="200%">
    <feDropShadow dx="0" dy="6" stdDeviation="9" flood-color="#000000" flood-opacity="0.22"/>
  </filter>
  <linearGradient id="screenGrad" x1="0" y1="0" x2="1" y2="1">
    <stop offset="0" stop-color="#2A1E5C"/><stop offset="0.5" stop-color="#161512"/><stop offset="1" stop-color="#0B0A09"/>
  </linearGradient>
  <linearGradient id="neonGrad" x1="0" y1="0" x2="1" y2="0">
    <stop offset="0" stop-color="#6C4DF6"/><stop offset="1" stop-color="#FFD21E"/>
  </linearGradient>
  <radialGradient id="gBanana">
    <stop offset="0" stop-color="#FFD21E" stop-opacity="0.85"/>
    <stop offset="0.55" stop-color="#FFD21E" stop-opacity="0.22"/>
    <stop offset="1" stop-color="#FFD21E" stop-opacity="0"/>
  </radialGradient>
  <radialGradient id="gViolet">
    <stop offset="0" stop-color="#6C4DF6" stop-opacity="0.85"/>
    <stop offset="0.55" stop-color="#6C4DF6" stop-opacity="0.22"/>
    <stop offset="1" stop-color="#6C4DF6" stop-opacity="0"/>
  </radialGradient></defs>
<rect width="1080" height="1920" fill="#0B0A09"/><circle cx="540" cy="520" r="620" fill="url(#gViolet)" opacity="0.55"/><circle cx="540" cy="1500" r="560" fill="url(#gBanana)" opacity="0.4"/><rect width="1080" height="1920" filter="url(#grain)" opacity="0.055"/>
<g transform="translate(430,470) scale(1.71875)">
    <circle cx="30" cy="52" r="19" fill="#FBF7EF"/><circle cx="98" cy="52" r="19" fill="#FBF7EF"/>
    <circle cx="30" cy="52" r="9" fill="#FFD21E"/><circle cx="98" cy="52" r="9" fill="#FFD21E"/>
    <rect x="28" y="26" width="72" height="80" rx="36" fill="#FBF7EF"/>
    <circle cx="64" cy="70" r="30" fill="#161512"/>
    <path d="M57 55 L57 85 L84 70 Z" fill="#FFD21E" stroke="#FFD21E" stroke-width="5" stroke-linejoin="round"/>
  </g>
<path d="M374.37 830L358.24 830L358.24 766.51L374.11 766.51L374.11 773.42L376.42 773.42Q378.08 770.22 381.92 767.86Q385.76 765.49 392.03 765.49L392.03 765.49Q398.82 765.49 402.91 768.11Q407.01 770.74 409.18 774.96L409.18 774.96L411.49 774.96Q413.66 770.86 417.63 768.18Q421.6 765.49 428.9 765.49L428.9 765.49Q434.78 765.49 439.58 767.98Q444.38 770.48 447.26 775.54Q450.14 780.59 450.14 788.27L450.14 788.27L450.14 830L434.02 830L434.02 789.42Q434.02 784.18 431.33 781.55Q428.64 778.93 423.78 778.93L423.78 778.93Q418.27 778.93 415.26 782.45Q412.26 785.97 412.26 792.5L412.26 792.5L412.26 830L396.13 830L396.13 789.42Q396.13 784.18 393.44 781.55Q390.75 778.93 385.89 778.93L385.89 778.93Q380.38 778.93 377.38 782.45Q374.37 785.97 374.37 792.5L374.37 792.5L374.37 830M492.64 831.79L492.64 831.79Q483.17 831.79 475.62 827.95Q468.06 824.11 463.71 816.82Q459.36 809.52 459.36 799.28L459.36 799.28L459.36 797.23Q459.36 786.99 463.71 779.7Q468.06 772.4 475.62 768.56Q483.17 764.72 492.64 764.72L492.64 764.72Q502.11 764.72 509.66 768.56Q517.22 772.4 521.57 779.7Q525.92 786.99 525.92 797.23L525.92 797.23L525.92 799.28Q525.92 809.52 521.57 816.82Q517.22 824.11 509.66 827.95Q502.11 831.79 492.64 831.79M492.64 817.46L492.64 817.46Q500.06 817.46 504.93 812.66Q509.79 807.86 509.79 798.9L509.79 798.9L509.79 797.62Q509.79 788.66 504.99 783.86Q500.19 779.06 492.64 779.06L492.64 779.06Q485.22 779.06 480.35 783.86Q475.49 788.66 475.49 797.62L475.49 797.62L475.49 798.9Q475.49 807.86 480.35 812.66Q485.22 817.46 492.64 817.46M551.78 830L535.65 830L535.65 766.51L551.52 766.51L551.52 774.83L553.82 774.83Q555.36 771.5 559.58 768.5Q563.81 765.49 572.38 765.49L572.38 765.49Q579.81 765.49 585.38 768.88Q590.94 772.27 594.02 778.22Q597.09 784.18 597.09 792.11L597.09 792.11L597.09 830L580.96 830L580.96 793.39Q580.96 786.22 577.44 782.64Q573.92 779.06 567.39 779.06L567.39 779.06Q559.97 779.06 555.87 783.98Q551.78 788.91 551.78 797.74L551.78 797.74L551.78 830M649.82 830L631.9 830Q625.63 830 621.73 826.1Q617.82 822.19 617.82 815.66L617.82 815.66L617.82 779.82L601.95 779.82L601.95 766.51L617.82 766.51L617.82 746.8L633.95 746.8L633.95 766.51L651.36 766.51L651.36 779.82L633.95 779.82L633.95 812.85Q633.95 816.69 637.54 816.69L637.54 816.69L649.82 816.69L649.82 830M707.68 855.6L667.74 855.6L667.74 841.52L702.3 841.52Q705.89 841.52 705.89 837.68L705.89 837.68L705.89 821.68L703.58 821.68Q702.56 823.86 700.38 826.03Q698.21 828.21 694.5 829.62Q690.78 831.02 685.02 831.02L685.02 831.02Q677.6 831.02 672.03 827.63Q666.46 824.24 663.39 818.22Q660.32 812.21 660.32 804.4L660.32 804.4L660.32 766.51L676.45 766.51L676.45 803.12Q676.45 810.29 679.97 813.87Q683.49 817.46 690.02 817.46L690.02 817.46Q697.44 817.46 701.54 812.53Q705.63 807.6 705.63 798.77L705.63 798.77L705.63 766.51L721.76 766.51L721.76 841.26Q721.76 847.79 717.92 851.7Q714.08 855.6 707.68 855.6L707.68 855.6" fill="#FBF7EF"><title>monty</title></path>
<path d="M152.43 890.35L152.43 890.35Q149.22 890.35 146.73 888.78Q144.23 887.21 142.79 884.36Q141.35 881.5 141.35 877.65L141.35 877.65Q141.35 873.78 142.79 870.92Q144.23 868.07 146.73 866.49Q149.22 864.92 152.43 864.92L152.43 864.92Q155.65 864.92 158.14 866.49Q160.63 868.07 162.06 870.92Q163.48 873.78 163.48 877.65L163.48 877.65Q163.48 881.5 162.06 884.36Q160.63 887.21 158.14 888.78Q155.65 890.35 152.43 890.35M152.43 887.48L152.43 887.48Q154.65 887.48 156.47 886.35Q158.29 885.22 159.37 883.02Q160.45 880.82 160.45 877.65L160.45 877.65Q160.45 874.44 159.37 872.24Q158.29 870.04 156.47 868.92Q154.65 867.79 152.43 867.79L152.43 867.79Q150.2 867.79 148.39 868.92Q146.57 870.06 145.49 872.26Q144.41 874.46 144.41 877.65L144.41 877.65Q144.41 880.82 145.49 883.01Q146.57 885.2 148.39 886.34Q150.2 887.48 152.43 887.48M174.67 890L171.75 890L171.75 874.41L165.63 874.41L165.63 871.79L180.77 871.79L180.77 874.41L174.67 874.41L174.67 890M207.53 871.79L207.53 890L204.57 890L204.57 876.72L204.42 876.72L195.56 890L192.72 890L192.72 871.79L195.66 871.79L195.66 885.1L195.82 885.1L204.71 871.79L207.53 871.79M213.47 895.33L210.53 895.33L210.53 887.28L212.06 887.28Q212.63 886.7 213.05 886.02Q213.47 885.33 213.77 884.41Q214.07 883.48 214.29 882.14Q214.5 880.8 214.67 878.91L214.67 878.91L215.28 871.79L227.2 871.79L227.2 887.28L230.02 887.28L230.02 895.33L227.1 895.33L227.1 890L213.47 890L213.47 895.33M215.41 887.28L215.41 887.28L224.28 887.28L224.28 874.51L217.95 874.51L217.54 878.91Q217.27 881.78 216.82 883.89Q216.36 886 215.41 887.28M240.2 890.4L240.2 890.4Q237.54 890.4 235.64 889.21Q233.74 888.02 232.71 885.91Q231.68 883.79 231.68 881L231.68 881Q231.68 878.21 232.71 876.07Q233.74 873.93 235.59 872.71Q237.44 871.49 239.9 871.49L239.9 871.49Q241.5 871.49 242.94 872.04Q244.38 872.58 245.51 873.72Q246.64 874.86 247.3 876.6Q247.95 878.35 247.95 880.75L247.95 880.75L247.95 881.83L233.54 881.83L233.54 879.34L246.34 879.34L245.02 880.25Q245.02 878.43 244.42 877.04Q243.82 875.66 242.68 874.88Q241.55 874.11 239.9 874.11L239.9 874.11Q238.26 874.11 237.08 874.9Q235.9 875.69 235.27 877.01Q234.64 878.33 234.64 879.92L234.64 879.92L234.64 881.45Q234.64 883.43 235.32 884.85Q236 886.26 237.25 887.02Q238.51 887.78 240.22 887.78L240.22 887.78Q241.36 887.78 242.28 887.44Q243.19 887.09 243.83 886.44Q244.47 885.78 244.78 884.84L244.78 884.84L247.65 885.37Q247.26 886.86 246.22 887.99Q245.18 889.12 243.65 889.76Q242.11 890.4 240.2 890.4M266.68 871.79L266.68 890L263.73 890L263.73 876.72L263.58 876.72L254.71 890L251.87 890L251.87 871.79L254.81 871.79L254.81 885.1L254.98 885.1L263.86 871.79L266.68 871.79M281.84 895.33L278.9 895.33L278.9 887.28L280.43 887.28Q280.99 886.7 281.41 886.02Q281.84 885.33 282.14 884.41Q282.44 883.48 282.65 882.14Q282.87 880.8 283.03 878.91L283.03 878.91L283.65 871.79L295.57 871.79L295.57 887.28L298.39 887.28L298.39 895.33L295.47 895.33L295.47 890L281.84 890L281.84 895.33M283.78 887.28L283.78 887.28L292.65 887.28L292.65 874.51L286.32 874.51L285.9 878.91Q285.64 881.78 285.18 883.89Q284.73 886 283.78 887.28M308.4 890.4L308.4 890.4Q305.91 890.4 304.03 889.21Q302.16 888.02 301.1 885.9Q300.05 883.77 300.05 880.99L300.05 880.99Q300.05 878.15 301.1 876.01Q302.16 873.88 304.03 872.68Q305.91 871.49 308.4 871.49L308.4 871.49Q310.91 871.49 312.79 872.68Q314.68 873.88 315.72 876.01Q316.77 878.15 316.77 880.99L316.77 880.99Q316.77 883.77 315.72 885.9Q314.68 888.02 312.79 889.21Q310.91 890.4 308.4 890.4M308.4 887.76L308.4 887.76Q310.21 887.76 311.4 886.85Q312.6 885.93 313.2 884.4Q313.8 882.86 313.8 880.99L313.8 880.99Q313.8 879.08 313.2 877.52Q312.6 875.97 311.4 875.05Q310.21 874.13 308.4 874.13L308.4 874.13Q306.61 874.13 305.42 875.05Q304.23 875.97 303.64 877.52Q303.04 879.08 303.04 880.99L303.04 880.99Q303.04 882.86 303.64 884.4Q304.23 885.93 305.42 886.85Q306.61 887.76 308.4 887.76M332.9 896.94L329.97 896.94L329.97 871.79L332.82 871.79L332.82 874.63L333.05 874.63Q333.45 873.96 334.12 873.25Q334.78 872.54 335.84 872.03Q336.9 871.52 338.48 871.52L338.48 871.52Q340.79 871.52 342.54 872.68Q344.29 873.83 345.28 875.95Q346.27 878.06 346.27 880.92L346.27 880.92Q346.27 883.79 345.29 885.92Q344.31 888.04 342.56 889.21Q340.81 890.38 338.5 890.38L338.5 890.38Q336.94 890.38 335.88 889.87Q334.83 889.35 334.16 888.61Q333.48 887.88 333.07 887.19L333.07 887.19L332.9 887.19L332.9 896.94M338.05 887.74L338.05 887.74Q339.73 887.74 340.89 886.87Q342.05 886 342.67 884.46Q343.28 882.91 343.28 880.9L343.28 880.9Q343.28 878.89 342.67 877.37Q342.07 875.86 340.9 875Q339.73 874.15 338.05 874.15L338.05 874.15Q336.37 874.15 335.19 874.99Q334.02 875.84 333.41 877.35Q332.8 878.86 332.8 880.9L332.8 880.9Q332.8 882.93 333.42 884.47Q334.03 886.02 335.21 886.88Q336.39 887.74 338.05 887.74M357.71 890.4L357.71 890.4Q355.22 890.4 353.34 889.21Q351.46 888.02 350.41 885.9Q349.36 883.77 349.36 880.99L349.36 880.99Q349.36 878.15 350.41 876.01Q351.46 873.88 353.34 872.68Q355.22 871.49 357.71 871.49L357.71 871.49Q360.21 871.49 362.1 872.68Q363.98 873.88 365.03 876.01Q366.07 878.15 366.07 880.99L366.07 880.99Q366.07 883.77 365.03 885.9Q363.98 888.02 362.1 889.21Q360.21 890.4 357.71 890.4M357.71 887.76L357.71 887.76Q359.52 887.76 360.71 886.85Q361.91 885.93 362.5 884.4Q363.1 882.86 363.1 880.99L363.1 880.99Q363.1 879.08 362.5 877.52Q361.91 875.97 360.71 875.05Q359.52 874.13 357.71 874.13L357.71 874.13Q355.91 874.13 354.73 875.05Q353.54 875.97 352.94 877.52Q352.34 879.08 352.34 880.99L352.34 880.99Q352.34 882.86 352.94 884.4Q353.54 885.93 354.73 886.85Q355.91 887.76 357.71 887.76M368.91 890L367.92 890L367.92 887.28L368.58 887.28Q369.41 887.28 369.96 886.98Q370.51 886.68 370.85 885.89Q371.2 885.1 371.39 883.65Q371.59 882.2 371.69 879.86L371.69 879.86L372.02 871.79L384.48 871.79L384.48 890L381.53 890L381.53 874.51L374.81 874.51L374.52 880.9Q374.37 883.96 373.84 885.98Q373.31 888.01 372.14 889Q370.97 890 368.91 890L368.91 890M404.17 871.79L404.17 890L401.22 890L401.22 876.72L401.07 876.72L392.2 890L389.37 890L389.37 871.79L392.3 871.79L392.3 885.1L392.47 885.1L401.35 871.79L404.17 871.79M411.99 890L409.06 890L409.06 871.79L411.99 871.79L411.99 879.66L413.87 879.66L420.51 871.79L424.23 871.79L416.81 880.59L424.33 890L420.61 890L414.58 882.38L411.99 882.38L411.99 890M432.31 890.38L432.31 890.38Q430.57 890.38 429.15 889.73Q427.73 889.09 426.9 887.84Q426.07 886.6 426.07 884.8L426.07 884.8Q426.07 883.23 426.69 882.25Q427.3 881.27 428.33 880.71Q429.36 880.16 430.63 879.87Q431.9 879.59 433.21 879.42L433.21 879.42Q434.87 879.19 435.89 879.08Q436.91 878.96 437.39 878.69Q437.86 878.41 437.86 877.73L437.86 877.73L437.86 877.62Q437.86 876.52 437.42 875.74Q436.98 874.96 436.11 874.53Q435.24 874.1 433.97 874.1L433.97 874.1Q432.68 874.1 431.73 874.51Q430.79 874.93 430.21 875.57Q429.64 876.22 429.41 876.93L429.41 876.93L426.54 876.3Q427.05 874.64 428.16 873.59Q429.28 872.54 430.77 872.03Q432.26 871.52 433.91 871.52L433.91 871.52Q435.04 871.52 436.24 871.8Q437.44 872.09 438.47 872.78Q439.5 873.48 440.14 874.71Q440.78 875.94 440.78 877.81L440.78 877.81L440.78 890L437.89 890L437.89 887.49L437.73 887.49Q437.41 888.12 436.75 888.8Q436.08 889.47 435 889.93Q433.91 890.38 432.31 890.38M432.8 887.78L432.8 887.78Q434.47 887.78 435.6 887.14Q436.73 886.5 437.29 885.48Q437.86 884.46 437.86 883.31L437.86 883.31L437.86 880.87Q437.68 881.07 437.12 881.23Q436.56 881.38 435.83 881.52Q435.09 881.65 434.35 881.75Q433.61 881.85 433.08 881.92L433.08 881.92Q432.02 882.05 431.09 882.37Q430.16 882.7 429.59 883.3Q429.03 883.91 429.03 884.95L429.03 884.95Q429.03 885.87 429.51 886.5Q429.99 887.13 430.84 887.45Q431.68 887.78 432.8 887.78M463.54 890L454.88 890L454.88 871.79L462.38 871.79Q465.38 871.79 467.16 873.09Q468.94 874.39 468.94 876.64L468.94 876.64Q468.94 878.25 468 879.17Q467.06 880.09 465.47 880.42L465.47 880.42Q466.51 880.57 467.47 881.13Q468.42 881.68 469.04 882.65Q469.65 883.61 469.65 885.02L469.65 885.02Q469.65 886.46 468.91 887.59Q468.17 888.72 466.81 889.36Q465.45 890 463.54 890L463.54 890M457.66 881.9L457.66 887.31L463.54 887.31Q465 887.31 465.82 886.65Q466.63 885.98 466.63 884.82L466.63 884.82Q466.63 883.43 465.82 882.66Q465 881.9 463.54 881.9L463.54 881.9L457.66 881.9M457.66 874.48L457.66 879.41L462.43 879.41Q464.11 879.41 465.04 878.74Q465.98 878.06 465.98 876.87L465.98 876.87Q465.98 875.74 465.03 875.11Q464.07 874.48 462.38 874.48L462.38 874.48L457.66 874.48M481.07 890.4L481.07 890.4Q478.58 890.4 476.71 889.21Q474.83 888.02 473.78 885.9Q472.72 883.77 472.72 880.99L472.72 880.99Q472.72 878.15 473.78 876.01Q474.83 873.88 476.71 872.68Q478.58 871.49 481.07 871.49L481.07 871.49Q483.58 871.49 485.46 872.68Q487.35 873.88 488.39 876.01Q489.44 878.15 489.44 880.99L489.44 880.99Q489.44 883.77 488.39 885.9Q487.35 888.02 485.46 889.21Q483.58 890.4 481.07 890.4M481.07 887.76L481.07 887.76Q482.88 887.76 484.08 886.85Q485.27 885.93 485.87 884.4Q486.47 882.86 486.47 880.99L486.47 880.99Q486.47 879.08 485.87 877.52Q485.27 875.97 484.08 875.05Q482.88 874.13 481.07 874.13L481.07 874.13Q479.28 874.13 478.09 875.05Q476.91 875.97 476.31 877.52Q475.71 879.08 475.71 880.99L475.71 880.99Q475.71 882.86 476.31 884.4Q476.91 885.93 478.09 886.85Q479.28 887.76 481.07 887.76M511.3 890L502.64 890L502.64 871.79L510.14 871.79Q513.15 871.79 514.92 873.09Q516.7 874.39 516.7 876.64L516.7 876.64Q516.7 878.25 515.76 879.17Q514.82 880.09 513.23 880.42L513.23 880.42Q514.28 880.57 515.23 881.13Q516.19 881.68 516.8 882.65Q517.41 883.61 517.41 885.02L517.41 885.02Q517.41 886.46 516.67 887.59Q515.94 888.72 514.57 889.36Q513.21 890 511.3 890L511.3 890M505.43 881.9L505.43 887.31L511.3 887.31Q512.77 887.31 513.58 886.65Q514.39 885.98 514.39 884.82L514.39 884.82Q514.39 883.43 513.58 882.66Q512.77 881.9 511.3 881.9L511.3 881.9L505.43 881.9M505.43 874.48L505.43 879.41L510.19 879.41Q511.87 879.41 512.81 878.74Q513.74 878.06 513.74 876.87L513.74 876.87Q513.74 875.74 512.79 875.11Q511.84 874.48 510.14 874.48L510.14 874.48L505.43 874.48M528.84 890.4L528.84 890.4Q526.35 890.4 524.47 889.21Q522.59 888.02 521.54 885.9Q520.48 883.77 520.48 880.99L520.48 880.99Q520.48 878.15 521.54 876.01Q522.59 873.88 524.47 872.68Q526.35 871.49 528.84 871.49L528.84 871.49Q530.23 871.49 531.45 871.88Q532.67 872.27 533.65 872.98Q534.63 873.68 535.31 874.69Q535.99 875.71 536.31 876.95L536.31 876.95L533.45 877.5Q533.27 876.75 532.87 876.14Q532.47 875.52 531.88 875.08Q531.29 874.63 530.53 874.38Q529.77 874.13 528.84 874.13L528.84 874.13Q527.04 874.13 525.86 875.05Q524.67 875.97 524.07 877.52Q523.47 879.08 523.47 880.99L523.47 880.99Q523.47 882.86 524.07 884.4Q524.67 885.93 525.86 886.85Q527.04 887.76 528.84 887.76L528.84 887.76Q529.78 887.76 530.55 887.51Q531.33 887.26 531.91 886.8Q532.49 886.35 532.89 885.71Q533.28 885.07 533.48 884.31L533.48 884.31L536.36 884.84Q536.06 886.1 535.37 887.12Q534.68 888.14 533.69 888.88Q532.7 889.62 531.47 890.01Q530.23 890.4 528.84 890.4M547.88 890.4L547.88 890.4Q545.22 890.4 543.32 889.21Q541.42 888.02 540.39 885.91Q539.36 883.79 539.36 881L539.36 881Q539.36 878.21 540.39 876.07Q541.42 873.93 543.27 872.71Q545.12 871.49 547.58 871.49L547.58 871.49Q549.17 871.49 550.62 872.04Q552.06 872.58 553.19 873.72Q554.32 874.86 554.97 876.6Q555.63 878.35 555.63 880.75L555.63 880.75L555.63 881.83L541.22 881.83L541.22 879.34L554.02 879.34L552.69 880.25Q552.69 878.43 552.09 877.04Q551.5 875.66 550.36 874.88Q549.22 874.11 547.58 874.11L547.58 874.11Q545.94 874.11 544.76 874.9Q543.58 875.69 542.95 877.01Q542.32 878.33 542.32 879.92L542.32 879.92L542.32 881.45Q542.32 883.43 543 884.85Q543.68 886.26 544.93 887.02Q546.18 887.78 547.89 887.78L547.89 887.78Q549.04 887.78 549.95 887.44Q550.87 887.09 551.5 886.44Q552.14 885.78 552.46 884.84L552.46 884.84L555.33 885.37Q554.93 886.86 553.9 887.99Q552.86 889.12 551.32 889.76Q549.79 890.4 547.88 890.4M560.54 890L557.14 890L564.48 879.54L564.46 881.8L557.52 871.79L560.96 871.79L563.28 875.34Q564.13 876.6 564.79 877.76Q565.46 878.91 566.16 880.01L566.16 880.01L564.65 880.01Q565.36 878.91 565.98 877.76Q566.6 876.6 567.45 875.34L567.45 875.34L569.82 871.79L573.19 871.79L566.24 881.88L566.24 879.67L573.49 890L570.07 890L567.33 885.9Q566.52 884.65 565.87 883.55Q565.23 882.45 564.55 881.38L564.55 881.38L566.06 881.38Q565.38 882.45 564.76 883.55Q564.15 884.65 563.32 885.9L563.32 885.9L560.54 890M593.48 890.4L593.48 890.4Q590.99 890.4 589.12 889.21Q587.24 888.02 586.19 885.9Q585.13 883.77 585.13 880.99L585.13 880.99Q585.13 878.15 586.19 876.01Q587.24 873.88 589.12 872.68Q590.99 871.49 593.48 871.49L593.48 871.49Q594.88 871.49 596.1 871.88Q597.32 872.27 598.3 872.98Q599.28 873.68 599.96 874.69Q600.64 875.71 600.95 876.95L600.95 876.95L598.1 877.5Q597.91 876.75 597.52 876.14Q597.12 875.52 596.53 875.08Q595.94 874.63 595.18 874.38Q594.41 874.13 593.48 874.13L593.48 874.13Q591.69 874.13 590.5 875.05Q589.31 875.97 588.72 877.52Q588.12 879.08 588.12 880.99L588.12 880.99Q588.12 882.86 588.72 884.4Q589.31 885.93 590.5 886.85Q591.69 887.76 593.48 887.76L593.48 887.76Q594.43 887.76 595.2 887.51Q595.97 887.26 596.55 886.8Q597.13 886.35 597.53 885.71Q597.93 885.07 598.13 884.31L598.13 884.31L601 884.84Q600.7 886.1 600.01 887.12Q599.33 888.14 598.34 888.88Q597.35 889.62 596.11 890.01Q594.88 890.4 593.48 890.4M612.36 890.4L612.36 890.4Q609.87 890.4 607.99 889.21Q606.12 888.02 605.06 885.9Q604.01 883.77 604.01 880.99L604.01 880.99Q604.01 878.15 605.06 876.01Q606.12 873.88 607.99 872.68Q609.87 871.49 612.36 871.49L612.36 871.49Q614.86 871.49 616.75 872.68Q618.63 873.88 619.68 876.01Q620.73 878.15 620.73 880.99L620.73 880.99Q620.73 883.77 619.68 885.9Q618.63 888.02 616.75 889.21Q614.86 890.4 612.36 890.4M612.36 887.76L612.36 887.76Q614.17 887.76 615.36 886.85Q616.56 885.93 617.16 884.4Q617.75 882.86 617.75 880.99L617.75 880.99Q617.75 879.08 617.16 877.52Q616.56 875.97 615.36 875.05Q614.17 874.13 612.36 874.13L612.36 874.13Q610.56 874.13 609.38 875.05Q608.19 875.97 607.59 877.52Q607 879.08 607 880.99L607 880.99Q607 882.86 607.59 884.4Q608.19 885.93 609.38 886.85Q610.56 887.76 612.36 887.76M639.4 890L624.71 890L624.71 871.79L627.65 871.79L627.65 887.28L636.46 887.28L636.46 871.79L639.4 871.79L639.4 890M641.76 895.31L638.84 895.31L638.84 890L637.59 890L637.59 887.28L641.78 887.28L641.76 895.31M651.67 890.4L651.67 890.4Q649.18 890.4 647.3 889.21Q645.43 888.02 644.37 885.9Q643.32 883.77 643.32 880.99L643.32 880.99Q643.32 878.15 644.37 876.01Q645.43 873.88 647.3 872.68Q649.18 871.49 651.67 871.49L651.67 871.49Q653.06 871.49 654.29 871.88Q655.51 872.27 656.48 872.98Q657.46 873.68 658.15 874.69Q658.83 875.71 659.14 876.95L659.14 876.95L656.29 877.5Q656.1 876.75 655.7 876.14Q655.31 875.52 654.72 875.08Q654.13 874.63 653.36 874.38Q652.6 874.13 651.67 874.13L651.67 874.13Q649.88 874.13 648.69 875.05Q647.5 875.97 646.91 877.52Q646.31 879.08 646.31 880.99L646.31 880.99Q646.31 882.86 646.91 884.4Q647.5 885.93 648.69 886.85Q649.88 887.76 651.67 887.76L651.67 887.76Q652.62 887.76 653.39 887.51Q654.16 887.26 654.74 886.8Q655.32 886.35 655.72 885.71Q656.12 885.07 656.32 884.31L656.32 884.31L659.19 884.84Q658.89 886.1 658.2 887.12Q657.51 888.14 656.53 888.88Q655.54 889.62 654.3 890.01Q653.06 890.4 651.67 890.4M670.71 890.4L670.71 890.4Q668.06 890.4 666.16 889.21Q664.25 888.02 663.23 885.91Q662.2 883.79 662.2 881L662.2 881Q662.2 878.21 663.23 876.07Q664.25 873.93 666.11 872.71Q667.96 871.49 670.41 871.49L670.41 871.49Q672.01 871.49 673.45 872.04Q674.9 872.58 676.02 873.72Q677.15 874.86 677.81 876.6Q678.47 878.35 678.47 880.75L678.47 880.75L678.47 881.83L664.06 881.83L664.06 879.34L676.85 879.34L675.53 880.25Q675.53 878.43 674.93 877.04Q674.33 875.66 673.19 874.88Q672.06 874.11 670.41 874.11L670.41 874.11Q668.77 874.11 667.59 874.9Q666.41 875.69 665.78 877.01Q665.15 878.33 665.15 879.92L665.15 879.92L665.15 881.45Q665.15 883.43 665.83 884.85Q666.51 886.26 667.77 887.02Q669.02 887.78 670.73 887.78L670.73 887.78Q671.87 887.78 672.79 887.44Q673.7 887.09 674.34 886.44Q674.98 885.78 675.29 884.84L675.29 884.84L678.17 885.37Q677.77 886.86 676.73 887.99Q675.69 889.12 674.16 889.76Q672.62 890.4 670.71 890.4M689.29 890L686.37 890L686.37 874.41L680.24 874.41L680.24 871.79L695.38 871.79L695.38 874.41L689.29 874.41L689.29 890M711.72 871.79L711.72 890L708.8 890L708.8 874.34L704.45 874.34Q702.12 874.34 701.09 875.17Q700.06 875.99 700.06 877.55L700.06 877.55Q700.06 879.09 701.1 879.9Q702.14 880.7 704.46 880.7L704.46 880.7L710.06 880.7L710.06 883.16L704.25 883.16Q700.71 883.16 698.93 881.64Q697.14 880.12 697.14 877.55L697.14 877.55Q697.14 874.93 698.92 873.36Q700.69 871.79 704.21 871.79L704.21 871.79L711.72 871.79M704.78 881.77L699.7 890L696.33 890L701.51 881.77L704.78 881.77M718.44 890L715.04 890L722.38 879.54L722.36 881.8L715.42 871.79L718.86 871.79L721.18 875.34Q722.03 876.6 722.69 877.76Q723.36 878.91 724.05 880.01L724.05 880.01L722.54 880.01Q723.26 878.91 723.88 877.76Q724.5 876.6 725.35 875.34L725.35 875.34L727.72 871.79L731.09 871.79L724.14 881.88L724.14 879.67L731.39 890L727.97 890L725.23 885.9Q724.42 884.65 723.77 883.55Q723.12 882.45 722.44 881.38L722.44 881.38L723.95 881.38Q723.27 882.45 722.66 883.55Q722.04 884.65 721.21 885.9L721.21 885.9L718.44 890M749.72 890.23L749.72 890.23Q747.81 890.23 746.28 889.6Q744.76 888.97 743.86 887.85Q742.96 886.73 742.93 885.25L742.93 885.25L745.9 885.25Q745.95 886.35 747.05 887.04Q748.14 887.74 749.7 887.74L749.7 887.74Q751.4 887.74 752.47 886.91Q753.54 886.08 753.54 884.8L753.54 884.8Q753.54 883.46 752.41 882.62Q751.28 881.78 749.32 881.78L749.32 881.78L748.08 881.78L748.08 879.56L749.32 879.56Q750.93 879.56 751.97 878.78Q753.01 878 753.01 876.7L753.01 876.7Q753.01 875.47 752.12 874.7Q751.23 873.93 749.77 873.93L749.77 873.93Q748.32 873.93 747.26 874.64Q746.2 875.36 746.17 876.55L746.17 876.55L743.33 876.55Q743.36 875.06 744.23 873.92Q745.1 872.78 746.56 872.15Q748.03 871.52 749.79 871.52L749.79 871.52Q751.65 871.52 753.01 872.2Q754.37 872.88 755.11 874.02Q755.86 875.16 755.86 876.55L755.86 876.55Q755.86 878.15 754.88 879.18Q753.9 880.22 752.38 880.54L752.38 880.54L752.38 880.64Q754.42 880.95 755.5 882.11Q756.58 883.28 756.58 884.97L756.58 884.97Q756.58 886.5 755.69 887.68Q754.8 888.87 753.26 889.55Q751.71 890.23 749.72 890.23M765.66 890.38L765.66 890.38Q763.91 890.38 762.49 889.73Q761.07 889.09 760.24 887.84Q759.41 886.6 759.41 884.8L759.41 884.8Q759.41 883.23 760.03 882.25Q760.64 881.27 761.67 880.71Q762.7 880.16 763.97 879.87Q765.24 879.59 766.55 879.42L766.55 879.42Q768.21 879.19 769.23 879.08Q770.26 878.96 770.73 878.69Q771.2 878.41 771.2 877.73L771.2 877.73L771.2 877.62Q771.2 876.52 770.76 875.74Q770.32 874.96 769.45 874.53Q768.58 874.1 767.32 874.1L767.32 874.1Q766.02 874.1 765.08 874.51Q764.13 874.93 763.56 875.57Q762.98 876.22 762.75 876.93L762.75 876.93L759.88 876.3Q760.39 874.64 761.51 873.59Q762.62 872.54 764.11 872.03Q765.61 871.52 767.25 871.52L767.25 871.52Q768.38 871.52 769.58 871.8Q770.79 872.09 771.82 872.78Q772.85 873.48 773.48 874.71Q774.12 875.94 774.12 877.81L774.12 877.81L774.12 890L771.23 890L771.23 887.49L771.07 887.49Q770.75 888.12 770.09 888.8Q769.43 889.47 768.34 889.93Q767.25 890.38 765.66 890.38M766.14 887.78L766.14 887.78Q767.81 887.78 768.94 887.14Q770.07 886.5 770.64 885.48Q771.2 884.46 771.2 883.31L771.2 883.31L771.2 880.87Q771.02 881.07 770.46 881.23Q769.91 881.38 769.17 881.52Q768.43 881.65 767.69 881.75Q766.95 881.85 766.42 881.92L766.42 881.92Q765.36 882.05 764.43 882.37Q763.5 882.7 762.93 883.3Q762.37 883.91 762.37 884.95L762.37 884.95Q762.37 885.87 762.85 886.5Q763.33 887.13 764.18 887.45Q765.03 887.78 766.14 887.78M805.83 884.65L787.39 884.65L787.39 882.11L798.56 865.26L800.44 865.26L800.44 869.02L799.23 869.02L790.77 881.78L790.77 881.92L805.83 881.92L805.83 884.65M802.33 890L799.36 890L799.36 883.91L799.37 882.71L799.37 865.26L802.33 865.26L802.33 890M822 890L819.08 890L819.08 871.79L823.48 871.79L827.83 882.08Q828.18 882.93 828.46 883.68Q828.74 884.44 828.97 885.13Q829.19 885.82 829.39 886.49Q829.59 887.16 829.77 887.84L829.77 887.84L829.24 887.84Q829.42 887.18 829.61 886.52Q829.81 885.87 830.03 885.16Q830.25 884.46 830.54 883.7Q830.82 882.94 831.17 882.08L831.17 882.08L835.47 871.79L839.9 871.79L839.9 890L836.96 890L836.96 880.59Q836.96 879.56 836.97 878.63Q836.98 877.7 836.99 876.8Q837.01 875.91 837.02 875Q837.03 874.1 837.04 873.15L837.04 873.15L837.44 873.15Q837.04 874.49 836.66 875.65Q836.28 876.8 835.84 877.97Q835.4 879.14 834.79 880.57L834.79 880.57L830.77 890L828.19 890L824.13 880.57Q823.51 879.14 823.06 877.97Q822.62 876.8 822.23 875.65Q821.85 874.49 821.44 873.15L821.44 873.15L821.9 873.15Q821.92 874 821.94 874.88Q821.97 875.76 821.98 876.68Q821.99 877.6 821.99 878.57Q822 879.54 822 880.59L822 880.59L822 890M859.6 871.79L859.6 890L856.65 890L856.65 876.72L856.5 876.72L847.64 890L844.8 890L844.8 871.79L847.73 871.79L847.73 885.1L847.9 885.1L856.78 871.79L859.6 871.79M866.73 879.28L876.92 879.28L876.92 882L866.73 882L866.73 879.28M864.49 871.79L867.42 871.79L867.42 890L864.49 890L864.49 871.79M876.26 871.79L879.19 871.79L879.19 890L876.26 890L876.26 871.79M883.31 896.79L883.31 896.79L883.83 894.23L884.61 894.3Q885.4 894.45 886.04 894.3Q886.68 894.15 887.2 893.58Q887.71 893 888.09 891.88L888.09 891.88L888.77 890.02L881.78 871.79L884.99 871.79L888.87 882.48Q889.45 884.06 889.89 885.61Q890.33 887.16 890.8 888.64L890.8 888.64L889.82 888.64Q890.27 887.16 890.72 885.6Q891.16 884.04 891.73 882.48L891.73 882.48L895.63 871.79L898.8 871.79L890.67 892.94Q890.14 894.32 889.37 895.22Q888.61 896.13 887.6 896.57Q886.6 897.02 885.35 897.02L885.35 897.02Q884.67 897.02 884.14 896.95Q883.61 896.87 883.31 896.79M909.46 890L906.54 890L906.54 874.41L900.41 874.41L900.41 871.79L915.55 871.79L915.55 874.41L909.46 874.41L909.46 890M921.01 880.95L921.01 878.21L926.38 878.21Q928.48 878.21 930 878.97Q931.51 879.72 932.3 881.04Q933.1 882.35 933.1 884.04L933.1 884.04Q933.1 885.73 932.29 887.08Q931.49 888.42 929.99 889.21Q928.48 890 926.38 890L926.38 890L918.51 890L918.51 871.79L921.45 871.79L921.45 887.28L926.34 887.28Q928.04 887.28 929.09 886.41Q930.15 885.53 930.15 884.14L930.15 884.14Q930.15 882.7 929.09 881.82Q928.04 880.95 926.34 880.95L926.34 880.95L921.01 880.95M938.03 890L935.09 890L935.09 871.79L938.03 871.79L938.03 890" fill="#9A958C"><title>От идеи до ролика во всех соцсетях за 4 минуты</title></path>
<g transform="translate(210.18,1010)" filter="url(#drop)"><rect width="659.64" height="108" rx="54" fill="#FFD21E"/><path d="M60.8 38L92.56 38L92.56 68L84.28 68L84.28 41.6L88 45.36L65.36 45.36L69.08 41.6L69.08 68L60.8 68L60.8 38M110.8 68.64L110.8 68.64Q106.4 68.64 103.12 67.14Q99.84 65.64 98 62.9Q96.16 60.16 96.16 56.6L96.16 56.6Q96.16 52.96 98 50.24Q99.84 47.52 103.12 46Q106.4 44.48 110.8 44.48L110.8 44.48Q115.16 44.48 118.46 46Q121.76 47.52 123.6 50.24Q125.44 52.96 125.44 56.6L125.44 56.6Q125.44 60.16 123.6 62.9Q121.76 65.64 118.46 67.14Q115.16 68.64 110.8 68.64M110.8 62.6L110.8 62.6Q112.8 62.6 114.22 61.88Q115.64 61.16 116.4 59.8Q117.16 58.44 117.16 56.6L117.16 56.6Q117.16 54.68 116.4 53.34Q115.64 52 114.22 51.28Q112.8 50.56 110.8 50.56L110.8 50.56Q108.8 50.56 107.36 51.28Q105.92 52 105.16 53.34Q104.4 54.68 104.4 56.56L104.4 56.56Q104.4 58.44 105.16 59.8Q105.92 61.16 107.36 61.88Q108.8 62.6 110.8 62.6M128.48 45.16L155.44 45.16L155.44 68L147.24 68L147.24 47.52L151 51.24L132.92 51.24L136.68 47.52L136.68 68L128.48 68L128.48 45.16M159.52 74.6L159.52 45.16L167.72 45.16L167.72 51.72L167.36 52.68L167.36 59.08L167.72 60.96L167.72 74.6L159.52 74.6M165.12 56.6L165.12 56.6Q165.64 52.88 167.3 50.18Q168.96 47.48 171.52 45.98Q174.08 44.48 177.32 44.48L177.32 44.48Q180.68 44.48 183.22 46Q185.76 47.52 187.18 50.24Q188.6 52.96 188.6 56.6L188.6 56.6Q188.6 60.16 187.18 62.9Q185.76 65.64 183.22 67.14Q180.68 68.64 177.32 68.64L177.32 68.64Q174.08 68.64 171.52 67.14Q168.96 65.64 167.32 62.92Q165.68 60.2 165.12 56.6M180.36 56.6L180.36 56.6Q180.36 54.88 179.66 53.56Q178.96 52.24 177.7 51.48Q176.44 50.72 174.84 50.72L174.84 50.72Q173.2 50.72 171.72 51.48Q170.24 52.24 169.12 53.56Q168 54.88 167.4 56.6L167.4 56.6Q168 58.28 169.12 59.6Q170.24 60.92 171.72 61.66Q173.2 62.4 174.84 62.4L174.84 62.4Q176.44 62.4 177.7 61.66Q178.96 60.92 179.66 59.6Q180.36 58.28 180.36 56.6M205.32 68.64L205.32 68.64Q200.92 68.64 197.64 67.14Q194.36 65.64 192.52 62.9Q190.68 60.16 190.68 56.6L190.68 56.6Q190.68 52.96 192.52 50.24Q194.36 47.52 197.64 46Q200.92 44.48 205.32 44.48L205.32 44.48Q209.68 44.48 212.98 46Q216.28 47.52 218.12 50.24Q219.96 52.96 219.96 56.6L219.96 56.6Q219.96 60.16 218.12 62.9Q216.28 65.64 212.98 67.14Q209.68 68.64 205.32 68.64M205.32 62.6L205.32 62.6Q207.32 62.6 208.74 61.88Q210.16 61.16 210.92 59.8Q211.68 58.44 211.68 56.6L211.68 56.6Q211.68 54.68 210.92 53.34Q210.16 52 208.74 51.28Q207.32 50.56 205.32 50.56L205.32 50.56Q203.32 50.56 201.88 51.28Q200.44 52 199.68 53.34Q198.92 54.68 198.92 56.56L198.92 56.56Q198.92 58.44 199.68 59.8Q200.44 61.16 201.88 61.88Q203.32 62.6 205.32 62.6M237.52 68.64L237.52 68.64Q232.68 68.64 229.26 66.86Q225.84 65.08 224.02 61.7Q222.2 58.32 222.2 53.56L222.2 53.56Q222.2 46.48 226.12 42.38Q230.04 38.28 237.32 37.64L237.32 37.64Q240.32 37.4 242.28 37.22Q244.24 37.04 245.5 36.86Q246.76 36.68 247.66 36.48Q248.56 36.28 249.4 36L249.4 36L249.4 42.64Q248.44 43 247.12 43.24Q245.8 43.48 243.82 43.64Q241.84 43.8 238.88 43.92L238.88 43.92Q233.76 44.12 231.38 46.5Q229 48.88 229 53.4L229 53.4L229 54.24L228.76 53.64Q229.48 51.64 231.08 50.2Q232.68 48.76 234.96 47.98Q237.24 47.2 239.92 47.2L239.92 47.2Q243.4 47.2 246 48.48Q248.6 49.76 250.04 52.12Q251.48 54.48 251.48 57.56L251.48 57.56Q251.48 60.92 249.74 63.42Q248 65.92 244.88 67.28Q241.76 68.64 237.52 68.64M237.72 62.6L237.72 62.6Q239.4 62.6 240.64 62Q241.88 61.4 242.56 60.28Q243.24 59.16 243.24 57.72L243.24 57.72Q243.24 56.2 242.56 55.12Q241.88 54.04 240.64 53.44Q239.4 52.84 237.72 52.84L237.72 52.84Q235.36 52.84 233.46 54.06Q231.56 55.28 230.64 57.44L230.64 57.44Q231.2 59.76 233.14 61.18Q235.08 62.6 237.72 62.6M262.08 75.24L262.08 75.24Q259.56 75.24 257.6 74.62Q255.64 74 253.8 72.72L253.8 72.72L253.8 67.04Q255.68 68.24 257.32 68.76Q258.96 69.28 260.92 69.28L260.92 69.28Q262.56 69.28 263.84 68.56Q265.12 67.84 265.92 65.92L265.92 65.92L274.68 45.16L283.36 45.16L272.4 68.44Q271.24 70.96 269.58 72.46Q267.92 73.96 266 74.6Q264.08 75.24 262.08 75.24M270.24 65.88L262.36 65.88L252.64 45.16L261.64 45.16L270.24 65.88M295.44 68L285.24 68L285.24 45.16L293.32 45.16L293.32 63.56L291.56 63L303.52 45.16L314 45.16L314 68L305.96 68L305.96 49.08L307.72 49.68L295.44 68M299.4 43.24L299.4 43.24Q295.2 43.24 292.68 41.22Q290.16 39.2 289.56 35.4L289.56 35.4L295.8 35.4Q296.12 36.96 297.04 37.8Q297.96 38.64 299.4 38.64L299.4 38.64Q300.84 38.64 301.76 37.8Q302.68 36.96 302.96 35.4L302.96 35.4L309.24 35.4Q308.64 39.2 306.1 41.22Q303.56 43.24 299.4 43.24M342.16 68.64L342.16 68.64Q337.32 68.64 333.9 66.86Q330.48 65.08 328.66 61.7Q326.84 58.32 326.84 53.56L326.84 53.56Q326.84 46.48 330.76 42.38Q334.68 38.28 341.96 37.64L341.96 37.64Q344.96 37.4 346.92 37.22Q348.88 37.04 350.14 36.86Q351.4 36.68 352.3 36.48Q353.2 36.28 354.04 36L354.04 36L354.04 42.64Q353.08 43 351.76 43.24Q350.44 43.48 348.46 43.64Q346.48 43.8 343.52 43.92L343.52 43.92Q338.4 44.12 336.02 46.5Q333.64 48.88 333.64 53.4L333.64 53.4L333.64 54.24L333.4 53.64Q334.12 51.64 335.72 50.2Q337.32 48.76 339.6 47.98Q341.88 47.2 344.56 47.2L344.56 47.2Q348.04 47.2 350.64 48.48Q353.24 49.76 354.68 52.12Q356.12 54.48 356.12 57.56L356.12 57.56Q356.12 60.92 354.38 63.42Q352.64 65.92 349.52 67.28Q346.4 68.64 342.16 68.64M342.36 62.6L342.36 62.6Q344.04 62.6 345.28 62Q346.52 61.4 347.2 60.28Q347.88 59.16 347.88 57.72L347.88 57.72Q347.88 56.2 347.2 55.12Q346.52 54.04 345.28 53.44Q344.04 52.84 342.36 52.84L342.36 52.84Q340 52.84 338.1 54.06Q336.2 55.28 335.28 57.44L335.28 57.44Q335.84 59.76 337.78 61.18Q339.72 62.6 342.36 62.6M372.6 68.64L372.6 68.64Q368.44 68.64 365.18 67.12Q361.92 65.6 360.04 62.86Q358.16 60.12 358.16 56.48L358.16 56.48Q358.16 52.92 359.96 50.22Q361.76 47.52 364.9 46Q368.04 44.48 372 44.48L372 44.48Q376.12 44.48 379.02 46.26Q381.92 48.04 383.5 51.28Q385.08 54.52 385.08 58.92L385.08 58.92L364.76 58.92L364.76 54L380.48 54L377.8 55.72Q377.64 53.96 376.92 52.74Q376.2 51.52 375.02 50.88Q373.84 50.24 372.2 50.24L372.2 50.24Q370.4 50.24 369.12 50.96Q367.84 51.68 367.12 52.94Q366.4 54.2 366.4 55.88L366.4 55.88Q366.4 58.04 367.38 59.54Q368.36 61.04 370.26 61.84Q372.16 62.64 374.92 62.64L374.92 62.64Q377.44 62.64 379.94 61.98Q382.44 61.32 384.48 60.12L384.48 60.12L384.48 65.32Q382.12 66.92 379.1 67.78Q376.08 68.64 372.6 68.64M407.28 58.36L415.4 58.36Q415.08 61.44 413.16 63.76Q411.24 66.08 408.18 67.36Q405.12 68.64 401.32 68.64L401.32 68.64Q397.12 68.64 393.92 67.12Q390.72 65.6 388.92 62.88Q387.12 60.16 387.12 56.6L387.12 56.6Q387.12 53 388.92 50.28Q390.72 47.56 393.92 46.02Q397.12 44.48 401.32 44.48L401.32 44.48Q405.12 44.48 408.18 45.78Q411.24 47.08 413.16 49.38Q415.08 51.68 415.4 54.8L415.4 54.8L407.28 54.8Q406.84 52.76 405.24 51.66Q403.64 50.56 401.32 50.56L401.32 50.56Q399.52 50.56 398.18 51.26Q396.84 51.96 396.1 53.3Q395.36 54.64 395.36 56.6L395.36 56.6Q395.36 58.52 396.1 59.86Q396.84 61.2 398.18 61.9Q399.52 62.6 401.32 62.6L401.32 62.6Q403.64 62.6 405.26 61.44Q406.88 60.28 407.28 58.36L407.28 58.36M418.24 45.16L445.2 45.16L445.2 68L437 68L437 47.52L440.76 51.24L422.68 51.24L426.44 47.52L426.44 68L418.24 68L418.24 45.16M453.2 45.16L453.2 45.16L478 45.16L478 68L469.8 68L469.8 47.48L473.56 51.24L457.28 51.24L460.72 48.08Q460.96 50.44 461.08 52.36Q461.2 54.28 461.2 55.8L461.2 55.8Q461.2 62.52 459.14 65.5Q457.08 68.48 452.48 68.48L452.48 68.48Q451.12 68.48 449.92 68.2Q448.72 67.92 447.56 67.28L447.56 67.28L447.56 61.48Q448.28 61.76 448.98 61.9Q449.68 62.04 450.24 62.04L450.24 62.04Q452.2 62.04 453 60.32Q453.8 58.6 453.8 54.68L453.8 54.68Q453.8 52.8 453.66 50.42Q453.52 48.04 453.2 45.16M511.2 68L502.72 68L501.68 59.76L502.76 56.6L501.68 53.44L502.72 45.16L511.2 45.16L509.76 56.56L511.2 68M504.64 56.6L504.64 56.6Q504.08 60.2 502.42 62.92Q500.76 65.64 498.22 67.14Q495.68 68.64 492.44 68.64L492.44 68.64Q489.08 68.64 486.54 67.14Q484 65.64 482.56 62.9Q481.12 60.16 481.12 56.6L481.12 56.6Q481.12 52.96 482.56 50.24Q484 47.52 486.54 46Q489.08 44.48 492.44 44.48L492.44 44.48Q495.68 44.48 498.22 45.98Q500.76 47.48 502.44 50.18Q504.12 52.88 504.64 56.6M489.4 56.6L489.4 56.6Q489.4 58.28 490.1 59.6Q490.8 60.92 492.04 61.66Q493.28 62.4 494.88 62.4L494.88 62.4Q496.56 62.4 498.04 61.66Q499.52 60.92 500.64 59.6Q501.76 58.28 502.32 56.6L502.32 56.6Q501.76 54.88 500.64 53.56Q499.52 52.24 498.04 51.48Q496.56 50.72 494.88 50.72L494.88 50.72Q493.28 50.72 492.04 51.48Q490.8 52.24 490.1 53.56Q489.4 54.88 489.4 56.6M521.72 68L521.72 47.96L529.92 47.96L529.92 68L521.72 68M513.04 51.32L513.04 45.16L538.6 45.16L538.6 51.32L513.04 51.32M541 68L541 45.16L549.16 45.16L549.16 68L541 68M559.96 68L559.96 45.16L568.12 45.16L568.12 68L559.96 68M545.72 59.36L545.72 53.28L563.04 53.28L563.04 59.36L545.72 59.36M585.8 68.64L585.8 68.64Q581.4 68.64 578.12 67.14Q574.84 65.64 573 62.9Q571.16 60.16 571.16 56.6L571.16 56.6Q571.16 52.96 573 50.24Q574.84 47.52 578.12 46Q581.4 44.48 585.8 44.48L585.8 44.48Q590.16 44.48 593.46 46Q596.76 47.52 598.6 50.24Q600.44 52.96 600.44 56.6L600.44 56.6Q600.44 60.16 598.6 62.9Q596.76 65.64 593.46 67.14Q590.16 68.64 585.8 68.64M585.8 62.6L585.8 62.6Q587.8 62.6 589.22 61.88Q590.64 61.16 591.4 59.8Q592.16 58.44 592.16 56.6L592.16 56.6Q592.16 54.68 591.4 53.34Q590.64 52 589.22 51.28Q587.8 50.56 585.8 50.56L585.8 50.56Q583.8 50.56 582.36 51.28Q580.92 52 580.16 53.34Q579.4 54.68 579.4 56.56L579.4 56.56Q579.4 58.44 580.16 59.8Q580.92 61.16 582.36 61.88Q583.8 62.6 585.8 62.6" fill="#161512"><title>Попробуй бесплатно</title></path></g>
<g transform="translate(195.92000000000007,1210)" filter="url(#dropSoft)">
      <rect width="688.1599999999999" height="92" rx="46" fill="#161512" stroke="#FFD21E" stroke-width="2"/>
      <path d="M32.14 45.23L30.93 38.93L37.49 38.93L38.67 46.22L38.67 57.2L32.14 57.2L32.14 45.23M44.98 38.38L44.98 38.38Q47.5 38.38 49.26 39.44Q51.02 40.5 51.95 42.42Q52.88 44.34 52.88 46.96L52.88 46.96L52.88 57.2L46.35 57.2L46.35 47.92Q46.35 45.87 45.42 44.78Q44.5 43.7 42.74 43.7L42.74 43.7Q41.49 43.7 40.58 44.27Q39.66 44.85 39.17 45.9Q38.67 46.96 38.67 48.4L38.67 48.4L36.66 47.34Q37.04 44.43 38.22 42.43Q39.41 40.43 41.15 39.41Q42.9 38.38 44.98 38.38M59.15 38.38L59.15 38.38Q61.68 38.38 63.46 39.44Q65.23 40.5 66.16 42.42Q67.09 44.34 67.09 46.96L67.09 46.96L67.09 57.2L60.56 57.2L60.56 47.92Q60.56 45.87 59.63 44.78Q58.7 43.7 56.94 43.7L56.94 43.7Q55.7 43.7 54.78 44.27Q53.87 44.85 53.38 45.9Q52.88 46.96 52.88 48.4L52.88 48.4L50.86 47.34Q51.25 44.43 52.42 42.43Q53.58 40.43 55.34 39.41Q57.1 38.38 59.15 38.38M81.01 57.71L81.01 57.71Q77.49 57.71 74.86 56.51Q72.24 55.31 70.77 53.12Q69.3 50.93 69.3 48.08L69.3 48.08Q69.3 45.17 70.77 42.99Q72.24 40.82 74.86 39.6Q77.49 38.38 81.01 38.38L81.01 38.38Q84.5 38.38 87.14 39.6Q89.78 40.82 91.25 42.99Q92.72 45.17 92.72 48.08L92.72 48.08Q92.72 50.93 91.25 53.12Q89.78 55.31 87.14 56.51Q84.5 57.71 81.01 57.71M81.01 52.88L81.01 52.88Q82.61 52.88 83.74 52.3Q84.88 51.73 85.49 50.64Q86.1 49.55 86.1 48.08L86.1 48.08Q86.1 46.54 85.49 45.47Q84.88 44.4 83.74 43.82Q82.61 43.25 81.01 43.25L81.01 43.25Q79.41 43.25 78.26 43.82Q77.1 44.4 76.5 45.47Q75.89 46.54 75.89 48.05L75.89 48.05Q75.89 49.55 76.5 50.64Q77.1 51.73 78.26 52.3Q79.41 52.88 81.01 52.88M95.5 45.23L94.29 38.93L100.85 38.93L102.03 46.22L102.03 57.2L95.5 57.2L95.5 45.23M108.75 38.38L108.75 38.38Q111.38 38.38 113.23 39.44Q115.09 40.5 116.06 42.42Q117.04 44.34 117.04 46.96L117.04 46.96L117.04 57.2L110.51 57.2L110.51 47.92Q110.51 45.87 109.47 44.78Q108.43 43.7 106.48 43.7L106.48 43.7Q105.14 43.7 104.13 44.27Q103.12 44.85 102.58 45.9Q102.03 46.96 102.03 48.4L102.03 48.4L100.02 47.34Q100.4 44.43 101.65 42.43Q102.9 40.43 104.72 39.41Q106.54 38.38 108.75 38.38M122.19 43.76L118.48 43.76L118.48 40.91L122.19 39.41L125.01 34L128.72 34L128.72 38.93L136.4 38.93L136.4 43.76L128.72 43.76L128.72 49.14Q128.72 51.12 129.52 51.92Q130.32 52.72 132.43 52.72L132.43 52.72Q133.78 52.72 134.82 52.48Q135.86 52.24 136.72 51.86L136.72 51.86L136.72 56.78Q135.76 57.14 134.19 57.42Q132.62 57.71 130.96 57.71L130.96 57.71Q127.92 57.71 125.98 56.78Q124.05 55.86 123.12 54.11Q122.19 52.37 122.19 50.03L122.19 50.03L122.19 43.76M145.07 62.99L145.07 62.99Q143.06 62.99 141.49 62.5Q139.92 62 138.45 60.98L138.45 60.98L138.45 56.43Q139.95 57.39 141.26 57.81Q142.58 58.22 144.14 58.22L144.14 58.22Q145.46 58.22 146.48 57.65Q147.5 57.07 148.14 55.54L148.14 55.54L155.15 38.93L162.1 38.93L153.33 57.55Q152.4 59.57 151.07 60.77Q149.74 61.97 148.21 62.48Q146.67 62.99 145.07 62.99M151.6 55.5L145.3 55.5L137.52 38.93L144.72 38.93L151.6 55.5M166.61 57.52L166.61 57.52Q165.58 57.52 164.74 57.04Q163.89 56.56 163.41 55.71Q162.93 54.86 162.93 53.84L162.93 53.84Q162.93 52.82 163.41 51.98Q163.89 51.15 164.74 50.66Q165.58 50.16 166.61 50.16L166.61 50.16Q167.66 50.16 168.5 50.66Q169.33 51.15 169.81 51.98Q170.29 52.82 170.29 53.84L170.29 53.84Q170.29 54.86 169.81 55.71Q169.33 56.56 168.5 57.04Q167.66 57.52 166.61 57.52M185.87 36.91L185.87 36.91Q183.73 36.91 182.88 37.66Q182.03 38.42 182.03 40.08L182.03 40.08L182.03 57.2L175.5 57.2L175.5 40.4Q175.5 37.74 176.59 35.87Q177.68 34 179.81 33.02Q181.94 32.05 185.07 32.05L185.07 32.05Q186.48 32.05 187.58 32.24Q188.69 32.43 189.94 32.78L189.94 32.78L189.94 37.58Q188.98 37.23 187.97 37.07Q186.96 36.91 185.87 36.91M189.49 45.26L171.79 45.26L171.79 40.43L189.49 40.43L189.49 45.26M214.7 57.2L207.92 57.2L207.09 50.61L207.95 48.08L207.09 45.55L207.92 38.93L214.7 38.93L213.55 48.05L214.7 57.2M209.46 48.08L209.46 48.08Q209.01 50.96 207.68 53.14Q206.35 55.31 204.32 56.51Q202.29 57.71 199.7 57.71L199.7 57.71Q197.01 57.71 194.98 56.51Q192.94 55.31 191.79 53.12Q190.64 50.93 190.64 48.08L190.64 48.08Q190.64 45.17 191.79 42.99Q192.94 40.82 194.98 39.6Q197.01 38.38 199.7 38.38L199.7 38.38Q202.29 38.38 204.32 39.58Q206.35 40.78 207.7 42.94Q209.04 45.1 209.46 48.08M197.26 48.08L197.26 48.08Q197.26 49.42 197.82 50.48Q198.38 51.54 199.38 52.13Q200.37 52.72 201.65 52.72L201.65 52.72Q202.99 52.72 204.18 52.13Q205.36 51.54 206.26 50.48Q207.15 49.42 207.6 48.08L207.6 48.08Q207.15 46.7 206.26 45.65Q205.36 44.59 204.18 43.98Q202.99 43.38 201.65 43.38L201.65 43.38Q200.37 43.38 199.38 43.98Q198.38 44.59 197.82 45.65Q197.26 46.7 197.26 48.08M238.7 51.25L238.7 51.25Q238.7 53.36 237.42 54.8Q236.14 56.24 233.78 56.98Q231.41 57.71 228.08 57.71L228.08 57.71Q224.66 57.71 222.08 56.88Q219.5 56.05 218.06 54.54Q216.62 53.04 216.53 51.06L216.53 51.06L223.15 51.06Q223.38 51.79 224.03 52.32Q224.69 52.85 225.78 53.12Q226.86 53.39 228.37 53.39L228.37 53.39Q230.32 53.39 231.33 53.01Q232.34 52.62 232.34 51.86L232.34 51.86Q232.34 51.25 231.57 50.94Q230.8 50.64 228.94 50.48L228.94 50.48L225.71 50.22Q222.48 50 220.58 49.25Q218.67 48.5 217.84 47.3Q217.01 46.1 217.01 44.56L217.01 44.56Q217.01 42.48 218.3 41.12Q219.6 39.76 221.92 39.07Q224.24 38.38 227.34 38.38L227.34 38.38Q230.42 38.38 232.82 39.18Q235.22 39.98 236.66 41.41Q238.1 42.83 238.32 44.75L238.32 44.75L231.7 44.75Q231.54 44.14 230.99 43.65Q230.45 43.15 229.49 42.83Q228.53 42.51 227.02 42.51L227.02 42.51Q225.26 42.51 224.35 42.9Q223.44 43.28 223.44 43.98L223.44 43.98Q223.44 44.53 224 44.85Q224.56 45.17 226.1 45.3L226.1 45.3L230.35 45.62Q233.52 45.81 235.34 46.53Q237.17 47.25 237.94 48.43Q238.7 49.62 238.7 51.25M243.25 43.76L239.54 43.76L239.54 40.91L243.25 39.41L246.06 34L249.78 34L249.78 38.93L257.46 38.93L257.46 43.76L249.78 43.76L249.78 49.14Q249.78 51.12 250.58 51.92Q251.38 52.72 253.49 52.72L253.49 52.72Q254.83 52.72 255.87 52.48Q256.91 52.24 257.78 51.86L257.78 51.86L257.78 56.78Q256.82 57.14 255.25 57.42Q253.68 57.71 252.02 57.71L252.02 57.71Q248.98 57.71 247.04 56.78Q245.1 55.86 244.18 54.11Q243.25 52.37 243.25 50.03L243.25 50.03L243.25 43.76M258.77 58.06L267.73 32.34L272.59 32.34L263.63 58.06L258.77 58.06M274.83 45.07L273.62 38.93L280.27 38.93L281.36 45.46L281.36 57.2L274.83 57.2L274.83 45.07M289.94 38.64L289.94 38.64L289.94 44.21Q288.98 44.02 288.13 43.94Q287.28 43.86 286.58 43.86L286.58 43.86Q285.17 43.86 283.98 44.42Q282.8 44.98 282.08 46.26Q281.36 47.54 281.36 49.68L281.36 49.68L280.11 48.14Q280.37 46.16 280.88 44.42Q281.39 42.67 282.27 41.31Q283.15 39.95 284.46 39.17Q285.78 38.38 287.66 38.38L287.66 38.38Q288.21 38.38 288.78 38.45Q289.36 38.51 289.94 38.64M290.51 58.06L299.47 32.34L304.34 32.34L295.38 58.06L290.51 58.06" fill="#FBF7EF"><title>monty.fast/r/</title></path>
      <g data-code="1" data-x="304.75199999999995" data-y="57.2" data-size="32" data-fill="#FFD21E" data-track="-0.01" data-anchor="start" data-max="353.4"><path d="M314.51 57.2L314.51 36.11L321.17 36.11L321.17 57.2L314.51 57.2M305.36 39.09L305.36 33.2L330.32 33.2L330.32 39.09L305.36 39.09M349.1 45.46L349.1 45.46L349.65 44.21Q352.43 44.27 354.24 45.06Q356.05 45.84 356.94 47.23Q357.84 48.62 357.84 50.45L357.84 50.45Q357.84 52.4 356.94 53.92Q356.05 55.44 354.27 56.32Q352.5 57.2 349.84 57.2L349.84 57.2L332.11 57.2L333.97 44.88L332.11 33.2L349.2 33.2Q352.53 33.2 354.38 34.75Q356.24 36.3 356.24 39.06L356.24 39.06Q356.24 40.56 355.54 41.94Q354.83 43.31 353.28 44.26Q351.73 45.2 349.1 45.46M340.3 44.88L338.67 55.66L336.11 52.56L348.05 52.56Q349.49 52.56 350.29 51.86Q351.09 51.15 351.09 49.9L351.09 49.9Q351.09 48.66 350.22 47.9Q349.36 47.15 347.66 47.15L347.66 47.15L337.81 47.15L337.81 42.61L346.77 42.61Q347.92 42.61 348.7 41.92Q349.49 41.23 349.49 40.05L349.49 40.05Q349.49 39.09 348.82 38.46Q348.14 37.84 346.9 37.84L346.9 37.84L336.14 37.84L338.67 34.74L340.3 44.88M373.97 57.71L373.97 57.71Q369.71 57.71 366.5 56.14Q363.28 54.58 361.5 51.76Q359.73 48.94 359.73 45.2L359.73 45.2Q359.73 41.46 361.5 38.64Q363.28 35.82 366.5 34.26Q369.71 32.69 373.97 32.69L373.97 32.69Q378.26 32.69 381.46 34.26Q384.66 35.82 386.45 38.64Q388.24 41.46 388.24 45.2L388.24 45.2Q388.24 48.94 386.45 51.76Q384.66 54.58 381.46 56.14Q378.26 57.71 373.97 57.71M373.97 51.79L373.97 51.79Q376.3 51.79 378 50.99Q379.7 50.19 380.61 48.72Q381.52 47.25 381.52 45.2L381.52 45.2Q381.52 43.15 380.61 41.68Q379.7 40.21 378 39.41Q376.3 38.61 373.97 38.61L373.97 38.61Q371.66 38.61 369.97 39.41Q368.27 40.21 367.34 41.68Q366.42 43.15 366.42 45.2L366.42 45.2Q366.42 47.25 367.34 48.72Q368.27 50.19 369.97 50.99Q371.66 51.79 373.97 51.79M399.76 57.2L391.34 57.2L391.34 33.2L397.87 33.2L397.87 53.71L396.05 53.3L409.65 33.2L418.32 33.2L418.32 57.2L411.76 57.2L411.76 36.3L413.62 36.72L399.76 57.2M396.53 25.9L396.53 25.9L401.74 25.9Q402.13 26.93 402.88 27.46Q403.63 27.98 404.75 27.98L404.75 27.98Q405.87 27.98 406.62 27.46Q407.38 26.93 407.76 25.9L407.76 25.9L412.98 25.9Q412.27 28.94 410.08 30.3Q407.89 31.66 404.75 31.66L404.75 31.66Q401.65 31.66 399.44 30.3Q397.23 28.94 396.53 25.9M419.15 62.54L419.15 58.16L436.75 58.16L436.75 62.54L419.15 62.54M443.57 57.2L437.58 57.2L437.58 33.2L444.18 33.2L444.18 51.92L442.42 50.54L456.02 33.2L463.02 33.2L443.57 57.2M455.82 57.2L449.04 45.74L453.9 41.71L463.34 57.2L455.82 57.2M478.29 57.71L478.29 57.71Q474.03 57.71 470.82 56.14Q467.6 54.58 465.82 51.76Q464.05 48.94 464.05 45.2L464.05 45.2Q464.05 41.46 465.82 38.64Q467.6 35.82 470.82 34.26Q474.03 32.69 478.29 32.69L478.29 32.69Q482.58 32.69 485.78 34.26Q488.98 35.82 490.77 38.64Q492.56 41.46 492.56 45.2L492.56 45.2Q492.56 48.94 490.77 51.76Q488.98 54.58 485.78 56.14Q482.58 57.71 478.29 57.71M478.29 51.79L478.29 51.79Q480.62 51.79 482.32 50.99Q484.02 50.19 484.93 48.72Q485.84 47.25 485.84 45.2L485.84 45.2Q485.84 43.15 484.93 41.68Q484.02 40.21 482.32 39.41Q480.62 38.61 478.29 38.61L478.29 38.61Q475.98 38.61 474.29 39.41Q472.59 40.21 471.66 41.68Q470.74 43.15 470.74 45.2L470.74 45.2Q470.74 47.25 471.66 48.72Q472.59 50.19 474.29 50.99Q475.98 51.79 478.29 51.79M500.24 62.03L494.03 62.03L494.03 51.34L499.22 51.34L501.33 51.41L517.97 51.41L519.63 51.34L526.61 51.34L526.61 62.03L520.4 62.03L520.4 57.2L500.24 57.2L500.24 62.03M499.02 33.2L499.02 33.2L522.48 33.2L522.48 55.34L515.82 55.34L515.82 35.98L518.83 38.99L502.54 38.99L505.3 36.78Q505.55 38.26 505.6 39.63Q505.65 41.01 505.65 42.26L505.65 42.26Q505.65 46 504.99 48.56Q504.34 51.12 503.04 52.43Q501.74 53.74 499.79 53.74L499.79 53.74L497.01 51.44Q498.29 49.94 498.9 47.33Q499.5 44.72 499.5 40.88L499.5 40.88Q499.5 39.12 499.38 37.2Q499.25 35.28 499.02 33.2" fill="#FFD21E"><title>ТВОЙ_КОД</title></path></g>
    </g>
<path d="M329.87 1345L341.97 1345L341.97 1360L339.55 1360L339.55 1347.24L332.3 1347.24L332.3 1360L329.87 1360L329.87 1345M348.41 1365.71L345.99 1365.71L345.99 1345L348.34 1345L348.34 1347.34L348.53 1347.34Q348.86 1346.79 349.41 1346.21Q349.95 1345.62 350.83 1345.2Q351.7 1344.78 353 1344.78L353 1344.78Q354.9 1344.78 356.35 1345.73Q357.79 1346.68 358.6 1348.43Q359.42 1350.17 359.42 1352.52L359.42 1352.52Q359.42 1354.89 358.61 1356.64Q357.8 1358.39 356.36 1359.35Q354.92 1360.31 353.02 1360.31L353.02 1360.31Q351.73 1360.31 350.86 1359.89Q350 1359.47 349.44 1358.86Q348.89 1358.25 348.55 1357.69L348.55 1357.69L348.41 1357.69L348.41 1365.71M352.65 1358.14L352.65 1358.14Q354.03 1358.14 354.99 1357.42Q355.94 1356.71 356.45 1355.43Q356.95 1354.16 356.95 1352.51L356.95 1352.51Q356.95 1350.85 356.46 1349.6Q355.96 1348.35 354.99 1347.65Q354.03 1346.94 352.65 1346.94L352.65 1346.94Q351.27 1346.94 350.3 1347.64Q349.33 1348.34 348.83 1349.58Q348.33 1350.83 348.33 1352.51L348.33 1352.51Q348.33 1354.18 348.83 1355.45Q349.34 1356.72 350.31 1357.43Q351.28 1358.14 352.65 1358.14M368.83 1360.33L368.83 1360.33Q366.78 1360.33 365.24 1359.35Q363.69 1358.37 362.83 1356.62Q361.96 1354.87 361.96 1352.58L361.96 1352.58Q361.96 1350.24 362.83 1348.48Q363.69 1346.72 365.24 1345.74Q366.78 1344.76 368.83 1344.76L368.83 1344.76Q370.9 1344.76 372.45 1345.74Q374 1346.72 374.86 1348.48Q375.73 1350.24 375.73 1352.58L375.73 1352.58Q375.73 1354.87 374.86 1356.62Q374 1358.37 372.45 1359.35Q370.9 1360.33 368.83 1360.33M368.83 1358.15L368.83 1358.15Q370.33 1358.15 371.31 1357.4Q372.29 1356.65 372.79 1355.39Q373.28 1354.12 373.28 1352.58L373.28 1352.58Q373.28 1351 372.79 1349.73Q372.29 1348.45 371.31 1347.69Q370.33 1346.93 368.83 1346.93L368.83 1346.93Q367.36 1346.93 366.38 1347.69Q365.4 1348.45 364.91 1349.73Q364.42 1351 364.42 1352.58L364.42 1352.58Q364.42 1354.12 364.91 1355.39Q365.4 1356.65 366.38 1357.4Q367.36 1358.15 368.83 1358.15M381.41 1360L379.01 1360L379.01 1345L382.63 1345L386.21 1353.48Q386.5 1354.18 386.73 1354.8Q386.96 1355.42 387.15 1355.99Q387.33 1356.55 387.5 1357.11Q387.66 1357.66 387.81 1358.22L387.81 1358.22L387.37 1358.22Q387.52 1357.68 387.68 1357.14Q387.84 1356.6 388.02 1356.01Q388.21 1355.43 388.44 1354.81Q388.67 1354.19 388.96 1353.48L388.96 1353.48L392.5 1345L396.15 1345L396.15 1360L393.73 1360L393.73 1352.25Q393.73 1351.4 393.74 1350.63Q393.75 1349.87 393.76 1349.13Q393.77 1348.39 393.78 1347.65Q393.79 1346.9 393.8 1346.12L393.8 1346.12L394.13 1346.12Q393.8 1347.23 393.49 1348.18Q393.17 1349.13 392.81 1350.09Q392.45 1351.06 391.94 1352.23L391.94 1352.23L388.63 1360L386.51 1360L383.16 1352.23Q382.66 1351.06 382.29 1350.09Q381.92 1349.13 381.6 1348.18Q381.29 1347.23 380.95 1346.12L380.95 1346.12L381.33 1346.12Q381.34 1346.82 381.37 1347.54Q381.39 1348.27 381.39 1349.03Q381.4 1349.79 381.41 1350.59Q381.41 1351.39 381.41 1352.25L381.41 1352.25L381.41 1360M406.32 1360.33L406.32 1360.33Q404.27 1360.33 402.73 1359.35Q401.18 1358.37 400.31 1356.62Q399.45 1354.87 399.45 1352.58L399.45 1352.58Q399.45 1350.24 400.31 1348.48Q401.18 1346.72 402.73 1345.74Q404.27 1344.76 406.32 1344.76L406.32 1344.76Q408.39 1344.76 409.94 1345.74Q411.49 1346.72 412.35 1348.48Q413.21 1350.24 413.21 1352.58L413.21 1352.58Q413.21 1354.87 412.35 1356.62Q411.49 1358.37 409.94 1359.35Q408.39 1360.33 406.32 1360.33M406.32 1358.15L406.32 1358.15Q407.81 1358.15 408.8 1357.4Q409.78 1356.65 410.27 1355.39Q410.77 1354.12 410.77 1352.58L410.77 1352.58Q410.77 1351 410.27 1349.73Q409.78 1348.45 408.8 1347.69Q407.81 1346.93 406.32 1346.93L406.32 1346.93Q404.85 1346.93 403.87 1347.69Q402.89 1348.45 402.4 1349.73Q401.91 1351 401.91 1352.58L401.91 1352.58Q401.91 1354.12 402.4 1355.39Q402.89 1356.65 403.87 1357.4Q404.85 1358.15 406.32 1358.15M418.92 1360L416.5 1360L416.5 1345L418.92 1345L418.92 1351.48L420.46 1351.48L425.93 1345L428.99 1345L422.88 1352.25L429.07 1360L426.01 1360L421.05 1353.72L418.92 1353.72L418.92 1360M436.84 1360.33L436.84 1360.33Q434.79 1360.33 433.24 1359.35Q431.7 1358.37 430.83 1356.62Q429.96 1354.87 429.96 1352.58L429.96 1352.58Q429.96 1350.24 430.83 1348.48Q431.7 1346.72 433.24 1345.74Q434.79 1344.76 436.84 1344.76L436.84 1344.76Q438.9 1344.76 440.46 1345.74Q442.01 1346.72 442.87 1348.48Q443.73 1350.24 443.73 1352.58L443.73 1352.58Q443.73 1354.87 442.87 1356.62Q442.01 1358.37 440.46 1359.35Q438.9 1360.33 436.84 1360.33M436.84 1358.15L436.84 1358.15Q438.33 1358.15 439.31 1357.4Q440.3 1356.65 440.79 1355.39Q441.28 1354.12 441.28 1352.58L441.28 1352.58Q441.28 1351 440.79 1349.73Q440.3 1348.45 439.31 1347.69Q438.33 1346.93 436.84 1346.93L436.84 1346.93Q435.36 1346.93 434.38 1347.69Q433.41 1348.45 432.92 1349.73Q432.42 1351 432.42 1352.58L432.42 1352.58Q432.42 1354.12 432.92 1355.39Q433.41 1356.65 434.38 1357.4Q435.36 1358.15 436.84 1358.15M447.89 1364.39L445.47 1364.39L445.47 1357.76L446.72 1357.76Q447.19 1357.28 447.54 1356.72Q447.89 1356.16 448.13 1355.39Q448.38 1354.63 448.56 1353.53Q448.73 1352.43 448.87 1350.87L448.87 1350.87L449.38 1345L459.19 1345L459.19 1357.76L461.52 1357.76L461.52 1364.39L459.11 1364.39L459.11 1360L447.89 1360L447.89 1364.39M449.49 1357.76L449.49 1357.76L456.79 1357.76L456.79 1347.24L451.58 1347.24L451.24 1350.87Q451.02 1353.23 450.64 1354.97Q450.26 1356.71 449.49 1357.76M472.45 1364.39L470.03 1364.39L470.03 1357.76L471.29 1357.76Q471.76 1357.28 472.11 1356.72Q472.45 1356.16 472.7 1355.39Q472.95 1354.63 473.12 1353.53Q473.3 1352.43 473.44 1350.87L473.44 1350.87L473.94 1345L483.76 1345L483.76 1357.76L486.08 1357.76L486.08 1364.39L483.68 1364.39L483.68 1360L472.45 1360L472.45 1364.39M474.05 1357.76L474.05 1357.76L481.35 1357.76L481.35 1347.24L476.15 1347.24L475.8 1350.87Q475.58 1353.23 475.21 1354.97Q474.83 1356.71 474.05 1357.76M492.88 1360.31L492.88 1360.31Q491.44 1360.31 490.28 1359.78Q489.11 1359.25 488.42 1358.22Q487.74 1357.2 487.74 1355.72L487.74 1355.72Q487.74 1354.42 488.25 1353.62Q488.75 1352.81 489.6 1352.35Q490.45 1351.89 491.49 1351.66Q492.54 1351.43 493.62 1351.29L493.62 1351.29Q494.99 1351.1 495.83 1351Q496.67 1350.91 497.06 1350.68Q497.45 1350.46 497.45 1349.9L497.45 1349.9L497.45 1349.8Q497.45 1348.9 497.08 1348.26Q496.72 1347.61 496 1347.26Q495.29 1346.9 494.25 1346.9L494.25 1346.9Q493.18 1346.9 492.4 1347.24Q491.62 1347.59 491.15 1348.12Q490.68 1348.65 490.49 1349.24L490.49 1349.24L488.12 1348.72Q488.55 1347.35 489.46 1346.49Q490.38 1345.62 491.61 1345.2Q492.84 1344.78 494.19 1344.78L494.19 1344.78Q495.12 1344.78 496.11 1345.02Q497.1 1345.25 497.95 1345.82Q498.8 1346.4 499.33 1347.41Q499.85 1348.42 499.85 1349.96L499.85 1349.96L499.85 1360L497.47 1360L497.47 1357.94L497.34 1357.94Q497.08 1358.46 496.53 1359.01Q495.98 1359.56 495.09 1359.94Q494.19 1360.31 492.88 1360.31M493.28 1358.17L493.28 1358.17Q494.66 1358.17 495.59 1357.64Q496.52 1357.12 496.98 1356.27Q497.45 1355.43 497.45 1354.49L497.45 1354.49L497.45 1352.48Q497.3 1352.64 496.84 1352.77Q496.38 1352.9 495.77 1353.01Q495.16 1353.12 494.55 1353.21Q493.95 1353.29 493.51 1353.34L493.51 1353.34Q492.63 1353.45 491.87 1353.72Q491.1 1353.98 490.64 1354.48Q490.17 1354.98 490.17 1355.84L490.17 1355.84Q490.17 1356.6 490.57 1357.12Q490.97 1357.63 491.66 1357.9Q492.36 1358.17 493.28 1358.17M510.15 1360.33L510.15 1360.33Q507.96 1360.33 506.39 1359.35Q504.83 1358.37 503.98 1356.63Q503.13 1354.89 503.13 1352.59L503.13 1352.59Q503.13 1350.29 503.98 1348.53Q504.83 1346.77 506.35 1345.76Q507.88 1344.76 509.9 1344.76L509.9 1344.76Q511.21 1344.76 512.4 1345.21Q513.59 1345.66 514.52 1346.59Q515.45 1347.53 515.99 1348.97Q516.53 1350.4 516.53 1352.38L516.53 1352.38L516.53 1353.27L504.67 1353.27L504.67 1351.22L515.21 1351.22L514.11 1351.97Q514.11 1350.47 513.62 1349.33Q513.13 1348.19 512.19 1347.55Q511.25 1346.92 509.9 1346.92L509.9 1346.92Q508.55 1346.92 507.58 1347.57Q506.61 1348.21 506.09 1349.3Q505.57 1350.39 505.57 1351.7L505.57 1351.7L505.57 1352.96Q505.57 1354.59 506.13 1355.75Q506.69 1356.92 507.72 1357.55Q508.75 1358.17 510.16 1358.17L510.16 1358.17Q511.1 1358.17 511.86 1357.89Q512.61 1357.61 513.13 1357.07Q513.66 1356.53 513.92 1355.75L513.92 1355.75L516.29 1356.19Q515.96 1357.42 515.1 1358.35Q514.25 1359.28 512.98 1359.8Q511.72 1360.33 510.15 1360.33M512.73 1342.39L512.73 1342.39Q512.08 1342.39 511.6 1341.92Q511.12 1341.45 511.12 1340.78L511.12 1340.78Q511.12 1340.11 511.6 1339.64Q512.08 1339.18 512.73 1339.18L512.73 1339.18Q513.4 1339.18 513.87 1339.64Q514.34 1340.11 514.34 1340.78L514.34 1340.78Q514.34 1341.45 513.87 1341.92Q513.4 1342.39 512.73 1342.39M506.99 1342.39L506.99 1342.39Q506.33 1342.39 505.85 1341.92Q505.38 1341.45 505.38 1340.78L505.38 1340.78Q505.38 1340.11 505.85 1339.64Q506.33 1339.18 506.99 1339.18L506.99 1339.18Q507.66 1339.18 508.13 1339.64Q508.6 1340.11 508.6 1340.78L508.6 1340.78Q508.6 1341.45 508.13 1341.92Q507.66 1342.39 506.99 1342.39M525.45 1360L523.04 1360L523.04 1347.16L518 1347.16L518 1345L530.46 1345L530.46 1347.16L525.45 1347.16L525.45 1360M546.46 1360.33L546.46 1360.33Q544.49 1360.33 542.94 1359.39Q541.39 1358.46 540.48 1356.72Q539.57 1354.98 539.57 1352.59L539.57 1352.59L539.57 1352.07Q539.57 1349.71 539.85 1347.95Q540.13 1346.19 540.72 1344.95Q541.32 1343.72 542.28 1342.93Q543.25 1342.14 544.61 1341.73Q545.98 1341.32 547.8 1341.21L547.8 1341.21Q548.69 1341.15 549.16 1340.97Q549.63 1340.79 549.8 1340.46Q549.97 1340.13 549.97 1339.63L549.97 1339.63L552.16 1339.63Q552.16 1340.76 551.74 1341.54Q551.33 1342.31 550.37 1342.73Q549.41 1343.16 547.8 1343.28L547.8 1343.28Q545.74 1343.43 544.46 1343.95Q543.19 1344.47 542.53 1345.7Q541.87 1346.93 541.62 1349.19L541.62 1349.19L541.67 1349.19Q542.1 1348.17 542.92 1347.34Q543.74 1346.51 544.84 1346Q545.94 1345.49 547.21 1345.49L547.21 1345.49Q548.93 1345.49 550.29 1346.45Q551.64 1347.41 552.43 1349.05Q553.21 1350.69 553.21 1352.77L553.21 1352.77Q553.21 1354.93 552.35 1356.64Q551.48 1358.35 549.95 1359.34Q548.43 1360.33 546.46 1360.33M546.49 1358.18L546.49 1358.18Q547.84 1358.18 548.8 1357.54Q549.75 1356.9 550.27 1355.71Q550.78 1354.52 550.78 1352.89L550.78 1352.89Q550.78 1351.26 550.29 1350.09Q549.8 1348.91 548.85 1348.28Q547.91 1347.64 546.57 1347.64L546.57 1347.64Q545.22 1347.64 544.18 1348.31Q543.15 1348.98 542.58 1350.18Q542 1351.39 542 1352.97L542 1352.97Q542 1354.49 542.54 1355.67Q543.08 1356.84 544.09 1357.51Q545.11 1358.18 546.49 1358.18M562.63 1360.33L562.63 1360.33Q560.58 1360.33 559.04 1359.35Q557.49 1358.37 556.63 1356.62Q555.76 1354.87 555.76 1352.58L555.76 1352.58Q555.76 1350.24 556.63 1348.48Q557.49 1346.72 559.04 1345.74Q560.58 1344.76 562.63 1344.76L562.63 1344.76Q564.7 1344.76 566.25 1345.74Q567.8 1346.72 568.66 1348.48Q569.52 1350.24 569.52 1352.58L569.52 1352.58Q569.52 1354.87 568.66 1356.62Q567.8 1358.37 566.25 1359.35Q564.7 1360.33 562.63 1360.33M562.63 1358.15L562.63 1358.15Q564.12 1358.15 565.11 1357.4Q566.09 1356.65 566.58 1355.39Q567.08 1354.12 567.08 1352.58L567.08 1352.58Q567.08 1351 566.58 1349.73Q566.09 1348.45 565.11 1347.69Q564.12 1346.93 562.63 1346.93L562.63 1346.93Q561.16 1346.93 560.18 1347.69Q559.2 1348.45 558.71 1349.73Q558.22 1351 558.22 1352.58L558.22 1352.58Q558.22 1354.12 558.71 1355.39Q559.2 1356.65 560.18 1357.4Q561.16 1358.15 562.63 1358.15M574.65 1351.17L583.05 1351.17L583.05 1353.41L574.65 1353.41L574.65 1351.17M572.81 1345L575.23 1345L575.23 1360L572.81 1360L572.81 1345M582.5 1345L584.92 1345L584.92 1360L582.5 1360L582.5 1345M588.31 1365.59L588.31 1365.59L588.73 1363.49L589.38 1363.54Q590.03 1363.66 590.56 1363.54Q591.08 1363.42 591.51 1362.95Q591.93 1362.47 592.25 1361.54L592.25 1361.54L592.81 1360.01L587.05 1345L589.69 1345L592.89 1353.81Q593.37 1355.11 593.73 1356.38Q594.09 1357.66 594.48 1358.88L594.48 1358.88L593.67 1358.88Q594.04 1357.66 594.41 1356.38Q594.78 1355.09 595.24 1353.81L595.24 1353.81L598.45 1345L601.07 1345L594.37 1362.42Q593.93 1363.55 593.3 1364.3Q592.67 1365.04 591.84 1365.41Q591.02 1365.78 589.99 1365.78L589.99 1365.78Q589.43 1365.78 588.99 1365.72Q588.56 1365.66 588.31 1365.59M609.3 1360.33L609.3 1360.33Q607.25 1360.33 605.7 1359.35Q604.16 1358.37 603.29 1356.62Q602.42 1354.87 602.42 1352.58L602.42 1352.58Q602.42 1350.24 603.29 1348.48Q604.16 1346.72 605.7 1345.74Q607.25 1344.76 609.3 1344.76L609.3 1344.76Q610.44 1344.76 611.45 1345.08Q612.45 1345.4 613.26 1345.98Q614.07 1346.56 614.63 1347.39Q615.19 1348.23 615.45 1349.25L615.45 1349.25L613.1 1349.71Q612.95 1349.09 612.62 1348.58Q612.29 1348.08 611.8 1347.71Q611.32 1347.34 610.69 1347.13Q610.06 1346.93 609.3 1346.93L609.3 1346.93Q607.82 1346.93 606.84 1347.69Q605.86 1348.45 605.37 1349.73Q604.88 1351 604.88 1352.58L604.88 1352.58Q604.88 1354.12 605.37 1355.39Q605.86 1356.65 606.84 1357.4Q607.82 1358.15 609.3 1358.15L609.3 1358.15Q610.08 1358.15 610.71 1357.95Q611.35 1357.74 611.83 1357.37Q612.3 1356.99 612.63 1356.47Q612.96 1355.94 613.12 1355.31L613.12 1355.31L615.49 1355.75Q615.24 1356.79 614.68 1357.63Q614.11 1358.47 613.29 1359.08Q612.48 1359.69 611.46 1360.01Q610.44 1360.33 609.3 1360.33M628.14 1351.17L636.53 1351.17L636.53 1353.41L628.14 1353.41L628.14 1351.17M626.29 1345L628.71 1345L628.71 1360L626.29 1360L626.29 1345M635.98 1345L638.4 1345L638.4 1360L635.98 1360L635.98 1345M646.74 1360.31L646.74 1360.31Q645.31 1360.31 644.14 1359.78Q642.97 1359.25 642.29 1358.22Q641.6 1357.2 641.6 1355.72L641.6 1355.72Q641.6 1354.42 642.11 1353.62Q642.61 1352.81 643.46 1352.35Q644.31 1351.89 645.36 1351.66Q646.4 1351.43 647.48 1351.29L647.48 1351.29Q648.85 1351.1 649.69 1351Q650.53 1350.91 650.92 1350.68Q651.31 1350.46 651.31 1349.9L651.31 1349.9L651.31 1349.8Q651.31 1348.9 650.95 1348.26Q650.58 1347.61 649.87 1347.26Q649.15 1346.9 648.11 1346.9L648.11 1346.9Q647.04 1346.9 646.26 1347.24Q645.49 1347.59 645.01 1348.12Q644.54 1348.65 644.35 1349.24L644.35 1349.24L641.99 1348.72Q642.41 1347.35 643.33 1346.49Q644.24 1345.62 645.47 1345.2Q646.7 1344.78 648.06 1344.78L648.06 1344.78Q648.99 1344.78 649.98 1345.02Q650.97 1345.25 651.82 1345.82Q652.66 1346.4 653.19 1347.41Q653.72 1348.42 653.72 1349.96L653.72 1349.96L653.72 1360L651.34 1360L651.34 1357.94L651.2 1357.94Q650.94 1358.46 650.39 1359.01Q649.85 1359.56 648.95 1359.94Q648.06 1360.31 646.74 1360.31M647.14 1358.17L647.14 1358.17Q648.52 1358.17 649.45 1357.64Q650.38 1357.12 650.84 1356.27Q651.31 1355.43 651.31 1354.49L651.31 1354.49L651.31 1352.48Q651.16 1352.64 650.7 1352.77Q650.24 1352.9 649.63 1353.01Q649.03 1353.12 648.42 1353.21Q647.81 1353.29 647.37 1353.34L647.37 1353.34Q646.5 1353.45 645.73 1353.72Q644.97 1353.98 644.5 1354.48Q644.04 1354.98 644.04 1355.84L644.04 1355.84Q644.04 1356.6 644.43 1357.12Q644.83 1357.63 645.53 1357.9Q646.22 1358.17 647.14 1358.17M671.46 1360.33L671.46 1360.33Q669.41 1360.33 667.87 1359.35Q666.32 1358.37 665.45 1356.62Q664.58 1354.87 664.58 1352.58L664.58 1352.58Q664.58 1350.24 665.45 1348.48Q666.32 1346.72 667.87 1345.74Q669.41 1344.76 671.46 1344.76L671.46 1344.76Q672.61 1344.76 673.62 1345.08Q674.62 1345.4 675.43 1345.98Q676.23 1346.56 676.79 1347.39Q677.35 1348.23 677.61 1349.25L677.61 1349.25L675.26 1349.71Q675.11 1349.09 674.78 1348.58Q674.46 1348.08 673.97 1347.71Q673.49 1347.34 672.86 1347.13Q672.23 1346.93 671.46 1346.93L671.46 1346.93Q669.99 1346.93 669.01 1347.69Q668.03 1348.45 667.54 1349.73Q667.05 1351 667.05 1352.58L667.05 1352.58Q667.05 1354.12 667.54 1355.39Q668.03 1356.65 669.01 1357.4Q669.99 1358.15 671.46 1358.15L671.46 1358.15Q672.24 1358.15 672.88 1357.95Q673.51 1357.74 673.99 1357.37Q674.47 1356.99 674.8 1356.47Q675.13 1355.94 675.29 1355.31L675.29 1355.31L677.66 1355.75Q677.41 1356.79 676.84 1357.63Q676.27 1358.47 675.46 1359.08Q674.65 1359.69 673.63 1360.01Q672.61 1360.33 671.46 1360.33M686.56 1360L684.15 1360L684.15 1347.16L679.1 1347.16L679.1 1345L691.57 1345L691.57 1347.16L686.56 1347.16L686.56 1360M698 1360.31L698 1360.31Q696.56 1360.31 695.39 1359.78Q694.23 1359.25 693.54 1358.22Q692.86 1357.2 692.86 1355.72L692.86 1355.72Q692.86 1354.42 693.36 1353.62Q693.87 1352.81 694.72 1352.35Q695.57 1351.89 696.61 1351.66Q697.66 1351.43 698.74 1351.29L698.74 1351.29Q700.1 1351.1 700.95 1351Q701.79 1350.91 702.18 1350.68Q702.57 1350.46 702.57 1349.9L702.57 1349.9L702.57 1349.8Q702.57 1348.9 702.2 1348.26Q701.84 1347.61 701.12 1347.26Q700.41 1346.9 699.37 1346.9L699.37 1346.9Q698.3 1346.9 697.52 1347.24Q696.74 1347.59 696.27 1348.12Q695.8 1348.65 695.61 1349.24L695.61 1349.24L693.24 1348.72Q693.67 1347.35 694.58 1346.49Q695.5 1345.62 696.73 1345.2Q697.96 1344.78 699.31 1344.78L699.31 1344.78Q700.24 1344.78 701.23 1345.02Q702.22 1345.25 703.07 1345.82Q703.92 1346.4 704.45 1347.41Q704.97 1348.42 704.97 1349.96L704.97 1349.96L704.97 1360L702.59 1360L702.59 1357.94L702.46 1357.94Q702.2 1358.46 701.65 1359.01Q701.1 1359.56 700.21 1359.94Q699.31 1360.31 698 1360.31M698.4 1358.17L698.4 1358.17Q699.78 1358.17 700.71 1357.64Q701.64 1357.12 702.1 1356.27Q702.57 1355.43 702.57 1354.49L702.57 1354.49L702.57 1352.48Q702.42 1352.64 701.96 1352.77Q701.5 1352.9 700.89 1353.01Q700.28 1353.12 699.67 1353.21Q699.07 1353.29 698.63 1353.34L698.63 1353.34Q697.75 1353.45 696.99 1353.72Q696.22 1353.98 695.76 1354.48Q695.29 1354.98 695.29 1355.84L695.29 1355.84Q695.29 1356.6 695.69 1357.12Q696.08 1357.63 696.78 1357.9Q697.48 1358.17 698.4 1358.17M711.41 1365.71L708.99 1365.71L708.99 1345L711.34 1345L711.34 1347.34L711.53 1347.34Q711.86 1346.79 712.41 1346.21Q712.96 1345.62 713.83 1345.2Q714.71 1344.78 716 1344.78L716 1344.78Q717.91 1344.78 719.35 1345.73Q720.79 1346.68 721.6 1348.43Q722.42 1350.17 722.42 1352.52L722.42 1352.52Q722.42 1354.89 721.61 1356.64Q720.8 1358.39 719.36 1359.35Q717.92 1360.31 716.02 1360.31L716.02 1360.31Q714.73 1360.31 713.87 1359.89Q713 1359.47 712.44 1358.86Q711.89 1358.25 711.55 1357.69L711.55 1357.69L711.41 1357.69L711.41 1365.71M715.65 1358.14L715.65 1358.14Q717.03 1358.14 717.99 1357.42Q718.94 1356.71 719.45 1355.43Q719.96 1354.16 719.96 1352.51L719.96 1352.51Q719.96 1350.85 719.46 1349.6Q718.96 1348.35 717.99 1347.65Q717.03 1346.94 715.65 1346.94L715.65 1346.94Q714.27 1346.94 713.3 1347.64Q712.33 1348.34 711.83 1349.58Q711.33 1350.83 711.33 1352.51L711.33 1352.51Q711.33 1354.18 711.83 1355.45Q712.34 1356.72 713.31 1357.43Q714.28 1358.14 715.65 1358.14M731.39 1360L728.98 1360L728.98 1347.16L723.93 1347.16L723.93 1345L736.4 1345L736.4 1347.16L731.39 1347.16L731.39 1360M744.54 1360.33L744.54 1360.33Q742.35 1360.33 740.79 1359.35Q739.22 1358.37 738.37 1356.63Q737.52 1354.89 737.52 1352.59L737.52 1352.59Q737.52 1350.29 738.37 1348.53Q739.22 1346.77 740.74 1345.76Q742.27 1344.76 744.29 1344.76L744.29 1344.76Q745.6 1344.76 746.79 1345.21Q747.98 1345.66 748.91 1346.59Q749.84 1347.53 750.38 1348.97Q750.92 1350.4 750.92 1352.38L750.92 1352.38L750.92 1353.27L739.06 1353.27L739.06 1351.22L749.6 1351.22L748.5 1351.97Q748.5 1350.47 748.01 1349.33Q747.52 1348.19 746.58 1347.55Q745.65 1346.92 744.29 1346.92L744.29 1346.92Q742.94 1346.92 741.97 1347.57Q741 1348.21 740.48 1349.3Q739.96 1350.39 739.96 1351.7L739.96 1351.7L739.96 1352.96Q739.96 1354.59 740.52 1355.75Q741.08 1356.92 742.11 1357.55Q743.14 1358.17 744.55 1358.17L744.55 1358.17Q745.5 1358.17 746.25 1357.89Q747 1357.61 747.53 1357.07Q748.05 1356.53 748.31 1355.75L748.31 1355.75L750.68 1356.19Q750.35 1357.42 749.49 1358.35Q748.64 1359.28 747.38 1359.8Q746.11 1360.33 744.54 1360.33" fill="#9A958C"><title>промокод даёт бонус на старте</title></path>
<path d="M383.9 1706.34L383.9 1706.34Q381.56 1706.34 379.82 1705.29Q378.08 1704.24 377.13 1702.37Q376.17 1700.49 376.17 1698.02L376.17 1698.02Q376.17 1695.53 377.13 1693.64Q378.08 1691.76 379.82 1690.71Q381.56 1689.67 383.9 1689.67L383.9 1689.67Q385.31 1689.67 386.49 1690.05Q387.68 1690.43 388.61 1691.14Q389.54 1691.85 390.14 1692.84Q390.74 1693.83 390.96 1695.06L390.96 1695.06L387.37 1695.56Q387.24 1694.93 386.95 1694.41Q386.65 1693.9 386.21 1693.53Q385.78 1693.15 385.2 1692.96Q384.63 1692.76 383.94 1692.76L383.94 1692.76Q382.66 1692.76 381.78 1693.43Q380.9 1694.11 380.45 1695.29Q380 1696.48 380 1698.02L380 1698.02Q380 1699.53 380.45 1700.71Q380.9 1701.9 381.78 1702.57Q382.66 1703.25 383.94 1703.25L383.94 1703.25Q384.65 1703.25 385.22 1703.05Q385.79 1702.85 386.23 1702.47Q386.67 1702.09 386.96 1701.55Q387.25 1701.02 387.39 1700.36L387.39 1700.36L390.98 1700.86Q390.77 1702.1 390.17 1703.11Q389.57 1704.11 388.64 1704.84Q387.71 1705.56 386.51 1705.95Q385.31 1706.34 383.9 1706.34M401 1706.34L401 1706.34Q398.65 1706.34 396.92 1705.29Q395.18 1704.24 394.22 1702.37Q393.26 1700.49 393.26 1698.02L393.26 1698.02Q393.26 1695.53 394.22 1693.64Q395.18 1691.76 396.92 1690.71Q398.65 1689.67 401 1689.67L401 1689.67Q402.4 1689.67 403.59 1690.05Q404.77 1690.43 405.7 1691.14Q406.63 1691.85 407.24 1692.84Q407.84 1693.83 408.06 1695.06L408.06 1695.06L404.47 1695.56Q404.33 1694.93 404.04 1694.41Q403.75 1693.9 403.31 1693.53Q402.87 1693.15 402.3 1692.96Q401.73 1692.76 401.04 1692.76L401.04 1692.76Q399.75 1692.76 398.87 1693.43Q397.99 1694.11 397.55 1695.29Q397.1 1696.48 397.1 1698.02L397.1 1698.02Q397.1 1699.53 397.55 1700.71Q397.99 1701.9 398.87 1702.57Q399.75 1703.25 401.04 1703.25L401.04 1703.25Q401.74 1703.25 402.31 1703.05Q402.88 1702.85 403.32 1702.47Q403.76 1702.09 404.06 1701.55Q404.35 1701.02 404.48 1700.36L404.48 1700.36L408.07 1700.86Q407.87 1702.1 407.26 1703.11Q406.66 1704.11 405.73 1704.84Q404.8 1705.56 403.6 1705.95Q402.4 1706.34 401 1706.34M413.71 1698.31L413.71 1695.19L418.5 1695.19Q420.51 1695.19 421.95 1695.87Q423.39 1696.55 424.16 1697.76Q424.93 1698.97 424.93 1700.58L424.93 1700.58Q424.93 1702.18 424.16 1703.4Q423.39 1704.62 421.95 1705.31Q420.51 1706 418.5 1706L418.5 1706L411.07 1706L411.07 1689.93L414.85 1689.93L414.85 1702.88L418.46 1702.88Q419.72 1702.88 420.47 1702.26Q421.22 1701.65 421.22 1700.61L421.22 1700.61Q421.22 1699.55 420.47 1698.93Q419.72 1698.31 418.46 1698.31L418.46 1698.31L413.71 1698.31M430.16 1706L426.38 1706L426.38 1689.93L430.16 1689.93L430.16 1706M433.66 1706L432.33 1706L432.33 1702.87L432.91 1702.87Q433.54 1702.87 433.98 1702.62Q434.42 1702.37 434.71 1701.75Q434.99 1701.14 435.15 1700.03Q435.3 1698.92 435.38 1697.23L435.38 1697.23L435.65 1689.93L447.83 1689.93L447.83 1706L444.05 1706L444.05 1693.05L439.26 1693.05L439.02 1698.03Q438.91 1700.83 438.3 1702.59Q437.69 1704.36 436.55 1705.18Q435.4 1706 433.66 1706L433.66 1706M455.38 1706L451.61 1706L451.61 1689.93L455.38 1689.93L455.38 1696.57L456.75 1696.57L461.82 1689.93L466.34 1689.93L460.26 1697.81L466.42 1706L461.86 1706L457.26 1699.72L455.38 1699.72L455.38 1706M473.04 1706.31L473.04 1706.31Q471.48 1706.31 470.25 1705.76Q469.02 1705.21 468.3 1704.13Q467.59 1703.06 467.59 1701.47L467.59 1701.47Q467.59 1700.1 468.1 1699.21Q468.61 1698.32 469.49 1697.79Q470.37 1697.25 471.48 1696.98Q472.6 1696.71 473.78 1696.58L473.78 1696.58Q475.22 1696.42 476.09 1696.3Q476.96 1696.19 477.36 1695.93Q477.77 1695.67 477.77 1695.13L477.77 1695.13L477.77 1695.04Q477.77 1694.28 477.44 1693.74Q477.11 1693.2 476.47 1692.9Q475.83 1692.6 474.91 1692.6L474.91 1692.6Q473.99 1692.6 473.29 1692.89Q472.6 1693.18 472.17 1693.67Q471.75 1694.15 471.59 1694.72L471.59 1694.72L468.06 1694.24Q468.41 1692.76 469.36 1691.75Q470.31 1690.74 471.74 1690.21Q473.17 1689.68 474.93 1689.68L474.93 1689.68Q476.2 1689.68 477.39 1689.99Q478.57 1690.3 479.5 1690.95Q480.43 1691.6 480.98 1692.65Q481.52 1693.7 481.52 1695.19L481.52 1695.19L481.52 1706L477.88 1706L477.88 1703.76L477.75 1703.76Q477.4 1704.46 476.78 1705.04Q476.16 1705.62 475.23 1705.96Q474.31 1706.31 473.04 1706.31M473.99 1703.51L473.99 1703.51Q475.17 1703.51 476.02 1703.06Q476.87 1702.6 477.33 1701.84Q477.78 1701.08 477.78 1700.17L477.78 1700.17L477.78 1698.32Q477.61 1698.46 477.2 1698.58Q476.79 1698.71 476.27 1698.8Q475.75 1698.9 475.21 1698.98Q474.68 1699.06 474.24 1699.12L474.24 1699.12Q473.4 1699.23 472.72 1699.5Q472.04 1699.76 471.64 1700.23Q471.25 1700.7 471.25 1701.43L471.25 1701.43Q471.25 1702.1 471.6 1702.56Q471.95 1703.03 472.57 1703.27Q473.18 1703.51 473.99 1703.51M500.46 1706L492.59 1706L492.59 1689.93L499.4 1689.93Q502.29 1689.93 503.97 1691.04Q505.66 1692.16 505.66 1694.22L505.66 1694.22Q505.66 1695.57 504.78 1696.43Q503.9 1697.3 502.29 1697.59L502.29 1697.59Q503.52 1697.69 504.44 1698.22Q505.37 1698.75 505.88 1699.6Q506.39 1700.45 506.39 1701.58L506.39 1701.58Q506.39 1702.92 505.7 1703.92Q505.01 1704.92 503.69 1705.46Q502.36 1706 500.46 1706L500.46 1706M496.14 1699.03L496.14 1703L500.41 1703Q501.5 1703 502.1 1702.5Q502.7 1702 502.7 1701.14L502.7 1701.14Q502.7 1700.14 502.1 1699.58Q501.5 1699.03 500.41 1699.03L500.41 1699.03L496.14 1699.03M496.14 1692.93L496.14 1696.58L499.49 1696.58Q500.69 1696.58 501.36 1696.08Q502.03 1695.58 502.03 1694.72L502.03 1694.72Q502.03 1693.87 501.33 1693.4Q500.63 1692.93 499.4 1692.93L499.4 1692.93L496.14 1692.93M523.73 1706.34L523.73 1706.34Q521.39 1706.34 519.64 1705.3Q517.89 1704.26 516.93 1702.38Q515.97 1700.51 515.97 1698.02L515.97 1698.02Q515.97 1695.53 516.93 1693.64Q517.89 1691.76 519.64 1690.71Q521.39 1689.67 523.73 1689.67L523.73 1689.67Q526.09 1689.67 527.84 1690.71Q529.58 1691.76 530.54 1693.64Q531.5 1695.53 531.5 1698.02L531.5 1698.02Q531.5 1700.51 530.54 1702.38Q529.58 1704.26 527.84 1705.3Q526.09 1706.34 523.73 1706.34M523.73 1703.25L523.73 1703.25Q525.02 1703.25 525.9 1702.56Q526.78 1701.88 527.23 1700.7Q527.67 1699.53 527.67 1698.02L527.67 1698.02Q527.67 1696.49 527.23 1695.31Q526.78 1694.12 525.9 1693.44Q525.02 1692.76 523.73 1692.76L523.73 1692.76Q522.46 1692.76 521.58 1693.44Q520.7 1694.12 520.26 1695.31Q519.81 1696.49 519.81 1698.02L519.81 1698.02Q519.81 1699.53 520.26 1700.7Q520.7 1701.88 521.57 1702.56Q522.45 1703.25 523.73 1703.25M534.56 1689.93L548.62 1689.93L548.62 1706L544.86 1706L544.86 1693.08L538.34 1693.08L538.34 1706L534.56 1706L534.56 1689.93M566.7 1689.93L566.7 1706L562.93 1706L562.93 1695.75L562.82 1695.75L555.71 1706L552.4 1706L552.4 1689.93L556.17 1689.93L556.17 1700.17L556.27 1700.17L563.34 1689.93L566.7 1689.93M577.49 1706.34L577.49 1706.34Q575.15 1706.34 573.41 1705.29Q571.68 1704.24 570.72 1702.37Q569.76 1700.49 569.76 1698.02L569.76 1698.02Q569.76 1695.53 570.72 1693.64Q571.68 1691.76 573.41 1690.71Q575.15 1689.67 577.49 1689.67L577.49 1689.67Q578.9 1689.67 580.09 1690.05Q581.27 1690.43 582.2 1691.14Q583.13 1691.85 583.73 1692.84Q584.33 1693.83 584.55 1695.06L584.55 1695.06L580.97 1695.56Q580.83 1694.93 580.54 1694.41Q580.25 1693.9 579.81 1693.53Q579.37 1693.15 578.8 1692.96Q578.23 1692.76 577.54 1692.76L577.54 1692.76Q576.25 1692.76 575.37 1693.43Q574.49 1694.11 574.04 1695.29Q573.6 1696.48 573.6 1698.02L573.6 1698.02Q573.6 1699.53 574.04 1700.71Q574.49 1701.9 575.37 1702.57Q576.25 1703.25 577.54 1703.25L577.54 1703.25Q578.24 1703.25 578.81 1703.05Q579.38 1702.85 579.82 1702.47Q580.26 1702.09 580.56 1701.55Q580.85 1701.02 580.98 1700.36L580.98 1700.36L584.57 1700.86Q584.36 1702.1 583.76 1703.11Q583.16 1704.11 582.23 1704.84Q581.3 1705.56 580.1 1705.95Q578.9 1706.34 577.49 1706.34M592.46 1706.31L592.46 1706.31Q590.91 1706.31 589.68 1705.76Q588.45 1705.21 587.73 1704.13Q587.02 1703.06 587.02 1701.47L587.02 1701.47Q587.02 1700.1 587.53 1699.21Q588.04 1698.32 588.92 1697.79Q589.8 1697.25 590.91 1696.98Q592.03 1696.71 593.21 1696.58L593.21 1696.58Q594.65 1696.42 595.52 1696.3Q596.39 1696.19 596.79 1695.93Q597.2 1695.67 597.2 1695.13L597.2 1695.13L597.2 1695.04Q597.2 1694.28 596.87 1693.74Q596.54 1693.2 595.9 1692.9Q595.26 1692.6 594.34 1692.6L594.34 1692.6Q593.42 1692.6 592.72 1692.89Q592.03 1693.18 591.6 1693.67Q591.18 1694.15 591.01 1694.72L591.01 1694.72L587.48 1694.24Q587.84 1692.76 588.79 1691.75Q589.74 1690.74 591.17 1690.21Q592.6 1689.68 594.35 1689.68L594.35 1689.68Q595.63 1689.68 596.82 1689.99Q598 1690.3 598.93 1690.95Q599.86 1691.6 600.4 1692.65Q600.95 1693.7 600.95 1695.19L600.95 1695.19L600.95 1706L597.31 1706L597.31 1703.76L597.18 1703.76Q596.83 1704.46 596.21 1705.04Q595.58 1705.62 594.66 1705.96Q593.74 1706.31 592.46 1706.31M593.42 1703.51L593.42 1703.51Q594.6 1703.51 595.45 1703.06Q596.3 1702.6 596.76 1701.84Q597.21 1701.08 597.21 1700.17L597.21 1700.17L597.21 1698.32Q597.04 1698.46 596.63 1698.58Q596.21 1698.71 595.69 1698.8Q595.17 1698.9 594.64 1698.98Q594.11 1699.06 593.67 1699.12L593.67 1699.12Q592.83 1699.23 592.15 1699.5Q591.47 1699.76 591.07 1700.23Q590.68 1700.7 590.68 1701.43L590.68 1701.43Q590.68 1702.1 591.03 1702.56Q591.38 1703.03 592 1703.27Q592.61 1703.51 593.42 1703.51M607.48 1696.16L616.2 1696.16L616.2 1699.32L607.48 1699.32L607.48 1696.16M604.73 1689.93L608.5 1689.93L608.5 1706L604.73 1706L604.73 1689.93M615.2 1689.93L618.96 1689.93L618.96 1706L615.2 1706L615.2 1689.93M637.04 1689.93L637.04 1706L633.28 1706L633.28 1695.75L633.16 1695.75L626.05 1706L622.74 1706L622.74 1689.93L626.51 1689.93L626.51 1700.17L626.61 1700.17L633.69 1689.93L637.04 1689.93M655.12 1689.93L655.12 1706L651.35 1706L651.35 1695.75L651.23 1695.75L644.13 1706L640.82 1706L640.82 1689.93L644.58 1689.93L644.58 1700.17L644.69 1700.17L651.76 1689.93L655.12 1689.93" fill="#FBF7EF" opacity="0.8"><title>ссылка в описании</title></path>
<path d="M715.005859375 1690 v34 M705.485859375 1708.7 L715.005859375 1724 L724.525859375 1708.7"
     stroke="#FFD21E" stroke-width="4.42" fill="none" stroke-linecap="round" stroke-linejoin="round"/>
<g transform="translate(120,1660) rotate(-12) scale(1.0666666666666667)">
    <path d="M2 4 C10 30 34 40 54 34 C40 44 14 42 4 20 Z" fill="#FFD21E" stroke="#161512" stroke-width="3" stroke-linejoin="round"/>
  </g>
</svg>
