<svg width="1080" height="1350" viewBox="0 0 1080 1350" xmlns="http://www.w3.org/2000/svg" role="img" aria-label="Monty — Point your camera">
<defs>
  <filter id="grain" x="0" y="0" width="100%" height="100%">
    <feTurbulence type="fractalNoise" baseFrequency="0.9" numOctaves="3" seed="7" result="n"/>
    <feColorMatrix in="n" type="saturate" values="0"/>
  </filter>
  <filter id="drop" x="-40%" y="-40%" width="180%" height="200%">
    <feDropShadow dx="0" dy="10" stdDeviation="16" flood-color="#000000" flood-opacity="0.45"/>
  </filter>
  <filter id="dropSoft" x="-40%" y="-40%" width="180%" height="200%">
    <feDropShadow dx="0" dy="6" stdDeviation="9" flood-color="#000000" flood-opacity="0.22"/>
  </filter>
  <linearGradient id="screenGrad" x1="0" y1="0" x2="1" y2="1">
    <stop offset="0" stop-color="#2A1E5C"/><stop offset="0.5" stop-color="#161512"/><stop offset="1" stop-color="#0B0A09"/>
  </linearGradient>
  <linearGradient id="neonGrad" x1="0" y1="0" x2="1" y2="0">
    <stop offset="0" stop-color="#6C4DF6"/><stop offset="1" stop-color="#FFD21E"/>
  </linearGradient>
  <radialGradient id="gBanana">
    <stop offset="0" stop-color="#FFD21E" stop-opacity="0.85"/>
    <stop offset="0.55" stop-color="#FFD21E" stop-opacity="0.22"/>
    <stop offset="1" stop-color="#FFD21E" stop-opacity="0"/>
  </radialGradient>
  <radialGradient id="gViolet">
    <stop offset="0" stop-color="#6C4DF6" stop-opacity="0.85"/>
    <stop offset="0.55" stop-color="#6C4DF6" stop-opacity="0.22"/>
    <stop offset="1" stop-color="#6C4DF6" stop-opacity="0"/>
  </radialGradient></defs>
<rect width="1080" height="1350" fill="#0B0A09"/><circle cx="540" cy="700" r="520" fill="url(#gBanana)" opacity="0.4"/><circle cx="200" cy="120" r="360" fill="url(#gViolet)" opacity="0.4"/><rect width="1080" height="1350" filter="url(#grain)" opacity="0.055"/>
<g transform="translate(72,66) scale(0.359375)">
    <circle cx="30" cy="52" r="19" fill="#FBF7EF"/><circle cx="98" cy="52" r="19" fill="#FBF7EF"/>
    <circle cx="30" cy="52" r="9" fill="#FFD21E"/><circle cx="98" cy="52" r="9" fill="#FFD21E"/>
    <rect x="28" y="26" width="72" height="80" rx="36" fill="#FBF7EF"/>
    <circle cx="64" cy="70" r="30" fill="#161512"/>
    <path d="M57 55 L57 85 L84 70 Z" fill="#FFD21E" stroke="#FFD21E" stroke-width="5" stroke-linejoin="round"/>
  </g><path d="M133.11 102.34L128.13 102.34L128.13 82.72L133.03 82.72L133.03 84.85L133.75 84.85Q134.26 83.87 135.45 83.13Q136.63 82.4 138.57 82.4L138.57 82.4Q140.67 82.4 141.94 83.21Q143.2 84.02 143.87 85.33L143.87 85.33L144.59 85.33Q145.26 84.06 146.49 83.23Q147.71 82.4 149.97 82.4L149.97 82.4Q151.79 82.4 153.27 83.17Q154.75 83.94 155.64 85.51Q156.53 87.07 156.53 89.44L156.53 89.44L156.53 102.34L151.55 102.34L151.55 89.8Q151.55 88.18 150.72 87.37Q149.89 86.56 148.38 86.56L148.38 86.56Q146.68 86.56 145.75 87.64Q144.82 88.73 144.82 90.75L144.82 90.75L144.82 102.34L139.84 102.34L139.84 89.8Q139.84 88.18 139.01 87.37Q138.18 86.56 136.67 86.56L136.67 86.56Q134.97 86.56 134.04 87.64Q133.11 88.73 133.11 90.75L133.11 90.75L133.11 102.34M170.06 102.89L170.06 102.89Q167.14 102.89 164.8 101.71Q162.47 100.52 161.12 98.27Q159.78 96.01 159.78 92.85L159.78 92.85L159.78 92.21Q159.78 89.05 161.12 86.79Q162.47 84.54 164.8 83.35Q167.14 82.16 170.06 82.16L170.06 82.16Q172.99 82.16 175.32 83.35Q177.66 84.54 179 86.79Q180.35 89.05 180.35 92.21L180.35 92.21L180.35 92.85Q180.35 96.01 179 98.27Q177.66 100.52 175.32 101.71Q172.99 102.89 170.06 102.89M170.06 98.46L170.06 98.46Q172.36 98.46 173.86 96.98Q175.36 95.5 175.36 92.73L175.36 92.73L175.36 92.33Q175.36 89.56 173.88 88.08Q172.4 86.6 170.06 86.6L170.06 86.6Q167.77 86.6 166.27 88.08Q164.76 89.56 164.76 92.33L164.76 92.33L164.76 92.73Q164.76 95.5 166.27 96.98Q167.77 98.46 170.06 98.46M188.74 102.34L183.75 102.34L183.75 82.72L188.66 82.72L188.66 85.29L189.37 85.29Q189.84 84.26 191.15 83.33Q192.45 82.4 195.1 82.4L195.1 82.4Q197.4 82.4 199.12 83.45Q200.84 84.5 201.79 86.34Q202.74 88.18 202.74 90.63L202.74 90.63L202.74 102.34L197.75 102.34L197.75 91.03Q197.75 88.81 196.67 87.7Q195.58 86.6 193.56 86.6L193.56 86.6Q191.27 86.6 190 88.12Q188.74 89.64 188.74 92.37L188.74 92.37L188.74 102.34M219.43 102.34L213.9 102.34Q211.96 102.34 210.75 101.13Q209.54 99.93 209.54 97.91L209.54 97.91L209.54 86.83L204.64 86.83L204.64 82.72L209.54 82.72L209.54 76.63L214.53 76.63L214.53 82.72L219.91 82.72L219.91 86.83L214.53 86.83L214.53 97.04Q214.53 98.23 215.64 98.23L215.64 98.23L219.43 98.23L219.43 102.34M237.71 110.25L225.37 110.25L225.37 105.9L236.05 105.9Q237.16 105.9 237.16 104.71L237.16 104.71L237.16 99.77L236.44 99.77Q236.13 100.44 235.46 101.11Q234.78 101.79 233.64 102.22Q232.49 102.66 230.71 102.66L230.71 102.66Q228.41 102.66 226.69 101.61Q224.97 100.56 224.02 98.7Q223.07 96.84 223.07 94.43L223.07 94.43L223.07 82.72L228.06 82.72L228.06 94.03Q228.06 96.25 229.15 97.36Q230.23 98.46 232.25 98.46L232.25 98.46Q234.55 98.46 235.81 96.94Q237.08 95.42 237.08 92.69L237.08 92.69L237.08 82.72L242.06 82.72L242.06 105.82Q242.06 107.84 240.88 109.05Q239.69 110.25 237.71 110.25L237.71 110.25" fill="#FBF7EF"><title>monty</title></path>
<path d="M192.61 221.5L219.21 221.5Q225.29 221.5 229.66 223.55Q234.03 225.59 236.32 229.28Q238.62 232.97 238.62 237.99L238.62 237.99Q238.62 242.95 236.32 246.67Q234.03 250.39 229.66 252.44Q225.29 254.48 219.21 254.48L219.21 254.48L199.31 254.48L199.31 243.08L218.28 243.08Q221.01 243.08 222.53 241.71Q224.05 240.35 224.05 237.99L224.05 237.99Q224.05 235.51 222.53 234.21Q221.01 232.91 218.28 232.91L218.28 232.91L200.55 232.91L207.06 226.34L207.06 268L192.61 268L192.61 221.5M262.67 269.05L262.67 269.05Q255.79 269.05 250.58 266.7Q245.38 264.34 242.46 260.1Q239.55 255.85 239.55 250.27L239.55 250.27Q239.55 244.56 242.46 240.32Q245.38 236.07 250.58 233.75Q255.79 231.42 262.74 231.42L262.74 231.42Q269.62 231.42 274.83 233.75Q280.03 236.07 282.92 240.32Q285.8 244.56 285.8 250.27L285.8 250.27Q285.8 255.85 282.92 260.1Q280.03 264.34 274.83 266.7Q269.62 269.05 262.67 269.05M262.74 258.64L262.74 258.64Q265.53 258.64 267.48 257.65Q269.43 256.65 270.45 254.76Q271.48 252.87 271.48 250.27L271.48 250.27Q271.48 247.6 270.45 245.71Q269.43 243.82 267.48 242.83Q265.53 241.84 262.74 241.84L262.74 241.84Q259.95 241.84 257.96 242.83Q255.98 243.82 254.95 245.71Q253.93 247.6 253.93 250.21L253.93 250.21Q253.93 252.87 254.95 254.76Q255.98 256.65 257.96 257.65Q259.95 258.64 262.74 258.64M288.9 268L288.9 231.79L296.03 233.28L303.1 231.79L303.1 268L288.9 268M296.03 229.44L296.03 229.44Q292.43 229.44 290.2 227.64Q287.97 225.84 287.97 222.8L287.97 222.8Q287.97 219.7 290.2 217.9Q292.43 216.11 296.03 216.11L296.03 216.11Q299.75 216.11 301.95 217.9Q304.15 219.7 304.15 222.8L304.15 222.8Q304.15 225.84 301.95 227.64Q299.75 229.44 296.03 229.44M308.49 245L306.07 232.47L320.27 232.47L322.69 247.17L322.69 268L308.49 268L308.49 245M335.34 231.42L335.34 231.42Q340.55 231.42 344.14 233.47Q347.74 235.51 349.69 239.26Q351.64 243.01 351.64 248.04L351.64 248.04L351.64 268L337.38 268L337.38 250.08Q337.38 246.61 335.55 244.75Q333.73 242.89 330.38 242.89L330.38 242.89Q328.02 242.89 326.29 243.88Q324.55 244.87 323.62 246.67Q322.69 248.47 322.69 251.01L322.69 251.01L318.41 248.78Q319.22 243.01 321.67 239.17Q324.12 235.33 327.65 233.37Q331.18 231.42 335.34 231.42M360.01 242.89L352.95 242.89L352.95 236.75L360.01 233.53L366.21 222.86L374.27 222.86L374.27 232.47L388.66 232.47L388.66 242.89L374.27 242.89L374.27 251.76Q374.27 255.35 375.67 256.84Q377.06 258.33 381.16 258.33L381.16 258.33Q383.7 258.33 385.68 257.93Q387.67 257.52 389.28 256.9L389.28 256.9L389.28 267.38Q387.29 268 384.26 268.53Q381.22 269.05 377.87 269.05L377.87 269.05Q371.79 269.05 367.86 267.19Q363.92 265.33 361.97 261.86Q360.01 258.39 360.01 253.68L360.01 253.68L360.01 242.89M418.17 279.28L418.17 279.28Q413.95 279.28 410.76 278.26Q407.57 277.24 404.47 275.01L404.47 275.01L404.47 265.33Q407.57 267.32 410.23 268.19Q412.9 269.05 416.06 269.05L416.06 269.05Q418.67 269.05 420.62 267.94Q422.57 266.82 423.87 263.78L423.87 263.78L436.71 232.47L451.77 232.47L435.16 268.12Q433.24 272.28 430.48 274.76Q427.72 277.24 424.56 278.26Q421.39 279.28 418.17 279.28M431 263.97L417.36 263.97L402.73 232.47L418.36 232.47L431 263.97M474.59 269.05L474.59 269.05Q467.71 269.05 462.5 266.7Q457.29 264.34 454.38 260.1Q451.46 255.85 451.46 250.27L451.46 250.27Q451.46 244.56 454.38 240.32Q457.29 236.07 462.5 233.75Q467.71 231.42 474.65 231.42L474.65 231.42Q481.53 231.42 486.74 233.75Q491.95 236.07 494.83 240.32Q497.72 244.56 497.72 250.27L497.72 250.27Q497.72 255.85 494.83 260.1Q491.95 264.34 486.74 266.7Q481.53 269.05 474.59 269.05M474.65 258.64L474.65 258.64Q477.44 258.64 479.4 257.65Q481.35 256.65 482.37 254.76Q483.39 252.87 483.39 250.27L483.39 250.27Q483.39 247.6 482.37 245.71Q481.35 243.82 479.4 242.83Q477.44 241.84 474.65 241.84L474.65 241.84Q471.86 241.84 469.88 242.83Q467.89 243.82 466.87 245.71Q465.85 247.6 465.85 250.21L465.85 250.21Q465.85 252.87 466.87 254.76Q467.89 256.65 469.88 257.65Q471.86 258.64 474.65 258.64M516.19 268.99L516.19 268.99Q511.23 268.99 507.67 266.95Q504.1 264.9 502.24 261.15Q500.38 257.4 500.38 252.44L500.38 252.44L500.38 232.47L514.58 232.47L514.58 250.39Q514.58 253.8 516.32 255.66Q518.05 257.52 521.21 257.52L521.21 257.52Q523.63 257.52 525.24 256.59Q526.86 255.66 527.69 253.86Q528.53 252.07 528.53 249.46L528.53 249.46L532.81 251.69Q532.06 257.34 529.65 261.21Q527.23 265.09 523.79 267.04Q520.35 268.99 516.19 268.99M545.15 268L530.89 268L528.53 253.31L528.53 232.47L542.73 232.47L542.73 255.48L545.15 268M548.8 244.63L546.39 232.47L560.89 232.47L563 245.06L563 268L548.8 268L548.8 244.63M579.18 231.79L579.18 231.79L579.18 243.88Q577.2 243.51 575.56 243.36Q573.91 243.2 572.55 243.2L572.55 243.2Q570.01 243.2 567.84 244.16Q565.67 245.12 564.34 247.45Q563 249.77 563 253.86L563 253.86L560.4 250.64Q560.96 246.8 561.92 243.36Q562.88 239.91 564.55 237.22Q566.23 234.52 568.74 232.97Q571.25 231.42 574.91 231.42L574.91 231.42Q575.9 231.42 576.95 231.51Q578.01 231.61 579.18 231.79M623.95 252.69L638.02 252.69Q637.53 257.58 634.49 261.27Q631.45 264.96 626.58 267.01Q621.72 269.05 615.64 269.05L615.64 269.05Q609.01 269.05 603.89 266.7Q598.78 264.34 595.92 260.06Q593.07 255.79 593.07 250.27L593.07 250.27Q593.07 244.63 595.92 240.41Q598.78 236.19 603.89 233.81Q609.01 231.42 615.64 231.42L615.64 231.42Q621.72 231.42 626.58 233.47Q631.45 235.51 634.49 239.17Q637.53 242.83 638.02 247.79L638.02 247.79L623.95 247.79Q623.33 244.87 621.1 243.36Q618.86 241.84 615.64 241.84L615.64 241.84Q613.16 241.84 611.3 242.8Q609.44 243.76 608.45 245.65Q607.46 247.54 607.46 250.27L607.46 250.27Q607.46 253 608.45 254.86Q609.44 256.72 611.3 257.68Q613.16 258.64 615.64 258.64L615.64 258.64Q618.86 258.64 621.1 257Q623.33 255.35 623.95 252.69L623.95 252.69M687.19 268L672.43 268L670.76 255.35L672.49 250.27L670.76 245.25L672.43 232.47L687.19 232.47L684.83 250.21L687.19 268M675.59 250.27L675.59 250.27Q674.85 255.91 672.34 260.16Q669.83 264.4 665.89 266.73Q661.95 269.05 656.87 269.05L656.87 269.05Q651.72 269.05 647.76 266.7Q643.79 264.34 641.59 260.1Q639.39 255.85 639.39 250.27L639.39 250.27Q639.39 244.56 641.59 240.32Q643.79 236.07 647.76 233.75Q651.72 231.42 656.87 231.42L656.87 231.42Q661.95 231.42 665.89 233.71Q669.83 236.01 672.37 240.26Q674.91 244.5 675.59 250.27M653.71 250.27L653.71 250.27Q653.71 252.62 654.67 254.42Q655.63 256.22 657.37 257.27Q659.1 258.33 661.33 258.33L661.33 258.33Q663.63 258.33 665.74 257.27Q667.84 256.22 669.46 254.42Q671.07 252.62 671.81 250.27L671.81 250.27Q671.07 247.91 669.46 246.08Q667.84 244.25 665.74 243.2Q663.63 242.15 661.33 242.15L661.33 242.15Q659.1 242.15 657.37 243.2Q655.63 244.25 654.67 246.08Q653.71 247.91 653.71 250.27M691.65 245L689.23 232.47L703.43 232.47L705.85 247.17L705.85 268L691.65 268L691.65 245M717.82 231.42L717.82 231.42Q722.78 231.42 726.25 233.47Q729.72 235.51 731.55 239.26Q733.38 243.01 733.38 248.04L733.38 248.04L733.38 268L719.18 268L719.18 250.08Q719.18 246.61 717.54 244.75Q715.89 242.89 712.86 242.89L712.86 242.89Q710.69 242.89 709.11 243.88Q707.52 244.87 706.69 246.67Q705.85 248.47 705.85 251.01L705.85 251.01L701.57 248.78Q702.38 243.01 704.7 239.17Q707.03 235.33 710.44 233.37Q713.85 231.42 717.82 231.42M745.28 231.42L745.28 231.42Q750.24 231.42 753.75 233.47Q757.25 235.51 759.08 239.26Q760.91 243.01 760.91 248.04L760.91 248.04L760.91 268L746.71 268L746.71 250.08Q746.71 246.61 745.07 244.75Q743.42 242.89 740.38 242.89L740.38 242.89Q738.21 242.89 736.63 243.88Q735.05 244.87 734.21 246.67Q733.38 248.47 733.38 251.01L733.38 251.01L729.1 248.78Q729.91 243.01 732.23 239.17Q734.56 235.33 737.94 233.37Q741.31 231.42 745.28 231.42M786.33 269.05L786.33 269.05Q779.75 269.05 774.61 266.7Q769.46 264.34 766.49 260.06Q763.51 255.79 763.51 250.08L763.51 250.08Q763.51 244.5 766.39 240.29Q769.28 236.07 774.27 233.75Q779.26 231.42 785.46 231.42L785.46 231.42Q791.97 231.42 796.56 234.18Q801.14 236.94 803.59 242.05Q806.04 247.17 806.04 254.11L806.04 254.11L775.1 254.11L775.1 245.99L797.86 245.99L793.7 248.78Q793.46 246.36 792.46 244.66Q791.47 242.95 789.83 242.08Q788.19 241.22 785.95 241.22L785.95 241.22Q783.41 241.22 781.61 242.21Q779.82 243.2 778.86 244.97Q777.89 246.73 777.89 248.97L777.89 248.97Q777.89 252.13 779.29 254.3Q780.68 256.47 783.54 257.62Q786.39 258.76 790.6 258.76L790.6 258.76Q794.45 258.76 798.23 257.83Q802.01 256.9 805.11 255.1L805.11 255.1L805.11 263.91Q801.33 266.39 796.65 267.72Q791.97 269.05 786.33 269.05M809.95 244.63L807.53 232.47L822.04 232.47L824.15 245.06L824.15 268L809.95 268L809.95 244.63M840.33 231.79L840.33 231.79L840.33 243.88Q838.34 243.51 836.7 243.36Q835.06 243.2 833.69 243.2L833.69 243.2Q831.15 243.2 828.98 244.16Q826.81 245.12 825.48 247.45Q824.15 249.77 824.15 253.86L824.15 253.86L821.54 250.64Q822.1 246.8 823.06 243.36Q824.02 239.91 825.7 237.22Q827.37 234.52 829.88 232.97Q832.39 231.42 836.05 231.42L836.05 231.42Q837.04 231.42 838.1 231.51Q839.15 231.61 840.33 231.79M889.06 268L874.3 268L872.63 255.35L874.37 250.27L872.63 245.25L874.3 232.47L889.06 232.47L886.7 250.21L889.06 268M877.47 250.27L877.47 250.27Q876.72 255.91 874.21 260.16Q871.7 264.4 867.76 266.73Q863.83 269.05 858.74 269.05L858.74 269.05Q853.6 269.05 849.63 266.7Q845.66 264.34 843.46 260.1Q841.26 255.85 841.26 250.27L841.26 250.27Q841.26 244.56 843.46 240.32Q845.66 236.07 849.63 233.75Q853.6 231.42 858.74 231.42L858.74 231.42Q863.83 231.42 867.76 233.71Q871.7 236.01 874.24 240.26Q876.78 244.5 877.47 250.27M855.58 250.27L855.58 250.27Q855.58 252.62 856.54 254.42Q857.5 256.22 859.24 257.27Q860.97 258.33 863.21 258.33L863.21 258.33Q865.5 258.33 867.61 257.27Q869.72 256.22 871.33 254.42Q872.94 252.62 873.68 250.27L873.68 250.27Q872.94 247.91 871.33 246.08Q869.72 244.25 867.61 243.2Q865.5 242.15 863.21 242.15L863.21 242.15Q860.97 242.15 859.24 243.2Q857.5 244.25 856.54 246.08Q855.58 247.91 855.58 250.27" fill="#FBF7EF"><title>Point your camera</title></path>
<path d="M313.48 318L310.78 318L318.21 297.63L321.15 297.63L328.63 318L325.93 318L321.62 305.85Q321.22 304.7 320.7 303.06Q320.17 301.42 319.39 298.85L319.39 298.85L319.96 298.85Q319.2 301.44 318.67 303.1Q318.13 304.75 317.75 305.85L317.75 305.85L313.48 318M324.86 312.3L314.55 312.3L314.55 310.06L324.86 310.06L324.86 312.3M331.5 297.63L334.06 297.63L334.06 318L331.5 318L331.5 297.63M344.21 303L352.08 303L352.08 305.07L344.21 305.07L344.21 303M346.6 314.4L346.6 299.26L349.02 299.26L349.02 314.19Q349.02 315.16 349.41 315.58Q349.8 316 350.74 316L350.74 316Q351 316 351.36 315.97Q351.72 315.94 352.03 315.89L352.03 315.89L352.37 317.95Q352 318.04 351.53 318.08Q351.07 318.12 350.63 318.12L350.63 318.12Q348.69 318.12 347.64 317.16Q346.6 316.2 346.6 314.4L346.6 314.4M360.2 318.22L360.2 318.22Q358.7 318.22 357.51 317.58Q356.33 316.95 355.66 315.66Q354.98 314.38 354.98 312.46L354.98 312.46L354.98 303L357.4 303L357.4 312.27Q357.4 314.06 358.32 315.05Q359.24 316.03 360.84 316.03L360.84 316.03Q361.92 316.03 362.79 315.57Q363.66 315.12 364.17 314.19Q364.67 313.27 364.67 311.92L364.67 311.92L364.67 303L367.09 303L367.09 318L364.75 318L364.75 314.36L365.19 314.36Q364.48 316.44 363.19 317.33Q361.9 318.22 360.2 318.22M373.54 318L371.13 318L371.13 303L373.45 303L373.45 305.33L373.59 305.33Q374 304.18 375.01 303.48Q376.02 302.78 377.39 302.78L377.39 302.78Q377.67 302.78 378.01 302.8Q378.34 302.81 378.54 302.84L378.54 302.84L378.54 305.26Q378.43 305.23 378 305.17Q377.58 305.11 377.09 305.11L377.09 305.11Q376.09 305.11 375.28 305.54Q374.47 305.97 374.01 306.76Q373.54 307.55 373.54 308.66L373.54 308.66L373.54 318M383.87 309.07L383.87 309.07L383.87 318L381.45 318L381.45 303L383.79 303L383.8 306.64L383.35 306.64Q384.04 304.57 385.33 303.68Q386.62 302.78 388.34 302.78L388.34 302.78Q389.86 302.78 391.03 303.42Q392.21 304.05 392.88 305.33Q393.56 306.6 393.56 308.54L393.56 308.54L393.56 318L391.14 318L391.14 308.73Q391.14 306.93 390.22 305.95Q389.31 304.97 387.71 304.97L387.71 304.97Q386.63 304.97 385.75 305.43Q384.88 305.89 384.37 306.8Q383.87 307.72 383.87 309.07M402.72 318.33L402.72 318.33Q401.16 318.33 399.92 317.86Q398.69 317.38 397.9 316.43Q397.12 315.48 396.9 314.09L396.9 314.09L399.22 313.72Q399.48 314.98 400.38 315.6Q401.27 316.22 402.69 316.22L402.69 316.22Q404.25 316.22 405.17 315.56Q406.1 314.9 406.1 313.94L406.1 313.94Q406.1 313.15 405.53 312.63Q404.96 312.11 403.88 311.86L403.88 311.86L401.41 311.29Q399.36 310.79 398.34 309.76Q397.32 308.73 397.32 307.13L397.32 307.13Q397.32 305.85 398.03 304.86Q398.74 303.88 399.99 303.32Q401.24 302.76 402.84 302.76L402.84 302.76Q404.39 302.76 405.52 303.26Q406.66 303.77 407.35 304.66Q408.04 305.56 408.29 306.76L408.29 306.76L406.04 307.14Q405.82 306.21 405.06 305.52Q404.29 304.82 402.84 304.82L402.84 304.82Q401.49 304.82 400.62 305.46Q399.75 306.09 399.75 307.04L399.75 307.04Q399.75 307.87 400.36 308.38Q400.97 308.89 402.21 309.18L402.21 309.18L404.53 309.73Q406.6 310.22 407.59 311.23Q408.59 312.24 408.59 313.82L408.59 313.82Q408.59 315.16 407.84 316.17Q407.1 317.19 405.77 317.76Q404.44 318.33 402.72 318.33M419.33 323.59L419.33 323.59L419.76 321.49L420.4 321.54Q421.05 321.66 421.58 321.54Q422.11 321.42 422.53 320.95Q422.96 320.47 423.27 319.54L423.27 319.54L423.83 318.01L418.07 303L420.71 303L423.91 311.81Q424.39 313.11 424.75 314.38Q425.12 315.66 425.5 316.88L425.5 316.88L424.69 316.88Q425.06 315.66 425.43 314.38Q425.8 313.09 426.26 311.81L426.26 311.81L429.48 303L432.09 303L425.39 320.42Q424.95 321.55 424.32 322.3Q423.69 323.04 422.87 323.41Q422.04 323.78 421.01 323.78L421.01 323.78Q420.45 323.78 420.02 323.72Q419.58 323.66 419.33 323.59M440.32 318.33L440.32 318.33Q438.27 318.33 436.72 317.35Q435.18 316.37 434.31 314.62Q433.44 312.87 433.44 310.58L433.44 310.58Q433.44 308.24 434.31 306.48Q435.18 304.72 436.72 303.74Q438.27 302.76 440.32 302.76L440.32 302.76Q442.38 302.76 443.93 303.74Q445.49 304.72 446.35 306.48Q447.21 308.24 447.21 310.58L447.21 310.58Q447.21 312.87 446.35 314.62Q445.49 316.37 443.93 317.35Q442.38 318.33 440.32 318.33M440.32 316.15L440.32 316.15Q441.81 316.15 442.79 315.4Q443.78 314.65 444.27 313.39Q444.76 312.12 444.76 310.58L444.76 310.58Q444.76 309 444.27 307.73Q443.78 306.45 442.79 305.69Q441.81 304.93 440.32 304.93L440.32 304.93Q438.84 304.93 437.86 305.69Q436.89 306.45 436.39 307.73Q435.9 309 435.9 310.58L435.9 310.58Q435.9 312.12 436.39 313.39Q436.89 314.65 437.86 315.4Q438.84 316.15 440.32 316.15M455.71 318.22L455.71 318.22Q454.21 318.22 453.03 317.58Q451.84 316.95 451.17 315.66Q450.49 314.38 450.49 312.46L450.49 312.46L450.49 303L452.91 303L452.91 312.27Q452.91 314.06 453.83 315.05Q454.76 316.03 456.36 316.03L456.36 316.03Q457.44 316.03 458.3 315.57Q459.17 315.12 459.68 314.19Q460.18 313.27 460.18 311.92L460.18 311.92L460.18 303L462.6 303L462.6 318L460.27 318L460.27 314.36L460.7 314.36Q459.99 316.44 458.7 317.33Q457.41 318.22 455.71 318.22M469.06 318L466.64 318L466.64 303L468.96 303L468.96 305.33L469.1 305.33Q469.51 304.18 470.52 303.48Q471.53 302.78 472.9 302.78L472.9 302.78Q473.19 302.78 473.52 302.8Q473.86 302.81 474.05 302.84L474.05 302.84L474.05 305.26Q473.94 305.23 473.51 305.17Q473.09 305.11 472.6 305.11L472.6 305.11Q471.6 305.11 470.79 305.54Q469.99 305.97 469.52 306.76Q469.06 307.55 469.06 308.66L469.06 308.66L469.06 318M486.68 318L484.26 318L484.26 303L486.58 303L486.58 305.33L486.72 305.33Q487.13 304.18 488.14 303.48Q489.15 302.78 490.52 302.78L490.52 302.78Q490.81 302.78 491.14 302.8Q491.48 302.81 491.67 302.84L491.67 302.84L491.67 305.26Q491.56 305.23 491.14 305.17Q490.71 305.11 490.22 305.11L490.22 305.11Q489.22 305.11 488.42 305.54Q487.61 305.97 487.14 306.76Q486.68 307.55 486.68 308.66L486.68 308.66L486.68 318M498.46 318.31L498.46 318.31Q497.03 318.31 495.86 317.78Q494.69 317.25 494.01 316.22Q493.32 315.2 493.32 313.72L493.32 313.72Q493.32 312.42 493.83 311.62Q494.34 310.81 495.18 310.35Q496.03 309.89 497.08 309.66Q498.12 309.43 499.2 309.29L499.2 309.29Q500.57 309.1 501.41 309Q502.25 308.91 502.64 308.68Q503.03 308.46 503.03 307.9L503.03 307.9L503.03 307.8Q503.03 306.9 502.67 306.26Q502.31 305.61 501.59 305.26Q500.87 304.9 499.83 304.9L499.83 304.9Q498.77 304.9 497.99 305.24Q497.21 305.59 496.74 306.12Q496.26 306.65 496.07 307.24L496.07 307.24L493.71 306.72Q494.13 305.35 495.05 304.49Q495.96 303.62 497.19 303.2Q498.42 302.78 499.78 302.78L499.78 302.78Q500.71 302.78 501.7 303.02Q502.69 303.25 503.54 303.82Q504.38 304.4 504.91 305.41Q505.44 306.42 505.44 307.96L505.44 307.96L505.44 318L503.06 318L503.06 315.94L502.92 315.94Q502.66 316.46 502.12 317.01Q501.57 317.56 500.67 317.94Q499.78 318.31 498.46 318.31M498.86 316.17L498.86 316.17Q500.24 316.17 501.17 315.64Q502.1 315.12 502.57 314.27Q503.03 313.43 503.03 312.49L503.03 312.49L503.03 310.48Q502.88 310.64 502.42 310.77Q501.96 310.9 501.36 311.01Q500.75 311.12 500.14 311.21Q499.53 311.29 499.09 311.34L499.09 311.34Q498.22 311.45 497.45 311.72Q496.69 311.98 496.22 312.48Q495.76 312.98 495.76 313.84L495.76 313.84Q495.76 314.6 496.15 315.12Q496.55 315.63 497.25 315.9Q497.95 316.17 498.86 316.17M515.23 318L512.81 318L508.23 303L510.77 303L512.62 309.56Q513.01 310.96 513.44 312.62Q513.86 314.28 514.27 316.24L514.27 316.24L513.89 316.24Q514.28 314.35 514.7 312.68Q515.12 311.01 515.53 309.56L515.53 309.56L517.36 303L519.88 303L521.68 309.56Q522.08 310.99 522.48 312.65Q522.88 314.31 523.29 316.24L523.29 316.24L522.88 316.24Q523.31 314.34 523.73 312.67Q524.15 311 524.55 309.56L524.55 309.56L526.41 303L528.97 303L524.39 318L521.94 318L519.98 311.21Q519.7 310.17 519.42 309.1Q519.14 308.03 518.86 306.93Q518.59 305.83 518.32 304.71L518.32 304.71L518.88 304.71Q518.6 305.82 518.33 306.93Q518.06 308.03 517.78 309.11Q517.5 310.19 517.2 311.21L517.2 311.21L515.23 318M537.58 303L546.19 303L546.19 305.07L537.58 305.07L537.58 303M542.86 318L540.45 318L540.45 300.79Q540.45 299.56 541.02 298.71Q541.59 297.86 542.54 297.42Q543.49 296.99 544.61 296.99L544.61 296.99Q545.36 296.99 545.88 297.08Q546.4 297.18 546.63 297.26L546.63 297.26L546.17 299.34Q546 299.28 545.65 299.23Q545.3 299.17 544.88 299.17L544.88 299.17Q543.81 299.17 543.34 299.69Q542.86 300.21 542.86 301.27L542.86 301.27L542.86 318M554.6 318.33L554.6 318.33Q552.55 318.33 551.01 317.35Q549.46 316.37 548.59 314.62Q547.72 312.87 547.72 310.58L547.72 310.58Q547.72 308.24 548.59 306.48Q549.46 304.72 551.01 303.74Q552.55 302.76 554.6 302.76L554.6 302.76Q556.67 302.76 558.22 303.74Q559.77 304.72 560.63 306.48Q561.49 308.24 561.49 310.58L561.49 310.58Q561.49 312.87 560.63 314.62Q559.77 316.37 558.22 317.35Q556.67 318.33 554.6 318.33M554.6 316.15L554.6 316.15Q556.09 316.15 557.08 315.4Q558.06 314.65 558.55 313.39Q559.04 312.12 559.04 310.58L559.04 310.58Q559.04 309 558.55 307.73Q558.06 306.45 557.08 305.69Q556.09 304.93 554.6 304.93L554.6 304.93Q553.13 304.93 552.15 305.69Q551.17 306.45 550.68 307.73Q550.19 309 550.19 310.58L550.19 310.58Q550.19 312.12 550.68 313.39Q551.17 314.65 552.15 315.4Q553.13 316.15 554.6 316.15M570.91 318.33L570.91 318.33Q568.86 318.33 567.32 317.35Q565.77 316.37 564.9 314.62Q564.04 312.87 564.04 310.58L564.04 310.58Q564.04 308.24 564.9 306.48Q565.77 304.72 567.32 303.74Q568.86 302.76 570.91 302.76L570.91 302.76Q572.98 302.76 574.53 303.74Q576.08 304.72 576.94 306.48Q577.8 308.24 577.8 310.58L577.8 310.58Q577.8 312.87 576.94 314.62Q576.08 316.37 574.53 317.35Q572.98 318.33 570.91 318.33M570.91 316.15L570.91 316.15Q572.4 316.15 573.39 315.4Q574.37 314.65 574.86 313.39Q575.36 312.12 575.36 310.58L575.36 310.58Q575.36 309 574.86 307.73Q574.37 306.45 573.39 305.69Q572.4 304.93 570.91 304.93L570.91 304.93Q569.44 304.93 568.46 305.69Q567.48 306.45 566.99 307.73Q566.5 309 566.5 310.58L566.5 310.58Q566.5 312.12 566.99 313.39Q567.48 314.65 568.46 315.4Q569.44 316.15 570.91 316.15M579.32 303L587.2 303L587.2 305.07L579.32 305.07L579.32 303M581.71 314.4L581.71 299.26L584.13 299.26L584.13 314.19Q584.13 315.16 584.52 315.58Q584.91 316 585.86 316L585.86 316Q586.12 316 586.48 315.97Q586.84 315.94 587.14 315.89L587.14 315.89L587.48 317.95Q587.11 318.04 586.65 318.08Q586.18 318.12 585.75 318.12L585.75 318.12Q583.8 318.12 582.76 317.16Q581.71 316.2 581.71 314.4L581.71 314.4M594.65 318.31L594.65 318.31Q593.21 318.31 592.04 317.78Q590.87 317.25 590.19 316.22Q589.51 315.2 589.51 313.72L589.51 313.72Q589.51 312.42 590.01 311.62Q590.52 310.81 591.37 310.35Q592.21 309.89 593.26 309.66Q594.3 309.43 595.38 309.29L595.38 309.29Q596.75 309.1 597.59 309Q598.43 308.91 598.82 308.68Q599.21 308.46 599.21 307.9L599.21 307.9L599.21 307.8Q599.21 306.9 598.85 306.26Q598.49 305.61 597.77 305.26Q597.05 304.9 596.01 304.9L596.01 304.9Q594.95 304.9 594.17 305.24Q593.39 305.59 592.92 306.12Q592.45 306.65 592.25 307.24L592.25 307.24L589.89 306.72Q590.31 305.35 591.23 304.49Q592.14 303.62 593.38 303.2Q594.61 302.78 595.96 302.78L595.96 302.78Q596.89 302.78 597.88 303.02Q598.87 303.25 599.72 303.82Q600.57 304.4 601.09 305.41Q601.62 306.42 601.62 307.96L601.62 307.96L601.62 318L599.24 318L599.24 315.94L599.1 315.94Q598.84 316.46 598.3 317.01Q597.75 317.56 596.85 317.94Q595.96 318.31 594.65 318.31M595.04 316.17L595.04 316.17Q596.42 316.17 597.35 315.64Q598.28 315.12 598.75 314.27Q599.21 313.43 599.21 312.49L599.21 312.49L599.21 310.48Q599.06 310.64 598.6 310.77Q598.15 310.9 597.54 311.01Q596.93 311.12 596.32 311.21Q595.71 311.29 595.28 311.34L595.28 311.34Q594.4 311.45 593.63 311.72Q592.87 311.98 592.4 312.48Q591.94 312.98 591.94 313.84L591.94 313.84Q591.94 314.6 592.34 315.12Q592.73 315.63 593.43 315.9Q594.13 316.17 595.04 316.17M611.79 324L611.79 324Q610.11 324 608.85 323.54Q607.59 323.09 606.77 322.29Q605.95 321.49 605.57 320.46L605.57 320.46L607.69 319.6Q607.98 320.16 608.48 320.69Q608.97 321.21 609.78 321.55Q610.59 321.88 611.79 321.88L611.79 321.88Q613.64 321.88 614.79 320.97Q615.93 320.05 615.93 318.18L615.93 318.18L615.93 315.4L615.77 315.4Q615.43 315.98 614.88 316.56Q614.33 317.14 613.47 317.54Q612.6 317.93 611.3 317.93L611.3 317.93Q609.45 317.93 608 317.04Q606.55 316.14 605.73 314.47Q604.9 312.79 604.9 310.45L604.9 310.45Q604.9 308.13 605.72 306.41Q606.54 304.68 607.99 303.73Q609.44 302.78 611.33 302.78L611.33 302.78Q612.63 302.78 613.5 303.19Q614.38 303.6 614.94 304.21Q615.5 304.81 615.82 305.38L615.82 305.38L615.99 305.38L615.99 303L618.34 303L618.34 318.26Q618.34 320.28 617.45 321.55Q616.56 322.83 615.07 323.41Q613.58 324 611.79 324M611.68 315.77L611.68 315.77Q613.06 315.77 614.03 315.12Q614.99 314.47 615.5 313.27Q616 312.07 616 310.41L616 310.41Q616 308.79 615.5 307.55Q615 306.32 614.04 305.63Q613.08 304.94 611.68 304.94L611.68 304.94Q610.3 304.94 609.34 305.64Q608.37 306.34 607.87 307.57Q607.36 308.8 607.36 310.41L607.36 310.41Q607.36 312.05 607.87 313.26Q608.37 314.46 609.34 315.12Q610.31 315.77 611.68 315.77M628.63 318.33L628.63 318.33Q626.45 318.33 624.88 317.35Q623.32 316.37 622.47 314.63Q621.62 312.89 621.62 310.59L621.62 310.59Q621.62 308.29 622.47 306.53Q623.32 304.77 624.84 303.76Q626.37 302.76 628.39 302.76L628.39 302.76Q629.7 302.76 630.89 303.21Q632.08 303.66 633.01 304.59Q633.94 305.53 634.48 306.97Q635.02 308.4 635.02 310.38L635.02 310.38L635.02 311.27L623.15 311.27L623.15 309.22L633.69 309.22L632.6 309.97Q632.6 308.47 632.11 307.33Q631.62 306.19 630.68 305.55Q629.74 304.92 628.39 304.92L628.39 304.92Q627.04 304.92 626.06 305.57Q625.09 306.21 624.57 307.3Q624.05 308.39 624.05 309.7L624.05 309.7L624.05 310.96Q624.05 312.59 624.62 313.75Q625.18 314.92 626.21 315.55Q627.24 316.17 628.65 316.17L628.65 316.17Q629.59 316.17 630.34 315.89Q631.1 315.61 631.62 315.07Q632.15 314.53 632.41 313.75L632.41 313.75L634.77 314.19Q634.45 315.42 633.59 316.35Q632.74 317.28 631.47 317.8Q630.21 318.33 628.63 318.33M648.25 318L645.83 318L645.83 303L648.25 303L648.25 318M647.05 300.39L647.05 300.39Q646.37 300.39 645.88 299.92Q645.38 299.45 645.38 298.78L645.38 298.78Q645.38 298.11 645.88 297.64Q646.37 297.16 647.05 297.16L647.05 297.16Q647.75 297.16 648.24 297.64Q648.73 298.11 648.73 298.78L648.73 298.78Q648.73 299.45 648.24 299.92Q647.75 300.39 647.05 300.39M654.69 309.07L654.69 309.07L654.69 318L652.27 318L652.27 303L654.61 303L654.63 306.64L654.17 306.64Q654.87 304.57 656.16 303.68Q657.44 302.78 659.16 302.78L659.16 302.78Q660.68 302.78 661.86 303.42Q663.03 304.05 663.71 305.33Q664.39 306.6 664.39 308.54L664.39 308.54L664.39 318L661.97 318L661.97 308.73Q661.97 306.93 661.05 305.95Q660.13 304.97 658.54 304.97L658.54 304.97Q657.46 304.97 656.58 305.43Q655.71 305.89 655.2 306.8Q654.69 307.72 654.69 309.07M666.64 303L674.52 303L674.52 305.07L666.64 305.07L666.64 303M669.04 314.4L669.04 299.26L671.46 299.26L671.46 314.19Q671.46 315.16 671.84 315.58Q672.23 316 673.18 316L673.18 316Q673.44 316 673.8 315.97Q674.16 315.94 674.46 315.89L674.46 315.89L674.8 317.95Q674.44 318.04 673.97 318.08Q673.51 318.12 673.07 318.12L673.07 318.12Q671.13 318.12 670.08 317.16Q669.04 316.2 669.04 314.4L669.04 314.4M683.28 318.33L683.28 318.33Q681.23 318.33 679.69 317.35Q678.14 316.37 677.27 314.62Q676.4 312.87 676.4 310.58L676.4 310.58Q676.4 308.24 677.27 306.48Q678.14 304.72 679.69 303.74Q681.23 302.76 683.28 302.76L683.28 302.76Q685.35 302.76 686.9 303.74Q688.45 304.72 689.31 306.48Q690.17 308.24 690.17 310.58L690.17 310.58Q690.17 312.87 689.31 314.62Q688.45 316.37 686.9 317.35Q685.35 318.33 683.28 318.33M683.28 316.15L683.28 316.15Q684.77 316.15 685.76 315.4Q686.74 314.65 687.23 313.39Q687.72 312.12 687.72 310.58L687.72 310.58Q687.72 309 687.23 307.73Q686.74 306.45 685.76 305.69Q684.77 304.93 683.28 304.93L683.28 304.93Q681.8 304.93 680.83 305.69Q679.85 306.45 679.36 307.73Q678.87 309 678.87 310.58L678.87 310.58Q678.87 312.12 679.36 313.39Q679.85 314.65 680.83 315.4Q681.8 316.15 683.28 316.15M705.36 318.31L705.36 318.31Q703.93 318.31 702.76 317.78Q701.59 317.25 700.9 316.22Q700.22 315.2 700.22 313.72L700.22 313.72Q700.22 312.42 700.73 311.62Q701.23 310.81 702.08 310.35Q702.93 309.89 703.97 309.66Q705.02 309.43 706.1 309.29L706.1 309.29Q707.47 309.1 708.31 309Q709.15 308.91 709.54 308.68Q709.93 308.46 709.93 307.9L709.93 307.9L709.93 307.8Q709.93 306.9 709.57 306.26Q709.2 305.61 708.49 305.26Q707.77 304.9 706.73 304.9L706.73 304.9Q705.66 304.9 704.88 305.24Q704.1 305.59 703.63 306.12Q703.16 306.65 702.97 307.24L702.97 307.24L700.6 306.72Q701.03 305.35 701.94 304.49Q702.86 303.62 704.09 303.2Q705.32 302.78 706.67 302.78L706.67 302.78Q707.6 302.78 708.59 303.02Q709.59 303.25 710.43 303.82Q711.28 304.4 711.81 305.41Q712.33 306.42 712.33 307.96L712.33 307.96L712.33 318L709.96 318L709.96 315.94L709.82 315.94Q709.56 316.46 709.01 317.01Q708.46 317.56 707.57 317.94Q706.67 318.31 705.36 318.31M705.76 316.17L705.76 316.17Q707.14 316.17 708.07 315.64Q709 315.12 709.46 314.27Q709.93 313.43 709.93 312.49L709.93 312.49L709.93 310.48Q709.78 310.64 709.32 310.77Q708.86 310.9 708.25 311.01Q707.64 311.12 707.04 311.21Q706.43 311.29 705.99 311.34L705.99 311.34Q705.12 311.45 704.35 311.72Q703.58 311.98 703.12 312.48Q702.65 312.98 702.65 313.84L702.65 313.84Q702.65 314.6 703.05 315.12Q703.45 315.63 704.14 315.9Q704.84 316.17 705.76 316.17M726.36 318L723.94 318L723.94 303L726.27 303L726.27 305.33L726.4 305.33Q726.81 304.18 727.82 303.48Q728.84 302.78 730.2 302.78L730.2 302.78Q730.49 302.78 730.83 302.8Q731.16 302.81 731.35 302.84L731.35 302.84L731.35 305.26Q731.24 305.23 730.82 305.17Q730.39 305.11 729.9 305.11L729.9 305.11Q728.9 305.11 728.1 305.54Q727.29 305.97 726.83 306.76Q726.36 307.55 726.36 308.66L726.36 308.66L726.36 318M739.86 318.33L739.86 318.33Q737.67 318.33 736.1 317.35Q734.54 316.37 733.69 314.63Q732.84 312.89 732.84 310.59L732.84 310.59Q732.84 308.29 733.69 306.53Q734.54 304.77 736.06 303.76Q737.59 302.76 739.61 302.76L739.61 302.76Q740.92 302.76 742.11 303.21Q743.3 303.66 744.23 304.59Q745.16 305.53 745.7 306.97Q746.24 308.4 746.24 310.38L746.24 310.38L746.24 311.27L734.37 311.27L734.37 309.22L744.91 309.22L743.82 309.97Q743.82 308.47 743.33 307.33Q742.84 306.19 741.9 305.55Q740.96 304.92 739.61 304.92L739.61 304.92Q738.26 304.92 737.29 305.57Q736.31 306.21 735.79 307.3Q735.28 308.39 735.28 309.7L735.28 309.7L735.28 310.96Q735.28 312.59 735.84 313.75Q736.4 314.92 737.43 315.55Q738.46 316.17 739.87 316.17L739.87 316.17Q740.81 316.17 741.56 315.89Q742.32 315.61 742.84 315.07Q743.37 314.53 743.63 313.75L743.63 313.75L745.99 314.19Q745.67 315.42 744.81 316.35Q743.96 317.28 742.69 317.8Q741.43 318.33 739.86 318.33M755.74 318.33L755.74 318.33Q753.55 318.33 751.99 317.35Q750.42 316.37 749.58 314.63Q748.73 312.89 748.73 310.59L748.73 310.59Q748.73 308.29 749.58 306.53Q750.42 304.77 751.95 303.76Q753.47 302.76 755.5 302.76L755.5 302.76Q756.81 302.76 758 303.21Q759.19 303.66 760.12 304.59Q761.05 305.53 761.59 306.97Q762.13 308.4 762.13 310.38L762.13 310.38L762.13 311.27L750.26 311.27L750.26 309.22L760.8 309.22L759.71 309.97Q759.71 308.47 759.21 307.33Q758.72 306.19 757.79 305.55Q756.85 304.92 755.5 304.92L755.5 304.92Q754.14 304.92 753.17 305.57Q752.2 306.21 751.68 307.3Q751.16 308.39 751.16 309.7L751.16 309.7L751.16 310.96Q751.16 312.59 751.72 313.75Q752.28 314.92 753.32 315.55Q754.35 316.17 755.76 316.17L755.76 316.17Q756.7 316.17 757.45 315.89Q758.2 315.61 758.73 315.07Q759.26 314.53 759.52 313.75L759.52 313.75L761.88 314.19Q761.55 315.42 760.7 316.35Q759.84 317.28 758.58 317.8Q757.31 318.33 755.74 318.33M765.35 297.63L767.77 297.63L767.77 318L765.35 318L765.35 297.63" fill="#9A958C"><title>AI turns your raw footage into a reel</title></path>
<rect x="216" y="380" width="648" height="648" rx="48" fill="#FBF7EF" filter="url(#drop)"/>
<g data-qr="1" data-x="260" data-y="424" data-size="560"><!--QR--></g>
<g transform="translate(215.55,1058)" filter="url(#dropSoft)">
      <rect width="648.9" height="88" rx="44" fill="#161512" stroke="#FFD21E" stroke-width="2"/>
      <path d="M32.01 43.28L30.87 37.37L37.02 37.37L38.13 44.21L38.13 54.5L32.01 54.5L32.01 43.28M44.04 36.86L44.04 36.86Q46.41 36.86 48.06 37.85Q49.71 38.84 50.58 40.64Q51.45 42.44 51.45 44.9L51.45 44.9L51.45 54.5L45.33 54.5L45.33 45.8Q45.33 43.88 44.46 42.86Q43.59 41.84 41.94 41.84L41.94 41.84Q40.77 41.84 39.92 42.38Q39.06 42.92 38.6 43.91Q38.13 44.9 38.13 46.25L38.13 46.25L36.24 45.26Q36.6 42.53 37.71 40.66Q38.82 38.78 40.46 37.82Q42.09 36.86 44.04 36.86M57.33 36.86L57.33 36.86Q59.7 36.86 61.36 37.85Q63.03 38.84 63.9 40.64Q64.77 42.44 64.77 44.9L64.77 44.9L64.77 54.5L58.65 54.5L58.65 45.8Q58.65 43.88 57.78 42.86Q56.91 41.84 55.26 41.84L55.26 41.84Q54.09 41.84 53.24 42.38Q52.38 42.92 51.92 43.91Q51.45 44.9 51.45 46.25L51.45 46.25L49.56 45.26Q49.92 42.53 51.02 40.66Q52.11 38.78 53.76 37.82Q55.41 36.86 57.33 36.86M77.82 54.98L77.82 54.98Q74.52 54.98 72.06 53.86Q69.6 52.73 68.22 50.68Q66.84 48.62 66.84 45.95L66.84 45.95Q66.84 43.22 68.22 41.18Q69.6 39.14 72.06 38Q74.52 36.86 77.82 36.86L77.82 36.86Q81.09 36.86 83.57 38Q86.04 39.14 87.42 41.18Q88.8 43.22 88.8 45.95L88.8 45.95Q88.8 48.62 87.42 50.68Q86.04 52.73 83.57 53.86Q81.09 54.98 77.82 54.98M77.82 50.45L77.82 50.45Q79.32 50.45 80.38 49.91Q81.45 49.37 82.02 48.35Q82.59 47.33 82.59 45.95L82.59 45.95Q82.59 44.51 82.02 43.51Q81.45 42.5 80.38 41.96Q79.32 41.42 77.82 41.42L77.82 41.42Q76.32 41.42 75.24 41.96Q74.16 42.5 73.59 43.51Q73.02 44.51 73.02 45.92L73.02 45.92Q73.02 47.33 73.59 48.35Q74.16 49.37 75.24 49.91Q76.32 50.45 77.82 50.45M91.41 43.28L90.27 37.37L96.42 37.37L97.53 44.21L97.53 54.5L91.41 54.5L91.41 43.28M103.83 36.86L103.83 36.86Q106.29 36.86 108.03 37.85Q109.77 38.84 110.69 40.64Q111.6 42.44 111.6 44.9L111.6 44.9L111.6 54.5L105.48 54.5L105.48 45.8Q105.48 43.88 104.51 42.86Q103.53 41.84 101.7 41.84L101.7 41.84Q100.44 41.84 99.5 42.38Q98.55 42.92 98.04 43.91Q97.53 44.9 97.53 46.25L97.53 46.25L95.64 45.26Q96 42.53 97.17 40.66Q98.34 38.78 100.05 37.82Q101.76 36.86 103.83 36.86M116.43 41.9L112.95 41.9L112.95 39.23L116.43 37.82L119.07 32.75L122.55 32.75L122.55 37.37L129.75 37.37L129.75 41.9L122.55 41.9L122.55 46.94Q122.55 48.8 123.3 49.55Q124.05 50.3 126.03 50.3L126.03 50.3Q127.29 50.3 128.27 50.08Q129.24 49.85 130.05 49.49L130.05 49.49L130.05 54.11Q129.15 54.44 127.68 54.71Q126.21 54.98 124.65 54.98L124.65 54.98Q121.8 54.98 119.99 54.11Q118.17 53.24 117.3 51.61Q116.43 49.97 116.43 47.78L116.43 47.78L116.43 41.9M137.88 59.93L137.88 59.93Q135.99 59.93 134.52 59.47Q133.05 59 131.67 58.04L131.67 58.04L131.67 53.78Q133.08 54.68 134.31 55.07Q135.54 55.46 137.01 55.46L137.01 55.46Q138.24 55.46 139.2 54.92Q140.16 54.38 140.76 52.94L140.76 52.94L147.33 37.37L153.84 37.37L145.62 54.83Q144.75 56.72 143.51 57.85Q142.26 58.97 140.82 59.45Q139.38 59.93 137.88 59.93M144 52.91L138.09 52.91L130.8 37.37L137.55 37.37L144 52.91M158.07 54.8L158.07 54.8Q157.11 54.8 156.32 54.35Q155.52 53.9 155.07 53.11Q154.62 52.31 154.62 51.35L154.62 51.35Q154.62 50.39 155.07 49.61Q155.52 48.83 156.32 48.37Q157.11 47.9 158.07 47.9L158.07 47.9Q159.06 47.9 159.84 48.37Q160.62 48.83 161.07 49.61Q161.52 50.39 161.52 51.35L161.52 51.35Q161.52 52.31 161.07 53.11Q160.62 53.9 159.84 54.35Q159.06 54.8 158.07 54.8M176.13 35.48L176.13 35.48Q174.12 35.48 173.33 36.19Q172.53 36.89 172.53 38.45L172.53 38.45L172.53 54.5L166.41 54.5L166.41 38.75Q166.41 36.26 167.43 34.5Q168.45 32.75 170.45 31.84Q172.44 30.92 175.38 30.92L175.38 30.92Q176.7 30.92 177.74 31.1Q178.77 31.28 179.94 31.61L179.94 31.61L179.94 36.11Q179.04 35.78 178.09 35.63Q177.15 35.48 176.13 35.48M179.52 43.31L162.93 43.31L162.93 38.78L179.52 38.78L179.52 43.31M203.16 54.5L196.8 54.5L196.02 48.32L196.83 45.95L196.02 43.58L196.8 37.37L203.16 37.37L202.08 45.92L203.16 54.5M198.24 45.95L198.24 45.95Q197.82 48.65 196.58 50.69Q195.33 52.73 193.43 53.86Q191.52 54.98 189.09 54.98L189.09 54.98Q186.57 54.98 184.67 53.86Q182.76 52.73 181.68 50.68Q180.6 48.62 180.6 45.95L180.6 45.95Q180.6 43.22 181.68 41.18Q182.76 39.14 184.67 38Q186.57 36.86 189.09 36.86L189.09 36.86Q191.52 36.86 193.43 37.99Q195.33 39.11 196.59 41.14Q197.85 43.16 198.24 45.95M186.81 45.95L186.81 45.95Q186.81 47.21 187.33 48.2Q187.86 49.19 188.79 49.75Q189.72 50.3 190.92 50.3L190.92 50.3Q192.18 50.3 193.29 49.75Q194.4 49.19 195.24 48.2Q196.08 47.21 196.5 45.95L196.5 45.95Q196.08 44.66 195.24 43.67Q194.4 42.68 193.29 42.11Q192.18 41.54 190.92 41.54L190.92 41.54Q189.72 41.54 188.79 42.11Q187.86 42.68 187.33 43.67Q186.81 44.66 186.81 45.95M225.66 48.92L225.66 48.92Q225.66 50.9 224.46 52.25Q223.26 53.6 221.04 54.29Q218.82 54.98 215.7 54.98L215.7 54.98Q212.49 54.98 210.08 54.2Q207.66 53.42 206.31 52.01Q204.96 50.6 204.87 48.74L204.87 48.74L211.08 48.74Q211.29 49.43 211.9 49.93Q212.52 50.42 213.54 50.68Q214.56 50.93 215.97 50.93L215.97 50.93Q217.8 50.93 218.74 50.57Q219.69 50.21 219.69 49.49L219.69 49.49Q219.69 48.92 218.97 48.64Q218.25 48.35 216.51 48.2L216.51 48.2L213.48 47.96Q210.45 47.75 208.66 47.05Q206.88 46.34 206.1 45.22Q205.32 44.09 205.32 42.65L205.32 42.65Q205.32 40.7 206.53 39.42Q207.75 38.15 209.93 37.5Q212.1 36.86 215.01 36.86L215.01 36.86Q217.89 36.86 220.14 37.61Q222.39 38.36 223.74 39.7Q225.09 41.03 225.3 42.83L225.3 42.83L219.09 42.83Q218.94 42.26 218.43 41.8Q217.92 41.33 217.02 41.03Q216.12 40.73 214.71 40.73L214.71 40.73Q213.06 40.73 212.21 41.09Q211.35 41.45 211.35 42.11L211.35 42.11Q211.35 42.62 211.87 42.92Q212.4 43.22 213.84 43.34L213.84 43.34L217.83 43.64Q220.8 43.82 222.51 44.5Q224.22 45.17 224.94 46.28Q225.66 47.39 225.66 48.92M229.92 41.9L226.44 41.9L226.44 39.23L229.92 37.82L232.56 32.75L236.04 32.75L236.04 37.37L243.24 37.37L243.24 41.9L236.04 41.9L236.04 46.94Q236.04 48.8 236.79 49.55Q237.54 50.3 239.52 50.3L239.52 50.3Q240.78 50.3 241.75 50.08Q242.73 49.85 243.54 49.49L243.54 49.49L243.54 54.11Q242.64 54.44 241.17 54.71Q239.7 54.98 238.14 54.98L238.14 54.98Q235.29 54.98 233.47 54.11Q231.66 53.24 230.79 51.61Q229.92 49.97 229.92 47.78L229.92 47.78L229.92 41.9M244.47 55.31L252.87 31.19L257.43 31.19L249.03 55.31L244.47 55.31M259.53 43.13L258.39 37.37L264.63 37.37L265.65 43.49L265.65 54.5L259.53 54.5L259.53 43.13M273.69 37.1L273.69 37.1L273.69 42.32Q272.79 42.14 272 42.07Q271.2 41.99 270.54 41.99L270.54 41.99Q269.22 41.99 268.11 42.52Q267 43.04 266.33 44.24Q265.65 45.44 265.65 47.45L265.65 47.45L264.48 46.01Q264.72 44.15 265.2 42.52Q265.68 40.88 266.51 39.61Q267.33 38.33 268.56 37.6Q269.79 36.86 271.56 36.86L271.56 36.86Q272.07 36.86 272.61 36.92Q273.15 36.98 273.69 37.1M274.23 55.31L282.63 31.19L287.19 31.19L278.79 55.31L274.23 55.31" fill="#FBF7EF"><title>monty.fast/r/</title></path>
      <g data-code="1" data-x="287.58" data-y="54.5" data-size="30" data-fill="#FFD21E" data-track="-0.01" data-anchor="start" data-max="331.3"><path d="M304.56 54.5L298.32 54.5L298.32 43.55L304.56 43.55L304.56 54.5M299.43 46.85L287.76 32L294.66 32L302.82 42.38L300.03 42.38L308.16 32L315.06 32L303.42 46.79L299.43 46.85M329.43 54.98L329.43 54.98Q325.44 54.98 322.42 53.51Q319.41 52.04 317.74 49.4Q316.08 46.76 316.08 43.25L316.08 43.25Q316.08 39.74 317.74 37.1Q319.41 34.46 322.42 32.99Q325.44 31.52 329.43 31.52L329.43 31.52Q333.45 31.52 336.45 32.99Q339.45 34.46 341.13 37.1Q342.81 39.74 342.81 43.25L342.81 43.25Q342.81 46.76 341.13 49.4Q339.45 52.04 336.45 53.51Q333.45 54.98 329.43 54.98M329.43 49.43L329.43 49.43Q331.62 49.43 333.21 48.68Q334.8 47.93 335.66 46.55Q336.51 45.17 336.51 43.25L336.51 43.25Q336.51 41.33 335.66 39.95Q334.8 38.57 333.21 37.82Q331.62 37.07 329.43 37.07L329.43 37.07Q327.27 37.07 325.68 37.82Q324.09 38.57 323.22 39.95Q322.35 41.33 322.35 43.25L322.35 43.25Q322.35 45.17 323.22 46.55Q324.09 47.93 325.68 48.68Q327.27 49.43 329.43 49.43M351.63 32L351.63 44.45Q351.63 45.98 352.22 47.11Q352.8 48.23 353.96 48.83Q355.11 49.43 356.79 49.43L356.79 49.43Q358.5 49.43 359.64 48.83Q360.78 48.23 361.35 47.11Q361.92 45.98 361.92 44.45L361.92 44.45L361.92 32L368.16 32L368.16 44.75Q368.16 47.84 366.74 50.14Q365.31 52.43 362.76 53.71Q360.21 54.98 356.79 54.98L356.79 54.98Q353.4 54.98 350.84 53.71Q348.27 52.43 346.85 50.14Q345.42 47.84 345.42 44.75L345.42 44.75L345.42 32L351.63 32M376.05 46.4L376.05 41.84L384.24 41.84Q385.74 41.84 386.58 41.15Q387.42 40.46 387.42 39.23L387.42 39.23Q387.42 37.97 386.58 37.3Q385.74 36.62 384.24 36.62L384.24 36.62L375.18 36.62L377.97 33.65L377.97 54.5L371.76 54.5L371.76 32L385.11 32Q387.69 32 389.61 32.92Q391.53 33.83 392.61 35.44Q393.69 37.04 393.69 39.23L393.69 39.23Q393.69 41.36 392.61 42.98Q391.53 44.6 389.61 45.5Q387.69 46.4 385.11 46.4L385.11 46.4L376.05 46.4M387.27 54.5L379.41 43.97L386.4 43.97L394.47 54.5L387.27 54.5M393.84 59.51L393.84 55.4L410.34 55.4L410.34 59.51L393.84 59.51M429.87 45.08L436.11 45.08Q435.78 48.05 434.07 50.29Q432.36 52.52 429.59 53.75Q426.81 54.98 423.21 54.98L423.21 54.98Q419.28 54.98 416.34 53.51Q413.4 52.04 411.77 49.4Q410.13 46.76 410.13 43.25L410.13 43.25Q410.13 39.74 411.77 37.1Q413.4 34.46 416.34 32.99Q419.28 31.52 423.21 31.52L423.21 31.52Q426.81 31.52 429.59 32.75Q432.36 33.98 434.07 36.22Q435.78 38.45 436.11 41.42L436.11 41.42L429.87 41.42Q429.57 39.98 428.7 38.98Q427.83 37.97 426.44 37.43Q425.04 36.89 423.21 36.89L423.21 36.89Q421.11 36.89 419.58 37.66Q418.05 38.42 417.24 39.85Q416.43 41.27 416.43 43.25L416.43 43.25Q416.43 45.23 417.24 46.66Q418.05 48.08 419.58 48.85Q421.11 49.61 423.21 49.61L423.21 49.61Q425.04 49.61 426.44 49.1Q427.83 48.59 428.7 47.57Q429.57 46.55 429.87 45.08L429.87 45.08M451.2 54.98L451.2 54.98Q447.21 54.98 444.19 53.51Q441.18 52.04 439.51 49.4Q437.85 46.76 437.85 43.25L437.85 43.25Q437.85 39.74 439.51 37.1Q441.18 34.46 444.19 32.99Q447.21 31.52 451.2 31.52L451.2 31.52Q455.22 31.52 458.22 32.99Q461.22 34.46 462.9 37.1Q464.58 39.74 464.58 43.25L464.58 43.25Q464.58 46.76 462.9 49.4Q461.22 52.04 458.22 53.51Q455.22 54.98 451.2 54.98M451.2 49.43L451.2 49.43Q453.39 49.43 454.98 48.68Q456.57 47.93 457.42 46.55Q458.28 45.17 458.28 43.25L458.28 43.25Q458.28 41.33 457.42 39.95Q456.57 38.57 454.98 37.82Q453.39 37.07 451.2 37.07L451.2 37.07Q449.04 37.07 447.45 37.82Q445.86 38.57 444.99 39.95Q444.12 41.33 444.12 43.25L444.12 43.25Q444.12 45.17 444.99 46.55Q445.86 47.93 447.45 48.68Q449.04 49.43 451.2 49.43M467.49 32L478.71 32Q482.7 32 485.72 33.39Q488.73 34.79 490.4 37.33Q492.06 39.86 492.06 43.25L492.06 43.25Q492.06 46.64 490.4 49.18Q488.73 51.71 485.72 53.11Q482.7 54.5 478.71 54.5L478.71 54.5L467.49 54.5L467.49 32M473.67 34.61L473.67 51.89L470.7 48.98L479.19 48.98Q481.2 48.98 482.69 48.28Q484.17 47.57 484.98 46.28Q485.79 44.99 485.79 43.25L485.79 43.25Q485.79 41.48 484.98 40.21Q484.17 38.93 482.69 38.23Q481.2 37.52 479.19 37.52L479.19 37.52L470.7 37.52L473.67 34.61M497.73 41L514.2 41L514.2 45.5L497.73 45.5L497.73 41M500.49 34.22L501.96 43.25L500.49 52.28L497.97 49.46L515.19 49.46L515.19 54.5L494.28 54.5L495.99 43.25L494.28 32L515.04 32L515.04 37.04L497.97 37.04L500.49 34.22" fill="#FFD21E"><title>YOUR_CODE</title></path></g>
    </g>
<path d="M376.19 1216.3L376.19 1216.3Q374.74 1216.3 373.59 1215.87Q372.44 1215.43 371.71 1214.55Q370.98 1213.66 370.78 1212.37L370.78 1212.37L372.94 1212.03Q373.18 1213.19 374.01 1213.77Q374.84 1214.35 376.16 1214.35L376.16 1214.35Q377.61 1214.35 378.46 1213.73Q379.32 1213.12 379.32 1212.23L379.32 1212.23Q379.32 1211.49 378.79 1211.01Q378.27 1210.53 377.27 1210.3L377.27 1210.3L374.97 1209.77Q373.06 1209.31 372.12 1208.35Q371.17 1207.39 371.17 1205.91L371.17 1205.91Q371.17 1204.71 371.83 1203.8Q372.49 1202.89 373.65 1202.37Q374.81 1201.84 376.3 1201.84L376.3 1201.84Q377.73 1201.84 378.79 1202.31Q379.84 1202.78 380.48 1203.62Q381.12 1204.45 381.35 1205.56L381.35 1205.56L379.27 1205.92Q379.07 1205.06 378.36 1204.41Q377.65 1203.76 376.3 1203.76L376.3 1203.76Q375.04 1203.76 374.24 1204.35Q373.43 1204.94 373.43 1205.82L373.43 1205.82Q373.43 1206.59 374 1207.07Q374.56 1207.54 375.72 1207.81L375.72 1207.81L377.86 1208.32Q379.79 1208.78 380.71 1209.72Q381.63 1210.66 381.63 1212.12L381.63 1212.12Q381.63 1213.36 380.94 1214.31Q380.25 1215.25 379.02 1215.78Q377.79 1216.3 376.19 1216.3M383.13 1202.07L390.44 1202.07L390.44 1203.99L383.13 1203.99L383.13 1202.07M385.35 1212.66L385.35 1198.59L387.6 1198.59L387.6 1212.46Q387.6 1213.36 387.96 1213.75Q388.32 1214.15 389.2 1214.15L389.2 1214.15Q389.44 1214.15 389.78 1214.11Q390.11 1214.08 390.39 1214.04L390.39 1214.04L390.71 1215.95Q390.37 1216.04 389.94 1216.08Q389.5 1216.11 389.1 1216.11L389.1 1216.11Q387.29 1216.11 386.32 1215.22Q385.35 1214.32 385.35 1212.66L385.35 1212.66M397.36 1216.29L397.36 1216.29Q396.03 1216.29 394.94 1215.8Q393.86 1215.3 393.22 1214.35Q392.59 1213.4 392.59 1212.03L392.59 1212.03Q392.59 1210.82 393.06 1210.07Q393.53 1209.32 394.31 1208.9Q395.1 1208.47 396.07 1208.26Q397.04 1208.04 398.05 1207.91L398.05 1207.91Q399.32 1207.74 400.1 1207.65Q400.88 1207.56 401.24 1207.35Q401.6 1207.14 401.6 1206.62L401.6 1206.62L401.6 1206.53Q401.6 1205.69 401.27 1205.09Q400.93 1204.5 400.26 1204.17Q399.6 1203.84 398.63 1203.84L398.63 1203.84Q397.64 1203.84 396.92 1204.16Q396.19 1204.47 395.76 1204.97Q395.32 1205.46 395.14 1206.01L395.14 1206.01L392.94 1205.53Q393.34 1204.26 394.19 1203.45Q395.04 1202.64 396.18 1202.26Q397.32 1201.87 398.58 1201.87L398.58 1201.87Q399.44 1201.87 400.36 1202.09Q401.28 1202.3 402.07 1202.83Q402.86 1203.37 403.35 1204.31Q403.84 1205.25 403.84 1206.68L403.84 1206.68L403.84 1216L401.63 1216L401.63 1214.08L401.5 1214.08Q401.26 1214.57 400.75 1215.08Q400.24 1215.59 399.41 1215.94Q398.58 1216.29 397.36 1216.29M397.73 1214.3L397.73 1214.3Q399.01 1214.3 399.88 1213.81Q400.74 1213.32 401.17 1212.54Q401.6 1211.76 401.6 1210.88L401.6 1210.88L401.6 1209.02Q401.46 1209.17 401.04 1209.29Q400.61 1209.41 400.05 1209.51Q399.48 1209.61 398.92 1209.69Q398.35 1209.77 397.95 1209.82L397.95 1209.82Q397.13 1209.92 396.42 1210.17Q395.71 1210.41 395.28 1210.88Q394.85 1211.34 394.85 1212.14L394.85 1212.14Q394.85 1212.84 395.22 1213.32Q395.58 1213.8 396.23 1214.05Q396.88 1214.3 397.73 1214.3M409.82 1216L407.57 1216L407.57 1202.07L409.73 1202.07L409.73 1204.23L409.85 1204.23Q410.23 1203.17 411.17 1202.52Q412.11 1201.87 413.38 1201.87L413.38 1201.87Q413.65 1201.87 413.96 1201.88Q414.27 1201.9 414.45 1201.92L414.45 1201.92L414.45 1204.17Q414.35 1204.14 413.95 1204.09Q413.56 1204.03 413.1 1204.03L413.1 1204.03Q412.18 1204.03 411.43 1204.43Q410.68 1204.83 410.25 1205.56Q409.82 1206.3 409.82 1207.33L409.82 1207.33L409.82 1216M415.66 1202.07L422.97 1202.07L422.97 1203.99L415.66 1203.99L415.66 1202.07M417.88 1212.66L417.88 1198.59L420.12 1198.59L420.12 1212.46Q420.12 1213.36 420.49 1213.75Q420.85 1214.15 421.72 1214.15L421.72 1214.15Q421.97 1214.15 422.3 1214.11Q422.64 1214.08 422.92 1214.04L422.92 1214.04L423.23 1215.95Q422.89 1216.04 422.46 1216.08Q422.03 1216.11 421.62 1216.11L421.62 1216.11Q419.82 1216.11 418.85 1215.22Q417.88 1214.32 417.88 1212.66L417.88 1212.66M427.91 1216L425.66 1216L425.66 1202.07L427.91 1202.07L427.91 1216M426.79 1199.65L426.79 1199.65Q426.15 1199.65 425.7 1199.21Q425.24 1198.77 425.24 1198.15L425.24 1198.15Q425.24 1197.53 425.7 1197.09Q426.15 1196.65 426.79 1196.65L426.79 1196.65Q427.44 1196.65 427.89 1197.09Q428.35 1197.53 428.35 1198.15L428.35 1198.15Q428.35 1198.77 427.89 1199.21Q427.44 1199.65 426.79 1199.65M433.89 1207.71L433.89 1207.71L433.89 1216L431.64 1216L431.64 1202.07L433.81 1202.07L433.82 1205.45L433.4 1205.45Q434.05 1203.53 435.24 1202.7Q436.44 1201.87 438.04 1201.87L438.04 1201.87Q439.45 1201.87 440.54 1202.46Q441.63 1203.05 442.26 1204.23Q442.89 1205.41 442.89 1207.21L442.89 1207.21L442.89 1216L440.64 1216L440.64 1207.39Q440.64 1205.72 439.79 1204.81Q438.94 1203.9 437.45 1203.9L437.45 1203.9Q436.45 1203.9 435.64 1204.33Q434.83 1204.75 434.36 1205.6Q433.89 1206.45 433.89 1207.71M452.33 1221.57L452.33 1221.57Q450.77 1221.57 449.6 1221.15Q448.44 1220.72 447.67 1219.98Q446.91 1219.24 446.56 1218.29L446.56 1218.29L448.52 1217.49Q448.79 1218.01 449.25 1218.49Q449.72 1218.98 450.47 1219.29Q451.22 1219.61 452.33 1219.61L452.33 1219.61Q454.05 1219.61 455.11 1218.75Q456.18 1217.9 456.18 1216.17L456.18 1216.17L456.18 1213.59L456.03 1213.59Q455.71 1214.12 455.2 1214.66Q454.69 1215.2 453.89 1215.57Q453.08 1215.94 451.88 1215.94L451.88 1215.94Q450.16 1215.94 448.82 1215.1Q447.47 1214.27 446.7 1212.72Q445.93 1211.16 445.93 1208.99L445.93 1208.99Q445.93 1206.83 446.7 1205.23Q447.46 1203.63 448.8 1202.75Q450.15 1201.87 451.9 1201.87L451.9 1201.87Q453.11 1201.87 453.92 1202.25Q454.73 1202.63 455.25 1203.19Q455.77 1203.75 456.08 1204.28L456.08 1204.28L456.23 1204.28L456.23 1202.07L458.41 1202.07L458.41 1216.24Q458.41 1218.12 457.59 1219.3Q456.76 1220.48 455.38 1221.03Q454 1221.57 452.33 1221.57M452.23 1213.93L452.23 1213.93Q453.51 1213.93 454.41 1213.33Q455.3 1212.72 455.77 1211.61Q456.24 1210.49 456.24 1208.95L456.24 1208.95Q456.24 1207.44 455.78 1206.3Q455.32 1205.16 454.42 1204.52Q453.53 1203.88 452.23 1203.88L452.23 1203.88Q450.95 1203.88 450.05 1204.52Q449.16 1205.17 448.69 1206.31Q448.22 1207.46 448.22 1208.95L448.22 1208.95Q448.22 1210.48 448.69 1211.59Q449.16 1212.71 450.06 1213.32Q450.96 1213.93 452.23 1213.93M475.72 1216.29L475.72 1216.29Q474.52 1216.29 473.71 1215.9Q472.9 1215.5 472.38 1214.94Q471.87 1214.38 471.55 1213.85L471.55 1213.85L471.38 1213.85L471.38 1216L469.19 1216L469.19 1197.08L471.44 1197.08L471.44 1204.24L471.57 1204.24Q471.87 1203.74 472.37 1203.19Q472.87 1202.64 473.69 1202.26Q474.5 1201.87 475.7 1201.87L475.7 1201.87Q477.47 1201.87 478.81 1202.75Q480.15 1203.63 480.9 1205.25Q481.66 1206.87 481.66 1209.06L481.66 1209.06Q481.66 1211.25 480.91 1212.88Q480.16 1214.5 478.82 1215.4Q477.48 1216.29 475.72 1216.29M475.37 1214.27L475.37 1214.27Q476.66 1214.27 477.55 1213.61Q478.43 1212.94 478.9 1211.76Q479.37 1210.58 479.37 1209.04L479.37 1209.04Q479.37 1207.51 478.91 1206.35Q478.45 1205.18 477.55 1204.53Q476.66 1203.88 475.37 1203.88L475.37 1203.88Q474.09 1203.88 473.19 1204.52Q472.29 1205.17 471.83 1206.33Q471.36 1207.48 471.36 1209.04L471.36 1209.04Q471.36 1210.59 471.83 1211.77Q472.3 1212.95 473.2 1213.61Q474.1 1214.27 475.37 1214.27M490.41 1216.3L490.41 1216.3Q488.5 1216.3 487.07 1215.4Q485.63 1214.49 484.83 1212.86Q484.02 1211.24 484.02 1209.11L484.02 1209.11Q484.02 1206.94 484.83 1205.3Q485.63 1203.67 487.07 1202.76Q488.5 1201.84 490.41 1201.84L490.41 1201.84Q492.32 1201.84 493.76 1202.76Q495.2 1203.67 496 1205.3Q496.8 1206.94 496.8 1209.11L496.8 1209.11Q496.8 1211.24 496 1212.86Q495.2 1214.49 493.76 1215.4Q492.32 1216.3 490.41 1216.3M490.41 1214.29L490.41 1214.29Q491.79 1214.29 492.7 1213.59Q493.62 1212.89 494.07 1211.72Q494.53 1210.54 494.53 1209.11L494.53 1209.11Q494.53 1207.65 494.07 1206.46Q493.62 1205.27 492.7 1204.57Q491.79 1203.86 490.41 1203.86L490.41 1203.86Q489.03 1203.86 488.13 1204.57Q487.22 1205.27 486.76 1206.46Q486.31 1207.65 486.31 1209.11L486.31 1209.11Q486.31 1210.54 486.76 1211.72Q487.22 1212.89 488.13 1213.59Q489.03 1214.29 490.41 1214.29M502.1 1207.71L502.1 1207.71L502.1 1216L499.85 1216L499.85 1202.07L502.02 1202.07L502.03 1205.45L501.62 1205.45Q502.26 1203.53 503.46 1202.7Q504.65 1201.87 506.25 1201.87L506.25 1201.87Q507.66 1201.87 508.75 1202.46Q509.84 1203.05 510.47 1204.23Q511.1 1205.41 511.1 1207.21L511.1 1207.21L511.1 1216L508.85 1216L508.85 1207.39Q508.85 1205.72 508 1204.81Q507.15 1203.9 505.67 1203.9L505.67 1203.9Q504.66 1203.9 503.85 1204.33Q503.04 1204.75 502.57 1205.6Q502.1 1206.45 502.1 1207.71M519.68 1216.2L519.68 1216.2Q518.28 1216.2 517.19 1215.61Q516.09 1215.02 515.46 1213.83Q514.83 1212.64 514.83 1210.86L514.83 1210.86L514.83 1202.07L517.08 1202.07L517.08 1210.68Q517.08 1212.34 517.94 1213.26Q518.79 1214.17 520.28 1214.17L520.28 1214.17Q521.28 1214.17 522.09 1213.75Q522.89 1213.32 523.36 1212.46Q523.83 1211.61 523.83 1210.35L523.83 1210.35L523.83 1202.07L526.08 1202.07L526.08 1216L523.91 1216L523.91 1212.62L524.31 1212.62Q523.65 1214.55 522.46 1215.38Q521.26 1216.2 519.68 1216.2M534.6 1216.3L534.6 1216.3Q533.15 1216.3 532 1215.87Q530.85 1215.43 530.12 1214.55Q529.39 1213.66 529.19 1212.37L529.19 1212.37L531.35 1212.03Q531.59 1213.19 532.42 1213.77Q533.25 1214.35 534.57 1214.35L534.57 1214.35Q536.02 1214.35 536.88 1213.73Q537.73 1213.12 537.73 1212.23L537.73 1212.23Q537.73 1211.49 537.21 1211.01Q536.68 1210.53 535.68 1210.3L535.68 1210.3L533.38 1209.77Q531.48 1209.31 530.53 1208.35Q529.58 1207.39 529.58 1205.91L529.58 1205.91Q529.58 1204.71 530.24 1203.8Q530.9 1202.89 532.07 1202.37Q533.23 1201.84 534.71 1201.84L534.71 1201.84Q536.15 1201.84 537.2 1202.31Q538.25 1202.78 538.9 1203.62Q539.54 1204.45 539.77 1205.56L539.77 1205.56L537.68 1205.92Q537.48 1205.06 536.77 1204.41Q536.06 1203.76 534.71 1203.76L534.71 1203.76Q533.46 1203.76 532.65 1204.35Q531.84 1204.94 531.84 1205.82L531.84 1205.82Q531.84 1206.59 532.41 1207.07Q532.97 1207.54 534.13 1207.81L534.13 1207.81L536.27 1208.32Q538.2 1208.78 539.12 1209.72Q540.04 1210.66 540.04 1212.12L540.04 1212.12Q540.04 1213.36 539.35 1214.31Q538.66 1215.25 537.43 1215.78Q536.2 1216.3 534.6 1216.3M555.49 1216L553.25 1216L548.99 1202.07L551.36 1202.07L553.07 1208.17Q553.44 1209.46 553.83 1211Q554.23 1212.55 554.61 1214.36L554.61 1214.36L554.25 1214.36Q554.62 1212.61 555.01 1211.06Q555.39 1209.51 555.77 1208.17L555.77 1208.17L557.48 1202.07L559.81 1202.07L561.49 1208.17Q561.85 1209.49 562.23 1211.03Q562.6 1212.57 562.98 1214.36L562.98 1214.36L562.6 1214.36Q563 1212.6 563.39 1211.05Q563.78 1209.5 564.15 1208.17L564.15 1208.17L565.88 1202.07L568.25 1202.07L564 1216L561.73 1216L559.91 1209.69Q559.65 1208.73 559.39 1207.74Q559.13 1206.75 558.87 1205.72Q558.62 1204.7 558.36 1203.66L558.36 1203.66L558.88 1203.66Q558.63 1204.69 558.38 1205.72Q558.12 1206.75 557.86 1207.75Q557.6 1208.75 557.32 1209.69L557.32 1209.69L555.49 1216M573.09 1216L570.84 1216L570.84 1202.07L573.09 1202.07L573.09 1216M571.97 1199.65L571.97 1199.65Q571.34 1199.65 570.88 1199.21Q570.42 1198.77 570.42 1198.15L570.42 1198.15Q570.42 1197.53 570.88 1197.09Q571.34 1196.65 571.97 1196.65L571.97 1196.65Q572.62 1196.65 573.08 1197.09Q573.53 1197.53 573.53 1198.15L573.53 1198.15Q573.53 1198.77 573.08 1199.21Q572.62 1199.65 571.97 1199.65M575.27 1202.07L582.59 1202.07L582.59 1203.99L575.27 1203.99L575.27 1202.07M577.5 1212.66L577.5 1198.59L579.74 1198.59L579.74 1212.46Q579.74 1213.36 580.1 1213.75Q580.47 1214.15 581.34 1214.15L581.34 1214.15Q581.58 1214.15 581.92 1214.11Q582.26 1214.08 582.54 1214.04L582.54 1214.04L582.85 1215.95Q582.51 1216.04 582.08 1216.08Q581.65 1216.11 581.24 1216.11L581.24 1216.11Q579.44 1216.11 578.47 1215.22Q577.5 1214.32 577.5 1212.66L577.5 1212.66M587.52 1207.71L587.52 1207.71L587.52 1216L585.28 1216L585.28 1197.08L587.52 1197.08L587.52 1205.45L587.04 1205.45Q587.69 1203.53 588.88 1202.7Q590.08 1201.87 591.68 1201.87L591.68 1201.87Q593.09 1201.87 594.18 1202.46Q595.28 1203.05 595.9 1204.23Q596.53 1205.41 596.53 1207.21L596.53 1207.21L596.53 1216L594.28 1216L594.28 1207.39Q594.28 1205.72 593.43 1204.81Q592.58 1203.9 591.09 1203.9L591.09 1203.9Q590.09 1203.9 589.28 1204.33Q588.46 1204.75 587.99 1205.6Q587.52 1206.45 587.52 1207.71M605.68 1202.07L612.99 1202.07L612.99 1203.99L605.68 1203.99L605.68 1202.07M607.9 1212.66L607.9 1198.59L610.15 1198.59L610.15 1212.46Q610.15 1213.36 610.51 1213.75Q610.87 1214.15 611.75 1214.15L611.75 1214.15Q611.99 1214.15 612.33 1214.11Q612.66 1214.08 612.94 1214.04L612.94 1214.04L613.26 1215.95Q612.92 1216.04 612.48 1216.08Q612.05 1216.11 611.65 1216.11L611.65 1216.11Q609.84 1216.11 608.87 1215.22Q607.9 1214.32 607.9 1212.66L607.9 1212.66M617.93 1207.71L617.93 1207.71L617.93 1216L615.68 1216L615.68 1197.08L617.93 1197.08L617.93 1205.45L617.45 1205.45Q618.1 1203.53 619.29 1202.7Q620.48 1201.87 622.08 1201.87L622.08 1201.87Q623.49 1201.87 624.59 1202.46Q625.69 1203.05 626.31 1204.23Q626.93 1205.41 626.93 1207.21L626.93 1207.21L626.93 1216L624.68 1216L624.68 1207.39Q624.68 1205.72 623.83 1204.81Q622.98 1203.9 621.5 1203.9L621.5 1203.9Q620.49 1203.9 619.68 1204.33Q618.87 1204.75 618.4 1205.6Q617.93 1206.45 617.93 1207.71M636.5 1216.3L636.5 1216.3Q634.47 1216.3 633.02 1215.4Q631.56 1214.49 630.78 1212.87Q629.99 1211.25 629.99 1209.12L629.99 1209.12Q629.99 1206.99 630.78 1205.35Q631.56 1203.71 632.98 1202.78Q634.4 1201.84 636.27 1201.84L636.27 1201.84Q637.49 1201.84 638.6 1202.26Q639.7 1202.68 640.57 1203.55Q641.43 1204.42 641.93 1205.75Q642.43 1207.09 642.43 1208.93L642.43 1208.93L642.43 1209.75L631.41 1209.75L631.41 1207.85L641.2 1207.85L640.19 1208.55Q640.19 1207.15 639.73 1206.09Q639.27 1205.03 638.4 1204.44Q637.53 1203.85 636.27 1203.85L636.27 1203.85Q635.02 1203.85 634.12 1204.45Q633.22 1205.06 632.73 1206.07Q632.25 1207.08 632.25 1208.29L632.25 1208.29L632.25 1209.46Q632.25 1210.97 632.77 1212.06Q633.29 1213.14 634.25 1213.72Q635.21 1214.3 636.52 1214.3L636.52 1214.3Q637.39 1214.3 638.09 1214.04Q638.79 1213.78 639.28 1213.28Q639.77 1212.78 640.01 1212.05L640.01 1212.05L642.2 1212.46Q641.9 1213.6 641.11 1214.46Q640.31 1215.33 639.14 1215.82Q637.96 1216.3 636.5 1216.3M658.17 1216.3L658.17 1216.3Q656.27 1216.3 654.84 1215.4Q653.4 1214.49 652.59 1212.86Q651.79 1211.24 651.79 1209.11L651.79 1209.11Q651.79 1206.94 652.59 1205.3Q653.4 1203.67 654.84 1202.76Q656.27 1201.84 658.17 1201.84L658.17 1201.84Q659.24 1201.84 660.17 1202.14Q661.11 1202.44 661.86 1202.98Q662.6 1203.52 663.13 1204.29Q663.65 1205.07 663.89 1206.02L663.89 1206.02L661.7 1206.44Q661.56 1205.87 661.26 1205.4Q660.95 1204.93 660.5 1204.59Q660.05 1204.24 659.47 1204.05Q658.89 1203.86 658.17 1203.86L658.17 1203.86Q656.8 1203.86 655.9 1204.57Q654.99 1205.27 654.53 1206.46Q654.07 1207.65 654.07 1209.11L654.07 1209.11Q654.07 1210.54 654.53 1211.72Q654.99 1212.89 655.9 1213.59Q656.8 1214.29 658.17 1214.29L658.17 1214.29Q658.9 1214.29 659.49 1214.1Q660.08 1213.91 660.52 1213.56Q660.97 1213.21 661.27 1212.72Q661.58 1212.23 661.73 1211.65L661.73 1211.65L663.93 1212.05Q663.7 1213.02 663.17 1213.8Q662.64 1214.58 661.89 1215.14Q661.13 1215.71 660.19 1216.01Q659.24 1216.3 658.17 1216.3M672.61 1216.3L672.61 1216.3Q670.7 1216.3 669.27 1215.4Q667.84 1214.49 667.03 1212.86Q666.22 1211.24 666.22 1209.11L666.22 1209.11Q666.22 1206.94 667.03 1205.3Q667.84 1203.67 669.27 1202.76Q670.7 1201.84 672.61 1201.84L672.61 1201.84Q674.53 1201.84 675.97 1202.76Q677.41 1203.67 678.21 1205.3Q679.01 1206.94 679.01 1209.11L679.01 1209.11Q679.01 1211.24 678.21 1212.86Q677.41 1214.49 675.97 1215.4Q674.53 1216.3 672.61 1216.3M672.61 1214.29L672.61 1214.29Q673.99 1214.29 674.91 1213.59Q675.82 1212.89 676.28 1211.72Q676.73 1210.54 676.73 1209.11L676.73 1209.11Q676.73 1207.65 676.28 1206.46Q675.82 1205.27 674.91 1204.57Q673.99 1203.86 672.61 1203.86L672.61 1203.86Q671.24 1203.86 670.33 1204.57Q669.42 1205.27 668.97 1206.46Q668.51 1207.65 668.51 1209.11L668.51 1209.11Q668.51 1210.54 668.97 1211.72Q669.42 1212.89 670.33 1213.59Q671.24 1214.29 672.61 1214.29M687.31 1216.29L687.31 1216.29Q685.56 1216.29 684.21 1215.4Q682.87 1214.5 682.12 1212.88Q681.37 1211.25 681.37 1209.06L681.37 1209.06Q681.37 1206.87 682.12 1205.25Q682.88 1203.63 684.23 1202.75Q685.57 1201.87 687.32 1201.87L687.32 1201.87Q688.54 1201.87 689.35 1202.26Q690.15 1202.64 690.66 1203.19Q691.17 1203.74 691.46 1204.24L691.46 1204.24L691.59 1204.24L691.59 1197.08L693.84 1197.08L693.84 1216L691.65 1216L691.65 1213.85L691.47 1213.85Q691.17 1214.38 690.65 1214.94Q690.13 1215.5 689.32 1215.9Q688.52 1216.29 687.31 1216.29M687.65 1214.27L687.65 1214.27Q688.94 1214.27 689.83 1213.61Q690.73 1212.95 691.19 1211.77Q691.66 1210.59 691.66 1209.04L691.66 1209.04Q691.66 1207.48 691.2 1206.33Q690.74 1205.17 689.84 1204.52Q688.94 1203.88 687.65 1203.88L687.65 1203.88Q686.37 1203.88 685.48 1204.53Q684.58 1205.18 684.12 1206.35Q683.65 1207.51 683.65 1209.04L683.65 1209.04Q683.65 1210.58 684.12 1211.76Q684.59 1212.94 685.49 1213.61Q686.38 1214.27 687.65 1214.27M703.4 1216.3L703.4 1216.3Q701.36 1216.3 699.91 1215.4Q698.46 1214.49 697.67 1212.87Q696.88 1211.25 696.88 1209.12L696.88 1209.12Q696.88 1206.99 697.67 1205.35Q698.46 1203.71 699.87 1202.78Q701.29 1201.84 703.17 1201.84L703.17 1201.84Q704.39 1201.84 705.49 1202.26Q706.59 1202.68 707.46 1203.55Q708.32 1204.42 708.82 1205.75Q709.32 1207.09 709.32 1208.93L709.32 1208.93L709.32 1209.75L698.3 1209.75L698.3 1207.85L708.09 1207.85L707.08 1208.55Q707.08 1207.15 706.62 1206.09Q706.16 1205.03 705.29 1204.44Q704.42 1203.85 703.17 1203.85L703.17 1203.85Q701.91 1203.85 701.01 1204.45Q700.11 1205.06 699.62 1206.07Q699.14 1207.08 699.14 1208.29L699.14 1208.29L699.14 1209.46Q699.14 1210.97 699.66 1212.06Q700.18 1213.14 701.14 1213.72Q702.1 1214.3 703.41 1214.3L703.41 1214.3Q704.28 1214.3 704.98 1214.04Q705.68 1213.78 706.17 1213.28Q706.66 1212.78 706.9 1212.05L706.9 1212.05L709.1 1212.46Q708.79 1213.6 708 1214.46Q707.2 1215.33 706.03 1215.82Q704.85 1216.3 703.4 1216.3" fill="#9A958C"><title>starting bonus with the code</title></path>
<g transform="translate(942,1240) rotate(18) scale(0.9333333333333333)">
    <path d="M2 4 C10 30 34 40 54 34 C40 44 14 42 4 20 Z" fill="#FFD21E" stroke="#161512" stroke-width="3" stroke-linejoin="round"/>
  </g>
</svg>
