<svg width="1080" height="1350" viewBox="0 0 1080 1350" xmlns="http://www.w3.org/2000/svg" role="img" aria-label="Monty — Наведи камеру">
<defs>
  <filter id="grain" x="0" y="0" width="100%" height="100%">
    <feTurbulence type="fractalNoise" baseFrequency="0.9" numOctaves="3" seed="7" result="n"/>
    <feColorMatrix in="n" type="saturate" values="0"/>
  </filter>
  <filter id="drop" x="-40%" y="-40%" width="180%" height="200%">
    <feDropShadow dx="0" dy="10" stdDeviation="16" flood-color="#000000" flood-opacity="0.45"/>
  </filter>
  <filter id="dropSoft" x="-40%" y="-40%" width="180%" height="200%">
    <feDropShadow dx="0" dy="6" stdDeviation="9" flood-color="#000000" flood-opacity="0.22"/>
  </filter>
  <linearGradient id="screenGrad" x1="0" y1="0" x2="1" y2="1">
    <stop offset="0" stop-color="#2A1E5C"/><stop offset="0.5" stop-color="#161512"/><stop offset="1" stop-color="#0B0A09"/>
  </linearGradient>
  <linearGradient id="neonGrad" x1="0" y1="0" x2="1" y2="0">
    <stop offset="0" stop-color="#6C4DF6"/><stop offset="1" stop-color="#FFD21E"/>
  </linearGradient>
  <radialGradient id="gBanana">
    <stop offset="0" stop-color="#FFD21E" stop-opacity="0.85"/>
    <stop offset="0.55" stop-color="#FFD21E" stop-opacity="0.22"/>
    <stop offset="1" stop-color="#FFD21E" stop-opacity="0"/>
  </radialGradient>
  <radialGradient id="gViolet">
    <stop offset="0" stop-color="#6C4DF6" stop-opacity="0.85"/>
    <stop offset="0.55" stop-color="#6C4DF6" stop-opacity="0.22"/>
    <stop offset="1" stop-color="#6C4DF6" stop-opacity="0"/>
  </radialGradient></defs>
<rect width="1080" height="1350" fill="#0B0A09"/><circle cx="540" cy="700" r="520" fill="url(#gBanana)" opacity="0.4"/><circle cx="200" cy="120" r="360" fill="url(#gViolet)" opacity="0.4"/><rect width="1080" height="1350" filter="url(#grain)" opacity="0.055"/>
<g transform="translate(72,66) scale(0.359375)">
    <circle cx="30" cy="52" r="19" fill="#FBF7EF"/><circle cx="98" cy="52" r="19" fill="#FBF7EF"/>
    <circle cx="30" cy="52" r="9" fill="#FFD21E"/><circle cx="98" cy="52" r="9" fill="#FFD21E"/>
    <rect x="28" y="26" width="72" height="80" rx="36" fill="#FBF7EF"/>
    <circle cx="64" cy="70" r="30" fill="#161512"/>
    <path d="M57 55 L57 85 L84 70 Z" fill="#FFD21E" stroke="#FFD21E" stroke-width="5" stroke-linejoin="round"/>
  </g><path d="M133.11 102.34L128.13 102.34L128.13 82.72L133.03 82.72L133.03 84.85L133.75 84.85Q134.26 83.87 135.45 83.13Q136.63 82.4 138.57 82.4L138.57 82.4Q140.67 82.4 141.94 83.21Q143.2 84.02 143.87 85.33L143.87 85.33L144.59 85.33Q145.26 84.06 146.49 83.23Q147.71 82.4 149.97 82.4L149.97 82.4Q151.79 82.4 153.27 83.17Q154.75 83.94 155.64 85.51Q156.53 87.07 156.53 89.44L156.53 89.44L156.53 102.34L151.55 102.34L151.55 89.8Q151.55 88.18 150.72 87.37Q149.89 86.56 148.38 86.56L148.38 86.56Q146.68 86.56 145.75 87.64Q144.82 88.73 144.82 90.75L144.82 90.75L144.82 102.34L139.84 102.34L139.84 89.8Q139.84 88.18 139.01 87.37Q138.18 86.56 136.67 86.56L136.67 86.56Q134.97 86.56 134.04 87.64Q133.11 88.73 133.11 90.75L133.11 90.75L133.11 102.34M170.06 102.89L170.06 102.89Q167.14 102.89 164.8 101.71Q162.47 100.52 161.12 98.27Q159.78 96.01 159.78 92.85L159.78 92.85L159.78 92.21Q159.78 89.05 161.12 86.79Q162.47 84.54 164.8 83.35Q167.14 82.16 170.06 82.16L170.06 82.16Q172.99 82.16 175.32 83.35Q177.66 84.54 179 86.79Q180.35 89.05 180.35 92.21L180.35 92.21L180.35 92.85Q180.35 96.01 179 98.27Q177.66 100.52 175.32 101.71Q172.99 102.89 170.06 102.89M170.06 98.46L170.06 98.46Q172.36 98.46 173.86 96.98Q175.36 95.5 175.36 92.73L175.36 92.73L175.36 92.33Q175.36 89.56 173.88 88.08Q172.4 86.6 170.06 86.6L170.06 86.6Q167.77 86.6 166.27 88.08Q164.76 89.56 164.76 92.33L164.76 92.33L164.76 92.73Q164.76 95.5 166.27 96.98Q167.77 98.46 170.06 98.46M188.74 102.34L183.75 102.34L183.75 82.72L188.66 82.72L188.66 85.29L189.37 85.29Q189.84 84.26 191.15 83.33Q192.45 82.4 195.1 82.4L195.1 82.4Q197.4 82.4 199.12 83.45Q200.84 84.5 201.79 86.34Q202.74 88.18 202.74 90.63L202.74 90.63L202.74 102.34L197.75 102.34L197.75 91.03Q197.75 88.81 196.67 87.7Q195.58 86.6 193.56 86.6L193.56 86.6Q191.27 86.6 190 88.12Q188.74 89.64 188.74 92.37L188.74 92.37L188.74 102.34M219.43 102.34L213.9 102.34Q211.96 102.34 210.75 101.13Q209.54 99.93 209.54 97.91L209.54 97.91L209.54 86.83L204.64 86.83L204.64 82.72L209.54 82.72L209.54 76.63L214.53 76.63L214.53 82.72L219.91 82.72L219.91 86.83L214.53 86.83L214.53 97.04Q214.53 98.23 215.64 98.23L215.64 98.23L219.43 98.23L219.43 102.34M237.71 110.25L225.37 110.25L225.37 105.9L236.05 105.9Q237.16 105.9 237.16 104.71L237.16 104.71L237.16 99.77L236.44 99.77Q236.13 100.44 235.46 101.11Q234.78 101.79 233.64 102.22Q232.49 102.66 230.71 102.66L230.71 102.66Q228.41 102.66 226.69 101.61Q224.97 100.56 224.02 98.7Q223.07 96.84 223.07 94.43L223.07 94.43L223.07 82.72L228.06 82.72L228.06 94.03Q228.06 96.25 229.15 97.36Q230.23 98.46 232.25 98.46L232.25 98.46Q234.55 98.46 235.81 96.94Q237.08 95.42 237.08 92.69L237.08 92.69L237.08 82.72L242.06 82.72L242.06 105.82Q242.06 107.84 240.88 109.05Q239.69 110.25 237.71 110.25L237.71 110.25" fill="#FBF7EF"><title>monty</title></path>
<path d="M235.58 268L235.58 221.5L250.03 221.5L250.03 268L235.58 268M271.79 268L271.79 221.5L286.23 221.5L286.23 268L271.79 268M243.7 250.7L243.7 237.93L277.62 237.93L277.62 250.7L243.7 250.7M338.07 268L323.31 268L321.64 255.35L323.37 250.27L321.64 245.25L323.31 232.47L338.07 232.47L335.71 250.21L338.07 268M326.47 250.27L326.47 250.27Q325.73 255.91 323.22 260.16Q320.71 264.4 316.77 266.73Q312.83 269.05 307.75 269.05L307.75 269.05Q302.6 269.05 298.63 266.7Q294.67 264.34 292.46 260.1Q290.26 255.85 290.26 250.27L290.26 250.27Q290.26 244.56 292.46 240.32Q294.67 236.07 298.63 233.75Q302.6 231.42 307.75 231.42L307.75 231.42Q312.83 231.42 316.77 233.71Q320.71 236.01 323.25 240.26Q325.79 244.5 326.47 250.27M304.59 250.27L304.59 250.27Q304.59 252.62 305.55 254.42Q306.51 256.22 308.24 257.27Q309.98 258.33 312.21 258.33L312.21 258.33Q314.51 258.33 316.61 257.27Q318.72 256.22 320.33 254.42Q321.95 252.62 322.69 250.27L322.69 250.27Q321.95 247.91 320.33 246.08Q318.72 244.25 316.61 243.2Q314.51 242.15 312.21 242.15L312.21 242.15Q309.98 242.15 308.24 243.2Q306.51 244.25 305.55 246.08Q304.59 247.91 304.59 250.27M371.67 268L340.92 268L343.21 250.21L340.92 232.47L370.86 232.47Q376.01 232.47 379.11 234.86Q382.21 237.25 382.21 241.34L382.21 241.34Q382.21 245.18 379.08 247.6Q375.95 250.02 370.43 250.58L370.43 250.58L371.3 248.41Q377.68 248.72 381.03 251.14Q384.38 253.55 384.38 257.83L384.38 257.83Q384.38 262.48 380.91 265.24Q377.44 268 371.67 268L371.67 268M356.67 250.21L354.56 265.15L349.1 259.38L366.71 259.38Q368.38 259.38 369.25 258.61Q370.12 257.83 370.12 256.47L370.12 256.47Q370.12 255.1 369.19 254.3Q368.26 253.49 366.4 253.49L366.4 253.49L351.83 253.49L351.83 246.49L364.85 246.49Q366.4 246.49 367.21 245.74Q368.01 245 368.01 243.76L368.01 243.76Q368.01 242.52 367.24 241.81Q366.46 241.09 364.97 241.09L364.97 241.09L349.16 241.09L354.56 235.33L356.67 250.21M408.62 269.05L408.62 269.05Q402.05 269.05 396.9 266.7Q391.76 264.34 388.78 260.06Q385.81 255.79 385.81 250.08L385.81 250.08Q385.81 244.5 388.69 240.29Q391.57 236.07 396.56 233.75Q401.55 231.42 407.75 231.42L407.75 231.42Q414.26 231.42 418.85 234.18Q423.44 236.94 425.89 242.05Q428.34 247.17 428.34 254.11L428.34 254.11L397.4 254.11L397.4 245.99L420.15 245.99L416 248.78Q415.75 246.36 414.76 244.66Q413.77 242.95 412.13 242.08Q410.48 241.22 408.25 241.22L408.25 241.22Q405.71 241.22 403.91 242.21Q402.11 243.2 401.15 244.97Q400.19 246.73 400.19 248.97L400.19 248.97Q400.19 252.13 401.59 254.3Q402.98 256.47 405.83 257.62Q408.68 258.76 412.9 258.76L412.9 258.76Q416.74 258.76 420.53 257.83Q424.31 256.9 427.41 255.1L427.41 255.1L427.41 263.91Q423.63 266.39 418.95 267.72Q414.26 269.05 408.62 269.05M471.06 257.46L483.58 257.46L483.58 276.37L471.37 276.37L471.37 268L441.79 268L441.79 276.37L429.58 276.37L429.58 257.46L440.8 257.46L443.16 257.71L468.89 257.71L471.06 257.46M436.83 232.47L436.83 232.47L477.07 232.47L477.07 265.58L463 265.58L463 236.19L469.51 242.7L443.65 242.7L448.8 237.43Q449.85 239.98 450.04 242.12Q450.22 244.25 450.22 246.05L450.22 246.05Q450.22 254.48 447.19 259.07Q444.15 263.66 438.57 263.66L438.57 263.66L432.8 258.82Q437.51 255.54 437.51 243.2L437.51 243.2Q437.51 240.78 437.33 238.09Q437.14 235.39 436.83 232.47M504.23 268L486.56 268L486.56 232.47L500.57 232.47L500.57 260.13L497.78 259.2L514.52 232.47L532.68 232.47L532.68 268L518.73 268L518.73 239.42L521.46 240.41L504.23 268M562.94 268L550.42 268L550.42 232.47L564.61 232.47L564.61 257.09L560.52 255.66L579.37 232.47L594.13 232.47L562.94 268M595.06 268L579.18 268L569.33 250.76L580.18 243.51L595.06 268M642.24 268L627.48 268L625.81 255.35L627.54 250.27L625.81 245.25L627.48 232.47L642.24 232.47L639.88 250.21L642.24 268M630.64 250.27L630.64 250.27Q629.9 255.91 627.39 260.16Q624.88 264.4 620.94 266.73Q617 269.05 611.92 269.05L611.92 269.05Q606.77 269.05 602.81 266.7Q598.84 264.34 596.64 260.1Q594.44 255.85 594.44 250.27L594.44 250.27Q594.44 244.56 596.64 240.32Q598.84 236.07 602.81 233.75Q606.77 231.42 611.92 231.42L611.92 231.42Q617 231.42 620.94 233.71Q624.88 236.01 627.42 240.26Q629.96 244.5 630.64 250.27M608.76 250.27L608.76 250.27Q608.76 252.62 609.72 254.42Q610.68 256.22 612.42 257.27Q614.15 258.33 616.38 258.33L616.38 258.33Q618.68 258.33 620.79 257.27Q622.89 256.22 624.51 254.42Q626.12 252.62 626.86 250.27L626.86 250.27Q626.12 247.91 624.51 246.08Q622.89 244.25 620.79 243.2Q618.68 242.15 616.38 242.15L616.38 242.15Q614.15 242.15 612.42 243.2Q610.68 244.25 609.72 246.08Q608.76 247.91 608.76 250.27M659.29 268L645.96 268L645.96 232.47L667.35 232.47L677.02 260.06L673.42 260.06L682.91 232.47L704.3 232.47L704.3 268L690.97 268L690.97 237.93L693.08 237.93L681.55 268L668.77 268L657.24 238.05L659.29 237.99L659.29 268M730.15 269.05L730.15 269.05Q723.58 269.05 718.44 266.7Q713.29 264.34 710.31 260.06Q707.34 255.79 707.34 250.08L707.34 250.08Q707.34 244.5 710.22 240.29Q713.1 236.07 718.1 233.75Q723.09 231.42 729.29 231.42L729.29 231.42Q735.8 231.42 740.38 234.18Q744.97 236.94 747.42 242.05Q749.87 247.17 749.87 254.11L749.87 254.11L718.93 254.11L718.93 245.99L741.69 245.99L737.53 248.78Q737.28 246.36 736.29 244.66Q735.3 242.95 733.66 242.08Q732.01 241.22 729.78 241.22L729.78 241.22Q727.24 241.22 725.44 242.21Q723.64 243.2 722.68 244.97Q721.72 246.73 721.72 248.97L721.72 248.97Q721.72 252.13 723.12 254.3Q724.51 256.47 727.36 257.62Q730.22 258.76 734.43 258.76L734.43 258.76Q738.28 258.76 742.06 257.83Q745.84 256.9 748.94 255.1L748.94 255.1L748.94 263.91Q745.16 266.39 740.48 267.72Q735.8 269.05 730.15 269.05M753.03 278.23L753.03 232.47L767.23 232.47L767.23 241.96L766.67 243.57L766.67 254.42L767.23 257.58L767.23 278.23L753.03 278.23M762.89 250.27L762.89 250.27Q763.63 244.5 766.15 240.26Q768.66 236.01 772.62 233.71Q776.59 231.42 781.61 231.42L781.61 231.42Q786.82 231.42 790.76 233.75Q794.7 236.07 796.9 240.32Q799.1 244.56 799.1 250.27L799.1 250.27Q799.1 255.85 796.9 260.1Q794.7 264.34 790.76 266.7Q786.82 269.05 781.61 269.05L781.61 269.05Q776.53 269.05 772.59 266.73Q768.66 264.4 766.18 260.16Q763.7 255.91 762.89 250.27M784.78 250.27L784.78 250.27Q784.78 247.91 783.82 246.08Q782.85 244.25 781.12 243.2Q779.38 242.15 777.15 242.15L777.15 242.15Q774.86 242.15 772.75 243.2Q770.64 244.25 769.06 246.08Q767.48 247.91 766.73 250.27L766.73 250.27Q767.48 252.62 769.06 254.42Q770.64 256.22 772.75 257.27Q774.86 258.33 777.15 258.33L777.15 258.33Q779.38 258.33 781.12 257.27Q782.85 256.22 783.82 254.42Q784.78 252.62 784.78 250.27M814.97 279.28L814.97 279.28Q810.75 279.28 807.56 278.26Q804.37 277.24 801.27 275.01L801.27 275.01L801.27 265.33Q804.37 267.32 807.03 268.19Q809.7 269.05 812.86 269.05L812.86 269.05Q815.47 269.05 817.42 267.94Q819.37 266.82 820.67 263.78L820.67 263.78L833.51 232.47L848.57 232.47L831.96 268.12Q830.04 272.28 827.28 274.76Q824.52 277.24 821.36 278.26Q818.19 279.28 814.97 279.28M827.8 263.97L814.16 263.97L799.53 232.47L815.16 232.47L827.8 263.97" fill="#FBF7EF"><title>Наведи камеру</title></path>
<path d="M220.82 318.29L220.82 318.29Q218.18 318.29 216.13 317Q214.07 315.7 212.89 313.35Q211.7 311 211.7 307.83L211.7 307.83Q211.7 304.64 212.89 302.29Q214.07 299.94 216.13 298.64Q218.18 297.34 220.82 297.34L220.82 297.34Q223.48 297.34 225.53 298.64Q227.58 299.94 228.75 302.29Q229.93 304.64 229.93 307.83L229.93 307.83Q229.93 311 228.75 313.35Q227.58 315.7 225.53 317Q223.48 318.29 220.82 318.29M220.82 315.92L220.82 315.92Q222.66 315.92 224.15 314.99Q225.65 314.06 226.54 312.25Q227.43 310.44 227.43 307.83L227.43 307.83Q227.43 305.19 226.54 303.38Q225.65 301.57 224.15 300.64Q222.66 299.71 220.82 299.71L220.82 299.71Q218.99 299.71 217.49 300.64Q216 301.58 215.11 303.39Q214.22 305.2 214.22 307.83L214.22 307.83Q214.22 310.44 215.11 312.24Q216 314.05 217.49 314.99Q218.99 315.92 220.82 315.92M239.14 318L236.74 318L236.74 305.16L231.69 305.16L231.69 303L244.16 303L244.16 305.16L239.14 305.16L239.14 318M266.2 303L266.2 318L263.77 318L263.77 307.06L263.64 307.06L256.34 318L254 318L254 303L256.42 303L256.42 313.97L256.56 313.97L263.88 303L266.2 303M271.09 322.39L268.67 322.39L268.67 315.76L269.93 315.76Q270.4 315.28 270.75 314.72Q271.09 314.16 271.34 313.39Q271.59 312.63 271.76 311.53Q271.94 310.43 272.08 308.87L272.08 308.87L272.58 303L282.4 303L282.4 315.76L284.73 315.76L284.73 322.39L282.32 322.39L282.32 318L271.09 318L271.09 322.39M272.69 315.76L272.69 315.76L280 315.76L280 305.24L274.79 305.24L274.44 308.87Q274.23 311.23 273.85 312.97Q273.47 314.71 272.69 315.76M293.11 318.33L293.11 318.33Q290.92 318.33 289.35 317.35Q287.79 316.37 286.94 314.63Q286.09 312.89 286.09 310.59L286.09 310.59Q286.09 308.29 286.94 306.53Q287.79 304.77 289.31 303.76Q290.84 302.76 292.86 302.76L292.86 302.76Q294.17 302.76 295.36 303.21Q296.55 303.66 297.48 304.59Q298.41 305.53 298.95 306.97Q299.49 308.4 299.49 310.38L299.49 310.38L299.49 311.27L287.62 311.27L287.62 309.22L298.17 309.22L297.07 309.97Q297.07 308.47 296.58 307.33Q296.09 306.19 295.15 305.55Q294.21 304.92 292.86 304.92L292.86 304.92Q291.51 304.92 290.54 305.57Q289.57 306.21 289.05 307.3Q288.53 308.39 288.53 309.7L288.53 309.7L288.53 310.96Q288.53 312.59 289.09 313.75Q289.65 314.92 290.68 315.55Q291.71 316.17 293.12 316.17L293.12 316.17Q294.06 316.17 294.82 315.89Q295.57 315.61 296.09 315.07Q296.62 314.53 296.88 313.75L296.88 313.75L299.25 314.19Q298.92 315.42 298.06 316.35Q297.21 317.28 295.94 317.8Q294.68 318.33 293.11 318.33M314.91 303L314.91 318L312.48 318L312.48 307.06L312.36 307.06L305.06 318L302.72 318L302.72 303L305.14 303L305.14 313.97L305.27 313.97L312.59 303L314.91 303M327.4 322.39L324.98 322.39L324.98 315.76L326.23 315.76Q326.7 315.28 327.05 314.72Q327.4 314.16 327.64 313.39Q327.89 312.63 328.07 311.53Q328.24 310.43 328.38 308.87L328.38 308.87L328.89 303L338.7 303L338.7 315.76L341.03 315.76L341.03 322.39L338.62 322.39L338.62 318L327.4 318L327.4 322.39M329 315.76L329 315.76L336.3 315.76L336.3 305.24L331.09 305.24L330.75 308.87Q330.53 311.23 330.15 312.97Q329.77 314.71 329 315.76M349.27 318.33L349.27 318.33Q347.22 318.33 345.67 317.35Q344.13 316.37 343.26 314.62Q342.39 312.87 342.39 310.58L342.39 310.58Q342.39 308.24 343.26 306.48Q344.13 304.72 345.67 303.74Q347.22 302.76 349.27 302.76L349.27 302.76Q351.33 302.76 352.89 303.74Q354.44 304.72 355.3 306.48Q356.16 308.24 356.16 310.58L356.16 310.58Q356.16 312.87 355.3 314.62Q354.44 316.37 352.89 317.35Q351.33 318.33 349.27 318.33M349.27 316.15L349.27 316.15Q350.76 316.15 351.75 315.4Q352.73 314.65 353.22 313.39Q353.71 312.12 353.71 310.58L353.71 310.58Q353.71 309 353.22 307.73Q352.73 306.45 351.75 305.69Q350.76 304.93 349.27 304.93L349.27 304.93Q347.79 304.93 346.82 305.69Q345.84 306.45 345.35 307.73Q344.85 309 344.85 310.58L344.85 310.58Q344.85 312.12 345.35 313.39Q345.84 314.65 346.82 315.4Q347.79 316.15 349.27 316.15M369.45 323.71L367.03 323.71L367.03 303L369.38 303L369.38 305.34L369.57 305.34Q369.9 304.79 370.45 304.21Q371 303.62 371.87 303.2Q372.75 302.78 374.04 302.78L374.04 302.78Q375.94 302.78 377.39 303.73Q378.83 304.68 379.64 306.43Q380.46 308.17 380.46 310.52L380.46 310.52Q380.46 312.89 379.65 314.64Q378.84 316.39 377.4 317.35Q375.96 318.31 374.06 318.31L374.06 318.31Q372.77 318.31 371.9 317.89Q371.04 317.47 370.48 316.86Q369.93 316.25 369.59 315.69L369.59 315.69L369.45 315.69L369.45 323.71M373.69 316.14L373.69 316.14Q375.07 316.14 376.03 315.42Q376.98 314.71 377.49 313.43Q378 312.16 378 310.51L378 310.51Q378 308.85 377.5 307.6Q377 306.35 376.03 305.65Q375.07 304.94 373.69 304.94L373.69 304.94Q372.31 304.94 371.34 305.64Q370.37 306.34 369.87 307.58Q369.37 308.83 369.37 310.51L369.37 310.51Q369.37 312.18 369.87 313.45Q370.38 314.72 371.35 315.43Q372.32 316.14 373.69 316.14M389.88 318.33L389.88 318.33Q387.83 318.33 386.28 317.35Q384.74 316.37 383.87 314.62Q383 312.87 383 310.58L383 310.58Q383 308.24 383.87 306.48Q384.74 304.72 386.28 303.74Q387.83 302.76 389.88 302.76L389.88 302.76Q391.94 302.76 393.49 303.74Q395.04 304.72 395.91 306.48Q396.77 308.24 396.77 310.58L396.77 310.58Q396.77 312.87 395.91 314.62Q395.04 316.37 393.49 317.35Q391.94 318.33 389.88 318.33M389.88 316.15L389.88 316.15Q391.37 316.15 392.35 315.4Q393.33 314.65 393.83 313.39Q394.32 312.12 394.32 310.58L394.32 310.58Q394.32 309 393.83 307.73Q393.33 306.45 392.35 305.69Q391.37 304.93 389.88 304.93L389.88 304.93Q388.4 304.93 387.42 305.69Q386.44 306.45 385.95 307.73Q385.46 309 385.46 310.58L385.46 310.58Q385.46 312.12 385.95 313.39Q386.44 314.65 387.42 315.4Q388.4 316.15 389.88 316.15M399.1 318L398.28 318L398.28 315.76L398.83 315.76Q399.51 315.76 399.97 315.51Q400.42 315.27 400.7 314.62Q400.99 313.97 401.15 312.77Q401.31 311.57 401.39 309.65L401.39 309.65L401.66 303L411.93 303L411.93 318L409.5 318L409.5 305.24L403.96 305.24L403.73 310.51Q403.6 313.02 403.17 314.69Q402.73 316.36 401.76 317.18Q400.8 318 399.1 318L399.1 318M428.14 303L428.14 318L425.71 318L425.71 307.06L425.59 307.06L418.29 318L415.95 318L415.95 303L418.37 303L418.37 313.97L418.5 313.97L425.82 303L428.14 303M434.58 318L432.16 318L432.16 303L434.58 303L434.58 309.48L436.13 309.48L441.6 303L444.66 303L438.55 310.25L444.74 318L441.68 318L436.72 311.72L434.58 311.72L434.58 318M451.32 318.31L451.32 318.31Q449.88 318.31 448.71 317.78Q447.54 317.25 446.86 316.22Q446.18 315.2 446.18 313.72L446.18 313.72Q446.18 312.42 446.68 311.62Q447.19 310.81 448.04 310.35Q448.88 309.89 449.93 309.66Q450.98 309.43 452.06 309.29L452.06 309.29Q453.42 309.1 454.26 309Q455.1 308.91 455.49 308.68Q455.88 308.46 455.88 307.9L455.88 307.9L455.88 307.8Q455.88 306.9 455.52 306.26Q455.16 305.61 454.44 305.26Q453.72 304.9 452.68 304.9L452.68 304.9Q451.62 304.9 450.84 305.24Q450.06 305.59 449.59 306.12Q449.12 306.65 448.92 307.24L448.92 307.24L446.56 306.72Q446.98 305.35 447.9 304.49Q448.82 303.62 450.05 303.2Q451.28 302.78 452.63 302.78L452.63 302.78Q453.56 302.78 454.55 303.02Q455.54 303.25 456.39 303.82Q457.24 304.4 457.76 305.41Q458.29 306.42 458.29 307.96L458.29 307.96L458.29 318L455.91 318L455.91 315.94L455.77 315.94Q455.51 316.46 454.97 317.01Q454.42 317.56 453.53 317.94Q452.63 318.31 451.32 318.31M451.71 316.17L451.71 316.17Q453.09 316.17 454.02 315.64Q454.95 315.12 455.42 314.27Q455.88 313.43 455.88 312.49L455.88 312.49L455.88 310.48Q455.73 310.64 455.28 310.77Q454.82 310.9 454.21 311.01Q453.6 311.12 452.99 311.21Q452.38 311.29 451.95 311.34L451.95 311.34Q451.07 311.45 450.31 311.72Q449.54 311.98 449.08 312.48Q448.61 312.98 448.61 313.84L448.61 313.84Q448.61 314.6 449.01 315.12Q449.4 315.63 450.1 315.9Q450.8 316.17 451.71 316.17M477.03 318L469.9 318L469.9 303L476.08 303Q478.55 303 480.01 304.08Q481.48 305.15 481.48 306.99L481.48 306.99Q481.48 308.32 480.71 309.08Q479.93 309.84 478.62 310.11L478.62 310.11Q479.48 310.23 480.27 310.69Q481.05 311.15 481.56 311.94Q482.07 312.74 482.07 313.9L482.07 313.9Q482.07 315.09 481.46 316.02Q480.85 316.95 479.73 317.47Q478.61 318 477.03 318L477.03 318M472.19 311.33L472.19 315.79L477.03 315.79Q478.24 315.79 478.91 315.24Q479.58 314.69 479.58 313.73L479.58 313.73Q479.58 312.59 478.91 311.96Q478.24 311.33 477.03 311.33L477.03 311.33L472.19 311.33M472.19 305.22L472.19 309.28L476.12 309.28Q477.5 309.28 478.27 308.72Q479.04 308.17 479.04 307.19L479.04 307.19Q479.04 306.26 478.26 305.74Q477.47 305.22 476.08 305.22L476.08 305.22L472.19 305.22M491.47 318.33L491.47 318.33Q489.42 318.33 487.88 317.35Q486.33 316.37 485.46 314.62Q484.59 312.87 484.59 310.58L484.59 310.58Q484.59 308.24 485.46 306.48Q486.33 304.72 487.88 303.74Q489.42 302.76 491.47 302.76L491.47 302.76Q493.54 302.76 495.09 303.74Q496.64 304.72 497.5 306.48Q498.36 308.24 498.36 310.58L498.36 310.58Q498.36 312.87 497.5 314.62Q496.64 316.37 495.09 317.35Q493.54 318.33 491.47 318.33M491.47 316.15L491.47 316.15Q492.96 316.15 493.95 315.4Q494.93 314.65 495.42 313.39Q495.92 312.12 495.92 310.58L495.92 310.58Q495.92 309 495.42 307.73Q494.93 306.45 493.95 305.69Q492.96 304.93 491.47 304.93L491.47 304.93Q490 304.93 489.02 305.69Q488.04 306.45 487.55 307.73Q487.06 309 487.06 310.58L487.06 310.58Q487.06 312.12 487.55 313.39Q488.04 314.65 489.02 315.4Q490 316.15 491.47 316.15M516.37 318L509.23 318L509.23 303L515.41 303Q517.89 303 519.35 304.08Q520.81 305.15 520.81 306.99L520.81 306.99Q520.81 308.32 520.04 309.08Q519.27 309.84 517.95 310.11L517.95 310.11Q518.82 310.23 519.6 310.69Q520.39 311.15 520.89 311.94Q521.4 312.74 521.4 313.9L521.4 313.9Q521.4 315.09 520.79 316.02Q520.18 316.95 519.06 317.47Q517.94 318 516.37 318L516.37 318M511.53 311.33L511.53 315.79L516.37 315.79Q517.57 315.79 518.24 315.24Q518.91 314.69 518.91 313.73L518.91 313.73Q518.91 312.59 518.24 311.96Q517.57 311.33 516.37 311.33L516.37 311.33L511.53 311.33M511.53 305.22L511.53 309.28L515.45 309.28Q516.83 309.28 517.61 308.72Q518.38 308.17 518.38 307.19L518.38 307.19Q518.38 306.26 517.59 305.74Q516.81 305.22 515.41 305.22L515.41 305.22L511.53 305.22M530.81 318.33L530.81 318.33Q528.75 318.33 527.21 317.35Q525.67 316.37 524.8 314.62Q523.93 312.87 523.93 310.58L523.93 310.58Q523.93 308.24 524.8 306.48Q525.67 304.72 527.21 303.74Q528.75 302.76 530.81 302.76L530.81 302.76Q531.95 302.76 532.96 303.08Q533.96 303.4 534.77 303.98Q535.58 304.56 536.14 305.39Q536.7 306.23 536.96 307.25L536.96 307.25L534.61 307.71Q534.46 307.09 534.13 306.58Q533.8 306.08 533.31 305.71Q532.83 305.34 532.2 305.13Q531.57 304.93 530.81 304.93L530.81 304.93Q529.33 304.93 528.35 305.69Q527.37 306.45 526.88 307.73Q526.39 309 526.39 310.58L526.39 310.58Q526.39 312.12 526.88 313.39Q527.37 314.65 528.35 315.4Q529.33 316.15 530.81 316.15L530.81 316.15Q531.58 316.15 532.22 315.95Q532.86 315.74 533.33 315.37Q533.81 314.99 534.14 314.47Q534.47 313.94 534.63 313.31L534.63 313.31L537 313.75Q536.75 314.79 536.19 315.63Q535.62 316.47 534.8 317.08Q533.99 317.69 532.97 318.01Q531.95 318.33 530.81 318.33M546.49 318.33L546.49 318.33Q544.3 318.33 542.73 317.35Q541.17 316.37 540.32 314.63Q539.47 312.89 539.47 310.59L539.47 310.59Q539.47 308.29 540.32 306.53Q541.17 304.77 542.69 303.76Q544.22 302.76 546.24 302.76L546.24 302.76Q547.55 302.76 548.74 303.21Q549.93 303.66 550.86 304.59Q551.79 305.53 552.33 306.97Q552.87 308.4 552.87 310.38L552.87 310.38L552.87 311.27L541 311.27L541 309.22L551.55 309.22L550.45 309.97Q550.45 308.47 549.96 307.33Q549.47 306.19 548.53 305.55Q547.59 304.92 546.24 304.92L546.24 304.92Q544.89 304.92 543.92 305.57Q542.95 306.21 542.43 307.3Q541.91 308.39 541.91 309.7L541.91 309.7L541.91 310.96Q541.91 312.59 542.47 313.75Q543.03 314.92 544.06 315.55Q545.09 316.17 546.5 316.17L546.5 316.17Q547.44 316.17 548.2 315.89Q548.95 315.61 549.47 315.07Q550 314.53 550.26 313.75L550.26 313.75L552.63 314.19Q552.3 315.42 551.44 316.35Q550.59 317.28 549.32 317.8Q548.06 318.33 546.49 318.33M556.92 318L554.12 318L560.16 309.39L560.15 311.25L554.43 303L557.26 303L559.17 305.93Q559.87 306.97 560.42 307.92Q560.97 308.87 561.54 309.77L561.54 309.77L560.3 309.77Q560.88 308.87 561.4 307.92Q561.91 306.97 562.61 305.93L562.61 305.93L564.56 303L567.34 303L561.61 311.31L561.61 309.5L567.58 318L564.77 318L562.51 314.62Q561.84 313.6 561.31 312.69Q560.77 311.78 560.21 310.9L560.21 310.9L561.46 310.9Q560.9 311.78 560.39 312.69Q559.89 313.6 559.2 314.62L559.2 314.62L556.92 318M584.04 318.33L584.04 318.33Q581.99 318.33 580.45 317.35Q578.9 316.37 578.04 314.62Q577.17 312.87 577.17 310.58L577.17 310.58Q577.17 308.24 578.04 306.48Q578.9 304.72 580.45 303.74Q581.99 302.76 584.04 302.76L584.04 302.76Q585.19 302.76 586.2 303.08Q587.2 303.4 588.01 303.98Q588.82 304.56 589.38 305.39Q589.94 306.23 590.2 307.25L590.2 307.25L587.84 307.71Q587.69 307.09 587.37 306.58Q587.04 306.08 586.55 305.71Q586.07 305.34 585.44 305.13Q584.81 304.93 584.04 304.93L584.04 304.93Q582.57 304.93 581.59 305.69Q580.61 306.45 580.12 307.73Q579.63 309 579.63 310.58L579.63 310.58Q579.63 312.12 580.12 313.39Q580.61 314.65 581.59 315.4Q582.57 316.15 584.04 316.15L584.04 316.15Q584.82 316.15 585.46 315.95Q586.09 315.74 586.57 315.37Q587.05 314.99 587.38 314.47Q587.71 313.94 587.87 313.31L587.87 313.31L590.24 313.75Q589.99 314.79 589.42 315.63Q588.86 316.47 588.04 317.08Q587.23 317.69 586.21 318.01Q585.19 318.33 584.04 318.33M599.59 318.33L599.59 318.33Q597.54 318.33 595.99 317.35Q594.45 316.37 593.58 314.62Q592.71 312.87 592.71 310.58L592.71 310.58Q592.71 308.24 593.58 306.48Q594.45 304.72 595.99 303.74Q597.54 302.76 599.59 302.76L599.59 302.76Q601.65 302.76 603.21 303.74Q604.76 304.72 605.62 306.48Q606.48 308.24 606.48 310.58L606.48 310.58Q606.48 312.87 605.62 314.62Q604.76 316.37 603.21 317.35Q601.65 318.33 599.59 318.33M599.59 316.15L599.59 316.15Q601.08 316.15 602.06 315.4Q603.05 314.65 603.54 313.39Q604.03 312.12 604.03 310.58L604.03 310.58Q604.03 309 603.54 307.73Q603.05 306.45 602.06 305.69Q601.08 304.93 599.59 304.93L599.59 304.93Q598.11 304.93 597.13 305.69Q596.16 306.45 595.67 307.73Q595.17 309 595.17 310.58L595.17 310.58Q595.17 312.12 595.67 313.39Q596.16 314.65 597.13 315.4Q598.11 316.15 599.59 316.15M621.86 318L609.76 318L609.76 303L612.18 303L612.18 315.76L619.44 315.76L619.44 303L621.86 303L621.86 318M623.8 322.38L621.4 322.38L621.4 318L620.37 318L620.37 315.76L623.82 315.76L623.8 322.38M631.96 318.33L631.96 318.33Q629.91 318.33 628.37 317.35Q626.82 316.37 625.96 314.62Q625.09 312.87 625.09 310.58L625.09 310.58Q625.09 308.24 625.96 306.48Q626.82 304.72 628.37 303.74Q629.91 302.76 631.96 302.76L631.96 302.76Q633.11 302.76 634.12 303.08Q635.12 303.4 635.93 303.98Q636.74 304.56 637.3 305.39Q637.86 306.23 638.12 307.25L638.12 307.25L635.76 307.71Q635.61 307.09 635.29 306.58Q634.96 306.08 634.47 305.71Q633.99 305.34 633.36 305.13Q632.73 304.93 631.96 304.93L631.96 304.93Q630.49 304.93 629.51 305.69Q628.53 306.45 628.04 307.73Q627.55 309 627.55 310.58L627.55 310.58Q627.55 312.12 628.04 313.39Q628.53 314.65 629.51 315.4Q630.49 316.15 631.96 316.15L631.96 316.15Q632.74 316.15 633.38 315.95Q634.01 315.74 634.49 315.37Q634.97 314.99 635.3 314.47Q635.63 313.94 635.79 313.31L635.79 313.31L638.16 313.75Q637.91 314.79 637.34 315.63Q636.78 316.47 635.96 317.08Q635.15 317.69 634.13 318.01Q633.11 318.33 631.96 318.33M647.65 318.33L647.65 318.33Q645.46 318.33 643.89 317.35Q642.33 316.37 641.48 314.63Q640.63 312.89 640.63 310.59L640.63 310.59Q640.63 308.29 641.48 306.53Q642.33 304.77 643.85 303.76Q645.38 302.76 647.4 302.76L647.4 302.76Q648.71 302.76 649.9 303.21Q651.09 303.66 652.02 304.59Q652.95 305.53 653.49 306.97Q654.03 308.4 654.03 310.38L654.03 310.38L654.03 311.27L642.16 311.27L642.16 309.22L652.7 309.22L651.61 309.97Q651.61 308.47 651.12 307.33Q650.63 306.19 649.69 305.55Q648.75 304.92 647.4 304.92L647.4 304.92Q646.05 304.92 645.08 305.57Q644.1 306.21 643.58 307.3Q643.07 308.39 643.07 309.7L643.07 309.7L643.07 310.96Q643.07 312.59 643.63 313.75Q644.19 314.92 645.22 315.55Q646.25 316.17 647.66 316.17L647.66 316.17Q648.6 316.17 649.35 315.89Q650.11 315.61 650.63 315.07Q651.16 314.53 651.42 313.75L651.42 313.75L653.78 314.19Q653.46 315.42 652.6 316.35Q651.75 317.28 650.48 317.8Q649.22 318.33 647.65 318.33M662.94 318L660.54 318L660.54 305.16L655.49 305.16L655.49 303L667.96 303L667.96 305.16L662.94 305.16L662.94 318M681.42 303L681.42 318L679.01 318L679.01 305.11L675.43 305.11Q673.51 305.11 672.67 305.78Q671.82 306.46 671.82 307.75L671.82 307.75Q671.82 309.02 672.67 309.68Q673.53 310.34 675.44 310.34L675.44 310.34L680.05 310.34L680.05 312.37L675.26 312.37Q672.35 312.37 670.88 311.12Q669.41 309.87 669.41 307.75L669.41 307.75Q669.41 305.59 670.87 304.29Q672.34 303 675.24 303L675.24 303L681.42 303M675.7 311.22L671.52 318L668.74 318L673.01 311.22L675.7 311.22M686.95 318L684.15 318L690.19 309.39L690.18 311.25L684.46 303L687.29 303L689.21 305.93Q689.91 306.97 690.45 307.92Q691 308.87 691.57 309.77L691.57 309.77L690.33 309.77Q690.92 308.87 691.43 307.92Q691.94 306.97 692.64 305.93L692.64 305.93L694.59 303L697.37 303L691.64 311.31L691.64 309.5L697.62 318L694.8 318L692.54 314.62Q691.87 313.6 691.34 312.69Q690.81 311.78 690.25 310.9L690.25 310.9L691.49 310.9Q690.93 311.78 690.42 312.69Q689.92 313.6 689.24 314.62L689.24 314.62L686.95 318M712.71 318.19L712.71 318.19Q711.14 318.19 709.88 317.67Q708.62 317.15 707.88 316.23Q707.15 315.31 707.12 314.09L707.12 314.09L709.57 314.09Q709.61 314.99 710.51 315.57Q711.41 316.14 712.7 316.14L712.7 316.14Q714.09 316.14 714.97 315.46Q715.85 314.77 715.85 313.72L715.85 313.72Q715.85 312.61 714.92 311.92Q714 311.23 712.38 311.23L712.38 311.23L711.36 311.23L711.36 309.4L712.38 309.4Q713.71 309.4 714.56 308.76Q715.42 308.12 715.42 307.05L715.42 307.05Q715.42 306.04 714.69 305.4Q713.95 304.77 712.75 304.77L712.75 304.77Q711.56 304.77 710.69 305.35Q709.81 305.94 709.78 306.93L709.78 306.93L707.45 306.93Q707.47 305.7 708.19 304.76Q708.91 303.82 710.11 303.3Q711.32 302.78 712.76 302.78L712.76 302.78Q714.3 302.78 715.42 303.34Q716.54 303.9 717.15 304.84Q717.77 305.78 717.77 306.93L717.77 306.93Q717.77 308.24 716.96 309.09Q716.16 309.95 714.9 310.21L714.9 310.21L714.9 310.29Q716.58 310.55 717.47 311.51Q718.36 312.46 718.36 313.86L718.36 313.86Q718.36 315.12 717.63 316.09Q716.89 317.07 715.62 317.63Q714.35 318.19 712.71 318.19M725.83 318.31L725.83 318.31Q724.4 318.31 723.23 317.78Q722.06 317.25 721.38 316.22Q720.69 315.2 720.69 313.72L720.69 313.72Q720.69 312.42 721.2 311.62Q721.71 310.81 722.55 310.35Q723.4 309.89 724.45 309.66Q725.49 309.43 726.57 309.29L726.57 309.29Q727.94 309.1 728.78 309Q729.62 308.91 730.01 308.68Q730.4 308.46 730.4 307.9L730.4 307.9L730.4 307.8Q730.4 306.9 730.04 306.26Q729.68 305.61 728.96 305.26Q728.24 304.9 727.2 304.9L727.2 304.9Q726.14 304.9 725.36 305.24Q724.58 305.59 724.11 306.12Q723.63 306.65 723.44 307.24L723.44 307.24L721.08 306.72Q721.5 305.35 722.42 304.49Q723.33 303.62 724.56 303.2Q725.79 302.78 727.15 302.78L727.15 302.78Q728.08 302.78 729.07 303.02Q730.06 303.25 730.91 303.82Q731.75 304.4 732.28 305.41Q732.81 306.42 732.81 307.96L732.81 307.96L732.81 318L730.43 318L730.43 315.94L730.29 315.94Q730.03 316.46 729.49 317.01Q728.94 317.56 728.04 317.94Q727.15 318.31 725.83 318.31M726.23 316.17L726.23 316.17Q727.61 316.17 728.54 315.64Q729.47 315.12 729.94 314.27Q730.4 313.43 730.4 312.49L730.4 312.49L730.4 310.48Q730.25 310.64 729.79 310.77Q729.33 310.9 728.73 311.01Q728.12 311.12 727.51 311.21Q726.9 311.29 726.46 311.34L726.46 311.34Q725.59 311.45 724.82 311.72Q724.06 311.98 723.59 312.48Q723.13 312.98 723.13 313.84L723.13 313.84Q723.13 314.6 723.52 315.12Q723.92 315.63 724.62 315.9Q725.32 316.17 726.23 316.17M758.92 313.6L743.73 313.6L743.73 311.51L752.93 297.63L754.48 297.63L754.48 300.72L753.48 300.72L746.52 311.23L746.52 311.34L758.92 311.34L758.92 313.6M756.04 318L753.59 318L753.59 312.98L753.6 312L753.6 297.63L756.04 297.63L756.04 318M772.24 318L769.83 318L769.83 303L773.45 303L777.04 311.48Q777.32 312.18 777.56 312.8Q777.79 313.42 777.97 313.99Q778.16 314.55 778.32 315.11Q778.49 315.66 778.64 316.22L778.64 316.22L778.2 316.22Q778.35 315.68 778.51 315.14Q778.66 314.6 778.85 314.01Q779.03 313.43 779.26 312.81Q779.5 312.19 779.78 311.48L779.78 311.48L783.33 303L786.98 303L786.98 318L784.56 318L784.56 310.25Q784.56 309.4 784.56 308.63Q784.57 307.87 784.58 307.13Q784.6 306.39 784.6 305.65Q784.61 304.9 784.62 304.12L784.62 304.12L784.95 304.12Q784.62 305.23 784.31 306.18Q784 307.13 783.63 308.09Q783.27 309.06 782.76 310.23L782.76 310.23L779.46 318L777.34 318L773.99 310.23Q773.48 309.06 773.11 308.09Q772.74 307.13 772.43 306.18Q772.11 305.23 771.77 304.12L771.77 304.12L772.16 304.12Q772.17 304.82 772.19 305.54Q772.21 306.27 772.22 307.03Q772.22 307.79 772.23 308.59Q772.24 309.39 772.24 310.25L772.24 310.25L772.24 318M803.2 303L803.2 318L800.77 318L800.77 307.06L800.65 307.06L793.35 318L791.01 318L791.01 303L793.43 303L793.43 313.97L793.57 313.97L800.88 303L803.2 303M809.07 309.17L817.46 309.17L817.46 311.41L809.07 311.41L809.07 309.17M807.22 303L809.64 303L809.64 318L807.22 318L807.22 303M816.92 303L819.34 303L819.34 318L816.92 318L816.92 303M822.73 323.59L822.73 323.59L823.15 321.49L823.79 321.54Q824.45 321.66 824.98 321.54Q825.5 321.42 825.93 320.95Q826.35 320.47 826.67 319.54L826.67 319.54L827.23 318.01L821.47 303L824.11 303L827.31 311.81Q827.79 313.11 828.15 314.38Q828.51 315.66 828.89 316.88L828.89 316.88L828.09 316.88Q828.46 315.66 828.83 314.38Q829.19 313.09 829.66 311.81L829.66 311.81L832.87 303L835.48 303L828.78 320.42Q828.35 321.55 827.72 322.3Q827.09 323.04 826.26 323.41Q825.43 323.78 824.41 323.78L824.41 323.78Q823.85 323.78 823.41 323.72Q822.97 323.66 822.73 323.59M844.26 318L841.85 318L841.85 305.16L836.81 305.16L836.81 303L849.28 303L849.28 305.16L844.26 305.16L844.26 318M853.78 310.55L853.78 308.29L858.19 308.29Q859.93 308.29 861.17 308.92Q862.42 309.54 863.07 310.62Q863.73 311.7 863.73 313.09L863.73 313.09Q863.73 314.49 863.07 315.59Q862.4 316.7 861.17 317.35Q859.93 318 858.19 318L858.19 318L851.71 318L851.71 303L854.13 303L854.13 315.76L858.17 315.76Q859.56 315.76 860.43 315.04Q861.3 314.32 861.3 313.17L861.3 313.17Q861.3 311.98 860.43 311.27Q859.56 310.55 858.17 310.55L858.17 310.55L853.78 310.55M867.79 318L865.37 318L865.37 303L867.79 303L867.79 318" fill="#9A958C"><title>От идеи до ролика во всех соцсетях за 4 минуты</title></path>
<rect x="216" y="380" width="648" height="648" rx="48" fill="#FBF7EF" filter="url(#drop)"/>
<g data-qr="1" data-x="260" data-y="424" data-size="560"><!--QR--></g>
<g transform="translate(215.55,1058)" filter="url(#dropSoft)">
      <rect width="648.9" height="88" rx="44" fill="#161512" stroke="#FFD21E" stroke-width="2"/>
      <path d="M32.01 43.28L30.87 37.37L37.02 37.37L38.13 44.21L38.13 54.5L32.01 54.5L32.01 43.28M44.04 36.86L44.04 36.86Q46.41 36.86 48.06 37.85Q49.71 38.84 50.58 40.64Q51.45 42.44 51.45 44.9L51.45 44.9L51.45 54.5L45.33 54.5L45.33 45.8Q45.33 43.88 44.46 42.86Q43.59 41.84 41.94 41.84L41.94 41.84Q40.77 41.84 39.92 42.38Q39.06 42.92 38.6 43.91Q38.13 44.9 38.13 46.25L38.13 46.25L36.24 45.26Q36.6 42.53 37.71 40.66Q38.82 38.78 40.46 37.82Q42.09 36.86 44.04 36.86M57.33 36.86L57.33 36.86Q59.7 36.86 61.36 37.85Q63.03 38.84 63.9 40.64Q64.77 42.44 64.77 44.9L64.77 44.9L64.77 54.5L58.65 54.5L58.65 45.8Q58.65 43.88 57.78 42.86Q56.91 41.84 55.26 41.84L55.26 41.84Q54.09 41.84 53.24 42.38Q52.38 42.92 51.92 43.91Q51.45 44.9 51.45 46.25L51.45 46.25L49.56 45.26Q49.92 42.53 51.02 40.66Q52.11 38.78 53.76 37.82Q55.41 36.86 57.33 36.86M77.82 54.98L77.82 54.98Q74.52 54.98 72.06 53.86Q69.6 52.73 68.22 50.68Q66.84 48.62 66.84 45.95L66.84 45.95Q66.84 43.22 68.22 41.18Q69.6 39.14 72.06 38Q74.52 36.86 77.82 36.86L77.82 36.86Q81.09 36.86 83.57 38Q86.04 39.14 87.42 41.18Q88.8 43.22 88.8 45.95L88.8 45.95Q88.8 48.62 87.42 50.68Q86.04 52.73 83.57 53.86Q81.09 54.98 77.82 54.98M77.82 50.45L77.82 50.45Q79.32 50.45 80.38 49.91Q81.45 49.37 82.02 48.35Q82.59 47.33 82.59 45.95L82.59 45.95Q82.59 44.51 82.02 43.51Q81.45 42.5 80.38 41.96Q79.32 41.42 77.82 41.42L77.82 41.42Q76.32 41.42 75.24 41.96Q74.16 42.5 73.59 43.51Q73.02 44.51 73.02 45.92L73.02 45.92Q73.02 47.33 73.59 48.35Q74.16 49.37 75.24 49.91Q76.32 50.45 77.82 50.45M91.41 43.28L90.27 37.37L96.42 37.37L97.53 44.21L97.53 54.5L91.41 54.5L91.41 43.28M103.83 36.86L103.83 36.86Q106.29 36.86 108.03 37.85Q109.77 38.84 110.69 40.64Q111.6 42.44 111.6 44.9L111.6 44.9L111.6 54.5L105.48 54.5L105.48 45.8Q105.48 43.88 104.51 42.86Q103.53 41.84 101.7 41.84L101.7 41.84Q100.44 41.84 99.5 42.38Q98.55 42.92 98.04 43.91Q97.53 44.9 97.53 46.25L97.53 46.25L95.64 45.26Q96 42.53 97.17 40.66Q98.34 38.78 100.05 37.82Q101.76 36.86 103.83 36.86M116.43 41.9L112.95 41.9L112.95 39.23L116.43 37.82L119.07 32.75L122.55 32.75L122.55 37.37L129.75 37.37L129.75 41.9L122.55 41.9L122.55 46.94Q122.55 48.8 123.3 49.55Q124.05 50.3 126.03 50.3L126.03 50.3Q127.29 50.3 128.27 50.08Q129.24 49.85 130.05 49.49L130.05 49.49L130.05 54.11Q129.15 54.44 127.68 54.71Q126.21 54.98 124.65 54.98L124.65 54.98Q121.8 54.98 119.99 54.11Q118.17 53.24 117.3 51.61Q116.43 49.97 116.43 47.78L116.43 47.78L116.43 41.9M137.88 59.93L137.88 59.93Q135.99 59.93 134.52 59.47Q133.05 59 131.67 58.04L131.67 58.04L131.67 53.78Q133.08 54.68 134.31 55.07Q135.54 55.46 137.01 55.46L137.01 55.46Q138.24 55.46 139.2 54.92Q140.16 54.38 140.76 52.94L140.76 52.94L147.33 37.37L153.84 37.37L145.62 54.83Q144.75 56.72 143.51 57.85Q142.26 58.97 140.82 59.45Q139.38 59.93 137.88 59.93M144 52.91L138.09 52.91L130.8 37.37L137.55 37.37L144 52.91M158.07 54.8L158.07 54.8Q157.11 54.8 156.32 54.35Q155.52 53.9 155.07 53.11Q154.62 52.31 154.62 51.35L154.62 51.35Q154.62 50.39 155.07 49.61Q155.52 48.83 156.32 48.37Q157.11 47.9 158.07 47.9L158.07 47.9Q159.06 47.9 159.84 48.37Q160.62 48.83 161.07 49.61Q161.52 50.39 161.52 51.35L161.52 51.35Q161.52 52.31 161.07 53.11Q160.62 53.9 159.84 54.35Q159.06 54.8 158.07 54.8M176.13 35.48L176.13 35.48Q174.12 35.48 173.33 36.19Q172.53 36.89 172.53 38.45L172.53 38.45L172.53 54.5L166.41 54.5L166.41 38.75Q166.41 36.26 167.43 34.5Q168.45 32.75 170.45 31.84Q172.44 30.92 175.38 30.92L175.38 30.92Q176.7 30.92 177.74 31.1Q178.77 31.28 179.94 31.61L179.94 31.61L179.94 36.11Q179.04 35.78 178.09 35.63Q177.15 35.48 176.13 35.48M179.52 43.31L162.93 43.31L162.93 38.78L179.52 38.78L179.52 43.31M203.16 54.5L196.8 54.5L196.02 48.32L196.83 45.95L196.02 43.58L196.8 37.37L203.16 37.37L202.08 45.92L203.16 54.5M198.24 45.95L198.24 45.95Q197.82 48.65 196.58 50.69Q195.33 52.73 193.43 53.86Q191.52 54.98 189.09 54.98L189.09 54.98Q186.57 54.98 184.67 53.86Q182.76 52.73 181.68 50.68Q180.6 48.62 180.6 45.95L180.6 45.95Q180.6 43.22 181.68 41.18Q182.76 39.14 184.67 38Q186.57 36.86 189.09 36.86L189.09 36.86Q191.52 36.86 193.43 37.99Q195.33 39.11 196.59 41.14Q197.85 43.16 198.24 45.95M186.81 45.95L186.81 45.95Q186.81 47.21 187.33 48.2Q187.86 49.19 188.79 49.75Q189.72 50.3 190.92 50.3L190.92 50.3Q192.18 50.3 193.29 49.75Q194.4 49.19 195.24 48.2Q196.08 47.21 196.5 45.95L196.5 45.95Q196.08 44.66 195.24 43.67Q194.4 42.68 193.29 42.11Q192.18 41.54 190.92 41.54L190.92 41.54Q189.72 41.54 188.79 42.11Q187.86 42.68 187.33 43.67Q186.81 44.66 186.81 45.95M225.66 48.92L225.66 48.92Q225.66 50.9 224.46 52.25Q223.26 53.6 221.04 54.29Q218.82 54.98 215.7 54.98L215.7 54.98Q212.49 54.98 210.08 54.2Q207.66 53.42 206.31 52.01Q204.96 50.6 204.87 48.74L204.87 48.74L211.08 48.74Q211.29 49.43 211.9 49.93Q212.52 50.42 213.54 50.68Q214.56 50.93 215.97 50.93L215.97 50.93Q217.8 50.93 218.74 50.57Q219.69 50.21 219.69 49.49L219.69 49.49Q219.69 48.92 218.97 48.64Q218.25 48.35 216.51 48.2L216.51 48.2L213.48 47.96Q210.45 47.75 208.66 47.05Q206.88 46.34 206.1 45.22Q205.32 44.09 205.32 42.65L205.32 42.65Q205.32 40.7 206.53 39.42Q207.75 38.15 209.93 37.5Q212.1 36.86 215.01 36.86L215.01 36.86Q217.89 36.86 220.14 37.61Q222.39 38.36 223.74 39.7Q225.09 41.03 225.3 42.83L225.3 42.83L219.09 42.83Q218.94 42.26 218.43 41.8Q217.92 41.33 217.02 41.03Q216.12 40.73 214.71 40.73L214.71 40.73Q213.06 40.73 212.21 41.09Q211.35 41.45 211.35 42.11L211.35 42.11Q211.35 42.62 211.87 42.92Q212.4 43.22 213.84 43.34L213.84 43.34L217.83 43.64Q220.8 43.82 222.51 44.5Q224.22 45.17 224.94 46.28Q225.66 47.39 225.66 48.92M229.92 41.9L226.44 41.9L226.44 39.23L229.92 37.82L232.56 32.75L236.04 32.75L236.04 37.37L243.24 37.37L243.24 41.9L236.04 41.9L236.04 46.94Q236.04 48.8 236.79 49.55Q237.54 50.3 239.52 50.3L239.52 50.3Q240.78 50.3 241.75 50.08Q242.73 49.85 243.54 49.49L243.54 49.49L243.54 54.11Q242.64 54.44 241.17 54.71Q239.7 54.98 238.14 54.98L238.14 54.98Q235.29 54.98 233.47 54.11Q231.66 53.24 230.79 51.61Q229.92 49.97 229.92 47.78L229.92 47.78L229.92 41.9M244.47 55.31L252.87 31.19L257.43 31.19L249.03 55.31L244.47 55.31M259.53 43.13L258.39 37.37L264.63 37.37L265.65 43.49L265.65 54.5L259.53 54.5L259.53 43.13M273.69 37.1L273.69 37.1L273.69 42.32Q272.79 42.14 272 42.07Q271.2 41.99 270.54 41.99L270.54 41.99Q269.22 41.99 268.11 42.52Q267 43.04 266.33 44.24Q265.65 45.44 265.65 47.45L265.65 47.45L264.48 46.01Q264.72 44.15 265.2 42.52Q265.68 40.88 266.51 39.61Q267.33 38.33 268.56 37.6Q269.79 36.86 271.56 36.86L271.56 36.86Q272.07 36.86 272.61 36.92Q273.15 36.98 273.69 37.1M274.23 55.31L282.63 31.19L287.19 31.19L278.79 55.31L274.23 55.31" fill="#FBF7EF"><title>monty.fast/r/</title></path>
      <g data-code="1" data-x="287.58" data-y="54.5" data-size="30" data-fill="#FFD21E" data-track="-0.01" data-anchor="start" data-max="331.3"><path d="M296.73 54.5L296.73 34.73L302.97 34.73L302.97 54.5L296.73 54.5M288.15 37.52L288.15 32L311.55 32L311.55 37.52L288.15 37.52M329.16 43.49L329.16 43.49L329.67 42.32Q332.28 42.38 333.98 43.12Q335.67 43.85 336.51 45.16Q337.35 46.46 337.35 48.17L337.35 48.17Q337.35 50 336.51 51.43Q335.67 52.85 334.01 53.68Q332.34 54.5 329.85 54.5L329.85 54.5L313.23 54.5L314.97 42.95L313.23 32L329.25 32Q332.37 32 334.11 33.46Q335.85 34.91 335.85 37.49L335.85 37.49Q335.85 38.9 335.19 40.19Q334.53 41.48 333.08 42.37Q331.62 43.25 329.16 43.49M320.91 42.95L319.38 53.06L316.98 50.15L328.17 50.15Q329.52 50.15 330.27 49.49Q331.02 48.83 331.02 47.66L331.02 47.66Q331.02 46.49 330.21 45.79Q329.4 45.08 327.81 45.08L327.81 45.08L318.57 45.08L318.57 40.82L326.97 40.82Q328.05 40.82 328.79 40.17Q329.52 39.53 329.52 38.42L329.52 38.42Q329.52 37.52 328.89 36.94Q328.26 36.35 327.09 36.35L327.09 36.35L317.01 36.35L319.38 33.44L320.91 42.95M352.47 54.98L352.47 54.98Q348.48 54.98 345.47 53.51Q342.45 52.04 340.79 49.4Q339.12 46.76 339.12 43.25L339.12 43.25Q339.12 39.74 340.79 37.1Q342.45 34.46 345.47 32.99Q348.48 31.52 352.47 31.52L352.47 31.52Q356.49 31.52 359.49 32.99Q362.49 34.46 364.17 37.1Q365.85 39.74 365.85 43.25L365.85 43.25Q365.85 46.76 364.17 49.4Q362.49 52.04 359.49 53.51Q356.49 54.98 352.47 54.98M352.47 49.43L352.47 49.43Q354.66 49.43 356.25 48.68Q357.84 47.93 358.7 46.55Q359.55 45.17 359.55 43.25L359.55 43.25Q359.55 41.33 358.7 39.95Q357.84 38.57 356.25 37.82Q354.66 37.07 352.47 37.07L352.47 37.07Q350.31 37.07 348.72 37.82Q347.13 38.57 346.26 39.95Q345.39 41.33 345.39 43.25L345.39 43.25Q345.39 45.17 346.26 46.55Q347.13 47.93 348.72 48.68Q350.31 49.43 352.47 49.43M376.65 54.5L368.76 54.5L368.76 32L374.88 32L374.88 51.23L373.17 50.84L385.92 32L394.05 32L394.05 54.5L387.9 54.5L387.9 34.91L389.64 35.3L376.65 54.5M373.62 25.16L373.62 25.16L378.51 25.16Q378.87 26.12 379.58 26.62Q380.28 27.11 381.33 27.11L381.33 27.11Q382.38 27.11 383.09 26.62Q383.79 26.12 384.15 25.16L384.15 25.16L389.04 25.16Q388.38 28.01 386.33 29.29Q384.27 30.56 381.33 30.56L381.33 30.56Q378.42 30.56 376.35 29.29Q374.28 28.01 373.62 25.16M394.83 59.51L394.83 55.4L411.33 55.4L411.33 59.51L394.83 59.51M417.72 54.5L412.11 54.5L412.11 32L418.29 32L418.29 49.55L416.64 48.26L429.39 32L435.96 32L417.72 54.5M429.21 54.5L422.85 43.76L427.41 39.98L436.26 54.5L429.21 54.5M450.27 54.98L450.27 54.98Q446.28 54.98 443.26 53.51Q440.25 52.04 438.58 49.4Q436.92 46.76 436.92 43.25L436.92 43.25Q436.92 39.74 438.58 37.1Q440.25 34.46 443.26 32.99Q446.28 31.52 450.27 31.52L450.27 31.52Q454.29 31.52 457.29 32.99Q460.29 34.46 461.97 37.1Q463.65 39.74 463.65 43.25L463.65 43.25Q463.65 46.76 461.97 49.4Q460.29 52.04 457.29 53.51Q454.29 54.98 450.27 54.98M450.27 49.43L450.27 49.43Q452.46 49.43 454.05 48.68Q455.64 47.93 456.49 46.55Q457.35 45.17 457.35 43.25L457.35 43.25Q457.35 41.33 456.49 39.95Q455.64 38.57 454.05 37.82Q452.46 37.07 450.27 37.07L450.27 37.07Q448.11 37.07 446.52 37.82Q444.93 38.57 444.06 39.95Q443.19 41.33 443.19 43.25L443.19 43.25Q443.19 45.17 444.06 46.55Q444.93 47.93 446.52 48.68Q448.11 49.43 450.27 49.43M470.85 59.03L465.03 59.03L465.03 49.01L469.89 49.01L471.87 49.07L487.47 49.07L489.03 49.01L495.57 49.01L495.57 59.03L489.75 59.03L489.75 54.5L470.85 54.5L470.85 59.03M469.71 32L469.71 32L491.7 32L491.7 52.76L485.46 52.76L485.46 34.61L488.28 37.43L473.01 37.43L475.59 35.36Q475.83 36.74 475.87 38.03Q475.92 39.32 475.92 40.49L475.92 40.49Q475.92 44 475.3 46.4Q474.69 48.8 473.47 50.03Q472.26 51.26 470.43 51.26L470.43 51.26L467.82 49.1Q469.02 47.69 469.59 45.25Q470.16 42.8 470.16 39.2L470.16 39.2Q470.16 37.55 470.04 35.75Q469.92 33.95 469.71 32" fill="#FFD21E"><title>ТВОЙ_КОД</title></path></g>
    </g>
<path d="M357.08 1216.3L357.08 1216.3Q355.25 1216.3 353.81 1215.44Q352.37 1214.57 351.53 1212.95Q350.68 1211.34 350.68 1209.12L350.68 1209.12L350.68 1208.64Q350.68 1206.44 350.94 1204.81Q351.2 1203.18 351.75 1202.03Q352.31 1200.88 353.2 1200.15Q354.1 1199.42 355.37 1199.04Q356.64 1198.66 358.32 1198.56L358.32 1198.56Q359.15 1198.49 359.59 1198.33Q360.02 1198.16 360.18 1197.86Q360.34 1197.55 360.34 1197.08L360.34 1197.08L362.37 1197.08Q362.37 1198.14 361.99 1198.85Q361.6 1199.57 360.71 1199.97Q359.82 1200.36 358.32 1200.47L358.32 1200.47Q356.41 1200.61 355.23 1201.1Q354.05 1201.58 353.43 1202.72Q352.81 1203.86 352.59 1205.96L352.59 1205.96L352.64 1205.96Q353.03 1205.02 353.79 1204.24Q354.55 1203.47 355.58 1203Q356.6 1202.53 357.78 1202.53L357.78 1202.53Q359.38 1202.53 360.63 1203.42Q361.89 1204.31 362.62 1205.83Q363.35 1207.35 363.35 1209.28L363.35 1209.28Q363.35 1211.29 362.54 1212.88Q361.74 1214.46 360.32 1215.38Q358.91 1216.3 357.08 1216.3M357.1 1214.31L357.1 1214.31Q358.36 1214.31 359.25 1213.71Q360.14 1213.12 360.62 1212.01Q361.09 1210.91 361.09 1209.4L361.09 1209.4Q361.09 1207.89 360.63 1206.8Q360.18 1205.7 359.3 1205.11Q358.43 1204.52 357.18 1204.52L357.18 1204.52Q355.92 1204.52 354.97 1205.15Q354.01 1205.77 353.47 1206.88Q352.94 1208 352.94 1209.47L352.94 1209.47Q352.94 1210.88 353.44 1211.98Q353.94 1213.07 354.88 1213.69Q355.82 1214.31 357.1 1214.31M372.1 1216.3L372.1 1216.3Q370.19 1216.3 368.76 1215.4Q367.32 1214.49 366.52 1212.86Q365.71 1211.24 365.71 1209.11L365.71 1209.11Q365.71 1206.94 366.52 1205.3Q367.32 1203.67 368.76 1202.76Q370.19 1201.84 372.1 1201.84L372.1 1201.84Q374.02 1201.84 375.46 1202.76Q376.9 1203.67 377.7 1205.3Q378.5 1206.94 378.5 1209.11L378.5 1209.11Q378.5 1211.24 377.7 1212.86Q376.9 1214.49 375.46 1215.4Q374.02 1216.3 372.1 1216.3M372.1 1214.29L372.1 1214.29Q373.48 1214.29 374.4 1213.59Q375.31 1212.89 375.77 1211.72Q376.22 1210.54 376.22 1209.11L376.22 1209.11Q376.22 1207.65 375.77 1206.46Q375.31 1205.27 374.4 1204.57Q373.48 1203.86 372.1 1203.86L372.1 1203.86Q370.73 1203.86 369.82 1204.57Q368.91 1205.27 368.45 1206.46Q368 1207.65 368 1209.11L368 1209.11Q368 1210.54 368.45 1211.72Q368.91 1212.89 369.82 1213.59Q370.73 1214.29 372.1 1214.29M383.26 1207.8L391.05 1207.8L391.05 1209.88L383.26 1209.88L383.26 1207.8M381.54 1202.07L383.79 1202.07L383.79 1216L381.54 1216L381.54 1202.07M390.54 1202.07L392.79 1202.07L392.79 1216L390.54 1216L390.54 1202.07M395.94 1221.19L395.94 1221.19L396.33 1219.24L396.93 1219.29Q397.54 1219.4 398.03 1219.29Q398.52 1219.17 398.91 1218.74Q399.3 1218.3 399.6 1217.43L399.6 1217.43L400.12 1216.01L394.77 1202.07L397.22 1202.07L400.19 1210.25Q400.64 1211.46 400.97 1212.64Q401.31 1213.83 401.67 1214.96L401.67 1214.96L400.92 1214.96Q401.26 1213.83 401.6 1212.64Q401.94 1211.44 402.38 1210.25L402.38 1210.25L405.36 1202.07L407.78 1202.07L401.56 1218.25Q401.16 1219.3 400.57 1219.99Q399.99 1220.68 399.22 1221.03Q398.45 1221.37 397.5 1221.37L397.5 1221.37Q396.98 1221.37 396.57 1221.31Q396.17 1221.26 395.94 1221.19M415.43 1216.3L415.43 1216.3Q413.52 1216.3 412.09 1215.4Q410.65 1214.49 409.85 1212.86Q409.04 1211.24 409.04 1209.11L409.04 1209.11Q409.04 1206.94 409.85 1205.3Q410.65 1203.67 412.09 1202.76Q413.52 1201.84 415.43 1201.84L415.43 1201.84Q416.49 1201.84 417.43 1202.14Q418.36 1202.44 419.11 1202.98Q419.86 1203.52 420.38 1204.29Q420.9 1205.07 421.14 1206.02L421.14 1206.02L418.96 1206.44Q418.82 1205.87 418.51 1205.4Q418.21 1204.93 417.76 1204.59Q417.31 1204.24 416.72 1204.05Q416.14 1203.86 415.43 1203.86L415.43 1203.86Q414.06 1203.86 413.15 1204.57Q412.24 1205.27 411.78 1206.46Q411.33 1207.65 411.33 1209.11L411.33 1209.11Q411.33 1210.54 411.78 1211.72Q412.24 1212.89 413.15 1213.59Q414.06 1214.29 415.43 1214.29L415.43 1214.29Q416.15 1214.29 416.74 1214.1Q417.33 1213.91 417.78 1213.56Q418.22 1213.21 418.52 1212.72Q418.83 1212.23 418.98 1211.65L418.98 1211.65L421.18 1212.05Q420.95 1213.02 420.42 1213.8Q419.9 1214.58 419.14 1215.14Q418.39 1215.71 417.44 1216.01Q416.49 1216.3 415.43 1216.3M432.92 1207.8L440.72 1207.8L440.72 1209.88L432.92 1209.88L432.92 1207.8M431.21 1202.07L433.45 1202.07L433.45 1216L431.21 1216L431.21 1202.07M440.21 1202.07L442.46 1202.07L442.46 1216L440.21 1216L440.21 1202.07M450.2 1216.29L450.2 1216.29Q448.87 1216.29 447.78 1215.8Q446.7 1215.3 446.06 1214.35Q445.43 1213.4 445.43 1212.03L445.43 1212.03Q445.43 1210.82 445.9 1210.07Q446.37 1209.32 447.15 1208.9Q447.94 1208.47 448.91 1208.26Q449.88 1208.04 450.89 1207.91L450.89 1207.91Q452.15 1207.74 452.94 1207.65Q453.72 1207.56 454.08 1207.35Q454.44 1207.14 454.44 1206.62L454.44 1206.62L454.44 1206.53Q454.44 1205.69 454.1 1205.09Q453.77 1204.5 453.1 1204.17Q452.43 1203.84 451.47 1203.84L451.47 1203.84Q450.48 1203.84 449.76 1204.16Q449.03 1204.47 448.59 1204.97Q448.16 1205.46 447.98 1206.01L447.98 1206.01L445.78 1205.53Q446.18 1204.26 447.03 1203.45Q447.88 1202.64 449.02 1202.26Q450.16 1201.87 451.42 1201.87L451.42 1201.87Q452.28 1201.87 453.2 1202.09Q454.12 1202.3 454.91 1202.83Q455.7 1203.37 456.19 1204.31Q456.67 1205.25 456.67 1206.68L456.67 1206.68L456.67 1216L454.47 1216L454.47 1214.08L454.34 1214.08Q454.1 1214.57 453.59 1215.08Q453.08 1215.59 452.25 1215.94Q451.42 1216.29 450.2 1216.29M450.57 1214.3L450.57 1214.3Q451.85 1214.3 452.71 1213.81Q453.58 1213.32 454.01 1212.54Q454.44 1211.76 454.44 1210.88L454.44 1210.88L454.44 1209.02Q454.3 1209.17 453.88 1209.29Q453.45 1209.41 452.88 1209.51Q452.32 1209.61 451.75 1209.69Q451.19 1209.77 450.78 1209.82L450.78 1209.82Q449.97 1209.92 449.26 1210.17Q448.55 1210.41 448.12 1210.88Q447.69 1211.34 447.69 1212.14L447.69 1212.14Q447.69 1212.84 448.05 1213.32Q448.42 1213.8 449.07 1214.05Q449.72 1214.3 450.57 1214.3M473.15 1216.3L473.15 1216.3Q471.25 1216.3 469.81 1215.4Q468.38 1214.49 467.57 1212.86Q466.77 1211.24 466.77 1209.11L466.77 1209.11Q466.77 1206.94 467.57 1205.3Q468.38 1203.67 469.81 1202.76Q471.25 1201.84 473.15 1201.84L473.15 1201.84Q474.22 1201.84 475.15 1202.14Q476.09 1202.44 476.83 1202.98Q477.58 1203.52 478.1 1204.29Q478.62 1205.07 478.87 1206.02L478.87 1206.02L476.68 1206.44Q476.54 1205.87 476.24 1205.4Q475.93 1204.93 475.48 1204.59Q475.03 1204.24 474.45 1204.05Q473.86 1203.86 473.15 1203.86L473.15 1203.86Q471.78 1203.86 470.87 1204.57Q469.97 1205.27 469.51 1206.46Q469.05 1207.65 469.05 1209.11L469.05 1209.11Q469.05 1210.54 469.51 1211.72Q469.97 1212.89 470.87 1213.59Q471.78 1214.29 473.15 1214.29L473.15 1214.29Q473.88 1214.29 474.47 1214.1Q475.06 1213.91 475.5 1213.56Q475.95 1213.21 476.25 1212.72Q476.56 1212.23 476.71 1211.65L476.71 1211.65L478.9 1212.05Q478.68 1213.02 478.15 1213.8Q477.62 1214.58 476.87 1215.14Q476.11 1215.71 475.17 1216.01Q474.22 1216.3 473.15 1216.3M487.17 1216L484.93 1216L484.93 1204.08L480.25 1204.08L480.25 1202.07L491.83 1202.07L491.83 1204.08L487.17 1204.08L487.17 1216M497.79 1216.29L497.79 1216.29Q496.46 1216.29 495.38 1215.8Q494.29 1215.3 493.66 1214.35Q493.02 1213.4 493.02 1212.03L493.02 1212.03Q493.02 1210.82 493.49 1210.07Q493.96 1209.32 494.75 1208.9Q495.53 1208.47 496.51 1208.26Q497.48 1208.04 498.48 1207.91L498.48 1207.91Q499.75 1207.74 500.53 1207.65Q501.31 1207.56 501.67 1207.35Q502.03 1207.14 502.03 1206.62L502.03 1206.62L502.03 1206.53Q502.03 1205.69 501.7 1205.09Q501.36 1204.5 500.7 1204.17Q500.03 1203.84 499.06 1203.84L499.06 1203.84Q498.07 1203.84 497.35 1204.16Q496.63 1204.47 496.19 1204.97Q495.75 1205.46 495.57 1206.01L495.57 1206.01L493.38 1205.53Q493.77 1204.26 494.62 1203.45Q495.47 1202.64 496.61 1202.26Q497.76 1201.87 499.01 1201.87L499.01 1201.87Q499.88 1201.87 500.8 1202.09Q501.72 1202.3 502.5 1202.83Q503.29 1203.37 503.78 1204.31Q504.27 1205.25 504.27 1206.68L504.27 1206.68L504.27 1216L502.06 1216L502.06 1214.08L501.93 1214.08Q501.69 1214.57 501.18 1215.08Q500.68 1215.59 499.84 1215.94Q499.01 1216.29 497.79 1216.29M498.16 1214.3L498.16 1214.3Q499.44 1214.3 500.31 1213.81Q501.17 1213.32 501.6 1212.54Q502.03 1211.76 502.03 1210.88L502.03 1210.88L502.03 1209.02Q501.9 1209.17 501.47 1209.29Q501.04 1209.41 500.48 1209.51Q499.91 1209.61 499.35 1209.69Q498.78 1209.77 498.38 1209.82L498.38 1209.82Q497.57 1209.92 496.85 1210.17Q496.14 1210.41 495.71 1210.88Q495.28 1211.34 495.28 1212.14L495.28 1212.14Q495.28 1212.84 495.65 1213.32Q496.02 1213.8 496.66 1214.05Q497.31 1214.3 498.16 1214.3M510.25 1221.31L508 1221.31L508 1202.07L510.19 1202.07L510.19 1204.24L510.36 1204.24Q510.67 1203.74 511.18 1203.19Q511.68 1202.64 512.5 1202.26Q513.31 1201.87 514.51 1201.87L514.51 1201.87Q516.28 1201.87 517.62 1202.75Q518.96 1203.63 519.71 1205.25Q520.47 1206.87 520.47 1209.06L520.47 1209.06Q520.47 1211.25 519.72 1212.88Q518.97 1214.5 517.63 1215.4Q516.29 1216.29 514.53 1216.29L514.53 1216.29Q513.33 1216.29 512.53 1215.9Q511.72 1215.5 511.21 1214.94Q510.69 1214.38 510.38 1213.85L510.38 1213.85L510.25 1213.85L510.25 1221.31M514.18 1214.27L514.18 1214.27Q515.47 1214.27 516.35 1213.61Q517.24 1212.94 517.71 1211.76Q518.18 1210.58 518.18 1209.04L518.18 1209.04Q518.18 1207.51 517.72 1206.35Q517.26 1205.18 516.36 1204.53Q515.47 1203.88 514.18 1203.88L514.18 1203.88Q512.9 1203.88 512 1204.52Q511.1 1205.17 510.64 1206.33Q510.17 1207.48 510.17 1209.04L510.17 1209.04Q510.17 1210.59 510.64 1211.77Q511.11 1212.95 512.01 1213.61Q512.91 1214.27 514.18 1214.27M528.8 1216L526.56 1216L526.56 1204.08L521.88 1204.08L521.88 1202.07L533.46 1202.07L533.46 1204.08L528.8 1204.08L528.8 1216M541.01 1216.3L541.01 1216.3Q538.98 1216.3 537.52 1215.4Q536.07 1214.49 535.28 1212.87Q534.5 1211.25 534.5 1209.12L534.5 1209.12Q534.5 1206.99 535.28 1205.35Q536.07 1203.71 537.49 1202.78Q538.9 1201.84 540.78 1201.84L540.78 1201.84Q542 1201.84 543.1 1202.26Q544.21 1202.68 545.07 1203.55Q545.94 1204.42 546.44 1205.75Q546.94 1207.09 546.94 1208.93L546.94 1208.93L546.94 1209.75L535.92 1209.75L535.92 1207.85L545.71 1207.85L544.69 1208.55Q544.69 1207.15 544.23 1206.09Q543.78 1205.03 542.91 1204.44Q542.04 1203.85 540.78 1203.85L540.78 1203.85Q539.52 1203.85 538.62 1204.45Q537.72 1205.06 537.24 1206.07Q536.76 1207.08 536.76 1208.29L536.76 1208.29L536.76 1209.46Q536.76 1210.97 537.28 1212.06Q537.8 1213.14 538.76 1213.72Q539.71 1214.3 541.02 1214.3L541.02 1214.3Q541.9 1214.3 542.6 1214.04Q543.29 1213.78 543.78 1213.28Q544.27 1212.78 544.51 1212.05L544.51 1212.05L546.71 1212.46Q546.4 1213.6 545.61 1214.46Q544.82 1215.33 543.64 1215.82Q542.47 1216.3 541.01 1216.3M556.98 1202.07L568.22 1202.07L568.22 1216L565.97 1216L565.97 1204.16L559.24 1204.16L559.24 1216L556.98 1216L556.98 1202.07M577.65 1216.3L577.65 1216.3Q575.74 1216.3 574.31 1215.4Q572.87 1214.49 572.07 1212.86Q571.26 1211.24 571.26 1209.11L571.26 1209.11Q571.26 1206.94 572.07 1205.3Q572.87 1203.67 574.31 1202.76Q575.74 1201.84 577.65 1201.84L577.65 1201.84Q579.56 1201.84 581.01 1202.76Q582.45 1203.67 583.25 1205.3Q584.05 1206.94 584.05 1209.11L584.05 1209.11Q584.05 1211.24 583.25 1212.86Q582.45 1214.49 581.01 1215.4Q579.56 1216.3 577.65 1216.3M577.65 1214.29L577.65 1214.29Q579.03 1214.29 579.95 1213.59Q580.86 1212.89 581.32 1211.72Q581.77 1210.54 581.77 1209.11L581.77 1209.11Q581.77 1207.65 581.32 1206.46Q580.86 1205.27 579.95 1204.57Q579.03 1203.86 577.65 1203.86L577.65 1203.86Q576.28 1203.86 575.37 1204.57Q574.46 1205.27 574 1206.46Q573.55 1207.65 573.55 1209.11L573.55 1209.11Q573.55 1210.54 574 1211.72Q574.46 1212.89 575.37 1213.59Q576.28 1214.29 577.65 1214.29M594.14 1202.07L605.37 1202.07L605.37 1216L603.13 1216L603.13 1204.16L596.4 1204.16L596.4 1216L594.14 1216L594.14 1202.07M611.35 1221.31L609.11 1221.31L609.11 1202.07L611.29 1202.07L611.29 1204.24L611.47 1204.24Q611.77 1203.74 612.28 1203.19Q612.79 1202.64 613.6 1202.26Q614.41 1201.87 615.62 1201.87L615.62 1201.87Q617.38 1201.87 618.72 1202.75Q620.06 1203.63 620.82 1205.25Q621.57 1206.87 621.57 1209.06L621.57 1209.06Q621.57 1211.25 620.82 1212.88Q620.08 1214.5 618.74 1215.4Q617.4 1216.29 615.63 1216.29L615.63 1216.29Q614.44 1216.29 613.63 1215.9Q612.83 1215.5 612.31 1214.94Q611.8 1214.38 611.48 1213.85L611.48 1213.85L611.35 1213.85L611.35 1221.31M615.29 1214.27L615.29 1214.27Q616.57 1214.27 617.46 1213.61Q618.35 1212.94 618.82 1211.76Q619.29 1210.58 619.29 1209.04L619.29 1209.04Q619.29 1207.51 618.83 1206.35Q618.36 1205.18 617.47 1204.53Q616.57 1203.88 615.29 1203.88L615.29 1203.88Q614.01 1203.88 613.11 1204.52Q612.2 1205.17 611.74 1206.33Q611.28 1207.48 611.28 1209.04L611.28 1209.04Q611.28 1210.59 611.75 1211.77Q612.22 1212.95 613.12 1213.61Q614.02 1214.27 615.29 1214.27M630.32 1216.3L630.32 1216.3Q628.42 1216.3 626.98 1215.4Q625.55 1214.49 624.74 1212.86Q623.94 1211.24 623.94 1209.11L623.94 1209.11Q623.94 1206.94 624.74 1205.3Q625.55 1203.67 626.98 1202.76Q628.42 1201.84 630.32 1201.84L630.32 1201.84Q632.24 1201.84 633.68 1202.76Q635.12 1203.67 635.92 1205.3Q636.72 1206.94 636.72 1209.11L636.72 1209.11Q636.72 1211.24 635.92 1212.86Q635.12 1214.49 633.68 1215.4Q632.24 1216.3 630.32 1216.3M630.32 1214.29L630.32 1214.29Q631.7 1214.29 632.62 1213.59Q633.53 1212.89 633.99 1211.72Q634.45 1210.54 634.45 1209.11L634.45 1209.11Q634.45 1207.65 633.99 1206.46Q633.53 1205.27 632.62 1204.57Q631.7 1203.86 630.32 1203.86L630.32 1203.86Q628.95 1203.86 628.04 1204.57Q627.13 1205.27 626.68 1206.46Q626.22 1207.65 626.22 1209.11L626.22 1209.11Q626.22 1210.54 626.68 1211.72Q627.13 1212.89 628.04 1213.59Q628.95 1214.29 630.32 1214.29M642 1216L639.77 1216L639.77 1202.07L643.13 1202.07L646.46 1209.94Q646.72 1210.59 646.94 1211.17Q647.15 1211.75 647.33 1212.27Q647.5 1212.8 647.65 1213.31Q647.8 1213.83 647.94 1214.35L647.94 1214.35L647.54 1214.35Q647.68 1213.84 647.82 1213.34Q647.97 1212.84 648.14 1212.3Q648.31 1211.76 648.53 1211.18Q648.74 1210.6 649.01 1209.94L649.01 1209.94L652.3 1202.07L655.69 1202.07L655.69 1216L653.44 1216L653.44 1208.8Q653.44 1208.01 653.45 1207.3Q653.45 1206.59 653.46 1205.91Q653.48 1205.22 653.48 1204.53Q653.49 1203.84 653.5 1203.11L653.5 1203.11L653.81 1203.11Q653.5 1204.14 653.21 1205.02Q652.92 1205.91 652.58 1206.8Q652.25 1207.7 651.78 1208.79L651.78 1208.79L648.7 1216L646.74 1216L643.63 1208.79Q643.16 1207.7 642.81 1206.8Q642.47 1205.91 642.18 1205.02Q641.89 1204.14 641.57 1203.11L641.57 1203.11L641.92 1203.11Q641.94 1203.76 641.96 1204.43Q641.98 1205.11 641.98 1205.81Q641.99 1206.52 641.99 1207.26Q642 1208 642 1208.8L642 1208.8L642 1216M665.13 1216.3L665.13 1216.3Q663.23 1216.3 661.79 1215.4Q660.36 1214.49 659.55 1212.86Q658.75 1211.24 658.75 1209.11L658.75 1209.11Q658.75 1206.94 659.55 1205.3Q660.36 1203.67 661.79 1202.76Q663.23 1201.84 665.13 1201.84L665.13 1201.84Q667.05 1201.84 668.49 1202.76Q669.93 1203.67 670.73 1205.3Q671.53 1206.94 671.53 1209.11L671.53 1209.11Q671.53 1211.24 670.73 1212.86Q669.93 1214.49 668.49 1215.4Q667.05 1216.3 665.13 1216.3M665.13 1214.29L665.13 1214.29Q666.52 1214.29 667.43 1213.59Q668.34 1212.89 668.8 1211.72Q669.26 1210.54 669.26 1209.11L669.26 1209.11Q669.26 1207.65 668.8 1206.46Q668.34 1205.27 667.43 1204.57Q666.52 1203.86 665.13 1203.86L665.13 1203.86Q663.76 1203.86 662.85 1204.57Q661.94 1205.27 661.49 1206.46Q661.03 1207.65 661.03 1209.11L661.03 1209.11Q661.03 1210.54 661.49 1211.72Q661.94 1212.89 662.85 1213.59Q663.76 1214.29 665.13 1214.29M676.82 1216L674.58 1216L674.58 1202.07L676.82 1202.07L676.82 1208.09L678.26 1208.09L683.34 1202.07L686.18 1202.07L680.51 1208.8L686.26 1216L683.41 1216L678.8 1210.17L676.82 1210.17L676.82 1216M693.47 1216.3L693.47 1216.3Q691.56 1216.3 690.13 1215.4Q688.69 1214.49 687.89 1212.86Q687.08 1211.24 687.08 1209.11L687.08 1209.11Q687.08 1206.94 687.89 1205.3Q688.69 1203.67 690.13 1202.76Q691.56 1201.84 693.47 1201.84L693.47 1201.84Q695.38 1201.84 696.83 1202.76Q698.27 1203.67 699.07 1205.3Q699.87 1206.94 699.87 1209.11L699.87 1209.11Q699.87 1211.24 699.07 1212.86Q698.27 1214.49 696.83 1215.4Q695.38 1216.3 693.47 1216.3M693.47 1214.29L693.47 1214.29Q694.85 1214.29 695.77 1213.59Q696.68 1212.89 697.14 1211.72Q697.59 1210.54 697.59 1209.11L697.59 1209.11Q697.59 1207.65 697.14 1206.46Q696.68 1205.27 695.77 1204.57Q694.85 1203.86 693.47 1203.86L693.47 1203.86Q692.1 1203.86 691.19 1204.57Q690.28 1205.27 689.82 1206.46Q689.37 1207.65 689.37 1209.11L689.37 1209.11Q689.37 1210.54 689.82 1211.72Q690.28 1212.89 691.19 1213.59Q692.1 1214.29 693.47 1214.29M703.73 1220.08L701.48 1220.08L701.48 1213.92L702.65 1213.92Q703.08 1213.47 703.4 1212.95Q703.73 1212.43 703.95 1211.72Q704.18 1211.01 704.35 1209.99Q704.51 1208.97 704.64 1207.52L704.64 1207.52L705.11 1202.07L714.22 1202.07L714.22 1213.92L716.38 1213.92L716.38 1220.08L714.15 1220.08L714.15 1216L703.73 1216L703.73 1220.08M705.21 1213.92L705.21 1213.92L711.99 1213.92L711.99 1204.16L707.15 1204.16L706.84 1207.52Q706.63 1209.72 706.28 1211.33Q705.93 1212.94 705.21 1213.92M718.07 1221.19L718.07 1221.19L718.46 1219.24L719.06 1219.29Q719.67 1219.4 720.16 1219.29Q720.65 1219.17 721.04 1218.74Q721.44 1218.3 721.73 1217.43L721.73 1217.43L722.25 1216.01L716.9 1202.07L719.35 1202.07L722.32 1210.25Q722.77 1211.46 723.1 1212.64Q723.44 1213.83 723.8 1214.96L723.8 1214.96L723.05 1214.96Q723.39 1213.83 723.73 1212.64Q724.08 1211.44 724.51 1210.25L724.51 1210.25L727.49 1202.07L729.92 1202.07L723.69 1218.25Q723.29 1219.3 722.7 1219.99Q722.12 1220.68 721.35 1221.03Q720.58 1221.37 719.63 1221.37L719.63 1221.37Q719.11 1221.37 718.71 1221.31Q718.3 1221.26 718.07 1221.19" fill="#9A958C"><title>бонус на старте по промокоду</title></path>
</svg>
