<svg width="870" height="870" viewBox="0 0 870 870" xmlns="http://www.w3.org/2000/svg">
<rect width="870" height="870" fill="#FBF7EF"/>
<rect x="0" y="0" width="30" height="30" fill="#161512"/>
<rect x="30" y="0" width="30" height="30" fill="#161512"/>
<rect x="60" y="0" width="30" height="30" fill="#161512"/>
<rect x="90" y="0" width="30" height="30" fill="#161512"/>
<rect x="120" y="0" width="30" height="30" fill="#161512"/>
<rect x="150" y="0" width="30" height="30" fill="#161512"/>
<rect x="180" y="0" width="30" height="30" fill="#161512"/>
<rect x="390" y="0" width="30" height="30" fill="#161512"/>
<rect x="480" y="0" width="30" height="30" fill="#161512"/>
<rect x="510" y="0" width="30" height="30" fill="#161512"/>
<rect x="540" y="0" width="30" height="30" fill="#161512"/>
<rect x="660" y="0" width="30" height="30" fill="#161512"/>
<rect x="690" y="0" width="30" height="30" fill="#161512"/>
<rect x="720" y="0" width="30" height="30" fill="#161512"/>
<rect x="750" y="0" width="30" height="30" fill="#161512"/>
<rect x="780" y="0" width="30" height="30" fill="#161512"/>
<rect x="810" y="0" width="30" height="30" fill="#161512"/>
<rect x="840" y="0" width="30" height="30" fill="#161512"/>
<rect x="0" y="30" width="30" height="30" fill="#161512"/>
<rect x="180" y="30" width="30" height="30" fill="#161512"/>
<rect x="270" y="30" width="30" height="30" fill="#161512"/>
<rect x="300" y="30" width="30" height="30" fill="#161512"/>
<rect x="390" y="30" width="30" height="30" fill="#161512"/>
<rect x="420" y="30" width="30" height="30" fill="#161512"/>
<rect x="450" y="30" width="30" height="30" fill="#161512"/>
<rect x="540" y="30" width="30" height="30" fill="#161512"/>
<rect x="600" y="30" width="30" height="30" fill="#161512"/>
<rect x="660" y="30" width="30" height="30" fill="#161512"/>
<rect x="840" y="30" width="30" height="30" fill="#161512"/>
<rect x="0" y="60" width="30" height="30" fill="#161512"/>
<rect x="60" y="60" width="30" height="30" fill="#161512"/>
<rect x="90" y="60" width="30" height="30" fill="#161512"/>
<rect x="120" y="60" width="30" height="30" fill="#161512"/>
<rect x="180" y="60" width="30" height="30" fill="#161512"/>
<rect x="270" y="60" width="30" height="30" fill="#161512"/>
<rect x="330" y="60" width="30" height="30" fill="#161512"/>
<rect x="360" y="60" width="30" height="30" fill="#161512"/>
<rect x="390" y="60" width="30" height="30" fill="#161512"/>
<rect x="480" y="60" width="30" height="30" fill="#161512"/>
<rect x="510" y="60" width="30" height="30" fill="#161512"/>
<rect x="660" y="60" width="30" height="30" fill="#161512"/>
<rect x="720" y="60" width="30" height="30" fill="#161512"/>
<rect x="750" y="60" width="30" height="30" fill="#161512"/>
<rect x="780" y="60" width="30" height="30" fill="#161512"/>
<rect x="840" y="60" width="30" height="30" fill="#161512"/>
<rect x="0" y="90" width="30" height="30" fill="#161512"/>
<rect x="60" y="90" width="30" height="30" fill="#161512"/>
<rect x="90" y="90" width="30" height="30" fill="#161512"/>
<rect x="120" y="90" width="30" height="30" fill="#161512"/>
<rect x="180" y="90" width="30" height="30" fill="#161512"/>
<rect x="300" y="90" width="30" height="30" fill="#161512"/>
<rect x="330" y="90" width="30" height="30" fill="#161512"/>
<rect x="390" y="90" width="30" height="30" fill="#161512"/>
<rect x="420" y="90" width="30" height="30" fill="#161512"/>
<rect x="450" y="90" width="30" height="30" fill="#161512"/>
<rect x="510" y="90" width="30" height="30" fill="#161512"/>
<rect x="540" y="90" width="30" height="30" fill="#161512"/>
<rect x="600" y="90" width="30" height="30" fill="#161512"/>
<rect x="660" y="90" width="30" height="30" fill="#161512"/>
<rect x="720" y="90" width="30" height="30" fill="#161512"/>
<rect x="750" y="90" width="30" height="30" fill="#161512"/>
<rect x="780" y="90" width="30" height="30" fill="#161512"/>
<rect x="840" y="90" width="30" height="30" fill="#161512"/>
<rect x="0" y="120" width="30" height="30" fill="#161512"/>
<rect x="60" y="120" width="30" height="30" fill="#161512"/>
<rect x="90" y="120" width="30" height="30" fill="#161512"/>
<rect x="120" y="120" width="30" height="30" fill="#161512"/>
<rect x="180" y="120" width="30" height="30" fill="#161512"/>
<rect x="270" y="120" width="30" height="30" fill="#161512"/>
<rect x="330" y="120" width="30" height="30" fill="#161512"/>
<rect x="390" y="120" width="30" height="30" fill="#161512"/>
<rect x="420" y="120" width="30" height="30" fill="#161512"/>
<rect x="480" y="120" width="30" height="30" fill="#161512"/>
<rect x="570" y="120" width="30" height="30" fill="#161512"/>
<rect x="660" y="120" width="30" height="30" fill="#161512"/>
<rect x="720" y="120" width="30" height="30" fill="#161512"/>
<rect x="750" y="120" width="30" height="30" fill="#161512"/>
<rect x="780" y="120" width="30" height="30" fill="#161512"/>
<rect x="840" y="120" width="30" height="30" fill="#161512"/>
<rect x="0" y="150" width="30" height="30" fill="#161512"/>
<rect x="180" y="150" width="30" height="30" fill="#161512"/>
<rect x="240" y="150" width="30" height="30" fill="#161512"/>
<rect x="300" y="150" width="30" height="30" fill="#161512"/>
<rect x="330" y="150" width="30" height="30" fill="#161512"/>
<rect x="360" y="150" width="30" height="30" fill="#161512"/>
<rect x="390" y="150" width="30" height="30" fill="#161512"/>
<rect x="420" y="150" width="30" height="30" fill="#161512"/>
<rect x="540" y="150" width="30" height="30" fill="#161512"/>
<rect x="570" y="150" width="30" height="30" fill="#161512"/>
<rect x="660" y="150" width="30" height="30" fill="#161512"/>
<rect x="840" y="150" width="30" height="30" fill="#161512"/>
<rect x="0" y="180" width="30" height="30" fill="#161512"/>
<rect x="30" y="180" width="30" height="30" fill="#161512"/>
<rect x="60" y="180" width="30" height="30" fill="#161512"/>
<rect x="90" y="180" width="30" height="30" fill="#161512"/>
<rect x="120" y="180" width="30" height="30" fill="#161512"/>
<rect x="150" y="180" width="30" height="30" fill="#161512"/>
<rect x="180" y="180" width="30" height="30" fill="#161512"/>
<rect x="240" y="180" width="30" height="30" fill="#161512"/>
<rect x="300" y="180" width="30" height="30" fill="#161512"/>
<rect x="360" y="180" width="30" height="30" fill="#161512"/>
<rect x="420" y="180" width="30" height="30" fill="#161512"/>
<rect x="480" y="180" width="30" height="30" fill="#161512"/>
<rect x="540" y="180" width="30" height="30" fill="#161512"/>
<rect x="600" y="180" width="30" height="30" fill="#161512"/>
<rect x="660" y="180" width="30" height="30" fill="#161512"/>
<rect x="690" y="180" width="30" height="30" fill="#161512"/>
<rect x="720" y="180" width="30" height="30" fill="#161512"/>
<rect x="750" y="180" width="30" height="30" fill="#161512"/>
<rect x="780" y="180" width="30" height="30" fill="#161512"/>
<rect x="810" y="180" width="30" height="30" fill="#161512"/>
<rect x="840" y="180" width="30" height="30" fill="#161512"/>
<rect x="420" y="210" width="30" height="30" fill="#161512"/>
<rect x="510" y="210" width="30" height="30" fill="#161512"/>
<rect x="540" y="210" width="30" height="30" fill="#161512"/>
<rect x="570" y="210" width="30" height="30" fill="#161512"/>
<rect x="600" y="210" width="30" height="30" fill="#161512"/>
<rect x="0" y="240" width="30" height="30" fill="#161512"/>
<rect x="90" y="240" width="30" height="30" fill="#161512"/>
<rect x="150" y="240" width="30" height="30" fill="#161512"/>
<rect x="180" y="240" width="30" height="30" fill="#161512"/>
<rect x="240" y="240" width="30" height="30" fill="#161512"/>
<rect x="300" y="240" width="30" height="30" fill="#161512"/>
<rect x="330" y="240" width="30" height="30" fill="#161512"/>
<rect x="360" y="240" width="30" height="30" fill="#161512"/>
<rect x="450" y="240" width="30" height="30" fill="#161512"/>
<rect x="510" y="240" width="30" height="30" fill="#161512"/>
<rect x="570" y="240" width="30" height="30" fill="#161512"/>
<rect x="630" y="240" width="30" height="30" fill="#161512"/>
<rect x="690" y="240" width="30" height="30" fill="#161512"/>
<rect x="0" y="270" width="30" height="30" fill="#161512"/>
<rect x="120" y="270" width="30" height="30" fill="#161512"/>
<rect x="150" y="270" width="30" height="30" fill="#161512"/>
<rect x="300" y="270" width="30" height="30" fill="#161512"/>
<rect x="330" y="270" width="30" height="30" fill="#161512"/>
<rect x="420" y="270" width="30" height="30" fill="#161512"/>
<rect x="450" y="270" width="30" height="30" fill="#161512"/>
<rect x="510" y="270" width="30" height="30" fill="#161512"/>
<rect x="540" y="270" width="30" height="30" fill="#161512"/>
<rect x="660" y="270" width="30" height="30" fill="#161512"/>
<rect x="750" y="270" width="30" height="30" fill="#161512"/>
<rect x="840" y="270" width="30" height="30" fill="#161512"/>
<rect x="60" y="300" width="30" height="30" fill="#161512"/>
<rect x="90" y="300" width="30" height="30" fill="#161512"/>
<rect x="120" y="300" width="30" height="30" fill="#161512"/>
<rect x="180" y="300" width="30" height="30" fill="#161512"/>
<rect x="210" y="300" width="30" height="30" fill="#161512"/>
<rect x="270" y="300" width="30" height="30" fill="#161512"/>
<rect x="300" y="300" width="30" height="30" fill="#161512"/>
<rect x="330" y="300" width="30" height="30" fill="#161512"/>
<rect x="360" y="300" width="30" height="30" fill="#161512"/>
<rect x="480" y="300" width="30" height="30" fill="#161512"/>
<rect x="510" y="300" width="30" height="30" fill="#161512"/>
<rect x="540" y="300" width="30" height="30" fill="#161512"/>
<rect x="570" y="300" width="30" height="30" fill="#161512"/>
<rect x="600" y="300" width="30" height="30" fill="#161512"/>
<rect x="660" y="300" width="30" height="30" fill="#161512"/>
<rect x="720" y="300" width="30" height="30" fill="#161512"/>
<rect x="750" y="300" width="30" height="30" fill="#161512"/>
<rect x="780" y="300" width="30" height="30" fill="#161512"/>
<rect x="810" y="300" width="30" height="30" fill="#161512"/>
<rect x="60" y="330" width="30" height="30" fill="#161512"/>
<rect x="210" y="330" width="30" height="30" fill="#161512"/>
<rect x="240" y="330" width="30" height="30" fill="#161512"/>
<rect x="360" y="330" width="30" height="30" fill="#161512"/>
<rect x="420" y="330" width="30" height="30" fill="#161512"/>
<rect x="450" y="330" width="30" height="30" fill="#161512"/>
<rect x="600" y="330" width="30" height="30" fill="#161512"/>
<rect x="690" y="330" width="30" height="30" fill="#161512"/>
<rect x="780" y="330" width="30" height="30" fill="#161512"/>
<rect x="810" y="330" width="30" height="30" fill="#161512"/>
<rect x="30" y="360" width="30" height="30" fill="#161512"/>
<rect x="60" y="360" width="30" height="30" fill="#161512"/>
<rect x="90" y="360" width="30" height="30" fill="#161512"/>
<rect x="120" y="360" width="30" height="30" fill="#161512"/>
<rect x="180" y="360" width="30" height="30" fill="#161512"/>
<rect x="240" y="360" width="30" height="30" fill="#161512"/>
<rect x="270" y="360" width="30" height="30" fill="#161512"/>
<rect x="330" y="360" width="30" height="30" fill="#161512"/>
<rect x="360" y="360" width="30" height="30" fill="#161512"/>
<rect x="480" y="360" width="30" height="30" fill="#161512"/>
<rect x="660" y="360" width="30" height="30" fill="#161512"/>
<rect x="690" y="360" width="30" height="30" fill="#161512"/>
<rect x="750" y="360" width="30" height="30" fill="#161512"/>
<rect x="810" y="360" width="30" height="30" fill="#161512"/>
<rect x="840" y="360" width="30" height="30" fill="#161512"/>
<rect x="30" y="390" width="30" height="30" fill="#161512"/>
<rect x="90" y="390" width="30" height="30" fill="#161512"/>
<rect x="120" y="390" width="30" height="30" fill="#161512"/>
<rect x="150" y="390" width="30" height="30" fill="#161512"/>
<rect x="240" y="390" width="30" height="30" fill="#161512"/>
<rect x="300" y="390" width="30" height="30" fill="#161512"/>
<rect x="330" y="390" width="30" height="30" fill="#161512"/>
<rect x="450" y="390" width="30" height="30" fill="#161512"/>
<rect x="540" y="390" width="30" height="30" fill="#161512"/>
<rect x="570" y="390" width="30" height="30" fill="#161512"/>
<rect x="600" y="390" width="30" height="30" fill="#161512"/>
<rect x="630" y="390" width="30" height="30" fill="#161512"/>
<rect x="60" y="420" width="30" height="30" fill="#161512"/>
<rect x="90" y="420" width="30" height="30" fill="#161512"/>
<rect x="150" y="420" width="30" height="30" fill="#161512"/>
<rect x="180" y="420" width="30" height="30" fill="#161512"/>
<rect x="300" y="420" width="30" height="30" fill="#161512"/>
<rect x="330" y="420" width="30" height="30" fill="#161512"/>
<rect x="450" y="420" width="30" height="30" fill="#161512"/>
<rect x="480" y="420" width="30" height="30" fill="#161512"/>
<rect x="600" y="420" width="30" height="30" fill="#161512"/>
<rect x="630" y="420" width="30" height="30" fill="#161512"/>
<rect x="690" y="420" width="30" height="30" fill="#161512"/>
<rect x="750" y="420" width="30" height="30" fill="#161512"/>
<rect x="780" y="420" width="30" height="30" fill="#161512"/>
<rect x="810" y="420" width="30" height="30" fill="#161512"/>
<rect x="840" y="420" width="30" height="30" fill="#161512"/>
<rect x="60" y="450" width="30" height="30" fill="#161512"/>
<rect x="90" y="450" width="30" height="30" fill="#161512"/>
<rect x="120" y="450" width="30" height="30" fill="#161512"/>
<rect x="360" y="450" width="30" height="30" fill="#161512"/>
<rect x="390" y="450" width="30" height="30" fill="#161512"/>
<rect x="420" y="450" width="30" height="30" fill="#161512"/>
<rect x="480" y="450" width="30" height="30" fill="#161512"/>
<rect x="510" y="450" width="30" height="30" fill="#161512"/>
<rect x="540" y="450" width="30" height="30" fill="#161512"/>
<rect x="600" y="450" width="30" height="30" fill="#161512"/>
<rect x="630" y="450" width="30" height="30" fill="#161512"/>
<rect x="660" y="450" width="30" height="30" fill="#161512"/>
<rect x="720" y="450" width="30" height="30" fill="#161512"/>
<rect x="750" y="450" width="30" height="30" fill="#161512"/>
<rect x="810" y="450" width="30" height="30" fill="#161512"/>
<rect x="0" y="480" width="30" height="30" fill="#161512"/>
<rect x="180" y="480" width="30" height="30" fill="#161512"/>
<rect x="270" y="480" width="30" height="30" fill="#161512"/>
<rect x="300" y="480" width="30" height="30" fill="#161512"/>
<rect x="390" y="480" width="30" height="30" fill="#161512"/>
<rect x="420" y="480" width="30" height="30" fill="#161512"/>
<rect x="450" y="480" width="30" height="30" fill="#161512"/>
<rect x="480" y="480" width="30" height="30" fill="#161512"/>
<rect x="600" y="480" width="30" height="30" fill="#161512"/>
<rect x="630" y="480" width="30" height="30" fill="#161512"/>
<rect x="810" y="480" width="30" height="30" fill="#161512"/>
<rect x="30" y="510" width="30" height="30" fill="#161512"/>
<rect x="60" y="510" width="30" height="30" fill="#161512"/>
<rect x="90" y="510" width="30" height="30" fill="#161512"/>
<rect x="150" y="510" width="30" height="30" fill="#161512"/>
<rect x="210" y="510" width="30" height="30" fill="#161512"/>
<rect x="240" y="510" width="30" height="30" fill="#161512"/>
<rect x="300" y="510" width="30" height="30" fill="#161512"/>
<rect x="330" y="510" width="30" height="30" fill="#161512"/>
<rect x="450" y="510" width="30" height="30" fill="#161512"/>
<rect x="600" y="510" width="30" height="30" fill="#161512"/>
<rect x="630" y="510" width="30" height="30" fill="#161512"/>
<rect x="660" y="510" width="30" height="30" fill="#161512"/>
<rect x="690" y="510" width="30" height="30" fill="#161512"/>
<rect x="750" y="510" width="30" height="30" fill="#161512"/>
<rect x="840" y="510" width="30" height="30" fill="#161512"/>
<rect x="0" y="540" width="30" height="30" fill="#161512"/>
<rect x="60" y="540" width="30" height="30" fill="#161512"/>
<rect x="120" y="540" width="30" height="30" fill="#161512"/>
<rect x="150" y="540" width="30" height="30" fill="#161512"/>
<rect x="180" y="540" width="30" height="30" fill="#161512"/>
<rect x="240" y="540" width="30" height="30" fill="#161512"/>
<rect x="300" y="540" width="30" height="30" fill="#161512"/>
<rect x="390" y="540" width="30" height="30" fill="#161512"/>
<rect x="510" y="540" width="30" height="30" fill="#161512"/>
<rect x="540" y="540" width="30" height="30" fill="#161512"/>
<rect x="600" y="540" width="30" height="30" fill="#161512"/>
<rect x="630" y="540" width="30" height="30" fill="#161512"/>
<rect x="660" y="540" width="30" height="30" fill="#161512"/>
<rect x="690" y="540" width="30" height="30" fill="#161512"/>
<rect x="810" y="540" width="30" height="30" fill="#161512"/>
<rect x="840" y="540" width="30" height="30" fill="#161512"/>
<rect x="60" y="570" width="30" height="30" fill="#161512"/>
<rect x="270" y="570" width="30" height="30" fill="#161512"/>
<rect x="300" y="570" width="30" height="30" fill="#161512"/>
<rect x="390" y="570" width="30" height="30" fill="#161512"/>
<rect x="450" y="570" width="30" height="30" fill="#161512"/>
<rect x="480" y="570" width="30" height="30" fill="#161512"/>
<rect x="510" y="570" width="30" height="30" fill="#161512"/>
<rect x="540" y="570" width="30" height="30" fill="#161512"/>
<rect x="600" y="570" width="30" height="30" fill="#161512"/>
<rect x="630" y="570" width="30" height="30" fill="#161512"/>
<rect x="720" y="570" width="30" height="30" fill="#161512"/>
<rect x="810" y="570" width="30" height="30" fill="#161512"/>
<rect x="840" y="570" width="30" height="30" fill="#161512"/>
<rect x="0" y="600" width="30" height="30" fill="#161512"/>
<rect x="60" y="600" width="30" height="30" fill="#161512"/>
<rect x="180" y="600" width="30" height="30" fill="#161512"/>
<rect x="210" y="600" width="30" height="30" fill="#161512"/>
<rect x="240" y="600" width="30" height="30" fill="#161512"/>
<rect x="270" y="600" width="30" height="30" fill="#161512"/>
<rect x="300" y="600" width="30" height="30" fill="#161512"/>
<rect x="330" y="600" width="30" height="30" fill="#161512"/>
<rect x="360" y="600" width="30" height="30" fill="#161512"/>
<rect x="420" y="600" width="30" height="30" fill="#161512"/>
<rect x="480" y="600" width="30" height="30" fill="#161512"/>
<rect x="510" y="600" width="30" height="30" fill="#161512"/>
<rect x="600" y="600" width="30" height="30" fill="#161512"/>
<rect x="630" y="600" width="30" height="30" fill="#161512"/>
<rect x="660" y="600" width="30" height="30" fill="#161512"/>
<rect x="690" y="600" width="30" height="30" fill="#161512"/>
<rect x="720" y="600" width="30" height="30" fill="#161512"/>
<rect x="780" y="600" width="30" height="30" fill="#161512"/>
<rect x="240" y="630" width="30" height="30" fill="#161512"/>
<rect x="330" y="630" width="30" height="30" fill="#161512"/>
<rect x="390" y="630" width="30" height="30" fill="#161512"/>
<rect x="450" y="630" width="30" height="30" fill="#161512"/>
<rect x="480" y="630" width="30" height="30" fill="#161512"/>
<rect x="600" y="630" width="30" height="30" fill="#161512"/>
<rect x="720" y="630" width="30" height="30" fill="#161512"/>
<rect x="780" y="630" width="30" height="30" fill="#161512"/>
<rect x="810" y="630" width="30" height="30" fill="#161512"/>
<rect x="840" y="630" width="30" height="30" fill="#161512"/>
<rect x="0" y="660" width="30" height="30" fill="#161512"/>
<rect x="30" y="660" width="30" height="30" fill="#161512"/>
<rect x="60" y="660" width="30" height="30" fill="#161512"/>
<rect x="90" y="660" width="30" height="30" fill="#161512"/>
<rect x="120" y="660" width="30" height="30" fill="#161512"/>
<rect x="150" y="660" width="30" height="30" fill="#161512"/>
<rect x="180" y="660" width="30" height="30" fill="#161512"/>
<rect x="390" y="660" width="30" height="30" fill="#161512"/>
<rect x="420" y="660" width="30" height="30" fill="#161512"/>
<rect x="450" y="660" width="30" height="30" fill="#161512"/>
<rect x="510" y="660" width="30" height="30" fill="#161512"/>
<rect x="600" y="660" width="30" height="30" fill="#161512"/>
<rect x="660" y="660" width="30" height="30" fill="#161512"/>
<rect x="720" y="660" width="30" height="30" fill="#161512"/>
<rect x="810" y="660" width="30" height="30" fill="#161512"/>
<rect x="0" y="690" width="30" height="30" fill="#161512"/>
<rect x="180" y="690" width="30" height="30" fill="#161512"/>
<rect x="240" y="690" width="30" height="30" fill="#161512"/>
<rect x="300" y="690" width="30" height="30" fill="#161512"/>
<rect x="390" y="690" width="30" height="30" fill="#161512"/>
<rect x="480" y="690" width="30" height="30" fill="#161512"/>
<rect x="540" y="690" width="30" height="30" fill="#161512"/>
<rect x="600" y="690" width="30" height="30" fill="#161512"/>
<rect x="720" y="690" width="30" height="30" fill="#161512"/>
<rect x="750" y="690" width="30" height="30" fill="#161512"/>
<rect x="780" y="690" width="30" height="30" fill="#161512"/>
<rect x="810" y="690" width="30" height="30" fill="#161512"/>
<rect x="840" y="690" width="30" height="30" fill="#161512"/>
<rect x="0" y="720" width="30" height="30" fill="#161512"/>
<rect x="60" y="720" width="30" height="30" fill="#161512"/>
<rect x="90" y="720" width="30" height="30" fill="#161512"/>
<rect x="120" y="720" width="30" height="30" fill="#161512"/>
<rect x="180" y="720" width="30" height="30" fill="#161512"/>
<rect x="330" y="720" width="30" height="30" fill="#161512"/>
<rect x="420" y="720" width="30" height="30" fill="#161512"/>
<rect x="450" y="720" width="30" height="30" fill="#161512"/>
<rect x="480" y="720" width="30" height="30" fill="#161512"/>
<rect x="600" y="720" width="30" height="30" fill="#161512"/>
<rect x="630" y="720" width="30" height="30" fill="#161512"/>
<rect x="660" y="720" width="30" height="30" fill="#161512"/>
<rect x="690" y="720" width="30" height="30" fill="#161512"/>
<rect x="720" y="720" width="30" height="30" fill="#161512"/>
<rect x="810" y="720" width="30" height="30" fill="#161512"/>
<rect x="0" y="750" width="30" height="30" fill="#161512"/>
<rect x="60" y="750" width="30" height="30" fill="#161512"/>
<rect x="90" y="750" width="30" height="30" fill="#161512"/>
<rect x="120" y="750" width="30" height="30" fill="#161512"/>
<rect x="180" y="750" width="30" height="30" fill="#161512"/>
<rect x="240" y="750" width="30" height="30" fill="#161512"/>
<rect x="270" y="750" width="30" height="30" fill="#161512"/>
<rect x="300" y="750" width="30" height="30" fill="#161512"/>
<rect x="330" y="750" width="30" height="30" fill="#161512"/>
<rect x="360" y="750" width="30" height="30" fill="#161512"/>
<rect x="420" y="750" width="30" height="30" fill="#161512"/>
<rect x="450" y="750" width="30" height="30" fill="#161512"/>
<rect x="480" y="750" width="30" height="30" fill="#161512"/>
<rect x="510" y="750" width="30" height="30" fill="#161512"/>
<rect x="570" y="750" width="30" height="30" fill="#161512"/>
<rect x="600" y="750" width="30" height="30" fill="#161512"/>
<rect x="660" y="750" width="30" height="30" fill="#161512"/>
<rect x="690" y="750" width="30" height="30" fill="#161512"/>
<rect x="720" y="750" width="30" height="30" fill="#161512"/>
<rect x="750" y="750" width="30" height="30" fill="#161512"/>
<rect x="780" y="750" width="30" height="30" fill="#161512"/>
<rect x="840" y="750" width="30" height="30" fill="#161512"/>
<rect x="0" y="780" width="30" height="30" fill="#161512"/>
<rect x="60" y="780" width="30" height="30" fill="#161512"/>
<rect x="90" y="780" width="30" height="30" fill="#161512"/>
<rect x="120" y="780" width="30" height="30" fill="#161512"/>
<rect x="180" y="780" width="30" height="30" fill="#161512"/>
<rect x="270" y="780" width="30" height="30" fill="#161512"/>
<rect x="330" y="780" width="30" height="30" fill="#161512"/>
<rect x="360" y="780" width="30" height="30" fill="#161512"/>
<rect x="510" y="780" width="30" height="30" fill="#161512"/>
<rect x="720" y="780" width="30" height="30" fill="#161512"/>
<rect x="750" y="780" width="30" height="30" fill="#161512"/>
<rect x="780" y="780" width="30" height="30" fill="#161512"/>
<rect x="840" y="780" width="30" height="30" fill="#161512"/>
<rect x="0" y="810" width="30" height="30" fill="#161512"/>
<rect x="180" y="810" width="30" height="30" fill="#161512"/>
<rect x="270" y="810" width="30" height="30" fill="#161512"/>
<rect x="420" y="810" width="30" height="30" fill="#161512"/>
<rect x="450" y="810" width="30" height="30" fill="#161512"/>
<rect x="480" y="810" width="30" height="30" fill="#161512"/>
<rect x="510" y="810" width="30" height="30" fill="#161512"/>
<rect x="600" y="810" width="30" height="30" fill="#161512"/>
<rect x="630" y="810" width="30" height="30" fill="#161512"/>
<rect x="810" y="810" width="30" height="30" fill="#161512"/>
<rect x="0" y="840" width="30" height="30" fill="#161512"/>
<rect x="30" y="840" width="30" height="30" fill="#161512"/>
<rect x="60" y="840" width="30" height="30" fill="#161512"/>
<rect x="90" y="840" width="30" height="30" fill="#161512"/>
<rect x="120" y="840" width="30" height="30" fill="#161512"/>
<rect x="150" y="840" width="30" height="30" fill="#161512"/>
<rect x="180" y="840" width="30" height="30" fill="#161512"/>
<rect x="240" y="840" width="30" height="30" fill="#161512"/>
<rect x="300" y="840" width="30" height="30" fill="#161512"/>
<rect x="330" y="840" width="30" height="30" fill="#161512"/>
<rect x="360" y="840" width="30" height="30" fill="#161512"/>
<rect x="390" y="840" width="30" height="30" fill="#161512"/>
<rect x="600" y="840" width="30" height="30" fill="#161512"/>
<rect x="630" y="840" width="30" height="30" fill="#161512"/>
<rect x="690" y="840" width="30" height="30" fill="#161512"/>
<rect x="750" y="840" width="30" height="30" fill="#161512"/>
<rect x="810" y="840" width="30" height="30" fill="#161512"/>
</svg>