<svg width="1080" height="1920" viewBox="0 0 1080 1920" xmlns="http://www.w3.org/2000/svg" role="img" aria-label="Monty — From an idea to a reel in 4 minutes">
<defs>
  <filter id="grain" x="0" y="0" width="100%" height="100%">
    <feTurbulence type="fractalNoise" baseFrequency="0.9" numOctaves="3" seed="7" result="n"/>
    <feColorMatrix in="n" type="saturate" values="0"/>
  </filter>
  <filter id="drop" x="-40%" y="-40%" width="180%" height="200%">
    <feDropShadow dx="0" dy="10" stdDeviation="16" flood-color="#000000" flood-opacity="0.45"/>
  </filter>
  <filter id="dropSoft" x="-40%" y="-40%" width="180%" height="200%">
    <feDropShadow dx="0" dy="6" stdDeviation="9" flood-color="#000000" flood-opacity="0.22"/>
  </filter>
  <linearGradient id="screenGrad" x1="0" y1="0" x2="1" y2="1">
    <stop offset="0" stop-color="#2A1E5C"/><stop offset="0.5" stop-color="#161512"/><stop offset="1" stop-color="#0B0A09"/>
  </linearGradient>
  <linearGradient id="neonGrad" x1="0" y1="0" x2="1" y2="0">
    <stop offset="0" stop-color="#6C4DF6"/><stop offset="1" stop-color="#FFD21E"/>
  </linearGradient>
  <radialGradient id="gBanana">
    <stop offset="0" stop-color="#FFD21E" stop-opacity="0.85"/>
    <stop offset="0.55" stop-color="#FFD21E" stop-opacity="0.22"/>
    <stop offset="1" stop-color="#FFD21E" stop-opacity="0"/>
  </radialGradient>
  <radialGradient id="gViolet">
    <stop offset="0" stop-color="#6C4DF6" stop-opacity="0.85"/>
    <stop offset="0.55" stop-color="#6C4DF6" stop-opacity="0.22"/>
    <stop offset="1" stop-color="#6C4DF6" stop-opacity="0"/>
  </radialGradient></defs>
<rect width="1080" height="1920" fill="#FBF7EF"/>
<circle cx="540" cy="300" r="520" fill="url(#gBanana)" opacity="0.45"/>
<circle cx="900" cy="1700" r="420" fill="url(#gViolet)" opacity="0.18"/>
<rect width="1080" height="1920" filter="url(#grain)" opacity="0.04"/>
<g transform="translate(72,84) scale(0.375)">
    <circle cx="30" cy="52" r="19" fill="#161512"/><circle cx="98" cy="52" r="19" fill="#161512"/>
    <circle cx="30" cy="52" r="9" fill="#FFD21E"/><circle cx="98" cy="52" r="9" fill="#FFD21E"/>
    <rect x="28" y="26" width="72" height="80" rx="36" fill="#161512"/>
    <circle cx="64" cy="70" r="30" fill="#FBF7EF"/>
    <path d="M57 55 L57 85 L84 70 Z" fill="#FFD21E" stroke="#FFD21E" stroke-width="5" stroke-linejoin="round"/>
  </g><path d="M135.77 121.92L130.57 121.92L130.57 101.45L135.69 101.45L135.69 103.67L136.43 103.67Q136.97 102.64 138.21 101.88Q139.44 101.11 141.47 101.11L141.47 101.11Q143.66 101.11 144.98 101.96Q146.3 102.81 147 104.17L147 104.17L147.74 104.17Q148.44 102.85 149.72 101.98Q151 101.11 153.36 101.11L153.36 101.11Q155.26 101.11 156.8 101.92Q158.35 102.72 159.28 104.36Q160.21 105.99 160.21 108.46L160.21 108.46L160.21 121.92L155.01 121.92L155.01 108.83Q155.01 107.14 154.14 106.3Q153.27 105.45 151.7 105.45L151.7 105.45Q149.93 105.45 148.96 106.58Q147.99 107.72 147.99 109.82L147.99 109.82L147.99 121.92L142.79 121.92L142.79 108.83Q142.79 107.14 141.92 106.3Q141.05 105.45 139.49 105.45L139.49 105.45Q137.71 105.45 136.74 106.58Q135.77 107.72 135.77 109.82L135.77 109.82L135.77 121.92M174.33 122.5L174.33 122.5Q171.27 122.5 168.84 121.26Q166.4 120.02 165 117.67Q163.59 115.32 163.59 112.01L163.59 112.01L163.59 111.35Q163.59 108.05 165 105.7Q166.4 103.34 168.84 102.11Q171.27 100.87 174.33 100.87L174.33 100.87Q177.38 100.87 179.82 102.11Q182.25 103.34 183.66 105.7Q185.06 108.05 185.06 111.35L185.06 111.35L185.06 112.01Q185.06 115.32 183.66 117.67Q182.25 120.02 179.82 121.26Q177.38 122.5 174.33 122.5M174.33 117.87L174.33 117.87Q176.72 117.87 178.29 116.33Q179.86 114.78 179.86 111.89L179.86 111.89L179.86 111.48Q179.86 108.59 178.31 107.04Q176.76 105.49 174.33 105.49L174.33 105.49Q171.93 105.49 170.36 107.04Q168.79 108.59 168.79 111.48L168.79 111.48L168.79 111.89Q168.79 114.78 170.36 116.33Q171.93 117.87 174.33 117.87M193.81 121.92L188.61 121.92L188.61 101.45L193.73 101.45L193.73 104.13L194.47 104.13Q194.97 103.06 196.33 102.08Q197.69 101.11 200.46 101.11L200.46 101.11Q202.85 101.11 204.65 102.21Q206.44 103.3 207.43 105.22Q208.42 107.14 208.42 109.7L208.42 109.7L208.42 121.92L203.22 121.92L203.22 110.11Q203.22 107.8 202.09 106.65Q200.95 105.49 198.85 105.49L198.85 105.49Q196.45 105.49 195.13 107.08Q193.81 108.67 193.81 111.52L193.81 111.52L193.81 121.92M225.84 121.92L220.06 121.92Q218.04 121.92 216.78 120.66Q215.52 119.4 215.52 117.3L215.52 117.3L215.52 105.74L210.41 105.74L210.41 101.45L215.52 101.45L215.52 95.09L220.73 95.09L220.73 101.45L226.34 101.45L226.34 105.74L220.73 105.74L220.73 116.39Q220.73 117.63 221.88 117.63L221.88 117.63L225.84 117.63L225.84 121.92M244.92 130.18L232.04 130.18L232.04 125.64L243.18 125.64Q244.34 125.64 244.34 124.4L244.34 124.4L244.34 119.24L243.59 119.24Q243.26 119.94 242.56 120.64Q241.86 121.34 240.66 121.8Q239.47 122.25 237.61 122.25L237.61 122.25Q235.21 122.25 233.42 121.16Q231.62 120.06 230.63 118.12Q229.64 116.18 229.64 113.66L229.64 113.66L229.64 101.45L234.84 101.45L234.84 113.25Q234.84 115.56 235.98 116.72Q237.11 117.87 239.22 117.87L239.22 117.87Q241.61 117.87 242.93 116.29Q244.25 114.7 244.25 111.85L244.25 111.85L244.25 101.45L249.46 101.45L249.46 125.55Q249.46 127.66 248.22 128.92Q246.98 130.18 244.92 130.18L244.92 130.18" fill="#161512"><title>monty</title></path>
<rect x="72" y="300" width="936" height="1060" rx="40" fill="#161512" opacity="0.06"/>
<rect x="72" y="300" width="936" height="1060" rx="40" fill="none" stroke="#161512" stroke-width="4" stroke-dasharray="22 18" opacity="0.35"/>
<path d="M437.85 836.15L437.85 836.15Q435.71 836.15 434.04 835.63Q432.37 835.1 430.81 834.01L430.81 834.01L430.81 829.18Q432.41 830.2 433.8 830.65Q435.2 831.09 436.86 831.09L436.86 831.09Q438.26 831.09 439.34 830.48Q440.43 829.86 441.11 828.23L441.11 828.23L448.56 810.59L455.94 810.59L446.62 830.37Q445.63 832.52 444.22 833.79Q442.81 835.07 441.18 835.61Q439.55 836.15 437.85 836.15M444.78 828.2L438.09 828.2L429.82 810.59L437.47 810.59L444.78 828.2M469.09 830.54L469.09 830.54Q465.35 830.54 462.57 829.27Q459.78 827.99 458.21 825.67Q456.65 823.34 456.65 820.31L456.65 820.31Q456.65 817.22 458.21 814.9Q459.78 812.59 462.57 811.3Q465.35 810.01 469.09 810.01L469.09 810.01Q472.8 810.01 475.6 811.3Q478.41 812.59 479.97 814.9Q481.54 817.22 481.54 820.31L481.54 820.31Q481.54 823.34 479.97 825.67Q478.41 827.99 475.6 829.27Q472.8 830.54 469.09 830.54M469.09 825.41L469.09 825.41Q470.79 825.41 472 824.8Q473.21 824.19 473.85 823.03Q474.5 821.87 474.5 820.31L474.5 820.31Q474.5 818.68 473.85 817.54Q473.21 816.4 472 815.79Q470.79 815.18 469.09 815.18L469.09 815.18Q467.39 815.18 466.17 815.79Q464.95 816.4 464.3 817.54Q463.65 818.68 463.65 820.28L463.65 820.28Q463.65 821.87 464.3 823.03Q464.95 824.19 466.17 824.8Q467.39 825.41 469.09 825.41M492.49 830.54L492.49 830.54Q489.77 830.54 487.84 829.42Q485.92 828.3 484.9 826.24Q483.88 824.19 483.88 821.43L483.88 821.43L483.88 810.59L490.82 810.59L490.82 820.45Q490.82 822.59 491.87 823.74Q492.93 824.9 494.9 824.9L494.9 824.9Q496.36 824.9 497.35 824.31Q498.33 823.71 498.88 822.59Q499.42 821.47 499.42 819.9L499.42 819.9L501.56 821.02Q501.19 824.12 499.88 826.24Q498.57 828.37 496.67 829.46Q494.76 830.54 492.49 830.54M507.62 830L500.68 830L499.42 822.21L499.42 810.59L506.36 810.59L506.36 823.3L507.62 830M510.57 817.11L509.28 810.59L516.35 810.59L517.51 817.52L517.51 830L510.57 830L510.57 817.11M526.62 810.28L526.62 810.28L526.62 816.2Q525.6 815.99 524.7 815.91Q523.8 815.82 523.05 815.82L523.05 815.82Q521.55 815.82 520.3 816.42Q519.04 817.01 518.27 818.37Q517.51 819.73 517.51 822.01L517.51 822.01L516.18 820.38Q516.45 818.27 517 816.42Q517.54 814.56 518.48 813.12Q519.41 811.67 520.81 810.84Q522.2 810.01 524.21 810.01L524.21 810.01Q524.79 810.01 525.4 810.08Q526.01 810.14 526.62 810.28M542.57 810.59L549.2 826.7L546.82 826.67L553.55 810.59L560.96 810.59L551.88 830L543.96 830L534.88 810.59L542.57 810.59M562.56 830L562.56 810.28L566.06 810.96L569.53 810.28L569.53 830L562.56 830M566.03 808.68L566.03 808.68Q564.23 808.68 563.1 807.78Q561.98 806.88 561.98 805.32L561.98 805.32Q561.98 803.79 563.1 802.87Q564.23 801.95 566.03 801.95L566.03 801.95Q567.9 801.95 569 802.87Q570.11 803.79 570.11 805.32L570.11 805.32Q570.11 806.88 569 807.78Q567.9 808.68 566.03 808.68M597.85 830L590.68 830L589.76 822.72L590.95 820.34L589.79 817.35L591.42 803.82L598.63 803.82L596.63 819.77L597.85 830M592.17 820.31L592.17 820.31Q591.7 823.37 590.29 825.68Q588.88 827.99 586.72 829.27Q584.56 830.54 581.8 830.54L581.8 830.54Q578.95 830.54 576.79 829.27Q574.63 827.99 573.41 825.67Q572.18 823.34 572.18 820.31L572.18 820.31Q572.18 817.22 573.41 814.9Q574.63 812.59 576.79 811.3Q578.95 810.01 581.8 810.01L581.8 810.01Q584.56 810.01 586.72 811.28Q588.88 812.56 590.3 814.85Q591.73 817.15 592.17 820.31M579.22 820.31L579.22 820.31Q579.22 821.74 579.81 822.86Q580.41 823.98 581.46 824.61Q582.52 825.24 583.88 825.24L583.88 825.24Q585.3 825.24 586.56 824.61Q587.82 823.98 588.77 822.86Q589.72 821.74 590.2 820.31L590.2 820.31Q589.72 818.85 588.77 817.73Q587.82 816.6 586.56 815.96Q585.3 815.31 583.88 815.31L583.88 815.31Q582.52 815.31 581.46 815.96Q580.41 816.6 579.81 817.73Q579.22 818.85 579.22 820.31M612.2 830.54L612.2 830.54Q608.66 830.54 605.89 829.25Q603.12 827.96 601.52 825.63Q599.92 823.3 599.92 820.21L599.92 820.21Q599.92 817.18 601.45 814.89Q602.99 812.59 605.65 811.3Q608.32 810.01 611.69 810.01L611.69 810.01Q615.19 810.01 617.66 811.52Q620.12 813.03 621.46 815.79Q622.81 818.54 622.81 822.28L622.81 822.28L605.54 822.28L605.54 818.1L618.9 818.1L616.62 819.56Q616.48 818.07 615.87 817.03Q615.26 815.99 614.26 815.45Q613.25 814.9 611.86 814.9L611.86 814.9Q610.33 814.9 609.24 815.52Q608.15 816.13 607.54 817.2Q606.93 818.27 606.93 819.7L606.93 819.7Q606.93 821.53 607.76 822.81Q608.6 824.08 610.21 824.76Q611.82 825.44 614.17 825.44L614.17 825.44Q616.31 825.44 618.44 824.88Q620.56 824.32 622.3 823.3L622.3 823.3L622.3 827.72Q620.29 829.08 617.72 829.81Q615.16 830.54 612.2 830.54M636.99 830.54L636.99 830.54Q633.25 830.54 630.46 829.27Q627.67 827.99 626.1 825.67Q624.54 823.34 624.54 820.31L624.54 820.31Q624.54 817.22 626.1 814.9Q627.67 812.59 630.46 811.3Q633.25 810.01 636.99 810.01L636.99 810.01Q640.69 810.01 643.5 811.3Q646.3 812.59 647.87 814.9Q649.43 817.22 649.43 820.31L649.43 820.31Q649.43 823.34 647.87 825.67Q646.3 827.99 643.5 829.27Q640.69 830.54 636.99 830.54M636.99 825.41L636.99 825.41Q638.68 825.41 639.89 824.8Q641.1 824.19 641.75 823.03Q642.39 821.87 642.39 820.31L642.39 820.31Q642.39 818.68 641.75 817.54Q641.1 816.4 639.89 815.79Q638.68 815.18 636.99 815.18L636.99 815.18Q635.29 815.18 634.06 815.79Q632.84 816.4 632.19 817.54Q631.54 818.68 631.54 820.28L631.54 820.28Q631.54 821.87 632.19 823.03Q632.84 824.19 634.06 824.8Q635.29 825.41 636.99 825.41" fill="#161512" opacity="0.45"><title>your video</title></path>
<path d="M88.59 1488.65L88.59 1479.98L112.93 1479.98L112.93 1488.65L88.59 1488.65M83.56 1466.63L113.78 1466.63L113.78 1475.3L89.08 1475.3L93.93 1470.54L93.93 1500L83.56 1500L83.56 1466.63M116.94 1483.22L115.2 1474.5L125.62 1474.5L127.13 1483.54L127.13 1500L116.94 1500L116.94 1483.22M138.74 1474.01L138.74 1474.01L138.74 1482.69Q137.32 1482.42 136.14 1482.31Q134.96 1482.2 133.98 1482.2L133.98 1482.2Q132.16 1482.2 130.6 1482.89Q129.04 1483.58 128.09 1485.25Q127.13 1486.92 127.13 1489.85L127.13 1489.85L125.26 1487.54Q125.66 1484.78 126.35 1482.31Q127.04 1479.84 128.24 1477.91Q129.44 1475.97 131.25 1474.86Q133.05 1473.75 135.67 1473.75L135.67 1473.75Q136.39 1473.75 137.14 1473.81Q137.9 1473.88 138.74 1474.01M155.88 1500.76L155.88 1500.76Q150.94 1500.76 147.2 1499.07Q143.46 1497.37 141.37 1494.33Q139.28 1491.28 139.28 1487.27L139.28 1487.27Q139.28 1483.18 141.37 1480.13Q143.46 1477.08 147.2 1475.41Q150.94 1473.75 155.92 1473.75L155.92 1473.75Q160.86 1473.75 164.6 1475.41Q168.34 1477.08 170.41 1480.13Q172.47 1483.18 172.47 1487.27L172.47 1487.27Q172.47 1491.28 170.41 1494.33Q168.34 1497.37 164.6 1499.07Q160.86 1500.76 155.88 1500.76M155.92 1493.28L155.92 1493.28Q157.92 1493.28 159.32 1492.57Q160.73 1491.86 161.46 1490.5Q162.2 1489.14 162.2 1487.27L162.2 1487.27Q162.2 1485.36 161.46 1484Q160.73 1482.65 159.32 1481.93Q157.92 1481.22 155.92 1481.22L155.92 1481.22Q153.92 1481.22 152.49 1481.93Q151.07 1482.65 150.34 1484Q149.6 1485.36 149.6 1487.23L149.6 1487.23Q149.6 1489.14 150.34 1490.5Q151.07 1491.86 152.49 1492.57Q153.92 1493.28 155.92 1493.28M175.23 1483.49L173.5 1474.5L183.69 1474.5L185.42 1485.05L185.42 1500L175.23 1500L175.23 1483.49M194.01 1473.75L194.01 1473.75Q197.57 1473.75 200.06 1475.21Q202.56 1476.68 203.87 1479.37Q205.18 1482.07 205.18 1485.67L205.18 1485.67L205.18 1500L194.99 1500L194.99 1487.14Q194.99 1484.65 193.81 1483.31Q192.63 1481.98 190.45 1481.98L190.45 1481.98Q188.9 1481.98 187.76 1482.69Q186.63 1483.4 186.02 1484.69Q185.42 1485.98 185.42 1487.81L185.42 1487.81L182.35 1486.21Q182.93 1482.07 184.6 1479.31Q186.27 1476.55 188.72 1475.15Q191.16 1473.75 194.01 1473.75M213.73 1473.75L213.73 1473.75Q217.29 1473.75 219.8 1475.21Q222.31 1476.68 223.63 1479.37Q224.94 1482.07 224.94 1485.67L224.94 1485.67L224.94 1500L214.75 1500L214.75 1487.14Q214.75 1484.65 213.57 1483.31Q212.39 1481.98 210.21 1481.98L210.21 1481.98Q208.65 1481.98 207.52 1482.69Q206.38 1483.4 205.78 1484.69Q205.18 1485.98 205.18 1487.81L205.18 1487.81L202.11 1486.21Q202.69 1482.07 204.36 1479.31Q206.03 1476.55 208.45 1475.15Q210.88 1473.75 213.73 1473.75M270.69 1500L260.09 1500L258.89 1490.92L260.14 1487.27L258.89 1483.67L260.09 1474.5L270.69 1474.5L269 1487.23L270.69 1500M262.36 1487.27L262.36 1487.27Q261.83 1491.32 260.03 1494.37Q258.23 1497.42 255.4 1499.09Q252.57 1500.76 248.93 1500.76L248.93 1500.76Q245.23 1500.76 242.38 1499.07Q239.54 1497.37 237.96 1494.33Q236.38 1491.28 236.38 1487.27L236.38 1487.27Q236.38 1483.18 237.96 1480.13Q239.54 1477.08 242.38 1475.41Q245.23 1473.75 248.93 1473.75L248.93 1473.75Q252.57 1473.75 255.4 1475.39Q258.23 1477.04 260.05 1480.09Q261.88 1483.13 262.36 1487.27M246.66 1487.27L246.66 1487.27Q246.66 1488.96 247.35 1490.25Q248.04 1491.55 249.28 1492.3Q250.53 1493.06 252.13 1493.06L252.13 1493.06Q253.78 1493.06 255.29 1492.3Q256.8 1491.55 257.96 1490.25Q259.12 1488.96 259.65 1487.27L259.65 1487.27Q259.12 1485.58 257.96 1484.27Q256.8 1482.96 255.29 1482.2Q253.78 1481.44 252.13 1481.44L252.13 1481.44Q250.53 1481.44 249.28 1482.2Q248.04 1482.96 247.35 1484.27Q246.66 1485.58 246.66 1487.27M273.89 1483.49L272.15 1474.5L282.34 1474.5L284.08 1485.05L284.08 1500L273.89 1500L273.89 1483.49M293.16 1473.75L293.16 1473.75Q296.9 1473.75 299.48 1475.21Q302.06 1476.68 303.46 1479.37Q304.86 1482.07 304.86 1485.67L304.86 1485.67L304.86 1500L294.63 1500L294.63 1487.14Q294.63 1484.65 293.31 1483.31Q292 1481.98 289.6 1481.98L289.6 1481.98Q287.91 1481.98 286.66 1482.69Q285.42 1483.4 284.75 1484.69Q284.08 1485.98 284.08 1487.81L284.08 1487.81L281.01 1486.21Q281.59 1482.07 283.35 1479.31Q285.1 1476.55 287.64 1475.15Q290.18 1473.75 293.16 1473.75M317.28 1500L317.28 1474.01L322.4 1475.08L327.47 1474.01L327.47 1500L317.28 1500M322.4 1472.32L322.4 1472.32Q319.81 1472.32 318.21 1471.03Q316.61 1469.74 316.61 1467.56L316.61 1467.56Q316.61 1465.33 318.21 1464.04Q319.81 1462.75 322.4 1462.75L322.4 1462.75Q325.06 1462.75 326.64 1464.04Q328.22 1465.33 328.22 1467.56L328.22 1467.56Q328.22 1469.74 326.64 1471.03Q325.06 1472.32 322.4 1472.32M364.36 1500L353.77 1500L352.52 1490.48L354.17 1487.36L352.52 1483.22L354.75 1465.74L365.34 1465.74L362.62 1486.43L364.36 1500M355.81 1487.27L355.81 1487.27Q355.28 1491.32 353.48 1494.37Q351.68 1497.42 348.85 1499.09Q346.02 1500.76 342.38 1500.76L342.38 1500.76Q338.68 1500.76 335.83 1499.07Q332.99 1497.37 331.41 1494.33Q329.83 1491.28 329.83 1487.27L329.83 1487.27Q329.83 1483.18 331.41 1480.13Q332.99 1477.08 335.83 1475.41Q338.68 1473.75 342.38 1473.75L342.38 1473.75Q346.02 1473.75 348.85 1475.39Q351.68 1477.04 353.5 1480.09Q355.33 1483.13 355.81 1487.27M340.11 1487.27L340.11 1487.27Q340.11 1488.96 340.8 1490.25Q341.49 1491.55 342.73 1492.3Q343.98 1493.06 345.58 1493.06L345.58 1493.06Q347.23 1493.06 348.74 1492.3Q350.25 1491.55 351.41 1490.25Q352.57 1488.96 353.1 1487.27L353.1 1487.27Q352.57 1485.58 351.41 1484.27Q350.25 1482.96 348.74 1482.2Q347.23 1481.44 345.58 1481.44L345.58 1481.44Q343.98 1481.44 342.73 1482.2Q341.49 1482.96 340.8 1484.27Q340.11 1485.58 340.11 1487.27M382.2 1500.76L382.2 1500.76Q377.49 1500.76 373.79 1499.07Q370.1 1497.37 367.96 1494.3Q365.83 1491.23 365.83 1487.14L365.83 1487.14Q365.83 1483.13 367.9 1480.11Q369.97 1477.08 373.55 1475.41Q377.13 1473.75 381.58 1473.75L381.58 1473.75Q386.25 1473.75 389.55 1475.73Q392.84 1477.71 394.6 1481.38Q396.35 1485.05 396.35 1490.03L396.35 1490.03L374.15 1490.03L374.15 1484.2L390.48 1484.2L387.5 1486.21Q387.32 1484.47 386.61 1483.25Q385.9 1482.02 384.72 1481.4Q383.54 1480.78 381.94 1480.78L381.94 1480.78Q380.11 1480.78 378.82 1481.49Q377.53 1482.2 376.84 1483.47Q376.15 1484.74 376.15 1486.34L376.15 1486.34Q376.15 1488.61 377.15 1490.17Q378.15 1491.72 380.2 1492.55Q382.25 1493.37 385.27 1493.37L385.27 1493.37Q388.03 1493.37 390.75 1492.7Q393.46 1492.03 395.69 1490.74L395.69 1490.74L395.69 1497.06Q392.97 1498.84 389.61 1499.8Q386.25 1500.76 382.2 1500.76M431.95 1500L421.36 1500L420.16 1490.92L421.41 1487.27L420.16 1483.67L421.36 1474.5L431.95 1474.5L430.26 1487.23L431.95 1500M423.63 1487.27L423.63 1487.27Q423.1 1491.32 421.3 1494.37Q419.49 1497.42 416.67 1499.09Q413.84 1500.76 410.19 1500.76L410.19 1500.76Q406.5 1500.76 403.65 1499.07Q400.8 1497.37 399.22 1494.33Q397.64 1491.28 397.64 1487.27L397.64 1487.27Q397.64 1483.18 399.22 1480.13Q400.8 1477.08 403.65 1475.41Q406.5 1473.75 410.19 1473.75L410.19 1473.75Q413.84 1473.75 416.67 1475.39Q419.49 1477.04 421.32 1480.09Q423.14 1483.13 423.63 1487.27M407.92 1487.27L407.92 1487.27Q407.92 1488.96 408.61 1490.25Q409.3 1491.55 410.55 1492.3Q411.8 1493.06 413.4 1493.06L413.4 1493.06Q415.04 1493.06 416.56 1492.3Q418.07 1491.55 419.23 1490.25Q420.38 1488.96 420.92 1487.27L420.92 1487.27Q420.38 1485.58 419.23 1484.27Q418.07 1482.96 416.56 1482.2Q415.04 1481.44 413.4 1481.44L413.4 1481.44Q411.8 1481.44 410.55 1482.2Q409.3 1482.96 408.61 1484.27Q407.92 1485.58 407.92 1487.27M447.08 1481.98L442.01 1481.98L442.01 1477.57L447.08 1475.26L451.53 1467.6L457.32 1467.6L457.32 1474.5L467.64 1474.5L467.64 1481.98L457.32 1481.98L457.32 1488.34Q457.32 1490.92 458.32 1491.99Q459.32 1493.06 462.26 1493.06L462.26 1493.06Q464.08 1493.06 465.51 1492.77Q466.93 1492.48 468.09 1492.03L468.09 1492.03L468.09 1499.56Q466.66 1500 464.48 1500.38Q462.3 1500.76 459.9 1500.76L459.9 1500.76Q455.54 1500.76 452.71 1499.42Q449.89 1498.09 448.49 1495.59Q447.08 1493.1 447.08 1489.72L447.08 1489.72L447.08 1481.98M485.75 1500.76L485.75 1500.76Q480.82 1500.76 477.08 1499.07Q473.34 1497.37 471.25 1494.33Q469.16 1491.28 469.16 1487.27L469.16 1487.27Q469.16 1483.18 471.25 1480.13Q473.34 1477.08 477.08 1475.41Q480.82 1473.75 485.8 1473.75L485.8 1473.75Q490.74 1473.75 494.48 1475.41Q498.21 1477.08 500.28 1480.13Q502.35 1483.18 502.35 1487.27L502.35 1487.27Q502.35 1491.28 500.28 1494.33Q498.21 1497.37 494.48 1499.07Q490.74 1500.76 485.75 1500.76M485.8 1493.28L485.8 1493.28Q487.8 1493.28 489.2 1492.57Q490.61 1491.86 491.34 1490.5Q492.07 1489.14 492.07 1487.27L492.07 1487.27Q492.07 1485.36 491.34 1484Q490.61 1482.65 489.2 1481.93Q487.8 1481.22 485.8 1481.22L485.8 1481.22Q483.8 1481.22 482.37 1481.93Q480.95 1482.65 480.21 1484Q479.48 1485.36 479.48 1487.23L479.48 1487.23Q479.48 1489.14 480.21 1490.5Q480.95 1491.86 482.37 1492.57Q483.8 1493.28 485.8 1493.28M547.34 1500L536.75 1500L535.55 1490.92L536.8 1487.27L535.55 1483.67L536.75 1474.5L547.34 1474.5L545.65 1487.23L547.34 1500M539.02 1487.27L539.02 1487.27Q538.49 1491.32 536.68 1494.37Q534.88 1497.42 532.06 1499.09Q529.23 1500.76 525.58 1500.76L525.58 1500.76Q521.89 1500.76 519.04 1499.07Q516.19 1497.37 514.61 1494.33Q513.03 1491.28 513.03 1487.27L513.03 1487.27Q513.03 1483.18 514.61 1480.13Q516.19 1477.08 519.04 1475.41Q521.89 1473.75 525.58 1473.75L525.58 1473.75Q529.23 1473.75 532.06 1475.39Q534.88 1477.04 536.71 1480.09Q538.53 1483.13 539.02 1487.27M523.31 1487.27L523.31 1487.27Q523.31 1488.96 524 1490.25Q524.69 1491.55 525.94 1492.3Q527.18 1493.06 528.79 1493.06L528.79 1493.06Q530.43 1493.06 531.95 1492.3Q533.46 1491.55 534.62 1490.25Q535.77 1488.96 536.31 1487.27L536.31 1487.27Q535.77 1485.58 534.62 1484.27Q533.46 1482.96 531.95 1482.2Q530.43 1481.44 528.79 1481.44L528.79 1481.44Q527.18 1481.44 525.94 1482.2Q524.69 1482.96 524 1484.27Q523.31 1485.58 523.31 1487.27M559.98 1483.22L558.25 1474.5L568.66 1474.5L570.17 1483.54L570.17 1500L559.98 1500L559.98 1483.22M581.79 1474.01L581.79 1474.01L581.79 1482.69Q580.36 1482.42 579.18 1482.31Q578 1482.2 577.02 1482.2L577.02 1482.2Q575.2 1482.2 573.64 1482.89Q572.08 1483.58 571.13 1485.25Q570.17 1486.92 570.17 1489.85L570.17 1489.85L568.3 1487.54Q568.7 1484.78 569.39 1482.31Q570.08 1479.84 571.28 1477.91Q572.49 1475.97 574.29 1474.86Q576.09 1473.75 578.72 1473.75L578.72 1473.75Q579.43 1473.75 580.18 1473.81Q580.94 1473.88 581.79 1474.01M598.7 1500.76L598.7 1500.76Q593.98 1500.76 590.29 1499.07Q586.59 1497.37 584.46 1494.3Q582.32 1491.23 582.32 1487.14L582.32 1487.14Q582.32 1483.13 584.39 1480.11Q586.46 1477.08 590.04 1475.41Q593.62 1473.75 598.07 1473.75L598.07 1473.75Q602.75 1473.75 606.04 1475.73Q609.33 1477.71 611.09 1481.38Q612.85 1485.05 612.85 1490.03L612.85 1490.03L590.64 1490.03L590.64 1484.2L606.97 1484.2L603.99 1486.21Q603.81 1484.47 603.1 1483.25Q602.39 1482.02 601.21 1481.4Q600.03 1480.78 598.43 1480.78L598.43 1480.78Q596.6 1480.78 595.31 1481.49Q594.02 1482.2 593.33 1483.47Q592.64 1484.74 592.64 1486.34L592.64 1486.34Q592.64 1488.61 593.64 1490.17Q594.65 1491.72 596.69 1492.55Q598.74 1493.37 601.77 1493.37L601.77 1493.37Q604.53 1493.37 607.24 1492.7Q609.95 1492.03 612.18 1490.74L612.18 1490.74L612.18 1497.06Q609.46 1498.84 606.1 1499.8Q602.75 1500.76 598.7 1500.76M630.38 1500.76L630.38 1500.76Q625.66 1500.76 621.97 1499.07Q618.28 1497.37 616.14 1494.3Q614 1491.23 614 1487.14L614 1487.14Q614 1483.13 616.07 1480.11Q618.14 1477.08 621.72 1475.41Q625.31 1473.75 629.76 1473.75L629.76 1473.75Q634.43 1473.75 637.72 1475.73Q641.02 1477.71 642.77 1481.38Q644.53 1485.05 644.53 1490.03L644.53 1490.03L622.33 1490.03L622.33 1484.2L638.66 1484.2L635.68 1486.21Q635.5 1484.47 634.79 1483.25Q634.07 1482.02 632.89 1481.4Q631.71 1480.78 630.11 1480.78L630.11 1480.78Q628.29 1480.78 627 1481.49Q625.71 1482.2 625.02 1483.47Q624.33 1484.74 624.33 1486.34L624.33 1486.34Q624.33 1488.61 625.33 1490.17Q626.33 1491.72 628.38 1492.55Q630.42 1493.37 633.45 1493.37L633.45 1493.37Q636.21 1493.37 638.92 1492.7Q641.64 1492.03 643.86 1490.74L643.86 1490.74L643.86 1497.06Q641.15 1498.84 637.79 1499.8Q634.43 1500.76 630.38 1500.76M646.8 1500L646.8 1465.74L656.99 1465.74L656.99 1500L646.8 1500M669.76 1500L669.76 1474.01L674.88 1475.08L679.95 1474.01L679.95 1500L669.76 1500M674.88 1472.32L674.88 1472.32Q672.3 1472.32 670.7 1471.03Q669.09 1469.74 669.09 1467.56L669.09 1467.56Q669.09 1465.33 670.7 1464.04Q672.3 1462.75 674.88 1462.75L674.88 1462.75Q677.55 1462.75 679.13 1464.04Q680.71 1465.33 680.71 1467.56L680.71 1467.56Q680.71 1469.74 679.13 1471.03Q677.55 1472.32 674.88 1472.32M683.82 1483.49L682.09 1474.5L692.28 1474.5L694.01 1485.05L694.01 1500L683.82 1500L683.82 1483.49M703.09 1473.75L703.09 1473.75Q706.83 1473.75 709.41 1475.21Q711.99 1476.68 713.39 1479.37Q714.8 1482.07 714.8 1485.67L714.8 1485.67L714.8 1500L704.56 1500L704.56 1487.14Q704.56 1484.65 703.25 1483.31Q701.94 1481.98 699.53 1481.98L699.53 1481.98Q697.84 1481.98 696.6 1482.69Q695.35 1483.4 694.68 1484.69Q694.01 1485.98 694.01 1487.81L694.01 1487.81L690.94 1486.21Q691.52 1482.07 693.28 1479.31Q695.04 1476.55 697.57 1475.15Q700.11 1473.75 703.09 1473.75M744.39 1466.63L757.47 1466.63L757.47 1500L747.24 1500L747.24 1471.21L750.17 1471.21L733.44 1489.68L733.4 1486.52L762.5 1486.52L762.5 1494.04L726.01 1494.04L726.01 1486.78L744.39 1466.63M775 1483.49L773.27 1474.5L783.46 1474.5L785.2 1485.05L785.2 1500L775 1500L775 1483.49M793.78 1473.75L793.78 1473.75Q797.34 1473.75 799.84 1475.21Q802.33 1476.68 803.64 1479.37Q804.95 1482.07 804.95 1485.67L804.95 1485.67L804.95 1500L794.76 1500L794.76 1487.14Q794.76 1484.65 793.58 1483.31Q792.4 1481.98 790.22 1481.98L790.22 1481.98Q788.67 1481.98 787.53 1482.69Q786.4 1483.4 785.8 1484.69Q785.2 1485.98 785.2 1487.81L785.2 1487.81L782.12 1486.21Q782.7 1482.07 784.37 1479.31Q786.04 1476.55 788.49 1475.15Q790.94 1473.75 793.78 1473.75M813.5 1473.75L813.5 1473.75Q817.06 1473.75 819.57 1475.21Q822.09 1476.68 823.4 1479.37Q824.71 1482.07 824.71 1485.67L824.71 1485.67L824.71 1500L814.52 1500L814.52 1487.14Q814.52 1484.65 813.34 1483.31Q812.16 1481.98 809.98 1481.98L809.98 1481.98Q808.42 1481.98 807.29 1482.69Q806.15 1483.4 805.55 1484.69Q804.95 1485.98 804.95 1487.81L804.95 1487.81L801.88 1486.21Q802.46 1482.07 804.13 1479.31Q805.8 1476.55 808.22 1475.15Q810.65 1473.75 813.5 1473.75M827.69 1500L827.69 1474.01L832.81 1475.08L837.88 1474.01L837.88 1500L827.69 1500M832.81 1472.32L832.81 1472.32Q830.23 1472.32 828.63 1471.03Q827.03 1469.74 827.03 1467.56L827.03 1467.56Q827.03 1465.33 828.63 1464.04Q830.23 1462.75 832.81 1462.75L832.81 1462.75Q835.48 1462.75 837.06 1464.04Q838.64 1465.33 838.64 1467.56L838.64 1467.56Q838.64 1469.74 837.06 1471.03Q835.48 1472.32 832.81 1472.32M841.75 1483.49L840.02 1474.5L850.21 1474.5L851.95 1485.05L851.95 1500L841.75 1500L841.75 1483.49M861.02 1473.75L861.02 1473.75Q864.76 1473.75 867.34 1475.21Q869.92 1476.68 871.32 1479.37Q872.73 1482.07 872.73 1485.67L872.73 1485.67L872.73 1500L862.49 1500L862.49 1487.14Q862.49 1484.65 861.18 1483.31Q859.87 1481.98 857.46 1481.98L857.46 1481.98Q855.77 1481.98 854.53 1482.69Q853.28 1483.4 852.61 1484.69Q851.95 1485.98 851.95 1487.81L851.95 1487.81L848.87 1486.21Q849.45 1482.07 851.21 1479.31Q852.97 1476.55 855.51 1475.15Q858.04 1473.75 861.02 1473.75M886.74 1500.71L886.74 1500.71Q883.18 1500.71 880.63 1499.24Q878.07 1497.78 876.73 1495.08Q875.4 1492.39 875.4 1488.83L875.4 1488.83L875.4 1474.5L885.59 1474.5L885.59 1487.36Q885.59 1489.81 886.83 1491.14Q888.08 1492.48 890.35 1492.48L890.35 1492.48Q892.08 1492.48 893.24 1491.81Q894.4 1491.14 895 1489.85Q895.6 1488.56 895.6 1486.69L895.6 1486.69L898.67 1488.3Q898.14 1492.35 896.4 1495.13Q894.67 1497.91 892.2 1499.31Q889.73 1500.71 886.74 1500.71M907.53 1500L897.29 1500L895.6 1489.45L895.6 1474.5L905.79 1474.5L905.79 1491.01L907.53 1500M912.64 1481.98L907.57 1481.98L907.57 1477.57L912.64 1475.26L917.09 1467.6L922.88 1467.6L922.88 1474.5L933.2 1474.5L933.2 1481.98L922.88 1481.98L922.88 1488.34Q922.88 1490.92 923.88 1491.99Q924.88 1493.06 927.82 1493.06L927.82 1493.06Q929.64 1493.06 931.07 1492.77Q932.49 1492.48 933.65 1492.03L933.65 1492.03L933.65 1499.56Q932.22 1500 930.04 1500.38Q927.86 1500.76 925.46 1500.76L925.46 1500.76Q921.1 1500.76 918.27 1499.42Q915.45 1498.09 914.04 1495.59Q912.64 1493.1 912.64 1489.72L912.64 1489.72L912.64 1481.98M951.09 1500.76L951.09 1500.76Q946.37 1500.76 942.68 1499.07Q938.99 1497.37 936.85 1494.3Q934.72 1491.23 934.72 1487.14L934.72 1487.14Q934.72 1483.13 936.78 1480.11Q938.85 1477.08 942.44 1475.41Q946.02 1473.75 950.47 1473.75L950.47 1473.75Q955.14 1473.75 958.43 1475.73Q961.73 1477.71 963.48 1481.38Q965.24 1485.05 965.24 1490.03L965.24 1490.03L943.04 1490.03L943.04 1484.2L959.37 1484.2L956.39 1486.21Q956.21 1484.47 955.5 1483.25Q954.78 1482.02 953.61 1481.4Q952.43 1480.78 950.82 1480.78L950.82 1480.78Q949 1480.78 947.71 1481.49Q946.42 1482.2 945.73 1483.47Q945.04 1484.74 945.04 1486.34L945.04 1486.34Q945.04 1488.61 946.04 1490.17Q947.04 1491.72 949.09 1492.55Q951.14 1493.37 954.16 1493.37L954.16 1493.37Q956.92 1493.37 959.64 1492.7Q962.35 1492.03 964.57 1490.74L964.57 1490.74L964.57 1497.06Q961.86 1498.84 958.5 1499.8Q955.14 1500.76 951.09 1500.76M998.08 1491.5L998.08 1491.5Q998.08 1494.57 996.19 1496.64Q994.3 1498.71 990.85 1499.73Q987.4 1500.76 982.69 1500.76L982.69 1500.76Q977.84 1500.76 974.19 1499.6Q970.54 1498.44 968.45 1496.33Q966.35 1494.22 966.22 1491.41L966.22 1491.41L976.59 1491.41Q976.86 1492.3 977.7 1492.95Q978.55 1493.59 979.93 1493.9Q981.31 1494.22 983.22 1494.22L983.22 1494.22Q985.62 1494.22 986.89 1493.79Q988.16 1493.37 988.16 1492.52L988.16 1492.52Q988.16 1491.77 987.16 1491.41Q986.16 1491.06 983.8 1490.88L983.8 1490.88L979.48 1490.57Q974.81 1490.25 972.05 1489.23Q969.29 1488.21 968.09 1486.52Q966.89 1484.83 966.89 1482.51L966.89 1482.51Q966.89 1479.57 968.76 1477.62Q970.63 1475.66 973.99 1474.7Q977.35 1473.75 981.8 1473.75L981.8 1473.75Q986.2 1473.75 989.63 1474.86Q993.05 1475.97 995.12 1477.97Q997.19 1479.98 997.55 1482.65L997.55 1482.65L987.18 1482.65Q986.96 1481.84 986.25 1481.24Q985.53 1480.64 984.33 1480.29Q983.13 1479.93 981.35 1479.93L981.35 1479.93Q979.08 1479.93 977.97 1480.35Q976.86 1480.78 976.86 1481.58L976.86 1481.58Q976.86 1482.29 977.55 1482.65Q978.24 1483 980.15 1483.13L980.15 1483.13L985.93 1483.54Q990.52 1483.8 993.19 1484.8Q995.86 1485.8 996.97 1487.47Q998.08 1489.14 998.08 1491.5" fill="#161512"><title>From an idea to a reel in 4 minutes</title></path>
<g transform="translate(195.92000000000007,1560)" filter="url(#dropSoft)">
      <rect width="688.1599999999999" height="92" rx="46" fill="#161512" stroke="#FFD21E" stroke-width="2"/>
      <path d="M32.14 45.23L30.93 38.93L37.49 38.93L38.67 46.22L38.67 57.2L32.14 57.2L32.14 45.23M44.98 38.38L44.98 38.38Q47.5 38.38 49.26 39.44Q51.02 40.5 51.95 42.42Q52.88 44.34 52.88 46.96L52.88 46.96L52.88 57.2L46.35 57.2L46.35 47.92Q46.35 45.87 45.42 44.78Q44.5 43.7 42.74 43.7L42.74 43.7Q41.49 43.7 40.58 44.27Q39.66 44.85 39.17 45.9Q38.67 46.96 38.67 48.4L38.67 48.4L36.66 47.34Q37.04 44.43 38.22 42.43Q39.41 40.43 41.15 39.41Q42.9 38.38 44.98 38.38M59.15 38.38L59.15 38.38Q61.68 38.38 63.46 39.44Q65.23 40.5 66.16 42.42Q67.09 44.34 67.09 46.96L67.09 46.96L67.09 57.2L60.56 57.2L60.56 47.92Q60.56 45.87 59.63 44.78Q58.7 43.7 56.94 43.7L56.94 43.7Q55.7 43.7 54.78 44.27Q53.87 44.85 53.38 45.9Q52.88 46.96 52.88 48.4L52.88 48.4L50.86 47.34Q51.25 44.43 52.42 42.43Q53.58 40.43 55.34 39.41Q57.1 38.38 59.15 38.38M81.01 57.71L81.01 57.71Q77.49 57.71 74.86 56.51Q72.24 55.31 70.77 53.12Q69.3 50.93 69.3 48.08L69.3 48.08Q69.3 45.17 70.77 42.99Q72.24 40.82 74.86 39.6Q77.49 38.38 81.01 38.38L81.01 38.38Q84.5 38.38 87.14 39.6Q89.78 40.82 91.25 42.99Q92.72 45.17 92.72 48.08L92.72 48.08Q92.72 50.93 91.25 53.12Q89.78 55.31 87.14 56.51Q84.5 57.71 81.01 57.71M81.01 52.88L81.01 52.88Q82.61 52.88 83.74 52.3Q84.88 51.73 85.49 50.64Q86.1 49.55 86.1 48.08L86.1 48.08Q86.1 46.54 85.49 45.47Q84.88 44.4 83.74 43.82Q82.61 43.25 81.01 43.25L81.01 43.25Q79.41 43.25 78.26 43.82Q77.1 44.4 76.5 45.47Q75.89 46.54 75.89 48.05L75.89 48.05Q75.89 49.55 76.5 50.64Q77.1 51.73 78.26 52.3Q79.41 52.88 81.01 52.88M95.5 45.23L94.29 38.93L100.85 38.93L102.03 46.22L102.03 57.2L95.5 57.2L95.5 45.23M108.75 38.38L108.75 38.38Q111.38 38.38 113.23 39.44Q115.09 40.5 116.06 42.42Q117.04 44.34 117.04 46.96L117.04 46.96L117.04 57.2L110.51 57.2L110.51 47.92Q110.51 45.87 109.47 44.78Q108.43 43.7 106.48 43.7L106.48 43.7Q105.14 43.7 104.13 44.27Q103.12 44.85 102.58 45.9Q102.03 46.96 102.03 48.4L102.03 48.4L100.02 47.34Q100.4 44.43 101.65 42.43Q102.9 40.43 104.72 39.41Q106.54 38.38 108.75 38.38M122.19 43.76L118.48 43.76L118.48 40.91L122.19 39.41L125.01 34L128.72 34L128.72 38.93L136.4 38.93L136.4 43.76L128.72 43.76L128.72 49.14Q128.72 51.12 129.52 51.92Q130.32 52.72 132.43 52.72L132.43 52.72Q133.78 52.72 134.82 52.48Q135.86 52.24 136.72 51.86L136.72 51.86L136.72 56.78Q135.76 57.14 134.19 57.42Q132.62 57.71 130.96 57.71L130.96 57.71Q127.92 57.71 125.98 56.78Q124.05 55.86 123.12 54.11Q122.19 52.37 122.19 50.03L122.19 50.03L122.19 43.76M145.07 62.99L145.07 62.99Q143.06 62.99 141.49 62.5Q139.92 62 138.45 60.98L138.45 60.98L138.45 56.43Q139.95 57.39 141.26 57.81Q142.58 58.22 144.14 58.22L144.14 58.22Q145.46 58.22 146.48 57.65Q147.5 57.07 148.14 55.54L148.14 55.54L155.15 38.93L162.1 38.93L153.33 57.55Q152.4 59.57 151.07 60.77Q149.74 61.97 148.21 62.48Q146.67 62.99 145.07 62.99M151.6 55.5L145.3 55.5L137.52 38.93L144.72 38.93L151.6 55.5M166.61 57.52L166.61 57.52Q165.58 57.52 164.74 57.04Q163.89 56.56 163.41 55.71Q162.93 54.86 162.93 53.84L162.93 53.84Q162.93 52.82 163.41 51.98Q163.89 51.15 164.74 50.66Q165.58 50.16 166.61 50.16L166.61 50.16Q167.66 50.16 168.5 50.66Q169.33 51.15 169.81 51.98Q170.29 52.82 170.29 53.84L170.29 53.84Q170.29 54.86 169.81 55.71Q169.33 56.56 168.5 57.04Q167.66 57.52 166.61 57.52M185.87 36.91L185.87 36.91Q183.73 36.91 182.88 37.66Q182.03 38.42 182.03 40.08L182.03 40.08L182.03 57.2L175.5 57.2L175.5 40.4Q175.5 37.74 176.59 35.87Q177.68 34 179.81 33.02Q181.94 32.05 185.07 32.05L185.07 32.05Q186.48 32.05 187.58 32.24Q188.69 32.43 189.94 32.78L189.94 32.78L189.94 37.58Q188.98 37.23 187.97 37.07Q186.96 36.91 185.87 36.91M189.49 45.26L171.79 45.26L171.79 40.43L189.49 40.43L189.49 45.26M214.7 57.2L207.92 57.2L207.09 50.61L207.95 48.08L207.09 45.55L207.92 38.93L214.7 38.93L213.55 48.05L214.7 57.2M209.46 48.08L209.46 48.08Q209.01 50.96 207.68 53.14Q206.35 55.31 204.32 56.51Q202.29 57.71 199.7 57.71L199.7 57.71Q197.01 57.71 194.98 56.51Q192.94 55.31 191.79 53.12Q190.64 50.93 190.64 48.08L190.64 48.08Q190.64 45.17 191.79 42.99Q192.94 40.82 194.98 39.6Q197.01 38.38 199.7 38.38L199.7 38.38Q202.29 38.38 204.32 39.58Q206.35 40.78 207.7 42.94Q209.04 45.1 209.46 48.08M197.26 48.08L197.26 48.08Q197.26 49.42 197.82 50.48Q198.38 51.54 199.38 52.13Q200.37 52.72 201.65 52.72L201.65 52.72Q202.99 52.72 204.18 52.13Q205.36 51.54 206.26 50.48Q207.15 49.42 207.6 48.08L207.6 48.08Q207.15 46.7 206.26 45.65Q205.36 44.59 204.18 43.98Q202.99 43.38 201.65 43.38L201.65 43.38Q200.37 43.38 199.38 43.98Q198.38 44.59 197.82 45.65Q197.26 46.7 197.26 48.08M238.7 51.25L238.7 51.25Q238.7 53.36 237.42 54.8Q236.14 56.24 233.78 56.98Q231.41 57.71 228.08 57.71L228.08 57.71Q224.66 57.71 222.08 56.88Q219.5 56.05 218.06 54.54Q216.62 53.04 216.53 51.06L216.53 51.06L223.15 51.06Q223.38 51.79 224.03 52.32Q224.69 52.85 225.78 53.12Q226.86 53.39 228.37 53.39L228.37 53.39Q230.32 53.39 231.33 53.01Q232.34 52.62 232.34 51.86L232.34 51.86Q232.34 51.25 231.57 50.94Q230.8 50.64 228.94 50.48L228.94 50.48L225.71 50.22Q222.48 50 220.58 49.25Q218.67 48.5 217.84 47.3Q217.01 46.1 217.01 44.56L217.01 44.56Q217.01 42.48 218.3 41.12Q219.6 39.76 221.92 39.07Q224.24 38.38 227.34 38.38L227.34 38.38Q230.42 38.38 232.82 39.18Q235.22 39.98 236.66 41.41Q238.1 42.83 238.32 44.75L238.32 44.75L231.7 44.75Q231.54 44.14 230.99 43.65Q230.45 43.15 229.49 42.83Q228.53 42.51 227.02 42.51L227.02 42.51Q225.26 42.51 224.35 42.9Q223.44 43.28 223.44 43.98L223.44 43.98Q223.44 44.53 224 44.85Q224.56 45.17 226.1 45.3L226.1 45.3L230.35 45.62Q233.52 45.81 235.34 46.53Q237.17 47.25 237.94 48.43Q238.7 49.62 238.7 51.25M243.25 43.76L239.54 43.76L239.54 40.91L243.25 39.41L246.06 34L249.78 34L249.78 38.93L257.46 38.93L257.46 43.76L249.78 43.76L249.78 49.14Q249.78 51.12 250.58 51.92Q251.38 52.72 253.49 52.72L253.49 52.72Q254.83 52.72 255.87 52.48Q256.91 52.24 257.78 51.86L257.78 51.86L257.78 56.78Q256.82 57.14 255.25 57.42Q253.68 57.71 252.02 57.71L252.02 57.71Q248.98 57.71 247.04 56.78Q245.1 55.86 244.18 54.11Q243.25 52.37 243.25 50.03L243.25 50.03L243.25 43.76M258.77 58.06L267.73 32.34L272.59 32.34L263.63 58.06L258.77 58.06M274.83 45.07L273.62 38.93L280.27 38.93L281.36 45.46L281.36 57.2L274.83 57.2L274.83 45.07M289.94 38.64L289.94 38.64L289.94 44.21Q288.98 44.02 288.13 43.94Q287.28 43.86 286.58 43.86L286.58 43.86Q285.17 43.86 283.98 44.42Q282.8 44.98 282.08 46.26Q281.36 47.54 281.36 49.68L281.36 49.68L280.11 48.14Q280.37 46.16 280.88 44.42Q281.39 42.67 282.27 41.31Q283.15 39.95 284.46 39.17Q285.78 38.38 287.66 38.38L287.66 38.38Q288.21 38.38 288.78 38.45Q289.36 38.51 289.94 38.64M290.51 58.06L299.47 32.34L304.34 32.34L295.38 58.06L290.51 58.06" fill="#FBF7EF"><title>monty.fast/r/</title></path>
      <g data-code="1" data-x="304.75199999999995" data-y="57.2" data-size="32" data-fill="#FFD21E" data-track="-0.01" data-anchor="start" data-max="353.4"><path d="M322.86 57.2L316.21 57.2L316.21 45.52L322.86 45.52L322.86 57.2M317.39 49.04L304.94 33.2L312.3 33.2L321.01 44.27L318.03 44.27L326.7 33.2L334.06 33.2L321.65 48.98L317.39 49.04M349.39 57.71L349.39 57.71Q345.14 57.71 341.92 56.14Q338.7 54.58 336.93 51.76Q335.15 48.94 335.15 45.2L335.15 45.2Q335.15 41.46 336.93 38.64Q338.7 35.82 341.92 34.26Q345.14 32.69 349.39 32.69L349.39 32.69Q353.68 32.69 356.88 34.26Q360.08 35.82 361.87 38.64Q363.66 41.46 363.66 45.2L363.66 45.2Q363.66 48.94 361.87 51.76Q360.08 54.58 356.88 56.14Q353.68 57.71 349.39 57.71M349.39 51.79L349.39 51.79Q351.73 51.79 353.42 50.99Q355.12 50.19 356.03 48.72Q356.94 47.25 356.94 45.2L356.94 45.2Q356.94 43.15 356.03 41.68Q355.12 40.21 353.42 39.41Q351.73 38.61 349.39 38.61L349.39 38.61Q347.09 38.61 345.39 39.41Q343.7 40.21 342.77 41.68Q341.84 43.15 341.84 45.2L341.84 45.2Q341.84 47.25 342.77 48.72Q343.7 50.19 345.39 50.99Q347.09 51.79 349.39 51.79M373.07 33.2L373.07 46.48Q373.07 48.11 373.7 49.31Q374.32 50.51 375.55 51.15Q376.78 51.79 378.58 51.79L378.58 51.79Q380.4 51.79 381.62 51.15Q382.83 50.51 383.44 49.31Q384.05 48.11 384.05 46.48L384.05 46.48L384.05 33.2L390.7 33.2L390.7 46.8Q390.7 50.1 389.18 52.54Q387.66 54.99 384.94 56.35Q382.22 57.71 378.58 57.71L378.58 57.71Q374.96 57.71 372.22 56.35Q369.49 54.99 367.97 52.54Q366.45 50.1 366.45 46.8L366.45 46.8L366.45 33.2L373.07 33.2M399.12 48.56L399.12 43.7L407.86 43.7Q409.46 43.7 410.35 42.96Q411.25 42.22 411.25 40.91L411.25 40.91Q411.25 39.57 410.35 38.85Q409.46 38.13 407.86 38.13L407.86 38.13L398.19 38.13L401.17 34.96L401.17 57.2L394.54 57.2L394.54 33.2L408.78 33.2Q411.54 33.2 413.58 34.18Q415.63 35.15 416.78 36.86Q417.94 38.58 417.94 40.91L417.94 40.91Q417.94 43.18 416.78 44.91Q415.63 46.64 413.58 47.6Q411.54 48.56 408.78 48.56L408.78 48.56L399.12 48.56M411.09 57.2L402.7 45.97L410.16 45.97L418.77 57.2L411.09 57.2M418.1 62.54L418.1 58.16L435.7 58.16L435.7 62.54L418.1 62.54M456.53 47.15L463.18 47.15Q462.83 50.32 461.01 52.7Q459.18 55.09 456.22 56.4Q453.26 57.71 449.42 57.71L449.42 57.71Q445.23 57.71 442.1 56.14Q438.96 54.58 437.22 51.76Q435.47 48.94 435.47 45.2L435.47 45.2Q435.47 41.46 437.22 38.64Q438.96 35.82 442.1 34.26Q445.23 32.69 449.42 32.69L449.42 32.69Q453.26 32.69 456.22 34Q459.18 35.31 461.01 37.7Q462.83 40.08 463.18 43.25L463.18 43.25L456.53 43.25Q456.21 41.71 455.28 40.64Q454.35 39.57 452.86 38.99Q451.38 38.42 449.42 38.42L449.42 38.42Q447.18 38.42 445.55 39.23Q443.92 40.05 443.06 41.57Q442.19 43.09 442.19 45.2L442.19 45.2Q442.19 47.31 443.06 48.83Q443.92 50.35 445.55 51.17Q447.18 51.98 449.42 51.98L449.42 51.98Q451.38 51.98 452.86 51.44Q454.35 50.9 455.28 49.81Q456.21 48.72 456.53 47.15L456.53 47.15M479.28 57.71L479.28 57.71Q475.02 57.71 471.81 56.14Q468.59 54.58 466.82 51.76Q465.04 48.94 465.04 45.2L465.04 45.2Q465.04 41.46 466.82 38.64Q468.59 35.82 471.81 34.26Q475.02 32.69 479.28 32.69L479.28 32.69Q483.57 32.69 486.77 34.26Q489.97 35.82 491.76 38.64Q493.55 41.46 493.55 45.2L493.55 45.2Q493.55 48.94 491.76 51.76Q489.97 54.58 486.77 56.14Q483.57 57.71 479.28 57.71M479.28 51.79L479.28 51.79Q481.62 51.79 483.31 50.99Q485.01 50.19 485.92 48.72Q486.83 47.25 486.83 45.2L486.83 45.2Q486.83 43.15 485.92 41.68Q485.01 40.21 483.31 39.41Q481.62 38.61 479.28 38.61L479.28 38.61Q476.98 38.61 475.28 39.41Q473.58 40.21 472.66 41.68Q471.73 43.15 471.73 45.2L471.73 45.2Q471.73 47.25 472.66 48.72Q473.58 50.19 475.28 50.99Q476.98 51.79 479.28 51.79M496.66 33.2L508.62 33.2Q512.88 33.2 516.1 34.69Q519.31 36.18 521.09 38.88Q522.86 41.58 522.86 45.2L522.86 45.2Q522.86 48.82 521.09 51.52Q519.31 54.22 516.1 55.71Q512.88 57.2 508.62 57.2L508.62 57.2L496.66 57.2L496.66 33.2M503.25 35.98L503.25 54.42L500.08 51.31L509.14 51.31Q511.28 51.31 512.86 50.56Q514.45 49.81 515.31 48.43Q516.18 47.06 516.18 45.2L516.18 45.2Q516.18 43.31 515.31 41.95Q514.45 40.59 512.86 39.84Q511.28 39.09 509.14 39.09L509.14 39.09L500.08 39.09L503.25 35.98M528.91 42.8L546.48 42.8L546.48 47.6L528.91 47.6L528.91 42.8M531.86 35.57L533.42 45.2L531.86 54.83L529.17 51.82L547.54 51.82L547.54 57.2L525.23 57.2L527.06 45.2L525.23 33.2L547.38 33.2L547.38 38.58L529.17 38.58L531.86 35.57" fill="#FFD21E"><title>YOUR_CODE</title></path></g>
    </g>
<path d="M361.86 1705L369.74 1705L369.74 1707.07L361.86 1707.07L361.86 1705M364.25 1716.4L364.25 1701.26L366.67 1701.26L366.67 1716.19Q366.67 1717.16 367.06 1717.58Q367.45 1718 368.4 1718L368.4 1718Q368.66 1718 369.02 1717.97Q369.38 1717.94 369.68 1717.89L369.68 1717.89L370.02 1719.95Q369.66 1720.04 369.19 1720.08Q368.73 1720.12 368.29 1720.12L368.29 1720.12Q366.35 1720.12 365.3 1719.16Q364.25 1718.2 364.25 1716.4L364.25 1716.4M375.06 1711.07L375.06 1711.07L375.06 1720L372.64 1720L372.64 1699.63L375.06 1699.63L375.06 1708.64L374.54 1708.64Q375.23 1706.57 376.52 1705.68Q377.8 1704.78 379.53 1704.78L379.53 1704.78Q381.04 1704.78 382.23 1705.42Q383.41 1706.05 384.08 1707.33Q384.75 1708.6 384.75 1710.54L384.75 1710.54L384.75 1720L382.33 1720L382.33 1710.73Q382.33 1708.93 381.41 1707.95Q380.5 1706.97 378.9 1706.97L378.9 1706.97Q377.82 1706.97 376.94 1707.43Q376.07 1707.89 375.56 1708.8Q375.06 1709.72 375.06 1711.07M395.06 1720.33L395.06 1720.33Q392.87 1720.33 391.3 1719.35Q389.74 1718.37 388.89 1716.63Q388.04 1714.89 388.04 1712.59L388.04 1712.59Q388.04 1710.29 388.89 1708.53Q389.74 1706.77 391.26 1705.76Q392.79 1704.76 394.81 1704.76L394.81 1704.76Q396.12 1704.76 397.31 1705.21Q398.5 1705.66 399.43 1706.59Q400.36 1707.53 400.9 1708.97Q401.44 1710.4 401.44 1712.38L401.44 1712.38L401.44 1713.27L389.58 1713.27L389.58 1711.22L400.12 1711.22L399.02 1711.97Q399.02 1710.47 398.53 1709.33Q398.04 1708.19 397.1 1707.55Q396.17 1706.92 394.81 1706.92L394.81 1706.92Q393.46 1706.92 392.49 1707.57Q391.52 1708.21 391 1709.3Q390.48 1710.39 390.48 1711.7L390.48 1711.7L390.48 1712.96Q390.48 1714.59 391.04 1715.75Q391.6 1716.92 392.63 1717.55Q393.66 1718.17 395.07 1718.17L395.07 1718.17Q396.01 1718.17 396.77 1717.89Q397.52 1717.61 398.04 1717.07Q398.57 1716.53 398.83 1715.75L398.83 1715.75L401.2 1716.19Q400.87 1717.42 400.01 1718.35Q399.16 1719.28 397.89 1719.8Q396.63 1720.33 395.06 1720.33M418.4 1720.33L418.4 1720.33Q416.34 1720.33 414.8 1719.35Q413.25 1718.37 412.39 1716.62Q411.52 1714.87 411.52 1712.58L411.52 1712.58Q411.52 1710.24 412.39 1708.48Q413.25 1706.72 414.8 1705.74Q416.34 1704.76 418.4 1704.76L418.4 1704.76Q419.54 1704.76 420.55 1705.08Q421.55 1705.4 422.36 1705.98Q423.17 1706.56 423.73 1707.39Q424.29 1708.23 424.55 1709.25L424.55 1709.25L422.2 1709.71Q422.05 1709.09 421.72 1708.58Q421.39 1708.08 420.9 1707.71Q420.42 1707.34 419.79 1707.13Q419.16 1706.93 418.4 1706.93L418.4 1706.93Q416.92 1706.93 415.94 1707.69Q414.96 1708.45 414.47 1709.73Q413.98 1711 413.98 1712.58L413.98 1712.58Q413.98 1714.12 414.47 1715.39Q414.96 1716.65 415.94 1717.4Q416.92 1718.15 418.4 1718.15L418.4 1718.15Q419.17 1718.15 419.81 1717.95Q420.45 1717.74 420.92 1717.37Q421.4 1716.99 421.73 1716.47Q422.06 1715.94 422.22 1715.31L422.22 1715.31L424.59 1715.75Q424.34 1716.79 423.78 1717.63Q423.21 1718.47 422.39 1719.08Q421.58 1719.69 420.56 1720.01Q419.54 1720.33 418.4 1720.33M433.94 1720.33L433.94 1720.33Q431.89 1720.33 430.34 1719.35Q428.8 1718.37 427.93 1716.62Q427.06 1714.87 427.06 1712.58L427.06 1712.58Q427.06 1710.24 427.93 1708.48Q428.8 1706.72 430.34 1705.74Q431.89 1704.76 433.94 1704.76L433.94 1704.76Q436 1704.76 437.56 1705.74Q439.11 1706.72 439.97 1708.48Q440.83 1710.24 440.83 1712.58L440.83 1712.58Q440.83 1714.87 439.97 1716.62Q439.11 1718.37 437.56 1719.35Q436 1720.33 433.94 1720.33M433.94 1718.15L433.94 1718.15Q435.43 1718.15 436.42 1717.4Q437.4 1716.65 437.89 1715.39Q438.38 1714.12 438.38 1712.58L438.38 1712.58Q438.38 1711 437.89 1709.73Q437.4 1708.45 436.42 1707.69Q435.43 1706.93 433.94 1706.93L433.94 1706.93Q432.46 1706.93 431.49 1707.69Q430.51 1708.45 430.02 1709.73Q429.52 1711 429.52 1712.58L429.52 1712.58Q429.52 1714.12 430.02 1715.39Q430.51 1716.65 431.49 1717.4Q432.46 1718.15 433.94 1718.15M449.77 1720.31L449.77 1720.31Q447.89 1720.31 446.44 1719.35Q444.99 1718.39 444.18 1716.64Q443.37 1714.89 443.37 1712.52L443.37 1712.52Q443.37 1710.17 444.19 1708.43Q445 1706.68 446.45 1705.73Q447.9 1704.78 449.79 1704.78L449.79 1704.78Q451.1 1704.78 451.97 1705.2Q452.83 1705.62 453.38 1706.21Q453.93 1706.79 454.24 1707.34L454.24 1707.34L454.38 1707.34L454.38 1699.63L456.8 1699.63L456.8 1720L454.45 1720L454.45 1717.69L454.26 1717.69Q453.93 1718.25 453.37 1718.86Q452.81 1719.47 451.94 1719.89Q451.07 1720.31 449.77 1720.31M450.14 1718.14L450.14 1718.14Q451.52 1718.14 452.49 1717.43Q453.45 1716.72 453.96 1715.45Q454.46 1714.18 454.46 1712.51L454.46 1712.51Q454.46 1710.83 453.96 1709.58Q453.46 1708.34 452.49 1707.64Q451.52 1706.94 450.14 1706.94L450.14 1706.94Q448.76 1706.94 447.8 1707.65Q446.83 1708.35 446.33 1709.6Q445.83 1710.85 445.83 1712.51L445.83 1712.51Q445.83 1714.16 446.34 1715.43Q446.85 1716.71 447.81 1717.42Q448.77 1718.14 450.14 1718.14M467.09 1720.33L467.09 1720.33Q464.91 1720.33 463.34 1719.35Q461.78 1718.37 460.93 1716.63Q460.08 1714.89 460.08 1712.59L460.08 1712.59Q460.08 1710.29 460.93 1708.53Q461.78 1706.77 463.3 1705.76Q464.83 1704.76 466.85 1704.76L466.85 1704.76Q468.16 1704.76 469.35 1705.21Q470.54 1705.66 471.47 1706.59Q472.4 1707.53 472.94 1708.97Q473.48 1710.4 473.48 1712.38L473.48 1712.38L473.48 1713.27L461.61 1713.27L461.61 1711.22L472.15 1711.22L471.06 1711.97Q471.06 1710.47 470.57 1709.33Q470.08 1708.19 469.14 1707.55Q468.2 1706.92 466.85 1706.92L466.85 1706.92Q465.5 1706.92 464.52 1707.57Q463.55 1708.21 463.03 1709.3Q462.51 1710.39 462.51 1711.7L462.51 1711.7L462.51 1712.96Q462.51 1714.59 463.08 1715.75Q463.64 1716.92 464.67 1717.55Q465.7 1718.17 467.11 1718.17L467.11 1718.17Q468.05 1718.17 468.8 1717.89Q469.56 1717.61 470.08 1717.07Q470.61 1716.53 470.87 1715.75L470.87 1715.75L473.23 1716.19Q472.91 1717.42 472.05 1718.35Q471.2 1719.28 469.93 1719.8Q468.67 1720.33 467.09 1720.33M486.71 1720L484.29 1720L484.29 1705L486.71 1705L486.71 1720M485.51 1702.39L485.51 1702.39Q484.83 1702.39 484.33 1701.92Q483.84 1701.45 483.84 1700.78L483.84 1700.78Q483.84 1700.11 484.33 1699.64Q484.83 1699.16 485.51 1699.16L485.51 1699.16Q486.21 1699.16 486.7 1699.64Q487.19 1700.11 487.19 1700.78L487.19 1700.78Q487.19 1701.45 486.7 1701.92Q486.21 1702.39 485.51 1702.39M495.87 1720.33L495.87 1720.33Q494.32 1720.33 493.08 1719.86Q491.84 1719.38 491.05 1718.43Q490.27 1717.48 490.05 1716.09L490.05 1716.09L492.37 1715.72Q492.63 1716.98 493.53 1717.6Q494.42 1718.22 495.85 1718.22L495.85 1718.22Q497.41 1718.22 498.33 1717.56Q499.25 1716.9 499.25 1715.94L499.25 1715.94Q499.25 1715.15 498.68 1714.63Q498.12 1714.11 497.04 1713.86L497.04 1713.86L494.56 1713.29Q492.51 1712.79 491.49 1711.76Q490.47 1710.73 490.47 1709.13L490.47 1709.13Q490.47 1707.85 491.18 1706.86Q491.9 1705.88 493.15 1705.32Q494.4 1704.76 496 1704.76L496 1704.76Q497.54 1704.76 498.68 1705.26Q499.81 1705.77 500.5 1706.66Q501.19 1707.56 501.44 1708.76L501.44 1708.76L499.2 1709.14Q498.98 1708.21 498.21 1707.52Q497.45 1706.82 496 1706.82L496 1706.82Q494.64 1706.82 493.78 1707.46Q492.91 1708.09 492.91 1709.04L492.91 1709.04Q492.91 1709.87 493.52 1710.38Q494.12 1710.89 495.37 1711.18L495.37 1711.18L497.68 1711.73Q499.76 1712.22 500.75 1713.23Q501.74 1714.24 501.74 1715.82L501.74 1715.82Q501.74 1717.16 500.99 1718.17Q500.25 1719.19 498.92 1719.76Q497.6 1720.33 495.87 1720.33M516.93 1720.31L516.93 1720.31Q515.49 1720.31 514.32 1719.78Q513.16 1719.25 512.47 1718.22Q511.79 1717.2 511.79 1715.72L511.79 1715.72Q511.79 1714.42 512.29 1713.62Q512.8 1712.81 513.65 1712.35Q514.5 1711.89 515.54 1711.66Q516.59 1711.43 517.67 1711.29L517.67 1711.29Q519.03 1711.1 519.88 1711Q520.72 1710.91 521.11 1710.68Q521.5 1710.46 521.5 1709.9L521.5 1709.9L521.5 1709.8Q521.5 1708.9 521.13 1708.26Q520.77 1707.61 520.05 1707.26Q519.33 1706.9 518.3 1706.9L518.3 1706.9Q517.23 1706.9 516.45 1707.24Q515.67 1707.59 515.2 1708.12Q514.73 1708.65 514.54 1709.24L514.54 1709.24L512.17 1708.72Q512.59 1707.35 513.51 1706.49Q514.43 1705.62 515.66 1705.2Q516.89 1704.78 518.24 1704.78L518.24 1704.78Q519.17 1704.78 520.16 1705.02Q521.15 1705.25 522 1705.82Q522.85 1706.4 523.38 1707.41Q523.9 1708.42 523.9 1709.96L523.9 1709.96L523.9 1720L521.52 1720L521.52 1717.94L521.39 1717.94Q521.13 1718.46 520.58 1719.01Q520.03 1719.56 519.14 1719.94Q518.24 1720.31 516.93 1720.31M517.33 1718.17L517.33 1718.17Q518.71 1718.17 519.64 1717.64Q520.57 1717.12 521.03 1716.27Q521.5 1715.43 521.5 1714.49L521.5 1714.49L521.5 1712.48Q521.34 1712.64 520.89 1712.77Q520.43 1712.9 519.82 1713.01Q519.21 1713.12 518.6 1713.21Q518 1713.29 517.56 1713.34L517.56 1713.34Q516.68 1713.45 515.92 1713.72Q515.15 1713.98 514.69 1714.48Q514.22 1714.98 514.22 1715.84L514.22 1715.84Q514.22 1716.6 514.62 1717.12Q515.01 1717.63 515.71 1717.9Q516.41 1718.17 517.33 1718.17M540.65 1720.33L540.65 1720.33Q539.09 1720.33 537.85 1719.86Q536.62 1719.38 535.83 1718.43Q535.04 1717.48 534.83 1716.09L534.83 1716.09L537.15 1715.72Q537.41 1716.98 538.3 1717.6Q539.2 1718.22 540.62 1718.22L540.62 1718.22Q542.18 1718.22 543.1 1717.56Q544.03 1716.9 544.03 1715.94L544.03 1715.94Q544.03 1715.15 543.46 1714.63Q542.89 1714.11 541.81 1713.86L541.81 1713.86L539.34 1713.29Q537.29 1712.79 536.27 1711.76Q535.25 1710.73 535.25 1709.13L535.25 1709.13Q535.25 1707.85 535.96 1706.86Q536.67 1705.88 537.92 1705.32Q539.17 1704.76 540.77 1704.76L540.77 1704.76Q542.32 1704.76 543.45 1705.26Q544.59 1705.77 545.28 1706.66Q545.97 1707.56 546.21 1708.76L546.21 1708.76L543.97 1709.14Q543.75 1708.21 542.99 1707.52Q542.22 1706.82 540.77 1706.82L540.77 1706.82Q539.42 1706.82 538.55 1707.46Q537.68 1708.09 537.68 1709.04L537.68 1709.04Q537.68 1709.87 538.29 1710.38Q538.9 1710.89 540.14 1711.18L540.14 1711.18L542.45 1711.73Q544.53 1712.22 545.52 1713.23Q546.51 1714.24 546.51 1715.82L546.51 1715.82Q546.51 1717.16 545.77 1718.17Q545.02 1719.19 543.7 1719.76Q542.37 1720.33 540.65 1720.33M548.13 1705L556 1705L556 1707.07L548.13 1707.07L548.13 1705M550.52 1716.4L550.52 1701.26L552.94 1701.26L552.94 1716.19Q552.94 1717.16 553.33 1717.58Q553.72 1718 554.66 1718L554.66 1718Q554.92 1718 555.29 1717.97Q555.65 1717.94 555.95 1717.89L555.95 1717.89L556.29 1719.95Q555.92 1720.04 555.46 1720.08Q554.99 1720.12 554.55 1720.12L554.55 1720.12Q552.61 1720.12 551.57 1719.16Q550.52 1718.2 550.52 1716.4L550.52 1716.4M563.45 1720.31L563.45 1720.31Q562.02 1720.31 560.85 1719.78Q559.68 1719.25 559 1718.22Q558.31 1717.2 558.31 1715.72L558.31 1715.72Q558.31 1714.42 558.82 1713.62Q559.33 1712.81 560.17 1712.35Q561.02 1711.89 562.07 1711.66Q563.11 1711.43 564.19 1711.29L564.19 1711.29Q565.56 1711.1 566.4 1711Q567.24 1710.91 567.63 1710.68Q568.02 1710.46 568.02 1709.9L568.02 1709.9L568.02 1709.8Q568.02 1708.9 567.66 1708.26Q567.3 1707.61 566.58 1707.26Q565.86 1706.9 564.82 1706.9L564.82 1706.9Q563.75 1706.9 562.98 1707.24Q562.2 1707.59 561.72 1708.12Q561.25 1708.65 561.06 1709.24L561.06 1709.24L558.7 1708.72Q559.12 1707.35 560.04 1706.49Q560.95 1705.62 562.18 1705.2Q563.41 1704.78 564.77 1704.78L564.77 1704.78Q565.7 1704.78 566.69 1705.02Q567.68 1705.25 568.53 1705.82Q569.37 1706.4 569.9 1707.41Q570.43 1708.42 570.43 1709.96L570.43 1709.96L570.43 1720L568.05 1720L568.05 1717.94L567.91 1717.94Q567.65 1718.46 567.1 1719.01Q566.56 1719.56 565.66 1719.94Q564.77 1720.31 563.45 1720.31M563.85 1718.17L563.85 1718.17Q565.23 1718.17 566.16 1717.64Q567.09 1717.12 567.56 1716.27Q568.02 1715.43 568.02 1714.49L568.02 1714.49L568.02 1712.48Q567.87 1712.64 567.41 1712.77Q566.95 1712.9 566.35 1713.01Q565.74 1713.12 565.13 1713.21Q564.52 1713.29 564.08 1713.34L564.08 1713.34Q563.21 1713.45 562.44 1713.72Q561.68 1713.98 561.21 1714.48Q560.75 1714.98 560.75 1715.84L560.75 1715.84Q560.75 1716.6 561.14 1717.12Q561.54 1717.63 562.24 1717.9Q562.93 1718.17 563.85 1718.17M576.87 1720L574.45 1720L574.45 1705L576.77 1705L576.77 1707.33L576.91 1707.33Q577.32 1706.18 578.33 1705.48Q579.34 1704.78 580.71 1704.78L580.71 1704.78Q581 1704.78 581.33 1704.8Q581.67 1704.81 581.86 1704.84L581.86 1704.84L581.86 1707.26Q581.75 1707.23 581.32 1707.17Q580.9 1707.11 580.41 1707.11L580.41 1707.11Q579.41 1707.11 578.6 1707.54Q577.8 1707.97 577.33 1708.76Q576.87 1709.55 576.87 1710.66L576.87 1710.66L576.87 1720M583.16 1705L591.03 1705L591.03 1707.07L583.16 1707.07L583.16 1705M585.55 1716.4L585.55 1701.26L587.97 1701.26L587.97 1716.19Q587.97 1717.16 588.36 1717.58Q588.75 1718 589.69 1718L589.69 1718Q589.95 1718 590.31 1717.97Q590.67 1717.94 590.98 1717.89L590.98 1717.89L591.32 1719.95Q590.95 1720.04 590.48 1720.08Q590.02 1720.12 589.58 1720.12L589.58 1720.12Q587.64 1720.12 586.59 1719.16Q585.55 1718.2 585.55 1716.4L585.55 1716.4M596.35 1720L593.93 1720L593.93 1705L596.35 1705L596.35 1720M595.15 1702.39L595.15 1702.39Q594.46 1702.39 593.97 1701.92Q593.48 1701.45 593.48 1700.78L593.48 1700.78Q593.48 1700.11 593.97 1699.64Q594.46 1699.16 595.15 1699.16L595.15 1699.16Q595.84 1699.16 596.33 1699.64Q596.83 1700.11 596.83 1700.78L596.83 1700.78Q596.83 1701.45 596.33 1701.92Q595.84 1702.39 595.15 1702.39M602.79 1711.07L602.79 1711.07L602.79 1720L600.37 1720L600.37 1705L602.71 1705L602.72 1708.64L602.27 1708.64Q602.97 1706.57 604.25 1705.68Q605.54 1704.78 607.26 1704.78L607.26 1704.78Q608.78 1704.78 609.95 1705.42Q611.13 1706.05 611.8 1707.33Q612.48 1708.6 612.48 1710.54L612.48 1710.54L612.48 1720L610.06 1720L610.06 1710.73Q610.06 1708.93 609.15 1707.95Q608.23 1706.97 606.63 1706.97L606.63 1706.97Q605.55 1706.97 604.67 1707.43Q603.8 1707.89 603.29 1708.8Q602.79 1709.72 602.79 1711.07M622.65 1726L622.65 1726Q620.97 1726 619.71 1725.54Q618.46 1725.09 617.64 1724.29Q616.82 1723.49 616.43 1722.46L616.43 1722.46L618.55 1721.6Q618.84 1722.16 619.34 1722.69Q619.84 1723.21 620.64 1723.55Q621.45 1723.88 622.65 1723.88L622.65 1723.88Q624.5 1723.88 625.65 1722.97Q626.8 1722.05 626.8 1720.18L626.8 1720.18L626.8 1717.4L626.63 1717.4Q626.29 1717.98 625.74 1718.56Q625.2 1719.14 624.33 1719.54Q623.46 1719.93 622.16 1719.93L622.16 1719.93Q620.32 1719.93 618.87 1719.04Q617.42 1718.14 616.59 1716.47Q615.76 1714.79 615.76 1712.45L615.76 1712.45Q615.76 1710.13 616.58 1708.41Q617.4 1706.68 618.85 1705.73Q620.3 1704.78 622.19 1704.78L622.19 1704.78Q623.49 1704.78 624.36 1705.19Q625.24 1705.6 625.8 1706.21Q626.36 1706.81 626.69 1707.38L626.69 1707.38L626.85 1707.38L626.85 1705L629.2 1705L629.2 1720.26Q629.2 1722.28 628.31 1723.55Q627.42 1724.83 625.93 1725.41Q624.44 1726 622.65 1726M622.54 1717.77L622.54 1717.77Q623.92 1717.77 624.89 1717.12Q625.85 1716.47 626.36 1715.27Q626.86 1714.07 626.86 1712.41L626.86 1712.41Q626.86 1710.79 626.37 1709.55Q625.87 1708.32 624.9 1707.63Q623.94 1706.94 622.54 1706.94L622.54 1706.94Q621.16 1706.94 620.2 1707.64Q619.24 1708.34 618.73 1709.57Q618.22 1710.8 618.22 1712.41L618.22 1712.41Q618.22 1714.05 618.73 1715.26Q619.24 1716.46 620.21 1717.12Q621.18 1717.77 622.54 1717.77M647.84 1720.31L647.84 1720.31Q646.55 1720.31 645.68 1719.89Q644.8 1719.47 644.25 1718.86Q643.69 1718.25 643.35 1717.69L643.35 1717.69L643.16 1717.69L643.16 1720L640.81 1720L640.81 1699.63L643.23 1699.63L643.23 1707.34L643.37 1707.34Q643.69 1706.79 644.23 1706.21Q644.77 1705.62 645.65 1705.2Q646.52 1704.78 647.82 1704.78L647.82 1704.78Q649.72 1704.78 651.17 1705.73Q652.61 1706.68 653.42 1708.43Q654.24 1710.17 654.24 1712.52L654.24 1712.52Q654.24 1714.89 653.43 1716.64Q652.62 1718.39 651.18 1719.35Q649.74 1720.31 647.84 1720.31M647.47 1718.14L647.47 1718.14Q648.85 1718.14 649.81 1717.42Q650.76 1716.71 651.27 1715.43Q651.77 1714.16 651.77 1712.51L651.77 1712.51Q651.77 1710.85 651.28 1709.6Q650.78 1708.35 649.81 1707.65Q648.85 1706.94 647.47 1706.94L647.47 1706.94Q646.09 1706.94 645.12 1707.64Q644.15 1708.34 643.65 1709.58Q643.15 1710.83 643.15 1712.51L643.15 1712.51Q643.15 1714.18 643.65 1715.45Q644.16 1716.72 645.13 1717.43Q646.1 1718.14 647.47 1718.14M663.66 1720.33L663.66 1720.33Q661.6 1720.33 660.06 1719.35Q658.51 1718.37 657.65 1716.62Q656.78 1714.87 656.78 1712.58L656.78 1712.58Q656.78 1710.24 657.65 1708.48Q658.51 1706.72 660.06 1705.74Q661.6 1704.76 663.66 1704.76L663.66 1704.76Q665.72 1704.76 667.27 1705.74Q668.82 1706.72 669.68 1708.48Q670.55 1710.24 670.55 1712.58L670.55 1712.58Q670.55 1714.87 669.68 1716.62Q668.82 1718.37 667.27 1719.35Q665.72 1720.33 663.66 1720.33M663.66 1718.15L663.66 1718.15Q665.15 1718.15 666.13 1717.4Q667.11 1716.65 667.61 1715.39Q668.1 1714.12 668.1 1712.58L668.1 1712.58Q668.1 1711 667.61 1709.73Q667.11 1708.45 666.13 1707.69Q665.15 1706.93 663.66 1706.93L663.66 1706.93Q662.18 1706.93 661.2 1707.69Q660.22 1708.45 659.73 1709.73Q659.24 1711 659.24 1712.58L659.24 1712.58Q659.24 1714.12 659.73 1715.39Q660.22 1716.65 661.2 1717.4Q662.18 1718.15 663.66 1718.15M676.25 1711.07L676.25 1711.07L676.25 1720L673.83 1720L673.83 1705L676.17 1705L676.18 1708.64L675.73 1708.64Q676.42 1706.57 677.71 1705.68Q679 1704.78 680.72 1704.78L680.72 1704.78Q682.24 1704.78 683.41 1705.42Q684.59 1706.05 685.26 1707.33Q685.94 1708.6 685.94 1710.54L685.94 1710.54L685.94 1720L683.52 1720L683.52 1710.73Q683.52 1708.93 682.6 1707.95Q681.69 1706.97 680.09 1706.97L680.09 1706.97Q679.01 1706.97 678.13 1707.43Q677.26 1707.89 676.75 1708.8Q676.25 1709.72 676.25 1711.07M695.18 1720.22L695.18 1720.22Q693.68 1720.22 692.5 1719.58Q691.31 1718.95 690.64 1717.66Q689.96 1716.38 689.96 1714.46L689.96 1714.46L689.96 1705L692.38 1705L692.38 1714.27Q692.38 1716.06 693.3 1717.05Q694.23 1718.03 695.83 1718.03L695.83 1718.03Q696.91 1718.03 697.77 1717.57Q698.64 1717.12 699.15 1716.19Q699.65 1715.27 699.65 1713.92L699.65 1713.92L699.65 1705L702.07 1705L702.07 1720L699.74 1720L699.74 1716.36L700.17 1716.36Q699.46 1718.44 698.17 1719.33Q696.88 1720.22 695.18 1720.22M711.25 1720.33L711.25 1720.33Q709.69 1720.33 708.45 1719.86Q707.21 1719.38 706.43 1718.43Q705.64 1717.48 705.42 1716.09L705.42 1716.09L707.75 1715.72Q708.01 1716.98 708.9 1717.6Q709.8 1718.22 711.22 1718.22L711.22 1718.22Q712.78 1718.22 713.7 1717.56Q714.62 1716.9 714.62 1715.94L714.62 1715.94Q714.62 1715.15 714.06 1714.63Q713.49 1714.11 712.41 1713.86L712.41 1713.86L709.93 1713.29Q707.88 1712.79 706.87 1711.76Q705.85 1710.73 705.85 1709.13L705.85 1709.13Q705.85 1707.85 706.56 1706.86Q707.27 1705.88 708.52 1705.32Q709.77 1704.76 711.37 1704.76L711.37 1704.76Q712.92 1704.76 714.05 1705.26Q715.18 1705.77 715.88 1706.66Q716.57 1707.56 716.81 1708.76L716.81 1708.76L714.57 1709.14Q714.35 1708.21 713.58 1707.52Q712.82 1706.82 711.37 1706.82L711.37 1706.82Q710.02 1706.82 709.15 1707.46Q708.28 1708.09 708.28 1709.04L708.28 1709.04Q708.28 1709.87 708.89 1710.38Q709.5 1710.89 710.74 1711.18L710.74 1711.18L713.05 1711.73Q715.13 1712.22 716.12 1713.23Q717.11 1714.24 717.11 1715.82L717.11 1715.82Q717.11 1717.16 716.37 1718.17Q715.62 1719.19 714.3 1719.76Q712.97 1720.33 711.25 1720.33" fill="#4A4843"><title>the code is a starting bonus</title></path>
<g transform="translate(880,1760) rotate(16) scale(1.0333333333333334)">
    <path d="M2 4 C10 30 34 40 54 34 C40 44 14 42 4 20 Z" fill="#FFD21E" stroke="#161512" stroke-width="3" stroke-linejoin="round"/>
  </g>
</svg>
