<svg width="1080" height="1920" viewBox="0 0 1080 1920" xmlns="http://www.w3.org/2000/svg" role="img" aria-label="Monty — От идеи до ролика за 4 минуты">
<defs>
  <filter id="grain" x="0" y="0" width="100%" height="100%">
    <feTurbulence type="fractalNoise" baseFrequency="0.9" numOctaves="3" seed="7" result="n"/>
    <feColorMatrix in="n" type="saturate" values="0"/>
  </filter>
  <filter id="drop" x="-40%" y="-40%" width="180%" height="200%">
    <feDropShadow dx="0" dy="10" stdDeviation="16" flood-color="#000000" flood-opacity="0.45"/>
  </filter>
  <filter id="dropSoft" x="-40%" y="-40%" width="180%" height="200%">
    <feDropShadow dx="0" dy="6" stdDeviation="9" flood-color="#000000" flood-opacity="0.22"/>
  </filter>
  <linearGradient id="screenGrad" x1="0" y1="0" x2="1" y2="1">
    <stop offset="0" stop-color="#2A1E5C"/><stop offset="0.5" stop-color="#161512"/><stop offset="1" stop-color="#0B0A09"/>
  </linearGradient>
  <linearGradient id="neonGrad" x1="0" y1="0" x2="1" y2="0">
    <stop offset="0" stop-color="#6C4DF6"/><stop offset="1" stop-color="#FFD21E"/>
  </linearGradient>
  <radialGradient id="gBanana">
    <stop offset="0" stop-color="#FFD21E" stop-opacity="0.85"/>
    <stop offset="0.55" stop-color="#FFD21E" stop-opacity="0.22"/>
    <stop offset="1" stop-color="#FFD21E" stop-opacity="0"/>
  </radialGradient>
  <radialGradient id="gViolet">
    <stop offset="0" stop-color="#6C4DF6" stop-opacity="0.85"/>
    <stop offset="0.55" stop-color="#6C4DF6" stop-opacity="0.22"/>
    <stop offset="1" stop-color="#6C4DF6" stop-opacity="0"/>
  </radialGradient></defs>
<rect width="1080" height="1920" fill="#FBF7EF"/>
<circle cx="540" cy="300" r="520" fill="url(#gBanana)" opacity="0.45"/>
<circle cx="900" cy="1700" r="420" fill="url(#gViolet)" opacity="0.18"/>
<rect width="1080" height="1920" filter="url(#grain)" opacity="0.04"/>
<g transform="translate(72,84) scale(0.375)">
    <circle cx="30" cy="52" r="19" fill="#161512"/><circle cx="98" cy="52" r="19" fill="#161512"/>
    <circle cx="30" cy="52" r="9" fill="#FFD21E"/><circle cx="98" cy="52" r="9" fill="#FFD21E"/>
    <rect x="28" y="26" width="72" height="80" rx="36" fill="#161512"/>
    <circle cx="64" cy="70" r="30" fill="#FBF7EF"/>
    <path d="M57 55 L57 85 L84 70 Z" fill="#FFD21E" stroke="#FFD21E" stroke-width="5" stroke-linejoin="round"/>
  </g><path d="M135.77 121.92L130.57 121.92L130.57 101.45L135.69 101.45L135.69 103.67L136.43 103.67Q136.97 102.64 138.21 101.88Q139.44 101.11 141.47 101.11L141.47 101.11Q143.66 101.11 144.98 101.96Q146.3 102.81 147 104.17L147 104.17L147.74 104.17Q148.44 102.85 149.72 101.98Q151 101.11 153.36 101.11L153.36 101.11Q155.26 101.11 156.8 101.92Q158.35 102.72 159.28 104.36Q160.21 105.99 160.21 108.46L160.21 108.46L160.21 121.92L155.01 121.92L155.01 108.83Q155.01 107.14 154.14 106.3Q153.27 105.45 151.7 105.45L151.7 105.45Q149.93 105.45 148.96 106.58Q147.99 107.72 147.99 109.82L147.99 109.82L147.99 121.92L142.79 121.92L142.79 108.83Q142.79 107.14 141.92 106.3Q141.05 105.45 139.49 105.45L139.49 105.45Q137.71 105.45 136.74 106.58Q135.77 107.72 135.77 109.82L135.77 109.82L135.77 121.92M174.33 122.5L174.33 122.5Q171.27 122.5 168.84 121.26Q166.4 120.02 165 117.67Q163.59 115.32 163.59 112.01L163.59 112.01L163.59 111.35Q163.59 108.05 165 105.7Q166.4 103.34 168.84 102.11Q171.27 100.87 174.33 100.87L174.33 100.87Q177.38 100.87 179.82 102.11Q182.25 103.34 183.66 105.7Q185.06 108.05 185.06 111.35L185.06 111.35L185.06 112.01Q185.06 115.32 183.66 117.67Q182.25 120.02 179.82 121.26Q177.38 122.5 174.33 122.5M174.33 117.87L174.33 117.87Q176.72 117.87 178.29 116.33Q179.86 114.78 179.86 111.89L179.86 111.89L179.86 111.48Q179.86 108.59 178.31 107.04Q176.76 105.49 174.33 105.49L174.33 105.49Q171.93 105.49 170.36 107.04Q168.79 108.59 168.79 111.48L168.79 111.48L168.79 111.89Q168.79 114.78 170.36 116.33Q171.93 117.87 174.33 117.87M193.81 121.92L188.61 121.92L188.61 101.45L193.73 101.45L193.73 104.13L194.47 104.13Q194.97 103.06 196.33 102.08Q197.69 101.11 200.46 101.11L200.46 101.11Q202.85 101.11 204.65 102.21Q206.44 103.3 207.43 105.22Q208.42 107.14 208.42 109.7L208.42 109.7L208.42 121.92L203.22 121.92L203.22 110.11Q203.22 107.8 202.09 106.65Q200.95 105.49 198.85 105.49L198.85 105.49Q196.45 105.49 195.13 107.08Q193.81 108.67 193.81 111.52L193.81 111.52L193.81 121.92M225.84 121.92L220.06 121.92Q218.04 121.92 216.78 120.66Q215.52 119.4 215.52 117.3L215.52 117.3L215.52 105.74L210.41 105.74L210.41 101.45L215.52 101.45L215.52 95.09L220.73 95.09L220.73 101.45L226.34 101.45L226.34 105.74L220.73 105.74L220.73 116.39Q220.73 117.63 221.88 117.63L221.88 117.63L225.84 117.63L225.84 121.92M244.92 130.18L232.04 130.18L232.04 125.64L243.18 125.64Q244.34 125.64 244.34 124.4L244.34 124.4L244.34 119.24L243.59 119.24Q243.26 119.94 242.56 120.64Q241.86 121.34 240.66 121.8Q239.47 122.25 237.61 122.25L237.61 122.25Q235.21 122.25 233.42 121.16Q231.62 120.06 230.63 118.12Q229.64 116.18 229.64 113.66L229.64 113.66L229.64 101.45L234.84 101.45L234.84 113.25Q234.84 115.56 235.98 116.72Q237.11 117.87 239.22 117.87L239.22 117.87Q241.61 117.87 242.93 116.29Q244.25 114.7 244.25 111.85L244.25 111.85L244.25 101.45L249.46 101.45L249.46 125.55Q249.46 127.66 248.22 128.92Q246.98 130.18 244.92 130.18L244.92 130.18" fill="#161512"><title>monty</title></path>
<rect x="72" y="300" width="936" height="1060" rx="40" fill="#161512" opacity="0.06"/>
<rect x="72" y="300" width="936" height="1060" rx="40" fill="none" stroke="#161512" stroke-width="4" stroke-dasharray="22 18" opacity="0.35"/>
<path d="M427.02 830L427.02 812.97L433.99 812.97L433.99 830L427.02 830M419.64 815.82L419.64 810.59L441.37 810.59L441.37 815.82L419.64 815.82M459.18 830L442.93 830L444.15 820.28L442.93 810.59L458.74 810.59Q461.56 810.59 463.23 811.9Q464.89 813.2 464.89 815.45L464.89 815.45Q464.89 817.56 463.21 818.87Q461.53 820.17 458.57 820.48L458.57 820.48L459.01 819.36Q462.45 819.49 464.27 820.82Q466.08 822.15 466.08 824.49L466.08 824.49Q466.08 827.01 464.21 828.5Q462.34 830 459.18 830L459.18 830M450.75 820.28L449.63 828.54L446.94 825.68L456.87 825.68Q457.99 825.68 458.55 825.19Q459.11 824.7 459.11 823.81L459.11 823.81Q459.11 823 458.52 822.47Q457.92 821.94 456.63 821.94L456.63 821.94L448.3 821.94L448.3 818.34L455.82 818.34Q456.87 818.34 457.41 817.86Q457.96 817.39 457.96 816.6L457.96 816.6Q457.96 815.82 457.47 815.35Q456.97 814.87 455.95 814.87L455.95 814.87L446.98 814.87L449.63 812.05L450.75 820.28M480.19 830.54L480.19 830.54Q476.45 830.54 473.67 829.27Q470.88 827.99 469.31 825.67Q467.75 823.34 467.75 820.31L467.75 820.31Q467.75 817.22 469.31 814.9Q470.88 812.59 473.67 811.3Q476.45 810.01 480.19 810.01L480.19 810.01Q483.9 810.01 486.71 811.3Q489.51 812.59 491.07 814.9Q492.64 817.22 492.64 820.31L492.64 820.31Q492.64 823.34 491.07 825.67Q489.51 827.99 486.71 829.27Q483.9 830.54 480.19 830.54M480.19 825.41L480.19 825.41Q481.89 825.41 483.1 824.8Q484.31 824.19 484.95 823.03Q485.6 821.87 485.6 820.31L485.6 820.31Q485.6 818.68 484.95 817.54Q484.31 816.4 483.1 815.79Q481.89 815.18 480.19 815.18L480.19 815.18Q478.49 815.18 477.27 815.79Q476.05 816.4 475.4 817.54Q474.75 818.68 474.75 820.28L474.75 820.28Q474.75 821.87 475.4 823.03Q476.05 824.19 477.27 824.8Q478.49 825.41 480.19 825.41M506.61 830.54L506.61 830.54Q503.08 830.54 500.31 829.25Q497.53 827.96 495.94 825.63Q494.34 823.3 494.34 820.21L494.34 820.21Q494.34 817.18 495.87 814.89Q497.4 812.59 500.07 811.3Q502.74 810.01 506.1 810.01L506.1 810.01Q509.6 810.01 512.07 811.52Q514.53 813.03 515.88 815.79Q517.22 818.54 517.22 822.28L517.22 822.28L499.95 822.28L499.95 818.1L513.31 818.1L511.03 819.56Q510.9 818.07 510.28 817.03Q509.67 815.99 508.67 815.45Q507.67 814.9 506.27 814.9L506.27 814.9Q504.74 814.9 503.65 815.52Q502.57 816.13 501.95 817.2Q501.34 818.27 501.34 819.7L501.34 819.7Q501.34 821.53 502.18 822.81Q503.01 824.08 504.62 824.76Q506.24 825.44 508.58 825.44L508.58 825.44Q510.73 825.44 512.85 824.88Q514.98 824.32 516.71 823.3L516.71 823.3L516.71 827.72Q514.7 829.08 512.14 829.81Q509.57 830.54 506.61 830.54M500.87 808.68L500.87 808.68Q499.17 808.68 498.13 807.83Q497.09 806.98 497.09 805.45L497.09 805.45Q497.09 803.99 498.13 803.14Q499.17 802.29 500.87 802.29L500.87 802.29Q502.6 802.29 503.62 803.14Q504.64 803.99 504.64 805.45L504.64 805.45Q504.64 806.98 503.62 807.83Q502.6 808.68 500.87 808.68M511.27 808.68L511.27 808.68Q509.54 808.68 508.52 807.83Q507.5 806.98 507.5 805.45L507.5 805.45Q507.5 803.99 508.52 803.14Q509.54 802.29 511.27 802.29L511.27 802.29Q512.97 802.29 513.99 803.14Q515.01 803.99 515.01 805.45L515.01 805.45Q515.01 806.98 513.99 807.83Q512.97 808.68 511.27 808.68M543.71 830L527.45 830L528.68 820.28L527.45 810.59L543.26 810.59Q546.09 810.59 547.75 811.9Q549.42 813.2 549.42 815.45L549.42 815.45Q549.42 817.56 547.73 818.87Q546.05 820.17 543.09 820.48L543.09 820.48L543.54 819.36Q546.97 819.49 548.79 820.82Q550.61 822.15 550.61 824.49L550.61 824.49Q550.61 827.01 548.74 828.5Q546.87 830 543.71 830L543.71 830M535.27 820.28L534.15 828.54L531.47 825.68L541.39 825.68Q542.52 825.68 543.08 825.19Q543.64 824.7 543.64 823.81L543.64 823.81Q543.64 823 543.04 822.47Q542.45 821.94 541.16 821.94L541.16 821.94L532.83 821.94L532.83 818.34L540.34 818.34Q541.39 818.34 541.94 817.86Q542.48 817.39 542.48 816.6L542.48 816.6Q542.48 815.82 541.99 815.35Q541.5 814.87 540.48 814.87L540.48 814.87L531.5 814.87L534.15 812.05L535.27 820.28M561.83 830L553.16 830L553.16 810.59L560.03 810.59L560.03 826.23L558.53 825.75L568.7 810.59L577.6 810.59L577.6 830L570.77 830L570.77 813.92L572.27 814.43L561.83 830M602.22 824.83L608.75 824.83L608.75 834.66L602.76 834.66L602.76 830L585.8 830L585.8 834.66L579.81 834.66L579.81 824.83L585.66 824.83L586.95 824.93L601.03 824.93L602.22 824.83M583.86 810.59L583.86 810.59L605.21 810.59L605.21 828.67L598.31 828.67L598.31 812.46L601.47 815.62L587.26 815.62L589.84 813.1Q590.32 814.5 590.42 815.74Q590.52 816.98 590.52 818L590.52 818Q590.52 822.69 588.93 825.29Q587.33 827.89 584.44 827.89L584.44 827.89L581.62 825.51Q584.27 823.68 584.27 816.6L584.27 816.6Q584.27 815.24 584.17 813.71Q584.06 812.18 583.86 810.59M622.59 830.54L622.59 830.54Q619.05 830.54 616.28 829.25Q613.51 827.96 611.91 825.63Q610.31 823.3 610.31 820.21L610.31 820.21Q610.31 817.18 611.84 814.89Q613.37 812.59 616.04 811.3Q618.71 810.01 622.08 810.01L622.08 810.01Q625.58 810.01 628.04 811.52Q630.51 813.03 631.85 815.79Q633.19 818.54 633.19 822.28L633.19 822.28L615.92 822.28L615.92 818.1L629.28 818.1L627.01 819.56Q626.87 818.07 626.26 817.03Q625.65 815.99 624.64 815.45Q623.64 814.9 622.25 814.9L622.25 814.9Q620.72 814.9 619.63 815.52Q618.54 816.13 617.93 817.2Q617.32 818.27 617.32 819.7L617.32 819.7Q617.32 821.53 618.15 822.81Q618.98 824.08 620.6 824.76Q622.21 825.44 624.56 825.44L624.56 825.44Q626.7 825.44 628.83 824.88Q630.95 824.32 632.68 823.3L632.68 823.3L632.68 827.72Q630.68 829.08 628.11 829.81Q625.54 830.54 622.59 830.54M647.37 830.54L647.37 830.54Q643.63 830.54 640.84 829.27Q638.06 827.99 636.49 825.67Q634.93 823.34 634.93 820.31L634.93 820.31Q634.93 817.22 636.49 814.9Q638.06 812.59 640.84 811.3Q643.63 810.01 647.37 810.01L647.37 810.01Q651.08 810.01 653.88 811.3Q656.69 812.59 658.25 814.9Q659.82 817.22 659.82 820.31L659.82 820.31Q659.82 823.34 658.25 825.67Q656.69 827.99 653.88 829.27Q651.08 830.54 647.37 830.54M647.37 825.41L647.37 825.41Q649.07 825.41 650.28 824.8Q651.49 824.19 652.13 823.03Q652.78 821.87 652.78 820.31L652.78 820.31Q652.78 818.68 652.13 817.54Q651.49 816.4 650.28 815.79Q649.07 815.18 647.37 815.18L647.37 815.18Q645.67 815.18 644.45 815.79Q643.22 816.4 642.58 817.54Q641.93 818.68 641.93 820.28L641.93 820.28Q641.93 821.87 642.58 823.03Q643.22 824.19 644.45 824.8Q645.67 825.41 647.37 825.41" fill="#161512" opacity="0.45"><title>твоё видео</title></path>
<path d="M104.5 1500.78L104.5 1500.78Q98.29 1500.78 93.62 1498.53Q88.95 1496.27 86.35 1492.23Q83.75 1488.18 83.75 1482.75L83.75 1482.75Q83.75 1477.32 86.35 1473.27Q88.95 1469.23 93.62 1466.97Q98.29 1464.72 104.5 1464.72L104.5 1464.72Q110.71 1464.72 115.37 1466.97Q120.04 1469.23 122.64 1473.27Q125.24 1477.32 125.24 1482.75L125.24 1482.75Q125.24 1488.18 122.64 1492.23Q120.04 1496.27 115.37 1498.53Q110.71 1500.78 104.5 1500.78M104.5 1491.26L104.5 1491.26Q107.58 1491.26 109.81 1490.23Q112.04 1489.19 113.24 1487.28Q114.43 1485.37 114.43 1482.75L114.43 1482.75Q114.43 1480.13 113.24 1478.22Q112.04 1476.31 109.81 1475.28Q107.58 1474.24 104.5 1474.24L104.5 1474.24Q101.41 1474.24 99.18 1475.28Q96.95 1476.31 95.76 1478.22Q94.56 1480.13 94.56 1482.75L94.56 1482.75Q94.56 1485.37 95.76 1487.28Q96.95 1489.19 99.18 1490.23Q101.41 1491.26 104.5 1491.26M135.82 1500L135.82 1477.28L146.36 1477.28L146.36 1500L135.82 1500M126.12 1481.51L126.12 1473.64L156.06 1473.64L156.06 1481.51L126.12 1481.51M180.58 1500L167.47 1500L167.47 1473.64L177.87 1473.64L177.87 1494.16L175.8 1493.47L188.22 1473.64L201.69 1473.64L201.69 1500L191.34 1500L191.34 1478.79L193.37 1479.53L180.58 1500M234.45 1492.18L243.74 1492.18L243.74 1506.21L234.68 1506.21L234.68 1500L212.73 1500L212.73 1506.21L203.67 1506.21L203.67 1492.18L212 1492.18L213.75 1492.36L232.84 1492.36L234.45 1492.18M209.05 1473.64L209.05 1473.64L238.91 1473.64L238.91 1498.21L228.47 1498.21L228.47 1476.4L233.3 1481.23L214.11 1481.23L217.93 1477.32Q218.71 1479.21 218.85 1480.8Q218.99 1482.38 218.99 1483.72L218.99 1483.72Q218.99 1489.97 216.74 1493.38Q214.48 1496.78 210.34 1496.78L210.34 1496.78L206.06 1493.19Q209.56 1490.75 209.56 1481.6L209.56 1481.6Q209.56 1479.81 209.42 1477.81Q209.28 1475.8 209.05 1473.64M261.72 1500.78L261.72 1500.78Q256.85 1500.78 253.03 1499.03Q249.21 1497.29 247 1494.11Q244.8 1490.94 244.8 1486.71L244.8 1486.71Q244.8 1482.57 246.93 1479.44Q249.07 1476.31 252.78 1474.59Q256.48 1472.86 261.08 1472.86L261.08 1472.86Q265.91 1472.86 269.31 1474.91Q272.72 1476.95 274.53 1480.75Q276.35 1484.54 276.35 1489.7L276.35 1489.7L253.4 1489.7L253.4 1483.67L270.28 1483.67L267.2 1485.74Q267.01 1483.95 266.28 1482.68Q265.54 1481.42 264.32 1480.77Q263.1 1480.13 261.45 1480.13L261.45 1480.13Q259.56 1480.13 258.23 1480.86Q256.89 1481.6 256.18 1482.91Q255.47 1484.22 255.47 1485.88L255.47 1485.88Q255.47 1488.22 256.5 1489.83Q257.54 1491.44 259.65 1492.3Q261.77 1493.15 264.9 1493.15L264.9 1493.15Q267.75 1493.15 270.56 1492.46Q273.36 1491.77 275.66 1490.43L275.66 1490.43L275.66 1496.96Q272.86 1498.8 269.38 1499.79Q265.91 1500.78 261.72 1500.78M291.81 1500L278.7 1500L278.7 1473.64L289.09 1473.64L289.09 1494.16L287.02 1493.47L299.44 1473.64L312.92 1473.64L312.92 1500L302.57 1500L302.57 1478.79L304.6 1479.53L291.81 1500M355.43 1492.18L364.72 1492.18L364.72 1506.21L355.66 1506.21L355.66 1500L333.71 1500L333.71 1506.21L324.65 1506.21L324.65 1492.18L332.98 1492.18L334.73 1492.36L353.82 1492.36L355.43 1492.18M330.03 1473.64L330.03 1473.64L359.89 1473.64L359.89 1498.21L349.45 1498.21L349.45 1476.4L354.28 1481.23L335.09 1481.23L338.91 1477.32Q339.69 1479.21 339.83 1480.8Q339.97 1482.38 339.97 1483.72L339.97 1483.72Q339.97 1489.97 337.72 1493.38Q335.46 1496.78 331.32 1496.78L331.32 1496.78L327.04 1493.19Q330.54 1490.75 330.54 1481.6L330.54 1481.6Q330.54 1479.81 330.4 1477.81Q330.26 1475.8 330.03 1473.64M382.93 1500.78L382.93 1500.78Q377.83 1500.78 373.96 1499.03Q370.1 1497.29 367.94 1494.14Q365.78 1490.98 365.78 1486.84L365.78 1486.84Q365.78 1482.61 367.94 1479.46Q370.1 1476.31 373.96 1474.59Q377.83 1472.86 382.98 1472.86L382.98 1472.86Q388.09 1472.86 391.95 1474.59Q395.81 1476.31 397.95 1479.46Q400.09 1482.61 400.09 1486.84L400.09 1486.84Q400.09 1490.98 397.95 1494.14Q395.81 1497.29 391.95 1499.03Q388.09 1500.78 382.93 1500.78M382.98 1493.05L382.98 1493.05Q385.05 1493.05 386.5 1492.32Q387.95 1491.58 388.71 1490.18Q389.47 1488.78 389.47 1486.84L389.47 1486.84Q389.47 1484.87 388.71 1483.46Q387.95 1482.06 386.5 1481.32Q385.05 1480.59 382.98 1480.59L382.98 1480.59Q380.91 1480.59 379.44 1481.32Q377.97 1482.06 377.21 1483.46Q376.45 1484.87 376.45 1486.8L376.45 1486.8Q376.45 1488.78 377.21 1490.18Q377.97 1491.58 379.44 1492.32Q380.91 1493.05 382.98 1493.05M412.14 1507.59L412.14 1473.64L422.68 1473.64L422.68 1480.68L422.26 1481.88L422.26 1489.93L422.68 1492.27L422.68 1507.59L412.14 1507.59M419.46 1486.84L419.46 1486.84Q420.01 1482.57 421.87 1479.42Q423.74 1476.26 426.68 1474.56Q429.62 1472.86 433.35 1472.86L433.35 1472.86Q437.21 1472.86 440.13 1474.59Q443.06 1476.31 444.69 1479.46Q446.32 1482.61 446.32 1486.84L446.32 1486.84Q446.32 1490.98 444.69 1494.14Q443.06 1497.29 440.13 1499.03Q437.21 1500.78 433.35 1500.78L433.35 1500.78Q429.58 1500.78 426.66 1499.06Q423.74 1497.33 421.9 1494.18Q420.06 1491.03 419.46 1486.84M435.7 1486.84L435.7 1486.84Q435.7 1485.1 434.98 1483.74Q434.27 1482.38 432.98 1481.6Q431.69 1480.82 430.04 1480.82L430.04 1480.82Q428.34 1480.82 426.77 1481.6Q425.21 1482.38 424.03 1483.74Q422.86 1485.1 422.31 1486.84L422.31 1486.84Q422.86 1488.59 424.03 1489.93Q425.21 1491.26 426.77 1492.04Q428.34 1492.82 430.04 1492.82L430.04 1492.82Q431.69 1492.82 432.98 1492.04Q434.27 1491.26 434.98 1489.93Q435.7 1488.59 435.7 1486.84M464.68 1500.78L464.68 1500.78Q459.57 1500.78 455.71 1499.03Q451.84 1497.29 449.68 1494.14Q447.52 1490.98 447.52 1486.84L447.52 1486.84Q447.52 1482.61 449.68 1479.46Q451.84 1476.31 455.71 1474.59Q459.57 1472.86 464.72 1472.86L464.72 1472.86Q469.83 1472.86 473.69 1474.59Q477.56 1476.31 479.69 1479.46Q481.83 1482.61 481.83 1486.84L481.83 1486.84Q481.83 1490.98 479.69 1494.14Q477.56 1497.29 473.69 1499.03Q469.83 1500.78 464.68 1500.78M464.72 1493.05L464.72 1493.05Q466.79 1493.05 468.24 1492.32Q469.69 1491.58 470.45 1490.18Q471.21 1488.78 471.21 1486.84L471.21 1486.84Q471.21 1484.87 470.45 1483.46Q469.69 1482.06 468.24 1481.32Q466.79 1480.59 464.72 1480.59L464.72 1480.59Q462.65 1480.59 461.18 1481.32Q459.71 1482.06 458.95 1483.46Q458.19 1484.87 458.19 1486.8L458.19 1486.8Q458.19 1488.78 458.95 1490.18Q459.71 1491.58 461.18 1492.32Q462.65 1493.05 464.72 1493.05M488.6 1473.64L488.6 1473.64L518.08 1473.64L518.08 1500L507.55 1500L507.55 1476.63L512.33 1481.42L493.84 1481.42L498.3 1477.28Q498.58 1479.99 498.72 1482.06Q498.85 1484.13 498.85 1485.83L498.85 1485.83Q498.85 1493.65 496.39 1497.13Q493.93 1500.6 488.37 1500.6L488.37 1500.6Q486.71 1500.6 485.26 1500.25Q483.81 1499.91 482.39 1499.13L482.39 1499.13L482.39 1491.67Q483.21 1492 484.02 1492.16Q484.82 1492.32 485.47 1492.32L485.47 1492.32Q487.58 1492.32 488.46 1490.48Q489.33 1488.64 489.33 1484.41L489.33 1484.41Q489.33 1482.29 489.15 1479.6Q488.96 1476.91 488.6 1473.64M534.6 1500L521.49 1500L521.49 1473.64L531.88 1473.64L531.88 1494.16L529.81 1493.47L542.23 1473.64L555.71 1473.64L555.71 1500L545.36 1500L545.36 1478.79L547.38 1479.53L534.6 1500M568.41 1500L559.11 1500L559.11 1473.64L569.65 1473.64L569.65 1491.9L566.61 1490.85L580.6 1473.64L591.54 1473.64L568.41 1500M592.23 1500L580.46 1500L573.14 1487.21L581.19 1481.83L592.23 1500M627.24 1500L616.29 1500L615.05 1490.62L616.34 1486.84L615.05 1483.12L616.29 1473.64L627.24 1473.64L625.49 1486.8L627.24 1500M618.64 1486.84L618.64 1486.84Q618.09 1491.03 616.22 1494.18Q614.36 1497.33 611.44 1499.06Q608.52 1500.78 604.75 1500.78L604.75 1500.78Q600.93 1500.78 597.98 1499.03Q595.04 1497.29 593.41 1494.14Q591.77 1490.98 591.77 1486.84L591.77 1486.84Q591.77 1482.61 593.41 1479.46Q595.04 1476.31 597.98 1474.59Q600.93 1472.86 604.75 1472.86L604.75 1472.86Q608.52 1472.86 611.44 1474.56Q614.36 1476.26 616.25 1479.42Q618.13 1482.57 618.64 1486.84M602.4 1486.84L602.4 1486.84Q602.4 1488.59 603.11 1489.93Q603.83 1491.26 605.11 1492.04Q606.4 1492.82 608.06 1492.82L608.06 1492.82Q609.76 1492.82 611.32 1492.04Q612.89 1491.26 614.08 1489.93Q615.28 1488.59 615.83 1486.84L615.83 1486.84Q615.28 1485.1 614.08 1483.74Q612.89 1482.38 611.32 1481.6Q609.76 1480.82 608.06 1480.82L608.06 1480.82Q606.4 1480.82 605.11 1481.6Q603.83 1482.38 603.11 1483.74Q602.4 1485.1 602.4 1486.84M654.06 1500.78L654.06 1500.78Q649.32 1500.78 645.78 1499.59Q642.24 1498.39 640.26 1496.16Q638.28 1493.93 638.14 1490.89L638.14 1490.89L648.35 1490.89Q648.54 1492.32 650.03 1493.1Q651.53 1493.88 654.06 1493.88L654.06 1493.88Q656.45 1493.88 657.76 1493.28Q659.07 1492.69 659.07 1491.49L659.07 1491.49Q659.07 1490.39 657.92 1489.93Q656.77 1489.47 654.15 1489.47L654.15 1489.47L649.73 1489.47L649.73 1484.08L654.06 1484.08Q656.31 1484.08 657.39 1483.53Q658.47 1482.98 658.47 1481.97L658.47 1481.97Q658.47 1480.91 657.3 1480.34Q656.13 1479.76 654.01 1479.76L654.01 1479.76Q651.67 1479.76 650.31 1480.47Q648.95 1481.19 648.72 1482.57L648.72 1482.57L638.65 1482.57Q638.79 1479.9 640.63 1477.69Q642.47 1475.48 645.96 1474.17Q649.46 1472.86 654.43 1472.86L654.43 1472.86Q658.8 1472.86 662.08 1473.83Q665.37 1474.79 667.21 1476.54Q669.05 1478.29 669.05 1480.54L669.05 1480.54Q669.05 1482.24 668 1483.72Q666.94 1485.19 664.43 1486.09Q661.92 1486.98 657.65 1486.94L657.65 1486.94L657.65 1486.15Q663.53 1485.92 666.62 1487.42Q669.7 1488.91 669.7 1492.27L669.7 1492.27Q669.7 1494.66 667.86 1496.6Q666.02 1498.53 662.52 1499.66Q659.03 1500.78 654.06 1500.78M706.54 1500L695.6 1500L694.35 1490.62L695.64 1486.84L694.35 1483.12L695.6 1473.64L706.54 1473.64L704.8 1486.8L706.54 1500M697.94 1486.84L697.94 1486.84Q697.39 1491.03 695.53 1494.18Q693.66 1497.33 690.74 1499.06Q687.82 1500.78 684.05 1500.78L684.05 1500.78Q680.23 1500.78 677.29 1499.03Q674.34 1497.29 672.71 1494.14Q671.08 1490.98 671.08 1486.84L671.08 1486.84Q671.08 1482.61 672.71 1479.46Q674.34 1476.31 677.29 1474.59Q680.23 1472.86 684.05 1472.86L684.05 1472.86Q687.82 1472.86 690.74 1474.56Q693.66 1476.26 695.55 1479.42Q697.44 1482.57 697.94 1486.84M681.7 1486.84L681.7 1486.84Q681.7 1488.59 682.42 1489.93Q683.13 1491.26 684.42 1492.04Q685.71 1492.82 687.36 1492.82L687.36 1492.82Q689.06 1492.82 690.63 1492.04Q692.19 1491.26 693.39 1489.93Q694.58 1488.59 695.14 1486.84L695.14 1486.84Q694.58 1485.1 693.39 1483.74Q692.19 1482.38 690.63 1481.6Q689.06 1480.82 687.36 1480.82L687.36 1480.82Q685.71 1480.82 684.42 1481.6Q683.13 1482.38 682.42 1483.74Q681.7 1485.1 681.7 1486.84M736.81 1465.5L750.33 1465.5L750.33 1500L739.75 1500L739.75 1470.24L742.79 1470.24L725.49 1489.33L725.45 1486.06L755.53 1486.06L755.53 1493.84L717.81 1493.84L717.81 1486.34L736.81 1465.5M777.8 1500L767.91 1500L767.91 1473.64L783.78 1473.64L790.95 1494.11L788.28 1494.11L795.32 1473.64L811.19 1473.64L811.19 1500L801.3 1500L801.3 1477.69L802.87 1477.69L794.31 1500L784.83 1500L776.28 1477.78L777.8 1477.74L777.8 1500M827.71 1500L814.6 1500L814.6 1473.64L824.99 1473.64L824.99 1494.16L822.92 1493.47L835.34 1473.64L848.82 1473.64L848.82 1500L838.47 1500L838.47 1478.79L840.49 1479.53L827.71 1500M852.22 1500L852.22 1473.64L862.76 1473.64L862.76 1500L852.22 1500M873.89 1500L873.89 1473.64L884.42 1473.64L884.42 1500L873.89 1500M858.3 1490.39L858.3 1482.57L877.8 1482.57L877.8 1490.39L858.3 1490.39M897.26 1508.37L897.26 1508.37Q894.13 1508.37 891.76 1507.61Q889.39 1506.85 887.09 1505.2L887.09 1505.2L887.09 1498.02Q889.39 1499.49 891.37 1500.14Q893.35 1500.78 895.7 1500.78L895.7 1500.78Q897.63 1500.78 899.08 1499.95Q900.52 1499.13 901.49 1496.87L901.49 1496.87L911.01 1473.64L922.19 1473.64L909.86 1500.09Q908.44 1503.17 906.39 1505.01Q904.34 1506.85 902 1507.61Q899.65 1508.37 897.26 1508.37M906.78 1497.01L896.66 1497.01L885.81 1473.64L897.4 1473.64L906.78 1497.01M931.11 1500L931.11 1477.28L941.65 1477.28L941.65 1500L931.11 1500M921.41 1481.51L921.41 1473.64L951.35 1473.64L951.35 1481.51L921.41 1481.51M984.84 1500L984.84 1473.64L995.38 1473.64L995.38 1500L984.84 1500M971 1500L953.01 1500L953.01 1473.64L963.5 1473.64L963.5 1497.47L960.37 1492.69L969.07 1492.69Q970.58 1492.69 971.39 1491.95Q972.19 1491.21 972.19 1489.88L972.19 1489.88Q972.19 1488.55 971.39 1487.81Q970.58 1487.07 969.07 1487.07L969.07 1487.07L960.23 1487.07L960.23 1480.08L970.86 1480.08Q974.45 1480.08 977.11 1481.32Q979.78 1482.57 981.25 1484.82Q982.73 1487.07 982.73 1490.06L982.73 1490.06Q982.73 1493.05 981.28 1495.31Q979.83 1497.56 977.18 1498.78Q974.54 1500 971 1500L971 1500" fill="#161512"><title>От идеи до ролика за 4 минуты</title></path>
<g transform="translate(195.92000000000007,1560)" filter="url(#dropSoft)">
      <rect width="688.1599999999999" height="92" rx="46" fill="#161512" stroke="#FFD21E" stroke-width="2"/>
      <path d="M32.14 45.23L30.93 38.93L37.49 38.93L38.67 46.22L38.67 57.2L32.14 57.2L32.14 45.23M44.98 38.38L44.98 38.38Q47.5 38.38 49.26 39.44Q51.02 40.5 51.95 42.42Q52.88 44.34 52.88 46.96L52.88 46.96L52.88 57.2L46.35 57.2L46.35 47.92Q46.35 45.87 45.42 44.78Q44.5 43.7 42.74 43.7L42.74 43.7Q41.49 43.7 40.58 44.27Q39.66 44.85 39.17 45.9Q38.67 46.96 38.67 48.4L38.67 48.4L36.66 47.34Q37.04 44.43 38.22 42.43Q39.41 40.43 41.15 39.41Q42.9 38.38 44.98 38.38M59.15 38.38L59.15 38.38Q61.68 38.38 63.46 39.44Q65.23 40.5 66.16 42.42Q67.09 44.34 67.09 46.96L67.09 46.96L67.09 57.2L60.56 57.2L60.56 47.92Q60.56 45.87 59.63 44.78Q58.7 43.7 56.94 43.7L56.94 43.7Q55.7 43.7 54.78 44.27Q53.87 44.85 53.38 45.9Q52.88 46.96 52.88 48.4L52.88 48.4L50.86 47.34Q51.25 44.43 52.42 42.43Q53.58 40.43 55.34 39.41Q57.1 38.38 59.15 38.38M81.01 57.71L81.01 57.71Q77.49 57.71 74.86 56.51Q72.24 55.31 70.77 53.12Q69.3 50.93 69.3 48.08L69.3 48.08Q69.3 45.17 70.77 42.99Q72.24 40.82 74.86 39.6Q77.49 38.38 81.01 38.38L81.01 38.38Q84.5 38.38 87.14 39.6Q89.78 40.82 91.25 42.99Q92.72 45.17 92.72 48.08L92.72 48.08Q92.72 50.93 91.25 53.12Q89.78 55.31 87.14 56.51Q84.5 57.71 81.01 57.71M81.01 52.88L81.01 52.88Q82.61 52.88 83.74 52.3Q84.88 51.73 85.49 50.64Q86.1 49.55 86.1 48.08L86.1 48.08Q86.1 46.54 85.49 45.47Q84.88 44.4 83.74 43.82Q82.61 43.25 81.01 43.25L81.01 43.25Q79.41 43.25 78.26 43.82Q77.1 44.4 76.5 45.47Q75.89 46.54 75.89 48.05L75.89 48.05Q75.89 49.55 76.5 50.64Q77.1 51.73 78.26 52.3Q79.41 52.88 81.01 52.88M95.5 45.23L94.29 38.93L100.85 38.93L102.03 46.22L102.03 57.2L95.5 57.2L95.5 45.23M108.75 38.38L108.75 38.38Q111.38 38.38 113.23 39.44Q115.09 40.5 116.06 42.42Q117.04 44.34 117.04 46.96L117.04 46.96L117.04 57.2L110.51 57.2L110.51 47.92Q110.51 45.87 109.47 44.78Q108.43 43.7 106.48 43.7L106.48 43.7Q105.14 43.7 104.13 44.27Q103.12 44.85 102.58 45.9Q102.03 46.96 102.03 48.4L102.03 48.4L100.02 47.34Q100.4 44.43 101.65 42.43Q102.9 40.43 104.72 39.41Q106.54 38.38 108.75 38.38M122.19 43.76L118.48 43.76L118.48 40.91L122.19 39.41L125.01 34L128.72 34L128.72 38.93L136.4 38.93L136.4 43.76L128.72 43.76L128.72 49.14Q128.72 51.12 129.52 51.92Q130.32 52.72 132.43 52.72L132.43 52.72Q133.78 52.72 134.82 52.48Q135.86 52.24 136.72 51.86L136.72 51.86L136.72 56.78Q135.76 57.14 134.19 57.42Q132.62 57.71 130.96 57.71L130.96 57.71Q127.92 57.71 125.98 56.78Q124.05 55.86 123.12 54.11Q122.19 52.37 122.19 50.03L122.19 50.03L122.19 43.76M145.07 62.99L145.07 62.99Q143.06 62.99 141.49 62.5Q139.92 62 138.45 60.98L138.45 60.98L138.45 56.43Q139.95 57.39 141.26 57.81Q142.58 58.22 144.14 58.22L144.14 58.22Q145.46 58.22 146.48 57.65Q147.5 57.07 148.14 55.54L148.14 55.54L155.15 38.93L162.1 38.93L153.33 57.55Q152.4 59.57 151.07 60.77Q149.74 61.97 148.21 62.48Q146.67 62.99 145.07 62.99M151.6 55.5L145.3 55.5L137.52 38.93L144.72 38.93L151.6 55.5M166.61 57.52L166.61 57.52Q165.58 57.52 164.74 57.04Q163.89 56.56 163.41 55.71Q162.93 54.86 162.93 53.84L162.93 53.84Q162.93 52.82 163.41 51.98Q163.89 51.15 164.74 50.66Q165.58 50.16 166.61 50.16L166.61 50.16Q167.66 50.16 168.5 50.66Q169.33 51.15 169.81 51.98Q170.29 52.82 170.29 53.84L170.29 53.84Q170.29 54.86 169.81 55.71Q169.33 56.56 168.5 57.04Q167.66 57.52 166.61 57.52M185.87 36.91L185.87 36.91Q183.73 36.91 182.88 37.66Q182.03 38.42 182.03 40.08L182.03 40.08L182.03 57.2L175.5 57.2L175.5 40.4Q175.5 37.74 176.59 35.87Q177.68 34 179.81 33.02Q181.94 32.05 185.07 32.05L185.07 32.05Q186.48 32.05 187.58 32.24Q188.69 32.43 189.94 32.78L189.94 32.78L189.94 37.58Q188.98 37.23 187.97 37.07Q186.96 36.91 185.87 36.91M189.49 45.26L171.79 45.26L171.79 40.43L189.49 40.43L189.49 45.26M214.7 57.2L207.92 57.2L207.09 50.61L207.95 48.08L207.09 45.55L207.92 38.93L214.7 38.93L213.55 48.05L214.7 57.2M209.46 48.08L209.46 48.08Q209.01 50.96 207.68 53.14Q206.35 55.31 204.32 56.51Q202.29 57.71 199.7 57.71L199.7 57.71Q197.01 57.71 194.98 56.51Q192.94 55.31 191.79 53.12Q190.64 50.93 190.64 48.08L190.64 48.08Q190.64 45.17 191.79 42.99Q192.94 40.82 194.98 39.6Q197.01 38.38 199.7 38.38L199.7 38.38Q202.29 38.38 204.32 39.58Q206.35 40.78 207.7 42.94Q209.04 45.1 209.46 48.08M197.26 48.08L197.26 48.08Q197.26 49.42 197.82 50.48Q198.38 51.54 199.38 52.13Q200.37 52.72 201.65 52.72L201.65 52.72Q202.99 52.72 204.18 52.13Q205.36 51.54 206.26 50.48Q207.15 49.42 207.6 48.08L207.6 48.08Q207.15 46.7 206.26 45.65Q205.36 44.59 204.18 43.98Q202.99 43.38 201.65 43.38L201.65 43.38Q200.37 43.38 199.38 43.98Q198.38 44.59 197.82 45.65Q197.26 46.7 197.26 48.08M238.7 51.25L238.7 51.25Q238.7 53.36 237.42 54.8Q236.14 56.24 233.78 56.98Q231.41 57.71 228.08 57.71L228.08 57.71Q224.66 57.71 222.08 56.88Q219.5 56.05 218.06 54.54Q216.62 53.04 216.53 51.06L216.53 51.06L223.15 51.06Q223.38 51.79 224.03 52.32Q224.69 52.85 225.78 53.12Q226.86 53.39 228.37 53.39L228.37 53.39Q230.32 53.39 231.33 53.01Q232.34 52.62 232.34 51.86L232.34 51.86Q232.34 51.25 231.57 50.94Q230.8 50.64 228.94 50.48L228.94 50.48L225.71 50.22Q222.48 50 220.58 49.25Q218.67 48.5 217.84 47.3Q217.01 46.1 217.01 44.56L217.01 44.56Q217.01 42.48 218.3 41.12Q219.6 39.76 221.92 39.07Q224.24 38.38 227.34 38.38L227.34 38.38Q230.42 38.38 232.82 39.18Q235.22 39.98 236.66 41.41Q238.1 42.83 238.32 44.75L238.32 44.75L231.7 44.75Q231.54 44.14 230.99 43.65Q230.45 43.15 229.49 42.83Q228.53 42.51 227.02 42.51L227.02 42.51Q225.26 42.51 224.35 42.9Q223.44 43.28 223.44 43.98L223.44 43.98Q223.44 44.53 224 44.85Q224.56 45.17 226.1 45.3L226.1 45.3L230.35 45.62Q233.52 45.81 235.34 46.53Q237.17 47.25 237.94 48.43Q238.7 49.62 238.7 51.25M243.25 43.76L239.54 43.76L239.54 40.91L243.25 39.41L246.06 34L249.78 34L249.78 38.93L257.46 38.93L257.46 43.76L249.78 43.76L249.78 49.14Q249.78 51.12 250.58 51.92Q251.38 52.72 253.49 52.72L253.49 52.72Q254.83 52.72 255.87 52.48Q256.91 52.24 257.78 51.86L257.78 51.86L257.78 56.78Q256.82 57.14 255.25 57.42Q253.68 57.71 252.02 57.71L252.02 57.71Q248.98 57.71 247.04 56.78Q245.1 55.86 244.18 54.11Q243.25 52.37 243.25 50.03L243.25 50.03L243.25 43.76M258.77 58.06L267.73 32.34L272.59 32.34L263.63 58.06L258.77 58.06M274.83 45.07L273.62 38.93L280.27 38.93L281.36 45.46L281.36 57.2L274.83 57.2L274.83 45.07M289.94 38.64L289.94 38.64L289.94 44.21Q288.98 44.02 288.13 43.94Q287.28 43.86 286.58 43.86L286.58 43.86Q285.17 43.86 283.98 44.42Q282.8 44.98 282.08 46.26Q281.36 47.54 281.36 49.68L281.36 49.68L280.11 48.14Q280.37 46.16 280.88 44.42Q281.39 42.67 282.27 41.31Q283.15 39.95 284.46 39.17Q285.78 38.38 287.66 38.38L287.66 38.38Q288.21 38.38 288.78 38.45Q289.36 38.51 289.94 38.64M290.51 58.06L299.47 32.34L304.34 32.34L295.38 58.06L290.51 58.06" fill="#FBF7EF"><title>monty.fast/r/</title></path>
      <g data-code="1" data-x="304.75199999999995" data-y="57.2" data-size="32" data-fill="#FFD21E" data-track="-0.01" data-anchor="start" data-max="353.4"><path d="M314.51 57.2L314.51 36.11L321.17 36.11L321.17 57.2L314.51 57.2M305.36 39.09L305.36 33.2L330.32 33.2L330.32 39.09L305.36 39.09M349.1 45.46L349.1 45.46L349.65 44.21Q352.43 44.27 354.24 45.06Q356.05 45.84 356.94 47.23Q357.84 48.62 357.84 50.45L357.84 50.45Q357.84 52.4 356.94 53.92Q356.05 55.44 354.27 56.32Q352.5 57.2 349.84 57.2L349.84 57.2L332.11 57.2L333.97 44.88L332.11 33.2L349.2 33.2Q352.53 33.2 354.38 34.75Q356.24 36.3 356.24 39.06L356.24 39.06Q356.24 40.56 355.54 41.94Q354.83 43.31 353.28 44.26Q351.73 45.2 349.1 45.46M340.3 44.88L338.67 55.66L336.11 52.56L348.05 52.56Q349.49 52.56 350.29 51.86Q351.09 51.15 351.09 49.9L351.09 49.9Q351.09 48.66 350.22 47.9Q349.36 47.15 347.66 47.15L347.66 47.15L337.81 47.15L337.81 42.61L346.77 42.61Q347.92 42.61 348.7 41.92Q349.49 41.23 349.49 40.05L349.49 40.05Q349.49 39.09 348.82 38.46Q348.14 37.84 346.9 37.84L346.9 37.84L336.14 37.84L338.67 34.74L340.3 44.88M373.97 57.71L373.97 57.71Q369.71 57.71 366.5 56.14Q363.28 54.58 361.5 51.76Q359.73 48.94 359.73 45.2L359.73 45.2Q359.73 41.46 361.5 38.64Q363.28 35.82 366.5 34.26Q369.71 32.69 373.97 32.69L373.97 32.69Q378.26 32.69 381.46 34.26Q384.66 35.82 386.45 38.64Q388.24 41.46 388.24 45.2L388.24 45.2Q388.24 48.94 386.45 51.76Q384.66 54.58 381.46 56.14Q378.26 57.71 373.97 57.71M373.97 51.79L373.97 51.79Q376.3 51.79 378 50.99Q379.7 50.19 380.61 48.72Q381.52 47.25 381.52 45.2L381.52 45.2Q381.52 43.15 380.61 41.68Q379.7 40.21 378 39.41Q376.3 38.61 373.97 38.61L373.97 38.61Q371.66 38.61 369.97 39.41Q368.27 40.21 367.34 41.68Q366.42 43.15 366.42 45.2L366.42 45.2Q366.42 47.25 367.34 48.72Q368.27 50.19 369.97 50.99Q371.66 51.79 373.97 51.79M399.76 57.2L391.34 57.2L391.34 33.2L397.87 33.2L397.87 53.71L396.05 53.3L409.65 33.2L418.32 33.2L418.32 57.2L411.76 57.2L411.76 36.3L413.62 36.72L399.76 57.2M396.53 25.9L396.53 25.9L401.74 25.9Q402.13 26.93 402.88 27.46Q403.63 27.98 404.75 27.98L404.75 27.98Q405.87 27.98 406.62 27.46Q407.38 26.93 407.76 25.9L407.76 25.9L412.98 25.9Q412.27 28.94 410.08 30.3Q407.89 31.66 404.75 31.66L404.75 31.66Q401.65 31.66 399.44 30.3Q397.23 28.94 396.53 25.9M419.15 62.54L419.15 58.16L436.75 58.16L436.75 62.54L419.15 62.54M443.57 57.2L437.58 57.2L437.58 33.2L444.18 33.2L444.18 51.92L442.42 50.54L456.02 33.2L463.02 33.2L443.57 57.2M455.82 57.2L449.04 45.74L453.9 41.71L463.34 57.2L455.82 57.2M478.29 57.71L478.29 57.71Q474.03 57.71 470.82 56.14Q467.6 54.58 465.82 51.76Q464.05 48.94 464.05 45.2L464.05 45.2Q464.05 41.46 465.82 38.64Q467.6 35.82 470.82 34.26Q474.03 32.69 478.29 32.69L478.29 32.69Q482.58 32.69 485.78 34.26Q488.98 35.82 490.77 38.64Q492.56 41.46 492.56 45.2L492.56 45.2Q492.56 48.94 490.77 51.76Q488.98 54.58 485.78 56.14Q482.58 57.71 478.29 57.71M478.29 51.79L478.29 51.79Q480.62 51.79 482.32 50.99Q484.02 50.19 484.93 48.72Q485.84 47.25 485.84 45.2L485.84 45.2Q485.84 43.15 484.93 41.68Q484.02 40.21 482.32 39.41Q480.62 38.61 478.29 38.61L478.29 38.61Q475.98 38.61 474.29 39.41Q472.59 40.21 471.66 41.68Q470.74 43.15 470.74 45.2L470.74 45.2Q470.74 47.25 471.66 48.72Q472.59 50.19 474.29 50.99Q475.98 51.79 478.29 51.79M500.24 62.03L494.03 62.03L494.03 51.34L499.22 51.34L501.33 51.41L517.97 51.41L519.63 51.34L526.61 51.34L526.61 62.03L520.4 62.03L520.4 57.2L500.24 57.2L500.24 62.03M499.02 33.2L499.02 33.2L522.48 33.2L522.48 55.34L515.82 55.34L515.82 35.98L518.83 38.99L502.54 38.99L505.3 36.78Q505.55 38.26 505.6 39.63Q505.65 41.01 505.65 42.26L505.65 42.26Q505.65 46 504.99 48.56Q504.34 51.12 503.04 52.43Q501.74 53.74 499.79 53.74L499.79 53.74L497.01 51.44Q498.29 49.94 498.9 47.33Q499.5 44.72 499.5 40.88L499.5 40.88Q499.5 39.12 499.38 37.2Q499.25 35.28 499.02 33.2" fill="#FFD21E"><title>ТВОЙ_КОД</title></path></g>
    </g>
<path d="M354.14 1705L366.24 1705L366.24 1720L363.82 1720L363.82 1707.24L356.58 1707.24L356.58 1720L354.14 1720L354.14 1705M372.68 1725.71L370.26 1725.71L370.26 1705L372.62 1705L372.62 1707.34L372.81 1707.34Q373.13 1706.79 373.68 1706.21Q374.23 1705.62 375.1 1705.2Q375.98 1704.78 377.28 1704.78L377.28 1704.78Q379.18 1704.78 380.62 1705.73Q382.06 1706.68 382.88 1708.43Q383.69 1710.17 383.69 1712.52L383.69 1712.52Q383.69 1714.89 382.88 1716.64Q382.08 1718.39 380.63 1719.35Q379.19 1720.31 377.29 1720.31L377.29 1720.31Q376.01 1720.31 375.14 1719.89Q374.27 1719.47 373.72 1718.86Q373.16 1718.25 372.82 1717.69L372.82 1717.69L372.68 1717.69L372.68 1725.71M376.92 1718.14L376.92 1718.14Q378.3 1718.14 379.26 1717.42Q380.22 1716.71 380.72 1715.43Q381.23 1714.16 381.23 1712.51L381.23 1712.51Q381.23 1710.85 380.73 1709.6Q380.23 1708.35 379.27 1707.65Q378.3 1706.94 376.92 1706.94L376.92 1706.94Q375.54 1706.94 374.57 1707.64Q373.6 1708.34 373.1 1709.58Q372.6 1710.83 372.6 1712.51L372.6 1712.51Q372.6 1714.18 373.11 1715.45Q373.61 1716.72 374.58 1717.43Q375.55 1718.14 376.92 1718.14M393.11 1720.33L393.11 1720.33Q391.06 1720.33 389.51 1719.35Q387.97 1718.37 387.1 1716.62Q386.23 1714.87 386.23 1712.58L386.23 1712.58Q386.23 1710.24 387.1 1708.48Q387.97 1706.72 389.51 1705.74Q391.06 1704.76 393.11 1704.76L393.11 1704.76Q395.17 1704.76 396.73 1705.74Q398.28 1706.72 399.14 1708.48Q400 1710.24 400 1712.58L400 1712.58Q400 1714.87 399.14 1716.62Q398.28 1718.37 396.73 1719.35Q395.17 1720.33 393.11 1720.33M393.11 1718.15L393.11 1718.15Q394.6 1718.15 395.58 1717.4Q396.57 1716.65 397.06 1715.39Q397.55 1714.12 397.55 1712.58L397.55 1712.58Q397.55 1711 397.06 1709.73Q396.57 1708.45 395.58 1707.69Q394.6 1706.93 393.11 1706.93L393.11 1706.93Q391.63 1706.93 390.66 1707.69Q389.68 1708.45 389.19 1709.73Q388.69 1711 388.69 1712.58L388.69 1712.58Q388.69 1714.12 389.19 1715.39Q389.68 1716.65 390.66 1717.4Q391.63 1718.15 393.11 1718.15M405.69 1720L403.28 1720L403.28 1705L406.9 1705L410.49 1713.48Q410.77 1714.18 411.01 1714.8Q411.24 1715.42 411.42 1715.99Q411.61 1716.55 411.77 1717.11Q411.94 1717.66 412.09 1718.22L412.09 1718.22L411.65 1718.22Q411.8 1717.68 411.96 1717.14Q412.11 1716.6 412.3 1716.01Q412.48 1715.43 412.71 1714.81Q412.95 1714.19 413.23 1713.48L413.23 1713.48L416.78 1705L420.43 1705L420.43 1720L418.01 1720L418.01 1712.25Q418.01 1711.4 418.01 1710.63Q418.02 1709.87 418.03 1709.13Q418.05 1708.39 418.05 1707.65Q418.06 1706.9 418.07 1706.12L418.07 1706.12L418.4 1706.12Q418.07 1707.23 417.76 1708.18Q417.45 1709.13 417.08 1710.09Q416.72 1711.06 416.21 1712.23L416.21 1712.23L412.91 1720L410.79 1720L407.44 1712.23Q406.93 1711.06 406.56 1710.09Q406.19 1709.13 405.88 1708.18Q405.56 1707.23 405.22 1706.12L405.22 1706.12L405.61 1706.12Q405.62 1706.82 405.64 1707.54Q405.66 1708.27 405.67 1709.03Q405.67 1709.79 405.68 1710.59Q405.69 1711.39 405.69 1712.25L405.69 1712.25L405.69 1720M430.6 1720.33L430.6 1720.33Q428.55 1720.33 427 1719.35Q425.46 1718.37 424.59 1716.62Q423.72 1714.87 423.72 1712.58L423.72 1712.58Q423.72 1710.24 424.59 1708.48Q425.46 1706.72 427 1705.74Q428.55 1704.76 430.6 1704.76L430.6 1704.76Q432.66 1704.76 434.21 1705.74Q435.77 1706.72 436.63 1708.48Q437.49 1710.24 437.49 1712.58L437.49 1712.58Q437.49 1714.87 436.63 1716.62Q435.77 1718.37 434.21 1719.35Q432.66 1720.33 430.6 1720.33M430.6 1718.15L430.6 1718.15Q432.09 1718.15 433.07 1717.4Q434.06 1716.65 434.55 1715.39Q435.04 1714.12 435.04 1712.58L435.04 1712.58Q435.04 1711 434.55 1709.73Q434.06 1708.45 433.07 1707.69Q432.09 1706.93 430.6 1706.93L430.6 1706.93Q429.12 1706.93 428.14 1707.69Q427.17 1708.45 426.67 1709.73Q426.18 1711 426.18 1712.58L426.18 1712.58Q426.18 1714.12 426.67 1715.39Q427.17 1716.65 428.14 1717.4Q429.12 1718.15 430.6 1718.15M443.19 1720L440.77 1720L440.77 1705L443.19 1705L443.19 1711.48L444.73 1711.48L450.2 1705L453.27 1705L447.15 1712.25L453.35 1720L450.29 1720L445.32 1713.72L443.19 1713.72L443.19 1720M461.11 1720.33L461.11 1720.33Q459.06 1720.33 457.52 1719.35Q455.97 1718.37 455.1 1716.62Q454.24 1714.87 454.24 1712.58L454.24 1712.58Q454.24 1710.24 455.1 1708.48Q455.97 1706.72 457.52 1705.74Q459.06 1704.76 461.11 1704.76L461.11 1704.76Q463.18 1704.76 464.73 1705.74Q466.28 1706.72 467.14 1708.48Q468 1710.24 468 1712.58L468 1712.58Q468 1714.87 467.14 1716.62Q466.28 1718.37 464.73 1719.35Q463.18 1720.33 461.11 1720.33M461.11 1718.15L461.11 1718.15Q462.6 1718.15 463.59 1717.4Q464.57 1716.65 465.06 1715.39Q465.56 1714.12 465.56 1712.58L465.56 1712.58Q465.56 1711 465.06 1709.73Q464.57 1708.45 463.59 1707.69Q462.6 1706.93 461.11 1706.93L461.11 1706.93Q459.64 1706.93 458.66 1707.69Q457.68 1708.45 457.19 1709.73Q456.7 1711 456.7 1712.58L456.7 1712.58Q456.7 1714.12 457.19 1715.39Q457.68 1716.65 458.66 1717.4Q459.64 1718.15 461.11 1718.15M472.16 1724.39L469.74 1724.39L469.74 1717.76L471 1717.76Q471.46 1717.28 471.81 1716.72Q472.16 1716.16 472.41 1715.39Q472.65 1714.63 472.83 1713.53Q473.01 1712.43 473.14 1710.87L473.14 1710.87L473.65 1705L483.47 1705L483.47 1717.76L485.79 1717.76L485.79 1724.39L483.38 1724.39L483.38 1720L472.16 1720L472.16 1724.39M473.76 1717.76L473.76 1717.76L481.06 1717.76L481.06 1707.24L475.85 1707.24L475.51 1710.87Q475.29 1713.23 474.92 1714.97Q474.54 1716.71 473.76 1717.76M495.68 1710.31L504.6 1710.31L504.6 1712.55L495.68 1712.55L495.68 1710.31M522.19 1720.33L522.19 1720.33Q520.22 1720.33 518.67 1719.39Q517.11 1718.46 516.2 1716.72Q515.29 1714.98 515.29 1712.59L515.29 1712.59L515.29 1712.07Q515.29 1709.71 515.58 1707.95Q515.86 1706.19 516.45 1704.95Q517.04 1703.72 518.01 1702.93Q518.97 1702.14 520.34 1701.73Q521.71 1701.32 523.53 1701.21L523.53 1701.21Q524.41 1701.15 524.89 1700.97Q525.36 1700.79 525.53 1700.46Q525.7 1700.13 525.7 1699.63L525.7 1699.63L527.89 1699.63Q527.89 1700.76 527.47 1701.54Q527.05 1702.31 526.1 1702.73Q525.14 1703.16 523.53 1703.28L523.53 1703.28Q521.46 1703.43 520.19 1703.95Q518.92 1704.47 518.25 1705.7Q517.59 1706.93 517.35 1709.19L517.35 1709.19L517.4 1709.19Q517.82 1708.17 518.64 1707.34Q519.46 1706.51 520.57 1706Q521.67 1705.49 522.94 1705.49L522.94 1705.49Q524.66 1705.49 526.01 1706.45Q527.37 1707.41 528.15 1709.05Q528.94 1710.69 528.94 1712.77L528.94 1712.77Q528.94 1714.93 528.07 1716.64Q527.2 1718.35 525.68 1719.34Q524.15 1720.33 522.19 1720.33M522.21 1718.18L522.21 1718.18Q523.57 1718.18 524.52 1717.54Q525.48 1716.9 525.99 1715.71Q526.51 1714.52 526.51 1712.89L526.51 1712.89Q526.51 1711.26 526.01 1710.09Q525.52 1708.91 524.58 1708.28Q523.63 1707.64 522.29 1707.64L522.29 1707.64Q520.94 1707.64 519.91 1708.31Q518.88 1708.98 518.3 1710.18Q517.73 1711.39 517.73 1712.97L517.73 1712.97Q517.73 1714.49 518.27 1715.67Q518.81 1716.84 519.82 1717.51Q520.83 1718.18 522.21 1718.18M538.36 1720.33L538.36 1720.33Q536.31 1720.33 534.76 1719.35Q533.22 1718.37 532.35 1716.62Q531.48 1714.87 531.48 1712.58L531.48 1712.58Q531.48 1710.24 532.35 1708.48Q533.22 1706.72 534.76 1705.74Q536.31 1704.76 538.36 1704.76L538.36 1704.76Q540.42 1704.76 541.98 1705.74Q543.53 1706.72 544.39 1708.48Q545.25 1710.24 545.25 1712.58L545.25 1712.58Q545.25 1714.87 544.39 1716.62Q543.53 1718.37 541.98 1719.35Q540.42 1720.33 538.36 1720.33M538.36 1718.15L538.36 1718.15Q539.85 1718.15 540.83 1717.4Q541.82 1716.65 542.31 1715.39Q542.8 1714.12 542.8 1712.58L542.8 1712.58Q542.8 1711 542.31 1709.73Q541.82 1708.45 540.83 1707.69Q539.85 1706.93 538.36 1706.93L538.36 1706.93Q536.88 1706.93 535.91 1707.69Q534.93 1708.45 534.44 1709.73Q533.94 1711 533.94 1712.58L533.94 1712.58Q533.94 1714.12 534.44 1715.39Q534.93 1716.65 535.91 1717.4Q536.88 1718.15 538.36 1718.15M550.38 1711.17L558.77 1711.17L558.77 1713.41L550.38 1713.41L550.38 1711.17M548.53 1705L550.95 1705L550.95 1720L548.53 1720L548.53 1705M558.22 1705L560.64 1705L560.64 1720L558.22 1720L558.22 1705M564.04 1725.59L564.04 1725.59L564.46 1723.49L565.1 1723.54Q565.76 1723.66 566.28 1723.54Q566.81 1723.42 567.23 1722.95Q567.66 1722.47 567.97 1721.54L567.97 1721.54L568.53 1720.01L562.78 1705L565.42 1705L568.62 1713.81Q569.09 1715.11 569.46 1716.38Q569.82 1717.66 570.2 1718.88L570.2 1718.88L569.39 1718.88Q569.76 1717.66 570.13 1716.38Q570.5 1715.09 570.97 1713.81L570.97 1713.81L574.18 1705L576.79 1705L570.09 1722.42Q569.65 1723.55 569.03 1724.3Q568.4 1725.04 567.57 1725.41Q566.74 1725.78 565.72 1725.78L565.72 1725.78Q565.16 1725.78 564.72 1725.72Q564.28 1725.66 564.04 1725.59M585.02 1720.33L585.02 1720.33Q582.97 1720.33 581.43 1719.35Q579.88 1718.37 579.01 1716.62Q578.14 1714.87 578.14 1712.58L578.14 1712.58Q578.14 1710.24 579.01 1708.48Q579.88 1706.72 581.43 1705.74Q582.97 1704.76 585.02 1704.76L585.02 1704.76Q586.17 1704.76 587.17 1705.08Q588.18 1705.4 588.99 1705.98Q589.79 1706.56 590.35 1707.39Q590.91 1708.23 591.17 1709.25L591.17 1709.25L588.82 1709.71Q588.67 1709.09 588.34 1708.58Q588.02 1708.08 587.53 1707.71Q587.04 1707.34 586.42 1707.13Q585.79 1706.93 585.02 1706.93L585.02 1706.93Q583.54 1706.93 582.57 1707.69Q581.59 1708.45 581.1 1709.73Q580.61 1711 580.61 1712.58L580.61 1712.58Q580.61 1714.12 581.1 1715.39Q581.59 1716.65 582.57 1717.4Q583.54 1718.15 585.02 1718.15L585.02 1718.15Q585.8 1718.15 586.44 1717.95Q587.07 1717.74 587.55 1717.37Q588.03 1716.99 588.36 1716.47Q588.69 1715.94 588.85 1715.31L588.85 1715.31L591.21 1715.75Q590.97 1716.79 590.4 1717.63Q589.83 1718.47 589.02 1719.08Q588.21 1719.69 587.19 1720.01Q586.17 1720.33 585.02 1720.33M603.86 1711.17L612.26 1711.17L612.26 1713.41L603.86 1713.41L603.86 1711.17M602.02 1705L604.44 1705L604.44 1720L602.02 1720L602.02 1705M611.71 1705L614.13 1705L614.13 1720L611.71 1720L611.71 1705M622.47 1720.31L622.47 1720.31Q621.03 1720.31 619.86 1719.78Q618.7 1719.25 618.01 1718.22Q617.33 1717.2 617.33 1715.72L617.33 1715.72Q617.33 1714.42 617.83 1713.62Q618.34 1712.81 619.19 1712.35Q620.04 1711.89 621.08 1711.66Q622.13 1711.43 623.21 1711.29L623.21 1711.29Q624.57 1711.1 625.42 1711Q626.26 1710.91 626.65 1710.68Q627.04 1710.46 627.04 1709.9L627.04 1709.9L627.04 1709.8Q627.04 1708.9 626.67 1708.26Q626.31 1707.61 625.59 1707.26Q624.88 1706.9 623.84 1706.9L623.84 1706.9Q622.77 1706.9 621.99 1707.24Q621.21 1707.59 620.74 1708.12Q620.27 1708.65 620.08 1709.24L620.08 1709.24L617.71 1708.72Q618.13 1707.35 619.05 1706.49Q619.97 1705.62 621.2 1705.2Q622.43 1704.78 623.78 1704.78L623.78 1704.78Q624.71 1704.78 625.7 1705.02Q626.69 1705.25 627.54 1705.82Q628.39 1706.4 628.92 1707.41Q629.44 1708.42 629.44 1709.96L629.44 1709.96L629.44 1720L627.06 1720L627.06 1717.94L626.93 1717.94Q626.67 1718.46 626.12 1719.01Q625.57 1719.56 624.68 1719.94Q623.78 1720.31 622.47 1720.31M622.87 1718.17L622.87 1718.17Q624.25 1718.17 625.18 1717.64Q626.11 1717.12 626.57 1716.27Q627.04 1715.43 627.04 1714.49L627.04 1714.49L627.04 1712.48Q626.88 1712.64 626.43 1712.77Q625.97 1712.9 625.36 1713.01Q624.75 1713.12 624.14 1713.21Q623.54 1713.29 623.1 1713.34L623.1 1713.34Q622.22 1713.45 621.46 1713.72Q620.69 1713.98 620.23 1714.48Q619.76 1714.98 619.76 1715.84L619.76 1715.84Q619.76 1716.6 620.16 1717.12Q620.55 1717.63 621.25 1717.9Q621.95 1718.17 622.87 1718.17M647.19 1720.33L647.19 1720.33Q645.14 1720.33 643.59 1719.35Q642.05 1718.37 641.18 1716.62Q640.31 1714.87 640.31 1712.58L640.31 1712.58Q640.31 1710.24 641.18 1708.48Q642.05 1706.72 643.59 1705.74Q645.14 1704.76 647.19 1704.76L647.19 1704.76Q648.34 1704.76 649.34 1705.08Q650.35 1705.4 651.15 1705.98Q651.96 1706.56 652.52 1707.39Q653.08 1708.23 653.34 1709.25L653.34 1709.25L650.99 1709.71Q650.84 1709.09 650.51 1708.58Q650.18 1708.08 649.7 1707.71Q649.21 1707.34 648.58 1707.13Q647.95 1706.93 647.19 1706.93L647.19 1706.93Q645.71 1706.93 644.73 1707.69Q643.76 1708.45 643.26 1709.73Q642.77 1711 642.77 1712.58L642.77 1712.58Q642.77 1714.12 643.26 1715.39Q643.76 1716.65 644.73 1717.4Q645.71 1718.15 647.19 1718.15L647.19 1718.15Q647.97 1718.15 648.6 1717.95Q649.24 1717.74 649.72 1717.37Q650.2 1716.99 650.52 1716.47Q650.85 1715.94 651.02 1715.31L651.02 1715.31L653.38 1715.75Q653.13 1716.79 652.57 1717.63Q652 1718.47 651.19 1719.08Q650.37 1719.69 649.35 1720.01Q648.34 1720.33 647.19 1720.33M662.28 1720L659.88 1720L659.88 1707.16L654.83 1707.16L654.83 1705L667.3 1705L667.3 1707.16L662.28 1707.16L662.28 1720M673.72 1720.31L673.72 1720.31Q672.29 1720.31 671.12 1719.78Q669.95 1719.25 669.27 1718.22Q668.58 1717.2 668.58 1715.72L668.58 1715.72Q668.58 1714.42 669.09 1713.62Q669.6 1712.81 670.44 1712.35Q671.29 1711.89 672.34 1711.66Q673.38 1711.43 674.46 1711.29L674.46 1711.29Q675.83 1711.1 676.67 1711Q677.51 1710.91 677.9 1710.68Q678.29 1710.46 678.29 1709.9L678.29 1709.9L678.29 1709.8Q678.29 1708.9 677.93 1708.26Q677.57 1707.61 676.85 1707.26Q676.13 1706.9 675.09 1706.9L675.09 1706.9Q674.03 1706.9 673.25 1707.24Q672.47 1707.59 672 1708.12Q671.52 1708.65 671.33 1709.24L671.33 1709.24L668.97 1708.72Q669.39 1707.35 670.31 1706.49Q671.22 1705.62 672.45 1705.2Q673.68 1704.78 675.04 1704.78L675.04 1704.78Q675.97 1704.78 676.96 1705.02Q677.95 1705.25 678.8 1705.82Q679.64 1706.4 680.17 1707.41Q680.7 1708.42 680.7 1709.96L680.7 1709.96L680.7 1720L678.32 1720L678.32 1717.94L678.18 1717.94Q677.92 1718.46 677.38 1719.01Q676.83 1719.56 675.93 1719.94Q675.04 1720.31 673.72 1720.31M674.12 1718.17L674.12 1718.17Q675.5 1718.17 676.43 1717.64Q677.36 1717.12 677.83 1716.27Q678.29 1715.43 678.29 1714.49L678.29 1714.49L678.29 1712.48Q678.14 1712.64 677.68 1712.77Q677.22 1712.9 676.62 1713.01Q676.01 1713.12 675.4 1713.21Q674.79 1713.29 674.35 1713.34L674.35 1713.34Q673.48 1713.45 672.71 1713.72Q671.95 1713.98 671.48 1714.48Q671.02 1714.98 671.02 1715.84L671.02 1715.84Q671.02 1716.6 671.41 1717.12Q671.81 1717.63 672.51 1717.9Q673.21 1718.17 674.12 1718.17M687.14 1725.71L684.72 1725.71L684.72 1705L687.07 1705L687.07 1707.34L687.26 1707.34Q687.59 1706.79 688.13 1706.21Q688.68 1705.62 689.56 1705.2Q690.43 1704.78 691.73 1704.78L691.73 1704.78Q693.63 1704.78 695.07 1705.73Q696.52 1706.68 697.33 1708.43Q698.14 1710.17 698.14 1712.52L698.14 1712.52Q698.14 1714.89 697.34 1716.64Q696.53 1718.39 695.09 1719.35Q693.64 1720.31 691.74 1720.31L691.74 1720.31Q690.46 1720.31 689.59 1719.89Q688.72 1719.47 688.17 1718.86Q687.62 1718.25 687.27 1717.69L687.27 1717.69L687.14 1717.69L687.14 1725.71M691.38 1718.14L691.38 1718.14Q692.76 1718.14 693.71 1717.42Q694.67 1716.71 695.18 1715.43Q695.68 1714.16 695.68 1712.51L695.68 1712.51Q695.68 1710.85 695.18 1709.6Q694.68 1708.35 693.72 1707.65Q692.76 1706.94 691.38 1706.94L691.38 1706.94Q689.99 1706.94 689.02 1707.64Q688.05 1708.34 687.55 1709.58Q687.05 1710.83 687.05 1712.51L687.05 1712.51Q687.05 1714.18 687.56 1715.45Q688.07 1716.72 689.04 1717.43Q690.01 1718.14 691.38 1718.14M707.11 1720L704.71 1720L704.71 1707.16L699.66 1707.16L699.66 1705L712.13 1705L712.13 1707.16L707.11 1707.16L707.11 1720M720.26 1720.33L720.26 1720.33Q718.08 1720.33 716.51 1719.35Q714.95 1718.37 714.1 1716.63Q713.25 1714.89 713.25 1712.59L713.25 1712.59Q713.25 1710.29 714.1 1708.53Q714.95 1706.77 716.47 1705.76Q717.99 1704.76 720.02 1704.76L720.02 1704.76Q721.33 1704.76 722.52 1705.21Q723.71 1705.66 724.64 1706.59Q725.57 1707.53 726.11 1708.97Q726.65 1710.4 726.65 1712.38L726.65 1712.38L726.65 1713.27L714.78 1713.27L714.78 1711.22L725.32 1711.22L724.23 1711.97Q724.23 1710.47 723.74 1709.33Q723.24 1708.19 722.31 1707.55Q721.37 1706.92 720.02 1706.92L720.02 1706.92Q718.66 1706.92 717.69 1707.57Q716.72 1708.21 716.2 1709.3Q715.68 1710.39 715.68 1711.7L715.68 1711.7L715.68 1712.96Q715.68 1714.59 716.24 1715.75Q716.8 1716.92 717.84 1717.55Q718.87 1718.17 720.28 1718.17L720.28 1718.17Q721.22 1718.17 721.97 1717.89Q722.72 1717.61 723.25 1717.07Q723.78 1716.53 724.04 1715.75L724.04 1715.75L726.4 1716.19Q726.07 1717.42 725.22 1718.35Q724.37 1719.28 723.1 1719.8Q721.84 1720.33 720.26 1720.33" fill="#4A4843"><title>промокод - бонус на старте</title></path>
</svg>
