<svg width="1080" height="1920" viewBox="0 0 1080 1920" xmlns="http://www.w3.org/2000/svg" role="img" aria-label="Monty — ИИ сам собирает ролик">
<defs>
  <filter id="grain" x="0" y="0" width="100%" height="100%">
    <feTurbulence type="fractalNoise" baseFrequency="0.9" numOctaves="3" seed="7" result="n"/>
    <feColorMatrix in="n" type="saturate" values="0"/>
  </filter>
  <filter id="drop" x="-40%" y="-40%" width="180%" height="200%">
    <feDropShadow dx="0" dy="10" stdDeviation="16" flood-color="#000000" flood-opacity="0.45"/>
  </filter>
  <filter id="dropSoft" x="-40%" y="-40%" width="180%" height="200%">
    <feDropShadow dx="0" dy="6" stdDeviation="9" flood-color="#000000" flood-opacity="0.22"/>
  </filter>
  <linearGradient id="screenGrad" x1="0" y1="0" x2="1" y2="1">
    <stop offset="0" stop-color="#2A1E5C"/><stop offset="0.5" stop-color="#161512"/><stop offset="1" stop-color="#0B0A09"/>
  </linearGradient>
  <linearGradient id="neonGrad" x1="0" y1="0" x2="1" y2="0">
    <stop offset="0" stop-color="#6C4DF6"/><stop offset="1" stop-color="#FFD21E"/>
  </linearGradient>
  <radialGradient id="gBanana">
    <stop offset="0" stop-color="#FFD21E" stop-opacity="0.85"/>
    <stop offset="0.55" stop-color="#FFD21E" stop-opacity="0.22"/>
    <stop offset="1" stop-color="#FFD21E" stop-opacity="0"/>
  </radialGradient>
  <radialGradient id="gViolet">
    <stop offset="0" stop-color="#6C4DF6" stop-opacity="0.85"/>
    <stop offset="0.55" stop-color="#6C4DF6" stop-opacity="0.22"/>
    <stop offset="1" stop-color="#6C4DF6" stop-opacity="0"/>
  </radialGradient></defs>
<rect width="1080" height="1920" fill="#FBF7EF"/>
<circle cx="540" cy="300" r="520" fill="url(#gBanana)" opacity="0.45"/>
<circle cx="900" cy="1700" r="420" fill="url(#gViolet)" opacity="0.18"/>
<rect width="1080" height="1920" filter="url(#grain)" opacity="0.04"/>
<g transform="translate(72,84) scale(0.375)">
    <circle cx="30" cy="52" r="19" fill="#161512"/><circle cx="98" cy="52" r="19" fill="#161512"/>
    <circle cx="30" cy="52" r="9" fill="#FFD21E"/><circle cx="98" cy="52" r="9" fill="#FFD21E"/>
    <rect x="28" y="26" width="72" height="80" rx="36" fill="#161512"/>
    <circle cx="64" cy="70" r="30" fill="#FBF7EF"/>
    <path d="M57 55 L57 85 L84 70 Z" fill="#FFD21E" stroke="#FFD21E" stroke-width="5" stroke-linejoin="round"/>
  </g><path d="M135.77 121.92L130.57 121.92L130.57 101.45L135.69 101.45L135.69 103.67L136.43 103.67Q136.97 102.64 138.21 101.88Q139.44 101.11 141.47 101.11L141.47 101.11Q143.66 101.11 144.98 101.96Q146.3 102.81 147 104.17L147 104.17L147.74 104.17Q148.44 102.85 149.72 101.98Q151 101.11 153.36 101.11L153.36 101.11Q155.26 101.11 156.8 101.92Q158.35 102.72 159.28 104.36Q160.21 105.99 160.21 108.46L160.21 108.46L160.21 121.92L155.01 121.92L155.01 108.83Q155.01 107.14 154.14 106.3Q153.27 105.45 151.7 105.45L151.7 105.45Q149.93 105.45 148.96 106.58Q147.99 107.72 147.99 109.82L147.99 109.82L147.99 121.92L142.79 121.92L142.79 108.83Q142.79 107.14 141.92 106.3Q141.05 105.45 139.49 105.45L139.49 105.45Q137.71 105.45 136.74 106.58Q135.77 107.72 135.77 109.82L135.77 109.82L135.77 121.92M174.33 122.5L174.33 122.5Q171.27 122.5 168.84 121.26Q166.4 120.02 165 117.67Q163.59 115.32 163.59 112.01L163.59 112.01L163.59 111.35Q163.59 108.05 165 105.7Q166.4 103.34 168.84 102.11Q171.27 100.87 174.33 100.87L174.33 100.87Q177.38 100.87 179.82 102.11Q182.25 103.34 183.66 105.7Q185.06 108.05 185.06 111.35L185.06 111.35L185.06 112.01Q185.06 115.32 183.66 117.67Q182.25 120.02 179.82 121.26Q177.38 122.5 174.33 122.5M174.33 117.87L174.33 117.87Q176.72 117.87 178.29 116.33Q179.86 114.78 179.86 111.89L179.86 111.89L179.86 111.48Q179.86 108.59 178.31 107.04Q176.76 105.49 174.33 105.49L174.33 105.49Q171.93 105.49 170.36 107.04Q168.79 108.59 168.79 111.48L168.79 111.48L168.79 111.89Q168.79 114.78 170.36 116.33Q171.93 117.87 174.33 117.87M193.81 121.92L188.61 121.92L188.61 101.45L193.73 101.45L193.73 104.13L194.47 104.13Q194.97 103.06 196.33 102.08Q197.69 101.11 200.46 101.11L200.46 101.11Q202.85 101.11 204.65 102.21Q206.44 103.3 207.43 105.22Q208.42 107.14 208.42 109.7L208.42 109.7L208.42 121.92L203.22 121.92L203.22 110.11Q203.22 107.8 202.09 106.65Q200.95 105.49 198.85 105.49L198.85 105.49Q196.45 105.49 195.13 107.08Q193.81 108.67 193.81 111.52L193.81 111.52L193.81 121.92M225.84 121.92L220.06 121.92Q218.04 121.92 216.78 120.66Q215.52 119.4 215.52 117.3L215.52 117.3L215.52 105.74L210.41 105.74L210.41 101.45L215.52 101.45L215.52 95.09L220.73 95.09L220.73 101.45L226.34 101.45L226.34 105.74L220.73 105.74L220.73 116.39Q220.73 117.63 221.88 117.63L221.88 117.63L225.84 117.63L225.84 121.92M244.92 130.18L232.04 130.18L232.04 125.64L243.18 125.64Q244.34 125.64 244.34 124.4L244.34 124.4L244.34 119.24L243.59 119.24Q243.26 119.94 242.56 120.64Q241.86 121.34 240.66 121.8Q239.47 122.25 237.61 122.25L237.61 122.25Q235.21 122.25 233.42 121.16Q231.62 120.06 230.63 118.12Q229.64 116.18 229.64 113.66L229.64 113.66L229.64 101.45L234.84 101.45L234.84 113.25Q234.84 115.56 235.98 116.72Q237.11 117.87 239.22 117.87L239.22 117.87Q241.61 117.87 242.93 116.29Q244.25 114.7 244.25 111.85L244.25 111.85L244.25 101.45L249.46 101.45L249.46 125.55Q249.46 127.66 248.22 128.92Q246.98 130.18 244.92 130.18L244.92 130.18" fill="#161512"><title>monty</title></path>
<rect x="72" y="300" width="936" height="1060" rx="40" fill="#161512" opacity="0.06"/>
<rect x="72" y="300" width="936" height="1060" rx="40" fill="none" stroke="#161512" stroke-width="4" stroke-dasharray="22 18" opacity="0.35"/>
<path d="M427.02 830L427.02 812.97L433.99 812.97L433.99 830L427.02 830M419.64 815.82L419.64 810.59L441.37 810.59L441.37 815.82L419.64 815.82M459.18 830L442.93 830L444.15 820.28L442.93 810.59L458.74 810.59Q461.56 810.59 463.23 811.9Q464.89 813.2 464.89 815.45L464.89 815.45Q464.89 817.56 463.21 818.87Q461.53 820.17 458.57 820.48L458.57 820.48L459.01 819.36Q462.45 819.49 464.27 820.82Q466.08 822.15 466.08 824.49L466.08 824.49Q466.08 827.01 464.21 828.5Q462.34 830 459.18 830L459.18 830M450.75 820.28L449.63 828.54L446.94 825.68L456.87 825.68Q457.99 825.68 458.55 825.19Q459.11 824.7 459.11 823.81L459.11 823.81Q459.11 823 458.52 822.47Q457.92 821.94 456.63 821.94L456.63 821.94L448.3 821.94L448.3 818.34L455.82 818.34Q456.87 818.34 457.41 817.86Q457.96 817.39 457.96 816.6L457.96 816.6Q457.96 815.82 457.47 815.35Q456.97 814.87 455.95 814.87L455.95 814.87L446.98 814.87L449.63 812.05L450.75 820.28M480.19 830.54L480.19 830.54Q476.45 830.54 473.67 829.27Q470.88 827.99 469.31 825.67Q467.75 823.34 467.75 820.31L467.75 820.31Q467.75 817.22 469.31 814.9Q470.88 812.59 473.67 811.3Q476.45 810.01 480.19 810.01L480.19 810.01Q483.9 810.01 486.71 811.3Q489.51 812.59 491.07 814.9Q492.64 817.22 492.64 820.31L492.64 820.31Q492.64 823.34 491.07 825.67Q489.51 827.99 486.71 829.27Q483.9 830.54 480.19 830.54M480.19 825.41L480.19 825.41Q481.89 825.41 483.1 824.8Q484.31 824.19 484.95 823.03Q485.6 821.87 485.6 820.31L485.6 820.31Q485.6 818.68 484.95 817.54Q484.31 816.4 483.1 815.79Q481.89 815.18 480.19 815.18L480.19 815.18Q478.49 815.18 477.27 815.79Q476.05 816.4 475.4 817.54Q474.75 818.68 474.75 820.28L474.75 820.28Q474.75 821.87 475.4 823.03Q476.05 824.19 477.27 824.8Q478.49 825.41 480.19 825.41M506.61 830.54L506.61 830.54Q503.08 830.54 500.31 829.25Q497.53 827.96 495.94 825.63Q494.34 823.3 494.34 820.21L494.34 820.21Q494.34 817.18 495.87 814.89Q497.4 812.59 500.07 811.3Q502.74 810.01 506.1 810.01L506.1 810.01Q509.6 810.01 512.07 811.52Q514.53 813.03 515.88 815.79Q517.22 818.54 517.22 822.28L517.22 822.28L499.95 822.28L499.95 818.1L513.31 818.1L511.03 819.56Q510.9 818.07 510.28 817.03Q509.67 815.99 508.67 815.45Q507.67 814.9 506.27 814.9L506.27 814.9Q504.74 814.9 503.65 815.52Q502.57 816.13 501.95 817.2Q501.34 818.27 501.34 819.7L501.34 819.7Q501.34 821.53 502.18 822.81Q503.01 824.08 504.62 824.76Q506.24 825.44 508.58 825.44L508.58 825.44Q510.73 825.44 512.85 824.88Q514.98 824.32 516.71 823.3L516.71 823.3L516.71 827.72Q514.7 829.08 512.14 829.81Q509.57 830.54 506.61 830.54M500.87 808.68L500.87 808.68Q499.17 808.68 498.13 807.83Q497.09 806.98 497.09 805.45L497.09 805.45Q497.09 803.99 498.13 803.14Q499.17 802.29 500.87 802.29L500.87 802.29Q502.6 802.29 503.62 803.14Q504.64 803.99 504.64 805.45L504.64 805.45Q504.64 806.98 503.62 807.83Q502.6 808.68 500.87 808.68M511.27 808.68L511.27 808.68Q509.54 808.68 508.52 807.83Q507.5 806.98 507.5 805.45L507.5 805.45Q507.5 803.99 508.52 803.14Q509.54 802.29 511.27 802.29L511.27 802.29Q512.97 802.29 513.99 803.14Q515.01 803.99 515.01 805.45L515.01 805.45Q515.01 806.98 513.99 807.83Q512.97 808.68 511.27 808.68M543.71 830L527.45 830L528.68 820.28L527.45 810.59L543.26 810.59Q546.09 810.59 547.75 811.9Q549.42 813.2 549.42 815.45L549.42 815.45Q549.42 817.56 547.73 818.87Q546.05 820.17 543.09 820.48L543.09 820.48L543.54 819.36Q546.97 819.49 548.79 820.82Q550.61 822.15 550.61 824.49L550.61 824.49Q550.61 827.01 548.74 828.5Q546.87 830 543.71 830L543.71 830M535.27 820.28L534.15 828.54L531.47 825.68L541.39 825.68Q542.52 825.68 543.08 825.19Q543.64 824.7 543.64 823.81L543.64 823.81Q543.64 823 543.04 822.47Q542.45 821.94 541.16 821.94L541.16 821.94L532.83 821.94L532.83 818.34L540.34 818.34Q541.39 818.34 541.94 817.86Q542.48 817.39 542.48 816.6L542.48 816.6Q542.48 815.82 541.99 815.35Q541.5 814.87 540.48 814.87L540.48 814.87L531.5 814.87L534.15 812.05L535.27 820.28M561.83 830L553.16 830L553.16 810.59L560.03 810.59L560.03 826.23L558.53 825.75L568.7 810.59L577.6 810.59L577.6 830L570.77 830L570.77 813.92L572.27 814.43L561.83 830M602.22 824.83L608.75 824.83L608.75 834.66L602.76 834.66L602.76 830L585.8 830L585.8 834.66L579.81 834.66L579.81 824.83L585.66 824.83L586.95 824.93L601.03 824.93L602.22 824.83M583.86 810.59L583.86 810.59L605.21 810.59L605.21 828.67L598.31 828.67L598.31 812.46L601.47 815.62L587.26 815.62L589.84 813.1Q590.32 814.5 590.42 815.74Q590.52 816.98 590.52 818L590.52 818Q590.52 822.69 588.93 825.29Q587.33 827.89 584.44 827.89L584.44 827.89L581.62 825.51Q584.27 823.68 584.27 816.6L584.27 816.6Q584.27 815.24 584.17 813.71Q584.06 812.18 583.86 810.59M622.59 830.54L622.59 830.54Q619.05 830.54 616.28 829.25Q613.51 827.96 611.91 825.63Q610.31 823.3 610.31 820.21L610.31 820.21Q610.31 817.18 611.84 814.89Q613.37 812.59 616.04 811.3Q618.71 810.01 622.08 810.01L622.08 810.01Q625.58 810.01 628.04 811.52Q630.51 813.03 631.85 815.79Q633.19 818.54 633.19 822.28L633.19 822.28L615.92 822.28L615.92 818.1L629.28 818.1L627.01 819.56Q626.87 818.07 626.26 817.03Q625.65 815.99 624.64 815.45Q623.64 814.9 622.25 814.9L622.25 814.9Q620.72 814.9 619.63 815.52Q618.54 816.13 617.93 817.2Q617.32 818.27 617.32 819.7L617.32 819.7Q617.32 821.53 618.15 822.81Q618.98 824.08 620.6 824.76Q622.21 825.44 624.56 825.44L624.56 825.44Q626.7 825.44 628.83 824.88Q630.95 824.32 632.68 823.3L632.68 823.3L632.68 827.72Q630.68 829.08 628.11 829.81Q625.54 830.54 622.59 830.54M647.37 830.54L647.37 830.54Q643.63 830.54 640.84 829.27Q638.06 827.99 636.49 825.67Q634.93 823.34 634.93 820.31L634.93 820.31Q634.93 817.22 636.49 814.9Q638.06 812.59 640.84 811.3Q643.63 810.01 647.37 810.01L647.37 810.01Q651.08 810.01 653.88 811.3Q656.69 812.59 658.25 814.9Q659.82 817.22 659.82 820.31L659.82 820.31Q659.82 823.34 658.25 825.67Q656.69 827.99 653.88 829.27Q651.08 830.54 647.37 830.54M647.37 825.41L647.37 825.41Q649.07 825.41 650.28 824.8Q651.49 824.19 652.13 823.03Q652.78 821.87 652.78 820.31L652.78 820.31Q652.78 818.68 652.13 817.54Q651.49 816.4 650.28 815.79Q649.07 815.18 647.37 815.18L647.37 815.18Q645.67 815.18 644.45 815.79Q643.22 816.4 642.58 817.54Q641.93 818.68 641.93 820.28L641.93 820.28Q641.93 821.87 642.58 823.03Q643.22 824.19 644.45 824.8Q645.67 825.41 647.37 825.41" fill="#161512" opacity="0.45"><title>твоё видео</title></path>
<path d="M121.01 1500L103.9 1500L103.9 1456.5L117.24 1456.5L117.24 1492.75L113.64 1491.94L136.44 1456.5L154.07 1456.5L154.07 1500L140.73 1500L140.73 1462.94L144.27 1463.75L121.01 1500M176.98 1500L159.87 1500L159.87 1456.5L173.21 1456.5L173.21 1492.75L169.61 1491.94L192.41 1456.5L210.04 1456.5L210.04 1500L196.7 1500L196.7 1462.94L200.24 1463.75L176.98 1500M254.81 1485.67L267.98 1485.67Q267.52 1490.26 264.67 1493.71Q261.83 1497.16 257.28 1499.07Q252.73 1500.99 247.04 1500.99L247.04 1500.99Q240.84 1500.99 236.05 1498.78Q231.27 1496.58 228.6 1492.58Q225.93 1488.57 225.93 1483.41L225.93 1483.41Q225.93 1478.13 228.6 1474.19Q231.27 1470.25 236.05 1468.01Q240.84 1465.78 247.04 1465.78L247.04 1465.78Q252.73 1465.78 257.28 1467.69Q261.83 1469.61 264.67 1473.03Q267.52 1476.45 267.98 1481.09L267.98 1481.09L254.81 1481.09Q254.23 1478.37 252.15 1476.95Q250.06 1475.52 247.04 1475.52L247.04 1475.52Q244.72 1475.52 242.98 1476.42Q241.24 1477.32 240.31 1479.09Q239.39 1480.86 239.39 1483.41L239.39 1483.41Q239.39 1485.96 240.31 1487.7Q241.24 1489.44 242.98 1490.34Q244.72 1491.24 247.04 1491.24L247.04 1491.24Q250.06 1491.24 252.15 1489.71Q254.23 1488.17 254.81 1485.67L254.81 1485.67M313.97 1500L300.17 1500L298.6 1488.17L300.23 1483.41L298.6 1478.71L300.17 1466.77L313.97 1466.77L311.77 1483.35L313.97 1500M303.13 1483.41L303.13 1483.41Q302.43 1488.69 300.08 1492.66Q297.73 1496.64 294.05 1498.81Q290.37 1500.99 285.61 1500.99L285.61 1500.99Q280.8 1500.99 277.09 1498.78Q273.37 1496.58 271.31 1492.61Q269.26 1488.63 269.26 1483.41L269.26 1483.41Q269.26 1478.08 271.31 1474.1Q273.37 1470.13 277.09 1467.96Q280.8 1465.78 285.61 1465.78L285.61 1465.78Q290.37 1465.78 294.05 1467.93Q297.73 1470.07 300.11 1474.05Q302.49 1478.02 303.13 1483.41M282.65 1483.41L282.65 1483.41Q282.65 1485.62 283.55 1487.3Q284.45 1488.98 286.08 1489.97Q287.7 1490.95 289.79 1490.95L289.79 1490.95Q291.93 1490.95 293.91 1489.97Q295.88 1488.98 297.39 1487.3Q298.89 1485.62 299.59 1483.41L299.59 1483.41Q298.89 1481.21 297.39 1479.5Q295.88 1477.79 293.91 1476.8Q291.93 1475.81 289.79 1475.81L289.79 1475.81Q287.7 1475.81 286.08 1476.8Q284.45 1477.79 283.55 1479.5Q282.65 1481.21 282.65 1483.41M329.92 1500L317.45 1500L317.45 1466.77L337.46 1466.77L346.51 1492.58L343.15 1492.58L352.02 1466.77L372.03 1466.77L372.03 1500L359.56 1500L359.56 1471.87L361.53 1471.87L350.75 1500L338.8 1500L328.01 1471.99L329.92 1471.93L329.92 1500M416.05 1485.67L429.22 1485.67Q428.76 1490.26 425.91 1493.71Q423.07 1497.16 418.52 1499.07Q413.97 1500.99 408.28 1500.99L408.28 1500.99Q402.08 1500.99 397.29 1498.78Q392.51 1496.58 389.84 1492.58Q387.17 1488.57 387.17 1483.41L387.17 1483.41Q387.17 1478.13 389.84 1474.19Q392.51 1470.25 397.29 1468.01Q402.08 1465.78 408.28 1465.78L408.28 1465.78Q413.97 1465.78 418.52 1467.69Q423.07 1469.61 425.91 1473.03Q428.76 1476.45 429.22 1481.09L429.22 1481.09L416.05 1481.09Q415.47 1478.37 413.39 1476.95Q411.3 1475.52 408.28 1475.52L408.28 1475.52Q405.96 1475.52 404.22 1476.42Q402.48 1477.32 401.55 1479.09Q400.63 1480.86 400.63 1483.41L400.63 1483.41Q400.63 1485.96 401.55 1487.7Q402.48 1489.44 404.22 1490.34Q405.96 1491.24 408.28 1491.24L408.28 1491.24Q411.3 1491.24 413.39 1489.71Q415.47 1488.17 416.05 1485.67L416.05 1485.67M451.96 1500.99L451.96 1500.99Q445.52 1500.99 440.65 1498.78Q435.77 1496.58 433.05 1492.61Q430.32 1488.63 430.32 1483.41L430.32 1483.41Q430.32 1478.08 433.05 1474.1Q435.77 1470.13 440.65 1467.96Q445.52 1465.78 452.01 1465.78L452.01 1465.78Q458.45 1465.78 463.32 1467.96Q468.2 1470.13 470.89 1474.1Q473.59 1478.08 473.59 1483.41L473.59 1483.41Q473.59 1488.63 470.89 1492.61Q468.2 1496.58 463.32 1498.78Q458.45 1500.99 451.96 1500.99M452.01 1491.24L452.01 1491.24Q454.62 1491.24 456.45 1490.31Q458.28 1489.39 459.23 1487.62Q460.19 1485.85 460.19 1483.41L460.19 1483.41Q460.19 1480.92 459.23 1479.15Q458.28 1477.38 456.45 1476.45Q454.62 1475.52 452.01 1475.52L452.01 1475.52Q449.4 1475.52 447.55 1476.45Q445.69 1477.38 444.73 1479.15Q443.78 1480.92 443.78 1483.35L443.78 1483.35Q443.78 1485.85 444.73 1487.62Q445.69 1489.39 447.55 1490.31Q449.4 1491.24 452.01 1491.24M498.01 1500.99L498.01 1500.99Q490.87 1500.99 485.8 1498.38Q480.72 1495.77 478.06 1490.89Q475.39 1486.02 475.39 1479.06L475.39 1479.06Q475.39 1468.74 481.16 1462.79Q486.93 1456.85 497.78 1455.92L497.78 1455.92Q502.24 1455.57 505.14 1455.31Q508.04 1455.05 509.93 1454.79Q511.81 1454.53 513.12 1454.21Q514.42 1453.89 515.7 1453.48L515.7 1453.48L515.7 1464.21Q514.25 1464.74 512.3 1465.08Q510.36 1465.43 507.46 1465.64Q504.56 1465.84 500.27 1466.07L500.27 1466.07Q492.96 1466.3 489.66 1469.46Q486.35 1472.62 486.35 1478.83L486.35 1478.83L486.35 1479.82L486 1478.83Q486.99 1476.1 489.31 1474.07Q491.63 1472.04 494.9 1470.97Q498.18 1469.9 502.01 1469.9L502.01 1469.9Q507.06 1469.9 510.83 1471.75Q514.6 1473.61 516.68 1477Q518.77 1480.4 518.77 1484.86L518.77 1484.86Q518.77 1489.73 516.19 1493.36Q513.61 1496.98 508.97 1498.99Q504.33 1500.99 498.01 1500.99M498.36 1491.24L498.36 1491.24Q500.5 1491.24 502.1 1490.49Q503.69 1489.73 504.53 1488.34Q505.37 1486.95 505.37 1485.09L505.37 1485.09Q505.37 1483.18 504.53 1481.82Q503.69 1480.45 502.1 1479.7Q500.5 1478.95 498.36 1478.95L498.36 1478.95Q495.28 1478.95 492.79 1480.51Q490.29 1482.08 489.02 1484.69L489.02 1484.69Q489.77 1487.59 492.35 1489.42Q494.93 1491.24 498.36 1491.24M538.2 1500L521.67 1500L521.67 1466.77L534.78 1466.77L534.78 1492.63L532.17 1491.76L547.83 1466.77L564.82 1466.77L564.82 1500L551.77 1500L551.77 1473.26L554.33 1474.19L538.2 1500M569.12 1509.57L569.12 1466.77L582.4 1466.77L582.4 1475.64L581.88 1477.15L581.88 1487.3L582.4 1490.26L582.4 1509.57L569.12 1509.57M578.34 1483.41L578.34 1483.41Q579.03 1478.02 581.38 1474.05Q583.73 1470.07 587.44 1467.93Q591.16 1465.78 595.85 1465.78L595.85 1465.78Q600.73 1465.78 604.41 1467.96Q608.09 1470.13 610.15 1474.1Q612.21 1478.08 612.21 1483.41L612.21 1483.41Q612.21 1488.63 610.15 1492.61Q608.09 1496.58 604.41 1498.78Q600.73 1500.99 595.85 1500.99L595.85 1500.99Q591.1 1500.99 587.42 1498.81Q583.73 1496.64 581.41 1492.66Q579.09 1488.69 578.34 1483.41M598.81 1483.41L598.81 1483.41Q598.81 1481.21 597.91 1479.5Q597.01 1477.79 595.39 1476.8Q593.77 1475.81 591.68 1475.81L591.68 1475.81Q589.53 1475.81 587.56 1476.8Q585.59 1477.79 584.11 1479.5Q582.63 1481.21 581.93 1483.41L581.93 1483.41Q582.63 1485.62 584.11 1487.3Q585.59 1488.98 587.56 1489.97Q589.53 1490.95 591.68 1490.95L591.68 1490.95Q593.77 1490.95 595.39 1489.97Q597.01 1488.98 597.91 1487.3Q598.81 1485.62 598.81 1483.41M658.61 1500L644.81 1500L643.24 1488.17L644.86 1483.41L643.24 1478.71L644.81 1466.77L658.61 1466.77L656.41 1483.35L658.61 1500M647.76 1483.41L647.76 1483.41Q647.07 1488.69 644.72 1492.66Q642.37 1496.64 638.69 1498.81Q635 1500.99 630.25 1500.99L630.25 1500.99Q625.43 1500.99 621.72 1498.78Q618.01 1496.58 615.95 1492.61Q613.89 1488.63 613.89 1483.41L613.89 1483.41Q613.89 1478.08 615.95 1474.1Q618.01 1470.13 621.72 1467.96Q625.43 1465.78 630.25 1465.78L630.25 1465.78Q635 1465.78 638.69 1467.93Q642.37 1470.07 644.75 1474.05Q647.13 1478.02 647.76 1483.41M627.29 1483.41L627.29 1483.41Q627.29 1485.62 628.19 1487.3Q629.09 1488.98 630.71 1489.97Q632.34 1490.95 634.42 1490.95L634.42 1490.95Q636.57 1490.95 638.54 1489.97Q640.51 1488.98 642.02 1487.3Q643.53 1485.62 644.23 1483.41L644.23 1483.41Q643.53 1481.21 642.02 1479.5Q640.51 1477.79 638.54 1476.8Q636.57 1475.81 634.42 1475.81L634.42 1475.81Q632.34 1475.81 630.71 1476.8Q629.09 1477.79 628.19 1479.5Q627.29 1481.21 627.29 1483.41M681.98 1500.99L681.98 1500.99Q675.84 1500.99 671.02 1498.78Q666.21 1496.58 663.42 1492.58Q660.64 1488.57 660.64 1483.24L660.64 1483.24Q660.64 1478.02 663.34 1474.07Q666.03 1470.13 670.7 1467.96Q675.37 1465.78 681.17 1465.78L681.17 1465.78Q687.26 1465.78 691.55 1468.36Q695.85 1470.94 698.14 1475.73Q700.43 1480.51 700.43 1487.01L700.43 1487.01L671.49 1487.01L671.49 1479.41L692.77 1479.41L688.89 1482.02Q688.65 1479.76 687.73 1478.16Q686.8 1476.57 685.26 1475.76Q683.72 1474.94 681.64 1474.94L681.64 1474.94Q679.26 1474.94 677.58 1475.87Q675.89 1476.8 675 1478.45Q674.1 1480.11 674.1 1482.19L674.1 1482.19Q674.1 1485.15 675.4 1487.18Q676.71 1489.21 679.37 1490.29Q682.04 1491.36 685.99 1491.36L685.99 1491.36Q689.58 1491.36 693.12 1490.49Q696.66 1489.62 699.56 1487.94L699.56 1487.94L699.56 1496.17Q696.02 1498.49 691.64 1499.74Q687.26 1500.99 681.98 1500.99M713.48 1500L713.48 1471.35L726.76 1471.35L726.76 1500L713.48 1500M701.24 1476.68L701.24 1466.77L739 1466.77L739 1476.68L701.24 1476.68M753.38 1509.57L753.38 1466.77L766.66 1466.77L766.66 1475.64L766.14 1477.15L766.14 1487.3L766.66 1490.26L766.66 1509.57L753.38 1509.57M762.6 1483.41L762.6 1483.41Q763.3 1478.02 765.65 1474.05Q768 1470.07 771.71 1467.93Q775.42 1465.78 780.12 1465.78L780.12 1465.78Q784.99 1465.78 788.68 1467.96Q792.36 1470.13 794.42 1474.1Q796.48 1478.08 796.48 1483.41L796.48 1483.41Q796.48 1488.63 794.42 1492.61Q792.36 1496.58 788.68 1498.78Q784.99 1500.99 780.12 1500.99L780.12 1500.99Q775.36 1500.99 771.68 1498.81Q768 1496.64 765.68 1492.66Q763.36 1488.69 762.6 1483.41M783.08 1483.41L783.08 1483.41Q783.08 1481.21 782.18 1479.5Q781.28 1477.79 779.66 1476.8Q778.03 1475.81 775.94 1475.81L775.94 1475.81Q773.8 1475.81 771.83 1476.8Q769.85 1477.79 768.38 1479.5Q766.9 1481.21 766.2 1483.41L766.2 1483.41Q766.9 1485.62 768.38 1487.3Q769.85 1488.98 771.83 1489.97Q773.8 1490.95 775.94 1490.95L775.94 1490.95Q778.03 1490.95 779.66 1489.97Q781.28 1488.98 782.18 1487.3Q783.08 1485.62 783.08 1483.41M819.62 1500.99L819.62 1500.99Q813.18 1500.99 808.31 1498.78Q803.44 1496.58 800.71 1492.61Q797.98 1488.63 797.98 1483.41L797.98 1483.41Q797.98 1478.08 800.71 1474.1Q803.44 1470.13 808.31 1467.96Q813.18 1465.78 819.68 1465.78L819.68 1465.78Q826.11 1465.78 830.99 1467.96Q835.86 1470.13 838.56 1474.1Q841.25 1478.08 841.25 1483.41L841.25 1483.41Q841.25 1488.63 838.56 1492.61Q835.86 1496.58 830.99 1498.78Q826.11 1500.99 819.62 1500.99M819.68 1491.24L819.68 1491.24Q822.29 1491.24 824.11 1490.31Q825.94 1489.39 826.9 1487.62Q827.85 1485.85 827.85 1483.41L827.85 1483.41Q827.85 1480.92 826.9 1479.15Q825.94 1477.38 824.11 1476.45Q822.29 1475.52 819.68 1475.52L819.68 1475.52Q817.07 1475.52 815.21 1476.45Q813.35 1477.38 812.4 1479.15Q811.44 1480.92 811.44 1483.35L811.44 1483.35Q811.44 1485.85 812.4 1487.62Q813.35 1489.39 815.21 1490.31Q817.07 1491.24 819.68 1491.24M849.78 1466.77L849.78 1466.77L886.96 1466.77L886.96 1500L873.67 1500L873.67 1470.54L879.71 1476.57L856.39 1476.57L862.02 1471.35Q862.36 1474.77 862.54 1477.38Q862.71 1479.99 862.71 1482.14L862.71 1482.14Q862.71 1492 859.61 1496.38Q856.51 1500.75 849.49 1500.75L849.49 1500.75Q847.4 1500.75 845.57 1500.32Q843.75 1499.88 841.95 1498.9L841.95 1498.9L841.95 1489.5Q842.99 1489.91 844.01 1490.11Q845.02 1490.31 845.83 1490.31L845.83 1490.31Q848.5 1490.31 849.6 1487.99Q850.71 1485.67 850.71 1480.34L850.71 1480.34Q850.71 1477.67 850.47 1474.28Q850.24 1470.88 849.78 1466.77M907.78 1500L891.25 1500L891.25 1466.77L904.36 1466.77L904.36 1492.63L901.75 1491.76L917.41 1466.77L934.4 1466.77L934.4 1500L921.35 1500L921.35 1473.26L923.9 1474.19L907.78 1500M950.41 1500L938.69 1500L938.69 1466.77L951.97 1466.77L951.97 1489.79L948.15 1488.46L965.78 1466.77L979.58 1466.77L950.41 1500M980.45 1500L965.6 1500L956.38 1483.88L966.53 1477.09L980.45 1500" fill="#161512"><title>ИИ сам собирает ролик</title></path>
<g transform="translate(195.92000000000007,1560)" filter="url(#dropSoft)">
      <rect width="688.1599999999999" height="92" rx="46" fill="#161512" stroke="#FFD21E" stroke-width="2"/>
      <path d="M32.14 45.23L30.93 38.93L37.49 38.93L38.67 46.22L38.67 57.2L32.14 57.2L32.14 45.23M44.98 38.38L44.98 38.38Q47.5 38.38 49.26 39.44Q51.02 40.5 51.95 42.42Q52.88 44.34 52.88 46.96L52.88 46.96L52.88 57.2L46.35 57.2L46.35 47.92Q46.35 45.87 45.42 44.78Q44.5 43.7 42.74 43.7L42.74 43.7Q41.49 43.7 40.58 44.27Q39.66 44.85 39.17 45.9Q38.67 46.96 38.67 48.4L38.67 48.4L36.66 47.34Q37.04 44.43 38.22 42.43Q39.41 40.43 41.15 39.41Q42.9 38.38 44.98 38.38M59.15 38.38L59.15 38.38Q61.68 38.38 63.46 39.44Q65.23 40.5 66.16 42.42Q67.09 44.34 67.09 46.96L67.09 46.96L67.09 57.2L60.56 57.2L60.56 47.92Q60.56 45.87 59.63 44.78Q58.7 43.7 56.94 43.7L56.94 43.7Q55.7 43.7 54.78 44.27Q53.87 44.85 53.38 45.9Q52.88 46.96 52.88 48.4L52.88 48.4L50.86 47.34Q51.25 44.43 52.42 42.43Q53.58 40.43 55.34 39.41Q57.1 38.38 59.15 38.38M81.01 57.71L81.01 57.71Q77.49 57.71 74.86 56.51Q72.24 55.31 70.77 53.12Q69.3 50.93 69.3 48.08L69.3 48.08Q69.3 45.17 70.77 42.99Q72.24 40.82 74.86 39.6Q77.49 38.38 81.01 38.38L81.01 38.38Q84.5 38.38 87.14 39.6Q89.78 40.82 91.25 42.99Q92.72 45.17 92.72 48.08L92.72 48.08Q92.72 50.93 91.25 53.12Q89.78 55.31 87.14 56.51Q84.5 57.71 81.01 57.71M81.01 52.88L81.01 52.88Q82.61 52.88 83.74 52.3Q84.88 51.73 85.49 50.64Q86.1 49.55 86.1 48.08L86.1 48.08Q86.1 46.54 85.49 45.47Q84.88 44.4 83.74 43.82Q82.61 43.25 81.01 43.25L81.01 43.25Q79.41 43.25 78.26 43.82Q77.1 44.4 76.5 45.47Q75.89 46.54 75.89 48.05L75.89 48.05Q75.89 49.55 76.5 50.64Q77.1 51.73 78.26 52.3Q79.41 52.88 81.01 52.88M95.5 45.23L94.29 38.93L100.85 38.93L102.03 46.22L102.03 57.2L95.5 57.2L95.5 45.23M108.75 38.38L108.75 38.38Q111.38 38.38 113.23 39.44Q115.09 40.5 116.06 42.42Q117.04 44.34 117.04 46.96L117.04 46.96L117.04 57.2L110.51 57.2L110.51 47.92Q110.51 45.87 109.47 44.78Q108.43 43.7 106.48 43.7L106.48 43.7Q105.14 43.7 104.13 44.27Q103.12 44.85 102.58 45.9Q102.03 46.96 102.03 48.4L102.03 48.4L100.02 47.34Q100.4 44.43 101.65 42.43Q102.9 40.43 104.72 39.41Q106.54 38.38 108.75 38.38M122.19 43.76L118.48 43.76L118.48 40.91L122.19 39.41L125.01 34L128.72 34L128.72 38.93L136.4 38.93L136.4 43.76L128.72 43.76L128.72 49.14Q128.72 51.12 129.52 51.92Q130.32 52.72 132.43 52.72L132.43 52.72Q133.78 52.72 134.82 52.48Q135.86 52.24 136.72 51.86L136.72 51.86L136.72 56.78Q135.76 57.14 134.19 57.42Q132.62 57.71 130.96 57.71L130.96 57.71Q127.92 57.71 125.98 56.78Q124.05 55.86 123.12 54.11Q122.19 52.37 122.19 50.03L122.19 50.03L122.19 43.76M145.07 62.99L145.07 62.99Q143.06 62.99 141.49 62.5Q139.92 62 138.45 60.98L138.45 60.98L138.45 56.43Q139.95 57.39 141.26 57.81Q142.58 58.22 144.14 58.22L144.14 58.22Q145.46 58.22 146.48 57.65Q147.5 57.07 148.14 55.54L148.14 55.54L155.15 38.93L162.1 38.93L153.33 57.55Q152.4 59.57 151.07 60.77Q149.74 61.97 148.21 62.48Q146.67 62.99 145.07 62.99M151.6 55.5L145.3 55.5L137.52 38.93L144.72 38.93L151.6 55.5M166.61 57.52L166.61 57.52Q165.58 57.52 164.74 57.04Q163.89 56.56 163.41 55.71Q162.93 54.86 162.93 53.84L162.93 53.84Q162.93 52.82 163.41 51.98Q163.89 51.15 164.74 50.66Q165.58 50.16 166.61 50.16L166.61 50.16Q167.66 50.16 168.5 50.66Q169.33 51.15 169.81 51.98Q170.29 52.82 170.29 53.84L170.29 53.84Q170.29 54.86 169.81 55.71Q169.33 56.56 168.5 57.04Q167.66 57.52 166.61 57.52M185.87 36.91L185.87 36.91Q183.73 36.91 182.88 37.66Q182.03 38.42 182.03 40.08L182.03 40.08L182.03 57.2L175.5 57.2L175.5 40.4Q175.5 37.74 176.59 35.87Q177.68 34 179.81 33.02Q181.94 32.05 185.07 32.05L185.07 32.05Q186.48 32.05 187.58 32.24Q188.69 32.43 189.94 32.78L189.94 32.78L189.94 37.58Q188.98 37.23 187.97 37.07Q186.96 36.91 185.87 36.91M189.49 45.26L171.79 45.26L171.79 40.43L189.49 40.43L189.49 45.26M214.7 57.2L207.92 57.2L207.09 50.61L207.95 48.08L207.09 45.55L207.92 38.93L214.7 38.93L213.55 48.05L214.7 57.2M209.46 48.08L209.46 48.08Q209.01 50.96 207.68 53.14Q206.35 55.31 204.32 56.51Q202.29 57.71 199.7 57.71L199.7 57.71Q197.01 57.71 194.98 56.51Q192.94 55.31 191.79 53.12Q190.64 50.93 190.64 48.08L190.64 48.08Q190.64 45.17 191.79 42.99Q192.94 40.82 194.98 39.6Q197.01 38.38 199.7 38.38L199.7 38.38Q202.29 38.38 204.32 39.58Q206.35 40.78 207.7 42.94Q209.04 45.1 209.46 48.08M197.26 48.08L197.26 48.08Q197.26 49.42 197.82 50.48Q198.38 51.54 199.38 52.13Q200.37 52.72 201.65 52.72L201.65 52.72Q202.99 52.72 204.18 52.13Q205.36 51.54 206.26 50.48Q207.15 49.42 207.6 48.08L207.6 48.08Q207.15 46.7 206.26 45.65Q205.36 44.59 204.18 43.98Q202.99 43.38 201.65 43.38L201.65 43.38Q200.37 43.38 199.38 43.98Q198.38 44.59 197.82 45.65Q197.26 46.7 197.26 48.08M238.7 51.25L238.7 51.25Q238.7 53.36 237.42 54.8Q236.14 56.24 233.78 56.98Q231.41 57.71 228.08 57.71L228.08 57.71Q224.66 57.71 222.08 56.88Q219.5 56.05 218.06 54.54Q216.62 53.04 216.53 51.06L216.53 51.06L223.15 51.06Q223.38 51.79 224.03 52.32Q224.69 52.85 225.78 53.12Q226.86 53.39 228.37 53.39L228.37 53.39Q230.32 53.39 231.33 53.01Q232.34 52.62 232.34 51.86L232.34 51.86Q232.34 51.25 231.57 50.94Q230.8 50.64 228.94 50.48L228.94 50.48L225.71 50.22Q222.48 50 220.58 49.25Q218.67 48.5 217.84 47.3Q217.01 46.1 217.01 44.56L217.01 44.56Q217.01 42.48 218.3 41.12Q219.6 39.76 221.92 39.07Q224.24 38.38 227.34 38.38L227.34 38.38Q230.42 38.38 232.82 39.18Q235.22 39.98 236.66 41.41Q238.1 42.83 238.32 44.75L238.32 44.75L231.7 44.75Q231.54 44.14 230.99 43.65Q230.45 43.15 229.49 42.83Q228.53 42.51 227.02 42.51L227.02 42.51Q225.26 42.51 224.35 42.9Q223.44 43.28 223.44 43.98L223.44 43.98Q223.44 44.53 224 44.85Q224.56 45.17 226.1 45.3L226.1 45.3L230.35 45.62Q233.52 45.81 235.34 46.53Q237.17 47.25 237.94 48.43Q238.7 49.62 238.7 51.25M243.25 43.76L239.54 43.76L239.54 40.91L243.25 39.41L246.06 34L249.78 34L249.78 38.93L257.46 38.93L257.46 43.76L249.78 43.76L249.78 49.14Q249.78 51.12 250.58 51.92Q251.38 52.72 253.49 52.72L253.49 52.72Q254.83 52.72 255.87 52.48Q256.91 52.24 257.78 51.86L257.78 51.86L257.78 56.78Q256.82 57.14 255.25 57.42Q253.68 57.71 252.02 57.71L252.02 57.71Q248.98 57.71 247.04 56.78Q245.1 55.86 244.18 54.11Q243.25 52.37 243.25 50.03L243.25 50.03L243.25 43.76M258.77 58.06L267.73 32.34L272.59 32.34L263.63 58.06L258.77 58.06M274.83 45.07L273.62 38.93L280.27 38.93L281.36 45.46L281.36 57.2L274.83 57.2L274.83 45.07M289.94 38.64L289.94 38.64L289.94 44.21Q288.98 44.02 288.13 43.94Q287.28 43.86 286.58 43.86L286.58 43.86Q285.17 43.86 283.98 44.42Q282.8 44.98 282.08 46.26Q281.36 47.54 281.36 49.68L281.36 49.68L280.11 48.14Q280.37 46.16 280.88 44.42Q281.39 42.67 282.27 41.31Q283.15 39.95 284.46 39.17Q285.78 38.38 287.66 38.38L287.66 38.38Q288.21 38.38 288.78 38.45Q289.36 38.51 289.94 38.64M290.51 58.06L299.47 32.34L304.34 32.34L295.38 58.06L290.51 58.06" fill="#FBF7EF"><title>monty.fast/r/</title></path>
      <g data-code="1" data-x="304.75199999999995" data-y="57.2" data-size="32" data-fill="#FFD21E" data-track="-0.01" data-anchor="start" data-max="353.4"><path d="M314.51 57.2L314.51 36.11L321.17 36.11L321.17 57.2L314.51 57.2M305.36 39.09L305.36 33.2L330.32 33.2L330.32 39.09L305.36 39.09M349.1 45.46L349.1 45.46L349.65 44.21Q352.43 44.27 354.24 45.06Q356.05 45.84 356.94 47.23Q357.84 48.62 357.84 50.45L357.84 50.45Q357.84 52.4 356.94 53.92Q356.05 55.44 354.27 56.32Q352.5 57.2 349.84 57.2L349.84 57.2L332.11 57.2L333.97 44.88L332.11 33.2L349.2 33.2Q352.53 33.2 354.38 34.75Q356.24 36.3 356.24 39.06L356.24 39.06Q356.24 40.56 355.54 41.94Q354.83 43.31 353.28 44.26Q351.73 45.2 349.1 45.46M340.3 44.88L338.67 55.66L336.11 52.56L348.05 52.56Q349.49 52.56 350.29 51.86Q351.09 51.15 351.09 49.9L351.09 49.9Q351.09 48.66 350.22 47.9Q349.36 47.15 347.66 47.15L347.66 47.15L337.81 47.15L337.81 42.61L346.77 42.61Q347.92 42.61 348.7 41.92Q349.49 41.23 349.49 40.05L349.49 40.05Q349.49 39.09 348.82 38.46Q348.14 37.84 346.9 37.84L346.9 37.84L336.14 37.84L338.67 34.74L340.3 44.88M373.97 57.71L373.97 57.71Q369.71 57.71 366.5 56.14Q363.28 54.58 361.5 51.76Q359.73 48.94 359.73 45.2L359.73 45.2Q359.73 41.46 361.5 38.64Q363.28 35.82 366.5 34.26Q369.71 32.69 373.97 32.69L373.97 32.69Q378.26 32.69 381.46 34.26Q384.66 35.82 386.45 38.64Q388.24 41.46 388.24 45.2L388.24 45.2Q388.24 48.94 386.45 51.76Q384.66 54.58 381.46 56.14Q378.26 57.71 373.97 57.71M373.97 51.79L373.97 51.79Q376.3 51.79 378 50.99Q379.7 50.19 380.61 48.72Q381.52 47.25 381.52 45.2L381.52 45.2Q381.52 43.15 380.61 41.68Q379.7 40.21 378 39.41Q376.3 38.61 373.97 38.61L373.97 38.61Q371.66 38.61 369.97 39.41Q368.27 40.21 367.34 41.68Q366.42 43.15 366.42 45.2L366.42 45.2Q366.42 47.25 367.34 48.72Q368.27 50.19 369.97 50.99Q371.66 51.79 373.97 51.79M399.76 57.2L391.34 57.2L391.34 33.2L397.87 33.2L397.87 53.71L396.05 53.3L409.65 33.2L418.32 33.2L418.32 57.2L411.76 57.2L411.76 36.3L413.62 36.72L399.76 57.2M396.53 25.9L396.53 25.9L401.74 25.9Q402.13 26.93 402.88 27.46Q403.63 27.98 404.75 27.98L404.75 27.98Q405.87 27.98 406.62 27.46Q407.38 26.93 407.76 25.9L407.76 25.9L412.98 25.9Q412.27 28.94 410.08 30.3Q407.89 31.66 404.75 31.66L404.75 31.66Q401.65 31.66 399.44 30.3Q397.23 28.94 396.53 25.9M419.15 62.54L419.15 58.16L436.75 58.16L436.75 62.54L419.15 62.54M443.57 57.2L437.58 57.2L437.58 33.2L444.18 33.2L444.18 51.92L442.42 50.54L456.02 33.2L463.02 33.2L443.57 57.2M455.82 57.2L449.04 45.74L453.9 41.71L463.34 57.2L455.82 57.2M478.29 57.71L478.29 57.71Q474.03 57.71 470.82 56.14Q467.6 54.58 465.82 51.76Q464.05 48.94 464.05 45.2L464.05 45.2Q464.05 41.46 465.82 38.64Q467.6 35.82 470.82 34.26Q474.03 32.69 478.29 32.69L478.29 32.69Q482.58 32.69 485.78 34.26Q488.98 35.82 490.77 38.64Q492.56 41.46 492.56 45.2L492.56 45.2Q492.56 48.94 490.77 51.76Q488.98 54.58 485.78 56.14Q482.58 57.71 478.29 57.71M478.29 51.79L478.29 51.79Q480.62 51.79 482.32 50.99Q484.02 50.19 484.93 48.72Q485.84 47.25 485.84 45.2L485.84 45.2Q485.84 43.15 484.93 41.68Q484.02 40.21 482.32 39.41Q480.62 38.61 478.29 38.61L478.29 38.61Q475.98 38.61 474.29 39.41Q472.59 40.21 471.66 41.68Q470.74 43.15 470.74 45.2L470.74 45.2Q470.74 47.25 471.66 48.72Q472.59 50.19 474.29 50.99Q475.98 51.79 478.29 51.79M500.24 62.03L494.03 62.03L494.03 51.34L499.22 51.34L501.33 51.41L517.97 51.41L519.63 51.34L526.61 51.34L526.61 62.03L520.4 62.03L520.4 57.2L500.24 57.2L500.24 62.03M499.02 33.2L499.02 33.2L522.48 33.2L522.48 55.34L515.82 55.34L515.82 35.98L518.83 38.99L502.54 38.99L505.3 36.78Q505.55 38.26 505.6 39.63Q505.65 41.01 505.65 42.26L505.65 42.26Q505.65 46 504.99 48.56Q504.34 51.12 503.04 52.43Q501.74 53.74 499.79 53.74L499.79 53.74L497.01 51.44Q498.29 49.94 498.9 47.33Q499.5 44.72 499.5 40.88L499.5 40.88Q499.5 39.12 499.38 37.2Q499.25 35.28 499.02 33.2" fill="#FFD21E"><title>ТВОЙ_КОД</title></path></g>
    </g>
<path d="M354.14 1705L366.24 1705L366.24 1720L363.82 1720L363.82 1707.24L356.58 1707.24L356.58 1720L354.14 1720L354.14 1705M372.68 1725.71L370.26 1725.71L370.26 1705L372.62 1705L372.62 1707.34L372.81 1707.34Q373.13 1706.79 373.68 1706.21Q374.23 1705.62 375.1 1705.2Q375.98 1704.78 377.28 1704.78L377.28 1704.78Q379.18 1704.78 380.62 1705.73Q382.06 1706.68 382.88 1708.43Q383.69 1710.17 383.69 1712.52L383.69 1712.52Q383.69 1714.89 382.88 1716.64Q382.08 1718.39 380.63 1719.35Q379.19 1720.31 377.29 1720.31L377.29 1720.31Q376.01 1720.31 375.14 1719.89Q374.27 1719.47 373.72 1718.86Q373.16 1718.25 372.82 1717.69L372.82 1717.69L372.68 1717.69L372.68 1725.71M376.92 1718.14L376.92 1718.14Q378.3 1718.14 379.26 1717.42Q380.22 1716.71 380.72 1715.43Q381.23 1714.16 381.23 1712.51L381.23 1712.51Q381.23 1710.85 380.73 1709.6Q380.23 1708.35 379.27 1707.65Q378.3 1706.94 376.92 1706.94L376.92 1706.94Q375.54 1706.94 374.57 1707.64Q373.6 1708.34 373.1 1709.58Q372.6 1710.83 372.6 1712.51L372.6 1712.51Q372.6 1714.18 373.11 1715.45Q373.61 1716.72 374.58 1717.43Q375.55 1718.14 376.92 1718.14M393.11 1720.33L393.11 1720.33Q391.06 1720.33 389.51 1719.35Q387.97 1718.37 387.1 1716.62Q386.23 1714.87 386.23 1712.58L386.23 1712.58Q386.23 1710.24 387.1 1708.48Q387.97 1706.72 389.51 1705.74Q391.06 1704.76 393.11 1704.76L393.11 1704.76Q395.17 1704.76 396.73 1705.74Q398.28 1706.72 399.14 1708.48Q400 1710.24 400 1712.58L400 1712.58Q400 1714.87 399.14 1716.62Q398.28 1718.37 396.73 1719.35Q395.17 1720.33 393.11 1720.33M393.11 1718.15L393.11 1718.15Q394.6 1718.15 395.58 1717.4Q396.57 1716.65 397.06 1715.39Q397.55 1714.12 397.55 1712.58L397.55 1712.58Q397.55 1711 397.06 1709.73Q396.57 1708.45 395.58 1707.69Q394.6 1706.93 393.11 1706.93L393.11 1706.93Q391.63 1706.93 390.66 1707.69Q389.68 1708.45 389.19 1709.73Q388.69 1711 388.69 1712.58L388.69 1712.58Q388.69 1714.12 389.19 1715.39Q389.68 1716.65 390.66 1717.4Q391.63 1718.15 393.11 1718.15M405.69 1720L403.28 1720L403.28 1705L406.9 1705L410.49 1713.48Q410.77 1714.18 411.01 1714.8Q411.24 1715.42 411.42 1715.99Q411.61 1716.55 411.77 1717.11Q411.94 1717.66 412.09 1718.22L412.09 1718.22L411.65 1718.22Q411.8 1717.68 411.96 1717.14Q412.11 1716.6 412.3 1716.01Q412.48 1715.43 412.71 1714.81Q412.95 1714.19 413.23 1713.48L413.23 1713.48L416.78 1705L420.43 1705L420.43 1720L418.01 1720L418.01 1712.25Q418.01 1711.4 418.01 1710.63Q418.02 1709.87 418.03 1709.13Q418.05 1708.39 418.05 1707.65Q418.06 1706.9 418.07 1706.12L418.07 1706.12L418.4 1706.12Q418.07 1707.23 417.76 1708.18Q417.45 1709.13 417.08 1710.09Q416.72 1711.06 416.21 1712.23L416.21 1712.23L412.91 1720L410.79 1720L407.44 1712.23Q406.93 1711.06 406.56 1710.09Q406.19 1709.13 405.88 1708.18Q405.56 1707.23 405.22 1706.12L405.22 1706.12L405.61 1706.12Q405.62 1706.82 405.64 1707.54Q405.66 1708.27 405.67 1709.03Q405.67 1709.79 405.68 1710.59Q405.69 1711.39 405.69 1712.25L405.69 1712.25L405.69 1720M430.6 1720.33L430.6 1720.33Q428.55 1720.33 427 1719.35Q425.46 1718.37 424.59 1716.62Q423.72 1714.87 423.72 1712.58L423.72 1712.58Q423.72 1710.24 424.59 1708.48Q425.46 1706.72 427 1705.74Q428.55 1704.76 430.6 1704.76L430.6 1704.76Q432.66 1704.76 434.21 1705.74Q435.77 1706.72 436.63 1708.48Q437.49 1710.24 437.49 1712.58L437.49 1712.58Q437.49 1714.87 436.63 1716.62Q435.77 1718.37 434.21 1719.35Q432.66 1720.33 430.6 1720.33M430.6 1718.15L430.6 1718.15Q432.09 1718.15 433.07 1717.4Q434.06 1716.65 434.55 1715.39Q435.04 1714.12 435.04 1712.58L435.04 1712.58Q435.04 1711 434.55 1709.73Q434.06 1708.45 433.07 1707.69Q432.09 1706.93 430.6 1706.93L430.6 1706.93Q429.12 1706.93 428.14 1707.69Q427.17 1708.45 426.67 1709.73Q426.18 1711 426.18 1712.58L426.18 1712.58Q426.18 1714.12 426.67 1715.39Q427.17 1716.65 428.14 1717.4Q429.12 1718.15 430.6 1718.15M443.19 1720L440.77 1720L440.77 1705L443.19 1705L443.19 1711.48L444.73 1711.48L450.2 1705L453.27 1705L447.15 1712.25L453.35 1720L450.29 1720L445.32 1713.72L443.19 1713.72L443.19 1720M461.11 1720.33L461.11 1720.33Q459.06 1720.33 457.52 1719.35Q455.97 1718.37 455.1 1716.62Q454.24 1714.87 454.24 1712.58L454.24 1712.58Q454.24 1710.24 455.1 1708.48Q455.97 1706.72 457.52 1705.74Q459.06 1704.76 461.11 1704.76L461.11 1704.76Q463.18 1704.76 464.73 1705.74Q466.28 1706.72 467.14 1708.48Q468 1710.24 468 1712.58L468 1712.58Q468 1714.87 467.14 1716.62Q466.28 1718.37 464.73 1719.35Q463.18 1720.33 461.11 1720.33M461.11 1718.15L461.11 1718.15Q462.6 1718.15 463.59 1717.4Q464.57 1716.65 465.06 1715.39Q465.56 1714.12 465.56 1712.58L465.56 1712.58Q465.56 1711 465.06 1709.73Q464.57 1708.45 463.59 1707.69Q462.6 1706.93 461.11 1706.93L461.11 1706.93Q459.64 1706.93 458.66 1707.69Q457.68 1708.45 457.19 1709.73Q456.7 1711 456.7 1712.58L456.7 1712.58Q456.7 1714.12 457.19 1715.39Q457.68 1716.65 458.66 1717.4Q459.64 1718.15 461.11 1718.15M472.16 1724.39L469.74 1724.39L469.74 1717.76L471 1717.76Q471.46 1717.28 471.81 1716.72Q472.16 1716.16 472.41 1715.39Q472.65 1714.63 472.83 1713.53Q473.01 1712.43 473.14 1710.87L473.14 1710.87L473.65 1705L483.47 1705L483.47 1717.76L485.79 1717.76L485.79 1724.39L483.38 1724.39L483.38 1720L472.16 1720L472.16 1724.39M473.76 1717.76L473.76 1717.76L481.06 1717.76L481.06 1707.24L475.85 1707.24L475.51 1710.87Q475.29 1713.23 474.92 1714.97Q474.54 1716.71 473.76 1717.76M495.68 1710.31L504.6 1710.31L504.6 1712.55L495.68 1712.55L495.68 1710.31M522.19 1720.33L522.19 1720.33Q520.22 1720.33 518.67 1719.39Q517.11 1718.46 516.2 1716.72Q515.29 1714.98 515.29 1712.59L515.29 1712.59L515.29 1712.07Q515.29 1709.71 515.58 1707.95Q515.86 1706.19 516.45 1704.95Q517.04 1703.72 518.01 1702.93Q518.97 1702.14 520.34 1701.73Q521.71 1701.32 523.53 1701.21L523.53 1701.21Q524.41 1701.15 524.89 1700.97Q525.36 1700.79 525.53 1700.46Q525.7 1700.13 525.7 1699.63L525.7 1699.63L527.89 1699.63Q527.89 1700.76 527.47 1701.54Q527.05 1702.31 526.1 1702.73Q525.14 1703.16 523.53 1703.28L523.53 1703.28Q521.46 1703.43 520.19 1703.95Q518.92 1704.47 518.25 1705.7Q517.59 1706.93 517.35 1709.19L517.35 1709.19L517.4 1709.19Q517.82 1708.17 518.64 1707.34Q519.46 1706.51 520.57 1706Q521.67 1705.49 522.94 1705.49L522.94 1705.49Q524.66 1705.49 526.01 1706.45Q527.37 1707.41 528.15 1709.05Q528.94 1710.69 528.94 1712.77L528.94 1712.77Q528.94 1714.93 528.07 1716.64Q527.2 1718.35 525.68 1719.34Q524.15 1720.33 522.19 1720.33M522.21 1718.18L522.21 1718.18Q523.57 1718.18 524.52 1717.54Q525.48 1716.9 525.99 1715.71Q526.51 1714.52 526.51 1712.89L526.51 1712.89Q526.51 1711.26 526.01 1710.09Q525.52 1708.91 524.58 1708.28Q523.63 1707.64 522.29 1707.64L522.29 1707.64Q520.94 1707.64 519.91 1708.31Q518.88 1708.98 518.3 1710.18Q517.73 1711.39 517.73 1712.97L517.73 1712.97Q517.73 1714.49 518.27 1715.67Q518.81 1716.84 519.82 1717.51Q520.83 1718.18 522.21 1718.18M538.36 1720.33L538.36 1720.33Q536.31 1720.33 534.76 1719.35Q533.22 1718.37 532.35 1716.62Q531.48 1714.87 531.48 1712.58L531.48 1712.58Q531.48 1710.24 532.35 1708.48Q533.22 1706.72 534.76 1705.74Q536.31 1704.76 538.36 1704.76L538.36 1704.76Q540.42 1704.76 541.98 1705.74Q543.53 1706.72 544.39 1708.48Q545.25 1710.24 545.25 1712.58L545.25 1712.58Q545.25 1714.87 544.39 1716.62Q543.53 1718.37 541.98 1719.35Q540.42 1720.33 538.36 1720.33M538.36 1718.15L538.36 1718.15Q539.85 1718.15 540.83 1717.4Q541.82 1716.65 542.31 1715.39Q542.8 1714.12 542.8 1712.58L542.8 1712.58Q542.8 1711 542.31 1709.73Q541.82 1708.45 540.83 1707.69Q539.85 1706.93 538.36 1706.93L538.36 1706.93Q536.88 1706.93 535.91 1707.69Q534.93 1708.45 534.44 1709.73Q533.94 1711 533.94 1712.58L533.94 1712.58Q533.94 1714.12 534.44 1715.39Q534.93 1716.65 535.91 1717.4Q536.88 1718.15 538.36 1718.15M550.38 1711.17L558.77 1711.17L558.77 1713.41L550.38 1713.41L550.38 1711.17M548.53 1705L550.95 1705L550.95 1720L548.53 1720L548.53 1705M558.22 1705L560.64 1705L560.64 1720L558.22 1720L558.22 1705M564.04 1725.59L564.04 1725.59L564.46 1723.49L565.1 1723.54Q565.76 1723.66 566.28 1723.54Q566.81 1723.42 567.23 1722.95Q567.66 1722.47 567.97 1721.54L567.97 1721.54L568.53 1720.01L562.78 1705L565.42 1705L568.62 1713.81Q569.09 1715.11 569.46 1716.38Q569.82 1717.66 570.2 1718.88L570.2 1718.88L569.39 1718.88Q569.76 1717.66 570.13 1716.38Q570.5 1715.09 570.97 1713.81L570.97 1713.81L574.18 1705L576.79 1705L570.09 1722.42Q569.65 1723.55 569.03 1724.3Q568.4 1725.04 567.57 1725.41Q566.74 1725.78 565.72 1725.78L565.72 1725.78Q565.16 1725.78 564.72 1725.72Q564.28 1725.66 564.04 1725.59M585.02 1720.33L585.02 1720.33Q582.97 1720.33 581.43 1719.35Q579.88 1718.37 579.01 1716.62Q578.14 1714.87 578.14 1712.58L578.14 1712.58Q578.14 1710.24 579.01 1708.48Q579.88 1706.72 581.43 1705.74Q582.97 1704.76 585.02 1704.76L585.02 1704.76Q586.17 1704.76 587.17 1705.08Q588.18 1705.4 588.99 1705.98Q589.79 1706.56 590.35 1707.39Q590.91 1708.23 591.17 1709.25L591.17 1709.25L588.82 1709.71Q588.67 1709.09 588.34 1708.58Q588.02 1708.08 587.53 1707.71Q587.04 1707.34 586.42 1707.13Q585.79 1706.93 585.02 1706.93L585.02 1706.93Q583.54 1706.93 582.57 1707.69Q581.59 1708.45 581.1 1709.73Q580.61 1711 580.61 1712.58L580.61 1712.58Q580.61 1714.12 581.1 1715.39Q581.59 1716.65 582.57 1717.4Q583.54 1718.15 585.02 1718.15L585.02 1718.15Q585.8 1718.15 586.44 1717.95Q587.07 1717.74 587.55 1717.37Q588.03 1716.99 588.36 1716.47Q588.69 1715.94 588.85 1715.31L588.85 1715.31L591.21 1715.75Q590.97 1716.79 590.4 1717.63Q589.83 1718.47 589.02 1719.08Q588.21 1719.69 587.19 1720.01Q586.17 1720.33 585.02 1720.33M603.86 1711.17L612.26 1711.17L612.26 1713.41L603.86 1713.41L603.86 1711.17M602.02 1705L604.44 1705L604.44 1720L602.02 1720L602.02 1705M611.71 1705L614.13 1705L614.13 1720L611.71 1720L611.71 1705M622.47 1720.31L622.47 1720.31Q621.03 1720.31 619.86 1719.78Q618.7 1719.25 618.01 1718.22Q617.33 1717.2 617.33 1715.72L617.33 1715.72Q617.33 1714.42 617.83 1713.62Q618.34 1712.81 619.19 1712.35Q620.04 1711.89 621.08 1711.66Q622.13 1711.43 623.21 1711.29L623.21 1711.29Q624.57 1711.1 625.42 1711Q626.26 1710.91 626.65 1710.68Q627.04 1710.46 627.04 1709.9L627.04 1709.9L627.04 1709.8Q627.04 1708.9 626.67 1708.26Q626.31 1707.61 625.59 1707.26Q624.88 1706.9 623.84 1706.9L623.84 1706.9Q622.77 1706.9 621.99 1707.24Q621.21 1707.59 620.74 1708.12Q620.27 1708.65 620.08 1709.24L620.08 1709.24L617.71 1708.72Q618.13 1707.35 619.05 1706.49Q619.97 1705.62 621.2 1705.2Q622.43 1704.78 623.78 1704.78L623.78 1704.78Q624.71 1704.78 625.7 1705.02Q626.69 1705.25 627.54 1705.82Q628.39 1706.4 628.92 1707.41Q629.44 1708.42 629.44 1709.96L629.44 1709.96L629.44 1720L627.06 1720L627.06 1717.94L626.93 1717.94Q626.67 1718.46 626.12 1719.01Q625.57 1719.56 624.68 1719.94Q623.78 1720.31 622.47 1720.31M622.87 1718.17L622.87 1718.17Q624.25 1718.17 625.18 1717.64Q626.11 1717.12 626.57 1716.27Q627.04 1715.43 627.04 1714.49L627.04 1714.49L627.04 1712.48Q626.88 1712.64 626.43 1712.77Q625.97 1712.9 625.36 1713.01Q624.75 1713.12 624.14 1713.21Q623.54 1713.29 623.1 1713.34L623.1 1713.34Q622.22 1713.45 621.46 1713.72Q620.69 1713.98 620.23 1714.48Q619.76 1714.98 619.76 1715.84L619.76 1715.84Q619.76 1716.6 620.16 1717.12Q620.55 1717.63 621.25 1717.9Q621.95 1718.17 622.87 1718.17M647.19 1720.33L647.19 1720.33Q645.14 1720.33 643.59 1719.35Q642.05 1718.37 641.18 1716.62Q640.31 1714.87 640.31 1712.58L640.31 1712.58Q640.31 1710.24 641.18 1708.48Q642.05 1706.72 643.59 1705.74Q645.14 1704.76 647.19 1704.76L647.19 1704.76Q648.34 1704.76 649.34 1705.08Q650.35 1705.4 651.15 1705.98Q651.96 1706.56 652.52 1707.39Q653.08 1708.23 653.34 1709.25L653.34 1709.25L650.99 1709.71Q650.84 1709.09 650.51 1708.58Q650.18 1708.08 649.7 1707.71Q649.21 1707.34 648.58 1707.13Q647.95 1706.93 647.19 1706.93L647.19 1706.93Q645.71 1706.93 644.73 1707.69Q643.76 1708.45 643.26 1709.73Q642.77 1711 642.77 1712.58L642.77 1712.58Q642.77 1714.12 643.26 1715.39Q643.76 1716.65 644.73 1717.4Q645.71 1718.15 647.19 1718.15L647.19 1718.15Q647.97 1718.15 648.6 1717.95Q649.24 1717.74 649.72 1717.37Q650.2 1716.99 650.52 1716.47Q650.85 1715.94 651.02 1715.31L651.02 1715.31L653.38 1715.75Q653.13 1716.79 652.57 1717.63Q652 1718.47 651.19 1719.08Q650.37 1719.69 649.35 1720.01Q648.34 1720.33 647.19 1720.33M662.28 1720L659.88 1720L659.88 1707.16L654.83 1707.16L654.83 1705L667.3 1705L667.3 1707.16L662.28 1707.16L662.28 1720M673.72 1720.31L673.72 1720.31Q672.29 1720.31 671.12 1719.78Q669.95 1719.25 669.27 1718.22Q668.58 1717.2 668.58 1715.72L668.58 1715.72Q668.58 1714.42 669.09 1713.62Q669.6 1712.81 670.44 1712.35Q671.29 1711.89 672.34 1711.66Q673.38 1711.43 674.46 1711.29L674.46 1711.29Q675.83 1711.1 676.67 1711Q677.51 1710.91 677.9 1710.68Q678.29 1710.46 678.29 1709.9L678.29 1709.9L678.29 1709.8Q678.29 1708.9 677.93 1708.26Q677.57 1707.61 676.85 1707.26Q676.13 1706.9 675.09 1706.9L675.09 1706.9Q674.03 1706.9 673.25 1707.24Q672.47 1707.59 672 1708.12Q671.52 1708.65 671.33 1709.24L671.33 1709.24L668.97 1708.72Q669.39 1707.35 670.31 1706.49Q671.22 1705.62 672.45 1705.2Q673.68 1704.78 675.04 1704.78L675.04 1704.78Q675.97 1704.78 676.96 1705.02Q677.95 1705.25 678.8 1705.82Q679.64 1706.4 680.17 1707.41Q680.7 1708.42 680.7 1709.96L680.7 1709.96L680.7 1720L678.32 1720L678.32 1717.94L678.18 1717.94Q677.92 1718.46 677.38 1719.01Q676.83 1719.56 675.93 1719.94Q675.04 1720.31 673.72 1720.31M674.12 1718.17L674.12 1718.17Q675.5 1718.17 676.43 1717.64Q677.36 1717.12 677.83 1716.27Q678.29 1715.43 678.29 1714.49L678.29 1714.49L678.29 1712.48Q678.14 1712.64 677.68 1712.77Q677.22 1712.9 676.62 1713.01Q676.01 1713.12 675.4 1713.21Q674.79 1713.29 674.35 1713.34L674.35 1713.34Q673.48 1713.45 672.71 1713.72Q671.95 1713.98 671.48 1714.48Q671.02 1714.98 671.02 1715.84L671.02 1715.84Q671.02 1716.6 671.41 1717.12Q671.81 1717.63 672.51 1717.9Q673.21 1718.17 674.12 1718.17M687.14 1725.71L684.72 1725.71L684.72 1705L687.07 1705L687.07 1707.34L687.26 1707.34Q687.59 1706.79 688.13 1706.21Q688.68 1705.62 689.56 1705.2Q690.43 1704.78 691.73 1704.78L691.73 1704.78Q693.63 1704.78 695.07 1705.73Q696.52 1706.68 697.33 1708.43Q698.14 1710.17 698.14 1712.52L698.14 1712.52Q698.14 1714.89 697.34 1716.64Q696.53 1718.39 695.09 1719.35Q693.64 1720.31 691.74 1720.31L691.74 1720.31Q690.46 1720.31 689.59 1719.89Q688.72 1719.47 688.17 1718.86Q687.62 1718.25 687.27 1717.69L687.27 1717.69L687.14 1717.69L687.14 1725.71M691.38 1718.14L691.38 1718.14Q692.76 1718.14 693.71 1717.42Q694.67 1716.71 695.18 1715.43Q695.68 1714.16 695.68 1712.51L695.68 1712.51Q695.68 1710.85 695.18 1709.6Q694.68 1708.35 693.72 1707.65Q692.76 1706.94 691.38 1706.94L691.38 1706.94Q689.99 1706.94 689.02 1707.64Q688.05 1708.34 687.55 1709.58Q687.05 1710.83 687.05 1712.51L687.05 1712.51Q687.05 1714.18 687.56 1715.45Q688.07 1716.72 689.04 1717.43Q690.01 1718.14 691.38 1718.14M707.11 1720L704.71 1720L704.71 1707.16L699.66 1707.16L699.66 1705L712.13 1705L712.13 1707.16L707.11 1707.16L707.11 1720M720.26 1720.33L720.26 1720.33Q718.08 1720.33 716.51 1719.35Q714.95 1718.37 714.1 1716.63Q713.25 1714.89 713.25 1712.59L713.25 1712.59Q713.25 1710.29 714.1 1708.53Q714.95 1706.77 716.47 1705.76Q717.99 1704.76 720.02 1704.76L720.02 1704.76Q721.33 1704.76 722.52 1705.21Q723.71 1705.66 724.64 1706.59Q725.57 1707.53 726.11 1708.97Q726.65 1710.4 726.65 1712.38L726.65 1712.38L726.65 1713.27L714.78 1713.27L714.78 1711.22L725.32 1711.22L724.23 1711.97Q724.23 1710.47 723.74 1709.33Q723.24 1708.19 722.31 1707.55Q721.37 1706.92 720.02 1706.92L720.02 1706.92Q718.66 1706.92 717.69 1707.57Q716.72 1708.21 716.2 1709.3Q715.68 1710.39 715.68 1711.7L715.68 1711.7L715.68 1712.96Q715.68 1714.59 716.24 1715.75Q716.8 1716.92 717.84 1717.55Q718.87 1718.17 720.28 1718.17L720.28 1718.17Q721.22 1718.17 721.97 1717.89Q722.72 1717.61 723.25 1717.07Q723.78 1716.53 724.04 1715.75L724.04 1715.75L726.4 1716.19Q726.07 1717.42 725.22 1718.35Q724.37 1719.28 723.1 1719.8Q721.84 1720.33 720.26 1720.33" fill="#4A4843"><title>промокод - бонус на старте</title></path>
<g transform="translate(880,1760) rotate(16) scale(1.0333333333333334)">
    <path d="M2 4 C10 30 34 40 54 34 C40 44 14 42 4 20 Z" fill="#FFD21E" stroke="#161512" stroke-width="3" stroke-linejoin="round"/>
  </g>
</svg>
