<svg width="420" height="72" viewBox="0 0 420 72" xmlns="http://www.w3.org/2000/svg" role="img" aria-label="monty.fast">
<defs>
  <filter id="grain" x="0" y="0" width="100%" height="100%">
    <feTurbulence type="fractalNoise" baseFrequency="0.9" numOctaves="3" seed="7" result="n"/>
    <feColorMatrix in="n" type="saturate" values="0"/>
  </filter>
  <filter id="drop" x="-40%" y="-40%" width="180%" height="200%">
    <feDropShadow dx="0" dy="10" stdDeviation="16" flood-color="#000000" flood-opacity="0.45"/>
  </filter>
  <filter id="dropSoft" x="-40%" y="-40%" width="180%" height="200%">
    <feDropShadow dx="0" dy="6" stdDeviation="9" flood-color="#000000" flood-opacity="0.22"/>
  </filter>
  <linearGradient id="screenGrad" x1="0" y1="0" x2="1" y2="1">
    <stop offset="0" stop-color="#2A1E5C"/><stop offset="0.5" stop-color="#161512"/><stop offset="1" stop-color="#0B0A09"/>
  </linearGradient>
  <linearGradient id="neonGrad" x1="0" y1="0" x2="1" y2="0">
    <stop offset="0" stop-color="#6C4DF6"/><stop offset="1" stop-color="#FFD21E"/>
  </linearGradient></defs>
<rect width="420" height="72" rx="36" fill="#161512" opacity="0.55"/>
<g transform="translate(18,14) scale(0.34375)">
    <circle cx="30" cy="52" r="19" fill="#FBF7EF"/><circle cx="98" cy="52" r="19" fill="#FBF7EF"/>
    <circle cx="30" cy="52" r="9" fill="#FFD21E"/><circle cx="98" cy="52" r="9" fill="#FFD21E"/>
    <rect x="28" y="26" width="72" height="80" rx="36" fill="#FBF7EF"/>
    <circle cx="64" cy="70" r="30" fill="#161512"/>
    <path d="M57 55 L57 85 L84 70 Z" fill="#FFD21E" stroke="#FFD21E" stroke-width="5" stroke-linejoin="round"/>
  </g><path d="M76.46 48.76L71.69 48.76L71.69 29.99L76.38 29.99L76.38 32.03L77.06 32.03Q77.55 31.09 78.69 30.39Q79.82 29.69 81.68 29.69L81.68 29.69Q83.68 29.69 84.89 30.46Q86.11 31.24 86.75 32.49L86.75 32.49L87.43 32.49Q88.07 31.28 89.25 30.48Q90.42 29.69 92.58 29.69L92.58 29.69Q94.32 29.69 95.74 30.43Q97.16 31.16 98.01 32.66Q98.86 34.15 98.86 36.42L98.86 36.42L98.86 48.76L94.09 48.76L94.09 36.76Q94.09 35.21 93.3 34.44Q92.5 33.66 91.06 33.66L91.06 33.66Q89.44 33.66 88.55 34.7Q87.66 35.74 87.66 37.67L87.66 37.67L87.66 48.76L82.89 48.76L82.89 36.76Q82.89 35.21 82.09 34.44Q81.3 33.66 79.86 33.66L79.86 33.66Q78.24 33.66 77.35 34.7Q76.46 35.74 76.46 37.67L76.46 37.67L76.46 48.76M111.8 49.29L111.8 49.29Q109 49.29 106.77 48.15Q104.53 47.02 103.25 44.86Q101.96 42.71 101.96 39.68L101.96 39.68L101.96 39.07Q101.96 36.05 103.25 33.89Q104.53 31.73 106.77 30.6Q109 29.46 111.8 29.46L111.8 29.46Q114.6 29.46 116.83 30.6Q119.06 31.73 120.35 33.89Q121.64 36.05 121.64 39.07L121.64 39.07L121.64 39.68Q121.64 42.71 120.35 44.86Q119.06 47.02 116.83 48.15Q114.6 49.29 111.8 49.29M111.8 45.05L111.8 45.05Q113.99 45.05 115.43 43.63Q116.87 42.21 116.87 39.56L116.87 39.56L116.87 39.19Q116.87 36.54 115.45 35.12Q114.03 33.7 111.8 33.7L111.8 33.7Q109.6 33.7 108.17 35.12Q106.73 36.54 106.73 39.19L106.73 39.19L106.73 39.56Q106.73 42.21 108.17 43.63Q109.6 45.05 111.8 45.05M129.66 48.76L124.89 48.76L124.89 29.99L129.58 29.99L129.58 32.45L130.27 32.45Q130.72 31.47 131.97 30.58Q133.22 29.69 135.75 29.69L135.75 29.69Q137.95 29.69 139.59 30.69Q141.24 31.69 142.15 33.45Q143.06 35.21 143.06 37.56L143.06 37.56L143.06 48.76L138.29 48.76L138.29 37.94Q138.29 35.82 137.25 34.76Q136.21 33.7 134.28 33.7L134.28 33.7Q132.08 33.7 130.87 35.16Q129.66 36.61 129.66 39.22L129.66 39.22L129.66 48.76M159.02 48.76L153.73 48.76Q151.87 48.76 150.72 47.61Q149.56 46.45 149.56 44.52L149.56 44.52L149.56 33.93L144.87 33.93L144.87 29.99L149.56 29.99L149.56 24.16L154.33 24.16L154.33 29.99L159.48 29.99L159.48 33.93L154.33 33.93L154.33 43.69Q154.33 44.82 155.39 44.82L155.39 44.82L159.02 44.82L159.02 48.76M176.51 56.33L164.7 56.33L164.7 52.17L174.92 52.17Q175.98 52.17 175.98 51.03L175.98 51.03L175.98 46.3L175.29 46.3Q174.99 46.94 174.35 47.59Q173.71 48.23 172.61 48.65Q171.51 49.06 169.81 49.06L169.81 49.06Q167.61 49.06 165.97 48.06Q164.32 47.06 163.41 45.28Q162.5 43.5 162.5 41.19L162.5 41.19L162.5 29.99L167.27 29.99L167.27 40.81Q167.27 42.93 168.31 43.99Q169.35 45.05 171.28 45.05L171.28 45.05Q173.48 45.05 174.69 43.59Q175.9 42.14 175.9 39.53L175.9 39.53L175.9 29.99L180.67 29.99L180.67 52.09Q180.67 54.02 179.53 55.17Q178.4 56.33 176.51 56.33L176.51 56.33" fill="#FBF7EF"><title>monty</title></path>
<path d="M290.33 44L287.56 44L287.56 32.22L290.18 32.22L290.26 34.97L290.05 34.97Q290.33 33.95 290.87 33.3Q291.42 32.65 292.14 32.33Q292.86 32.01 293.65 32.01L293.65 32.01Q294.95 32.01 295.8 32.81Q296.66 33.6 296.95 35.05L296.95 35.05L296.6 35.05Q296.84 34.06 297.42 33.39Q298 32.71 298.81 32.36Q299.62 32.01 300.56 32.01L300.56 32.01Q301.63 32.01 302.5 32.48Q303.36 32.95 303.86 33.86Q304.36 34.77 304.36 36.1L304.36 36.1L304.36 44L301.6 44L301.6 36.52Q301.6 35.41 300.99 34.89Q300.38 34.36 299.5 34.36L299.5 34.36Q298.83 34.36 298.33 34.65Q297.84 34.94 297.58 35.46Q297.31 35.98 297.31 36.65L297.31 36.65L297.31 44L294.62 44L294.62 36.39Q294.62 35.47 294.04 34.92Q293.47 34.36 292.58 34.36L292.58 34.36Q291.96 34.36 291.45 34.65Q290.94 34.93 290.64 35.48Q290.33 36.03 290.33 36.83L290.33 36.83L290.33 44M312.3 44.25L312.3 44.25Q310.58 44.25 309.3 43.48Q308.01 42.72 307.31 41.35Q306.61 39.97 306.61 38.15L306.61 38.15Q306.61 36.32 307.31 34.94Q308.01 33.56 309.3 32.79Q310.58 32.02 312.3 32.02L312.3 32.02Q314.03 32.02 315.31 32.79Q316.58 33.56 317.29 34.94Q317.99 36.32 317.99 38.15L317.99 38.15Q317.99 39.97 317.29 41.35Q316.58 42.72 315.31 43.48Q314.03 44.25 312.3 44.25M312.3 41.98L312.3 41.98Q313.24 41.98 313.89 41.48Q314.53 40.98 314.86 40.12Q315.19 39.25 315.19 38.15L315.19 38.15Q315.19 37.03 314.86 36.16Q314.53 35.29 313.89 34.79Q313.24 34.29 312.3 34.29L312.3 34.29Q311.36 34.29 310.72 34.79Q310.08 35.29 309.75 36.16Q309.42 37.03 309.42 38.15L309.42 38.15Q309.42 39.25 309.75 40.12Q310.08 40.98 310.71 41.48Q311.35 41.98 312.3 41.98M323.01 37.17L323.01 37.17L323.01 44L320.24 44L320.24 32.22L322.89 32.22L322.92 35.15L322.6 35.15Q323.11 33.61 324.09 32.82Q325.08 32.03 326.55 32.03L326.55 32.03Q327.78 32.03 328.7 32.56Q329.62 33.09 330.13 34.09Q330.64 35.09 330.64 36.54L330.64 36.54L330.64 44L327.88 44L327.88 36.97Q327.88 35.75 327.26 35.08Q326.64 34.41 325.54 34.41L325.54 34.41Q324.81 34.41 324.24 34.72Q323.66 35.04 323.34 35.65Q323.01 36.27 323.01 37.17M332.23 32.22L339.11 32.22L339.11 34.4L332.23 34.4L332.23 32.22M334.02 40.95L334.02 29.27L336.79 29.27L336.79 40.66Q336.79 41.29 337.06 41.58Q337.33 41.86 337.97 41.86L337.97 41.86Q338.19 41.86 338.51 41.83Q338.83 41.8 339.04 41.77L339.04 41.77L339.33 43.94Q338.93 44.03 338.46 44.07Q337.98 44.11 337.53 44.11L337.53 44.11Q335.81 44.11 334.92 43.3Q334.02 42.5 334.02 40.95L334.02 40.95M341.65 48.35L341.65 48.35L342.09 46.17L342.75 46.22Q343.3 46.33 343.71 46.24Q344.13 46.15 344.41 45.82Q344.7 45.49 344.84 44.88L344.84 44.88L345.09 44.01L340.62 32.22L343.56 32.22L345.72 38.53Q346.08 39.62 346.35 40.7Q346.61 41.79 346.9 42.9L346.9 42.9L346.16 42.9Q346.45 41.79 346.74 40.7Q347.03 39.61 347.4 38.53L347.4 38.53L349.61 32.22L352.52 32.22L347.39 45.65Q347.04 46.59 346.51 47.23Q345.98 47.88 345.23 48.21Q344.49 48.54 343.48 48.54L343.48 48.54Q342.95 48.54 342.46 48.49Q341.98 48.44 341.65 48.35M354.97 44.18L354.97 44.18Q354.26 44.18 353.76 43.69Q353.27 43.19 353.27 42.49L353.27 42.49Q353.27 41.78 353.76 41.28Q354.26 40.79 354.97 40.79L354.97 40.79Q355.69 40.79 356.18 41.28Q356.67 41.78 356.67 42.49L356.67 42.49Q356.67 43.19 356.18 43.69Q355.69 44.18 354.97 44.18M358.37 32.22L365.78 32.22L365.78 34.4L358.37 34.4L358.37 32.22M363.28 44L360.52 44L360.52 30.89Q360.52 29.77 360.99 29.01Q361.46 28.26 362.28 27.88Q363.1 27.49 364.16 27.49L364.16 27.49Q364.82 27.49 365.35 27.57Q365.88 27.65 366.12 27.71L366.12 27.71L365.74 29.88Q365.57 29.85 365.28 29.81Q364.99 29.78 364.68 29.78L364.68 29.78Q363.93 29.78 363.6 30.13Q363.28 30.49 363.28 31.18L363.28 31.18L363.28 44M370.81 44.23L370.81 44.23Q369.67 44.23 368.77 43.82Q367.87 43.42 367.34 42.63Q366.82 41.84 366.82 40.68L366.82 40.68Q366.82 39.67 367.19 39.02Q367.57 38.37 368.21 37.98Q368.86 37.59 369.67 37.39Q370.49 37.19 371.36 37.09L371.36 37.09Q372.41 36.97 373.05 36.89Q373.69 36.8 373.99 36.61Q374.28 36.43 374.28 36.03L374.28 36.03L374.28 35.96Q374.28 35.41 374.04 35.01Q373.8 34.61 373.33 34.39Q372.86 34.17 372.19 34.17L372.19 34.17Q371.51 34.17 371 34.39Q370.49 34.6 370.18 34.96Q369.87 35.31 369.75 35.73L369.75 35.73L367.16 35.37Q367.42 34.29 368.12 33.55Q368.81 32.81 369.86 32.42Q370.91 32.03 372.2 32.03L372.2 32.03Q373.13 32.03 374 32.26Q374.87 32.48 375.55 32.96Q376.24 33.44 376.63 34.21Q377.03 34.98 377.03 36.07L377.03 36.07L377.03 44L374.37 44L374.37 42.36L374.27 42.36Q374.01 42.87 373.56 43.3Q373.1 43.72 372.42 43.97Q371.75 44.23 370.81 44.23M371.51 42.17L371.51 42.17Q372.38 42.17 373 41.84Q373.63 41.51 373.96 40.95Q374.29 40.39 374.29 39.72L374.29 39.72L374.29 38.37Q374.16 38.47 373.86 38.56Q373.56 38.65 373.18 38.72Q372.8 38.79 372.41 38.85Q372.01 38.91 371.69 38.95L371.69 38.95Q371.08 39.04 370.58 39.23Q370.08 39.42 369.79 39.77Q369.5 40.11 369.5 40.65L369.5 40.65Q369.5 41.14 369.76 41.48Q370.02 41.82 370.47 42Q370.92 42.17 371.51 42.17M384.31 44.25L384.31 44.25Q382.94 44.25 381.87 43.84Q380.79 43.43 380.11 42.64Q379.44 41.85 379.27 40.72L379.27 40.72L381.9 40.4Q382.09 41.26 382.71 41.71Q383.33 42.15 384.34 42.15L384.34 42.15Q385.36 42.15 385.95 41.74Q386.54 41.34 386.54 40.73L386.54 40.73Q386.54 40.22 386.14 39.89Q385.73 39.55 384.94 39.39L384.94 39.39L382.93 38.96Q381.25 38.6 380.42 37.76Q379.58 36.93 379.58 35.62L379.58 35.62Q379.58 34.54 380.17 33.73Q380.77 32.92 381.84 32.48Q382.91 32.03 384.33 32.03L384.33 32.03Q385.7 32.03 386.7 32.44Q387.7 32.85 388.31 33.6Q388.91 34.34 389.08 35.35L389.08 35.35L386.57 35.67Q386.43 35.01 385.88 34.55Q385.32 34.1 384.38 34.1L384.38 34.1Q383.49 34.1 382.92 34.49Q382.35 34.88 382.35 35.48L382.35 35.48Q382.35 36 382.74 36.34Q383.13 36.67 383.98 36.86L383.98 36.86L386.02 37.29Q387.72 37.64 388.54 38.44Q389.36 39.23 389.36 40.49L389.36 40.49Q389.36 41.62 388.72 42.46Q388.07 43.31 386.94 43.78Q385.8 44.25 384.31 44.25M390.46 32.22L397.34 32.22L397.34 34.4L390.46 34.4L390.46 32.22M392.25 40.95L392.25 29.27L395.02 29.27L395.02 40.66Q395.02 41.29 395.29 41.58Q395.56 41.86 396.21 41.86L396.21 41.86Q396.42 41.86 396.74 41.83Q397.07 41.8 397.27 41.77L397.27 41.77L397.56 43.94Q397.16 44.03 396.69 44.07Q396.22 44.11 395.77 44.11L395.77 44.11Q394.05 44.11 393.15 43.3Q392.25 42.5 392.25 40.95L392.25 40.95" fill="#FBF7EF" opacity="0.6"><title>monty.fast</title></path>
</svg>
