<svg width="1080" height="1920" viewBox="0 0 1080 1920" xmlns="http://www.w3.org/2000/svg" role="img" aria-label="Monty">
<defs>
  <filter id="grain" x="0" y="0" width="100%" height="100%">
    <feTurbulence type="fractalNoise" baseFrequency="0.9" numOctaves="3" seed="7" result="n"/>
    <feColorMatrix in="n" type="saturate" values="0"/>
  </filter>
  <filter id="drop" x="-40%" y="-40%" width="180%" height="200%">
    <feDropShadow dx="0" dy="10" stdDeviation="16" flood-color="#000000" flood-opacity="0.45"/>
  </filter>
  <filter id="dropSoft" x="-40%" y="-40%" width="180%" height="200%">
    <feDropShadow dx="0" dy="6" stdDeviation="9" flood-color="#000000" flood-opacity="0.22"/>
  </filter>
  <linearGradient id="screenGrad" x1="0" y1="0" x2="1" y2="1">
    <stop offset="0" stop-color="#2A1E5C"/><stop offset="0.5" stop-color="#161512"/><stop offset="1" stop-color="#0B0A09"/>
  </linearGradient>
  <linearGradient id="neonGrad" x1="0" y1="0" x2="1" y2="0">
    <stop offset="0" stop-color="#6C4DF6"/><stop offset="1" stop-color="#FFD21E"/>
  </linearGradient>
  <radialGradient id="gBanana">
    <stop offset="0" stop-color="#FFD21E" stop-opacity="0.85"/>
    <stop offset="0.55" stop-color="#FFD21E" stop-opacity="0.22"/>
    <stop offset="1" stop-color="#FFD21E" stop-opacity="0"/>
  </radialGradient>
  <radialGradient id="gViolet">
    <stop offset="0" stop-color="#6C4DF6" stop-opacity="0.85"/>
    <stop offset="0.55" stop-color="#6C4DF6" stop-opacity="0.22"/>
    <stop offset="1" stop-color="#6C4DF6" stop-opacity="0"/>
  </radialGradient></defs>
<rect width="1080" height="1920" fill="#0B0A09"/><circle cx="540" cy="700" r="560" fill="url(#gViolet)" opacity="0.5"/><circle cx="540" cy="1400" r="460" fill="url(#gBanana)" opacity="0.35"/><rect width="1080" height="1920" filter="url(#grain)" opacity="0.055"/>
<g transform="translate(444,700) scale(1.5)">
    <circle cx="30" cy="52" r="19" fill="#FBF7EF"/><circle cx="98" cy="52" r="19" fill="#FBF7EF"/>
    <circle cx="30" cy="52" r="9" fill="#FFD21E"/><circle cx="98" cy="52" r="9" fill="#FFD21E"/>
    <rect x="28" y="26" width="72" height="80" rx="36" fill="#FBF7EF"/>
    <circle cx="64" cy="70" r="30" fill="#161512"/>
    <path d="M57 55 L57 85 L84 70 Z" fill="#FFD21E" stroke="#FFD21E" stroke-width="5" stroke-linejoin="round"/>
  </g>
<path d="M395.07 1030L380.96 1030L380.96 974.45L394.85 974.45L394.85 980.5L396.86 980.5Q398.32 977.7 401.68 975.62Q405.04 973.55 410.53 973.55L410.53 973.55Q416.46 973.55 420.05 975.85Q423.63 978.14 425.54 981.84L425.54 981.84L427.55 981.84Q429.46 978.26 432.93 975.9Q436.4 973.55 442.78 973.55L442.78 973.55Q447.94 973.55 452.14 975.74Q456.34 977.92 458.86 982.34Q461.38 986.77 461.38 993.49L461.38 993.49L461.38 1030L447.26 1030L447.26 994.5Q447.26 989.9 444.91 987.61Q442.56 985.31 438.3 985.31L438.3 985.31Q433.49 985.31 430.86 988.39Q428.22 991.47 428.22 997.18L428.22 997.18L428.22 1030L414.11 1030L414.11 994.5Q414.11 989.9 411.76 987.61Q409.41 985.31 405.15 985.31L405.15 985.31Q400.34 985.31 397.7 988.39Q395.07 991.47 395.07 997.18L395.07 997.18L395.07 1030M498.56 1031.57L498.56 1031.57Q490.27 1031.57 483.66 1028.21Q477.06 1024.85 473.25 1018.46Q469.44 1012.08 469.44 1003.12L469.44 1003.12L469.44 1001.33Q469.44 992.37 473.25 985.98Q477.06 979.6 483.66 976.24Q490.27 972.88 498.56 972.88L498.56 972.88Q506.85 972.88 513.46 976.24Q520.06 979.6 523.87 985.98Q527.68 992.37 527.68 1001.33L527.68 1001.33L527.68 1003.12Q527.68 1012.08 523.87 1018.46Q520.06 1024.85 513.46 1028.21Q506.85 1031.57 498.56 1031.57M498.56 1019.02L498.56 1019.02Q505.06 1019.02 509.31 1014.82Q513.57 1010.62 513.57 1002.78L513.57 1002.78L513.57 1001.66Q513.57 993.82 509.37 989.62Q505.17 985.42 498.56 985.42L498.56 985.42Q492.06 985.42 487.81 989.62Q483.55 993.82 483.55 1001.66L483.55 1001.66L483.55 1002.78Q483.55 1010.62 487.81 1014.82Q492.06 1019.02 498.56 1019.02M550.3 1030L536.19 1030L536.19 974.45L550.08 974.45L550.08 981.73L552.1 981.73Q553.44 978.82 557.14 976.18Q560.83 973.55 568.34 973.55L568.34 973.55Q574.83 973.55 579.7 976.52Q584.58 979.49 587.26 984.7Q589.95 989.9 589.95 996.85L589.95 996.85L589.95 1030L575.84 1030L575.84 997.97Q575.84 991.7 572.76 988.56Q569.68 985.42 563.97 985.42L563.97 985.42Q557.47 985.42 553.89 989.74Q550.3 994.05 550.3 1001.78L550.3 1001.78L550.3 1030M636.1 1030L620.42 1030Q614.93 1030 611.51 1026.58Q608.1 1023.17 608.1 1017.46L608.1 1017.46L608.1 986.1L594.21 986.1L594.21 974.45L608.1 974.45L608.1 957.2L622.21 957.2L622.21 974.45L637.44 974.45L637.44 986.1L622.21 986.1L622.21 1014.99Q622.21 1018.35 625.34 1018.35L625.34 1018.35L636.1 1018.35L636.1 1030M686.72 1052.4L651.78 1052.4L651.78 1040.08L682.02 1040.08Q685.15 1040.08 685.15 1036.72L685.15 1036.72L685.15 1022.72L683.14 1022.72Q682.24 1024.62 680.34 1026.53Q678.43 1028.43 675.18 1029.66Q671.94 1030.9 666.9 1030.9L666.9 1030.9Q660.4 1030.9 655.53 1027.93Q650.66 1024.96 647.97 1019.7Q645.28 1014.43 645.28 1007.6L645.28 1007.6L645.28 974.45L659.39 974.45L659.39 1006.48Q659.39 1012.75 662.47 1015.89Q665.55 1019.02 671.26 1019.02L671.26 1019.02Q677.76 1019.02 681.34 1014.71Q684.93 1010.4 684.93 1002.67L684.93 1002.67L684.93 974.45L699.04 974.45L699.04 1039.86Q699.04 1045.57 695.68 1048.98Q692.32 1052.4 686.72 1052.4L686.72 1052.4" fill="#FBF7EF"><title>monty</title></path>
<path d="M461.91 1090.38L461.91 1090.38Q459.41 1090.38 457.63 1089.26Q455.84 1088.14 454.87 1086.15Q453.9 1084.16 453.9 1081.53L453.9 1081.53Q453.9 1078.91 454.87 1076.89Q455.84 1074.88 457.58 1073.73Q459.32 1072.58 461.63 1072.58L461.63 1072.58Q463.13 1072.58 464.49 1073.09Q465.85 1073.61 466.91 1074.68Q467.98 1075.75 468.59 1077.39Q469.21 1079.03 469.21 1081.3L469.21 1081.3L469.21 1082.31L455.65 1082.31L455.65 1079.97L467.7 1079.97L466.45 1080.83Q466.45 1079.11 465.88 1077.8Q465.32 1076.5 464.25 1075.77Q463.18 1075.05 461.63 1075.05L461.63 1075.05Q460.09 1075.05 458.98 1075.79Q457.87 1076.53 457.27 1077.77Q456.68 1079.02 456.68 1080.52L456.68 1080.52L456.68 1081.95Q456.68 1083.81 457.32 1085.15Q457.96 1086.48 459.14 1087.2Q460.32 1087.91 461.93 1087.91L461.93 1087.91Q463.01 1087.91 463.87 1087.59Q464.73 1087.27 465.33 1086.65Q465.93 1086.03 466.23 1085.14L466.23 1085.14L468.93 1085.64Q468.55 1087.05 467.58 1088.11Q466.6 1089.17 465.16 1089.77Q463.71 1090.38 461.91 1090.38M479.37 1090.36L479.37 1090.36Q477.21 1090.36 475.55 1089.26Q473.9 1088.16 472.98 1086.16Q472.05 1084.16 472.05 1081.45L472.05 1081.45Q472.05 1078.77 472.98 1076.77Q473.91 1074.78 475.57 1073.7Q477.23 1072.61 479.38 1072.61L479.38 1072.61Q480.88 1072.61 481.88 1073.09Q482.87 1073.56 483.49 1074.23Q484.12 1074.91 484.48 1075.53L484.48 1075.53L484.63 1075.53L484.63 1066.72L487.4 1066.72L487.4 1090L484.71 1090L484.71 1087.36L484.49 1087.36Q484.12 1088 483.48 1088.7Q482.84 1089.39 481.84 1089.88Q480.85 1090.36 479.37 1090.36M479.79 1087.88L479.79 1087.88Q481.37 1087.88 482.47 1087.06Q483.57 1086.25 484.15 1084.8Q484.73 1083.34 484.73 1081.44L484.73 1081.44Q484.73 1079.52 484.16 1078.09Q483.59 1076.67 482.48 1075.88Q481.37 1075.08 479.79 1075.08L479.79 1075.08Q478.21 1075.08 477.11 1075.88Q476.01 1076.69 475.44 1078.12Q474.87 1079.55 474.87 1081.44L474.87 1081.44Q474.87 1083.33 475.45 1084.78Q476.02 1086.23 477.13 1087.05Q478.23 1087.88 479.79 1087.88M494.76 1090L491.99 1090L491.99 1072.86L494.76 1072.86L494.76 1090M493.38 1069.88L493.38 1069.88Q492.6 1069.88 492.04 1069.34Q491.48 1068.8 491.48 1068.03L491.48 1068.03Q491.48 1067.27 492.04 1066.73Q492.6 1066.19 493.38 1066.19L493.38 1066.19Q494.18 1066.19 494.74 1066.73Q495.3 1067.27 495.3 1068.03L495.3 1068.03Q495.3 1068.8 494.74 1069.34Q494.18 1069.88 493.38 1069.88M497.45 1072.86L506.45 1072.86L506.45 1075.22L497.45 1075.22L497.45 1072.86M500.18 1085.89L500.18 1068.58L502.95 1068.58L502.95 1085.64Q502.95 1086.75 503.39 1087.23Q503.84 1087.72 504.91 1087.72L504.91 1087.72Q505.21 1087.72 505.63 1087.68Q506.04 1087.64 506.38 1087.59L506.38 1087.59L506.77 1089.94Q506.35 1090.05 505.82 1090.09Q505.29 1090.14 504.79 1090.14L504.79 1090.14Q502.57 1090.14 501.38 1089.04Q500.18 1087.94 500.18 1085.89L500.18 1085.89M516.62 1090.38L516.62 1090.38Q514.12 1090.38 512.33 1089.26Q510.54 1088.14 509.57 1086.15Q508.6 1084.16 508.6 1081.53L508.6 1081.53Q508.6 1078.91 509.57 1076.89Q510.54 1074.88 512.28 1073.73Q514.02 1072.58 516.34 1072.58L516.34 1072.58Q517.84 1072.58 519.2 1073.09Q520.55 1073.61 521.62 1074.68Q522.68 1075.75 523.3 1077.39Q523.91 1079.03 523.91 1081.3L523.91 1081.3L523.91 1082.31L510.35 1082.31L510.35 1079.97L522.4 1079.97L521.15 1080.83Q521.15 1079.11 520.59 1077.8Q520.02 1076.5 518.95 1075.77Q517.88 1075.05 516.34 1075.05L516.34 1075.05Q514.79 1075.05 513.68 1075.79Q512.57 1076.53 511.98 1077.77Q511.38 1079.02 511.38 1080.52L511.38 1080.52L511.38 1081.95Q511.38 1083.81 512.02 1085.15Q512.66 1086.48 513.84 1087.2Q515.02 1087.91 516.63 1087.91L516.63 1087.91Q517.71 1087.91 518.57 1087.59Q519.43 1087.27 520.03 1086.65Q520.63 1086.03 520.93 1085.14L520.93 1085.14L523.63 1085.64Q523.26 1087.05 522.28 1088.11Q521.3 1089.17 519.86 1089.77Q518.41 1090.38 516.62 1090.38M534.07 1090.36L534.07 1090.36Q531.91 1090.36 530.26 1089.26Q528.6 1088.16 527.68 1086.16Q526.76 1084.16 526.76 1081.45L526.76 1081.45Q526.76 1078.77 527.69 1076.77Q528.62 1074.78 530.27 1073.7Q531.93 1072.61 534.09 1072.61L534.09 1072.61Q535.59 1072.61 536.58 1073.09Q537.57 1073.56 538.2 1074.23Q538.82 1074.91 539.18 1075.53L539.18 1075.53L539.34 1075.53L539.34 1066.72L542.1 1066.72L542.1 1090L539.41 1090L539.41 1087.36L539.2 1087.36Q538.82 1088 538.18 1088.7Q537.54 1089.39 536.55 1089.88Q535.55 1090.36 534.07 1090.36M534.49 1087.88L534.49 1087.88Q536.07 1087.88 537.17 1087.06Q538.27 1086.25 538.85 1084.8Q539.43 1083.34 539.43 1081.44L539.43 1081.44Q539.43 1079.52 538.86 1078.09Q538.29 1076.67 537.18 1075.88Q536.07 1075.08 534.49 1075.08L534.49 1075.08Q532.91 1075.08 531.81 1075.88Q530.71 1076.69 530.14 1078.12Q529.57 1079.55 529.57 1081.44L529.57 1081.44Q529.57 1083.33 530.15 1084.78Q530.73 1086.23 531.83 1087.05Q532.93 1087.88 534.49 1087.88M563.4 1090.36L563.4 1090.36Q561.93 1090.36 560.93 1089.88Q559.93 1089.39 559.3 1088.7Q558.66 1088 558.27 1087.36L558.27 1087.36L558.05 1087.36L558.05 1090L555.37 1090L555.37 1066.72L558.13 1066.72L558.13 1075.53L558.29 1075.53Q558.66 1074.91 559.28 1074.23Q559.9 1073.56 560.9 1073.09Q561.9 1072.61 563.38 1072.61L563.38 1072.61Q565.55 1072.61 567.2 1073.7Q568.85 1074.78 569.78 1076.77Q570.71 1078.77 570.71 1081.45L570.71 1081.45Q570.71 1084.16 569.79 1086.16Q568.87 1088.16 567.22 1089.26Q565.57 1090.36 563.4 1090.36M562.98 1087.88L562.98 1087.88Q564.55 1087.88 565.65 1087.05Q566.74 1086.23 567.32 1084.78Q567.9 1083.33 567.9 1081.44L567.9 1081.44Q567.9 1079.55 567.33 1078.12Q566.76 1076.69 565.66 1075.88Q564.55 1075.08 562.98 1075.08L562.98 1075.08Q561.4 1075.08 560.29 1075.88Q559.18 1076.67 558.61 1078.09Q558.04 1079.52 558.04 1081.44L558.04 1081.44Q558.04 1083.34 558.62 1084.8Q559.2 1086.25 560.3 1087.06Q561.41 1087.88 562.98 1087.88M573.7 1096.39L573.7 1096.39L574.18 1093.98L574.91 1094.05Q575.66 1094.19 576.27 1094.05Q576.87 1093.91 577.35 1093.37Q577.84 1092.83 578.2 1091.77L578.2 1091.77L578.84 1090.02L572.26 1072.86L575.27 1072.86L578.93 1082.92Q579.48 1084.41 579.89 1085.87Q580.3 1087.33 580.74 1088.72L580.74 1088.72L579.82 1088.72Q580.24 1087.33 580.66 1085.86Q581.09 1084.39 581.62 1082.92L581.62 1082.92L585.29 1072.86L588.27 1072.86L580.62 1092.77Q580.12 1094.06 579.4 1094.91Q578.68 1095.77 577.73 1096.19Q576.79 1096.61 575.62 1096.61L575.62 1096.61Q574.98 1096.61 574.48 1096.54Q573.98 1096.47 573.7 1096.39M601.4 1090L598.3 1090L606.8 1066.72L610.16 1066.72L618.71 1090L615.62 1090L610.7 1076.11Q610.24 1074.8 609.64 1072.92Q609.04 1071.05 608.15 1068.11L608.15 1068.11L608.8 1068.11Q607.93 1071.08 607.32 1072.97Q606.71 1074.86 606.27 1076.11L606.27 1076.11L601.4 1090M614.4 1083.48L602.62 1083.48L602.62 1080.92L614.4 1080.92L614.4 1083.48M621.99 1066.72L624.91 1066.72L624.91 1090L621.99 1090L621.99 1066.72" fill="#9A958C"><title>edited by AI</title></path>
<g transform="translate(388.82500000000005,1180)"><rect width="302.34999999999997" height="80" rx="40" fill="none" stroke="#FFD21E" stroke-width="2"/><path d="M46.01 39.28L44.87 33.37L51.02 33.37L52.13 40.21L52.13 50.5L46.01 50.5L46.01 39.28M58.04 32.86L58.04 32.86Q60.41 32.86 62.06 33.85Q63.71 34.84 64.58 36.64Q65.45 38.44 65.45 40.9L65.45 40.9L65.45 50.5L59.33 50.5L59.33 41.8Q59.33 39.88 58.46 38.86Q57.59 37.84 55.94 37.84L55.94 37.84Q54.77 37.84 53.92 38.38Q53.06 38.92 52.6 39.91Q52.13 40.9 52.13 42.25L52.13 42.25L50.24 41.26Q50.6 38.53 51.71 36.66Q52.82 34.78 54.46 33.82Q56.09 32.86 58.04 32.86M71.33 32.86L71.33 32.86Q73.7 32.86 75.36 33.85Q77.03 34.84 77.9 36.64Q78.77 38.44 78.77 40.9L78.77 40.9L78.77 50.5L72.65 50.5L72.65 41.8Q72.65 39.88 71.78 38.86Q70.91 37.84 69.26 37.84L69.26 37.84Q68.09 37.84 67.24 38.38Q66.38 38.92 65.91 39.91Q65.45 40.9 65.45 42.25L65.45 42.25L63.56 41.26Q63.92 38.53 65.02 36.66Q66.11 34.78 67.76 33.82Q69.41 32.86 71.33 32.86M91.82 50.98L91.82 50.98Q88.52 50.98 86.06 49.86Q83.6 48.73 82.22 46.68Q80.84 44.62 80.84 41.95L80.84 41.95Q80.84 39.22 82.22 37.18Q83.6 35.14 86.06 34Q88.52 32.86 91.82 32.86L91.82 32.86Q95.09 32.86 97.57 34Q100.04 35.14 101.42 37.18Q102.8 39.22 102.8 41.95L102.8 41.95Q102.8 44.62 101.42 46.68Q100.04 48.73 97.57 49.86Q95.09 50.98 91.82 50.98M91.82 46.45L91.82 46.45Q93.32 46.45 94.39 45.91Q95.45 45.37 96.02 44.35Q96.59 43.33 96.59 41.95L96.59 41.95Q96.59 40.51 96.02 39.51Q95.45 38.5 94.39 37.96Q93.32 37.42 91.82 37.42L91.82 37.42Q90.32 37.42 89.24 37.96Q88.16 38.5 87.59 39.51Q87.02 40.51 87.02 41.92L87.02 41.92Q87.02 43.33 87.59 44.35Q88.16 45.37 89.24 45.91Q90.32 46.45 91.82 46.45M105.41 39.28L104.27 33.37L110.42 33.37L111.53 40.21L111.53 50.5L105.41 50.5L105.41 39.28M117.83 32.86L117.83 32.86Q120.29 32.86 122.03 33.85Q123.77 34.84 124.69 36.64Q125.6 38.44 125.6 40.9L125.6 40.9L125.6 50.5L119.48 50.5L119.48 41.8Q119.48 39.88 118.51 38.86Q117.53 37.84 115.7 37.84L115.7 37.84Q114.44 37.84 113.5 38.38Q112.55 38.92 112.04 39.91Q111.53 40.9 111.53 42.25L111.53 42.25L109.64 41.26Q110 38.53 111.17 36.66Q112.34 34.78 114.05 33.82Q115.76 32.86 117.83 32.86M130.43 37.9L126.95 37.9L126.95 35.23L130.43 33.82L133.07 28.75L136.55 28.75L136.55 33.37L143.75 33.37L143.75 37.9L136.55 37.9L136.55 42.94Q136.55 44.8 137.3 45.55Q138.05 46.3 140.03 46.3L140.03 46.3Q141.29 46.3 142.27 46.08Q143.24 45.85 144.05 45.49L144.05 45.49L144.05 50.11Q143.15 50.44 141.68 50.71Q140.21 50.98 138.65 50.98L138.65 50.98Q135.8 50.98 133.99 50.11Q132.17 49.24 131.3 47.61Q130.43 45.97 130.43 43.78L130.43 43.78L130.43 37.9M151.88 55.93L151.88 55.93Q149.99 55.93 148.52 55.47Q147.05 55 145.67 54.04L145.67 54.04L145.67 49.78Q147.08 50.68 148.31 51.07Q149.54 51.46 151.01 51.46L151.01 51.46Q152.24 51.46 153.2 50.92Q154.16 50.38 154.76 48.94L154.76 48.94L161.33 33.37L167.84 33.37L159.62 50.83Q158.75 52.72 157.51 53.85Q156.26 54.97 154.82 55.45Q153.38 55.93 151.88 55.93M158 48.91L152.09 48.91L144.8 33.37L151.55 33.37L158 48.91M172.07 50.8L172.07 50.8Q171.11 50.8 170.32 50.35Q169.52 49.9 169.07 49.11Q168.62 48.31 168.62 47.35L168.62 47.35Q168.62 46.39 169.07 45.61Q169.52 44.83 170.32 44.37Q171.11 43.9 172.07 43.9L172.07 43.9Q173.06 43.9 173.84 44.37Q174.62 44.83 175.07 45.61Q175.52 46.39 175.52 47.35L175.52 47.35Q175.52 48.31 175.07 49.11Q174.62 49.9 173.84 50.35Q173.06 50.8 172.07 50.8M190.13 31.48L190.13 31.48Q188.12 31.48 187.33 32.19Q186.53 32.89 186.53 34.45L186.53 34.45L186.53 50.5L180.41 50.5L180.41 34.75Q180.41 32.26 181.43 30.51Q182.45 28.75 184.45 27.84Q186.44 26.92 189.38 26.92L189.38 26.92Q190.7 26.92 191.74 27.1Q192.77 27.28 193.94 27.61L193.94 27.61L193.94 32.11Q193.04 31.78 192.09 31.63Q191.15 31.48 190.13 31.48M193.52 39.31L176.93 39.31L176.93 34.78L193.52 34.78L193.52 39.31M217.16 50.5L210.8 50.5L210.02 44.32L210.83 41.95L210.02 39.58L210.8 33.37L217.16 33.37L216.08 41.92L217.16 50.5M212.24 41.95L212.24 41.95Q211.82 44.65 210.58 46.69Q209.33 48.73 207.43 49.86Q205.52 50.98 203.09 50.98L203.09 50.98Q200.57 50.98 198.67 49.86Q196.76 48.73 195.68 46.68Q194.6 44.62 194.6 41.95L194.6 41.95Q194.6 39.22 195.68 37.18Q196.76 35.14 198.67 34Q200.57 32.86 203.09 32.86L203.09 32.86Q205.52 32.86 207.43 33.99Q209.33 35.11 210.59 37.14Q211.85 39.16 212.24 41.95M200.81 41.95L200.81 41.95Q200.81 43.21 201.33 44.2Q201.86 45.19 202.79 45.75Q203.72 46.3 204.92 46.3L204.92 46.3Q206.18 46.3 207.29 45.75Q208.4 45.19 209.24 44.2Q210.08 43.21 210.5 41.95L210.5 41.95Q210.08 40.66 209.24 39.67Q208.4 38.68 207.29 38.11Q206.18 37.54 204.92 37.54L204.92 37.54Q203.72 37.54 202.79 38.11Q201.86 38.68 201.33 39.67Q200.81 40.66 200.81 41.95M239.66 44.92L239.66 44.92Q239.66 46.9 238.46 48.25Q237.26 49.6 235.04 50.29Q232.82 50.98 229.7 50.98L229.7 50.98Q226.49 50.98 224.08 50.2Q221.66 49.42 220.31 48.01Q218.96 46.6 218.87 44.74L218.87 44.74L225.08 44.74Q225.29 45.43 225.9 45.93Q226.52 46.42 227.54 46.68Q228.56 46.93 229.97 46.93L229.97 46.93Q231.8 46.93 232.74 46.57Q233.69 46.21 233.69 45.49L233.69 45.49Q233.69 44.92 232.97 44.64Q232.25 44.35 230.51 44.2L230.51 44.2L227.48 43.96Q224.45 43.75 222.66 43.05Q220.88 42.34 220.1 41.22Q219.32 40.09 219.32 38.65L219.32 38.65Q219.32 36.7 220.53 35.42Q221.75 34.15 223.93 33.5Q226.1 32.86 229.01 32.86L229.01 32.86Q231.89 32.86 234.14 33.61Q236.39 34.36 237.74 35.7Q239.09 37.03 239.3 38.83L239.3 38.83L233.09 38.83Q232.94 38.26 232.43 37.8Q231.92 37.33 231.02 37.03Q230.12 36.73 228.71 36.73L228.71 36.73Q227.06 36.73 226.21 37.09Q225.35 37.45 225.35 38.11L225.35 38.11Q225.35 38.62 225.87 38.92Q226.4 39.22 227.84 39.34L227.84 39.34L231.83 39.64Q234.8 39.82 236.51 40.5Q238.22 41.17 238.94 42.28Q239.66 43.39 239.66 44.92M243.92 37.9L240.44 37.9L240.44 35.23L243.92 33.82L246.56 28.75L250.04 28.75L250.04 33.37L257.24 33.37L257.24 37.9L250.04 37.9L250.04 42.94Q250.04 44.8 250.79 45.55Q251.54 46.3 253.52 46.3L253.52 46.3Q254.78 46.3 255.75 46.08Q256.73 45.85 257.54 45.49L257.54 45.49L257.54 50.11Q256.64 50.44 255.17 50.71Q253.7 50.98 252.14 50.98L252.14 50.98Q249.29 50.98 247.47 50.11Q245.66 49.24 244.79 47.61Q243.92 45.97 243.92 43.78L243.92 43.78L243.92 37.9" fill="#FFD21E"><title>monty.fast</title></path></g>
</svg>
