<svg width="1080" height="1920" viewBox="0 0 1080 1920" xmlns="http://www.w3.org/2000/svg" role="img" aria-label="Monty">
<defs>
  <filter id="grain" x="0" y="0" width="100%" height="100%">
    <feTurbulence type="fractalNoise" baseFrequency="0.9" numOctaves="3" seed="7" result="n"/>
    <feColorMatrix in="n" type="saturate" values="0"/>
  </filter>
  <filter id="drop" x="-40%" y="-40%" width="180%" height="200%">
    <feDropShadow dx="0" dy="10" stdDeviation="16" flood-color="#000000" flood-opacity="0.45"/>
  </filter>
  <filter id="dropSoft" x="-40%" y="-40%" width="180%" height="200%">
    <feDropShadow dx="0" dy="6" stdDeviation="9" flood-color="#000000" flood-opacity="0.22"/>
  </filter>
  <linearGradient id="screenGrad" x1="0" y1="0" x2="1" y2="1">
    <stop offset="0" stop-color="#2A1E5C"/><stop offset="0.5" stop-color="#161512"/><stop offset="1" stop-color="#0B0A09"/>
  </linearGradient>
  <linearGradient id="neonGrad" x1="0" y1="0" x2="1" y2="0">
    <stop offset="0" stop-color="#6C4DF6"/><stop offset="1" stop-color="#FFD21E"/>
  </linearGradient>
  <radialGradient id="gBanana">
    <stop offset="0" stop-color="#FFD21E" stop-opacity="0.85"/>
    <stop offset="0.55" stop-color="#FFD21E" stop-opacity="0.22"/>
    <stop offset="1" stop-color="#FFD21E" stop-opacity="0"/>
  </radialGradient>
  <radialGradient id="gViolet">
    <stop offset="0" stop-color="#6C4DF6" stop-opacity="0.85"/>
    <stop offset="0.55" stop-color="#6C4DF6" stop-opacity="0.22"/>
    <stop offset="1" stop-color="#6C4DF6" stop-opacity="0"/>
  </radialGradient></defs>
<rect width="1080" height="1920" fill="#0B0A09"/><circle cx="540" cy="700" r="560" fill="url(#gViolet)" opacity="0.5"/><circle cx="540" cy="1400" r="460" fill="url(#gBanana)" opacity="0.35"/><rect width="1080" height="1920" filter="url(#grain)" opacity="0.055"/>
<g transform="translate(444,700) scale(1.5)">
    <circle cx="30" cy="52" r="19" fill="#FBF7EF"/><circle cx="98" cy="52" r="19" fill="#FBF7EF"/>
    <circle cx="30" cy="52" r="9" fill="#FFD21E"/><circle cx="98" cy="52" r="9" fill="#FFD21E"/>
    <rect x="28" y="26" width="72" height="80" rx="36" fill="#FBF7EF"/>
    <circle cx="64" cy="70" r="30" fill="#161512"/>
    <path d="M57 55 L57 85 L84 70 Z" fill="#FFD21E" stroke="#FFD21E" stroke-width="5" stroke-linejoin="round"/>
  </g>
<path d="M395.07 1030L380.96 1030L380.96 974.45L394.85 974.45L394.85 980.5L396.86 980.5Q398.32 977.7 401.68 975.62Q405.04 973.55 410.53 973.55L410.53 973.55Q416.46 973.55 420.05 975.85Q423.63 978.14 425.54 981.84L425.54 981.84L427.55 981.84Q429.46 978.26 432.93 975.9Q436.4 973.55 442.78 973.55L442.78 973.55Q447.94 973.55 452.14 975.74Q456.34 977.92 458.86 982.34Q461.38 986.77 461.38 993.49L461.38 993.49L461.38 1030L447.26 1030L447.26 994.5Q447.26 989.9 444.91 987.61Q442.56 985.31 438.3 985.31L438.3 985.31Q433.49 985.31 430.86 988.39Q428.22 991.47 428.22 997.18L428.22 997.18L428.22 1030L414.11 1030L414.11 994.5Q414.11 989.9 411.76 987.61Q409.41 985.31 405.15 985.31L405.15 985.31Q400.34 985.31 397.7 988.39Q395.07 991.47 395.07 997.18L395.07 997.18L395.07 1030M498.56 1031.57L498.56 1031.57Q490.27 1031.57 483.66 1028.21Q477.06 1024.85 473.25 1018.46Q469.44 1012.08 469.44 1003.12L469.44 1003.12L469.44 1001.33Q469.44 992.37 473.25 985.98Q477.06 979.6 483.66 976.24Q490.27 972.88 498.56 972.88L498.56 972.88Q506.85 972.88 513.46 976.24Q520.06 979.6 523.87 985.98Q527.68 992.37 527.68 1001.33L527.68 1001.33L527.68 1003.12Q527.68 1012.08 523.87 1018.46Q520.06 1024.85 513.46 1028.21Q506.85 1031.57 498.56 1031.57M498.56 1019.02L498.56 1019.02Q505.06 1019.02 509.31 1014.82Q513.57 1010.62 513.57 1002.78L513.57 1002.78L513.57 1001.66Q513.57 993.82 509.37 989.62Q505.17 985.42 498.56 985.42L498.56 985.42Q492.06 985.42 487.81 989.62Q483.55 993.82 483.55 1001.66L483.55 1001.66L483.55 1002.78Q483.55 1010.62 487.81 1014.82Q492.06 1019.02 498.56 1019.02M550.3 1030L536.19 1030L536.19 974.45L550.08 974.45L550.08 981.73L552.1 981.73Q553.44 978.82 557.14 976.18Q560.83 973.55 568.34 973.55L568.34 973.55Q574.83 973.55 579.7 976.52Q584.58 979.49 587.26 984.7Q589.95 989.9 589.95 996.85L589.95 996.85L589.95 1030L575.84 1030L575.84 997.97Q575.84 991.7 572.76 988.56Q569.68 985.42 563.97 985.42L563.97 985.42Q557.47 985.42 553.89 989.74Q550.3 994.05 550.3 1001.78L550.3 1001.78L550.3 1030M636.1 1030L620.42 1030Q614.93 1030 611.51 1026.58Q608.1 1023.17 608.1 1017.46L608.1 1017.46L608.1 986.1L594.21 986.1L594.21 974.45L608.1 974.45L608.1 957.2L622.21 957.2L622.21 974.45L637.44 974.45L637.44 986.1L622.21 986.1L622.21 1014.99Q622.21 1018.35 625.34 1018.35L625.34 1018.35L636.1 1018.35L636.1 1030M686.72 1052.4L651.78 1052.4L651.78 1040.08L682.02 1040.08Q685.15 1040.08 685.15 1036.72L685.15 1036.72L685.15 1022.72L683.14 1022.72Q682.24 1024.62 680.34 1026.53Q678.43 1028.43 675.18 1029.66Q671.94 1030.9 666.9 1030.9L666.9 1030.9Q660.4 1030.9 655.53 1027.93Q650.66 1024.96 647.97 1019.7Q645.28 1014.43 645.28 1007.6L645.28 1007.6L645.28 974.45L659.39 974.45L659.39 1006.48Q659.39 1012.75 662.47 1015.89Q665.55 1019.02 671.26 1019.02L671.26 1019.02Q677.76 1019.02 681.34 1014.71Q684.93 1010.4 684.93 1002.67L684.93 1002.67L684.93 974.45L699.04 974.45L699.04 1039.86Q699.04 1045.57 695.68 1048.98Q692.32 1052.4 686.72 1052.4L686.72 1052.4" fill="#FBF7EF"><title>monty</title></path>
<path d="M412.09 1096.53L409.32 1096.53L409.32 1072.86L412.01 1072.86L412.01 1075.53L412.23 1075.53Q412.6 1074.91 413.23 1074.23Q413.85 1073.56 414.85 1073.09Q415.85 1072.61 417.34 1072.61L417.34 1072.61Q419.51 1072.61 421.16 1073.7Q422.8 1074.78 423.73 1076.77Q424.66 1078.77 424.66 1081.45L424.66 1081.45Q424.66 1084.16 423.74 1086.16Q422.82 1088.16 421.17 1089.26Q419.52 1090.36 417.35 1090.36L417.35 1090.36Q415.88 1090.36 414.89 1089.88Q413.9 1089.39 413.27 1088.7Q412.63 1088 412.24 1087.36L412.24 1087.36L412.09 1087.36L412.09 1096.53M416.93 1087.88L416.93 1087.88Q418.51 1087.88 419.6 1087.05Q420.7 1086.23 421.27 1084.78Q421.85 1083.33 421.85 1081.44L421.85 1081.44Q421.85 1079.55 421.28 1078.12Q420.71 1076.69 419.61 1075.88Q418.51 1075.08 416.93 1075.08L416.93 1075.08Q415.35 1075.08 414.24 1075.88Q413.13 1076.67 412.56 1078.09Q411.99 1079.52 411.99 1081.44L411.99 1081.44Q411.99 1083.34 412.57 1084.8Q413.15 1086.25 414.26 1087.06Q415.37 1087.88 416.93 1087.88M435.43 1090.38L435.43 1090.38Q433.09 1090.38 431.32 1089.26Q429.55 1088.14 428.56 1086.14Q427.57 1084.14 427.57 1081.52L427.57 1081.52Q427.57 1078.84 428.56 1076.84Q429.55 1074.83 431.32 1073.7Q433.09 1072.58 435.43 1072.58L435.43 1072.58Q437.79 1072.58 439.56 1073.7Q441.34 1074.83 442.32 1076.84Q443.3 1078.84 443.3 1081.52L443.3 1081.52Q443.3 1084.14 442.32 1086.14Q441.34 1088.14 439.56 1089.26Q437.79 1090.38 435.43 1090.38M435.43 1087.89L435.43 1087.89Q437.13 1087.89 438.26 1087.03Q439.38 1086.17 439.95 1084.73Q440.51 1083.28 440.51 1081.52L440.51 1081.52Q440.51 1079.72 439.95 1078.26Q439.38 1076.8 438.26 1075.93Q437.13 1075.06 435.43 1075.06L435.43 1075.06Q433.74 1075.06 432.63 1075.93Q431.51 1076.8 430.95 1078.26Q430.38 1079.72 430.38 1081.52L430.38 1081.52Q430.38 1083.28 430.95 1084.73Q431.51 1086.17 432.63 1087.03Q433.74 1087.89 435.43 1087.89M445.98 1090L445.04 1090L445.04 1087.44L445.66 1087.44Q446.45 1087.44 446.96 1087.16Q447.48 1086.88 447.8 1086.13Q448.13 1085.39 448.31 1084.02Q448.49 1082.66 448.59 1080.45L448.59 1080.45L448.9 1072.86L460.63 1072.86L460.63 1090L457.85 1090L457.85 1075.42L451.52 1075.42L451.26 1081.44Q451.12 1084.31 450.62 1086.22Q450.12 1088.13 449.02 1089.06Q447.91 1090 445.98 1090L445.98 1090M479.16 1072.86L479.16 1090L476.38 1090L476.38 1077.5L476.24 1077.5L467.9 1090L465.23 1090L465.23 1072.86L467.99 1072.86L467.99 1085.39L468.15 1085.39L476.51 1072.86L479.16 1072.86M486.52 1090L483.76 1090L483.76 1072.86L486.52 1072.86L486.52 1080.27L488.29 1080.27L494.54 1072.86L498.04 1072.86L491.05 1081.14L498.13 1090L494.63 1090L488.96 1082.83L486.52 1082.83L486.52 1090M516.4 1090.38L516.4 1090.38Q514.05 1090.38 512.29 1089.26Q510.52 1088.14 509.53 1086.14Q508.54 1084.14 508.54 1081.52L508.54 1081.52Q508.54 1078.84 509.53 1076.84Q510.52 1074.83 512.29 1073.7Q514.05 1072.58 516.4 1072.58L516.4 1072.58Q517.71 1072.58 518.86 1072.95Q520.01 1073.31 520.93 1073.98Q521.85 1074.64 522.49 1075.59Q523.13 1076.55 523.43 1077.72L523.43 1077.72L520.74 1078.23Q520.57 1077.53 520.2 1076.95Q519.82 1076.38 519.27 1075.95Q518.71 1075.53 517.99 1075.3Q517.27 1075.06 516.4 1075.06L516.4 1075.06Q514.71 1075.06 513.59 1075.93Q512.48 1076.8 511.91 1078.26Q511.35 1079.72 511.35 1081.52L511.35 1081.52Q511.35 1083.28 511.91 1084.73Q512.48 1086.17 513.59 1087.03Q514.71 1087.89 516.4 1087.89L516.4 1087.89Q517.29 1087.89 518.02 1087.66Q518.74 1087.42 519.29 1086.99Q519.84 1086.56 520.21 1085.96Q520.59 1085.36 520.77 1084.64L520.77 1084.64L523.48 1085.14Q523.2 1086.33 522.55 1087.29Q521.9 1088.25 520.97 1088.95Q520.04 1089.64 518.88 1090.01Q517.71 1090.38 516.4 1090.38M534.16 1090.38L534.16 1090.38Q531.82 1090.38 530.05 1089.26Q528.29 1088.14 527.3 1086.14Q526.3 1084.14 526.3 1081.52L526.3 1081.52Q526.3 1078.84 527.3 1076.84Q528.29 1074.83 530.05 1073.7Q531.82 1072.58 534.16 1072.58L534.16 1072.58Q536.52 1072.58 538.3 1073.7Q540.07 1074.83 541.05 1076.84Q542.04 1078.84 542.04 1081.52L542.04 1081.52Q542.04 1084.14 541.05 1086.14Q540.07 1088.14 538.3 1089.26Q536.52 1090.38 534.16 1090.38M534.16 1087.89L534.16 1087.89Q535.87 1087.89 536.99 1087.03Q538.12 1086.17 538.68 1084.73Q539.24 1083.28 539.24 1081.52L539.24 1081.52Q539.24 1079.72 538.68 1078.26Q538.12 1076.8 536.99 1075.93Q535.87 1075.06 534.16 1075.06L534.16 1075.06Q532.48 1075.06 531.36 1075.93Q530.24 1076.8 529.68 1078.26Q529.12 1079.72 529.12 1081.52L529.12 1081.52Q529.12 1083.28 529.68 1084.73Q530.24 1086.17 531.36 1087.03Q532.48 1087.89 534.16 1087.89M552.82 1090.38L552.82 1090.38Q550.57 1090.38 548.8 1089.3Q547.02 1088.23 545.98 1086.25Q544.95 1084.27 544.95 1081.53L544.95 1081.53L544.95 1080.94Q544.95 1078.23 545.27 1076.23Q545.59 1074.22 546.27 1072.8Q546.95 1071.39 548.05 1070.49Q549.15 1069.59 550.71 1069.13Q552.27 1068.66 554.35 1068.53L554.35 1068.53Q555.37 1068.45 555.91 1068.25Q556.45 1068.05 556.64 1067.67Q556.84 1067.3 556.84 1066.72L556.84 1066.72L559.34 1066.72Q559.34 1068.02 558.86 1068.9Q558.38 1069.78 557.29 1070.27Q556.2 1070.75 554.35 1070.89L554.35 1070.89Q551.99 1071.06 550.54 1071.66Q549.09 1072.25 548.33 1073.66Q547.57 1075.06 547.29 1077.64L547.29 1077.64L547.35 1077.64Q547.84 1076.48 548.77 1075.53Q549.71 1074.58 550.97 1074Q552.23 1073.42 553.68 1073.42L553.68 1073.42Q555.65 1073.42 557.2 1074.52Q558.74 1075.61 559.64 1077.48Q560.54 1079.36 560.54 1081.73L560.54 1081.73Q560.54 1084.2 559.55 1086.16Q558.55 1088.11 556.81 1089.24Q555.07 1090.38 552.82 1090.38M552.85 1087.92L552.85 1087.92Q554.4 1087.92 555.49 1087.19Q556.59 1086.45 557.17 1085.09Q557.76 1083.73 557.76 1081.88L557.76 1081.88Q557.76 1080.02 557.2 1078.67Q556.63 1077.33 555.55 1076.6Q554.48 1075.88 552.95 1075.88L552.95 1075.88Q551.4 1075.88 550.22 1076.64Q549.04 1077.41 548.38 1078.78Q547.73 1080.16 547.73 1081.97L547.73 1081.97Q547.73 1083.7 548.34 1085.05Q548.96 1086.39 550.12 1087.16Q551.27 1087.92 552.85 1087.92M567.05 1096.53L564.29 1096.53L564.29 1072.86L566.98 1072.86L566.98 1075.53L567.2 1075.53Q567.57 1074.91 568.2 1074.23Q568.82 1073.56 569.82 1073.09Q570.82 1072.61 572.3 1072.61L572.3 1072.61Q574.48 1072.61 576.13 1073.7Q577.77 1074.78 578.7 1076.77Q579.63 1078.77 579.63 1081.45L579.63 1081.45Q579.63 1084.16 578.71 1086.16Q577.79 1088.16 576.14 1089.26Q574.49 1090.36 572.32 1090.36L572.32 1090.36Q570.85 1090.36 569.86 1089.88Q568.87 1089.39 568.23 1088.7Q567.6 1088 567.21 1087.36L567.21 1087.36L567.05 1087.36L567.05 1096.53M571.9 1087.88L571.9 1087.88Q573.48 1087.88 574.57 1087.05Q575.66 1086.23 576.24 1084.78Q576.82 1083.33 576.82 1081.44L576.82 1081.44Q576.82 1079.55 576.25 1078.12Q575.68 1076.69 574.58 1075.88Q573.48 1075.08 571.9 1075.08L571.9 1075.08Q570.32 1075.08 569.21 1075.88Q568.1 1076.67 567.53 1078.09Q566.96 1079.52 566.96 1081.44L566.96 1081.44Q566.96 1083.34 567.54 1084.8Q568.12 1086.25 569.23 1087.06Q570.34 1087.88 571.9 1087.88M588.59 1090.36L588.59 1090.36Q586.95 1090.36 585.61 1089.75Q584.27 1089.14 583.49 1087.97Q582.71 1086.8 582.71 1085.11L582.71 1085.11Q582.71 1083.63 583.29 1082.7Q583.87 1081.78 584.84 1081.26Q585.8 1080.73 587 1080.47Q588.2 1080.2 589.43 1080.05L589.43 1080.05Q590.99 1079.83 591.95 1079.72Q592.91 1079.61 593.36 1079.35Q593.8 1079.09 593.8 1078.45L593.8 1078.45L593.8 1078.34Q593.8 1077.31 593.39 1076.58Q592.98 1075.84 592.16 1075.44Q591.34 1075.03 590.15 1075.03L590.15 1075.03Q588.93 1075.03 588.04 1075.42Q587.15 1075.81 586.61 1076.42Q586.07 1077.03 585.85 1077.7L585.85 1077.7L583.15 1077.11Q583.63 1075.55 584.68 1074.55Q585.73 1073.56 587.13 1073.09Q588.54 1072.61 590.09 1072.61L590.09 1072.61Q591.15 1072.61 592.28 1072.88Q593.41 1073.14 594.38 1073.8Q595.35 1074.45 595.95 1075.61Q596.55 1076.77 596.55 1078.53L596.55 1078.53L596.55 1090L593.84 1090L593.84 1087.64L593.68 1087.64Q593.38 1088.23 592.76 1088.87Q592.13 1089.5 591.11 1089.93Q590.09 1090.36 588.59 1090.36M589.04 1087.91L589.04 1087.91Q590.62 1087.91 591.68 1087.3Q592.74 1086.7 593.27 1085.74Q593.8 1084.78 593.8 1083.7L593.8 1083.7L593.8 1081.41Q593.63 1081.59 593.11 1081.74Q592.59 1081.89 591.89 1082.02Q591.2 1082.14 590.5 1082.23Q589.8 1082.33 589.3 1082.39L589.3 1082.39Q588.3 1082.52 587.43 1082.82Q586.55 1083.13 586.02 1083.7Q585.49 1084.27 585.49 1085.25L585.49 1085.25Q585.49 1086.11 585.95 1086.7Q586.4 1087.3 587.2 1087.6Q587.99 1087.91 589.04 1087.91M600.07 1090L599.13 1090L599.13 1087.44L599.76 1087.44Q600.54 1087.44 601.05 1087.16Q601.57 1086.88 601.9 1086.13Q602.23 1085.39 602.41 1084.02Q602.59 1082.66 602.68 1080.45L602.68 1080.45L602.99 1072.86L614.73 1072.86L614.73 1090L611.95 1090L611.95 1075.42L605.62 1075.42L605.35 1081.44Q605.21 1084.31 604.71 1086.22Q604.21 1088.13 603.11 1089.06Q602.01 1090 600.07 1090L600.07 1090M646.7 1066.72L646.7 1090L643.77 1090L643.77 1076.64Q643.77 1076.03 643.8 1074.96Q643.84 1073.89 643.9 1072.44Q643.96 1070.98 644.02 1069.22L644.02 1069.22L644.49 1069.47Q643.45 1071.3 642.69 1072.62Q641.93 1073.94 641.34 1074.91Q640.76 1075.88 640.26 1076.67L640.26 1076.67L631.79 1090L628.34 1090L628.34 1066.72L631.26 1066.72L631.26 1081.25Q631.26 1081.89 631.24 1082.91Q631.23 1083.94 631.17 1085.13Q631.12 1086.31 631.01 1087.48L631.01 1087.48L630.65 1087.3Q631.23 1086.13 631.81 1085.05Q632.4 1083.98 632.91 1083.12Q633.43 1082.25 633.77 1081.7L633.77 1081.7L643.29 1066.72L646.7 1066.72M670.34 1066.72L670.34 1090L667.41 1090L667.41 1076.64Q667.41 1076.03 667.45 1074.96Q667.48 1073.89 667.54 1072.44Q667.6 1070.98 667.66 1069.22L667.66 1069.22L668.13 1069.47Q667.09 1071.3 666.33 1072.62Q665.57 1073.94 664.98 1074.91Q664.4 1075.88 663.9 1076.67L663.9 1076.67L655.43 1090L651.98 1090L651.98 1066.72L654.9 1066.72L654.9 1081.25Q654.9 1081.89 654.88 1082.91Q654.87 1083.94 654.81 1085.13Q654.76 1086.31 654.65 1087.48L654.65 1087.48L654.29 1087.3Q654.87 1086.13 655.45 1085.05Q656.04 1083.98 656.55 1083.12Q657.07 1082.25 657.41 1081.7L657.41 1081.7L666.93 1066.72L670.34 1066.72" fill="#9A958C"><title>ролик собрал ИИ</title></path>
<g transform="translate(388.82500000000005,1180)"><rect width="302.34999999999997" height="80" rx="40" fill="none" stroke="#FFD21E" stroke-width="2"/><path d="M46.01 39.28L44.87 33.37L51.02 33.37L52.13 40.21L52.13 50.5L46.01 50.5L46.01 39.28M58.04 32.86L58.04 32.86Q60.41 32.86 62.06 33.85Q63.71 34.84 64.58 36.64Q65.45 38.44 65.45 40.9L65.45 40.9L65.45 50.5L59.33 50.5L59.33 41.8Q59.33 39.88 58.46 38.86Q57.59 37.84 55.94 37.84L55.94 37.84Q54.77 37.84 53.92 38.38Q53.06 38.92 52.6 39.91Q52.13 40.9 52.13 42.25L52.13 42.25L50.24 41.26Q50.6 38.53 51.71 36.66Q52.82 34.78 54.46 33.82Q56.09 32.86 58.04 32.86M71.33 32.86L71.33 32.86Q73.7 32.86 75.36 33.85Q77.03 34.84 77.9 36.64Q78.77 38.44 78.77 40.9L78.77 40.9L78.77 50.5L72.65 50.5L72.65 41.8Q72.65 39.88 71.78 38.86Q70.91 37.84 69.26 37.84L69.26 37.84Q68.09 37.84 67.24 38.38Q66.38 38.92 65.91 39.91Q65.45 40.9 65.45 42.25L65.45 42.25L63.56 41.26Q63.92 38.53 65.02 36.66Q66.11 34.78 67.76 33.82Q69.41 32.86 71.33 32.86M91.82 50.98L91.82 50.98Q88.52 50.98 86.06 49.86Q83.6 48.73 82.22 46.68Q80.84 44.62 80.84 41.95L80.84 41.95Q80.84 39.22 82.22 37.18Q83.6 35.14 86.06 34Q88.52 32.86 91.82 32.86L91.82 32.86Q95.09 32.86 97.57 34Q100.04 35.14 101.42 37.18Q102.8 39.22 102.8 41.95L102.8 41.95Q102.8 44.62 101.42 46.68Q100.04 48.73 97.57 49.86Q95.09 50.98 91.82 50.98M91.82 46.45L91.82 46.45Q93.32 46.45 94.39 45.91Q95.45 45.37 96.02 44.35Q96.59 43.33 96.59 41.95L96.59 41.95Q96.59 40.51 96.02 39.51Q95.45 38.5 94.39 37.96Q93.32 37.42 91.82 37.42L91.82 37.42Q90.32 37.42 89.24 37.96Q88.16 38.5 87.59 39.51Q87.02 40.51 87.02 41.92L87.02 41.92Q87.02 43.33 87.59 44.35Q88.16 45.37 89.24 45.91Q90.32 46.45 91.82 46.45M105.41 39.28L104.27 33.37L110.42 33.37L111.53 40.21L111.53 50.5L105.41 50.5L105.41 39.28M117.83 32.86L117.83 32.86Q120.29 32.86 122.03 33.85Q123.77 34.84 124.69 36.64Q125.6 38.44 125.6 40.9L125.6 40.9L125.6 50.5L119.48 50.5L119.48 41.8Q119.48 39.88 118.51 38.86Q117.53 37.84 115.7 37.84L115.7 37.84Q114.44 37.84 113.5 38.38Q112.55 38.92 112.04 39.91Q111.53 40.9 111.53 42.25L111.53 42.25L109.64 41.26Q110 38.53 111.17 36.66Q112.34 34.78 114.05 33.82Q115.76 32.86 117.83 32.86M130.43 37.9L126.95 37.9L126.95 35.23L130.43 33.82L133.07 28.75L136.55 28.75L136.55 33.37L143.75 33.37L143.75 37.9L136.55 37.9L136.55 42.94Q136.55 44.8 137.3 45.55Q138.05 46.3 140.03 46.3L140.03 46.3Q141.29 46.3 142.27 46.08Q143.24 45.85 144.05 45.49L144.05 45.49L144.05 50.11Q143.15 50.44 141.68 50.71Q140.21 50.98 138.65 50.98L138.65 50.98Q135.8 50.98 133.99 50.11Q132.17 49.24 131.3 47.61Q130.43 45.97 130.43 43.78L130.43 43.78L130.43 37.9M151.88 55.93L151.88 55.93Q149.99 55.93 148.52 55.47Q147.05 55 145.67 54.04L145.67 54.04L145.67 49.78Q147.08 50.68 148.31 51.07Q149.54 51.46 151.01 51.46L151.01 51.46Q152.24 51.46 153.2 50.92Q154.16 50.38 154.76 48.94L154.76 48.94L161.33 33.37L167.84 33.37L159.62 50.83Q158.75 52.72 157.51 53.85Q156.26 54.97 154.82 55.45Q153.38 55.93 151.88 55.93M158 48.91L152.09 48.91L144.8 33.37L151.55 33.37L158 48.91M172.07 50.8L172.07 50.8Q171.11 50.8 170.32 50.35Q169.52 49.9 169.07 49.11Q168.62 48.31 168.62 47.35L168.62 47.35Q168.62 46.39 169.07 45.61Q169.52 44.83 170.32 44.37Q171.11 43.9 172.07 43.9L172.07 43.9Q173.06 43.9 173.84 44.37Q174.62 44.83 175.07 45.61Q175.52 46.39 175.52 47.35L175.52 47.35Q175.52 48.31 175.07 49.11Q174.62 49.9 173.84 50.35Q173.06 50.8 172.07 50.8M190.13 31.48L190.13 31.48Q188.12 31.48 187.33 32.19Q186.53 32.89 186.53 34.45L186.53 34.45L186.53 50.5L180.41 50.5L180.41 34.75Q180.41 32.26 181.43 30.51Q182.45 28.75 184.45 27.84Q186.44 26.92 189.38 26.92L189.38 26.92Q190.7 26.92 191.74 27.1Q192.77 27.28 193.94 27.61L193.94 27.61L193.94 32.11Q193.04 31.78 192.09 31.63Q191.15 31.48 190.13 31.48M193.52 39.31L176.93 39.31L176.93 34.78L193.52 34.78L193.52 39.31M217.16 50.5L210.8 50.5L210.02 44.32L210.83 41.95L210.02 39.58L210.8 33.37L217.16 33.37L216.08 41.92L217.16 50.5M212.24 41.95L212.24 41.95Q211.82 44.65 210.58 46.69Q209.33 48.73 207.43 49.86Q205.52 50.98 203.09 50.98L203.09 50.98Q200.57 50.98 198.67 49.86Q196.76 48.73 195.68 46.68Q194.6 44.62 194.6 41.95L194.6 41.95Q194.6 39.22 195.68 37.18Q196.76 35.14 198.67 34Q200.57 32.86 203.09 32.86L203.09 32.86Q205.52 32.86 207.43 33.99Q209.33 35.11 210.59 37.14Q211.85 39.16 212.24 41.95M200.81 41.95L200.81 41.95Q200.81 43.21 201.33 44.2Q201.86 45.19 202.79 45.75Q203.72 46.3 204.92 46.3L204.92 46.3Q206.18 46.3 207.29 45.75Q208.4 45.19 209.24 44.2Q210.08 43.21 210.5 41.95L210.5 41.95Q210.08 40.66 209.24 39.67Q208.4 38.68 207.29 38.11Q206.18 37.54 204.92 37.54L204.92 37.54Q203.72 37.54 202.79 38.11Q201.86 38.68 201.33 39.67Q200.81 40.66 200.81 41.95M239.66 44.92L239.66 44.92Q239.66 46.9 238.46 48.25Q237.26 49.6 235.04 50.29Q232.82 50.98 229.7 50.98L229.7 50.98Q226.49 50.98 224.08 50.2Q221.66 49.42 220.31 48.01Q218.96 46.6 218.87 44.74L218.87 44.74L225.08 44.74Q225.29 45.43 225.9 45.93Q226.52 46.42 227.54 46.68Q228.56 46.93 229.97 46.93L229.97 46.93Q231.8 46.93 232.74 46.57Q233.69 46.21 233.69 45.49L233.69 45.49Q233.69 44.92 232.97 44.64Q232.25 44.35 230.51 44.2L230.51 44.2L227.48 43.96Q224.45 43.75 222.66 43.05Q220.88 42.34 220.1 41.22Q219.32 40.09 219.32 38.65L219.32 38.65Q219.32 36.7 220.53 35.42Q221.75 34.15 223.93 33.5Q226.1 32.86 229.01 32.86L229.01 32.86Q231.89 32.86 234.14 33.61Q236.39 34.36 237.74 35.7Q239.09 37.03 239.3 38.83L239.3 38.83L233.09 38.83Q232.94 38.26 232.43 37.8Q231.92 37.33 231.02 37.03Q230.12 36.73 228.71 36.73L228.71 36.73Q227.06 36.73 226.21 37.09Q225.35 37.45 225.35 38.11L225.35 38.11Q225.35 38.62 225.87 38.92Q226.4 39.22 227.84 39.34L227.84 39.34L231.83 39.64Q234.8 39.82 236.51 40.5Q238.22 41.17 238.94 42.28Q239.66 43.39 239.66 44.92M243.92 37.9L240.44 37.9L240.44 35.23L243.92 33.82L246.56 28.75L250.04 28.75L250.04 33.37L257.24 33.37L257.24 37.9L250.04 37.9L250.04 42.94Q250.04 44.8 250.79 45.55Q251.54 46.3 253.52 46.3L253.52 46.3Q254.78 46.3 255.75 46.08Q256.73 45.85 257.54 45.49L257.54 45.49L257.54 50.11Q256.64 50.44 255.17 50.71Q253.7 50.98 252.14 50.98L252.14 50.98Q249.29 50.98 247.47 50.11Q245.66 49.24 244.79 47.61Q243.92 45.97 243.92 43.78L243.92 43.78L243.92 37.9" fill="#FFD21E"><title>monty.fast</title></path></g>
</svg>
