<svg width="1080" height="1920" viewBox="0 0 1080 1920" xmlns="http://www.w3.org/2000/svg" role="img" aria-label="Monty">
<defs>
  <filter id="grain" x="0" y="0" width="100%" height="100%">
    <feTurbulence type="fractalNoise" baseFrequency="0.9" numOctaves="3" seed="7" result="n"/>
    <feColorMatrix in="n" type="saturate" values="0"/>
  </filter>
  <filter id="drop" x="-40%" y="-40%" width="180%" height="200%">
    <feDropShadow dx="0" dy="10" stdDeviation="16" flood-color="#000000" flood-opacity="0.45"/>
  </filter>
  <filter id="dropSoft" x="-40%" y="-40%" width="180%" height="200%">
    <feDropShadow dx="0" dy="6" stdDeviation="9" flood-color="#000000" flood-opacity="0.22"/>
  </filter>
  <linearGradient id="screenGrad" x1="0" y1="0" x2="1" y2="1">
    <stop offset="0" stop-color="#2A1E5C"/><stop offset="0.5" stop-color="#161512"/><stop offset="1" stop-color="#0B0A09"/>
  </linearGradient>
  <linearGradient id="neonGrad" x1="0" y1="0" x2="1" y2="0">
    <stop offset="0" stop-color="#6C4DF6"/><stop offset="1" stop-color="#FFD21E"/>
  </linearGradient>
  <radialGradient id="gBanana">
    <stop offset="0" stop-color="#FFD21E" stop-opacity="0.85"/>
    <stop offset="0.55" stop-color="#FFD21E" stop-opacity="0.22"/>
    <stop offset="1" stop-color="#FFD21E" stop-opacity="0"/>
  </radialGradient>
  <radialGradient id="gViolet">
    <stop offset="0" stop-color="#6C4DF6" stop-opacity="0.85"/>
    <stop offset="0.55" stop-color="#6C4DF6" stop-opacity="0.22"/>
    <stop offset="1" stop-color="#6C4DF6" stop-opacity="0"/>
  </radialGradient></defs>
<rect width="1080" height="1920" fill="#0B0A09"/><circle cx="540" cy="700" r="560" fill="url(#gViolet)" opacity="0.5"/><circle cx="540" cy="1400" r="460" fill="url(#gBanana)" opacity="0.35"/><rect width="1080" height="1920" filter="url(#grain)" opacity="0.055"/>
<g transform="translate(444,700) scale(1.5)">
    <circle cx="30" cy="52" r="19" fill="#FBF7EF"/><circle cx="98" cy="52" r="19" fill="#FBF7EF"/>
    <circle cx="30" cy="52" r="9" fill="#FFD21E"/><circle cx="98" cy="52" r="9" fill="#FFD21E"/>
    <rect x="28" y="26" width="72" height="80" rx="36" fill="#FBF7EF"/>
    <circle cx="64" cy="70" r="30" fill="#161512"/>
    <path d="M57 55 L57 85 L84 70 Z" fill="#FFD21E" stroke="#FFD21E" stroke-width="5" stroke-linejoin="round"/>
  </g>
<path d="M395.07 1030L380.96 1030L380.96 974.45L394.85 974.45L394.85 980.5L396.86 980.5Q398.32 977.7 401.68 975.62Q405.04 973.55 410.53 973.55L410.53 973.55Q416.46 973.55 420.05 975.85Q423.63 978.14 425.54 981.84L425.54 981.84L427.55 981.84Q429.46 978.26 432.93 975.9Q436.4 973.55 442.78 973.55L442.78 973.55Q447.94 973.55 452.14 975.74Q456.34 977.92 458.86 982.34Q461.38 986.77 461.38 993.49L461.38 993.49L461.38 1030L447.26 1030L447.26 994.5Q447.26 989.9 444.91 987.61Q442.56 985.31 438.3 985.31L438.3 985.31Q433.49 985.31 430.86 988.39Q428.22 991.47 428.22 997.18L428.22 997.18L428.22 1030L414.11 1030L414.11 994.5Q414.11 989.9 411.76 987.61Q409.41 985.31 405.15 985.31L405.15 985.31Q400.34 985.31 397.7 988.39Q395.07 991.47 395.07 997.18L395.07 997.18L395.07 1030M498.56 1031.57L498.56 1031.57Q490.27 1031.57 483.66 1028.21Q477.06 1024.85 473.25 1018.46Q469.44 1012.08 469.44 1003.12L469.44 1003.12L469.44 1001.33Q469.44 992.37 473.25 985.98Q477.06 979.6 483.66 976.24Q490.27 972.88 498.56 972.88L498.56 972.88Q506.85 972.88 513.46 976.24Q520.06 979.6 523.87 985.98Q527.68 992.37 527.68 1001.33L527.68 1001.33L527.68 1003.12Q527.68 1012.08 523.87 1018.46Q520.06 1024.85 513.46 1028.21Q506.85 1031.57 498.56 1031.57M498.56 1019.02L498.56 1019.02Q505.06 1019.02 509.31 1014.82Q513.57 1010.62 513.57 1002.78L513.57 1002.78L513.57 1001.66Q513.57 993.82 509.37 989.62Q505.17 985.42 498.56 985.42L498.56 985.42Q492.06 985.42 487.81 989.62Q483.55 993.82 483.55 1001.66L483.55 1001.66L483.55 1002.78Q483.55 1010.62 487.81 1014.82Q492.06 1019.02 498.56 1019.02M550.3 1030L536.19 1030L536.19 974.45L550.08 974.45L550.08 981.73L552.1 981.73Q553.44 978.82 557.14 976.18Q560.83 973.55 568.34 973.55L568.34 973.55Q574.83 973.55 579.7 976.52Q584.58 979.49 587.26 984.7Q589.95 989.9 589.95 996.85L589.95 996.85L589.95 1030L575.84 1030L575.84 997.97Q575.84 991.7 572.76 988.56Q569.68 985.42 563.97 985.42L563.97 985.42Q557.47 985.42 553.89 989.74Q550.3 994.05 550.3 1001.78L550.3 1001.78L550.3 1030M636.1 1030L620.42 1030Q614.93 1030 611.51 1026.58Q608.1 1023.17 608.1 1017.46L608.1 1017.46L608.1 986.1L594.21 986.1L594.21 974.45L608.1 974.45L608.1 957.2L622.21 957.2L622.21 974.45L637.44 974.45L637.44 986.1L622.21 986.1L622.21 1014.99Q622.21 1018.35 625.34 1018.35L625.34 1018.35L636.1 1018.35L636.1 1030M686.72 1052.4L651.78 1052.4L651.78 1040.08L682.02 1040.08Q685.15 1040.08 685.15 1036.72L685.15 1036.72L685.15 1022.72L683.14 1022.72Q682.24 1024.62 680.34 1026.53Q678.43 1028.43 675.18 1029.66Q671.94 1030.9 666.9 1030.9L666.9 1030.9Q660.4 1030.9 655.53 1027.93Q650.66 1024.96 647.97 1019.7Q645.28 1014.43 645.28 1007.6L645.28 1007.6L645.28 974.45L659.39 974.45L659.39 1006.48Q659.39 1012.75 662.47 1015.89Q665.55 1019.02 671.26 1019.02L671.26 1019.02Q677.76 1019.02 681.34 1014.71Q684.93 1010.4 684.93 1002.67L684.93 1002.67L684.93 974.45L699.04 974.45L699.04 1039.86Q699.04 1045.57 695.68 1048.98Q692.32 1052.4 686.72 1052.4L686.72 1052.4" fill="#FBF7EF"><title>monty</title></path>
<path d="M177.59 1090L174.66 1090L174.66 1066.72L188.93 1066.72L188.93 1069.3L177.59 1069.3L177.59 1077.16L187.91 1077.16L187.91 1079.73L177.59 1079.73L177.59 1090M194.8 1090L192.04 1090L192.04 1072.86L194.7 1072.86L194.7 1075.52L194.85 1075.52Q195.32 1074.2 196.48 1073.41Q197.63 1072.61 199.2 1072.61L199.2 1072.61Q199.52 1072.61 199.91 1072.63Q200.29 1072.64 200.51 1072.67L200.51 1072.67L200.51 1075.44Q200.38 1075.41 199.9 1075.34Q199.41 1075.27 198.85 1075.27L198.85 1075.27Q197.71 1075.27 196.79 1075.76Q195.87 1076.25 195.34 1077.16Q194.8 1078.06 194.8 1079.33L194.8 1079.33L194.8 1090M210.07 1090.38L210.07 1090.38Q207.73 1090.38 205.96 1089.26Q204.2 1088.14 203.2 1086.14Q202.21 1084.14 202.21 1081.52L202.21 1081.52Q202.21 1078.84 203.2 1076.84Q204.2 1074.83 205.96 1073.7Q207.73 1072.58 210.07 1072.58L210.07 1072.58Q212.43 1072.58 214.2 1073.7Q215.98 1074.83 216.96 1076.84Q217.95 1078.84 217.95 1081.52L217.95 1081.52Q217.95 1084.14 216.96 1086.14Q215.98 1088.14 214.2 1089.26Q212.43 1090.38 210.07 1090.38M210.07 1087.89L210.07 1087.89Q211.77 1087.89 212.9 1087.03Q214.02 1086.17 214.59 1084.73Q215.15 1083.28 215.15 1081.52L215.15 1081.52Q215.15 1079.72 214.59 1078.26Q214.02 1076.8 212.9 1075.93Q211.77 1075.06 210.07 1075.06L210.07 1075.06Q208.38 1075.06 207.27 1075.93Q206.15 1076.8 205.59 1078.26Q205.02 1079.72 205.02 1081.52L205.02 1081.52Q205.02 1083.28 205.59 1084.73Q206.15 1086.17 207.27 1087.03Q208.38 1087.89 210.07 1087.89M224.46 1090L221.7 1090L221.7 1072.86L224.38 1072.86L224.4 1076.58L224.15 1076.58Q224.54 1075.23 225.32 1074.34Q226.1 1073.45 227.13 1073Q228.16 1072.55 229.29 1072.55L229.29 1072.55Q231.21 1072.55 232.45 1073.7Q233.68 1074.84 234.02 1076.61L234.02 1076.61L233.59 1076.61Q233.91 1075.39 234.72 1074.48Q235.52 1073.56 236.69 1073.05Q237.85 1072.55 239.24 1072.55L239.24 1072.55Q240.76 1072.55 242 1073.2Q243.24 1073.86 243.98 1075.19Q244.73 1076.52 244.73 1078.55L244.73 1078.55L244.73 1090L241.98 1090L241.98 1078.59Q241.98 1076.69 240.91 1075.88Q239.84 1075.06 238.43 1075.06L238.43 1075.06Q237.24 1075.06 236.38 1075.55Q235.52 1076.05 235.06 1076.91Q234.6 1077.78 234.6 1078.89L234.6 1078.89L234.6 1090L231.84 1090L231.84 1078.31Q231.84 1076.84 230.86 1075.95Q229.88 1075.06 228.4 1075.06L228.4 1075.06Q227.37 1075.06 226.47 1075.54Q225.57 1076.02 225.02 1076.96Q224.46 1077.91 224.46 1079.31L224.46 1079.31L224.46 1090M262.95 1090.36L262.95 1090.36Q261.3 1090.36 259.97 1089.75Q258.63 1089.14 257.85 1087.97Q257.07 1086.8 257.07 1085.11L257.07 1085.11Q257.07 1083.63 257.65 1082.7Q258.23 1081.78 259.2 1081.26Q260.16 1080.73 261.36 1080.47Q262.55 1080.2 263.79 1080.05L263.79 1080.05Q265.35 1079.83 266.31 1079.72Q267.27 1079.61 267.72 1079.35Q268.16 1079.09 268.16 1078.45L268.16 1078.45L268.16 1078.34Q268.16 1077.31 267.75 1076.58Q267.34 1075.84 266.52 1075.44Q265.7 1075.03 264.51 1075.03L264.51 1075.03Q263.29 1075.03 262.4 1075.42Q261.51 1075.81 260.97 1076.42Q260.43 1077.03 260.21 1077.7L260.21 1077.7L257.51 1077.11Q257.99 1075.55 259.04 1074.55Q260.09 1073.56 261.49 1073.09Q262.9 1072.61 264.45 1072.61L264.45 1072.61Q265.51 1072.61 266.64 1072.88Q267.77 1073.14 268.74 1073.8Q269.71 1074.45 270.31 1075.61Q270.91 1076.77 270.91 1078.53L270.91 1078.53L270.91 1090L268.2 1090L268.2 1087.64L268.04 1087.64Q267.74 1088.23 267.12 1088.87Q266.49 1089.5 265.47 1089.93Q264.45 1090.36 262.95 1090.36M263.4 1087.91L263.4 1087.91Q264.98 1087.91 266.04 1087.3Q267.1 1086.7 267.63 1085.74Q268.16 1084.78 268.16 1083.7L268.16 1083.7L268.16 1081.41Q267.99 1081.59 267.47 1081.74Q266.95 1081.89 266.25 1082.02Q265.55 1082.14 264.86 1082.23Q264.16 1082.33 263.66 1082.39L263.66 1082.39Q262.66 1082.52 261.79 1082.82Q260.91 1083.13 260.38 1083.7Q259.85 1084.27 259.85 1085.25L259.85 1085.25Q259.85 1086.11 260.3 1086.7Q260.76 1087.3 261.55 1087.6Q262.35 1087.91 263.4 1087.91M278.27 1079.8L278.27 1079.8L278.27 1090L275.51 1090L275.51 1072.86L278.18 1072.86L278.2 1077.02L277.68 1077.02Q278.48 1074.66 279.95 1073.63Q281.41 1072.61 283.38 1072.61L283.38 1072.61Q285.12 1072.61 286.46 1073.34Q287.8 1074.06 288.58 1075.52Q289.35 1076.97 289.35 1079.19L289.35 1079.19L289.35 1090L286.59 1090L286.59 1079.41Q286.59 1077.34 285.54 1076.23Q284.49 1075.11 282.66 1075.11L282.66 1075.11Q281.43 1075.11 280.43 1075.63Q279.43 1076.16 278.85 1077.2Q278.27 1078.25 278.27 1079.8M305.38 1090L302.62 1090L302.62 1072.86L305.38 1072.86L305.38 1090M304.01 1069.88L304.01 1069.88Q303.23 1069.88 302.66 1069.34Q302.1 1068.8 302.1 1068.03L302.1 1068.03Q302.1 1067.27 302.66 1066.73Q303.23 1066.19 304.01 1066.19L304.01 1066.19Q304.8 1066.19 305.37 1066.73Q305.93 1067.27 305.93 1068.03L305.93 1068.03Q305.93 1068.8 305.37 1069.34Q304.8 1069.88 304.01 1069.88M316.45 1090.36L316.45 1090.36Q314.29 1090.36 312.63 1089.26Q310.98 1088.16 310.05 1086.16Q309.13 1084.16 309.13 1081.45L309.13 1081.45Q309.13 1078.77 310.06 1076.77Q310.99 1074.78 312.65 1073.7Q314.3 1072.61 316.46 1072.61L316.46 1072.61Q317.96 1072.61 318.95 1073.09Q319.95 1073.56 320.57 1074.23Q321.2 1074.91 321.55 1075.53L321.55 1075.53L321.71 1075.53L321.71 1066.72L324.48 1066.72L324.48 1090L321.79 1090L321.79 1087.36L321.57 1087.36Q321.2 1088 320.55 1088.7Q319.91 1089.39 318.92 1089.88Q317.93 1090.36 316.45 1090.36M316.87 1087.88L316.87 1087.88Q318.45 1087.88 319.55 1087.06Q320.65 1086.25 321.23 1084.8Q321.8 1083.34 321.8 1081.44L321.8 1081.44Q321.8 1079.52 321.23 1078.09Q320.66 1076.67 319.55 1075.88Q318.45 1075.08 316.87 1075.08L316.87 1075.08Q315.29 1075.08 314.19 1075.88Q313.09 1076.69 312.52 1078.12Q311.95 1079.55 311.95 1081.44L311.95 1081.44Q311.95 1083.33 312.52 1084.78Q313.1 1086.23 314.2 1087.05Q315.3 1087.88 316.87 1087.88M336.24 1090.38L336.24 1090.38Q333.74 1090.38 331.95 1089.26Q330.16 1088.14 329.2 1086.15Q328.23 1084.16 328.23 1081.53L328.23 1081.53Q328.23 1078.91 329.2 1076.89Q330.16 1074.88 331.91 1073.73Q333.65 1072.58 335.96 1072.58L335.96 1072.58Q337.46 1072.58 338.82 1073.09Q340.18 1073.61 341.24 1074.68Q342.3 1075.75 342.92 1077.39Q343.54 1079.03 343.54 1081.3L343.54 1081.3L343.54 1082.31L329.98 1082.31L329.98 1079.97L342.02 1079.97L340.77 1080.83Q340.77 1079.11 340.21 1077.8Q339.65 1076.5 338.58 1075.77Q337.51 1075.05 335.96 1075.05L335.96 1075.05Q334.41 1075.05 333.3 1075.79Q332.2 1076.53 331.6 1077.77Q331.01 1079.02 331.01 1080.52L331.01 1080.52L331.01 1081.95Q331.01 1083.81 331.65 1085.15Q332.29 1086.48 333.47 1087.2Q334.65 1087.91 336.26 1087.91L336.26 1087.91Q337.34 1087.91 338.2 1087.59Q339.05 1087.27 339.66 1086.65Q340.26 1086.03 340.55 1085.14L340.55 1085.14L343.26 1085.64Q342.88 1087.05 341.91 1088.11Q340.93 1089.17 339.48 1089.77Q338.04 1090.38 336.24 1090.38M352.43 1090.36L352.43 1090.36Q350.79 1090.36 349.45 1089.75Q348.12 1089.14 347.34 1087.97Q346.55 1086.8 346.55 1085.11L346.55 1085.11Q346.55 1083.63 347.13 1082.7Q347.71 1081.78 348.68 1081.26Q349.65 1080.73 350.84 1080.47Q352.04 1080.2 353.27 1080.05L353.27 1080.05Q354.84 1079.83 355.8 1079.72Q356.76 1079.61 357.2 1079.35Q357.65 1079.09 357.65 1078.45L357.65 1078.45L357.65 1078.34Q357.65 1077.31 357.23 1076.58Q356.82 1075.84 356 1075.44Q355.18 1075.03 353.99 1075.03L353.99 1075.03Q352.77 1075.03 351.88 1075.42Q350.99 1075.81 350.45 1076.42Q349.91 1077.03 349.7 1077.7L349.7 1077.7L346.99 1077.11Q347.48 1075.55 348.52 1074.55Q349.57 1073.56 350.98 1073.09Q352.38 1072.61 353.93 1072.61L353.93 1072.61Q354.99 1072.61 356.13 1072.88Q357.26 1073.14 358.23 1073.8Q359.2 1074.45 359.8 1075.61Q360.4 1076.77 360.4 1078.53L360.4 1078.53L360.4 1090L357.68 1090L357.68 1087.64L357.52 1087.64Q357.23 1088.23 356.6 1088.87Q355.98 1089.5 354.95 1089.93Q353.93 1090.36 352.43 1090.36M352.88 1087.91L352.88 1087.91Q354.46 1087.91 355.52 1087.3Q356.59 1086.7 357.12 1085.74Q357.65 1084.78 357.65 1083.7L357.65 1083.7L357.65 1081.41Q357.48 1081.59 356.95 1081.74Q356.43 1081.89 355.73 1082.02Q355.04 1082.14 354.34 1082.23Q353.65 1082.33 353.15 1082.39L353.15 1082.39Q352.15 1082.52 351.27 1082.82Q350.4 1083.13 349.87 1083.7Q349.34 1084.27 349.34 1085.25L349.34 1085.25Q349.34 1086.11 349.79 1086.7Q350.24 1087.3 351.04 1087.6Q351.84 1087.91 352.88 1087.91M371.65 1072.86L380.65 1072.86L380.65 1075.22L371.65 1075.22L371.65 1072.86M374.38 1085.89L374.38 1068.58L377.15 1068.58L377.15 1085.64Q377.15 1086.75 377.59 1087.23Q378.04 1087.72 379.12 1087.72L379.12 1087.72Q379.41 1087.72 379.83 1087.68Q380.24 1087.64 380.59 1087.59L380.59 1087.59L380.98 1089.94Q380.55 1090.05 380.02 1090.09Q379.49 1090.14 378.99 1090.14L378.99 1090.14Q376.77 1090.14 375.58 1089.04Q374.38 1087.94 374.38 1085.89L374.38 1085.89M390.66 1090.38L390.66 1090.38Q388.32 1090.38 386.55 1089.26Q384.79 1088.14 383.8 1086.14Q382.8 1084.14 382.8 1081.52L382.8 1081.52Q382.8 1078.84 383.8 1076.84Q384.79 1074.83 386.55 1073.7Q388.32 1072.58 390.66 1072.58L390.66 1072.58Q393.02 1072.58 394.8 1073.7Q396.57 1074.83 397.55 1076.84Q398.54 1078.84 398.54 1081.52L398.54 1081.52Q398.54 1084.14 397.55 1086.14Q396.57 1088.14 394.8 1089.26Q393.02 1090.38 390.66 1090.38M390.66 1087.89L390.66 1087.89Q392.37 1087.89 393.49 1087.03Q394.62 1086.17 395.18 1084.73Q395.74 1083.28 395.74 1081.52L395.74 1081.52Q395.74 1079.72 395.18 1078.26Q394.62 1076.8 393.49 1075.93Q392.37 1075.06 390.66 1075.06L390.66 1075.06Q388.98 1075.06 387.86 1075.93Q386.74 1076.8 386.18 1078.26Q385.62 1079.72 385.62 1081.52L385.62 1081.52Q385.62 1083.28 386.18 1084.73Q386.74 1086.17 387.86 1087.03Q388.98 1087.89 390.66 1087.89M415.9 1090.36L415.9 1090.36Q414.26 1090.36 412.92 1089.75Q411.59 1089.14 410.8 1087.97Q410.02 1086.8 410.02 1085.11L410.02 1085.11Q410.02 1083.63 410.6 1082.7Q411.18 1081.78 412.15 1081.26Q413.12 1080.73 414.31 1080.47Q415.51 1080.2 416.74 1080.05L416.74 1080.05Q418.3 1079.83 419.27 1079.72Q420.23 1079.61 420.67 1079.35Q421.12 1079.09 421.12 1078.45L421.12 1078.45L421.12 1078.34Q421.12 1077.31 420.7 1076.58Q420.29 1075.84 419.47 1075.44Q418.65 1075.03 417.46 1075.03L417.46 1075.03Q416.24 1075.03 415.35 1075.42Q414.46 1075.81 413.92 1076.42Q413.38 1077.03 413.16 1077.7L413.16 1077.7L410.46 1077.11Q410.95 1075.55 411.99 1074.55Q413.04 1073.56 414.45 1073.09Q415.85 1072.61 417.4 1072.61L417.4 1072.61Q418.46 1072.61 419.59 1072.88Q420.73 1073.14 421.7 1073.8Q422.66 1074.45 423.27 1075.61Q423.87 1076.77 423.87 1078.53L423.87 1078.53L423.87 1090L421.15 1090L421.15 1087.64L420.99 1087.64Q420.7 1088.23 420.07 1088.87Q419.45 1089.5 418.42 1089.93Q417.4 1090.36 415.9 1090.36M416.35 1087.91L416.35 1087.91Q417.93 1087.91 418.99 1087.3Q420.05 1086.7 420.59 1085.74Q421.12 1084.78 421.12 1083.7L421.12 1083.7L421.12 1081.41Q420.95 1081.59 420.42 1081.74Q419.9 1081.89 419.2 1082.02Q418.51 1082.14 417.81 1082.23Q417.12 1082.33 416.62 1082.39L416.62 1082.39Q415.62 1082.52 414.74 1082.82Q413.87 1083.13 413.34 1083.7Q412.8 1084.27 412.8 1085.25L412.8 1085.25Q412.8 1086.11 413.26 1086.7Q413.71 1087.3 414.51 1087.6Q415.3 1087.91 416.35 1087.91M439.9 1090L437.13 1090L437.13 1072.86L439.79 1072.86L439.79 1075.52L439.95 1075.52Q440.41 1074.2 441.57 1073.41Q442.73 1072.61 444.29 1072.61L444.29 1072.61Q444.62 1072.61 445 1072.63Q445.38 1072.64 445.6 1072.67L445.6 1072.67L445.6 1075.44Q445.48 1075.41 444.99 1075.34Q444.51 1075.27 443.95 1075.27L443.95 1075.27Q442.8 1075.27 441.88 1075.76Q440.96 1076.25 440.43 1077.16Q439.9 1078.06 439.9 1079.33L439.9 1079.33L439.9 1090M455.32 1090.38L455.32 1090.38Q452.82 1090.38 451.03 1089.26Q449.24 1088.14 448.27 1086.15Q447.3 1084.16 447.3 1081.53L447.3 1081.53Q447.3 1078.91 448.27 1076.89Q449.24 1074.88 450.98 1073.73Q452.73 1072.58 455.04 1072.58L455.04 1072.58Q456.54 1072.58 457.9 1073.09Q459.26 1073.61 460.32 1074.68Q461.38 1075.75 462 1077.39Q462.62 1079.03 462.62 1081.3L462.62 1081.3L462.62 1082.31L449.05 1082.31L449.05 1079.97L461.1 1079.97L459.85 1080.83Q459.85 1079.11 459.29 1077.8Q458.73 1076.5 457.66 1075.77Q456.59 1075.05 455.04 1075.05L455.04 1075.05Q453.49 1075.05 452.38 1075.79Q451.27 1076.53 450.68 1077.77Q450.09 1079.02 450.09 1080.52L450.09 1080.52L450.09 1081.95Q450.09 1083.81 450.73 1085.15Q451.37 1086.48 452.55 1087.2Q453.73 1087.91 455.34 1087.91L455.34 1087.91Q456.41 1087.91 457.27 1087.59Q458.13 1087.27 458.73 1086.65Q459.34 1086.03 459.63 1085.14L459.63 1085.14L462.34 1085.64Q461.96 1087.05 460.98 1088.11Q460.01 1089.17 458.56 1089.77Q457.12 1090.38 455.32 1090.38M473.48 1090.38L473.48 1090.38Q470.98 1090.38 469.19 1089.26Q467.4 1088.14 466.43 1086.15Q465.46 1084.16 465.46 1081.53L465.46 1081.53Q465.46 1078.91 466.43 1076.89Q467.4 1074.88 469.14 1073.73Q470.88 1072.58 473.2 1072.58L473.2 1072.58Q474.7 1072.58 476.05 1073.09Q477.41 1073.61 478.48 1074.68Q479.54 1075.75 480.16 1077.39Q480.77 1079.03 480.77 1081.3L480.77 1081.3L480.77 1082.31L467.21 1082.31L467.21 1079.97L479.26 1079.97L478.01 1080.83Q478.01 1079.11 477.45 1077.8Q476.88 1076.5 475.81 1075.77Q474.74 1075.05 473.2 1075.05L473.2 1075.05Q471.65 1075.05 470.54 1075.79Q469.43 1076.53 468.84 1077.77Q468.24 1079.02 468.24 1080.52L468.24 1080.52L468.24 1081.95Q468.24 1083.81 468.88 1085.15Q469.52 1086.48 470.7 1087.2Q471.88 1087.91 473.49 1087.91L473.49 1087.91Q474.57 1087.91 475.43 1087.59Q476.29 1087.27 476.89 1086.65Q477.49 1086.03 477.79 1085.14L477.79 1085.14L480.49 1085.64Q480.12 1087.05 479.14 1088.11Q478.16 1089.17 476.72 1089.77Q475.27 1090.38 473.48 1090.38M484.46 1066.72L487.23 1066.72L487.23 1090L484.46 1090L484.46 1066.72M507.51 1090.38L507.51 1090.38Q505.16 1090.38 503.4 1089.26Q501.63 1088.14 500.64 1086.14Q499.65 1084.14 499.65 1081.52L499.65 1081.52Q499.65 1078.84 500.64 1076.84Q501.63 1074.83 503.4 1073.7Q505.16 1072.58 507.51 1072.58L507.51 1072.58Q509.87 1072.58 511.64 1073.7Q513.41 1074.83 514.4 1076.84Q515.38 1078.84 515.38 1081.52L515.38 1081.52Q515.38 1084.14 514.4 1086.14Q513.41 1088.14 511.64 1089.26Q509.87 1090.38 507.51 1090.38M507.51 1087.89L507.51 1087.89Q509.21 1087.89 510.34 1087.03Q511.46 1086.17 512.02 1084.73Q512.59 1083.28 512.59 1081.52L512.59 1081.52Q512.59 1079.72 512.02 1078.26Q511.46 1076.8 510.34 1075.93Q509.21 1075.06 507.51 1075.06L507.51 1075.06Q505.82 1075.06 504.7 1075.93Q503.59 1076.8 503.02 1078.26Q502.46 1079.72 502.46 1081.52L502.46 1081.52Q502.46 1083.28 503.02 1084.73Q503.59 1086.17 504.7 1087.03Q505.82 1087.89 507.51 1087.89M521.9 1079.8L521.9 1079.8L521.9 1090L519.13 1090L519.13 1072.86L521.8 1072.86L521.82 1077.02L521.3 1077.02Q522.1 1074.66 523.57 1073.63Q525.04 1072.61 527.01 1072.61L527.01 1072.61Q528.74 1072.61 530.09 1073.34Q531.43 1074.06 532.2 1075.52Q532.98 1076.97 532.98 1079.19L532.98 1079.19L532.98 1090L530.21 1090L530.21 1079.41Q530.21 1077.34 529.16 1076.23Q528.12 1075.11 526.29 1075.11L526.29 1075.11Q525.05 1075.11 524.05 1075.63Q523.05 1076.16 522.48 1077.2Q521.9 1078.25 521.9 1079.8M553.41 1090.38L553.41 1090.38Q550.91 1090.38 549.13 1089.26Q547.34 1088.14 546.37 1086.15Q545.4 1084.16 545.4 1081.53L545.4 1081.53Q545.4 1078.91 546.37 1076.89Q547.34 1074.88 549.08 1073.73Q550.82 1072.58 553.13 1072.58L553.13 1072.58Q554.63 1072.58 555.99 1073.09Q557.35 1073.61 558.41 1074.68Q559.48 1075.75 560.09 1077.39Q560.71 1079.03 560.71 1081.3L560.71 1081.3L560.71 1082.31L547.15 1082.31L547.15 1079.97L559.2 1079.97L557.95 1080.83Q557.95 1079.11 557.38 1077.8Q556.82 1076.5 555.75 1075.77Q554.68 1075.05 553.13 1075.05L553.13 1075.05Q551.59 1075.05 550.48 1075.79Q549.37 1076.53 548.77 1077.77Q548.18 1079.02 548.18 1080.52L548.18 1080.52L548.18 1081.95Q548.18 1083.81 548.82 1085.15Q549.46 1086.48 550.64 1087.2Q551.82 1087.91 553.43 1087.91L553.43 1087.91Q554.51 1087.91 555.37 1087.59Q556.23 1087.27 556.83 1086.65Q557.43 1086.03 557.73 1085.14L557.73 1085.14L560.43 1085.64Q560.05 1087.05 559.08 1088.11Q558.1 1089.17 556.66 1089.77Q555.21 1090.38 553.41 1090.38M571.63 1090L568.77 1090L562.2 1072.86L565.21 1072.86L568.87 1082.92Q569.41 1084.39 569.83 1085.86Q570.24 1087.33 570.68 1088.72L570.68 1088.72L569.77 1088.72Q570.21 1087.33 570.62 1085.86Q571.02 1084.39 571.55 1082.92L571.55 1082.92L575.21 1072.86L578.21 1072.86L571.63 1090M587.77 1090.38L587.77 1090.38Q585.27 1090.38 583.48 1089.26Q581.7 1088.14 580.73 1086.15Q579.76 1084.16 579.76 1081.53L579.76 1081.53Q579.76 1078.91 580.73 1076.89Q581.7 1074.88 583.44 1073.73Q585.18 1072.58 587.49 1072.58L587.49 1072.58Q588.99 1072.58 590.35 1073.09Q591.71 1073.61 592.77 1074.68Q593.84 1075.75 594.45 1077.39Q595.07 1079.03 595.07 1081.3L595.07 1081.3L595.07 1082.31L581.51 1082.31L581.51 1079.97L593.55 1079.97L592.3 1080.83Q592.3 1079.11 591.74 1077.8Q591.18 1076.5 590.11 1075.77Q589.04 1075.05 587.49 1075.05L587.49 1075.05Q585.95 1075.05 584.84 1075.79Q583.73 1076.53 583.13 1077.77Q582.54 1079.02 582.54 1080.52L582.54 1080.52L582.54 1081.95Q582.54 1083.81 583.18 1085.15Q583.82 1086.48 585 1087.2Q586.18 1087.91 587.79 1087.91L587.79 1087.91Q588.87 1087.91 589.73 1087.59Q590.59 1087.27 591.19 1086.65Q591.79 1086.03 592.09 1085.14L592.09 1085.14L594.79 1085.64Q594.41 1087.05 593.44 1088.11Q592.46 1089.17 591.02 1089.77Q589.57 1090.38 587.77 1090.38M601.52 1090L598.76 1090L598.76 1072.86L601.41 1072.86L601.41 1075.52L601.57 1075.52Q602.04 1074.2 603.2 1073.41Q604.35 1072.61 605.91 1072.61L605.91 1072.61Q606.24 1072.61 606.63 1072.63Q607.01 1072.64 607.23 1072.67L607.23 1072.67L607.23 1075.44Q607.1 1075.41 606.62 1075.34Q606.13 1075.27 605.57 1075.27L605.57 1075.27Q604.43 1075.27 603.51 1075.76Q602.59 1076.25 602.05 1077.16Q601.52 1078.06 601.52 1079.33L601.52 1079.33L601.52 1090M610.51 1096.39L610.51 1096.39L610.99 1093.98L611.73 1094.05Q612.48 1094.19 613.08 1094.05Q613.68 1093.91 614.16 1093.37Q614.65 1092.83 615.01 1091.77L615.01 1091.77L615.65 1090.02L609.07 1072.86L612.09 1072.86L615.74 1082.92Q616.29 1084.41 616.7 1085.87Q617.12 1087.33 617.55 1088.72L617.55 1088.72L616.63 1088.72Q617.05 1087.33 617.48 1085.86Q617.9 1084.39 618.43 1082.92L618.43 1082.92L622.1 1072.86L625.09 1072.86L617.43 1092.77Q616.93 1094.06 616.21 1094.91Q615.49 1095.77 614.55 1096.19Q613.6 1096.61 612.43 1096.61L612.43 1096.61Q611.79 1096.61 611.29 1096.54Q610.79 1096.47 610.51 1096.39M642.65 1090.38L642.65 1090.38Q640.87 1090.38 639.45 1089.84Q638.04 1089.3 637.14 1088.21Q636.24 1087.13 635.99 1085.53L635.99 1085.53L638.65 1085.11Q638.95 1086.55 639.97 1087.26Q640.99 1087.97 642.62 1087.97L642.62 1087.97Q644.4 1087.97 645.45 1087.21Q646.51 1086.45 646.51 1085.36L646.51 1085.36Q646.51 1084.45 645.86 1083.86Q645.21 1083.27 643.98 1082.98L643.98 1082.98L641.15 1082.33Q638.8 1081.77 637.64 1080.59Q636.48 1079.41 636.48 1077.58L636.48 1077.58Q636.48 1076.11 637.29 1074.98Q638.1 1073.86 639.53 1073.22Q640.96 1072.58 642.79 1072.58L642.79 1072.58Q644.55 1072.58 645.85 1073.16Q647.15 1073.73 647.94 1074.76Q648.73 1075.78 649.01 1077.16L649.01 1077.16L646.45 1077.59Q646.2 1076.53 645.32 1075.73Q644.45 1074.94 642.79 1074.94L642.79 1074.94Q641.24 1074.94 640.25 1075.66Q639.26 1076.39 639.26 1077.47L639.26 1077.47Q639.26 1078.42 639.95 1079.01Q640.65 1079.59 642.07 1079.92L642.07 1079.92L644.71 1080.55Q647.09 1081.11 648.22 1082.27Q649.35 1083.42 649.35 1085.22L649.35 1085.22Q649.35 1086.75 648.5 1087.91Q647.65 1089.08 646.13 1089.73Q644.62 1090.38 642.65 1090.38M660.12 1090.38L660.12 1090.38Q657.77 1090.38 656.01 1089.26Q654.24 1088.14 653.25 1086.14Q652.26 1084.14 652.26 1081.52L652.26 1081.52Q652.26 1078.84 653.25 1076.84Q654.24 1074.83 656.01 1073.7Q657.77 1072.58 660.12 1072.58L660.12 1072.58Q662.48 1072.58 664.25 1073.7Q666.02 1074.83 667.01 1076.84Q667.99 1078.84 667.99 1081.52L667.99 1081.52Q667.99 1084.14 667.01 1086.14Q666.02 1088.14 664.25 1089.26Q662.48 1090.38 660.12 1090.38M660.12 1087.89L660.12 1087.89Q661.82 1087.89 662.95 1087.03Q664.07 1086.17 664.63 1084.73Q665.2 1083.28 665.2 1081.52L665.2 1081.52Q665.2 1079.72 664.63 1078.26Q664.07 1076.8 662.95 1075.93Q661.82 1075.06 660.12 1075.06L660.12 1075.06Q658.43 1075.06 657.31 1075.93Q656.2 1076.8 655.63 1078.26Q655.07 1079.72 655.07 1081.52L655.07 1081.52Q655.07 1083.28 655.63 1084.73Q656.2 1086.17 657.31 1087.03Q658.43 1087.89 660.12 1087.89M678.76 1090.38L678.76 1090.38Q676.41 1090.38 674.65 1089.26Q672.88 1088.14 671.89 1086.14Q670.9 1084.14 670.9 1081.52L670.9 1081.52Q670.9 1078.84 671.89 1076.84Q672.88 1074.83 674.65 1073.7Q676.41 1072.58 678.76 1072.58L678.76 1072.58Q680.07 1072.58 681.22 1072.95Q682.37 1073.31 683.29 1073.98Q684.21 1074.64 684.85 1075.59Q685.49 1076.55 685.79 1077.72L685.79 1077.72L683.1 1078.23Q682.93 1077.53 682.55 1076.95Q682.18 1076.38 681.63 1075.95Q681.07 1075.53 680.35 1075.3Q679.63 1075.06 678.76 1075.06L678.76 1075.06Q677.07 1075.06 675.95 1075.93Q674.84 1076.8 674.27 1078.26Q673.71 1079.72 673.71 1081.52L673.71 1081.52Q673.71 1083.28 674.27 1084.73Q674.84 1086.17 675.95 1087.03Q677.07 1087.89 678.76 1087.89L678.76 1087.89Q679.65 1087.89 680.38 1087.66Q681.1 1087.42 681.65 1086.99Q682.2 1086.56 682.57 1085.96Q682.95 1085.36 683.13 1084.64L683.13 1084.64L685.84 1085.14Q685.55 1086.33 684.91 1087.29Q684.26 1088.25 683.33 1088.95Q682.4 1089.64 681.23 1090.01Q680.07 1090.38 678.76 1090.38M692.27 1090L689.51 1090L689.51 1072.86L692.27 1072.86L692.27 1090M690.9 1069.88L690.9 1069.88Q690.12 1069.88 689.55 1069.34Q688.99 1068.8 688.99 1068.03L688.99 1068.03Q688.99 1067.27 689.55 1066.73Q690.12 1066.19 690.9 1066.19L690.9 1066.19Q691.7 1066.19 692.26 1066.73Q692.82 1067.27 692.82 1068.03L692.82 1068.03Q692.82 1068.8 692.26 1069.34Q691.7 1069.88 690.9 1069.88M701.8 1090.36L701.8 1090.36Q700.16 1090.36 698.83 1089.75Q697.49 1089.14 696.71 1087.97Q695.93 1086.8 695.93 1085.11L695.93 1085.11Q695.93 1083.63 696.51 1082.7Q697.09 1081.78 698.05 1081.26Q699.02 1080.73 700.22 1080.47Q701.41 1080.2 702.65 1080.05L702.65 1080.05Q704.21 1079.83 705.17 1079.72Q706.13 1079.61 706.58 1079.35Q707.02 1079.09 707.02 1078.45L707.02 1078.45L707.02 1078.34Q707.02 1077.31 706.61 1076.58Q706.2 1075.84 705.38 1075.44Q704.55 1075.03 703.37 1075.03L703.37 1075.03Q702.15 1075.03 701.26 1075.42Q700.37 1075.81 699.83 1076.42Q699.29 1077.03 699.07 1077.7L699.07 1077.7L696.37 1077.11Q696.85 1075.55 697.9 1074.55Q698.95 1073.56 700.35 1073.09Q701.76 1072.61 703.3 1072.61L703.3 1072.61Q704.37 1072.61 705.5 1072.88Q706.63 1073.14 707.6 1073.8Q708.57 1074.45 709.17 1075.61Q709.77 1076.77 709.77 1078.53L709.77 1078.53L709.77 1090L707.05 1090L707.05 1087.64L706.9 1087.64Q706.6 1088.23 705.98 1088.87Q705.35 1089.5 704.33 1089.93Q703.3 1090.36 701.8 1090.36M702.26 1087.91L702.26 1087.91Q703.84 1087.91 704.9 1087.3Q705.96 1086.7 706.49 1085.74Q707.02 1084.78 707.02 1083.7L707.02 1083.7L707.02 1081.41Q706.85 1081.59 706.33 1081.74Q705.8 1081.89 705.11 1082.02Q704.41 1082.14 703.72 1082.23Q703.02 1082.33 702.52 1082.39L702.52 1082.39Q701.52 1082.52 700.65 1082.82Q699.77 1083.13 699.24 1083.7Q698.71 1084.27 698.71 1085.25L698.71 1085.25Q698.71 1086.11 699.16 1086.7Q699.62 1087.3 700.41 1087.6Q701.21 1087.91 702.26 1087.91M714.37 1066.72L717.13 1066.72L717.13 1090L714.37 1090L714.37 1066.72M733.16 1090L730.4 1090L730.4 1072.86L733.16 1072.86L733.16 1090M731.79 1069.88L731.79 1069.88Q731.01 1069.88 730.45 1069.34Q729.88 1068.8 729.88 1068.03L729.88 1068.03Q729.88 1067.27 730.45 1066.73Q731.01 1066.19 731.79 1066.19L731.79 1066.19Q732.59 1066.19 733.15 1066.73Q733.71 1067.27 733.71 1068.03L733.71 1068.03Q733.71 1068.8 733.15 1069.34Q732.59 1069.88 731.79 1069.88M740.52 1079.8L740.52 1079.8L740.52 1090L737.76 1090L737.76 1072.86L740.43 1072.86L740.45 1077.02L739.93 1077.02Q740.73 1074.66 742.2 1073.63Q743.66 1072.61 745.63 1072.61L745.63 1072.61Q747.37 1072.61 748.71 1073.34Q750.05 1074.06 750.83 1075.52Q751.6 1076.97 751.6 1079.19L751.6 1079.19L751.6 1090L748.84 1090L748.84 1079.41Q748.84 1077.34 747.79 1076.23Q746.74 1075.11 744.91 1075.11L744.91 1075.11Q743.68 1075.11 742.68 1075.63Q741.68 1076.16 741.1 1077.2Q740.52 1078.25 740.52 1079.8M781.45 1084.97L764.09 1084.97L764.09 1082.58L774.6 1066.72L776.37 1066.72L776.37 1070.25L775.23 1070.25L767.27 1082.27L767.27 1082.39L781.45 1082.39L781.45 1084.97M778.15 1090L775.35 1090L775.35 1084.27L775.37 1083.14L775.37 1066.72L778.15 1066.72L778.15 1090M796.68 1090L793.91 1090L793.91 1072.86L796.6 1072.86L796.62 1076.58L796.37 1076.58Q796.76 1075.23 797.54 1074.34Q798.32 1073.45 799.35 1073Q800.38 1072.55 801.51 1072.55L801.51 1072.55Q803.43 1072.55 804.66 1073.7Q805.9 1074.84 806.24 1076.61L806.24 1076.61L805.8 1076.61Q806.13 1075.39 806.94 1074.48Q807.74 1073.56 808.91 1073.05Q810.07 1072.55 811.46 1072.55L811.46 1072.55Q812.98 1072.55 814.22 1073.2Q815.46 1073.86 816.2 1075.19Q816.95 1076.52 816.95 1078.55L816.95 1078.55L816.95 1090L814.2 1090L814.2 1078.59Q814.2 1076.69 813.13 1075.88Q812.05 1075.06 810.65 1075.06L810.65 1075.06Q809.46 1075.06 808.6 1075.55Q807.74 1076.05 807.28 1076.91Q806.82 1077.78 806.82 1078.89L806.82 1078.89L806.82 1090L804.05 1090L804.05 1078.31Q804.05 1076.84 803.08 1075.95Q802.1 1075.06 800.62 1075.06L800.62 1075.06Q799.59 1075.06 798.69 1075.54Q797.79 1076.02 797.23 1076.96Q796.68 1077.91 796.68 1079.31L796.68 1079.31L796.68 1090M824.32 1090L821.55 1090L821.55 1072.86L824.32 1072.86L824.32 1090M822.95 1069.88L822.95 1069.88Q822.16 1069.88 821.6 1069.34Q821.04 1068.8 821.04 1068.03L821.04 1068.03Q821.04 1067.27 821.6 1066.73Q822.16 1066.19 822.95 1066.19L822.95 1066.19Q823.74 1066.19 824.3 1066.73Q824.87 1067.27 824.87 1068.03L824.87 1068.03Q824.87 1068.8 824.3 1069.34Q823.74 1069.88 822.95 1069.88M831.68 1079.8L831.68 1079.8L831.68 1090L828.91 1090L828.91 1072.86L831.59 1072.86L831.6 1077.02L831.09 1077.02Q831.88 1074.66 833.35 1073.63Q834.82 1072.61 836.79 1072.61L836.79 1072.61Q838.52 1072.61 839.87 1073.34Q841.21 1074.06 841.98 1075.52Q842.76 1076.97 842.76 1079.19L842.76 1079.19L842.76 1090L839.99 1090L839.99 1079.41Q839.99 1077.34 838.95 1076.23Q837.9 1075.11 836.07 1075.11L836.07 1075.11Q834.84 1075.11 833.84 1075.63Q832.84 1076.16 832.26 1077.2Q831.68 1078.25 831.68 1079.8M853.32 1090.25L853.32 1090.25Q851.6 1090.25 850.25 1089.52Q848.9 1088.8 848.13 1087.33Q847.35 1085.86 847.35 1083.67L847.35 1083.67L847.35 1072.86L850.12 1072.86L850.12 1083.45Q850.12 1085.5 851.17 1086.63Q852.23 1087.75 854.05 1087.75L854.05 1087.75Q855.29 1087.75 856.28 1087.23Q857.27 1086.7 857.85 1085.65Q858.43 1084.59 858.43 1083.05L858.43 1083.05L858.43 1072.86L861.2 1072.86L861.2 1090L858.52 1090L858.52 1085.84L859.02 1085.84Q858.21 1088.22 856.73 1089.23Q855.26 1090.25 853.32 1090.25M863.79 1072.86L872.79 1072.86L872.79 1075.22L863.79 1075.22L863.79 1072.86M866.52 1085.89L866.52 1068.58L869.29 1068.58L869.29 1085.64Q869.29 1086.75 869.73 1087.23Q870.18 1087.72 871.26 1087.72L871.26 1087.72Q871.55 1087.72 871.97 1087.68Q872.38 1087.64 872.73 1087.59L872.73 1087.59L873.12 1089.94Q872.7 1090.05 872.16 1090.09Q871.63 1090.14 871.13 1090.14L871.13 1090.14Q868.91 1090.14 867.72 1089.04Q866.52 1087.94 866.52 1085.89L866.52 1085.89M882.96 1090.38L882.96 1090.38Q880.46 1090.38 878.67 1089.26Q876.88 1088.14 875.91 1086.15Q874.95 1084.16 874.95 1081.53L874.95 1081.53Q874.95 1078.91 875.91 1076.89Q876.88 1074.88 878.63 1073.73Q880.37 1072.58 882.68 1072.58L882.68 1072.58Q884.18 1072.58 885.54 1073.09Q886.9 1073.61 887.96 1074.68Q889.02 1075.75 889.64 1077.39Q890.26 1079.03 890.26 1081.3L890.26 1081.3L890.26 1082.31L876.7 1082.31L876.7 1079.97L888.74 1079.97L887.49 1080.83Q887.49 1079.11 886.93 1077.8Q886.37 1076.5 885.3 1075.77Q884.23 1075.05 882.68 1075.05L882.68 1075.05Q881.13 1075.05 880.02 1075.79Q878.91 1076.53 878.32 1077.77Q877.73 1079.02 877.73 1080.52L877.73 1080.52L877.73 1081.95Q877.73 1083.81 878.37 1085.15Q879.01 1086.48 880.19 1087.2Q881.37 1087.91 882.98 1087.91L882.98 1087.91Q884.05 1087.91 884.91 1087.59Q885.77 1087.27 886.38 1086.65Q886.98 1086.03 887.27 1085.14L887.27 1085.14L889.98 1085.64Q889.6 1087.05 888.63 1088.11Q887.65 1089.17 886.2 1089.77Q884.76 1090.38 882.96 1090.38M899.82 1090.38L899.82 1090.38Q898.04 1090.38 896.63 1089.84Q895.21 1089.3 894.31 1088.21Q893.41 1087.13 893.16 1085.53L893.16 1085.53L895.82 1085.11Q896.12 1086.55 897.14 1087.26Q898.16 1087.97 899.79 1087.97L899.79 1087.97Q901.57 1087.97 902.63 1087.21Q903.68 1086.45 903.68 1085.36L903.68 1085.36Q903.68 1084.45 903.03 1083.86Q902.38 1083.27 901.15 1082.98L901.15 1082.98L898.32 1082.33Q895.98 1081.77 894.81 1080.59Q893.65 1079.41 893.65 1077.58L893.65 1077.58Q893.65 1076.11 894.46 1074.98Q895.27 1073.86 896.7 1073.22Q898.13 1072.58 899.96 1072.58L899.96 1072.58Q901.73 1072.58 903.02 1073.16Q904.32 1073.73 905.11 1074.76Q905.9 1075.78 906.18 1077.16L906.18 1077.16L903.62 1077.59Q903.37 1076.53 902.49 1075.73Q901.62 1074.94 899.96 1074.94L899.96 1074.94Q898.41 1074.94 897.42 1075.66Q896.43 1076.39 896.43 1077.47L896.43 1077.47Q896.43 1078.42 897.13 1079.01Q897.82 1079.59 899.24 1079.92L899.24 1079.92L901.88 1080.55Q904.26 1081.11 905.39 1082.27Q906.52 1083.42 906.52 1085.22L906.52 1085.22Q906.52 1086.75 905.67 1087.91Q904.82 1089.08 903.3 1089.73Q901.79 1090.38 899.82 1090.38" fill="#9A958C"><title>From an idea to a reel on every social in 4 minutes</title></path>
<g transform="translate(388.82500000000005,1180)"><rect width="302.34999999999997" height="80" rx="40" fill="none" stroke="#FFD21E" stroke-width="2"/><path d="M46.01 39.28L44.87 33.37L51.02 33.37L52.13 40.21L52.13 50.5L46.01 50.5L46.01 39.28M58.04 32.86L58.04 32.86Q60.41 32.86 62.06 33.85Q63.71 34.84 64.58 36.64Q65.45 38.44 65.45 40.9L65.45 40.9L65.45 50.5L59.33 50.5L59.33 41.8Q59.33 39.88 58.46 38.86Q57.59 37.84 55.94 37.84L55.94 37.84Q54.77 37.84 53.92 38.38Q53.06 38.92 52.6 39.91Q52.13 40.9 52.13 42.25L52.13 42.25L50.24 41.26Q50.6 38.53 51.71 36.66Q52.82 34.78 54.46 33.82Q56.09 32.86 58.04 32.86M71.33 32.86L71.33 32.86Q73.7 32.86 75.36 33.85Q77.03 34.84 77.9 36.64Q78.77 38.44 78.77 40.9L78.77 40.9L78.77 50.5L72.65 50.5L72.65 41.8Q72.65 39.88 71.78 38.86Q70.91 37.84 69.26 37.84L69.26 37.84Q68.09 37.84 67.24 38.38Q66.38 38.92 65.91 39.91Q65.45 40.9 65.45 42.25L65.45 42.25L63.56 41.26Q63.92 38.53 65.02 36.66Q66.11 34.78 67.76 33.82Q69.41 32.86 71.33 32.86M91.82 50.98L91.82 50.98Q88.52 50.98 86.06 49.86Q83.6 48.73 82.22 46.68Q80.84 44.62 80.84 41.95L80.84 41.95Q80.84 39.22 82.22 37.18Q83.6 35.14 86.06 34Q88.52 32.86 91.82 32.86L91.82 32.86Q95.09 32.86 97.57 34Q100.04 35.14 101.42 37.18Q102.8 39.22 102.8 41.95L102.8 41.95Q102.8 44.62 101.42 46.68Q100.04 48.73 97.57 49.86Q95.09 50.98 91.82 50.98M91.82 46.45L91.82 46.45Q93.32 46.45 94.39 45.91Q95.45 45.37 96.02 44.35Q96.59 43.33 96.59 41.95L96.59 41.95Q96.59 40.51 96.02 39.51Q95.45 38.5 94.39 37.96Q93.32 37.42 91.82 37.42L91.82 37.42Q90.32 37.42 89.24 37.96Q88.16 38.5 87.59 39.51Q87.02 40.51 87.02 41.92L87.02 41.92Q87.02 43.33 87.59 44.35Q88.16 45.37 89.24 45.91Q90.32 46.45 91.82 46.45M105.41 39.28L104.27 33.37L110.42 33.37L111.53 40.21L111.53 50.5L105.41 50.5L105.41 39.28M117.83 32.86L117.83 32.86Q120.29 32.86 122.03 33.85Q123.77 34.84 124.69 36.64Q125.6 38.44 125.6 40.9L125.6 40.9L125.6 50.5L119.48 50.5L119.48 41.8Q119.48 39.88 118.51 38.86Q117.53 37.84 115.7 37.84L115.7 37.84Q114.44 37.84 113.5 38.38Q112.55 38.92 112.04 39.91Q111.53 40.9 111.53 42.25L111.53 42.25L109.64 41.26Q110 38.53 111.17 36.66Q112.34 34.78 114.05 33.82Q115.76 32.86 117.83 32.86M130.43 37.9L126.95 37.9L126.95 35.23L130.43 33.82L133.07 28.75L136.55 28.75L136.55 33.37L143.75 33.37L143.75 37.9L136.55 37.9L136.55 42.94Q136.55 44.8 137.3 45.55Q138.05 46.3 140.03 46.3L140.03 46.3Q141.29 46.3 142.27 46.08Q143.24 45.85 144.05 45.49L144.05 45.49L144.05 50.11Q143.15 50.44 141.68 50.71Q140.21 50.98 138.65 50.98L138.65 50.98Q135.8 50.98 133.99 50.11Q132.17 49.24 131.3 47.61Q130.43 45.97 130.43 43.78L130.43 43.78L130.43 37.9M151.88 55.93L151.88 55.93Q149.99 55.93 148.52 55.47Q147.05 55 145.67 54.04L145.67 54.04L145.67 49.78Q147.08 50.68 148.31 51.07Q149.54 51.46 151.01 51.46L151.01 51.46Q152.24 51.46 153.2 50.92Q154.16 50.38 154.76 48.94L154.76 48.94L161.33 33.37L167.84 33.37L159.62 50.83Q158.75 52.72 157.51 53.85Q156.26 54.97 154.82 55.45Q153.38 55.93 151.88 55.93M158 48.91L152.09 48.91L144.8 33.37L151.55 33.37L158 48.91M172.07 50.8L172.07 50.8Q171.11 50.8 170.32 50.35Q169.52 49.9 169.07 49.11Q168.62 48.31 168.62 47.35L168.62 47.35Q168.62 46.39 169.07 45.61Q169.52 44.83 170.32 44.37Q171.11 43.9 172.07 43.9L172.07 43.9Q173.06 43.9 173.84 44.37Q174.62 44.83 175.07 45.61Q175.52 46.39 175.52 47.35L175.52 47.35Q175.52 48.31 175.07 49.11Q174.62 49.9 173.84 50.35Q173.06 50.8 172.07 50.8M190.13 31.48L190.13 31.48Q188.12 31.48 187.33 32.19Q186.53 32.89 186.53 34.45L186.53 34.45L186.53 50.5L180.41 50.5L180.41 34.75Q180.41 32.26 181.43 30.51Q182.45 28.75 184.45 27.84Q186.44 26.92 189.38 26.92L189.38 26.92Q190.7 26.92 191.74 27.1Q192.77 27.28 193.94 27.61L193.94 27.61L193.94 32.11Q193.04 31.78 192.09 31.63Q191.15 31.48 190.13 31.48M193.52 39.31L176.93 39.31L176.93 34.78L193.52 34.78L193.52 39.31M217.16 50.5L210.8 50.5L210.02 44.32L210.83 41.95L210.02 39.58L210.8 33.37L217.16 33.37L216.08 41.92L217.16 50.5M212.24 41.95L212.24 41.95Q211.82 44.65 210.58 46.69Q209.33 48.73 207.43 49.86Q205.52 50.98 203.09 50.98L203.09 50.98Q200.57 50.98 198.67 49.86Q196.76 48.73 195.68 46.68Q194.6 44.62 194.6 41.95L194.6 41.95Q194.6 39.22 195.68 37.18Q196.76 35.14 198.67 34Q200.57 32.86 203.09 32.86L203.09 32.86Q205.52 32.86 207.43 33.99Q209.33 35.11 210.59 37.14Q211.85 39.16 212.24 41.95M200.81 41.95L200.81 41.95Q200.81 43.21 201.33 44.2Q201.86 45.19 202.79 45.75Q203.72 46.3 204.92 46.3L204.92 46.3Q206.18 46.3 207.29 45.75Q208.4 45.19 209.24 44.2Q210.08 43.21 210.5 41.95L210.5 41.95Q210.08 40.66 209.24 39.67Q208.4 38.68 207.29 38.11Q206.18 37.54 204.92 37.54L204.92 37.54Q203.72 37.54 202.79 38.11Q201.86 38.68 201.33 39.67Q200.81 40.66 200.81 41.95M239.66 44.92L239.66 44.92Q239.66 46.9 238.46 48.25Q237.26 49.6 235.04 50.29Q232.82 50.98 229.7 50.98L229.7 50.98Q226.49 50.98 224.08 50.2Q221.66 49.42 220.31 48.01Q218.96 46.6 218.87 44.74L218.87 44.74L225.08 44.74Q225.29 45.43 225.9 45.93Q226.52 46.42 227.54 46.68Q228.56 46.93 229.97 46.93L229.97 46.93Q231.8 46.93 232.74 46.57Q233.69 46.21 233.69 45.49L233.69 45.49Q233.69 44.92 232.97 44.64Q232.25 44.35 230.51 44.2L230.51 44.2L227.48 43.96Q224.45 43.75 222.66 43.05Q220.88 42.34 220.1 41.22Q219.32 40.09 219.32 38.65L219.32 38.65Q219.32 36.7 220.53 35.42Q221.75 34.15 223.93 33.5Q226.1 32.86 229.01 32.86L229.01 32.86Q231.89 32.86 234.14 33.61Q236.39 34.36 237.74 35.7Q239.09 37.03 239.3 38.83L239.3 38.83L233.09 38.83Q232.94 38.26 232.43 37.8Q231.92 37.33 231.02 37.03Q230.12 36.73 228.71 36.73L228.71 36.73Q227.06 36.73 226.21 37.09Q225.35 37.45 225.35 38.11L225.35 38.11Q225.35 38.62 225.87 38.92Q226.4 39.22 227.84 39.34L227.84 39.34L231.83 39.64Q234.8 39.82 236.51 40.5Q238.22 41.17 238.94 42.28Q239.66 43.39 239.66 44.92M243.92 37.9L240.44 37.9L240.44 35.23L243.92 33.82L246.56 28.75L250.04 28.75L250.04 33.37L257.24 33.37L257.24 37.9L250.04 37.9L250.04 42.94Q250.04 44.8 250.79 45.55Q251.54 46.3 253.52 46.3L253.52 46.3Q254.78 46.3 255.75 46.08Q256.73 45.85 257.54 45.49L257.54 45.49L257.54 50.11Q256.64 50.44 255.17 50.71Q253.7 50.98 252.14 50.98L252.14 50.98Q249.29 50.98 247.47 50.11Q245.66 49.24 244.79 47.61Q243.92 45.97 243.92 43.78L243.92 43.78L243.92 37.9" fill="#FFD21E"><title>monty.fast</title></path></g>
</svg>
