<svg width="1080" height="1920" viewBox="0 0 1080 1920" xmlns="http://www.w3.org/2000/svg" role="img" aria-label="Monty">
<defs>
  <filter id="grain" x="0" y="0" width="100%" height="100%">
    <feTurbulence type="fractalNoise" baseFrequency="0.9" numOctaves="3" seed="7" result="n"/>
    <feColorMatrix in="n" type="saturate" values="0"/>
  </filter>
  <filter id="drop" x="-40%" y="-40%" width="180%" height="200%">
    <feDropShadow dx="0" dy="10" stdDeviation="16" flood-color="#000000" flood-opacity="0.45"/>
  </filter>
  <filter id="dropSoft" x="-40%" y="-40%" width="180%" height="200%">
    <feDropShadow dx="0" dy="6" stdDeviation="9" flood-color="#000000" flood-opacity="0.22"/>
  </filter>
  <linearGradient id="screenGrad" x1="0" y1="0" x2="1" y2="1">
    <stop offset="0" stop-color="#2A1E5C"/><stop offset="0.5" stop-color="#161512"/><stop offset="1" stop-color="#0B0A09"/>
  </linearGradient>
  <linearGradient id="neonGrad" x1="0" y1="0" x2="1" y2="0">
    <stop offset="0" stop-color="#6C4DF6"/><stop offset="1" stop-color="#FFD21E"/>
  </linearGradient>
  <radialGradient id="gBanana">
    <stop offset="0" stop-color="#FFD21E" stop-opacity="0.85"/>
    <stop offset="0.55" stop-color="#FFD21E" stop-opacity="0.22"/>
    <stop offset="1" stop-color="#FFD21E" stop-opacity="0"/>
  </radialGradient>
  <radialGradient id="gViolet">
    <stop offset="0" stop-color="#6C4DF6" stop-opacity="0.85"/>
    <stop offset="0.55" stop-color="#6C4DF6" stop-opacity="0.22"/>
    <stop offset="1" stop-color="#6C4DF6" stop-opacity="0"/>
  </radialGradient></defs>
<rect width="1080" height="1920" fill="#0B0A09"/><circle cx="540" cy="700" r="560" fill="url(#gViolet)" opacity="0.5"/><circle cx="540" cy="1400" r="460" fill="url(#gBanana)" opacity="0.35"/><rect width="1080" height="1920" filter="url(#grain)" opacity="0.055"/>
<g transform="translate(444,700) scale(1.5)">
    <circle cx="30" cy="52" r="19" fill="#FBF7EF"/><circle cx="98" cy="52" r="19" fill="#FBF7EF"/>
    <circle cx="30" cy="52" r="9" fill="#FFD21E"/><circle cx="98" cy="52" r="9" fill="#FFD21E"/>
    <rect x="28" y="26" width="72" height="80" rx="36" fill="#FBF7EF"/>
    <circle cx="64" cy="70" r="30" fill="#161512"/>
    <path d="M57 55 L57 85 L84 70 Z" fill="#FFD21E" stroke="#FFD21E" stroke-width="5" stroke-linejoin="round"/>
  </g>
<path d="M395.07 1030L380.96 1030L380.96 974.45L394.85 974.45L394.85 980.5L396.86 980.5Q398.32 977.7 401.68 975.62Q405.04 973.55 410.53 973.55L410.53 973.55Q416.46 973.55 420.05 975.85Q423.63 978.14 425.54 981.84L425.54 981.84L427.55 981.84Q429.46 978.26 432.93 975.9Q436.4 973.55 442.78 973.55L442.78 973.55Q447.94 973.55 452.14 975.74Q456.34 977.92 458.86 982.34Q461.38 986.77 461.38 993.49L461.38 993.49L461.38 1030L447.26 1030L447.26 994.5Q447.26 989.9 444.91 987.61Q442.56 985.31 438.3 985.31L438.3 985.31Q433.49 985.31 430.86 988.39Q428.22 991.47 428.22 997.18L428.22 997.18L428.22 1030L414.11 1030L414.11 994.5Q414.11 989.9 411.76 987.61Q409.41 985.31 405.15 985.31L405.15 985.31Q400.34 985.31 397.7 988.39Q395.07 991.47 395.07 997.18L395.07 997.18L395.07 1030M498.56 1031.57L498.56 1031.57Q490.27 1031.57 483.66 1028.21Q477.06 1024.85 473.25 1018.46Q469.44 1012.08 469.44 1003.12L469.44 1003.12L469.44 1001.33Q469.44 992.37 473.25 985.98Q477.06 979.6 483.66 976.24Q490.27 972.88 498.56 972.88L498.56 972.88Q506.85 972.88 513.46 976.24Q520.06 979.6 523.87 985.98Q527.68 992.37 527.68 1001.33L527.68 1001.33L527.68 1003.12Q527.68 1012.08 523.87 1018.46Q520.06 1024.85 513.46 1028.21Q506.85 1031.57 498.56 1031.57M498.56 1019.02L498.56 1019.02Q505.06 1019.02 509.31 1014.82Q513.57 1010.62 513.57 1002.78L513.57 1002.78L513.57 1001.66Q513.57 993.82 509.37 989.62Q505.17 985.42 498.56 985.42L498.56 985.42Q492.06 985.42 487.81 989.62Q483.55 993.82 483.55 1001.66L483.55 1001.66L483.55 1002.78Q483.55 1010.62 487.81 1014.82Q492.06 1019.02 498.56 1019.02M550.3 1030L536.19 1030L536.19 974.45L550.08 974.45L550.08 981.73L552.1 981.73Q553.44 978.82 557.14 976.18Q560.83 973.55 568.34 973.55L568.34 973.55Q574.83 973.55 579.7 976.52Q584.58 979.49 587.26 984.7Q589.95 989.9 589.95 996.85L589.95 996.85L589.95 1030L575.84 1030L575.84 997.97Q575.84 991.7 572.76 988.56Q569.68 985.42 563.97 985.42L563.97 985.42Q557.47 985.42 553.89 989.74Q550.3 994.05 550.3 1001.78L550.3 1001.78L550.3 1030M636.1 1030L620.42 1030Q614.93 1030 611.51 1026.58Q608.1 1023.17 608.1 1017.46L608.1 1017.46L608.1 986.1L594.21 986.1L594.21 974.45L608.1 974.45L608.1 957.2L622.21 957.2L622.21 974.45L637.44 974.45L637.44 986.1L622.21 986.1L622.21 1014.99Q622.21 1018.35 625.34 1018.35L625.34 1018.35L636.1 1018.35L636.1 1030M686.72 1052.4L651.78 1052.4L651.78 1040.08L682.02 1040.08Q685.15 1040.08 685.15 1036.72L685.15 1036.72L685.15 1022.72L683.14 1022.72Q682.24 1024.62 680.34 1026.53Q678.43 1028.43 675.18 1029.66Q671.94 1030.9 666.9 1030.9L666.9 1030.9Q660.4 1030.9 655.53 1027.93Q650.66 1024.96 647.97 1019.7Q645.28 1014.43 645.28 1007.6L645.28 1007.6L645.28 974.45L659.39 974.45L659.39 1006.48Q659.39 1012.75 662.47 1015.89Q665.55 1019.02 671.26 1019.02L671.26 1019.02Q677.76 1019.02 681.34 1014.71Q684.93 1010.4 684.93 1002.67L684.93 1002.67L684.93 974.45L699.04 974.45L699.04 1039.86Q699.04 1045.57 695.68 1048.98Q692.32 1052.4 686.72 1052.4L686.72 1052.4" fill="#FBF7EF"><title>monty</title></path>
<path d="M175.23 1090.33L175.23 1090.33Q172.21 1090.33 169.86 1088.85Q167.51 1087.38 166.16 1084.69Q164.8 1082 164.8 1078.38L164.8 1078.38Q164.8 1074.73 166.16 1072.05Q167.51 1069.36 169.86 1067.88Q172.21 1066.39 175.23 1066.39L175.23 1066.39Q178.26 1066.39 180.6 1067.88Q182.95 1069.36 184.29 1072.05Q185.63 1074.73 185.63 1078.38L185.63 1078.38Q185.63 1082 184.29 1084.69Q182.95 1087.38 180.6 1088.85Q178.26 1090.33 175.23 1090.33M175.23 1087.63L175.23 1087.63Q177.32 1087.63 179.03 1086.56Q180.74 1085.5 181.76 1083.43Q182.77 1081.36 182.77 1078.38L182.77 1078.38Q182.77 1075.36 181.76 1073.29Q180.74 1071.22 179.03 1070.16Q177.32 1069.09 175.23 1069.09L175.23 1069.09Q173.13 1069.09 171.42 1070.16Q169.71 1071.23 168.7 1073.3Q167.68 1075.38 167.68 1078.38L167.68 1078.38Q167.68 1081.36 168.7 1083.42Q169.71 1085.48 171.42 1086.55Q173.13 1087.63 175.23 1087.63M196.16 1090L193.41 1090L193.41 1075.33L187.65 1075.33L187.65 1072.86L201.9 1072.86L201.9 1075.33L196.16 1075.33L196.16 1090M227.09 1072.86L227.09 1090L224.3 1090L224.3 1077.5L224.16 1077.5L215.82 1090L213.15 1090L213.15 1072.86L215.91 1072.86L215.91 1085.39L216.07 1085.39L224.43 1072.86L227.09 1072.86M232.68 1095.02L229.91 1095.02L229.91 1087.44L231.35 1087.44Q231.88 1086.89 232.28 1086.25Q232.68 1085.61 232.96 1084.73Q233.24 1083.86 233.45 1082.6Q233.65 1081.34 233.8 1079.56L233.8 1079.56L234.38 1072.86L245.6 1072.86L245.6 1087.44L248.26 1087.44L248.26 1095.02L245.51 1095.02L245.51 1090L232.68 1090L232.68 1095.02M234.51 1087.44L234.51 1087.44L242.85 1087.44L242.85 1075.42L236.9 1075.42L236.51 1079.56Q236.26 1082.27 235.83 1084.25Q235.4 1086.23 234.51 1087.44M257.84 1090.38L257.84 1090.38Q255.34 1090.38 253.55 1089.26Q251.76 1088.14 250.79 1086.15Q249.82 1084.16 249.82 1081.53L249.82 1081.53Q249.82 1078.91 250.79 1076.89Q251.76 1074.88 253.5 1073.73Q255.24 1072.58 257.55 1072.58L257.55 1072.58Q259.05 1072.58 260.41 1073.09Q261.77 1073.61 262.84 1074.68Q263.9 1075.75 264.52 1077.39Q265.13 1079.03 265.13 1081.3L265.13 1081.3L265.13 1082.31L251.57 1082.31L251.57 1079.97L263.62 1079.97L262.37 1080.83Q262.37 1079.11 261.8 1077.8Q261.24 1076.5 260.17 1075.77Q259.1 1075.05 257.55 1075.05L257.55 1075.05Q256.01 1075.05 254.9 1075.79Q253.79 1076.53 253.2 1077.77Q252.6 1079.02 252.6 1080.52L252.6 1080.52L252.6 1081.95Q252.6 1083.81 253.24 1085.15Q253.88 1086.48 255.06 1087.2Q256.24 1087.91 257.85 1087.91L257.85 1087.91Q258.93 1087.91 259.79 1087.59Q260.65 1087.27 261.25 1086.65Q261.85 1086.03 262.15 1085.14L262.15 1085.14L264.85 1085.64Q264.48 1087.05 263.5 1088.11Q262.52 1089.17 261.08 1089.77Q259.63 1090.38 257.84 1090.38M282.76 1072.86L282.76 1090L279.98 1090L279.98 1077.5L279.84 1077.5L271.49 1090L268.82 1090L268.82 1072.86L271.59 1072.86L271.59 1085.39L271.74 1085.39L280.1 1072.86L282.76 1072.86M297.02 1095.02L294.26 1095.02L294.26 1087.44L295.7 1087.44Q296.23 1086.89 296.63 1086.25Q297.02 1085.61 297.3 1084.73Q297.59 1083.86 297.79 1082.6Q297.99 1081.34 298.15 1079.56L298.15 1079.56L298.73 1072.86L309.95 1072.86L309.95 1087.44L312.6 1087.44L312.6 1095.02L309.85 1095.02L309.85 1090L297.02 1090L297.02 1095.02M298.85 1087.44L298.85 1087.44L307.2 1087.44L307.2 1075.42L301.24 1075.42L300.85 1079.56Q300.6 1082.27 300.17 1084.25Q299.74 1086.23 298.85 1087.44M322.02 1090.38L322.02 1090.38Q319.68 1090.38 317.91 1089.26Q316.15 1088.14 315.16 1086.14Q314.16 1084.14 314.16 1081.52L314.16 1081.52Q314.16 1078.84 315.16 1076.84Q316.15 1074.83 317.91 1073.7Q319.68 1072.58 322.02 1072.58L322.02 1072.58Q324.38 1072.58 326.16 1073.7Q327.93 1074.83 328.91 1076.84Q329.9 1078.84 329.9 1081.52L329.9 1081.52Q329.9 1084.14 328.91 1086.14Q327.93 1088.14 326.16 1089.26Q324.38 1090.38 322.02 1090.38M322.02 1087.89L322.02 1087.89Q323.73 1087.89 324.85 1087.03Q325.98 1086.17 326.54 1084.73Q327.1 1083.28 327.1 1081.52L327.1 1081.52Q327.1 1079.72 326.54 1078.26Q325.98 1076.8 324.85 1075.93Q323.73 1075.06 322.02 1075.06L322.02 1075.06Q320.34 1075.06 319.22 1075.93Q318.1 1076.8 317.54 1078.26Q316.98 1079.72 316.98 1081.52L316.98 1081.52Q316.98 1083.28 317.54 1084.73Q318.1 1086.17 319.22 1087.03Q320.34 1087.89 322.02 1087.89M345.09 1096.53L342.32 1096.53L342.32 1072.86L345.01 1072.86L345.01 1075.53L345.23 1075.53Q345.6 1074.91 346.23 1074.23Q346.85 1073.56 347.85 1073.09Q348.85 1072.61 350.34 1072.61L350.34 1072.61Q352.51 1072.61 354.16 1073.7Q355.8 1074.78 356.73 1076.77Q357.66 1078.77 357.66 1081.45L357.66 1081.45Q357.66 1084.16 356.74 1086.16Q355.82 1088.16 354.17 1089.26Q352.52 1090.36 350.35 1090.36L350.35 1090.36Q348.88 1090.36 347.89 1089.88Q346.9 1089.39 346.27 1088.7Q345.63 1088 345.24 1087.36L345.24 1087.36L345.09 1087.36L345.09 1096.53M349.93 1087.88L349.93 1087.88Q351.51 1087.88 352.6 1087.05Q353.7 1086.23 354.27 1084.78Q354.85 1083.33 354.85 1081.44L354.85 1081.44Q354.85 1079.55 354.28 1078.12Q353.71 1076.69 352.61 1075.88Q351.51 1075.08 349.93 1075.08L349.93 1075.08Q348.35 1075.08 347.24 1075.88Q346.13 1076.67 345.56 1078.09Q344.99 1079.52 344.99 1081.44L344.99 1081.44Q344.99 1083.34 345.57 1084.8Q346.15 1086.25 347.26 1087.06Q348.37 1087.88 349.93 1087.88M368.43 1090.38L368.43 1090.38Q366.09 1090.38 364.32 1089.26Q362.55 1088.14 361.56 1086.14Q360.57 1084.14 360.57 1081.52L360.57 1081.52Q360.57 1078.84 361.56 1076.84Q362.55 1074.83 364.32 1073.7Q366.09 1072.58 368.43 1072.58L368.43 1072.58Q370.79 1072.58 372.56 1073.7Q374.34 1074.83 375.32 1076.84Q376.3 1078.84 376.3 1081.52L376.3 1081.52Q376.3 1084.14 375.32 1086.14Q374.34 1088.14 372.56 1089.26Q370.79 1090.38 368.43 1090.38M368.43 1087.89L368.43 1087.89Q370.13 1087.89 371.26 1087.03Q372.38 1086.17 372.95 1084.73Q373.51 1083.28 373.51 1081.52L373.51 1081.52Q373.51 1079.72 372.95 1078.26Q372.38 1076.8 371.26 1075.93Q370.13 1075.06 368.43 1075.06L368.43 1075.06Q366.74 1075.06 365.63 1075.93Q364.51 1076.8 363.95 1078.26Q363.38 1079.72 363.38 1081.52L363.38 1081.52Q363.38 1083.28 363.95 1084.73Q364.51 1086.17 365.63 1087.03Q366.74 1087.89 368.43 1087.89M378.98 1090L378.04 1090L378.04 1087.44L378.66 1087.44Q379.45 1087.44 379.96 1087.16Q380.48 1086.88 380.8 1086.13Q381.13 1085.39 381.31 1084.02Q381.49 1082.66 381.59 1080.45L381.59 1080.45L381.9 1072.86L393.63 1072.86L393.63 1090L390.85 1090L390.85 1075.42L384.52 1075.42L384.26 1081.44Q384.12 1084.31 383.62 1086.22Q383.12 1088.13 382.02 1089.06Q380.91 1090 378.98 1090L378.98 1090M412.16 1072.86L412.16 1090L409.38 1090L409.38 1077.5L409.24 1077.5L400.9 1090L398.23 1090L398.23 1072.86L400.99 1072.86L400.99 1085.39L401.15 1085.39L409.51 1072.86L412.16 1072.86M419.52 1090L416.76 1090L416.76 1072.86L419.52 1072.86L419.52 1080.27L421.29 1080.27L427.54 1072.86L431.04 1072.86L424.05 1081.14L431.13 1090L427.63 1090L421.96 1082.83L419.52 1082.83L419.52 1090M438.65 1090.36L438.65 1090.36Q437.01 1090.36 435.67 1089.75Q434.34 1089.14 433.55 1087.97Q432.77 1086.8 432.77 1085.11L432.77 1085.11Q432.77 1083.63 433.35 1082.7Q433.93 1081.78 434.9 1081.26Q435.87 1080.73 437.06 1080.47Q438.26 1080.2 439.49 1080.05L439.49 1080.05Q441.05 1079.83 442.02 1079.72Q442.98 1079.61 443.42 1079.35Q443.87 1079.09 443.87 1078.45L443.87 1078.45L443.87 1078.34Q443.87 1077.31 443.45 1076.58Q443.04 1075.84 442.22 1075.44Q441.4 1075.03 440.21 1075.03L440.21 1075.03Q438.99 1075.03 438.1 1075.42Q437.21 1075.81 436.67 1076.42Q436.13 1077.03 435.91 1077.7L435.91 1077.7L433.21 1077.11Q433.7 1075.55 434.74 1074.55Q435.79 1073.56 437.2 1073.09Q438.6 1072.61 440.15 1072.61L440.15 1072.61Q441.21 1072.61 442.34 1072.88Q443.48 1073.14 444.45 1073.8Q445.41 1074.45 446.02 1075.61Q446.62 1076.77 446.62 1078.53L446.62 1078.53L446.62 1090L443.9 1090L443.9 1087.64L443.74 1087.64Q443.45 1088.23 442.82 1088.87Q442.2 1089.5 441.17 1089.93Q440.15 1090.36 438.65 1090.36M439.1 1087.91L439.1 1087.91Q440.68 1087.91 441.74 1087.3Q442.8 1086.7 443.34 1085.74Q443.87 1084.78 443.87 1083.7L443.87 1083.7L443.87 1081.41Q443.7 1081.59 443.17 1081.74Q442.65 1081.89 441.95 1082.02Q441.26 1082.14 440.56 1082.23Q439.87 1082.33 439.37 1082.39L439.37 1082.39Q438.37 1082.52 437.49 1082.82Q436.62 1083.13 436.09 1083.7Q435.55 1084.27 435.55 1085.25L435.55 1085.25Q435.55 1086.11 436.01 1086.7Q436.46 1087.3 437.26 1087.6Q438.05 1087.91 439.1 1087.91M468.04 1090L459.88 1090L459.88 1072.86L466.95 1072.86Q469.77 1072.86 471.45 1074.09Q473.12 1075.31 473.12 1077.42L473.12 1077.42Q473.12 1078.94 472.23 1079.8Q471.35 1080.67 469.85 1080.98L469.85 1080.98Q470.84 1081.13 471.73 1081.65Q472.63 1082.17 473.21 1083.08Q473.79 1083.98 473.79 1085.31L473.79 1085.31Q473.79 1086.67 473.09 1087.73Q472.4 1088.8 471.12 1089.4Q469.84 1090 468.04 1090L468.04 1090M462.51 1082.38L462.51 1087.47L468.04 1087.47Q469.41 1087.47 470.18 1086.84Q470.95 1086.22 470.95 1085.13L470.95 1085.13Q470.95 1083.81 470.18 1083.09Q469.41 1082.38 468.04 1082.38L468.04 1082.38L462.51 1082.38M462.51 1075.39L462.51 1080.03L466.99 1080.03Q468.57 1080.03 469.45 1079.4Q470.34 1078.77 470.34 1077.64L470.34 1077.64Q470.34 1076.58 469.44 1075.98Q468.54 1075.39 466.95 1075.39L466.95 1075.39L462.51 1075.39M484.54 1090.38L484.54 1090.38Q482.2 1090.38 480.43 1089.26Q478.66 1088.14 477.67 1086.14Q476.68 1084.14 476.68 1081.52L476.68 1081.52Q476.68 1078.84 477.67 1076.84Q478.66 1074.83 480.43 1073.7Q482.2 1072.58 484.54 1072.58L484.54 1072.58Q486.9 1072.58 488.67 1073.7Q490.45 1074.83 491.43 1076.84Q492.41 1078.84 492.41 1081.52L492.41 1081.52Q492.41 1084.14 491.43 1086.14Q490.45 1088.14 488.67 1089.26Q486.9 1090.38 484.54 1090.38M484.54 1087.89L484.54 1087.89Q486.24 1087.89 487.37 1087.03Q488.49 1086.17 489.05 1084.73Q489.62 1083.28 489.62 1081.52L489.62 1081.52Q489.62 1079.72 489.05 1078.26Q488.49 1076.8 487.37 1075.93Q486.24 1075.06 484.54 1075.06L484.54 1075.06Q482.85 1075.06 481.73 1075.93Q480.62 1076.8 480.05 1078.26Q479.49 1079.72 479.49 1081.52L479.49 1081.52Q479.49 1083.28 480.05 1084.73Q480.62 1086.17 481.73 1087.03Q482.85 1087.89 484.54 1087.89M512.99 1090L504.84 1090L504.84 1072.86L511.9 1072.86Q514.73 1072.86 516.4 1074.09Q518.07 1075.31 518.07 1077.42L518.07 1077.42Q518.07 1078.94 517.19 1079.8Q516.3 1080.67 514.8 1080.98L514.8 1080.98Q515.79 1081.13 516.69 1081.65Q517.59 1082.17 518.16 1083.08Q518.74 1083.98 518.74 1085.31L518.74 1085.31Q518.74 1086.67 518.05 1087.73Q517.35 1088.8 516.07 1089.4Q514.79 1090 512.99 1090L512.99 1090M507.46 1082.38L507.46 1087.47L512.99 1087.47Q514.37 1087.47 515.13 1086.84Q515.9 1086.22 515.9 1085.13L515.9 1085.13Q515.9 1083.81 515.13 1083.09Q514.37 1082.38 512.99 1082.38L512.99 1082.38L507.46 1082.38M507.46 1075.39L507.46 1080.03L511.95 1080.03Q513.52 1080.03 514.41 1079.4Q515.29 1078.77 515.29 1077.64L515.29 1077.64Q515.29 1076.58 514.39 1075.98Q513.49 1075.39 511.9 1075.39L511.9 1075.39L507.46 1075.39M529.49 1090.38L529.49 1090.38Q527.15 1090.38 525.38 1089.26Q523.62 1088.14 522.63 1086.14Q521.63 1084.14 521.63 1081.52L521.63 1081.52Q521.63 1078.84 522.63 1076.84Q523.62 1074.83 525.38 1073.7Q527.15 1072.58 529.49 1072.58L529.49 1072.58Q530.8 1072.58 531.95 1072.95Q533.1 1073.31 534.02 1073.98Q534.95 1074.64 535.59 1075.59Q536.23 1076.55 536.52 1077.72L536.52 1077.72L533.84 1078.23Q533.66 1077.53 533.29 1076.95Q532.91 1076.38 532.36 1075.95Q531.8 1075.53 531.09 1075.3Q530.37 1075.06 529.49 1075.06L529.49 1075.06Q527.8 1075.06 526.69 1075.93Q525.57 1076.8 525.01 1078.26Q524.45 1079.72 524.45 1081.52L524.45 1081.52Q524.45 1083.28 525.01 1084.73Q525.57 1086.17 526.69 1087.03Q527.8 1087.89 529.49 1087.89L529.49 1087.89Q530.38 1087.89 531.11 1087.66Q531.84 1087.42 532.38 1086.99Q532.93 1086.56 533.3 1085.96Q533.68 1085.36 533.87 1084.64L533.87 1084.64L536.57 1085.14Q536.29 1086.33 535.64 1087.29Q534.99 1088.25 534.06 1088.95Q533.13 1089.64 531.97 1090.01Q530.8 1090.38 529.49 1090.38M547.41 1090.38L547.41 1090.38Q544.91 1090.38 543.13 1089.26Q541.34 1088.14 540.37 1086.15Q539.4 1084.16 539.4 1081.53L539.4 1081.53Q539.4 1078.91 540.37 1076.89Q541.34 1074.88 543.08 1073.73Q544.82 1072.58 547.13 1072.58L547.13 1072.58Q548.63 1072.58 549.99 1073.09Q551.35 1073.61 552.41 1074.68Q553.48 1075.75 554.09 1077.39Q554.71 1079.03 554.71 1081.3L554.71 1081.3L554.71 1082.31L541.15 1082.31L541.15 1079.97L553.2 1079.97L551.95 1080.83Q551.95 1079.11 551.38 1077.8Q550.82 1076.5 549.75 1075.77Q548.68 1075.05 547.13 1075.05L547.13 1075.05Q545.59 1075.05 544.48 1075.79Q543.37 1076.53 542.77 1077.77Q542.18 1079.02 542.18 1080.52L542.18 1080.52L542.18 1081.95Q542.18 1083.81 542.82 1085.15Q543.46 1086.48 544.64 1087.2Q545.82 1087.91 547.43 1087.91L547.43 1087.91Q548.51 1087.91 549.37 1087.59Q550.23 1087.27 550.83 1086.65Q551.43 1086.03 551.73 1085.14L551.73 1085.14L554.43 1085.64Q554.05 1087.05 553.08 1088.11Q552.1 1089.17 550.66 1089.77Q549.21 1090.38 547.41 1090.38M559.34 1090L556.13 1090L563.04 1080.16L563.02 1082.28L556.49 1072.86L559.73 1072.86L561.91 1076.2Q562.71 1077.39 563.34 1078.48Q563.96 1079.56 564.62 1080.59L564.62 1080.59L563.2 1080.59Q563.87 1079.56 564.45 1078.48Q565.04 1077.39 565.84 1076.2L565.84 1076.2L568.07 1072.86L571.24 1072.86L564.7 1082.36L564.7 1080.28L571.52 1090L568.3 1090L565.73 1086.14Q564.96 1084.97 564.35 1083.93Q563.74 1082.89 563.1 1081.89L563.1 1081.89L564.52 1081.89Q563.88 1082.89 563.3 1083.93Q562.73 1084.97 561.95 1086.14L561.95 1086.14L559.34 1090M590.34 1090.38L590.34 1090.38Q587.99 1090.38 586.23 1089.26Q584.46 1088.14 583.47 1086.14Q582.48 1084.14 582.48 1081.52L582.48 1081.52Q582.48 1078.84 583.47 1076.84Q584.46 1074.83 586.23 1073.7Q587.99 1072.58 590.34 1072.58L590.34 1072.58Q591.65 1072.58 592.8 1072.95Q593.95 1073.31 594.87 1073.98Q595.79 1074.64 596.43 1075.59Q597.07 1076.55 597.37 1077.72L597.37 1077.72L594.68 1078.23Q594.51 1077.53 594.13 1076.95Q593.76 1076.38 593.2 1075.95Q592.65 1075.53 591.93 1075.3Q591.21 1075.06 590.34 1075.06L590.34 1075.06Q588.65 1075.06 587.53 1075.93Q586.41 1076.8 585.85 1078.26Q585.29 1079.72 585.29 1081.52L585.29 1081.52Q585.29 1083.28 585.85 1084.73Q586.41 1086.17 587.53 1087.03Q588.65 1087.89 590.34 1087.89L590.34 1087.89Q591.23 1087.89 591.95 1087.66Q592.68 1087.42 593.23 1086.99Q593.77 1086.56 594.15 1085.96Q594.52 1085.36 594.71 1084.64L594.71 1084.64L597.41 1085.14Q597.13 1086.33 596.48 1087.29Q595.84 1088.25 594.91 1088.95Q593.98 1089.64 592.81 1090.01Q591.65 1090.38 590.34 1090.38M608.1 1090.38L608.1 1090.38Q605.76 1090.38 603.99 1089.26Q602.23 1088.14 601.23 1086.14Q600.24 1084.14 600.24 1081.52L600.24 1081.52Q600.24 1078.84 601.23 1076.84Q602.23 1074.83 603.99 1073.7Q605.76 1072.58 608.1 1072.58L608.1 1072.58Q610.46 1072.58 612.23 1073.7Q614.01 1074.83 614.99 1076.84Q615.98 1078.84 615.98 1081.52L615.98 1081.52Q615.98 1084.14 614.99 1086.14Q614.01 1088.14 612.23 1089.26Q610.46 1090.38 608.1 1090.38M608.1 1087.89L608.1 1087.89Q609.8 1087.89 610.93 1087.03Q612.05 1086.17 612.62 1084.73Q613.18 1083.28 613.18 1081.52L613.18 1081.52Q613.18 1079.72 612.62 1078.26Q612.05 1076.8 610.93 1075.93Q609.8 1075.06 608.1 1075.06L608.1 1075.06Q606.41 1075.06 605.3 1075.93Q604.18 1076.8 603.62 1078.26Q603.05 1079.72 603.05 1081.52L603.05 1081.52Q603.05 1083.28 603.62 1084.73Q604.18 1086.17 605.3 1087.03Q606.41 1087.89 608.1 1087.89M633.55 1090L619.73 1090L619.73 1072.86L622.49 1072.86L622.49 1087.44L630.79 1087.44L630.79 1072.86L633.55 1072.86L633.55 1090M635.77 1095L633.02 1095L633.02 1090L631.85 1090L631.85 1087.44L635.79 1087.44L635.77 1095M645.1 1090.38L645.1 1090.38Q642.76 1090.38 640.99 1089.26Q639.23 1088.14 638.23 1086.14Q637.24 1084.14 637.24 1081.52L637.24 1081.52Q637.24 1078.84 638.23 1076.84Q639.23 1074.83 640.99 1073.7Q642.76 1072.58 645.1 1072.58L645.1 1072.58Q646.41 1072.58 647.56 1072.95Q648.71 1073.31 649.63 1073.98Q650.55 1074.64 651.2 1075.59Q651.84 1076.55 652.13 1077.72L652.13 1077.72L649.45 1078.23Q649.27 1077.53 648.9 1076.95Q648.52 1076.38 647.97 1075.95Q647.41 1075.53 646.7 1075.3Q645.98 1075.06 645.1 1075.06L645.1 1075.06Q643.41 1075.06 642.3 1075.93Q641.18 1076.8 640.62 1078.26Q640.05 1079.72 640.05 1081.52L640.05 1081.52Q640.05 1083.28 640.62 1084.73Q641.18 1086.17 642.3 1087.03Q643.41 1087.89 645.1 1087.89L645.1 1087.89Q645.99 1087.89 646.72 1087.66Q647.45 1087.42 647.99 1086.99Q648.54 1086.56 648.91 1085.96Q649.29 1085.36 649.48 1084.64L649.48 1084.64L652.18 1085.14Q651.9 1086.33 651.25 1087.29Q650.6 1088.25 649.67 1088.95Q648.74 1089.64 647.58 1090.01Q646.41 1090.38 645.1 1090.38M663.02 1090.38L663.02 1090.38Q660.52 1090.38 658.73 1089.26Q656.95 1088.14 655.98 1086.15Q655.01 1084.16 655.01 1081.53L655.01 1081.53Q655.01 1078.91 655.98 1076.89Q656.95 1074.88 658.69 1073.73Q660.43 1072.58 662.74 1072.58L662.74 1072.58Q664.24 1072.58 665.6 1073.09Q666.96 1073.61 668.02 1074.68Q669.09 1075.75 669.7 1077.39Q670.32 1079.03 670.32 1081.3L670.32 1081.3L670.32 1082.31L656.76 1082.31L656.76 1079.97L668.8 1079.97L667.55 1080.83Q667.55 1079.11 666.99 1077.8Q666.43 1076.5 665.36 1075.77Q664.29 1075.05 662.74 1075.05L662.74 1075.05Q661.2 1075.05 660.09 1075.79Q658.98 1076.53 658.38 1077.77Q657.79 1079.02 657.79 1080.52L657.79 1080.52L657.79 1081.95Q657.79 1083.81 658.43 1085.15Q659.07 1086.48 660.25 1087.2Q661.43 1087.91 663.04 1087.91L663.04 1087.91Q664.12 1087.91 664.98 1087.59Q665.84 1087.27 666.44 1086.65Q667.04 1086.03 667.34 1085.14L667.34 1085.14L670.04 1085.64Q669.66 1087.05 668.69 1088.11Q667.71 1089.17 666.27 1089.77Q664.82 1090.38 663.02 1090.38M680.51 1090L677.76 1090L677.76 1075.33L671.99 1075.33L671.99 1072.86L686.24 1072.86L686.24 1075.33L680.51 1075.33L680.51 1090M701.62 1072.86L701.62 1090L698.87 1090L698.87 1075.27L694.77 1075.27Q692.59 1075.27 691.62 1076.04Q690.65 1076.81 690.65 1078.28L690.65 1078.28Q690.65 1079.73 691.63 1080.49Q692.6 1081.25 694.79 1081.25L694.79 1081.25L700.05 1081.25L700.05 1083.56L694.59 1083.56Q691.26 1083.56 689.58 1082.13Q687.9 1080.7 687.9 1078.28L687.9 1078.28Q687.9 1075.81 689.57 1074.34Q691.24 1072.86 694.55 1072.86L694.55 1072.86L701.62 1072.86M695.09 1082.25L690.3 1090L687.13 1090L692.01 1082.25L695.09 1082.25M707.95 1090L704.74 1090L711.65 1080.16L711.63 1082.28L705.1 1072.86L708.34 1072.86L710.52 1076.2Q711.32 1077.39 711.95 1078.48Q712.57 1079.56 713.23 1080.59L713.23 1080.59L711.8 1080.59Q712.48 1079.56 713.06 1078.48Q713.65 1077.39 714.45 1076.2L714.45 1076.2L716.68 1072.86L719.85 1072.86L713.3 1082.36L713.3 1080.28L720.13 1090L716.91 1090L714.34 1086.14Q713.57 1084.97 712.96 1083.93Q712.35 1082.89 711.71 1081.89L711.71 1081.89L713.13 1081.89Q712.49 1082.89 711.91 1083.93Q711.34 1084.97 710.55 1086.14L710.55 1086.14L707.95 1090M737.38 1090.22L737.38 1090.22Q735.59 1090.22 734.15 1089.63Q732.71 1089.03 731.87 1087.98Q731.02 1086.92 730.99 1085.53L730.99 1085.53L733.79 1085.53Q733.84 1086.56 734.87 1087.22Q735.9 1087.88 737.37 1087.88L737.37 1087.88Q738.96 1087.88 739.97 1087.09Q740.98 1086.31 740.98 1085.11L740.98 1085.11Q740.98 1083.84 739.91 1083.05Q738.85 1082.27 737.01 1082.27L737.01 1082.27L735.84 1082.27L735.84 1080.17L737.01 1080.17Q738.52 1080.17 739.5 1079.44Q740.48 1078.7 740.48 1077.48L740.48 1077.48Q740.48 1076.33 739.64 1075.6Q738.8 1074.88 737.43 1074.88L737.43 1074.88Q736.07 1074.88 735.07 1075.55Q734.07 1076.22 734.04 1077.34L734.04 1077.34L731.37 1077.34Q731.4 1075.94 732.22 1074.87Q733.04 1073.8 734.41 1073.2Q735.79 1072.61 737.45 1072.61L737.45 1072.61Q739.2 1072.61 740.48 1073.25Q741.76 1073.89 742.46 1074.96Q743.16 1076.03 743.16 1077.34L743.16 1077.34Q743.16 1078.84 742.24 1079.82Q741.32 1080.8 739.88 1081.09L739.88 1081.09L739.88 1081.19Q741.8 1081.48 742.82 1082.58Q743.84 1083.67 743.84 1085.27L743.84 1085.27Q743.84 1086.7 743 1087.82Q742.16 1088.94 740.71 1089.58Q739.26 1090.22 737.38 1090.22M752.38 1090.36L752.38 1090.36Q750.74 1090.36 749.41 1089.75Q748.07 1089.14 747.29 1087.97Q746.51 1086.8 746.51 1085.11L746.51 1085.11Q746.51 1083.63 747.09 1082.7Q747.66 1081.78 748.63 1081.26Q749.6 1080.73 750.8 1080.47Q751.99 1080.2 753.23 1080.05L753.23 1080.05Q754.79 1079.83 755.75 1079.72Q756.71 1079.61 757.16 1079.35Q757.6 1079.09 757.6 1078.45L757.6 1078.45L757.6 1078.34Q757.6 1077.31 757.19 1076.58Q756.77 1075.84 755.95 1075.44Q755.13 1075.03 753.95 1075.03L753.95 1075.03Q752.73 1075.03 751.84 1075.42Q750.95 1075.81 750.41 1076.42Q749.87 1077.03 749.65 1077.7L749.65 1077.7L746.95 1077.11Q747.43 1075.55 748.48 1074.55Q749.52 1073.56 750.93 1073.09Q752.34 1072.61 753.88 1072.61L753.88 1072.61Q754.95 1072.61 756.08 1072.88Q757.21 1073.14 758.18 1073.8Q759.15 1074.45 759.75 1075.61Q760.35 1076.77 760.35 1078.53L760.35 1078.53L760.35 1090L757.63 1090L757.63 1087.64L757.48 1087.64Q757.18 1088.23 756.55 1088.87Q755.93 1089.5 754.91 1089.93Q753.88 1090.36 752.38 1090.36M752.84 1087.91L752.84 1087.91Q754.41 1087.91 755.48 1087.3Q756.54 1086.7 757.07 1085.74Q757.6 1084.78 757.6 1083.7L757.6 1083.7L757.6 1081.41Q757.43 1081.59 756.91 1081.74Q756.38 1081.89 755.69 1082.02Q754.99 1082.14 754.3 1082.23Q753.6 1082.33 753.1 1082.39L753.1 1082.39Q752.1 1082.52 751.23 1082.82Q750.35 1083.13 749.82 1083.7Q749.29 1084.27 749.29 1085.25L749.29 1085.25Q749.29 1086.11 749.74 1086.7Q750.2 1087.3 750.99 1087.6Q751.79 1087.91 752.84 1087.91M790.2 1084.97L772.84 1084.97L772.84 1082.58L783.35 1066.72L785.12 1066.72L785.12 1070.25L783.98 1070.25L776.02 1082.27L776.02 1082.39L790.2 1082.39L790.2 1084.97M786.9 1090L784.1 1090L784.1 1084.27L784.12 1083.14L784.12 1066.72L786.9 1066.72L786.9 1090M805.41 1090L802.66 1090L802.66 1072.86L806.8 1072.86L810.9 1082.55Q811.23 1083.34 811.49 1084.05Q811.76 1084.77 811.97 1085.41Q812.18 1086.06 812.37 1086.7Q812.55 1087.33 812.73 1087.97L812.73 1087.97L812.23 1087.97Q812.4 1087.34 812.58 1086.73Q812.76 1086.11 812.97 1085.45Q813.18 1084.78 813.45 1084.07Q813.71 1083.36 814.04 1082.55L814.04 1082.55L818.09 1072.86L822.26 1072.86L822.26 1090L819.49 1090L819.49 1081.14Q819.49 1080.17 819.5 1079.3Q819.51 1078.42 819.52 1077.58Q819.54 1076.73 819.55 1075.88Q819.55 1075.03 819.57 1074.14L819.57 1074.14L819.95 1074.14Q819.57 1075.41 819.21 1076.49Q818.85 1077.58 818.44 1078.68Q818.02 1079.78 817.45 1081.13L817.45 1081.13L813.66 1090L811.24 1090L807.41 1081.13Q806.84 1079.78 806.41 1078.68Q805.99 1077.58 805.63 1076.49Q805.27 1075.41 804.88 1074.14L804.88 1074.14L805.32 1074.14Q805.34 1074.94 805.36 1075.77Q805.38 1076.59 805.39 1077.46Q805.4 1078.33 805.41 1079.24Q805.41 1080.16 805.41 1081.14L805.41 1081.14L805.41 1090M840.8 1072.86L840.8 1090L838.02 1090L838.02 1077.5L837.88 1077.5L829.54 1090L826.87 1090L826.87 1072.86L829.63 1072.86L829.63 1085.39L829.79 1085.39L838.15 1072.86L840.8 1072.86M847.51 1079.91L857.1 1079.91L857.1 1082.47L847.51 1082.47L847.51 1079.91M845.4 1072.86L848.16 1072.86L848.16 1090L845.4 1090L845.4 1072.86M856.48 1072.86L859.24 1072.86L859.24 1090L856.48 1090L856.48 1072.86M863.12 1096.39L863.12 1096.39L863.6 1093.98L864.34 1094.05Q865.09 1094.19 865.69 1094.05Q866.29 1093.91 866.77 1093.37Q867.26 1092.83 867.62 1091.77L867.62 1091.77L868.26 1090.02L861.68 1072.86L864.7 1072.86L868.35 1082.92Q868.9 1084.41 869.31 1085.87Q869.73 1087.33 870.16 1088.72L870.16 1088.72L869.24 1088.72Q869.66 1087.33 870.09 1085.86Q870.51 1084.39 871.04 1082.92L871.04 1082.92L874.71 1072.86L877.7 1072.86L870.04 1092.77Q869.54 1094.06 868.82 1094.91Q868.1 1095.77 867.16 1096.19Q866.21 1096.61 865.04 1096.61L865.04 1096.61Q864.4 1096.61 863.9 1096.54Q863.4 1096.47 863.12 1096.39M887.73 1090L884.98 1090L884.98 1075.33L879.21 1075.33L879.21 1072.86L893.46 1072.86L893.46 1075.33L887.73 1075.33L887.73 1090M898.6 1081.48L898.6 1078.91L903.65 1078.91Q905.63 1078.91 907.05 1079.62Q908.48 1080.33 909.23 1081.56Q909.98 1082.8 909.98 1084.39L909.98 1084.39Q909.98 1085.98 909.22 1087.25Q908.46 1088.52 907.05 1089.26Q905.63 1090 903.65 1090L903.65 1090L896.24 1090L896.24 1072.86L899.01 1072.86L899.01 1087.44L903.62 1087.44Q905.21 1087.44 906.2 1086.62Q907.2 1085.8 907.2 1084.48L907.2 1084.48Q907.2 1083.13 906.2 1082.3Q905.21 1081.48 903.62 1081.48L903.62 1081.48L898.6 1081.48M914.62 1090L911.85 1090L911.85 1072.86L914.62 1072.86L914.62 1090" fill="#9A958C"><title>От идеи до ролика во всех соцсетях за 4 минуты</title></path>
<g transform="translate(388.82500000000005,1180)"><rect width="302.34999999999997" height="80" rx="40" fill="none" stroke="#FFD21E" stroke-width="2"/><path d="M46.01 39.28L44.87 33.37L51.02 33.37L52.13 40.21L52.13 50.5L46.01 50.5L46.01 39.28M58.04 32.86L58.04 32.86Q60.41 32.86 62.06 33.85Q63.71 34.84 64.58 36.64Q65.45 38.44 65.45 40.9L65.45 40.9L65.45 50.5L59.33 50.5L59.33 41.8Q59.33 39.88 58.46 38.86Q57.59 37.84 55.94 37.84L55.94 37.84Q54.77 37.84 53.92 38.38Q53.06 38.92 52.6 39.91Q52.13 40.9 52.13 42.25L52.13 42.25L50.24 41.26Q50.6 38.53 51.71 36.66Q52.82 34.78 54.46 33.82Q56.09 32.86 58.04 32.86M71.33 32.86L71.33 32.86Q73.7 32.86 75.36 33.85Q77.03 34.84 77.9 36.64Q78.77 38.44 78.77 40.9L78.77 40.9L78.77 50.5L72.65 50.5L72.65 41.8Q72.65 39.88 71.78 38.86Q70.91 37.84 69.26 37.84L69.26 37.84Q68.09 37.84 67.24 38.38Q66.38 38.92 65.91 39.91Q65.45 40.9 65.45 42.25L65.45 42.25L63.56 41.26Q63.92 38.53 65.02 36.66Q66.11 34.78 67.76 33.82Q69.41 32.86 71.33 32.86M91.82 50.98L91.82 50.98Q88.52 50.98 86.06 49.86Q83.6 48.73 82.22 46.68Q80.84 44.62 80.84 41.95L80.84 41.95Q80.84 39.22 82.22 37.18Q83.6 35.14 86.06 34Q88.52 32.86 91.82 32.86L91.82 32.86Q95.09 32.86 97.57 34Q100.04 35.14 101.42 37.18Q102.8 39.22 102.8 41.95L102.8 41.95Q102.8 44.62 101.42 46.68Q100.04 48.73 97.57 49.86Q95.09 50.98 91.82 50.98M91.82 46.45L91.82 46.45Q93.32 46.45 94.39 45.91Q95.45 45.37 96.02 44.35Q96.59 43.33 96.59 41.95L96.59 41.95Q96.59 40.51 96.02 39.51Q95.45 38.5 94.39 37.96Q93.32 37.42 91.82 37.42L91.82 37.42Q90.32 37.42 89.24 37.96Q88.16 38.5 87.59 39.51Q87.02 40.51 87.02 41.92L87.02 41.92Q87.02 43.33 87.59 44.35Q88.16 45.37 89.24 45.91Q90.32 46.45 91.82 46.45M105.41 39.28L104.27 33.37L110.42 33.37L111.53 40.21L111.53 50.5L105.41 50.5L105.41 39.28M117.83 32.86L117.83 32.86Q120.29 32.86 122.03 33.85Q123.77 34.84 124.69 36.64Q125.6 38.44 125.6 40.9L125.6 40.9L125.6 50.5L119.48 50.5L119.48 41.8Q119.48 39.88 118.51 38.86Q117.53 37.84 115.7 37.84L115.7 37.84Q114.44 37.84 113.5 38.38Q112.55 38.92 112.04 39.91Q111.53 40.9 111.53 42.25L111.53 42.25L109.64 41.26Q110 38.53 111.17 36.66Q112.34 34.78 114.05 33.82Q115.76 32.86 117.83 32.86M130.43 37.9L126.95 37.9L126.95 35.23L130.43 33.82L133.07 28.75L136.55 28.75L136.55 33.37L143.75 33.37L143.75 37.9L136.55 37.9L136.55 42.94Q136.55 44.8 137.3 45.55Q138.05 46.3 140.03 46.3L140.03 46.3Q141.29 46.3 142.27 46.08Q143.24 45.85 144.05 45.49L144.05 45.49L144.05 50.11Q143.15 50.44 141.68 50.71Q140.21 50.98 138.65 50.98L138.65 50.98Q135.8 50.98 133.99 50.11Q132.17 49.24 131.3 47.61Q130.43 45.97 130.43 43.78L130.43 43.78L130.43 37.9M151.88 55.93L151.88 55.93Q149.99 55.93 148.52 55.47Q147.05 55 145.67 54.04L145.67 54.04L145.67 49.78Q147.08 50.68 148.31 51.07Q149.54 51.46 151.01 51.46L151.01 51.46Q152.24 51.46 153.2 50.92Q154.16 50.38 154.76 48.94L154.76 48.94L161.33 33.37L167.84 33.37L159.62 50.83Q158.75 52.72 157.51 53.85Q156.26 54.97 154.82 55.45Q153.38 55.93 151.88 55.93M158 48.91L152.09 48.91L144.8 33.37L151.55 33.37L158 48.91M172.07 50.8L172.07 50.8Q171.11 50.8 170.32 50.35Q169.52 49.9 169.07 49.11Q168.62 48.31 168.62 47.35L168.62 47.35Q168.62 46.39 169.07 45.61Q169.52 44.83 170.32 44.37Q171.11 43.9 172.07 43.9L172.07 43.9Q173.06 43.9 173.84 44.37Q174.62 44.83 175.07 45.61Q175.52 46.39 175.52 47.35L175.52 47.35Q175.52 48.31 175.07 49.11Q174.62 49.9 173.84 50.35Q173.06 50.8 172.07 50.8M190.13 31.48L190.13 31.48Q188.12 31.48 187.33 32.19Q186.53 32.89 186.53 34.45L186.53 34.45L186.53 50.5L180.41 50.5L180.41 34.75Q180.41 32.26 181.43 30.51Q182.45 28.75 184.45 27.84Q186.44 26.92 189.38 26.92L189.38 26.92Q190.7 26.92 191.74 27.1Q192.77 27.28 193.94 27.61L193.94 27.61L193.94 32.11Q193.04 31.78 192.09 31.63Q191.15 31.48 190.13 31.48M193.52 39.31L176.93 39.31L176.93 34.78L193.52 34.78L193.52 39.31M217.16 50.5L210.8 50.5L210.02 44.32L210.83 41.95L210.02 39.58L210.8 33.37L217.16 33.37L216.08 41.92L217.16 50.5M212.24 41.95L212.24 41.95Q211.82 44.65 210.58 46.69Q209.33 48.73 207.43 49.86Q205.52 50.98 203.09 50.98L203.09 50.98Q200.57 50.98 198.67 49.86Q196.76 48.73 195.68 46.68Q194.6 44.62 194.6 41.95L194.6 41.95Q194.6 39.22 195.68 37.18Q196.76 35.14 198.67 34Q200.57 32.86 203.09 32.86L203.09 32.86Q205.52 32.86 207.43 33.99Q209.33 35.11 210.59 37.14Q211.85 39.16 212.24 41.95M200.81 41.95L200.81 41.95Q200.81 43.21 201.33 44.2Q201.86 45.19 202.79 45.75Q203.72 46.3 204.92 46.3L204.92 46.3Q206.18 46.3 207.29 45.75Q208.4 45.19 209.24 44.2Q210.08 43.21 210.5 41.95L210.5 41.95Q210.08 40.66 209.24 39.67Q208.4 38.68 207.29 38.11Q206.18 37.54 204.92 37.54L204.92 37.54Q203.72 37.54 202.79 38.11Q201.86 38.68 201.33 39.67Q200.81 40.66 200.81 41.95M239.66 44.92L239.66 44.92Q239.66 46.9 238.46 48.25Q237.26 49.6 235.04 50.29Q232.82 50.98 229.7 50.98L229.7 50.98Q226.49 50.98 224.08 50.2Q221.66 49.42 220.31 48.01Q218.96 46.6 218.87 44.74L218.87 44.74L225.08 44.74Q225.29 45.43 225.9 45.93Q226.52 46.42 227.54 46.68Q228.56 46.93 229.97 46.93L229.97 46.93Q231.8 46.93 232.74 46.57Q233.69 46.21 233.69 45.49L233.69 45.49Q233.69 44.92 232.97 44.64Q232.25 44.35 230.51 44.2L230.51 44.2L227.48 43.96Q224.45 43.75 222.66 43.05Q220.88 42.34 220.1 41.22Q219.32 40.09 219.32 38.65L219.32 38.65Q219.32 36.7 220.53 35.42Q221.75 34.15 223.93 33.5Q226.1 32.86 229.01 32.86L229.01 32.86Q231.89 32.86 234.14 33.61Q236.39 34.36 237.74 35.7Q239.09 37.03 239.3 38.83L239.3 38.83L233.09 38.83Q232.94 38.26 232.43 37.8Q231.92 37.33 231.02 37.03Q230.12 36.73 228.71 36.73L228.71 36.73Q227.06 36.73 226.21 37.09Q225.35 37.45 225.35 38.11L225.35 38.11Q225.35 38.62 225.87 38.92Q226.4 39.22 227.84 39.34L227.84 39.34L231.83 39.64Q234.8 39.82 236.51 40.5Q238.22 41.17 238.94 42.28Q239.66 43.39 239.66 44.92M243.92 37.9L240.44 37.9L240.44 35.23L243.92 33.82L246.56 28.75L250.04 28.75L250.04 33.37L257.24 33.37L257.24 37.9L250.04 37.9L250.04 42.94Q250.04 44.8 250.79 45.55Q251.54 46.3 253.52 46.3L253.52 46.3Q254.78 46.3 255.75 46.08Q256.73 45.85 257.54 45.49L257.54 45.49L257.54 50.11Q256.64 50.44 255.17 50.71Q253.7 50.98 252.14 50.98L252.14 50.98Q249.29 50.98 247.47 50.11Q245.66 49.24 244.79 47.61Q243.92 45.97 243.92 43.78L243.92 43.78L243.92 37.9" fill="#FFD21E"><title>monty.fast</title></path></g>
</svg>
